<svg width="432" height="98" viewBox="0 0 432 98" fill="none" xmlns="http://www.w3.org/2000/svg">
<g filter="url(#filter0_i_8_109)">
<rect width="432" height="98" rx="24.5" fill="url(#paint0_linear_8_109)"/>
<path d="M130.966 62.36C129.142 62.36 127.438 62.036 125.854 61.388C124.27 60.716 122.878 59.792 121.678 58.616C120.502 57.416 119.578 56.036 118.906 54.476C118.234 52.916 117.898 51.224 117.898 49.4C117.898 47.576 118.234 45.884 118.906 44.324C119.578 42.764 120.502 41.396 121.678 40.22C122.878 39.02 124.27 38.096 125.854 37.448C127.438 36.776 129.142 36.44 130.966 36.44C132.142 36.44 133.282 36.572 134.386 36.836C135.49 37.1 136.486 37.484 137.374 37.988C137.686 38.156 137.914 38.384 138.058 38.672C138.202 38.936 138.274 39.2 138.274 39.464C138.274 39.968 138.106 40.412 137.77 40.796C137.458 41.156 137.062 41.336 136.582 41.336C136.414 41.336 136.234 41.312 136.042 41.264C135.874 41.216 135.718 41.156 135.574 41.084C134.902 40.748 134.182 40.496 133.414 40.328C132.646 40.136 131.83 40.04 130.966 40.04C129.238 40.04 127.678 40.46 126.286 41.3C124.894 42.116 123.79 43.232 122.974 44.648C122.182 46.064 121.786 47.648 121.786 49.4C121.786 51.128 122.182 52.712 122.974 54.152C123.79 55.568 124.894 56.696 126.286 57.536C127.678 58.352 129.238 58.76 130.966 58.76C131.806 58.76 132.694 58.664 133.63 58.472C134.566 58.256 135.358 57.98 136.006 57.644L135.718 58.616V51.776L136.294 52.28H131.578C131.05 52.28 130.606 52.112 130.246 51.776C129.91 51.44 129.742 51.008 129.742 50.48C129.742 49.952 129.91 49.52 130.246 49.184C130.606 48.848 131.05 48.68 131.578 48.68H137.806C138.31 48.68 138.73 48.86 139.066 49.22C139.426 49.556 139.606 49.988 139.606 50.516V58.508C139.606 58.892 139.51 59.216 139.318 59.48C139.126 59.744 138.91 59.96 138.67 60.128C137.59 60.8 136.39 61.34 135.07 61.748C133.774 62.156 132.406 62.36 130.966 62.36ZM152.756 62.36C150.764 62.36 149.036 61.952 147.572 61.136C146.108 60.296 144.968 59.156 144.152 57.716C143.36 56.252 142.964 54.584 142.964 52.712C142.964 50.6 143.384 48.8 144.224 47.312C145.088 45.8 146.204 44.648 147.572 43.856C148.94 43.04 150.392 42.632 151.928 42.632C153.104 42.632 154.22 42.872 155.276 43.352C156.332 43.808 157.268 44.456 158.084 45.296C158.924 46.112 159.584 47.084 160.064 48.212C160.544 49.316 160.796 50.528 160.82 51.848C160.796 52.328 160.604 52.724 160.244 53.036C159.884 53.348 159.464 53.504 158.984 53.504H144.98L144.116 50.444H157.652L156.968 51.092V50.192C156.92 49.352 156.644 48.62 156.14 47.996C155.636 47.348 155.012 46.856 154.268 46.52C153.524 46.16 152.744 45.98 151.928 45.98C151.208 45.98 150.512 46.1 149.84 46.34C149.192 46.556 148.604 46.916 148.076 47.42C147.572 47.924 147.164 48.596 146.852 49.436C146.564 50.252 146.42 51.272 146.42 52.496C146.42 53.816 146.696 54.968 147.248 55.952C147.8 56.936 148.544 57.704 149.48 58.256C150.416 58.784 151.448 59.048 152.576 59.048C153.464 59.048 154.196 58.964 154.772 58.796C155.348 58.604 155.828 58.376 156.212 58.112C156.596 57.848 156.932 57.596 157.22 57.356C157.58 57.14 157.94 57.032 158.3 57.032C158.732 57.032 159.092 57.188 159.38 57.5C159.668 57.788 159.812 58.136 159.812 58.544C159.812 59.072 159.548 59.552 159.02 59.984C158.372 60.608 157.472 61.16 156.32 61.64C155.192 62.12 154.004 62.36 152.756 62.36ZM164.637 43.28H173.097C173.577 43.28 173.973 43.448 174.285 43.784C174.621 44.096 174.789 44.492 174.789 44.972C174.789 45.428 174.621 45.812 174.285 46.124C173.973 46.436 173.577 46.592 173.097 46.592H164.637C164.157 46.592 163.749 46.436 163.413 46.124C163.101 45.788 162.945 45.392 162.945 44.936C162.945 44.456 163.101 44.06 163.413 43.748C163.749 43.436 164.157 43.28 164.637 43.28ZM168.417 38.6C168.945 38.6 169.377 38.78 169.713 39.14C170.049 39.476 170.217 39.908 170.217 40.436V57.14C170.217 57.572 170.289 57.92 170.433 58.184C170.577 58.448 170.769 58.628 171.009 58.724C171.273 58.82 171.537 58.868 171.801 58.868C172.065 58.868 172.293 58.82 172.485 58.724C172.701 58.628 172.953 58.58 173.241 58.58C173.529 58.58 173.793 58.712 174.033 58.976C174.273 59.24 174.393 59.6 174.393 60.056C174.393 60.632 174.081 61.1 173.457 61.46C172.833 61.82 172.161 62 171.441 62C171.033 62 170.553 61.964 170.001 61.892C169.449 61.82 168.909 61.64 168.381 61.352C167.877 61.064 167.457 60.608 167.121 59.984C166.785 59.336 166.617 58.436 166.617 57.284V40.436C166.617 39.908 166.785 39.476 167.121 39.14C167.481 38.78 167.913 38.6 168.417 38.6ZM196.931 62.36C195.203 62.36 193.667 62.12 192.323 61.64C190.979 61.16 189.695 60.368 188.471 59.264C188.207 59.072 188.003 58.844 187.859 58.58C187.739 58.292 187.679 58.004 187.679 57.716C187.679 57.26 187.847 56.852 188.183 56.492C188.519 56.132 188.939 55.952 189.443 55.952C189.827 55.952 190.187 56.084 190.523 56.348C191.435 57.188 192.383 57.824 193.367 58.256C194.375 58.688 195.551 58.904 196.895 58.904C197.855 58.904 198.731 58.748 199.523 58.436C200.339 58.124 200.987 57.704 201.467 57.176C201.947 56.648 202.187 56.036 202.187 55.34C202.187 54.476 201.935 53.768 201.431 53.216C200.951 52.64 200.243 52.172 199.307 51.812C198.395 51.428 197.291 51.104 195.995 50.84C194.795 50.624 193.715 50.324 192.755 49.94C191.819 49.556 191.015 49.076 190.343 48.5C189.671 47.9 189.155 47.192 188.795 46.376C188.435 45.56 188.255 44.612 188.255 43.532C188.255 42.068 188.639 40.808 189.407 39.752C190.175 38.696 191.219 37.88 192.539 37.304C193.859 36.728 195.347 36.44 197.003 36.44C198.515 36.44 199.931 36.68 201.251 37.16C202.571 37.616 203.639 38.24 204.455 39.032C205.031 39.536 205.319 40.076 205.319 40.652C205.319 41.084 205.139 41.492 204.779 41.876C204.443 42.236 204.047 42.416 203.591 42.416C203.255 42.416 202.967 42.32 202.727 42.128C202.343 41.72 201.827 41.36 201.179 41.048C200.531 40.712 199.835 40.436 199.091 40.22C198.371 40.004 197.675 39.896 197.003 39.896C195.923 39.896 194.999 40.052 194.231 40.364C193.463 40.652 192.875 41.06 192.467 41.588C192.059 42.092 191.855 42.692 191.855 43.388C191.855 44.204 192.083 44.876 192.539 45.404C193.019 45.932 193.679 46.364 194.519 46.7C195.359 47.012 196.319 47.3 197.399 47.564C198.719 47.852 199.895 48.176 200.927 48.536C201.983 48.896 202.871 49.364 203.591 49.94C204.311 50.492 204.863 51.188 205.247 52.028C205.631 52.868 205.823 53.912 205.823 55.16C205.823 56.6 205.415 57.86 204.599 58.94C203.783 60.02 202.703 60.86 201.359 61.46C200.039 62.06 198.563 62.36 196.931 62.36ZM209.602 43.28H218.062C218.542 43.28 218.938 43.448 219.25 43.784C219.586 44.096 219.754 44.492 219.754 44.972C219.754 45.428 219.586 45.812 219.25 46.124C218.938 46.436 218.542 46.592 218.062 46.592H209.602C209.122 46.592 208.714 46.436 208.378 46.124C208.066 45.788 207.91 45.392 207.91 44.936C207.91 44.456 208.066 44.06 208.378 43.748C208.714 43.436 209.122 43.28 209.602 43.28ZM213.382 38.6C213.91 38.6 214.342 38.78 214.678 39.14C215.014 39.476 215.182 39.908 215.182 40.436V57.14C215.182 57.572 215.254 57.92 215.398 58.184C215.542 58.448 215.734 58.628 215.974 58.724C216.238 58.82 216.502 58.868 216.766 58.868C217.03 58.868 217.258 58.82 217.45 58.724C217.666 58.628 217.918 58.58 218.206 58.58C218.494 58.58 218.758 58.712 218.998 58.976C219.238 59.24 219.358 59.6 219.358 60.056C219.358 60.632 219.046 61.1 218.422 61.46C217.798 61.82 217.126 62 216.406 62C215.998 62 215.518 61.964 214.966 61.892C214.414 61.82 213.874 61.64 213.346 61.352C212.842 61.064 212.422 60.608 212.086 59.984C211.75 59.336 211.582 58.436 211.582 57.284V40.436C211.582 39.908 211.75 39.476 212.086 39.14C212.446 38.78 212.878 38.6 213.382 38.6ZM239.257 42.776C239.785 42.776 240.217 42.956 240.553 43.316C240.889 43.652 241.057 44.084 241.057 44.612V60.164C241.057 60.692 240.889 61.136 240.553 61.496C240.217 61.832 239.785 62 239.257 62C238.753 62 238.321 61.832 237.961 61.496C237.625 61.136 237.457 60.692 237.457 60.164V57.572L238.213 57.68C238.213 58.112 238.033 58.592 237.673 59.12C237.337 59.648 236.869 60.164 236.269 60.668C235.669 61.148 234.961 61.556 234.145 61.892C233.329 62.204 232.453 62.36 231.517 62.36C229.861 62.36 228.373 61.94 227.053 61.1C225.733 60.236 224.689 59.06 223.921 57.572C223.153 56.084 222.769 54.392 222.769 52.496C222.769 50.552 223.153 48.848 223.921 47.384C224.689 45.896 225.721 44.732 227.017 43.892C228.337 43.052 229.801 42.632 231.409 42.632C232.441 42.632 233.389 42.8 234.253 43.136C235.141 43.472 235.909 43.904 236.557 44.432C237.205 44.96 237.697 45.524 238.033 46.124C238.393 46.7 238.573 47.252 238.573 47.78L237.457 47.888V44.612C237.457 44.108 237.625 43.676 237.961 43.316C238.321 42.956 238.753 42.776 239.257 42.776ZM231.913 59.048C233.041 59.048 234.037 58.76 234.901 58.184C235.765 57.608 236.437 56.828 236.917 55.844C237.397 54.836 237.637 53.72 237.637 52.496C237.637 51.248 237.397 50.132 236.917 49.148C236.437 48.164 235.765 47.384 234.901 46.808C234.037 46.232 233.041 45.944 231.913 45.944C230.809 45.944 229.825 46.232 228.961 46.808C228.121 47.384 227.449 48.164 226.945 49.148C226.465 50.132 226.225 51.248 226.225 52.496C226.225 53.72 226.465 54.836 226.945 55.844C227.449 56.828 228.121 57.608 228.961 58.184C229.825 58.76 230.809 59.048 231.913 59.048ZM247.9 62C247.372 62 246.94 61.832 246.604 61.496C246.268 61.136 246.1 60.692 246.1 60.164V44.9C246.1 44.372 246.268 43.94 246.604 43.604C246.94 43.244 247.372 43.064 247.9 43.064C248.404 43.064 248.824 43.244 249.16 43.604C249.52 43.94 249.7 44.372 249.7 44.9V48.932L249.34 47.384C249.532 46.712 249.82 46.088 250.204 45.512C250.612 44.936 251.092 44.432 251.644 44C252.196 43.568 252.808 43.232 253.48 42.992C254.176 42.752 254.896 42.632 255.64 42.632C256.264 42.632 256.804 42.8 257.26 43.136C257.716 43.472 257.944 43.892 257.944 44.396C257.944 45.044 257.776 45.524 257.44 45.836C257.104 46.124 256.732 46.268 256.324 46.268C255.964 46.268 255.616 46.196 255.28 46.052C254.944 45.884 254.548 45.8 254.092 45.8C253.588 45.8 253.072 45.932 252.544 46.196C252.016 46.46 251.536 46.856 251.104 47.384C250.672 47.888 250.324 48.488 250.06 49.184C249.82 49.88 249.7 50.66 249.7 51.524V60.164C249.7 60.692 249.52 61.136 249.16 61.496C248.824 61.832 248.404 62 247.9 62ZM260.895 43.28H269.355C269.835 43.28 270.231 43.448 270.543 43.784C270.879 44.096 271.047 44.492 271.047 44.972C271.047 45.428 270.879 45.812 270.543 46.124C270.231 46.436 269.835 46.592 269.355 46.592H260.895C260.415 46.592 260.007 46.436 259.671 46.124C259.359 45.788 259.203 45.392 259.203 44.936C259.203 44.456 259.359 44.06 259.671 43.748C260.007 43.436 260.415 43.28 260.895 43.28ZM264.675 38.6C265.203 38.6 265.635 38.78 265.971 39.14C266.307 39.476 266.475 39.908 266.475 40.436V57.14C266.475 57.572 266.547 57.92 266.691 58.184C266.835 58.448 267.027 58.628 267.267 58.724C267.531 58.82 267.795 58.868 268.059 58.868C268.323 58.868 268.551 58.82 268.743 58.724C268.959 58.628 269.211 58.58 269.499 58.58C269.787 58.58 270.051 58.712 270.291 58.976C270.531 59.24 270.651 59.6 270.651 60.056C270.651 60.632 270.339 61.1 269.715 61.46C269.091 61.82 268.419 62 267.699 62C267.291 62 266.811 61.964 266.259 61.892C265.707 61.82 265.167 61.64 264.639 61.352C264.135 61.064 263.715 60.608 263.379 59.984C263.043 59.336 262.875 58.436 262.875 57.284V40.436C262.875 39.908 263.043 39.476 263.379 39.14C263.739 38.78 264.171 38.6 264.675 38.6ZM283.678 62.36C281.686 62.36 279.958 61.952 278.494 61.136C277.03 60.296 275.89 59.156 275.074 57.716C274.282 56.252 273.886 54.584 273.886 52.712C273.886 50.6 274.306 48.8 275.146 47.312C276.01 45.8 277.126 44.648 278.494 43.856C279.862 43.04 281.314 42.632 282.85 42.632C284.026 42.632 285.142 42.872 286.198 43.352C287.254 43.808 288.19 44.456 289.006 45.296C289.846 46.112 290.506 47.084 290.986 48.212C291.466 49.316 291.718 50.528 291.742 51.848C291.718 52.328 291.526 52.724 291.166 53.036C290.806 53.348 290.386 53.504 289.906 53.504H275.902L275.038 50.444H288.574L287.89 51.092V50.192C287.842 49.352 287.566 48.62 287.062 47.996C286.558 47.348 285.934 46.856 285.19 46.52C284.446 46.16 283.666 45.98 282.85 45.98C282.13 45.98 281.434 46.1 280.762 46.34C280.114 46.556 279.526 46.916 278.998 47.42C278.494 47.924 278.086 48.596 277.774 49.436C277.486 50.252 277.342 51.272 277.342 52.496C277.342 53.816 277.618 54.968 278.17 55.952C278.722 56.936 279.466 57.704 280.402 58.256C281.338 58.784 282.37 59.048 283.498 59.048C284.386 59.048 285.118 58.964 285.694 58.796C286.27 58.604 286.75 58.376 287.134 58.112C287.518 57.848 287.854 57.596 288.142 57.356C288.502 57.14 288.862 57.032 289.222 57.032C289.654 57.032 290.014 57.188 290.302 57.5C290.59 57.788 290.734 58.136 290.734 58.544C290.734 59.072 290.47 59.552 289.942 59.984C289.294 60.608 288.394 61.16 287.242 61.64C286.114 62.12 284.926 62.36 283.678 62.36ZM311.327 35.36C311.855 35.36 312.287 35.528 312.623 35.864C312.959 36.2 313.127 36.644 313.127 37.196V60.164C313.127 60.692 312.959 61.136 312.623 61.496C312.287 61.832 311.855 62 311.327 62C310.823 62 310.391 61.832 310.031 61.496C309.695 61.136 309.527 60.692 309.527 60.164V57.572L310.283 57.608C310.283 58.04 310.103 58.532 309.743 59.084C309.407 59.612 308.939 60.128 308.339 60.632C307.739 61.136 307.031 61.556 306.215 61.892C305.399 62.204 304.523 62.36 303.587 62.36C301.931 62.36 300.443 61.94 299.123 61.1C297.803 60.236 296.759 59.072 295.991 57.608C295.223 56.12 294.839 54.416 294.839 52.496C294.839 50.576 295.223 48.884 295.991 47.42C296.759 45.932 297.791 44.768 299.087 43.928C300.407 43.064 301.871 42.632 303.479 42.632C304.487 42.632 305.423 42.8 306.287 43.136C307.175 43.472 307.943 43.904 308.591 44.432C309.239 44.96 309.743 45.524 310.103 46.124C310.463 46.7 310.643 47.252 310.643 47.78L309.527 47.888V37.196C309.527 36.668 309.695 36.236 310.031 35.9C310.391 35.54 310.823 35.36 311.327 35.36ZM303.983 59.048C305.135 59.048 306.131 58.76 306.971 58.184C307.835 57.608 308.507 56.828 308.987 55.844C309.467 54.86 309.707 53.744 309.707 52.496C309.707 51.248 309.467 50.132 308.987 49.148C308.507 48.164 307.835 47.384 306.971 46.808C306.107 46.232 305.111 45.944 303.983 45.944C302.879 45.944 301.895 46.232 301.031 46.808C300.191 47.384 299.519 48.164 299.015 49.148C298.535 50.132 298.295 51.248 298.295 52.496C298.295 53.744 298.535 54.86 299.015 55.844C299.519 56.828 300.191 57.608 301.031 58.184C301.895 58.76 302.879 59.048 303.983 59.048Z" fill="white"/>
</g>
<defs>
<filter id="filter0_i_8_109" x="0" y="0" width="432" height="98" filterUnits="userSpaceOnUse" color-interpolation-filters="sRGB">
<feFlood flood-opacity="0" result="BackgroundImageFix"/>
<feBlend mode="normal" in="SourceGraphic" in2="BackgroundImageFix" result="shape"/>
<feColorMatrix in="SourceAlpha" type="matrix" values="0 0 0 0 0 0 0 0 0 0 0 0 0 0 0 0 0 0 127 0" result="hardAlpha"/>
<feOffset/>
<feGaussianBlur stdDeviation="4"/>
<feComposite in2="hardAlpha" operator="arithmetic" k2="-1" k3="1"/>
<feColorMatrix type="matrix" values="0 0 0 0 0 0 0 0 0 0 0 0 0 0 0 0 0 0 0.3 0"/>
<feBlend mode="normal" in2="shape" result="effect1_innerShadow_8_109"/>
</filter>
<linearGradient id="paint0_linear_8_109" x1="0" y1="49" x2="432" y2="49" gradientUnits="userSpaceOnUse">
<stop stop-color="#FD5400"/>
<stop offset="1" stop-color="#FF7A01"/>
</linearGradient>
</defs>
</svg>
