<svg width="470" height="73" viewBox="0 0 470 73" fill="none" xmlns="http://www.w3.org/2000/svg">
<path d="M1.87198 1.40389C2.15998 1.40389 2.45998 1.47589 2.77198 1.61989C3.08398 1.76389 3.32398 1.96789 3.49198 2.23189L12.636 16.1639L11.088 16.0919L20.412 2.23189C20.796 1.67989 21.288 1.40389 21.888 1.40389C22.368 1.40389 22.788 1.58389 23.148 1.94389C23.532 2.27989 23.724 2.71189 23.724 3.23989V24.8039C23.724 25.3319 23.556 25.7759 23.22 26.1359C22.884 26.4719 22.44 26.6399 21.888 26.6399C21.312 26.6399 20.844 26.4719 20.484 26.1359C20.148 25.7759 19.98 25.3319 19.98 24.8039V6.55189L21.132 6.80389L13.212 18.8639C13.044 19.0799 12.828 19.2719 12.564 19.4399C12.3 19.5839 12.024 19.6439 11.736 19.6199C11.472 19.6439 11.196 19.5839 10.908 19.4399C10.644 19.2719 10.428 19.0799 10.26 18.8639L2.62798 6.98389L3.49198 5.54389V24.8039C3.49198 25.3319 3.32398 25.7759 2.98798 26.1359C2.67598 26.4719 2.25598 26.6399 1.72798 26.6399C1.22398 26.6399 0.803984 26.4719 0.467985 26.1359C0.155984 25.7759 -1.56164e-05 25.3319 -1.56164e-05 24.8039V3.23989C-1.56164e-05 2.73589 0.179984 2.30389 0.539984 1.94389C0.923984 1.58389 1.36798 1.40389 1.87198 1.40389ZM44.7215 7.41589C45.2495 7.41589 45.6815 7.59589 46.0175 7.95589C46.3535 8.29189 46.5215 8.72389 46.5215 9.25189V24.8039C46.5215 25.3319 46.3535 25.7759 46.0175 26.1359C45.6815 26.4719 45.2495 26.6399 44.7215 26.6399C44.2175 26.6399 43.7855 26.4719 43.4255 26.1359C43.0895 25.7759 42.9215 25.3319 42.9215 24.8039V22.2119L43.6775 22.3199C43.6775 22.7519 43.4975 23.2319 43.1375 23.7599C42.8015 24.2879 42.3335 24.8039 41.7335 25.3079C41.1335 25.7879 40.4255 26.1959 39.6095 26.5319C38.7935 26.8439 37.9175 26.9999 36.9815 26.9999C35.3255 26.9999 33.8375 26.5799 32.5175 25.7399C31.1975 24.8759 30.1535 23.6999 29.3855 22.2119C28.6175 20.7239 28.2335 19.0319 28.2335 17.1359C28.2335 15.1919 28.6175 13.4879 29.3855 12.0239C30.1535 10.5359 31.1855 9.37189 32.4815 8.53189C33.8015 7.69189 35.2655 7.27189 36.8735 7.27189C37.9055 7.27189 38.8535 7.43989 39.7175 7.77589C40.6055 8.11189 41.3735 8.54389 42.0215 9.07189C42.6695 9.59989 43.1615 10.1639 43.4975 10.7639C43.8575 11.3399 44.0375 11.8919 44.0375 12.4199L42.9215 12.5279V9.25189C42.9215 8.74789 43.0895 8.31589 43.4255 7.95589C43.7855 7.59589 44.2175 7.41589 44.7215 7.41589ZM37.3775 23.6879C38.5055 23.6879 39.5015 23.3999 40.3655 22.8239C41.2295 22.2479 41.9015 21.4679 42.3815 20.4839C42.8615 19.4759 43.1015 18.3599 43.1015 17.1359C43.1015 15.8879 42.8615 14.7719 42.3815 13.7879C41.9015 12.8039 41.2295 12.0239 40.3655 11.4479C39.5015 10.8719 38.5055 10.5839 37.3775 10.5839C36.2735 10.5839 35.2895 10.8719 34.4255 11.4479C33.5855 12.0239 32.9135 12.8039 32.4095 13.7879C31.9295 14.7719 31.6895 15.8879 31.6895 17.1359C31.6895 18.3599 31.9295 19.4759 32.4095 20.4839C32.9135 21.4679 33.5855 22.2479 34.4255 22.8239C35.2895 23.3999 36.2735 23.6879 37.3775 23.6879ZM53.3649 26.6399C52.8369 26.6399 52.4049 26.4719 52.0689 26.1359C51.7329 25.7759 51.5649 25.3319 51.5649 24.8039V9.53989C51.5649 9.01189 51.7329 8.57989 52.0689 8.24389C52.4049 7.88389 52.8369 7.70389 53.3649 7.70389C53.8689 7.70389 54.2889 7.88389 54.6249 8.24389C54.9849 8.57989 55.1649 9.01189 55.1649 9.53989V13.5719L54.8049 12.0239C54.9969 11.3519 55.2849 10.7279 55.6689 10.1519C56.0769 9.57589 56.5569 9.07189 57.1089 8.63989C57.6609 8.20789 58.2729 7.87189 58.9449 7.63189C59.6409 7.39189 60.3609 7.27189 61.1049 7.27189C61.7289 7.27189 62.2689 7.43989 62.7249 7.77589C63.1809 8.11189 63.4089 8.53189 63.4089 9.03589C63.4089 9.68389 63.2409 10.1639 62.9049 10.4759C62.5689 10.7639 62.1969 10.9079 61.7889 10.9079C61.4289 10.9079 61.0809 10.8359 60.7449 10.6919C60.4089 10.5239 60.0129 10.4399 59.5569 10.4399C59.0529 10.4399 58.5369 10.5719 58.0089 10.8359C57.4809 11.0999 57.0009 11.4959 56.5689 12.0239C56.1369 12.5279 55.7889 13.1279 55.5249 13.8239C55.2849 14.5199 55.1649 15.2999 55.1649 16.1639V24.8039C55.1649 25.3319 54.9849 25.7759 54.6249 26.1359C54.2889 26.4719 53.8689 26.6399 53.3649 26.6399ZM68.6998 26.6399C68.1958 26.6399 67.7638 26.4719 67.4038 26.1359C67.0678 25.7759 66.8998 25.3319 66.8998 24.8039V1.83589C66.8998 1.30789 67.0678 0.875892 67.4038 0.539892C67.7638 0.179892 68.1958 -0.000107765 68.6998 -0.000107765C69.2278 -0.000107765 69.6598 0.179892 69.9958 0.539892C70.3318 0.875892 70.4998 1.30789 70.4998 1.83589V24.8039C70.4998 25.3319 70.3318 25.7759 69.9958 26.1359C69.6598 26.4719 69.2278 26.6399 68.6998 26.6399ZM80.4358 7.63189C80.8918 7.63189 81.2878 7.82389 81.6238 8.20789C81.9598 8.59189 82.1278 8.97589 82.1278 9.35989C82.1278 9.83989 81.8998 10.2839 81.4438 10.6919L70.1758 20.7719L70.0318 16.6319L79.1038 8.20789C79.4878 7.82389 79.9318 7.63189 80.4358 7.63189ZM80.8678 26.6039C80.3638 26.6039 79.9318 26.3999 79.5718 25.9919L72.3718 18.3959L75.1078 15.8759L82.1278 23.4719C82.5118 23.8799 82.7038 24.3359 82.7038 24.8399C82.7038 25.3679 82.4878 25.7999 82.0558 26.1359C81.6478 26.4479 81.2518 26.6039 80.8678 26.6039ZM94.6974 26.9999C92.7054 26.9999 90.9774 26.5919 89.5134 25.7759C88.0494 24.9359 86.9094 23.7959 86.0934 22.3559C85.3014 20.8919 84.9054 19.2239 84.9054 17.3519C84.9054 15.2399 85.3254 13.4399 86.1654 11.9519C87.0294 10.4399 88.1454 9.28789 89.5134 8.49589C90.8814 7.67989 92.3334 7.27189 93.8694 7.27189C95.0454 7.27189 96.1614 7.51189 97.2174 7.99189C98.2734 8.44789 99.2094 9.09589 100.025 9.93589C100.865 10.7519 101.525 11.7239 102.005 12.8519C102.485 13.9559 102.737 15.1679 102.761 16.4879C102.737 16.9679 102.545 17.3639 102.185 17.6759C101.825 17.9879 101.405 18.1439 100.925 18.1439H86.9214L86.0574 15.0839H99.5934L98.9094 15.7319V14.8319C98.8614 13.9919 98.5854 13.2599 98.0814 12.6359C97.5774 11.9879 96.9534 11.4959 96.2094 11.1599C95.4654 10.7999 94.6854 10.6199 93.8694 10.6199C93.1494 10.6199 92.4534 10.7399 91.7814 10.9799C91.1334 11.1959 90.5454 11.5559 90.0174 12.0599C89.5134 12.5639 89.1054 13.2359 88.7934 14.0759C88.5054 14.8919 88.3614 15.9119 88.3614 17.1359C88.3614 18.4559 88.6374 19.6079 89.1894 20.5919C89.7414 21.5759 90.4854 22.3439 91.4214 22.8959C92.3574 23.4239 93.3894 23.6879 94.5174 23.6879C95.4054 23.6879 96.1374 23.6039 96.7134 23.4359C97.2894 23.2439 97.7694 23.0159 98.1534 22.7519C98.5374 22.4879 98.8734 22.2359 99.1614 21.9959C99.5214 21.7799 99.8814 21.6719 100.241 21.6719C100.673 21.6719 101.033 21.8279 101.321 22.1399C101.609 22.4279 101.753 22.7759 101.753 23.1839C101.753 23.7119 101.489 24.1919 100.961 24.6239C100.313 25.2479 99.4134 25.7999 98.2614 26.2799C97.1334 26.7599 95.9454 26.9999 94.6974 26.9999ZM106.579 7.91989H115.039C115.519 7.91989 115.915 8.08789 116.227 8.42389C116.563 8.73589 116.731 9.13189 116.731 9.61189C116.731 10.0679 116.563 10.4519 116.227 10.7639C115.915 11.0759 115.519 11.2319 115.039 11.2319H106.579C106.099 11.2319 105.691 11.0759 105.355 10.7639C105.043 10.4279 104.887 10.0319 104.887 9.57589C104.887 9.09589 105.043 8.69989 105.355 8.38789C105.691 8.07589 106.099 7.91989 106.579 7.91989ZM110.359 3.23989C110.887 3.23989 111.319 3.41989 111.655 3.77989C111.991 4.11589 112.159 4.54789 112.159 5.07589V21.7799C112.159 22.2119 112.231 22.5599 112.375 22.8239C112.519 23.0879 112.711 23.2679 112.951 23.3639C113.215 23.4599 113.479 23.5079 113.743 23.5079C114.007 23.5079 114.235 23.4599 114.427 23.3639C114.643 23.2679 114.895 23.2199 115.183 23.2199C115.471 23.2199 115.735 23.3519 115.975 23.6159C116.215 23.8799 116.335 24.2399 116.335 24.6959C116.335 25.2719 116.023 25.7399 115.399 26.0999C114.775 26.4599 114.103 26.6399 113.383 26.6399C112.975 26.6399 112.495 26.6039 111.943 26.5319C111.391 26.4599 110.851 26.2799 110.323 25.9919C109.819 25.7039 109.399 25.2479 109.063 24.6239C108.727 23.9759 108.559 23.0759 108.559 21.9239V5.07589C108.559 4.54789 108.727 4.11589 109.063 3.77989C109.423 3.41989 109.855 3.23989 110.359 3.23989ZM124.101 24.8039C124.101 25.3319 123.933 25.7759 123.597 26.1359C123.261 26.4719 122.829 26.6399 122.301 26.6399C121.797 26.6399 121.365 26.4719 121.005 26.1359C120.669 25.7759 120.501 25.3319 120.501 24.8039V9.39589C120.501 8.86789 120.669 8.43589 121.005 8.09989C121.365 7.73989 121.797 7.55989 122.301 7.55989C122.829 7.55989 123.261 7.73989 123.597 8.09989C123.933 8.43589 124.101 8.86789 124.101 9.39589V24.8039ZM122.265 5.18389C121.569 5.18389 121.065 5.06389 120.753 4.82389C120.441 4.55989 120.285 4.12789 120.285 3.52789V2.95189C120.285 2.35189 120.453 1.93189 120.789 1.69189C121.125 1.45189 121.629 1.33189 122.301 1.33189C123.021 1.33189 123.537 1.46389 123.849 1.72789C124.161 1.96789 124.317 2.37589 124.317 2.95189V3.52789C124.317 4.15189 124.149 4.58389 123.813 4.82389C123.501 5.06389 122.985 5.18389 122.265 5.18389ZM138.7 7.27189C140.404 7.27189 141.724 7.63189 142.66 8.35189C143.596 9.04789 144.244 9.99589 144.604 11.1959C144.988 12.3719 145.18 13.6919 145.18 15.1559V24.8039C145.18 25.3319 145 25.7759 144.64 26.1359C144.304 26.4719 143.884 26.6399 143.38 26.6399C142.852 26.6399 142.42 26.4719 142.084 26.1359C141.748 25.7759 141.58 25.3319 141.58 24.8039V15.1919C141.58 14.3279 141.46 13.5599 141.22 12.8879C140.98 12.1919 140.56 11.6399 139.96 11.2319C139.384 10.7999 138.568 10.5839 137.512 10.5839C136.528 10.5839 135.664 10.7999 134.92 11.2319C134.176 11.6399 133.588 12.1919 133.156 12.8879C132.748 13.5599 132.544 14.3279 132.544 15.1919V24.8039C132.544 25.3319 132.364 25.7759 132.004 26.1359C131.668 26.4719 131.248 26.6399 130.744 26.6399C130.216 26.6399 129.784 26.4719 129.448 26.1359C129.112 25.7759 128.944 25.3319 128.944 24.8039V9.53989C128.944 9.01189 129.112 8.57989 129.448 8.24389C129.784 7.88389 130.216 7.70389 130.744 7.70389C131.248 7.70389 131.668 7.88389 132.004 8.24389C132.364 8.57989 132.544 9.01189 132.544 9.53989V11.5559L131.896 11.9159C132.064 11.3879 132.352 10.8599 132.76 10.3319C133.192 9.77989 133.708 9.27589 134.308 8.81989C134.908 8.33989 135.58 7.96789 136.324 7.70389C137.068 7.41589 137.86 7.27189 138.7 7.27189ZM158.062 7.27189C159.094 7.27189 160.042 7.43989 160.906 7.77589C161.77 8.11189 162.514 8.54389 163.138 9.07189C163.786 9.57589 164.29 10.1039 164.65 10.6559C165.01 11.2079 165.19 11.6879 165.19 12.0959L164.362 12.1319V9.25189C164.362 8.74789 164.53 8.31589 164.866 7.95589C165.202 7.59589 165.634 7.41589 166.162 7.41589C166.69 7.41589 167.122 7.59589 167.458 7.95589C167.794 8.29189 167.962 8.72389 167.962 9.25189V25.1279C167.962 27.1679 167.53 28.8239 166.666 30.0959C165.802 31.3919 164.65 32.3399 163.21 32.9399C161.794 33.5399 160.234 33.8399 158.53 33.8399C157.93 33.8399 157.222 33.7559 156.406 33.5879C155.59 33.4439 154.834 33.2639 154.138 33.0479C153.466 32.8319 152.998 32.6159 152.734 32.3999C152.182 32.1119 151.81 31.7759 151.618 31.3919C151.45 31.0079 151.45 30.6239 151.618 30.2399C151.858 29.7119 152.182 29.3879 152.59 29.2679C152.998 29.1479 153.466 29.1839 153.994 29.3759C154.234 29.4479 154.606 29.5799 155.11 29.7719C155.614 29.9639 156.178 30.1319 156.802 30.2759C157.426 30.4439 158.014 30.5279 158.566 30.5279C160.486 30.5279 161.926 30.0839 162.886 29.1959C163.87 28.3079 164.362 27.0959 164.362 25.5599V22.3199L164.758 22.5719C164.686 23.0759 164.458 23.5919 164.074 24.1199C163.714 24.6239 163.234 25.0919 162.634 25.5239C162.034 25.9559 161.338 26.3159 160.546 26.6039C159.778 26.8679 158.986 26.9999 158.17 26.9999C156.466 26.9999 154.942 26.5799 153.598 25.7399C152.254 24.8759 151.186 23.7119 150.394 22.2479C149.602 20.7599 149.206 19.0559 149.206 17.1359C149.206 15.2159 149.602 13.5239 150.394 12.0599C151.186 10.5719 152.242 9.40789 153.562 8.56789C154.906 7.70389 156.406 7.27189 158.062 7.27189ZM158.602 10.5839C157.426 10.5839 156.394 10.8719 155.506 11.4479C154.618 12.0239 153.922 12.8039 153.418 13.7879C152.914 14.7719 152.662 15.8879 152.662 17.1359C152.662 18.3839 152.914 19.4999 153.418 20.4839C153.922 21.4679 154.618 22.2479 155.506 22.8239C156.394 23.3999 157.426 23.6879 158.602 23.6879C159.778 23.6879 160.81 23.4119 161.698 22.8599C162.586 22.2839 163.282 21.5039 163.786 20.5199C164.29 19.5119 164.542 18.3839 164.542 17.1359C164.542 15.8879 164.29 14.7719 163.786 13.7879C163.282 12.7799 162.586 11.9999 161.698 11.4479C160.81 10.8719 159.778 10.5839 158.602 10.5839ZM192.375 6.11989L184.275 25.5599C184.131 25.9439 183.915 26.2439 183.627 26.4599C183.339 26.6759 183.015 26.7839 182.655 26.7839C182.127 26.7839 181.731 26.6399 181.467 26.3519C181.203 26.0399 181.059 25.6559 181.035 25.1999C181.035 25.0319 181.071 24.8399 181.143 24.6239L190.287 2.51989C190.455 2.11189 190.695 1.79989 191.007 1.58389C191.343 1.36789 191.703 1.27189 192.087 1.29589C192.447 1.29589 192.783 1.40389 193.095 1.61989C193.407 1.83589 193.635 2.13589 193.779 2.51989L202.815 24.2999C202.911 24.5399 202.959 24.7799 202.959 25.0199C202.959 25.5479 202.779 25.9799 202.419 26.3159C202.083 26.6279 201.699 26.7839 201.267 26.7839C200.907 26.7839 200.571 26.6759 200.259 26.4599C199.971 26.2199 199.755 25.9199 199.611 25.5599L191.439 6.22789L192.375 6.11989ZM185.715 20.4479L187.335 16.9919H197.523L198.135 20.4479H185.715ZM219.837 7.70389C220.341 7.70389 220.761 7.88389 221.097 8.24389C221.457 8.57989 221.637 9.01189 221.637 9.53989V19.0079C221.637 21.5039 220.941 23.4599 219.549 24.8759C218.157 26.2679 216.189 26.9639 213.645 26.9639C211.125 26.9639 209.169 26.2679 207.777 24.8759C206.409 23.4599 205.725 21.5039 205.725 19.0079V9.53989C205.725 9.01189 205.893 8.57989 206.229 8.24389C206.565 7.88389 206.997 7.70389 207.525 7.70389C208.029 7.70389 208.449 7.88389 208.785 8.24389C209.145 8.57989 209.325 9.01189 209.325 9.53989V19.0079C209.325 20.5679 209.685 21.7319 210.405 22.4999C211.149 23.2679 212.229 23.6519 213.645 23.6519C215.085 23.6519 216.177 23.2679 216.921 22.4999C217.665 21.7319 218.037 20.5679 218.037 19.0079V9.53989C218.037 9.01189 218.205 8.57989 218.541 8.24389C218.877 7.88389 219.309 7.70389 219.837 7.70389ZM226.391 7.91989H234.851C235.331 7.91989 235.727 8.08789 236.039 8.42389C236.375 8.73589 236.543 9.13189 236.543 9.61189C236.543 10.0679 236.375 10.4519 236.039 10.7639C235.727 11.0759 235.331 11.2319 234.851 11.2319H226.391C225.911 11.2319 225.503 11.0759 225.167 10.7639C224.855 10.4279 224.699 10.0319 224.699 9.57589C224.699 9.09589 224.855 8.69989 225.167 8.38789C225.503 8.07589 225.911 7.91989 226.391 7.91989ZM230.171 3.23989C230.699 3.23989 231.131 3.41989 231.467 3.77989C231.803 4.11589 231.971 4.54789 231.971 5.07589V21.7799C231.971 22.2119 232.043 22.5599 232.187 22.8239C232.331 23.0879 232.523 23.2679 232.763 23.3639C233.027 23.4599 233.291 23.5079 233.555 23.5079C233.819 23.5079 234.047 23.4599 234.239 23.3639C234.455 23.2679 234.707 23.2199 234.995 23.2199C235.283 23.2199 235.547 23.3519 235.787 23.6159C236.027 23.8799 236.147 24.2399 236.147 24.6959C236.147 25.2719 235.835 25.7399 235.211 26.0999C234.587 26.4599 233.915 26.6399 233.195 26.6399C232.787 26.6399 232.307 26.6039 231.755 26.5319C231.203 26.4599 230.663 26.2799 230.135 25.9919C229.631 25.7039 229.211 25.2479 228.875 24.6239C228.539 23.9759 228.371 23.0759 228.371 21.9239V5.07589C228.371 4.54789 228.539 4.11589 228.875 3.77989C229.235 3.41989 229.667 3.23989 230.171 3.23989ZM258.498 17.1719C258.498 19.0919 258.078 20.7959 257.238 22.2839C256.398 23.7479 255.258 24.8999 253.818 25.7399C252.378 26.5799 250.758 26.9999 248.958 26.9999C247.158 26.9999 245.538 26.5799 244.098 25.7399C242.658 24.8999 241.506 23.7479 240.642 22.2839C239.802 20.7959 239.382 19.0919 239.382 17.1719C239.382 15.2279 239.802 13.5239 240.642 12.0599C241.506 10.5719 242.658 9.40789 244.098 8.56789C245.538 7.70389 247.158 7.27189 248.958 7.27189C250.758 7.27189 252.378 7.70389 253.818 8.56789C255.258 9.40789 256.398 10.5719 257.238 12.0599C258.078 13.5239 258.498 15.2279 258.498 17.1719ZM254.898 17.1719C254.898 15.8519 254.634 14.7119 254.106 13.7519C253.578 12.7679 252.858 11.9999 251.946 11.4479C251.058 10.8719 250.062 10.5839 248.958 10.5839C247.854 10.5839 246.846 10.8719 245.934 11.4479C245.022 11.9999 244.302 12.7679 243.774 13.7519C243.246 14.7119 242.982 15.8519 242.982 17.1719C242.982 18.4439 243.246 19.5719 243.774 20.5559C244.302 21.5399 245.022 22.3079 245.934 22.8599C246.846 23.4119 247.854 23.6879 248.958 23.6879C250.062 23.6879 251.058 23.4119 251.946 22.8599C252.858 22.3079 253.578 21.5399 254.106 20.5559C254.634 19.5719 254.898 18.4439 254.898 17.1719ZM272.077 7.37989C273.853 7.37989 275.221 7.82389 276.181 8.71189C277.141 9.57589 277.777 10.7519 278.089 12.2399L277.513 12.0599L277.765 11.4839C278.077 10.8599 278.545 10.2359 279.169 9.61189C279.817 8.96389 280.585 8.43589 281.473 8.02789C282.361 7.59589 283.309 7.37989 284.317 7.37989C285.973 7.37989 287.257 7.73989 288.169 8.45989C289.081 9.15589 289.717 10.1039 290.077 11.3039C290.437 12.4799 290.617 13.7999 290.617 15.2639V24.8039C290.617 25.3319 290.449 25.7759 290.113 26.1359C289.777 26.4719 289.345 26.6399 288.817 26.6399C288.313 26.6399 287.881 26.4719 287.521 26.1359C287.185 25.7759 287.017 25.3319 287.017 24.8039V15.2999C287.017 14.4599 286.897 13.6919 286.657 12.9959C286.441 12.2999 286.045 11.7479 285.469 11.3399C284.917 10.9079 284.149 10.6919 283.165 10.6919C282.229 10.6919 281.389 10.9079 280.645 11.3399C279.925 11.7479 279.361 12.2999 278.953 12.9959C278.545 13.6919 278.341 14.4599 278.341 15.2999V24.8039C278.341 25.3319 278.173 25.7759 277.837 26.1359C277.501 26.4719 277.069 26.6399 276.541 26.6399C276.013 26.6399 275.581 26.4719 275.245 26.1359C274.909 25.7759 274.741 25.3319 274.741 24.8039V15.2639C274.741 14.4239 274.621 13.6559 274.381 12.9599C274.165 12.2639 273.781 11.7119 273.229 11.3039C272.677 10.8959 271.909 10.6919 270.925 10.6919C269.989 10.6919 269.161 10.8959 268.441 11.3039C267.721 11.7119 267.157 12.2639 266.749 12.9599C266.365 13.6559 266.173 14.4239 266.173 15.2639V24.8039C266.173 25.3319 265.993 25.7759 265.633 26.1359C265.297 26.4719 264.877 26.6399 264.373 26.6399C263.845 26.6399 263.413 26.4719 263.077 26.1359C262.741 25.7759 262.573 25.3319 262.573 24.8039V9.53989C262.573 9.01189 262.741 8.57989 263.077 8.24389C263.413 7.88389 263.845 7.70389 264.373 7.70389C264.877 7.70389 265.297 7.88389 265.633 8.24389C265.993 8.57989 266.173 9.01189 266.173 9.53989V11.6639L265.489 12.0599C265.657 11.5319 265.933 10.9919 266.317 10.4399C266.701 9.88789 267.181 9.38389 267.757 8.92789C268.357 8.47189 269.017 8.09989 269.737 7.81189C270.457 7.52389 271.237 7.37989 272.077 7.37989ZM311.171 7.41589C311.699 7.41589 312.131 7.59589 312.467 7.95589C312.803 8.29189 312.971 8.72389 312.971 9.25189V24.8039C312.971 25.3319 312.803 25.7759 312.467 26.1359C312.131 26.4719 311.699 26.6399 311.171 26.6399C310.667 26.6399 310.235 26.4719 309.875 26.1359C309.539 25.7759 309.371 25.3319 309.371 24.8039V22.2119L310.127 22.3199C310.127 22.7519 309.947 23.2319 309.587 23.7599C309.251 24.2879 308.783 24.8039 308.183 25.3079C307.583 25.7879 306.875 26.1959 306.059 26.5319C305.243 26.8439 304.367 26.9999 303.431 26.9999C301.775 26.9999 300.287 26.5799 298.967 25.7399C297.647 24.8759 296.603 23.6999 295.835 22.2119C295.067 20.7239 294.683 19.0319 294.683 17.1359C294.683 15.1919 295.067 13.4879 295.835 12.0239C296.603 10.5359 297.635 9.37189 298.931 8.53189C300.251 7.69189 301.715 7.27189 303.323 7.27189C304.355 7.27189 305.303 7.43989 306.167 7.77589C307.055 8.11189 307.823 8.54389 308.471 9.07189C309.119 9.59989 309.611 10.1639 309.947 10.7639C310.307 11.3399 310.487 11.8919 310.487 12.4199L309.371 12.5279V9.25189C309.371 8.74789 309.539 8.31589 309.875 7.95589C310.235 7.59589 310.667 7.41589 311.171 7.41589ZM303.827 23.6879C304.955 23.6879 305.951 23.3999 306.815 22.8239C307.679 22.2479 308.351 21.4679 308.831 20.4839C309.311 19.4759 309.551 18.3599 309.551 17.1359C309.551 15.8879 309.311 14.7719 308.831 13.7879C308.351 12.8039 307.679 12.0239 306.815 11.4479C305.951 10.8719 304.955 10.5839 303.827 10.5839C302.723 10.5839 301.739 10.8719 300.875 11.4479C300.035 12.0239 299.363 12.8039 298.859 13.7879C298.379 14.7719 298.139 15.8879 298.139 17.1359C298.139 18.3599 298.379 19.4759 298.859 20.4839C299.363 21.4679 300.035 22.2479 300.875 22.8239C301.739 23.3999 302.723 23.6879 303.827 23.6879ZM317.762 7.91989H326.222C326.702 7.91989 327.098 8.08789 327.41 8.42389C327.746 8.73589 327.914 9.13189 327.914 9.61189C327.914 10.0679 327.746 10.4519 327.41 10.7639C327.098 11.0759 326.702 11.2319 326.222 11.2319H317.762C317.282 11.2319 316.874 11.0759 316.538 10.7639C316.226 10.4279 316.07 10.0319 316.07 9.57589C316.07 9.09589 316.226 8.69989 316.538 8.38789C316.874 8.07589 317.282 7.91989 317.762 7.91989ZM321.542 3.23989C322.07 3.23989 322.502 3.41989 322.838 3.77989C323.174 4.11589 323.342 4.54789 323.342 5.07589V21.7799C323.342 22.2119 323.414 22.5599 323.558 22.8239C323.702 23.0879 323.894 23.2679 324.134 23.3639C324.398 23.4599 324.662 23.5079 324.926 23.5079C325.19 23.5079 325.418 23.4599 325.61 23.3639C325.826 23.2679 326.078 23.2199 326.366 23.2199C326.654 23.2199 326.918 23.3519 327.158 23.6159C327.398 23.8799 327.518 24.2399 327.518 24.6959C327.518 25.2719 327.206 25.7399 326.582 26.0999C325.958 26.4599 325.286 26.6399 324.566 26.6399C324.158 26.6399 323.678 26.6039 323.126 26.5319C322.574 26.4599 322.034 26.2799 321.506 25.9919C321.002 25.7039 320.582 25.2479 320.246 24.6239C319.91 23.9759 319.742 23.0759 319.742 21.9239V5.07589C319.742 4.54789 319.91 4.11589 320.246 3.77989C320.606 3.41989 321.038 3.23989 321.542 3.23989ZM335.285 24.8039C335.285 25.3319 335.117 25.7759 334.781 26.1359C334.445 26.4719 334.013 26.6399 333.485 26.6399C332.981 26.6399 332.549 26.4719 332.189 26.1359C331.853 25.7759 331.685 25.3319 331.685 24.8039V9.39589C331.685 8.86789 331.853 8.43589 332.189 8.09989C332.549 7.73989 332.981 7.55989 333.485 7.55989C334.013 7.55989 334.445 7.73989 334.781 8.09989C335.117 8.43589 335.285 8.86789 335.285 9.39589V24.8039ZM333.449 5.18389C332.753 5.18389 332.249 5.06389 331.937 4.82389C331.625 4.55989 331.469 4.12789 331.469 3.52789V2.95189C331.469 2.35189 331.637 1.93189 331.973 1.69189C332.309 1.45189 332.813 1.33189 333.485 1.33189C334.205 1.33189 334.721 1.46389 335.033 1.72789C335.345 1.96789 335.501 2.37589 335.501 2.95189V3.52789C335.501 4.15189 335.333 4.58389 334.997 4.82389C334.685 5.06389 334.169 5.18389 333.449 5.18389ZM358.271 17.1719C358.271 19.0919 357.851 20.7959 357.011 22.2839C356.171 23.7479 355.031 24.8999 353.591 25.7399C352.151 26.5799 350.531 26.9999 348.731 26.9999C346.931 26.9999 345.311 26.5799 343.871 25.7399C342.431 24.8999 341.279 23.7479 340.415 22.2839C339.575 20.7959 339.155 19.0919 339.155 17.1719C339.155 15.2279 339.575 13.5239 340.415 12.0599C341.279 10.5719 342.431 9.40789 343.871 8.56789C345.311 7.70389 346.931 7.27189 348.731 7.27189C350.531 7.27189 352.151 7.70389 353.591 8.56789C355.031 9.40789 356.171 10.5719 357.011 12.0599C357.851 13.5239 358.271 15.2279 358.271 17.1719ZM354.671 17.1719C354.671 15.8519 354.407 14.7119 353.879 13.7519C353.351 12.7679 352.631 11.9999 351.719 11.4479C350.831 10.8719 349.835 10.5839 348.731 10.5839C347.627 10.5839 346.619 10.8719 345.707 11.4479C344.795 11.9999 344.075 12.7679 343.547 13.7519C343.019 14.7119 342.755 15.8519 342.755 17.1719C342.755 18.4439 343.019 19.5719 343.547 20.5559C344.075 21.5399 344.795 22.3079 345.707 22.8599C346.619 23.4119 347.627 23.6879 348.731 23.6879C349.835 23.6879 350.831 23.4119 351.719 22.8599C352.631 22.3079 353.351 21.5399 353.879 20.5559C354.407 19.5719 354.671 18.4439 354.671 17.1719ZM372.102 7.27189C373.806 7.27189 375.126 7.63189 376.062 8.35189C376.998 9.04789 377.646 9.99589 378.006 11.1959C378.39 12.3719 378.582 13.6919 378.582 15.1559V24.8039C378.582 25.3319 378.402 25.7759 378.042 26.1359C377.706 26.4719 377.286 26.6399 376.782 26.6399C376.254 26.6399 375.822 26.4719 375.486 26.1359C375.15 25.7759 374.982 25.3319 374.982 24.8039V15.1919C374.982 14.3279 374.862 13.5599 374.622 12.8879C374.382 12.1919 373.962 11.6399 373.362 11.2319C372.786 10.7999 371.97 10.5839 370.914 10.5839C369.93 10.5839 369.066 10.7999 368.322 11.2319C367.578 11.6399 366.99 12.1919 366.558 12.8879C366.15 13.5599 365.946 14.3279 365.946 15.1919V24.8039C365.946 25.3319 365.766 25.7759 365.406 26.1359C365.07 26.4719 364.65 26.6399 364.146 26.6399C363.618 26.6399 363.186 26.4719 362.85 26.1359C362.514 25.7759 362.346 25.3319 362.346 24.8039V9.53989C362.346 9.01189 362.514 8.57989 362.85 8.24389C363.186 7.88389 363.618 7.70389 364.146 7.70389C364.65 7.70389 365.07 7.88389 365.406 8.24389C365.766 8.57989 365.946 9.01189 365.946 9.53989V11.5559L365.298 11.9159C365.466 11.3879 365.754 10.8599 366.162 10.3319C366.594 9.77989 367.11 9.27589 367.71 8.81989C368.31 8.33989 368.982 7.96789 369.726 7.70389C370.47 7.41589 371.262 7.27189 372.102 7.27189ZM402.204 26.6399C401.628 26.6399 401.16 26.4719 400.8 26.1359C400.464 25.7759 400.296 25.3319 400.296 24.8039V3.23989H404.148V24.8039C404.148 25.3319 403.956 25.7759 403.572 26.1359C403.212 26.4719 402.756 26.6399 402.204 26.6399ZM394.032 4.89589C393.528 4.89589 393.096 4.73989 392.736 4.42789C392.376 4.09189 392.196 3.65989 392.196 3.13189C392.196 2.62789 392.376 2.21989 392.736 1.90789C393.096 1.59589 393.528 1.43989 394.032 1.43989H410.412C410.916 1.43989 411.336 1.60789 411.672 1.94389C412.032 2.25589 412.212 2.66389 412.212 3.16789C412.212 3.69589 412.032 4.11589 411.672 4.42789C411.336 4.73989 410.916 4.89589 410.412 4.89589H394.032ZM425.429 7.37989C427.085 7.37989 428.369 7.73989 429.281 8.45989C430.193 9.15589 430.829 10.1039 431.189 11.3039C431.573 12.5039 431.765 13.8239 431.765 15.2639V24.8039C431.765 25.3319 431.585 25.7759 431.225 26.1359C430.889 26.4719 430.469 26.6399 429.965 26.6399C429.437 26.6399 429.005 26.4719 428.669 26.1359C428.333 25.7759 428.165 25.3319 428.165 24.8039V15.2639C428.165 14.4239 428.045 13.6559 427.805 12.9599C427.589 12.2639 427.193 11.7119 426.617 11.3039C426.065 10.8959 425.285 10.6919 424.277 10.6919C423.341 10.6919 422.501 10.8959 421.757 11.3039C421.037 11.7119 420.473 12.2639 420.065 12.9599C419.681 13.6559 419.489 14.4239 419.489 15.2639V24.8039C419.489 25.3319 419.309 25.7759 418.949 26.1359C418.613 26.4719 418.193 26.6399 417.689 26.6399C417.161 26.6399 416.729 26.4719 416.393 26.1359C416.057 25.7759 415.889 25.3319 415.889 24.8039V1.83589C415.889 1.30789 416.057 0.875892 416.393 0.539892C416.729 0.179892 417.161 -0.000107765 417.689 -0.000107765C418.193 -0.000107765 418.613 0.179892 418.949 0.539892C419.309 0.875892 419.489 1.30789 419.489 1.83589V11.6639L418.841 12.0239C419.009 11.4959 419.285 10.9559 419.669 10.4039C420.077 9.85189 420.569 9.34789 421.145 8.89189C421.745 8.43589 422.405 8.07589 423.125 7.81189C423.845 7.52389 424.613 7.37989 425.429 7.37989ZM452.288 7.41589C452.816 7.41589 453.248 7.59589 453.584 7.95589C453.92 8.29189 454.088 8.72389 454.088 9.25189V24.8039C454.088 25.3319 453.92 25.7759 453.584 26.1359C453.248 26.4719 452.816 26.6399 452.288 26.6399C451.784 26.6399 451.352 26.4719 450.992 26.1359C450.656 25.7759 450.488 25.3319 450.488 24.8039V22.2119L451.244 22.3199C451.244 22.7519 451.064 23.2319 450.704 23.7599C450.368 24.2879 449.9 24.8039 449.3 25.3079C448.7 25.7879 447.992 26.1959 447.176 26.5319C446.36 26.8439 445.484 26.9999 444.548 26.9999C442.892 26.9999 441.404 26.5799 440.084 25.7399C438.764 24.8759 437.72 23.6999 436.952 22.2119C436.184 20.7239 435.8 19.0319 435.8 17.1359C435.8 15.1919 436.184 13.4879 436.952 12.0239C437.72 10.5359 438.752 9.37189 440.048 8.53189C441.368 7.69189 442.832 7.27189 444.44 7.27189C445.472 7.27189 446.42 7.43989 447.284 7.77589C448.172 8.11189 448.94 8.54389 449.588 9.07189C450.236 9.59989 450.728 10.1639 451.064 10.7639C451.424 11.3399 451.604 11.8919 451.604 12.4199L450.488 12.5279V9.25189C450.488 8.74789 450.656 8.31589 450.992 7.95589C451.352 7.59589 451.784 7.41589 452.288 7.41589ZM444.944 23.6879C446.072 23.6879 447.068 23.3999 447.932 22.8239C448.796 22.2479 449.468 21.4679 449.948 20.4839C450.428 19.4759 450.668 18.3599 450.668 17.1359C450.668 15.8879 450.428 14.7719 449.948 13.7879C449.468 12.8039 448.796 12.0239 447.932 11.4479C447.068 10.8719 446.072 10.5839 444.944 10.5839C443.84 10.5839 442.856 10.8719 441.992 11.4479C441.152 12.0239 440.48 12.8039 439.976 13.7879C439.496 14.7719 439.256 15.8879 439.256 17.1359C439.256 18.3599 439.496 19.4759 439.976 20.4839C440.48 21.4679 441.152 22.2479 441.992 22.8239C442.856 23.3999 443.84 23.6879 444.944 23.6879ZM458.879 7.91989H467.339C467.819 7.91989 468.215 8.08789 468.527 8.42389C468.863 8.73589 469.031 9.13189 469.031 9.61189C469.031 10.0679 468.863 10.4519 468.527 10.7639C468.215 11.0759 467.819 11.2319 467.339 11.2319H458.879C458.399 11.2319 457.991 11.0759 457.655 10.7639C457.343 10.4279 457.187 10.0319 457.187 9.57589C457.187 9.09589 457.343 8.69989 457.655 8.38789C457.991 8.07589 458.399 7.91989 458.879 7.91989ZM462.659 3.23989C463.187 3.23989 463.619 3.41989 463.955 3.77989C464.291 4.11589 464.459 4.54789 464.459 5.07589V21.7799C464.459 22.2119 464.531 22.5599 464.675 22.8239C464.819 23.0879 465.011 23.2679 465.251 23.3639C465.515 23.4599 465.779 23.5079 466.043 23.5079C466.307 23.5079 466.535 23.4599 466.727 23.3639C466.943 23.2679 467.195 23.2199 467.483 23.2199C467.771 23.2199 468.035 23.3519 468.275 23.6159C468.515 23.8799 468.635 24.2399 468.635 24.6959C468.635 25.2719 468.323 25.7399 467.699 26.0999C467.075 26.4599 466.403 26.6399 465.683 26.6399C465.275 26.6399 464.795 26.6039 464.243 26.5319C463.691 26.4599 463.151 26.2799 462.623 25.9919C462.119 25.7039 461.699 25.2479 461.363 24.6239C461.027 23.9759 460.859 23.0759 460.859 21.9239V5.07589C460.859 4.54789 461.027 4.11589 461.363 3.77989C461.723 3.41989 462.155 3.23989 462.659 3.23989ZM10.62 47.4399C12.372 47.4399 13.92 47.7759 15.264 48.4479C16.608 49.0959 17.724 50.0079 18.612 51.1839C19.524 52.3359 20.208 53.6799 20.664 55.2159C21.12 56.7279 21.348 58.3359 21.348 60.0399C21.348 62.3679 20.94 64.4919 20.124 66.4119C19.308 68.3079 18.108 69.8199 16.524 70.9479C14.94 72.0759 12.972 72.6399 10.62 72.6399H1.83598C1.33198 72.6399 0.899985 72.4719 0.539984 72.1359C0.179984 71.7759 -1.56164e-05 71.3319 -1.56164e-05 70.8039V49.2759C-1.56164e-05 48.7479 0.179984 48.3159 0.539984 47.9799C0.899985 47.6199 1.33198 47.4399 1.83598 47.4399H10.62ZM10.26 69.1839C11.964 69.1839 13.344 68.7639 14.4 67.9239C15.456 67.0839 16.224 65.9799 16.704 64.6119C17.208 63.2199 17.46 61.6959 17.46 60.0399C17.46 58.8159 17.316 57.6639 17.028 56.5839C16.764 55.4799 16.332 54.5079 15.732 53.6679C15.156 52.8039 14.412 52.1319 13.5 51.6519C12.612 51.1479 11.532 50.8959 10.26 50.8959H3.45598L3.77998 50.5719V69.5439L3.56398 69.1839H10.26ZM43.7988 63.1719C43.7988 65.0919 43.3788 66.7959 42.5388 68.2839C41.6988 69.7479 40.5588 70.8999 39.1188 71.7399C37.6788 72.5799 36.0588 72.9999 34.2588 72.9999C32.4588 72.9999 30.8388 72.5799 29.3988 71.7399C27.9588 70.8999 26.8068 69.7479 25.9428 68.2839C25.1028 66.7959 24.6828 65.0919 24.6828 63.1719C24.6828 61.2279 25.1028 59.5239 25.9428 58.0599C26.8068 56.5719 27.9588 55.4079 29.3988 54.5679C30.8388 53.7039 32.4588 53.2719 34.2588 53.2719C36.0588 53.2719 37.6788 53.7039 39.1188 54.5679C40.5588 55.4079 41.6988 56.5719 42.5388 58.0599C43.3788 59.5239 43.7988 61.2279 43.7988 63.1719ZM40.1988 63.1719C40.1988 61.8519 39.9348 60.7119 39.4068 59.7519C38.8788 58.7679 38.1588 57.9999 37.2468 57.4479C36.3588 56.8719 35.3628 56.5839 34.2588 56.5839C33.1548 56.5839 32.1468 56.8719 31.2348 57.4479C30.3228 57.9999 29.6028 58.7679 29.0748 59.7519C28.5468 60.7119 28.2828 61.8519 28.2828 63.1719C28.2828 64.4439 28.5468 65.5719 29.0748 66.5559C29.6028 67.5399 30.3228 68.3079 31.2348 68.8599C32.1468 69.4119 33.1548 69.6879 34.2588 69.6879C35.3628 69.6879 36.3588 69.4119 37.2468 68.8599C38.1588 68.3079 38.8788 67.5399 39.4068 66.5559C39.9348 65.5719 40.1988 64.4439 40.1988 63.1719ZM56.6935 72.9999C54.7015 72.9999 52.9735 72.5919 51.5095 71.7759C50.0455 70.9359 48.9055 69.7959 48.0895 68.3559C47.2975 66.8919 46.9015 65.2239 46.9015 63.3519C46.9015 61.2399 47.3215 59.4399 48.1615 57.9519C49.0255 56.4399 50.1415 55.2879 51.5095 54.4959C52.8775 53.6799 54.3295 53.2719 55.8655 53.2719C57.0415 53.2719 58.1575 53.5119 59.2135 53.9919C60.2695 54.4479 61.2055 55.0959 62.0215 55.9359C62.8615 56.7519 63.5215 57.7239 64.0015 58.8519C64.4815 59.9559 64.7335 61.1679 64.7575 62.4879C64.7335 62.9679 64.5415 63.3639 64.1815 63.6759C63.8215 63.9879 63.4015 64.1439 62.9215 64.1439H48.9175L48.0535 61.0839H61.5895L60.9055 61.7319V60.8319C60.8575 59.9919 60.5815 59.2599 60.0775 58.6359C59.5735 57.9879 58.9495 57.4959 58.2055 57.1599C57.4615 56.7999 56.6815 56.6199 55.8655 56.6199C55.1455 56.6199 54.4495 56.7399 53.7775 56.9799C53.1295 57.1959 52.5415 57.5559 52.0135 58.0599C51.5095 58.5639 51.1015 59.2359 50.7895 60.0759C50.5015 60.8919 50.3575 61.9119 50.3575 63.1359C50.3575 64.4559 50.6335 65.6079 51.1855 66.5919C51.7375 67.5759 52.4815 68.3439 53.4175 68.8959C54.3535 69.4239 55.3855 69.6879 56.5135 69.6879C57.4015 69.6879 58.1335 69.6039 58.7095 69.4359C59.2855 69.2439 59.7655 69.0159 60.1495 68.7519C60.5335 68.4879 60.8695 68.2359 61.1575 67.9959C61.5175 67.7799 61.8775 67.6719 62.2375 67.6719C62.6695 67.6719 63.0295 67.8279 63.3175 68.1399C63.6055 68.4279 63.7495 68.7759 63.7495 69.1839C63.7495 69.7119 63.4855 70.1919 62.9575 70.6239C62.3095 71.2479 61.4095 71.7999 60.2575 72.2799C59.1295 72.7599 57.9415 72.9999 56.6935 72.9999ZM67.7106 69.6879C67.4946 69.3519 67.3986 68.9679 67.4226 68.5359C67.4466 68.0799 67.6986 67.6959 68.1786 67.3839C68.5146 67.1679 68.8626 67.0839 69.2226 67.1319C69.6066 67.1559 69.9666 67.3359 70.3026 67.6719C70.9746 68.4159 71.7186 69.0039 72.5346 69.4359C73.3746 69.8679 74.3826 70.0839 75.5586 70.0839C76.0386 70.0599 76.5306 69.9879 77.0346 69.8679C77.5386 69.7239 77.9706 69.4839 78.3306 69.1479C78.6906 68.7879 78.8706 68.2719 78.8706 67.5999C78.8706 66.9999 78.6786 66.5199 78.2946 66.1599C77.9106 65.7999 77.4066 65.5119 76.7826 65.2959C76.1586 65.0559 75.4866 64.8399 74.7666 64.6479C73.9986 64.4319 73.2186 64.1919 72.4266 63.9279C71.6586 63.6639 70.9626 63.3279 70.3386 62.9199C69.7146 62.4879 69.1986 61.9359 68.7906 61.2639C68.4066 60.5919 68.2146 59.7639 68.2146 58.7799C68.2146 57.6519 68.5266 56.6799 69.1506 55.8639C69.7986 55.0479 70.6266 54.4119 71.6346 53.9559C72.6666 53.4999 73.7826 53.2719 74.9826 53.2719C75.6786 53.2719 76.4106 53.3679 77.1786 53.5599C77.9466 53.7279 78.6906 54.0039 79.4106 54.3879C80.1306 54.7719 80.7546 55.2759 81.2826 55.8999C81.5226 56.2119 81.6546 56.5839 81.6786 57.0159C81.7266 57.4479 81.5346 57.8319 81.1026 58.1679C80.8146 58.4079 80.4666 58.5159 80.0586 58.4919C79.6506 58.4679 79.3146 58.3359 79.0506 58.0959C78.5946 57.5199 78.0066 57.0759 77.2866 56.7639C76.5666 56.4279 75.7506 56.2599 74.8386 56.2599C74.3826 56.2599 73.9026 56.3319 73.3986 56.4759C72.9186 56.5959 72.5106 56.8239 72.1746 57.1599C71.8386 57.4959 71.6706 57.9879 71.6706 58.6359C71.6706 59.2359 71.8626 59.7159 72.2466 60.0759C72.6546 60.4359 73.1826 60.7359 73.8306 60.9759C74.4786 61.2159 75.1866 61.4319 75.9546 61.6239C76.6986 61.8159 77.4306 62.0439 78.1506 62.3079C78.8946 62.5719 79.5546 62.9199 80.1306 63.3519C80.7306 63.7599 81.2106 64.2999 81.5706 64.9719C81.9546 65.6199 82.1466 66.4479 82.1466 67.4559C82.1466 68.6319 81.7986 69.6399 81.1026 70.4799C80.4306 71.2959 79.5666 71.9199 78.5106 72.3519C77.4786 72.7839 76.3866 72.9999 75.2346 72.9999C73.8666 72.9999 72.4986 72.7599 71.1306 72.2799C69.7866 71.7759 68.6466 70.9119 67.7106 69.6879ZM95.774 53.2719C97.478 53.2719 98.798 53.6319 99.734 54.3519C100.67 55.0479 101.318 55.9959 101.678 57.1959C102.062 58.3719 102.254 59.6919 102.254 61.1559V70.8039C102.254 71.3319 102.074 71.7759 101.714 72.1359C101.378 72.4719 100.958 72.6399 100.454 72.6399C99.926 72.6399 99.494 72.4719 99.158 72.1359C98.822 71.7759 98.654 71.3319 98.654 70.8039V61.1919C98.654 60.3279 98.534 59.5599 98.294 58.8879C98.054 58.1919 97.634 57.6399 97.034 57.2319C96.458 56.7999 95.642 56.5839 94.586 56.5839C93.602 56.5839 92.738 56.7999 91.994 57.2319C91.25 57.6399 90.662 58.1919 90.23 58.8879C89.822 59.5599 89.618 60.3279 89.618 61.1919V70.8039C89.618 71.3319 89.438 71.7759 89.078 72.1359C88.742 72.4719 88.322 72.6399 87.818 72.6399C87.29 72.6399 86.858 72.4719 86.522 72.1359C86.186 71.7759 86.018 71.3319 86.018 70.8039V55.5399C86.018 55.0119 86.186 54.5799 86.522 54.2439C86.858 53.8839 87.29 53.7039 87.818 53.7039C88.322 53.7039 88.742 53.8839 89.078 54.2439C89.438 54.5799 89.618 55.0119 89.618 55.5399V57.5559L88.97 57.9159C89.138 57.3879 89.426 56.8599 89.834 56.3319C90.266 55.7799 90.782 55.2759 91.382 54.8199C91.982 54.3399 92.654 53.9679 93.398 53.7039C94.142 53.4159 94.934 53.2719 95.774 53.2719ZM106.784 48.9159C106.88 47.9319 107.408 47.4399 108.368 47.4399H109.52C110.072 47.4399 110.444 47.5959 110.636 47.9079C110.852 48.2199 110.876 48.6279 110.708 49.1319L108.296 56.7639C108.056 57.4599 107.6 57.8079 106.928 57.8079C106.28 57.8079 105.992 57.3759 106.064 56.5119L106.784 48.9159ZM114.418 53.9199H122.878C123.358 53.9199 123.754 54.0879 124.066 54.4239C124.402 54.7359 124.57 55.1319 124.57 55.6119C124.57 56.0679 124.402 56.4519 124.066 56.7639C123.754 57.0759 123.358 57.2319 122.878 57.2319H114.418C113.938 57.2319 113.53 57.0759 113.194 56.7639C112.882 56.4279 112.726 56.0319 112.726 55.5759C112.726 55.0959 112.882 54.6999 113.194 54.3879C113.53 54.0759 113.938 53.9199 114.418 53.9199ZM118.198 49.2399C118.726 49.2399 119.158 49.4199 119.494 49.7799C119.83 50.1159 119.998 50.5479 119.998 51.0759V67.7799C119.998 68.2119 120.07 68.5599 120.214 68.8239C120.358 69.0879 120.55 69.2679 120.79 69.3639C121.054 69.4599 121.318 69.5079 121.582 69.5079C121.846 69.5079 122.074 69.4599 122.266 69.3639C122.482 69.2679 122.734 69.2199 123.022 69.2199C123.31 69.2199 123.574 69.3519 123.814 69.6159C124.054 69.8799 124.174 70.2399 124.174 70.6959C124.174 71.2719 123.862 71.7399 123.238 72.0999C122.614 72.4599 121.942 72.6399 121.222 72.6399C120.814 72.6399 120.334 72.6039 119.782 72.5319C119.23 72.4599 118.69 72.2799 118.162 71.9919C117.658 71.7039 117.238 71.2479 116.902 70.6239C116.566 69.9759 116.398 69.0759 116.398 67.9239V51.0759C116.398 50.5479 116.566 50.1159 116.902 49.7799C117.262 49.4199 117.694 49.2399 118.198 49.2399ZM140.881 72.6399C140.305 72.6399 139.837 72.4719 139.477 72.1359C139.141 71.7759 138.973 71.3319 138.973 70.8039V49.2759C138.973 48.7479 139.153 48.3159 139.513 47.9799C139.873 47.6199 140.305 47.4399 140.809 47.4399H152.977C153.505 47.4399 153.937 47.6079 154.273 47.9439C154.633 48.2799 154.813 48.6999 154.813 49.2039C154.813 49.6599 154.633 50.0559 154.273 50.3919C153.937 50.7279 153.505 50.8959 152.977 50.8959H142.465L142.717 50.5359V58.5639L142.501 58.1319H151.357C151.885 58.1319 152.317 58.2999 152.653 58.6359C153.013 58.9719 153.193 59.3919 153.193 59.8959C153.193 60.3519 153.013 60.7479 152.653 61.0839C152.317 61.4199 151.885 61.5879 151.357 61.5879H142.429L142.717 61.2999V70.8039C142.717 71.3319 142.537 71.7759 142.177 72.1359C141.817 72.4719 141.385 72.6399 140.881 72.6399ZM167.154 72.9999C165.162 72.9999 163.434 72.5919 161.97 71.7759C160.506 70.9359 159.366 69.7959 158.55 68.3559C157.758 66.8919 157.362 65.2239 157.362 63.3519C157.362 61.2399 157.782 59.4399 158.622 57.9519C159.486 56.4399 160.602 55.2879 161.97 54.4959C163.338 53.6799 164.79 53.2719 166.326 53.2719C167.502 53.2719 168.618 53.5119 169.674 53.9919C170.73 54.4479 171.666 55.0959 172.482 55.9359C173.322 56.7519 173.982 57.7239 174.462 58.8519C174.942 59.9559 175.194 61.1679 175.218 62.4879C175.194 62.9679 175.002 63.3639 174.642 63.6759C174.282 63.9879 173.862 64.1439 173.382 64.1439H159.378L158.514 61.0839H172.05L171.366 61.7319V60.8319C171.318 59.9919 171.042 59.2599 170.538 58.6359C170.034 57.9879 169.41 57.4959 168.666 57.1599C167.922 56.7999 167.142 56.6199 166.326 56.6199C165.606 56.6199 164.91 56.7399 164.238 56.9799C163.59 57.1959 163.002 57.5559 162.474 58.0599C161.97 58.5639 161.562 59.2359 161.25 60.0759C160.962 60.8919 160.818 61.9119 160.818 63.1359C160.818 64.4559 161.094 65.6079 161.646 66.5919C162.198 67.5759 162.942 68.3439 163.878 68.8959C164.814 69.4239 165.846 69.6879 166.974 69.6879C167.862 69.6879 168.594 69.6039 169.17 69.4359C169.746 69.2439 170.226 69.0159 170.61 68.7519C170.994 68.4879 171.33 68.2359 171.618 67.9959C171.978 67.7799 172.338 67.6719 172.698 67.6719C173.13 67.6719 173.49 67.8279 173.778 68.1399C174.066 68.4279 174.21 68.7759 174.21 69.1839C174.21 69.7119 173.946 70.1919 173.418 70.6239C172.77 71.2479 171.87 71.7999 170.718 72.2799C169.59 72.7599 168.402 72.9999 167.154 72.9999ZM188.108 72.9999C186.116 72.9999 184.388 72.5919 182.924 71.7759C181.46 70.9359 180.32 69.7959 179.504 68.3559C178.712 66.8919 178.316 65.2239 178.316 63.3519C178.316 61.2399 178.736 59.4399 179.576 57.9519C180.44 56.4399 181.556 55.2879 182.924 54.4959C184.292 53.6799 185.744 53.2719 187.28 53.2719C188.456 53.2719 189.572 53.5119 190.628 53.9919C191.684 54.4479 192.62 55.0959 193.436 55.9359C194.276 56.7519 194.936 57.7239 195.416 58.8519C195.896 59.9559 196.148 61.1679 196.172 62.4879C196.148 62.9679 195.956 63.3639 195.596 63.6759C195.236 63.9879 194.816 64.1439 194.336 64.1439H180.332L179.468 61.0839H193.004L192.32 61.7319V60.8319C192.272 59.9919 191.996 59.2599 191.492 58.6359C190.988 57.9879 190.364 57.4959 189.62 57.1599C188.876 56.7999 188.096 56.6199 187.28 56.6199C186.56 56.6199 185.864 56.7399 185.192 56.9799C184.544 57.1959 183.956 57.5559 183.428 58.0599C182.924 58.5639 182.516 59.2359 182.204 60.0759C181.916 60.8919 181.772 61.9119 181.772 63.1359C181.772 64.4559 182.048 65.6079 182.6 66.5919C183.152 67.5759 183.896 68.3439 184.832 68.8959C185.768 69.4239 186.8 69.6879 187.928 69.6879C188.816 69.6879 189.548 69.6039 190.124 69.4359C190.7 69.2439 191.18 69.0159 191.564 68.7519C191.948 68.4879 192.284 68.2359 192.572 67.9959C192.932 67.7799 193.292 67.6719 193.652 67.6719C194.084 67.6719 194.444 67.8279 194.732 68.1399C195.02 68.4279 195.164 68.7759 195.164 69.1839C195.164 69.7119 194.9 70.1919 194.372 70.6239C193.724 71.2479 192.824 71.7999 191.672 72.2799C190.544 72.7599 189.356 72.9999 188.108 72.9999ZM204.129 70.8039C204.129 71.3319 203.949 71.7759 203.589 72.1359C203.253 72.4719 202.833 72.6399 202.329 72.6399C201.825 72.6399 201.393 72.4719 201.033 72.1359C200.697 71.7759 200.529 71.3319 200.529 70.8039V47.8359C200.529 47.3079 200.709 46.8759 201.069 46.5399C201.429 46.1799 201.861 45.9999 202.365 45.9999C202.893 45.9999 203.313 46.1799 203.625 46.5399C203.961 46.8759 204.129 47.3079 204.129 47.8359V70.8039ZM228.902 52.1199L220.802 71.5599C220.658 71.9439 220.442 72.2439 220.154 72.4599C219.866 72.6759 219.542 72.7839 219.182 72.7839C218.654 72.7839 218.258 72.6399 217.994 72.3519C217.73 72.0399 217.586 71.6559 217.562 71.1999C217.562 71.0319 217.598 70.8399 217.67 70.6239L226.814 48.5199C226.982 48.1119 227.222 47.7999 227.534 47.5839C227.87 47.3679 228.23 47.2719 228.614 47.2959C228.974 47.2959 229.31 47.4039 229.622 47.6199C229.934 47.8359 230.162 48.1359 230.306 48.5199L239.342 70.2999C239.438 70.5399 239.486 70.7799 239.486 71.0199C239.486 71.5479 239.306 71.9799 238.946 72.3159C238.61 72.6279 238.226 72.7839 237.794 72.7839C237.434 72.7839 237.098 72.6759 236.786 72.4599C236.498 72.2199 236.282 71.9199 236.138 71.5599L227.966 52.2279L228.902 52.1199ZM222.242 66.4479L223.862 62.9919H234.05L234.662 66.4479H222.242ZM256.364 53.7039C256.868 53.7039 257.288 53.8839 257.624 54.2439C257.984 54.5799 258.164 55.0119 258.164 55.5399V65.0079C258.164 67.5039 257.468 69.4599 256.076 70.8759C254.684 72.2679 252.716 72.9639 250.172 72.9639C247.652 72.9639 245.696 72.2679 244.304 70.8759C242.936 69.4599 242.252 67.5039 242.252 65.0079V55.5399C242.252 55.0119 242.42 54.5799 242.756 54.2439C243.092 53.8839 243.524 53.7039 244.052 53.7039C244.556 53.7039 244.976 53.8839 245.312 54.2439C245.672 54.5799 245.852 55.0119 245.852 55.5399V65.0079C245.852 66.5679 246.212 67.7319 246.932 68.4999C247.676 69.2679 248.756 69.6519 250.172 69.6519C251.612 69.6519 252.704 69.2679 253.448 68.4999C254.192 67.7319 254.564 66.5679 254.564 65.0079V55.5399C254.564 55.0119 254.732 54.5799 255.068 54.2439C255.404 53.8839 255.836 53.7039 256.364 53.7039ZM262.918 53.9199H271.378C271.858 53.9199 272.254 54.0879 272.566 54.4239C272.902 54.7359 273.07 55.1319 273.07 55.6119C273.07 56.0679 272.902 56.4519 272.566 56.7639C272.254 57.0759 271.858 57.2319 271.378 57.2319H262.918C262.438 57.2319 262.03 57.0759 261.694 56.7639C261.382 56.4279 261.226 56.0319 261.226 55.5759C261.226 55.0959 261.382 54.6999 261.694 54.3879C262.03 54.0759 262.438 53.9199 262.918 53.9199ZM266.698 49.2399C267.226 49.2399 267.658 49.4199 267.994 49.7799C268.33 50.1159 268.498 50.5479 268.498 51.0759V67.7799C268.498 68.2119 268.57 68.5599 268.714 68.8239C268.858 69.0879 269.05 69.2679 269.29 69.3639C269.554 69.4599 269.818 69.5079 270.082 69.5079C270.346 69.5079 270.574 69.4599 270.766 69.3639C270.982 69.2679 271.234 69.2199 271.522 69.2199C271.81 69.2199 272.074 69.3519 272.314 69.6159C272.554 69.8799 272.674 70.2399 272.674 70.6959C272.674 71.2719 272.362 71.7399 271.738 72.0999C271.114 72.4599 270.442 72.6399 269.722 72.6399C269.314 72.6399 268.834 72.6039 268.282 72.5319C267.73 72.4599 267.19 72.2799 266.662 71.9919C266.158 71.7039 265.738 71.2479 265.402 70.6239C265.066 69.9759 264.898 69.0759 264.898 67.9239V51.0759C264.898 50.5479 265.066 50.1159 265.402 49.7799C265.762 49.4199 266.194 49.2399 266.698 49.2399ZM295.025 63.1719C295.025 65.0919 294.605 66.7959 293.765 68.2839C292.925 69.7479 291.785 70.8999 290.345 71.7399C288.905 72.5799 287.285 72.9999 285.485 72.9999C283.685 72.9999 282.065 72.5799 280.625 71.7399C279.185 70.8999 278.033 69.7479 277.169 68.2839C276.329 66.7959 275.909 65.0919 275.909 63.1719C275.909 61.2279 276.329 59.5239 277.169 58.0599C278.033 56.5719 279.185 55.4079 280.625 54.5679C282.065 53.7039 283.685 53.2719 285.485 53.2719C287.285 53.2719 288.905 53.7039 290.345 54.5679C291.785 55.4079 292.925 56.5719 293.765 58.0599C294.605 59.5239 295.025 61.2279 295.025 63.1719ZM291.425 63.1719C291.425 61.8519 291.161 60.7119 290.633 59.7519C290.105 58.7679 289.385 57.9999 288.473 57.4479C287.585 56.8719 286.589 56.5839 285.485 56.5839C284.381 56.5839 283.373 56.8719 282.461 57.4479C281.549 57.9999 280.829 58.7679 280.301 59.7519C279.773 60.7119 279.509 61.8519 279.509 63.1719C279.509 64.4439 279.773 65.5719 280.301 66.5559C280.829 67.5399 281.549 68.3079 282.461 68.8599C283.373 69.4119 284.381 69.6879 285.485 69.6879C286.589 69.6879 287.585 69.4119 288.473 68.8599C289.385 68.3079 290.105 67.5399 290.633 66.5559C291.161 65.5719 291.425 64.4439 291.425 63.1719ZM308.604 53.3799C310.38 53.3799 311.748 53.8239 312.708 54.7119C313.668 55.5759 314.304 56.7519 314.616 58.2399L314.04 58.0599L314.292 57.4839C314.604 56.8599 315.072 56.2359 315.696 55.6119C316.344 54.9639 317.112 54.4359 318 54.0279C318.888 53.5959 319.836 53.3799 320.844 53.3799C322.5 53.3799 323.784 53.7399 324.696 54.4599C325.608 55.1559 326.244 56.1039 326.604 57.3039C326.964 58.4799 327.144 59.7999 327.144 61.2639V70.8039C327.144 71.3319 326.976 71.7759 326.64 72.1359C326.304 72.4719 325.872 72.6399 325.344 72.6399C324.84 72.6399 324.408 72.4719 324.048 72.1359C323.712 71.7759 323.544 71.3319 323.544 70.8039V61.2999C323.544 60.4599 323.424 59.6919 323.184 58.9959C322.968 58.2999 322.572 57.7479 321.996 57.3399C321.444 56.9079 320.676 56.6919 319.692 56.6919C318.756 56.6919 317.916 56.9079 317.172 57.3399C316.452 57.7479 315.888 58.2999 315.48 58.9959C315.072 59.6919 314.868 60.4599 314.868 61.2999V70.8039C314.868 71.3319 314.7 71.7759 314.364 72.1359C314.028 72.4719 313.596 72.6399 313.068 72.6399C312.54 72.6399 312.108 72.4719 311.772 72.1359C311.436 71.7759 311.268 71.3319 311.268 70.8039V61.2639C311.268 60.4239 311.148 59.6559 310.908 58.9599C310.692 58.2639 310.308 57.7119 309.756 57.3039C309.204 56.8959 308.436 56.6919 307.452 56.6919C306.516 56.6919 305.688 56.8959 304.968 57.3039C304.248 57.7119 303.684 58.2639 303.276 58.9599C302.892 59.6559 302.7 60.4239 302.7 61.2639V70.8039C302.7 71.3319 302.52 71.7759 302.16 72.1359C301.824 72.4719 301.404 72.6399 300.9 72.6399C300.372 72.6399 299.94 72.4719 299.604 72.1359C299.268 71.7759 299.1 71.3319 299.1 70.8039V55.5399C299.1 55.0119 299.268 54.5799 299.604 54.2439C299.94 53.8839 300.372 53.7039 300.9 53.7039C301.404 53.7039 301.824 53.8839 302.16 54.2439C302.52 54.5799 302.7 55.0119 302.7 55.5399V57.6639L302.016 58.0599C302.184 57.5319 302.46 56.9919 302.844 56.4399C303.228 55.8879 303.708 55.3839 304.284 54.9279C304.884 54.4719 305.544 54.0999 306.264 53.8119C306.984 53.5239 307.764 53.3799 308.604 53.3799ZM347.698 53.4159C348.226 53.4159 348.658 53.5959 348.994 53.9559C349.33 54.2919 349.498 54.7239 349.498 55.2519V70.8039C349.498 71.3319 349.33 71.7759 348.994 72.1359C348.658 72.4719 348.226 72.6399 347.698 72.6399C347.194 72.6399 346.762 72.4719 346.402 72.1359C346.066 71.7759 345.898 71.3319 345.898 70.8039V68.2119L346.654 68.3199C346.654 68.7519 346.474 69.2319 346.114 69.7599C345.778 70.2879 345.31 70.8039 344.71 71.3079C344.11 71.7879 343.402 72.1959 342.586 72.5319C341.77 72.8439 340.894 72.9999 339.958 72.9999C338.302 72.9999 336.814 72.5799 335.494 71.7399C334.174 70.8759 333.13 69.6999 332.362 68.2119C331.594 66.7239 331.21 65.0319 331.21 63.1359C331.21 61.1919 331.594 59.4879 332.362 58.0239C333.13 56.5359 334.162 55.3719 335.458 54.5319C336.778 53.6919 338.242 53.2719 339.85 53.2719C340.882 53.2719 341.83 53.4399 342.694 53.7759C343.582 54.1119 344.35 54.5439 344.998 55.0719C345.646 55.5999 346.138 56.1639 346.474 56.7639C346.834 57.3399 347.014 57.8919 347.014 58.4199L345.898 58.5279V55.2519C345.898 54.7479 346.066 54.3159 346.402 53.9559C346.762 53.5959 347.194 53.4159 347.698 53.4159ZM340.354 69.6879C341.482 69.6879 342.478 69.3999 343.342 68.8239C344.206 68.2479 344.878 67.4679 345.358 66.4839C345.838 65.4759 346.078 64.3599 346.078 63.1359C346.078 61.8879 345.838 60.7719 345.358 59.7879C344.878 58.8039 344.206 58.0239 343.342 57.4479C342.478 56.8719 341.482 56.5839 340.354 56.5839C339.25 56.5839 338.266 56.8719 337.402 57.4479C336.562 58.0239 335.89 58.8039 335.386 59.7879C334.906 60.7719 334.666 61.8879 334.666 63.1359C334.666 64.3599 334.906 65.4759 335.386 66.4839C335.89 67.4679 336.562 68.2479 337.402 68.8239C338.266 69.3999 339.25 69.6879 340.354 69.6879ZM354.289 53.9199H362.749C363.229 53.9199 363.625 54.0879 363.937 54.4239C364.273 54.7359 364.441 55.1319 364.441 55.6119C364.441 56.0679 364.273 56.4519 363.937 56.7639C363.625 57.0759 363.229 57.2319 362.749 57.2319H354.289C353.809 57.2319 353.401 57.0759 353.065 56.7639C352.753 56.4279 352.597 56.0319 352.597 55.5759C352.597 55.0959 352.753 54.6999 353.065 54.3879C353.401 54.0759 353.809 53.9199 354.289 53.9199ZM358.069 49.2399C358.597 49.2399 359.029 49.4199 359.365 49.7799C359.701 50.1159 359.869 50.5479 359.869 51.0759V67.7799C359.869 68.2119 359.941 68.5599 360.085 68.8239C360.229 69.0879 360.421 69.2679 360.661 69.3639C360.925 69.4599 361.189 69.5079 361.453 69.5079C361.717 69.5079 361.945 69.4599 362.137 69.3639C362.353 69.2679 362.605 69.2199 362.893 69.2199C363.181 69.2199 363.445 69.3519 363.685 69.6159C363.925 69.8799 364.045 70.2399 364.045 70.6959C364.045 71.2719 363.733 71.7399 363.109 72.0999C362.485 72.4599 361.813 72.6399 361.093 72.6399C360.685 72.6399 360.205 72.6039 359.653 72.5319C359.101 72.4599 358.561 72.2799 358.033 71.9919C357.529 71.7039 357.109 71.2479 356.773 70.6239C356.437 69.9759 356.269 69.0759 356.269 67.9239V51.0759C356.269 50.5479 356.437 50.1159 356.773 49.7799C357.133 49.4199 357.565 49.2399 358.069 49.2399ZM377.072 72.9999C375.08 72.9999 373.352 72.5919 371.888 71.7759C370.424 70.9359 369.284 69.7959 368.468 68.3559C367.676 66.8919 367.28 65.2239 367.28 63.3519C367.28 61.2399 367.7 59.4399 368.54 57.9519C369.404 56.4399 370.52 55.2879 371.888 54.4959C373.256 53.6799 374.708 53.2719 376.244 53.2719C377.42 53.2719 378.536 53.5119 379.592 53.9919C380.648 54.4479 381.584 55.0959 382.4 55.9359C383.24 56.7519 383.9 57.7239 384.38 58.8519C384.86 59.9559 385.112 61.1679 385.136 62.4879C385.112 62.9679 384.92 63.3639 384.56 63.6759C384.2 63.9879 383.78 64.1439 383.3 64.1439H369.296L368.432 61.0839H381.968L381.284 61.7319V60.8319C381.236 59.9919 380.96 59.2599 380.456 58.6359C379.952 57.9879 379.328 57.4959 378.584 57.1599C377.84 56.7999 377.06 56.6199 376.244 56.6199C375.524 56.6199 374.828 56.7399 374.156 56.9799C373.508 57.1959 372.92 57.5559 372.392 58.0599C371.888 58.5639 371.48 59.2359 371.168 60.0759C370.88 60.8919 370.736 61.9119 370.736 63.1359C370.736 64.4559 371.012 65.6079 371.564 66.5919C372.116 67.5759 372.86 68.3439 373.796 68.8959C374.732 69.4239 375.764 69.6879 376.892 69.6879C377.78 69.6879 378.512 69.6039 379.088 69.4359C379.664 69.2439 380.144 69.0159 380.528 68.7519C380.912 68.4879 381.248 68.2359 381.536 67.9959C381.896 67.7799 382.256 67.6719 382.616 67.6719C383.048 67.6719 383.408 67.8279 383.696 68.1399C383.984 68.4279 384.128 68.7759 384.128 69.1839C384.128 69.7119 383.864 70.1919 383.336 70.6239C382.688 71.2479 381.788 71.7999 380.636 72.2799C379.508 72.7599 378.32 72.9999 377.072 72.9999ZM404.722 45.9999C405.25 45.9999 405.682 46.1679 406.018 46.5039C406.354 46.8399 406.522 47.2839 406.522 47.8359V70.8039C406.522 71.3319 406.354 71.7759 406.018 72.1359C405.682 72.4719 405.25 72.6399 404.722 72.6399C404.218 72.6399 403.786 72.4719 403.426 72.1359C403.09 71.7759 402.922 71.3319 402.922 70.8039V68.2119L403.678 68.2479C403.678 68.6799 403.498 69.1719 403.138 69.7239C402.802 70.2519 402.334 70.7679 401.734 71.2719C401.134 71.7759 400.426 72.1959 399.61 72.5319C398.794 72.8439 397.918 72.9999 396.982 72.9999C395.326 72.9999 393.838 72.5799 392.518 71.7399C391.198 70.8759 390.154 69.7119 389.386 68.2479C388.618 66.7599 388.234 65.0559 388.234 63.1359C388.234 61.2159 388.618 59.5239 389.386 58.0599C390.154 56.5719 391.186 55.4079 392.482 54.5679C393.802 53.7039 395.266 53.2719 396.874 53.2719C397.882 53.2719 398.818 53.4399 399.682 53.7759C400.57 54.1119 401.338 54.5439 401.986 55.0719C402.634 55.5999 403.138 56.1639 403.498 56.7639C403.858 57.3399 404.038 57.8919 404.038 58.4199L402.922 58.5279V47.8359C402.922 47.3079 403.09 46.8759 403.426 46.5399C403.786 46.1799 404.218 45.9999 404.722 45.9999ZM397.378 69.6879C398.53 69.6879 399.526 69.3999 400.366 68.8239C401.23 68.2479 401.902 67.4679 402.382 66.4839C402.862 65.4999 403.102 64.3839 403.102 63.1359C403.102 61.8879 402.862 60.7719 402.382 59.7879C401.902 58.8039 401.23 58.0239 400.366 57.4479C399.502 56.8719 398.506 56.5839 397.378 56.5839C396.274 56.5839 395.29 56.8719 394.426 57.4479C393.586 58.0239 392.914 58.8039 392.41 59.7879C391.93 60.7719 391.69 61.8879 391.69 63.1359C391.69 64.3839 391.93 65.4999 392.41 66.4839C392.914 67.4679 393.586 68.2479 394.426 68.8239C395.29 69.3999 396.274 69.6879 397.378 69.6879Z" fill="black"/>
</svg>
