<svg width="559" height="73" viewBox="0 0 559 73" fill="none" xmlns="http://www.w3.org/2000/svg">
<path d="M11.052 1.43989C13.26 1.43989 14.928 1.97989 16.056 3.05989C17.208 4.13989 17.784 5.71189 17.784 7.77589C17.784 8.85589 17.52 9.83989 16.992 10.7279C16.488 11.5919 15.732 12.2759 14.724 12.7799C13.74 13.2839 12.504 13.5479 11.016 13.5719L11.088 12.2399C11.88 12.2399 12.732 12.3479 13.644 12.5639C14.58 12.7799 15.456 13.1519 16.272 13.6799C17.088 14.2079 17.76 14.9279 18.288 15.8399C18.816 16.7279 19.08 17.8439 19.08 19.1879C19.08 20.6519 18.84 21.8759 18.36 22.8599C17.88 23.8199 17.244 24.5759 16.452 25.1279C15.66 25.6799 14.784 26.0759 13.824 26.3159C12.888 26.5319 11.964 26.6399 11.052 26.6399H1.83598C1.33198 26.6399 0.899985 26.4719 0.539984 26.1359C0.179984 25.7759 -1.56164e-05 25.3319 -1.56164e-05 24.8039V3.27589C-1.56164e-05 2.74789 0.179984 2.31589 0.539984 1.97989C0.899985 1.61989 1.33198 1.43989 1.83598 1.43989H11.052ZM10.548 4.96789H3.45598L3.88798 4.39189V12.1319L3.49198 11.7359H10.62C11.484 11.7119 12.24 11.4239 12.888 10.8719C13.56 10.2959 13.896 9.45589 13.896 8.35189C13.896 7.22389 13.596 6.38389 12.996 5.83189C12.396 5.25589 11.58 4.96789 10.548 4.96789ZM10.8 15.2639H3.63598L3.88798 15.0119V23.5079L3.59998 23.1839H11.016C12.264 23.1839 13.272 22.8599 14.04 22.2119C14.808 21.5399 15.192 20.5319 15.192 19.1879C15.192 18.0599 14.964 17.2199 14.508 16.6679C14.052 16.1159 13.488 15.7439 12.816 15.5519C12.144 15.3599 11.472 15.2639 10.8 15.2639ZM37.2707 7.70389C37.7747 7.70389 38.1947 7.88389 38.5307 8.24389C38.8907 8.57989 39.0707 9.01189 39.0707 9.53989V19.0079C39.0707 21.5039 38.3747 23.4599 36.9827 24.8759C35.5907 26.2679 33.6227 26.9639 31.0787 26.9639C28.5587 26.9639 26.6027 26.2679 25.2107 24.8759C23.8427 23.4599 23.1587 21.5039 23.1587 19.0079V9.53989C23.1587 9.01189 23.3267 8.57989 23.6627 8.24389C23.9987 7.88389 24.4307 7.70389 24.9587 7.70389C25.4627 7.70389 25.8827 7.88389 26.2187 8.24389C26.5787 8.57989 26.7587 9.01189 26.7587 9.53989V19.0079C26.7587 20.5679 27.1187 21.7319 27.8387 22.4999C28.5827 23.2679 29.6627 23.6519 31.0787 23.6519C32.5187 23.6519 33.6107 23.2679 34.3547 22.4999C35.0987 21.7319 35.4707 20.5679 35.4707 19.0079V9.53989C35.4707 9.01189 35.6387 8.57989 35.9747 8.24389C36.3107 7.88389 36.7427 7.70389 37.2707 7.70389ZM42.9606 23.6879C42.7446 23.3519 42.6486 22.9679 42.6726 22.5359C42.6966 22.0799 42.9486 21.6959 43.4286 21.3839C43.7646 21.1679 44.1126 21.0839 44.4726 21.1319C44.8566 21.1559 45.2166 21.3359 45.5526 21.6719C46.2246 22.4159 46.9686 23.0039 47.7846 23.4359C48.6246 23.8679 49.6326 24.0839 50.8086 24.0839C51.2886 24.0599 51.7806 23.9879 52.2846 23.8679C52.7886 23.7239 53.2206 23.4839 53.5806 23.1479C53.9406 22.7879 54.1206 22.2719 54.1206 21.5999C54.1206 20.9999 53.9286 20.5199 53.5446 20.1599C53.1606 19.7999 52.6566 19.5119 52.0326 19.2959C51.4086 19.0559 50.7366 18.8399 50.0166 18.6479C49.2486 18.4319 48.4686 18.1919 47.6766 17.9279C46.9086 17.6639 46.2126 17.3279 45.5886 16.9199C44.9646 16.4879 44.4486 15.9359 44.0406 15.2639C43.6566 14.5919 43.4646 13.7639 43.4646 12.7799C43.4646 11.6519 43.7766 10.6799 44.4006 9.86389C45.0486 9.04789 45.8766 8.41189 46.8846 7.95589C47.9166 7.49989 49.0326 7.27189 50.2326 7.27189C50.9286 7.27189 51.6606 7.36789 52.4286 7.55989C53.1966 7.72789 53.9406 8.00389 54.6606 8.38789C55.3806 8.77189 56.0046 9.27589 56.5326 9.89989C56.7726 10.2119 56.9046 10.5839 56.9286 11.0159C56.9766 11.4479 56.7846 11.8319 56.3526 12.1679C56.0646 12.4079 55.7166 12.5159 55.3086 12.4919C54.9006 12.4679 54.5646 12.3359 54.3006 12.0959C53.8446 11.5199 53.2566 11.0759 52.5366 10.7639C51.8166 10.4279 51.0006 10.2599 50.0886 10.2599C49.6326 10.2599 49.1526 10.3319 48.6486 10.4759C48.1686 10.5959 47.7606 10.8239 47.4246 11.1599C47.0886 11.4959 46.9206 11.9879 46.9206 12.6359C46.9206 13.2359 47.1126 13.7159 47.4966 14.0759C47.9046 14.4359 48.4326 14.7359 49.0806 14.9759C49.7286 15.2159 50.4366 15.4319 51.2046 15.6239C51.9486 15.8159 52.6806 16.0439 53.4006 16.3079C54.1446 16.5719 54.8046 16.9199 55.3806 17.3519C55.9806 17.7599 56.4606 18.2999 56.8206 18.9719C57.2046 19.6199 57.3966 20.4479 57.3966 21.4559C57.3966 22.6319 57.0486 23.6399 56.3526 24.4799C55.6806 25.2959 54.8166 25.9199 53.7606 26.3519C52.7286 26.7839 51.6366 26.9999 50.4846 26.9999C49.1166 26.9999 47.7486 26.7599 46.3806 26.2799C45.0366 25.7759 43.8966 24.9119 42.9606 23.6879ZM64.652 24.8039C64.652 25.3319 64.484 25.7759 64.148 26.1359C63.812 26.4719 63.38 26.6399 62.852 26.6399C62.348 26.6399 61.916 26.4719 61.556 26.1359C61.22 25.7759 61.052 25.3319 61.052 24.8039V9.39589C61.052 8.86789 61.22 8.43589 61.556 8.09989C61.916 7.73989 62.348 7.55989 62.852 7.55989C63.38 7.55989 63.812 7.73989 64.148 8.09989C64.484 8.43589 64.652 8.86789 64.652 9.39589V24.8039ZM62.816 5.18389C62.12 5.18389 61.616 5.06389 61.304 4.82389C60.992 4.55989 60.836 4.12789 60.836 3.52789V2.95189C60.836 2.35189 61.004 1.93189 61.34 1.69189C61.676 1.45189 62.18 1.33189 62.852 1.33189C63.572 1.33189 64.088 1.46389 64.4 1.72789C64.712 1.96789 64.868 2.37589 64.868 2.95189V3.52789C64.868 4.15189 64.7 4.58389 64.364 4.82389C64.052 5.06389 63.536 5.18389 62.816 5.18389ZM79.2506 7.27189C80.9546 7.27189 82.2746 7.63189 83.2106 8.35189C84.1466 9.04789 84.7946 9.99589 85.1546 11.1959C85.5386 12.3719 85.7306 13.6919 85.7306 15.1559V24.8039C85.7306 25.3319 85.5506 25.7759 85.1906 26.1359C84.8546 26.4719 84.4346 26.6399 83.9306 26.6399C83.4026 26.6399 82.9706 26.4719 82.6346 26.1359C82.2986 25.7759 82.1306 25.3319 82.1306 24.8039V15.1919C82.1306 14.3279 82.0106 13.5599 81.7706 12.8879C81.5306 12.1919 81.1106 11.6399 80.5106 11.2319C79.9346 10.7999 79.1186 10.5839 78.0626 10.5839C77.0786 10.5839 76.2146 10.7999 75.4706 11.2319C74.7266 11.6399 74.1386 12.1919 73.7066 12.8879C73.2986 13.5599 73.0946 14.3279 73.0946 15.1919V24.8039C73.0946 25.3319 72.9146 25.7759 72.5546 26.1359C72.2186 26.4719 71.7986 26.6399 71.2946 26.6399C70.7666 26.6399 70.3346 26.4719 69.9986 26.1359C69.6626 25.7759 69.4946 25.3319 69.4946 24.8039V9.53989C69.4946 9.01189 69.6626 8.57989 69.9986 8.24389C70.3346 7.88389 70.7666 7.70389 71.2946 7.70389C71.7986 7.70389 72.2186 7.88389 72.5546 8.24389C72.9146 8.57989 73.0946 9.01189 73.0946 9.53989V11.5559L72.4466 11.9159C72.6146 11.3879 72.9026 10.8599 73.3106 10.3319C73.7426 9.77989 74.2586 9.27589 74.8586 8.81989C75.4586 8.33989 76.1306 7.96789 76.8746 7.70389C77.6186 7.41589 78.4106 7.27189 79.2506 7.27189ZM99.549 26.9999C97.557 26.9999 95.829 26.5919 94.365 25.7759C92.901 24.9359 91.761 23.7959 90.945 22.3559C90.153 20.8919 89.757 19.2239 89.757 17.3519C89.757 15.2399 90.177 13.4399 91.017 11.9519C91.881 10.4399 92.997 9.28789 94.365 8.49589C95.733 7.67989 97.185 7.27189 98.721 7.27189C99.897 7.27189 101.013 7.51189 102.069 7.99189C103.125 8.44789 104.061 9.09589 104.877 9.93589C105.717 10.7519 106.377 11.7239 106.857 12.8519C107.337 13.9559 107.589 15.1679 107.613 16.4879C107.589 16.9679 107.397 17.3639 107.037 17.6759C106.677 17.9879 106.257 18.1439 105.777 18.1439H91.773L90.909 15.0839H104.445L103.761 15.7319V14.8319C103.713 13.9919 103.437 13.2599 102.933 12.6359C102.429 11.9879 101.805 11.4959 101.061 11.1599C100.317 10.7999 99.537 10.6199 98.721 10.6199C98.001 10.6199 97.305 10.7399 96.633 10.9799C95.985 11.1959 95.397 11.5559 94.869 12.0599C94.365 12.5639 93.957 13.2359 93.645 14.0759C93.357 14.8919 93.213 15.9119 93.213 17.1359C93.213 18.4559 93.489 19.6079 94.041 20.5919C94.593 21.5759 95.337 22.3439 96.273 22.8959C97.209 23.4239 98.241 23.6879 99.369 23.6879C100.257 23.6879 100.989 23.6039 101.565 23.4359C102.141 23.2439 102.621 23.0159 103.005 22.7519C103.389 22.4879 103.725 22.2359 104.013 21.9959C104.373 21.7799 104.733 21.6719 105.093 21.6719C105.525 21.6719 105.885 21.8279 106.173 22.1399C106.461 22.4279 106.605 22.7759 106.605 23.1839C106.605 23.7119 106.341 24.1919 105.813 24.6239C105.165 25.2479 104.265 25.7999 103.113 26.2799C101.985 26.7599 100.797 26.9999 99.549 26.9999ZM110.566 23.6879C110.35 23.3519 110.254 22.9679 110.278 22.5359C110.302 22.0799 110.554 21.6959 111.034 21.3839C111.37 21.1679 111.718 21.0839 112.078 21.1319C112.462 21.1559 112.822 21.3359 113.158 21.6719C113.83 22.4159 114.574 23.0039 115.39 23.4359C116.23 23.8679 117.238 24.0839 118.414 24.0839C118.894 24.0599 119.386 23.9879 119.89 23.8679C120.394 23.7239 120.826 23.4839 121.186 23.1479C121.546 22.7879 121.726 22.2719 121.726 21.5999C121.726 20.9999 121.534 20.5199 121.15 20.1599C120.766 19.7999 120.262 19.5119 119.638 19.2959C119.014 19.0559 118.342 18.8399 117.622 18.6479C116.854 18.4319 116.074 18.1919 115.282 17.9279C114.514 17.6639 113.818 17.3279 113.194 16.9199C112.57 16.4879 112.054 15.9359 111.646 15.2639C111.262 14.5919 111.07 13.7639 111.07 12.7799C111.07 11.6519 111.382 10.6799 112.006 9.86389C112.654 9.04789 113.482 8.41189 114.49 7.95589C115.522 7.49989 116.638 7.27189 117.838 7.27189C118.534 7.27189 119.266 7.36789 120.034 7.55989C120.802 7.72789 121.546 8.00389 122.266 8.38789C122.986 8.77189 123.61 9.27589 124.138 9.89989C124.378 10.2119 124.51 10.5839 124.534 11.0159C124.582 11.4479 124.39 11.8319 123.958 12.1679C123.67 12.4079 123.322 12.5159 122.914 12.4919C122.506 12.4679 122.17 12.3359 121.906 12.0959C121.45 11.5199 120.862 11.0759 120.142 10.7639C119.422 10.4279 118.606 10.2599 117.694 10.2599C117.238 10.2599 116.758 10.3319 116.254 10.4759C115.774 10.5959 115.366 10.8239 115.03 11.1599C114.694 11.4959 114.526 11.9879 114.526 12.6359C114.526 13.2359 114.718 13.7159 115.102 14.0759C115.51 14.4359 116.038 14.7359 116.686 14.9759C117.334 15.2159 118.042 15.4319 118.81 15.6239C119.554 15.8159 120.286 16.0439 121.006 16.3079C121.75 16.5719 122.41 16.9199 122.986 17.3519C123.586 17.7599 124.066 18.2999 124.426 18.9719C124.81 19.6199 125.002 20.4479 125.002 21.4559C125.002 22.6319 124.654 23.6399 123.958 24.4799C123.286 25.2959 122.422 25.9199 121.366 26.3519C120.334 26.7839 119.242 26.9999 118.09 26.9999C116.722 26.9999 115.354 26.7599 113.986 26.2799C112.642 25.7759 111.502 24.9119 110.566 23.6879ZM127.758 23.6879C127.542 23.3519 127.446 22.9679 127.47 22.5359C127.494 22.0799 127.746 21.6959 128.226 21.3839C128.562 21.1679 128.91 21.0839 129.27 21.1319C129.654 21.1559 130.014 21.3359 130.35 21.6719C131.022 22.4159 131.766 23.0039 132.582 23.4359C133.422 23.8679 134.43 24.0839 135.606 24.0839C136.086 24.0599 136.578 23.9879 137.082 23.8679C137.586 23.7239 138.018 23.4839 138.378 23.1479C138.738 22.7879 138.918 22.2719 138.918 21.5999C138.918 20.9999 138.726 20.5199 138.342 20.1599C137.958 19.7999 137.454 19.5119 136.83 19.2959C136.206 19.0559 135.534 18.8399 134.814 18.6479C134.046 18.4319 133.266 18.1919 132.474 17.9279C131.706 17.6639 131.01 17.3279 130.386 16.9199C129.762 16.4879 129.246 15.9359 128.838 15.2639C128.454 14.5919 128.262 13.7639 128.262 12.7799C128.262 11.6519 128.574 10.6799 129.198 9.86389C129.846 9.04789 130.674 8.41189 131.682 7.95589C132.714 7.49989 133.83 7.27189 135.03 7.27189C135.726 7.27189 136.458 7.36789 137.226 7.55989C137.994 7.72789 138.738 8.00389 139.458 8.38789C140.178 8.77189 140.802 9.27589 141.33 9.89989C141.57 10.2119 141.702 10.5839 141.726 11.0159C141.774 11.4479 141.582 11.8319 141.15 12.1679C140.862 12.4079 140.514 12.5159 140.106 12.4919C139.698 12.4679 139.362 12.3359 139.098 12.0959C138.642 11.5199 138.054 11.0759 137.334 10.7639C136.614 10.4279 135.798 10.2599 134.886 10.2599C134.43 10.2599 133.95 10.3319 133.446 10.4759C132.966 10.5959 132.558 10.8239 132.222 11.1599C131.886 11.4959 131.718 11.9879 131.718 12.6359C131.718 13.2359 131.91 13.7159 132.294 14.0759C132.702 14.4359 133.23 14.7359 133.878 14.9759C134.526 15.2159 135.234 15.4319 136.002 15.6239C136.746 15.8159 137.478 16.0439 138.198 16.3079C138.942 16.5719 139.602 16.9199 140.178 17.3519C140.778 17.7599 141.258 18.2999 141.618 18.9719C142.002 19.6199 142.194 20.4479 142.194 21.4559C142.194 22.6319 141.846 23.6399 141.15 24.4799C140.478 25.2959 139.614 25.9199 138.558 26.3519C137.526 26.7839 136.434 26.9999 135.282 26.9999C133.914 26.9999 132.546 26.7599 131.178 26.2799C129.834 25.7759 128.694 24.9119 127.758 23.6879ZM166.632 1.43989C167.904 1.43989 169.08 1.78789 170.16 2.48389C171.24 3.15589 172.104 4.07989 172.752 5.25589C173.4 6.43189 173.724 7.75189 173.724 9.21589C173.724 10.6799 173.4 12.0119 172.752 13.2119C172.104 14.3879 171.24 15.3359 170.16 16.0559C169.08 16.7519 167.904 17.0999 166.632 17.0999H159.684L159.972 16.5239V24.8039C159.972 25.3319 159.804 25.7759 159.468 26.1359C159.156 26.4719 158.736 26.6399 158.208 26.6399C157.704 26.6399 157.284 26.4719 156.948 26.1359C156.636 25.7759 156.48 25.3319 156.48 24.8039V3.27589C156.48 2.74789 156.66 2.31589 157.02 1.97989C157.38 1.61989 157.812 1.43989 158.316 1.43989H166.632ZM166.632 13.6439C167.256 13.6439 167.82 13.4399 168.324 13.0319C168.852 12.6239 169.272 12.0839 169.584 11.4119C169.92 10.7399 170.088 10.0079 170.088 9.21589C170.088 8.42389 169.92 7.70389 169.584 7.05589C169.272 6.40789 168.852 5.89189 168.324 5.50789C167.82 5.09989 167.256 4.89589 166.632 4.89589H159.612L159.972 4.35589V14.1119L159.648 13.6439H166.632ZM179.506 26.6399C178.978 26.6399 178.546 26.4719 178.21 26.1359C177.874 25.7759 177.706 25.3319 177.706 24.8039V9.53989C177.706 9.01189 177.874 8.57989 178.21 8.24389C178.546 7.88389 178.978 7.70389 179.506 7.70389C180.01 7.70389 180.43 7.88389 180.766 8.24389C181.126 8.57989 181.306 9.01189 181.306 9.53989V13.5719L180.946 12.0239C181.138 11.3519 181.426 10.7279 181.81 10.1519C182.218 9.57589 182.698 9.07189 183.25 8.63989C183.802 8.20789 184.414 7.87189 185.086 7.63189C185.782 7.39189 186.502 7.27189 187.246 7.27189C187.87 7.27189 188.41 7.43989 188.866 7.77589C189.322 8.11189 189.55 8.53189 189.55 9.03589C189.55 9.68389 189.382 10.1639 189.046 10.4759C188.71 10.7639 188.338 10.9079 187.93 10.9079C187.57 10.9079 187.222 10.8359 186.886 10.6919C186.55 10.5239 186.154 10.4399 185.698 10.4399C185.194 10.4399 184.678 10.5719 184.15 10.8359C183.622 11.0999 183.142 11.4959 182.71 12.0239C182.278 12.5279 181.93 13.1279 181.666 13.8239C181.426 14.5199 181.306 15.2999 181.306 16.1639V24.8039C181.306 25.3319 181.126 25.7759 180.766 26.1359C180.43 26.4719 180.01 26.6399 179.506 26.6399ZM210.088 17.1719C210.088 19.0919 209.668 20.7959 208.828 22.2839C207.988 23.7479 206.848 24.8999 205.408 25.7399C203.968 26.5799 202.348 26.9999 200.548 26.9999C198.748 26.9999 197.128 26.5799 195.688 25.7399C194.248 24.8999 193.096 23.7479 192.232 22.2839C191.392 20.7959 190.972 19.0919 190.972 17.1719C190.972 15.2279 191.392 13.5239 192.232 12.0599C193.096 10.5719 194.248 9.40789 195.688 8.56789C197.128 7.70389 198.748 7.27189 200.548 7.27189C202.348 7.27189 203.968 7.70389 205.408 8.56789C206.848 9.40789 207.988 10.5719 208.828 12.0599C209.668 13.5239 210.088 15.2279 210.088 17.1719ZM206.488 17.1719C206.488 15.8519 206.224 14.7119 205.696 13.7519C205.168 12.7679 204.448 11.9999 203.536 11.4479C202.648 10.8719 201.652 10.5839 200.548 10.5839C199.444 10.5839 198.436 10.8719 197.524 11.4479C196.612 11.9999 195.892 12.7679 195.364 13.7519C194.836 14.7119 194.572 15.8519 194.572 17.1719C194.572 18.4439 194.836 19.5719 195.364 20.5559C195.892 21.5399 196.612 22.3079 197.524 22.8599C198.436 23.4119 199.444 23.6879 200.548 23.6879C201.652 23.6879 202.648 23.4119 203.536 22.8599C204.448 22.3079 205.168 21.5399 205.696 20.5559C206.224 19.5719 206.488 18.4439 206.488 17.1719ZM222.551 7.27189C223.847 7.27189 224.999 7.41589 226.007 7.70389C227.015 7.96789 227.795 8.35189 228.347 8.85589C228.923 9.33589 229.211 9.89989 229.211 10.5479C229.211 10.9559 229.091 11.3399 228.851 11.6999C228.611 12.0359 228.251 12.2039 227.771 12.2039C227.435 12.2039 227.147 12.1439 226.907 12.0239C226.691 11.9039 226.487 11.7599 226.295 11.5919C226.103 11.4239 225.863 11.2559 225.575 11.0879C225.311 10.9439 224.915 10.8239 224.387 10.7279C223.883 10.6319 223.427 10.5839 223.019 10.5839C221.747 10.5839 220.643 10.8719 219.707 11.4479C218.795 12.0239 218.075 12.8039 217.547 13.7879C217.043 14.7719 216.791 15.8879 216.791 17.1359C216.791 18.3839 217.043 19.4999 217.547 20.4839C218.075 21.4679 218.783 22.2479 219.671 22.8239C220.583 23.3999 221.639 23.6879 222.839 23.6879C223.559 23.6879 224.147 23.6399 224.603 23.5439C225.059 23.4239 225.455 23.2799 225.791 23.1119C226.151 22.8959 226.451 22.6799 226.691 22.4639C226.955 22.2239 227.315 22.1039 227.771 22.1039C228.299 22.1039 228.695 22.2719 228.959 22.6079C229.247 22.9199 229.391 23.3159 229.391 23.7959C229.391 24.3239 229.067 24.8399 228.419 25.3439C227.795 25.8239 226.955 26.2199 225.899 26.5319C224.843 26.8439 223.679 26.9999 222.407 26.9999C220.535 26.9999 218.903 26.5679 217.511 25.7039C216.143 24.8399 215.075 23.6639 214.307 22.1759C213.563 20.6879 213.191 19.0079 213.191 17.1359C213.191 15.2399 213.587 13.5599 214.379 12.0959C215.171 10.6079 216.275 9.43189 217.691 8.56789C219.107 7.70389 220.727 7.27189 222.551 7.27189ZM241.651 26.9999C239.659 26.9999 237.931 26.5919 236.467 25.7759C235.003 24.9359 233.863 23.7959 233.047 22.3559C232.255 20.8919 231.859 19.2239 231.859 17.3519C231.859 15.2399 232.279 13.4399 233.119 11.9519C233.983 10.4399 235.099 9.28789 236.467 8.49589C237.835 7.67989 239.287 7.27189 240.823 7.27189C241.999 7.27189 243.115 7.51189 244.171 7.99189C245.227 8.44789 246.163 9.09589 246.979 9.93589C247.819 10.7519 248.479 11.7239 248.959 12.8519C249.439 13.9559 249.691 15.1679 249.715 16.4879C249.691 16.9679 249.499 17.3639 249.139 17.6759C248.779 17.9879 248.359 18.1439 247.879 18.1439H233.875L233.011 15.0839H246.547L245.863 15.7319V14.8319C245.815 13.9919 245.539 13.2599 245.035 12.6359C244.531 11.9879 243.907 11.4959 243.163 11.1599C242.419 10.7999 241.639 10.6199 240.823 10.6199C240.103 10.6199 239.407 10.7399 238.735 10.9799C238.087 11.1959 237.499 11.5559 236.971 12.0599C236.467 12.5639 236.059 13.2359 235.747 14.0759C235.459 14.8919 235.315 15.9119 235.315 17.1359C235.315 18.4559 235.591 19.6079 236.143 20.5919C236.695 21.5759 237.439 22.3439 238.375 22.8959C239.311 23.4239 240.343 23.6879 241.471 23.6879C242.359 23.6879 243.091 23.6039 243.667 23.4359C244.243 23.2439 244.723 23.0159 245.107 22.7519C245.491 22.4879 245.827 22.2359 246.115 21.9959C246.475 21.7799 246.835 21.6719 247.195 21.6719C247.627 21.6719 247.987 21.8279 248.275 22.1399C248.563 22.4279 248.707 22.7759 248.707 23.1839C248.707 23.7119 248.443 24.1919 247.915 24.6239C247.267 25.2479 246.367 25.7999 245.215 26.2799C244.087 26.7599 242.899 26.9999 241.651 26.9999ZM252.668 23.6879C252.452 23.3519 252.356 22.9679 252.38 22.5359C252.404 22.0799 252.656 21.6959 253.136 21.3839C253.472 21.1679 253.82 21.0839 254.18 21.1319C254.564 21.1559 254.924 21.3359 255.26 21.6719C255.932 22.4159 256.676 23.0039 257.492 23.4359C258.332 23.8679 259.34 24.0839 260.516 24.0839C260.996 24.0599 261.488 23.9879 261.992 23.8679C262.496 23.7239 262.928 23.4839 263.288 23.1479C263.648 22.7879 263.828 22.2719 263.828 21.5999C263.828 20.9999 263.636 20.5199 263.252 20.1599C262.868 19.7999 262.364 19.5119 261.74 19.2959C261.116 19.0559 260.444 18.8399 259.724 18.6479C258.956 18.4319 258.176 18.1919 257.384 17.9279C256.616 17.6639 255.92 17.3279 255.296 16.9199C254.672 16.4879 254.156 15.9359 253.748 15.2639C253.364 14.5919 253.172 13.7639 253.172 12.7799C253.172 11.6519 253.484 10.6799 254.108 9.86389C254.756 9.04789 255.584 8.41189 256.592 7.95589C257.624 7.49989 258.74 7.27189 259.94 7.27189C260.636 7.27189 261.368 7.36789 262.136 7.55989C262.904 7.72789 263.648 8.00389 264.368 8.38789C265.088 8.77189 265.712 9.27589 266.24 9.89989C266.48 10.2119 266.612 10.5839 266.636 11.0159C266.684 11.4479 266.492 11.8319 266.06 12.1679C265.772 12.4079 265.424 12.5159 265.016 12.4919C264.608 12.4679 264.272 12.3359 264.008 12.0959C263.552 11.5199 262.964 11.0759 262.244 10.7639C261.524 10.4279 260.708 10.2599 259.796 10.2599C259.34 10.2599 258.86 10.3319 258.356 10.4759C257.876 10.5959 257.468 10.8239 257.132 11.1599C256.796 11.4959 256.628 11.9879 256.628 12.6359C256.628 13.2359 256.82 13.7159 257.204 14.0759C257.612 14.4359 258.14 14.7359 258.788 14.9759C259.436 15.2159 260.144 15.4319 260.912 15.6239C261.656 15.8159 262.388 16.0439 263.108 16.3079C263.852 16.5719 264.512 16.9199 265.088 17.3519C265.688 17.7599 266.168 18.2999 266.528 18.9719C266.912 19.6199 267.104 20.4479 267.104 21.4559C267.104 22.6319 266.756 23.6399 266.06 24.4799C265.388 25.2959 264.524 25.9199 263.468 26.3519C262.436 26.7839 261.344 26.9999 260.192 26.9999C258.824 26.9999 257.456 26.7599 256.088 26.2799C254.744 25.7759 253.604 24.9119 252.668 23.6879ZM269.859 23.6879C269.643 23.3519 269.547 22.9679 269.571 22.5359C269.595 22.0799 269.847 21.6959 270.327 21.3839C270.663 21.1679 271.011 21.0839 271.371 21.1319C271.755 21.1559 272.115 21.3359 272.451 21.6719C273.123 22.4159 273.867 23.0039 274.683 23.4359C275.523 23.8679 276.531 24.0839 277.707 24.0839C278.187 24.0599 278.679 23.9879 279.183 23.8679C279.687 23.7239 280.119 23.4839 280.479 23.1479C280.839 22.7879 281.019 22.2719 281.019 21.5999C281.019 20.9999 280.827 20.5199 280.443 20.1599C280.059 19.7999 279.555 19.5119 278.931 19.2959C278.307 19.0559 277.635 18.8399 276.915 18.6479C276.147 18.4319 275.367 18.1919 274.575 17.9279C273.807 17.6639 273.111 17.3279 272.487 16.9199C271.863 16.4879 271.347 15.9359 270.939 15.2639C270.555 14.5919 270.363 13.7639 270.363 12.7799C270.363 11.6519 270.675 10.6799 271.299 9.86389C271.947 9.04789 272.775 8.41189 273.783 7.95589C274.815 7.49989 275.931 7.27189 277.131 7.27189C277.827 7.27189 278.559 7.36789 279.327 7.55989C280.095 7.72789 280.839 8.00389 281.559 8.38789C282.279 8.77189 282.903 9.27589 283.431 9.89989C283.671 10.2119 283.803 10.5839 283.827 11.0159C283.875 11.4479 283.683 11.8319 283.251 12.1679C282.963 12.4079 282.615 12.5159 282.207 12.4919C281.799 12.4679 281.463 12.3359 281.199 12.0959C280.743 11.5199 280.155 11.0759 279.435 10.7639C278.715 10.4279 277.899 10.2599 276.987 10.2599C276.531 10.2599 276.051 10.3319 275.547 10.4759C275.067 10.5959 274.659 10.8239 274.323 11.1599C273.987 11.4959 273.819 11.9879 273.819 12.6359C273.819 13.2359 274.011 13.7159 274.395 14.0759C274.803 14.4359 275.331 14.7359 275.979 14.9759C276.627 15.2159 277.335 15.4319 278.103 15.6239C278.847 15.8159 279.579 16.0439 280.299 16.3079C281.043 16.5719 281.703 16.9199 282.279 17.3519C282.879 17.7599 283.359 18.2999 283.719 18.9719C284.103 19.6199 284.295 20.4479 284.295 21.4559C284.295 22.6319 283.947 23.6399 283.251 24.4799C282.579 25.2959 281.715 25.9199 280.659 26.3519C279.627 26.7839 278.535 26.9999 277.383 26.9999C276.015 26.9999 274.647 26.7599 273.279 26.2799C271.935 25.7759 270.795 24.9119 269.859 23.6879ZM296.986 26.9999C294.994 26.9999 293.266 26.5919 291.802 25.7759C290.338 24.9359 289.198 23.7959 288.382 22.3559C287.59 20.8919 287.194 19.2239 287.194 17.3519C287.194 15.2399 287.614 13.4399 288.454 11.9519C289.318 10.4399 290.434 9.28789 291.802 8.49589C293.17 7.67989 294.622 7.27189 296.158 7.27189C297.334 7.27189 298.45 7.51189 299.506 7.99189C300.562 8.44789 301.498 9.09589 302.314 9.93589C303.154 10.7519 303.814 11.7239 304.294 12.8519C304.774 13.9559 305.026 15.1679 305.05 16.4879C305.026 16.9679 304.834 17.3639 304.474 17.6759C304.114 17.9879 303.694 18.1439 303.214 18.1439H289.21L288.346 15.0839H301.882L301.198 15.7319V14.8319C301.15 13.9919 300.874 13.2599 300.37 12.6359C299.866 11.9879 299.242 11.4959 298.498 11.1599C297.754 10.7999 296.974 10.6199 296.158 10.6199C295.438 10.6199 294.742 10.7399 294.07 10.9799C293.422 11.1959 292.834 11.5559 292.306 12.0599C291.802 12.5639 291.394 13.2359 291.082 14.0759C290.794 14.8919 290.65 15.9119 290.65 17.1359C290.65 18.4559 290.926 19.6079 291.478 20.5919C292.03 21.5759 292.774 22.3439 293.71 22.8959C294.646 23.4239 295.678 23.6879 296.806 23.6879C297.694 23.6879 298.426 23.6039 299.002 23.4359C299.578 23.2439 300.058 23.0159 300.442 22.7519C300.826 22.4879 301.162 22.2359 301.45 21.9959C301.81 21.7799 302.17 21.6719 302.53 21.6719C302.962 21.6719 303.322 21.8279 303.61 22.1399C303.898 22.4279 304.042 22.7759 304.042 23.1839C304.042 23.7119 303.778 24.1919 303.25 24.6239C302.602 25.2479 301.702 25.7999 300.55 26.2799C299.422 26.7599 298.234 26.9999 296.986 26.9999ZM308.004 23.6879C307.788 23.3519 307.692 22.9679 307.716 22.5359C307.74 22.0799 307.992 21.6959 308.472 21.3839C308.808 21.1679 309.156 21.0839 309.516 21.1319C309.9 21.1559 310.26 21.3359 310.596 21.6719C311.268 22.4159 312.012 23.0039 312.828 23.4359C313.668 23.8679 314.676 24.0839 315.852 24.0839C316.332 24.0599 316.824 23.9879 317.328 23.8679C317.832 23.7239 318.264 23.4839 318.624 23.1479C318.984 22.7879 319.164 22.2719 319.164 21.5999C319.164 20.9999 318.972 20.5199 318.588 20.1599C318.204 19.7999 317.7 19.5119 317.076 19.2959C316.452 19.0559 315.78 18.8399 315.06 18.6479C314.292 18.4319 313.512 18.1919 312.72 17.9279C311.952 17.6639 311.256 17.3279 310.632 16.9199C310.008 16.4879 309.492 15.9359 309.084 15.2639C308.7 14.5919 308.508 13.7639 308.508 12.7799C308.508 11.6519 308.82 10.6799 309.444 9.86389C310.092 9.04789 310.92 8.41189 311.928 7.95589C312.96 7.49989 314.076 7.27189 315.276 7.27189C315.972 7.27189 316.704 7.36789 317.472 7.55989C318.24 7.72789 318.984 8.00389 319.704 8.38789C320.424 8.77189 321.048 9.27589 321.576 9.89989C321.816 10.2119 321.948 10.5839 321.972 11.0159C322.02 11.4479 321.828 11.8319 321.396 12.1679C321.108 12.4079 320.76 12.5159 320.352 12.4919C319.944 12.4679 319.608 12.3359 319.344 12.0959C318.888 11.5199 318.3 11.0759 317.58 10.7639C316.86 10.4279 316.044 10.2599 315.132 10.2599C314.676 10.2599 314.196 10.3319 313.692 10.4759C313.212 10.5959 312.804 10.8239 312.468 11.1599C312.132 11.4959 311.964 11.9879 311.964 12.6359C311.964 13.2359 312.156 13.7159 312.54 14.0759C312.948 14.4359 313.476 14.7359 314.124 14.9759C314.772 15.2159 315.48 15.4319 316.248 15.6239C316.992 15.8159 317.724 16.0439 318.444 16.3079C319.188 16.5719 319.848 16.9199 320.424 17.3519C321.024 17.7599 321.504 18.2999 321.864 18.9719C322.248 19.6199 322.44 20.4479 322.44 21.4559C322.44 22.6319 322.092 23.6399 321.396 24.4799C320.724 25.2959 319.86 25.9199 318.804 26.3519C317.772 26.7839 316.68 26.9999 315.528 26.9999C314.16 26.9999 312.792 26.7599 311.424 26.2799C310.08 25.7759 308.94 24.9119 308.004 23.6879ZM344.935 26.6399C344.359 26.6399 343.891 26.4719 343.531 26.1359C343.195 25.7759 343.027 25.3319 343.027 24.8039V3.23989H346.879V24.8039C346.879 25.3319 346.687 25.7759 346.303 26.1359C345.943 26.4719 345.487 26.6399 344.935 26.6399ZM336.763 4.89589C336.259 4.89589 335.827 4.73989 335.467 4.42789C335.107 4.09189 334.927 3.65989 334.927 3.13189C334.927 2.62789 335.107 2.21989 335.467 1.90789C335.827 1.59589 336.259 1.43989 336.763 1.43989H353.143C353.647 1.43989 354.067 1.60789 354.403 1.94389C354.763 2.25589 354.943 2.66389 354.943 3.16789C354.943 3.69589 354.763 4.11589 354.403 4.42789C354.067 4.73989 353.647 4.89589 353.143 4.89589H336.763ZM368.16 7.37989C369.816 7.37989 371.1 7.73989 372.012 8.45989C372.924 9.15589 373.56 10.1039 373.92 11.3039C374.304 12.5039 374.496 13.8239 374.496 15.2639V24.8039C374.496 25.3319 374.316 25.7759 373.956 26.1359C373.62 26.4719 373.2 26.6399 372.696 26.6399C372.168 26.6399 371.736 26.4719 371.4 26.1359C371.064 25.7759 370.896 25.3319 370.896 24.8039V15.2639C370.896 14.4239 370.776 13.6559 370.536 12.9599C370.32 12.2639 369.924 11.7119 369.348 11.3039C368.796 10.8959 368.016 10.6919 367.008 10.6919C366.072 10.6919 365.232 10.8959 364.488 11.3039C363.768 11.7119 363.204 12.2639 362.796 12.9599C362.412 13.6559 362.22 14.4239 362.22 15.2639V24.8039C362.22 25.3319 362.04 25.7759 361.68 26.1359C361.344 26.4719 360.924 26.6399 360.42 26.6399C359.892 26.6399 359.46 26.4719 359.124 26.1359C358.788 25.7759 358.62 25.3319 358.62 24.8039V1.83589C358.62 1.30789 358.788 0.875892 359.124 0.539892C359.46 0.179892 359.892 -0.000107765 360.42 -0.000107765C360.924 -0.000107765 361.344 0.179892 361.68 0.539892C362.04 0.875892 362.22 1.30789 362.22 1.83589V11.6639L361.572 12.0239C361.74 11.4959 362.016 10.9559 362.4 10.4039C362.808 9.85189 363.3 9.34789 363.876 8.89189C364.476 8.43589 365.136 8.07589 365.856 7.81189C366.576 7.52389 367.344 7.37989 368.16 7.37989ZM395.018 7.41589C395.546 7.41589 395.978 7.59589 396.314 7.95589C396.65 8.29189 396.818 8.72389 396.818 9.25189V24.8039C396.818 25.3319 396.65 25.7759 396.314 26.1359C395.978 26.4719 395.546 26.6399 395.018 26.6399C394.514 26.6399 394.082 26.4719 393.722 26.1359C393.386 25.7759 393.218 25.3319 393.218 24.8039V22.2119L393.974 22.3199C393.974 22.7519 393.794 23.2319 393.434 23.7599C393.098 24.2879 392.63 24.8039 392.03 25.3079C391.43 25.7879 390.722 26.1959 389.906 26.5319C389.09 26.8439 388.214 26.9999 387.278 26.9999C385.622 26.9999 384.134 26.5799 382.814 25.7399C381.494 24.8759 380.45 23.6999 379.682 22.2119C378.914 20.7239 378.53 19.0319 378.53 17.1359C378.53 15.1919 378.914 13.4879 379.682 12.0239C380.45 10.5359 381.482 9.37189 382.778 8.53189C384.098 7.69189 385.562 7.27189 387.17 7.27189C388.202 7.27189 389.15 7.43989 390.014 7.77589C390.902 8.11189 391.67 8.54389 392.318 9.07189C392.966 9.59989 393.458 10.1639 393.794 10.7639C394.154 11.3399 394.334 11.8919 394.334 12.4199L393.218 12.5279V9.25189C393.218 8.74789 393.386 8.31589 393.722 7.95589C394.082 7.59589 394.514 7.41589 395.018 7.41589ZM387.674 23.6879C388.802 23.6879 389.798 23.3999 390.662 22.8239C391.526 22.2479 392.198 21.4679 392.678 20.4839C393.158 19.4759 393.398 18.3599 393.398 17.1359C393.398 15.8879 393.158 14.7719 392.678 13.7879C392.198 12.8039 391.526 12.0239 390.662 11.4479C389.798 10.8719 388.802 10.5839 387.674 10.5839C386.57 10.5839 385.586 10.8719 384.722 11.4479C383.882 12.0239 383.21 12.8039 382.706 13.7879C382.226 14.7719 381.986 15.8879 381.986 17.1359C381.986 18.3599 382.226 19.4759 382.706 20.4839C383.21 21.4679 383.882 22.2479 384.722 22.8239C385.586 23.3999 386.57 23.6879 387.674 23.6879ZM401.61 7.91989H410.07C410.55 7.91989 410.946 8.08789 411.258 8.42389C411.594 8.73589 411.762 9.13189 411.762 9.61189C411.762 10.0679 411.594 10.4519 411.258 10.7639C410.946 11.0759 410.55 11.2319 410.07 11.2319H401.61C401.13 11.2319 400.722 11.0759 400.386 10.7639C400.074 10.4279 399.918 10.0319 399.918 9.57589C399.918 9.09589 400.074 8.69989 400.386 8.38789C400.722 8.07589 401.13 7.91989 401.61 7.91989ZM405.39 3.23989C405.918 3.23989 406.35 3.41989 406.686 3.77989C407.022 4.11589 407.19 4.54789 407.19 5.07589V21.7799C407.19 22.2119 407.262 22.5599 407.406 22.8239C407.55 23.0879 407.742 23.2679 407.982 23.3639C408.246 23.4599 408.51 23.5079 408.774 23.5079C409.038 23.5079 409.266 23.4599 409.458 23.3639C409.674 23.2679 409.926 23.2199 410.214 23.2199C410.502 23.2199 410.766 23.3519 411.006 23.6159C411.246 23.8799 411.366 24.2399 411.366 24.6959C411.366 25.2719 411.054 25.7399 410.43 26.0999C409.806 26.4599 409.134 26.6399 408.414 26.6399C408.006 26.6399 407.526 26.6039 406.974 26.5319C406.422 26.4599 405.882 26.2799 405.354 25.9919C404.85 25.7039 404.43 25.2479 404.094 24.6239C403.758 23.9759 403.59 23.0759 403.59 21.9239V5.07589C403.59 4.54789 403.758 4.11589 404.094 3.77989C404.454 3.41989 404.886 3.23989 405.39 3.23989ZM435.164 6.11989L427.064 25.5599C426.92 25.9439 426.704 26.2439 426.416 26.4599C426.128 26.6759 425.804 26.7839 425.444 26.7839C424.916 26.7839 424.52 26.6399 424.256 26.3519C423.992 26.0399 423.848 25.6559 423.824 25.1999C423.824 25.0319 423.86 24.8399 423.932 24.6239L433.076 2.51989C433.244 2.11189 433.484 1.79989 433.796 1.58389C434.132 1.36789 434.492 1.27189 434.876 1.29589C435.236 1.29589 435.572 1.40389 435.884 1.61989C436.196 1.83589 436.424 2.13589 436.568 2.51989L445.604 24.2999C445.7 24.5399 445.748 24.7799 445.748 25.0199C445.748 25.5479 445.568 25.9799 445.208 26.3159C444.872 26.6279 444.488 26.7839 444.056 26.7839C443.696 26.7839 443.36 26.6759 443.048 26.4599C442.76 26.2199 442.544 25.9199 442.4 25.5599L434.228 6.22789L435.164 6.11989ZM428.504 20.4479L430.124 16.9919H440.312L440.924 20.4479H428.504ZM457.254 7.27189C458.55 7.27189 459.702 7.41589 460.71 7.70389C461.718 7.96789 462.498 8.35189 463.05 8.85589C463.626 9.33589 463.914 9.89989 463.914 10.5479C463.914 10.9559 463.794 11.3399 463.554 11.6999C463.314 12.0359 462.954 12.2039 462.474 12.2039C462.138 12.2039 461.85 12.1439 461.61 12.0239C461.394 11.9039 461.19 11.7599 460.998 11.5919C460.806 11.4239 460.566 11.2559 460.278 11.0879C460.014 10.9439 459.618 10.8239 459.09 10.7279C458.586 10.6319 458.13 10.5839 457.722 10.5839C456.45 10.5839 455.346 10.8719 454.41 11.4479C453.498 12.0239 452.778 12.8039 452.25 13.7879C451.746 14.7719 451.494 15.8879 451.494 17.1359C451.494 18.3839 451.746 19.4999 452.25 20.4839C452.778 21.4679 453.486 22.2479 454.374 22.8239C455.286 23.3999 456.342 23.6879 457.542 23.6879C458.262 23.6879 458.85 23.6399 459.306 23.5439C459.762 23.4239 460.158 23.2799 460.494 23.1119C460.854 22.8959 461.154 22.6799 461.394 22.4639C461.658 22.2239 462.018 22.1039 462.474 22.1039C463.002 22.1039 463.398 22.2719 463.662 22.6079C463.95 22.9199 464.094 23.3159 464.094 23.7959C464.094 24.3239 463.77 24.8399 463.122 25.3439C462.498 25.8239 461.658 26.2199 460.602 26.5319C459.546 26.8439 458.382 26.9999 457.11 26.9999C455.238 26.9999 453.606 26.5679 452.214 25.7039C450.846 24.8399 449.778 23.6639 449.01 22.1759C448.266 20.6879 447.894 19.0079 447.894 17.1359C447.894 15.2399 448.29 13.5599 449.082 12.0959C449.874 10.6079 450.978 9.43189 452.394 8.56789C453.81 7.70389 455.43 7.27189 457.254 7.27189ZM467.282 7.91989H475.742C476.222 7.91989 476.618 8.08789 476.93 8.42389C477.266 8.73589 477.434 9.13189 477.434 9.61189C477.434 10.0679 477.266 10.4519 476.93 10.7639C476.618 11.0759 476.222 11.2319 475.742 11.2319H467.282C466.802 11.2319 466.394 11.0759 466.058 10.7639C465.746 10.4279 465.59 10.0319 465.59 9.57589C465.59 9.09589 465.746 8.69989 466.058 8.38789C466.394 8.07589 466.802 7.91989 467.282 7.91989ZM471.062 3.23989C471.59 3.23989 472.022 3.41989 472.358 3.77989C472.694 4.11589 472.862 4.54789 472.862 5.07589V21.7799C472.862 22.2119 472.934 22.5599 473.078 22.8239C473.222 23.0879 473.414 23.2679 473.654 23.3639C473.918 23.4599 474.182 23.5079 474.446 23.5079C474.71 23.5079 474.938 23.4599 475.13 23.3639C475.346 23.2679 475.598 23.2199 475.886 23.2199C476.174 23.2199 476.438 23.3519 476.678 23.6159C476.918 23.8799 477.038 24.2399 477.038 24.6959C477.038 25.2719 476.726 25.7399 476.102 26.0999C475.478 26.4599 474.806 26.6399 474.086 26.6399C473.678 26.6399 473.198 26.6039 472.646 26.5319C472.094 26.4599 471.554 26.2799 471.026 25.9919C470.522 25.7039 470.102 25.2479 469.766 24.6239C469.43 23.9759 469.262 23.0759 469.262 21.9239V5.07589C469.262 4.54789 469.43 4.11589 469.766 3.77989C470.126 3.41989 470.558 3.23989 471.062 3.23989ZM495.532 7.70389C496.036 7.70389 496.456 7.88389 496.792 8.24389C497.152 8.57989 497.332 9.01189 497.332 9.53989V19.0079C497.332 21.5039 496.636 23.4599 495.244 24.8759C493.852 26.2679 491.884 26.9639 489.34 26.9639C486.82 26.9639 484.864 26.2679 483.472 24.8759C482.104 23.4599 481.42 21.5039 481.42 19.0079V9.53989C481.42 9.01189 481.588 8.57989 481.924 8.24389C482.26 7.88389 482.692 7.70389 483.22 7.70389C483.724 7.70389 484.144 7.88389 484.48 8.24389C484.84 8.57989 485.02 9.01189 485.02 9.53989V19.0079C485.02 20.5679 485.38 21.7319 486.1 22.4999C486.844 23.2679 487.924 23.6519 489.34 23.6519C490.78 23.6519 491.872 23.2679 492.616 22.4999C493.36 21.7319 493.732 20.5679 493.732 19.0079V9.53989C493.732 9.01189 493.9 8.57989 494.236 8.24389C494.572 7.88389 495.004 7.70389 495.532 7.70389ZM517.854 7.41589C518.382 7.41589 518.814 7.59589 519.15 7.95589C519.486 8.29189 519.654 8.72389 519.654 9.25189V24.8039C519.654 25.3319 519.486 25.7759 519.15 26.1359C518.814 26.4719 518.382 26.6399 517.854 26.6399C517.35 26.6399 516.918 26.4719 516.558 26.1359C516.222 25.7759 516.054 25.3319 516.054 24.8039V22.2119L516.81 22.3199C516.81 22.7519 516.63 23.2319 516.27 23.7599C515.934 24.2879 515.466 24.8039 514.866 25.3079C514.266 25.7879 513.558 26.1959 512.742 26.5319C511.926 26.8439 511.05 26.9999 510.114 26.9999C508.458 26.9999 506.97 26.5799 505.65 25.7399C504.33 24.8759 503.286 23.6999 502.518 22.2119C501.75 20.7239 501.366 19.0319 501.366 17.1359C501.366 15.1919 501.75 13.4879 502.518 12.0239C503.286 10.5359 504.318 9.37189 505.614 8.53189C506.934 7.69189 508.398 7.27189 510.006 7.27189C511.038 7.27189 511.986 7.43989 512.85 7.77589C513.738 8.11189 514.506 8.54389 515.154 9.07189C515.802 9.59989 516.294 10.1639 516.63 10.7639C516.99 11.3399 517.17 11.8919 517.17 12.4199L516.054 12.5279V9.25189C516.054 8.74789 516.222 8.31589 516.558 7.95589C516.918 7.59589 517.35 7.41589 517.854 7.41589ZM510.51 23.6879C511.638 23.6879 512.634 23.3999 513.498 22.8239C514.362 22.2479 515.034 21.4679 515.514 20.4839C515.994 19.4759 516.234 18.3599 516.234 17.1359C516.234 15.8879 515.994 14.7719 515.514 13.7879C515.034 12.8039 514.362 12.0239 513.498 11.4479C512.634 10.8719 511.638 10.5839 510.51 10.5839C509.406 10.5839 508.422 10.8719 507.558 11.4479C506.718 12.0239 506.046 12.8039 505.542 13.7879C505.062 14.7719 504.822 15.8879 504.822 17.1359C504.822 18.3599 505.062 19.4759 505.542 20.4839C506.046 21.4679 506.718 22.2479 507.558 22.8239C508.422 23.3999 509.406 23.6879 510.51 23.6879ZM528.586 24.8039C528.586 25.3319 528.406 25.7759 528.046 26.1359C527.71 26.4719 527.29 26.6399 526.786 26.6399C526.282 26.6399 525.85 26.4719 525.49 26.1359C525.154 25.7759 524.986 25.3319 524.986 24.8039V1.83589C524.986 1.30789 525.166 0.875892 525.526 0.539892C525.886 0.179892 526.318 -0.000107765 526.822 -0.000107765C527.35 -0.000107765 527.77 0.179892 528.082 0.539892C528.418 0.875892 528.586 1.30789 528.586 1.83589V24.8039ZM537.832 24.8039C537.832 25.3319 537.652 25.7759 537.292 26.1359C536.956 26.4719 536.536 26.6399 536.032 26.6399C535.528 26.6399 535.096 26.4719 534.736 26.1359C534.4 25.7759 534.232 25.3319 534.232 24.8039V1.83589C534.232 1.30789 534.412 0.875892 534.772 0.539892C535.132 0.179892 535.564 -0.000107765 536.068 -0.000107765C536.596 -0.000107765 537.016 0.179892 537.328 0.539892C537.664 0.875892 537.832 1.30789 537.832 1.83589V24.8039ZM556.739 7.55989C557.267 7.55989 557.699 7.73989 558.035 8.09989C558.371 8.43589 558.539 8.86789 558.539 9.39589V24.8759C558.539 26.9879 558.131 28.7039 557.315 30.0239C556.523 31.3439 555.443 32.3039 554.075 32.9039C552.731 33.5279 551.207 33.8399 549.503 33.8399C548.639 33.8399 547.775 33.7559 546.911 33.5879C546.047 33.4439 545.339 33.2279 544.787 32.9399C544.211 32.6759 543.803 32.3519 543.563 31.9679C543.323 31.5839 543.287 31.1639 543.455 30.7079C543.623 30.1319 543.911 29.7359 544.319 29.5199C544.727 29.3279 545.147 29.3159 545.579 29.4839C545.987 29.6519 546.527 29.8679 547.199 30.1319C547.871 30.3959 548.639 30.5279 549.503 30.5279C550.679 30.5279 551.675 30.3359 552.491 29.9519C553.307 29.5679 553.919 28.9679 554.327 28.1519C554.759 27.3359 554.975 26.2799 554.975 24.9839V22.4999L555.551 23.3639C555.167 24.1559 554.663 24.8159 554.039 25.3439C553.415 25.8719 552.671 26.2799 551.807 26.5679C550.967 26.8559 550.031 26.9999 548.999 26.9999C547.679 26.9999 546.539 26.7119 545.579 26.1359C544.643 25.5359 543.923 24.7199 543.419 23.6879C542.915 22.6319 542.663 21.4319 542.663 20.0879V9.39589C542.663 8.86789 542.831 8.43589 543.167 8.09989C543.503 7.73989 543.935 7.55989 544.463 7.55989C544.967 7.55989 545.387 7.73989 545.723 8.09989C546.083 8.43589 546.263 8.86789 546.263 9.39589V19.1159C546.263 20.6999 546.611 21.8639 547.307 22.6079C548.003 23.3279 549.035 23.6879 550.403 23.6879C551.315 23.6879 552.107 23.4959 552.779 23.1119C553.451 22.7279 553.979 22.1999 554.363 21.5279C554.747 20.8319 554.939 20.0279 554.939 19.1159V9.39589C554.939 8.86789 555.107 8.43589 555.443 8.09989C555.803 7.73989 556.235 7.55989 556.739 7.55989ZM10.152 47.4399C11.424 47.4399 12.6 47.7879 13.68 48.4839C14.76 49.1559 15.624 50.0799 16.272 51.2559C16.92 52.4319 17.244 53.7519 17.244 55.2159C17.244 56.6799 16.92 58.0119 16.272 59.2119C15.624 60.3879 14.76 61.3359 13.68 62.0559C12.6 62.7519 11.424 63.0999 10.152 63.0999H3.20398L3.49198 62.5239V70.8039C3.49198 71.3319 3.32398 71.7759 2.98798 72.1359C2.67598 72.4719 2.25598 72.6399 1.72798 72.6399C1.22398 72.6399 0.803984 72.4719 0.467985 72.1359C0.155984 71.7759 -1.56164e-05 71.3319 -1.56164e-05 70.8039V49.2759C-1.56164e-05 48.7479 0.179984 48.3159 0.539984 47.9799C0.899985 47.6199 1.33198 47.4399 1.83598 47.4399H10.152ZM10.152 59.6439C10.776 59.6439 11.34 59.4399 11.844 59.0319C12.372 58.6239 12.792 58.0839 13.104 57.4119C13.44 56.7399 13.608 56.0079 13.608 55.2159C13.608 54.4239 13.44 53.7039 13.104 53.0559C12.792 52.4079 12.372 51.8919 11.844 51.5079C11.34 51.0999 10.776 50.8959 10.152 50.8959H3.13198L3.49198 50.3559V60.1119L3.16798 59.6439H10.152ZM23.0251 72.6399C22.4971 72.6399 22.0651 72.4719 21.7291 72.1359C21.3931 71.7759 21.2251 71.3319 21.2251 70.8039V55.5399C21.2251 55.0119 21.3931 54.5799 21.7291 54.2439C22.0651 53.8839 22.4971 53.7039 23.0251 53.7039C23.5291 53.7039 23.9491 53.8839 24.2851 54.2439C24.6451 54.5799 24.8251 55.0119 24.8251 55.5399V59.5719L24.4651 58.0239C24.6571 57.3519 24.9451 56.7279 25.3291 56.1519C25.7371 55.5759 26.2171 55.0719 26.7691 54.6399C27.3211 54.2079 27.9331 53.8719 28.6051 53.6319C29.3011 53.3919 30.0211 53.2719 30.7651 53.2719C31.3891 53.2719 31.9291 53.4399 32.3851 53.7759C32.8411 54.1119 33.0691 54.5319 33.0691 55.0359C33.0691 55.6839 32.9011 56.1639 32.5651 56.4759C32.2291 56.7639 31.8571 56.9079 31.4491 56.9079C31.0891 56.9079 30.7411 56.8359 30.4051 56.6919C30.0691 56.5239 29.6731 56.4399 29.2171 56.4399C28.7131 56.4399 28.1971 56.5719 27.6691 56.8359C27.1411 57.0999 26.6611 57.4959 26.2291 58.0239C25.7971 58.5279 25.4491 59.1279 25.1851 59.8239C24.9451 60.5199 24.8251 61.2999 24.8251 62.1639V70.8039C24.8251 71.3319 24.6451 71.7759 24.2851 72.1359C23.9491 72.4719 23.5291 72.6399 23.0251 72.6399ZM53.6074 63.1719C53.6074 65.0919 53.1874 66.7959 52.3474 68.2839C51.5074 69.7479 50.3674 70.8999 48.9274 71.7399C47.4874 72.5799 45.8674 72.9999 44.0674 72.9999C42.2674 72.9999 40.6474 72.5799 39.2074 71.7399C37.7674 70.8999 36.6154 69.7479 35.7514 68.2839C34.9114 66.7959 34.4914 65.0919 34.4914 63.1719C34.4914 61.2279 34.9114 59.5239 35.7514 58.0599C36.6154 56.5719 37.7674 55.4079 39.2074 54.5679C40.6474 53.7039 42.2674 53.2719 44.0674 53.2719C45.8674 53.2719 47.4874 53.7039 48.9274 54.5679C50.3674 55.4079 51.5074 56.5719 52.3474 58.0599C53.1874 59.5239 53.6074 61.2279 53.6074 63.1719ZM50.0074 63.1719C50.0074 61.8519 49.7434 60.7119 49.2154 59.7519C48.6874 58.7679 47.9674 57.9999 47.0554 57.4479C46.1674 56.8719 45.1714 56.5839 44.0674 56.5839C42.9634 56.5839 41.9554 56.8719 41.0434 57.4479C40.1314 57.9999 39.4114 58.7679 38.8834 59.7519C38.3554 60.7119 38.0914 61.8519 38.0914 63.1719C38.0914 64.4439 38.3554 65.5719 38.8834 66.5559C39.4114 67.5399 40.1314 68.3079 41.0434 68.8599C41.9554 69.4119 42.9634 69.6879 44.0674 69.6879C45.1714 69.6879 46.1674 69.4119 47.0554 68.8599C47.9674 68.3079 48.6874 67.5399 49.2154 66.5559C49.7434 65.5719 50.0074 64.4439 50.0074 63.1719ZM66.0701 53.2719C67.3661 53.2719 68.5181 53.4159 69.5261 53.7039C70.5341 53.9679 71.3141 54.3519 71.8661 54.8559C72.4421 55.3359 72.7301 55.8999 72.7301 56.5479C72.7301 56.9559 72.6101 57.3399 72.3701 57.6999C72.1301 58.0359 71.7701 58.2039 71.2901 58.2039C70.9541 58.2039 70.6661 58.1439 70.4261 58.0239C70.2101 57.9039 70.0061 57.7599 69.8141 57.5919C69.6221 57.4239 69.3821 57.2559 69.0941 57.0879C68.8301 56.9439 68.4341 56.8239 67.9061 56.7279C67.4021 56.6319 66.9461 56.5839 66.5381 56.5839C65.2661 56.5839 64.1621 56.8719 63.2261 57.4479C62.3141 58.0239 61.5941 58.8039 61.0661 59.7879C60.5621 60.7719 60.3101 61.8879 60.3101 63.1359C60.3101 64.3839 60.5621 65.4999 61.0661 66.4839C61.5941 67.4679 62.3021 68.2479 63.1901 68.8239C64.1021 69.3999 65.1581 69.6879 66.3581 69.6879C67.0781 69.6879 67.6661 69.6399 68.1221 69.5439C68.5781 69.4239 68.9741 69.2799 69.3101 69.1119C69.6701 68.8959 69.9701 68.6799 70.2101 68.4639C70.4741 68.2239 70.8341 68.1039 71.2901 68.1039C71.8181 68.1039 72.2141 68.2719 72.4781 68.6079C72.7661 68.9199 72.9101 69.3159 72.9101 69.7959C72.9101 70.3239 72.5861 70.8399 71.9381 71.3439C71.3141 71.8239 70.4741 72.2199 69.4181 72.5319C68.3621 72.8439 67.1981 72.9999 65.9261 72.9999C64.0541 72.9999 62.4221 72.5679 61.0301 71.7039C59.6621 70.8399 58.5941 69.6639 57.8261 68.1759C57.0821 66.6879 56.7101 65.0079 56.7101 63.1359C56.7101 61.2399 57.1061 59.5599 57.8981 58.0959C58.6901 56.6079 59.7941 55.4319 61.2101 54.5679C62.6261 53.7039 64.2461 53.2719 66.0701 53.2719ZM85.1701 72.9999C83.1781 72.9999 81.4501 72.5919 79.9861 71.7759C78.5221 70.9359 77.3821 69.7959 76.5661 68.3559C75.7741 66.8919 75.3781 65.2239 75.3781 63.3519C75.3781 61.2399 75.7981 59.4399 76.6381 57.9519C77.5021 56.4399 78.6181 55.2879 79.9861 54.4959C81.3541 53.6799 82.8061 53.2719 84.3421 53.2719C85.5181 53.2719 86.6341 53.5119 87.6901 53.9919C88.7461 54.4479 89.6821 55.0959 90.4981 55.9359C91.3381 56.7519 91.9981 57.7239 92.4781 58.8519C92.9581 59.9559 93.2101 61.1679 93.2341 62.4879C93.2101 62.9679 93.0181 63.3639 92.6581 63.6759C92.2981 63.9879 91.8781 64.1439 91.3981 64.1439H77.3941L76.5301 61.0839H90.0661L89.3821 61.7319V60.8319C89.3341 59.9919 89.0581 59.2599 88.5541 58.6359C88.0501 57.9879 87.4261 57.4959 86.6821 57.1599C85.9381 56.7999 85.1581 56.6199 84.3421 56.6199C83.6221 56.6199 82.9261 56.7399 82.2541 56.9799C81.6061 57.1959 81.0181 57.5559 80.4901 58.0599C79.9861 58.5639 79.5781 59.2359 79.2661 60.0759C78.9781 60.8919 78.8341 61.9119 78.8341 63.1359C78.8341 64.4559 79.1101 65.6079 79.6621 66.5919C80.2141 67.5759 80.9581 68.3439 81.8941 68.8959C82.8301 69.4239 83.8621 69.6879 84.9901 69.6879C85.8781 69.6879 86.6101 69.6039 87.1861 69.4359C87.7621 69.2439 88.2421 69.0159 88.6261 68.7519C89.0101 68.4879 89.3461 68.2359 89.6341 67.9959C89.9941 67.7799 90.3541 67.6719 90.7141 67.6719C91.1461 67.6719 91.5061 67.8279 91.7941 68.1399C92.0821 68.4279 92.2261 68.7759 92.2261 69.1839C92.2261 69.7119 91.9621 70.1919 91.4341 70.6239C90.7861 71.2479 89.8861 71.7999 88.7341 72.2799C87.6061 72.7599 86.4181 72.9999 85.1701 72.9999ZM96.1872 69.6879C95.9712 69.3519 95.8752 68.9679 95.8992 68.5359C95.9232 68.0799 96.1752 67.6959 96.6552 67.3839C96.9912 67.1679 97.3392 67.0839 97.6992 67.1319C98.0832 67.1559 98.4432 67.3359 98.7792 67.6719C99.4512 68.4159 100.195 69.0039 101.011 69.4359C101.851 69.8679 102.859 70.0839 104.035 70.0839C104.515 70.0599 105.007 69.9879 105.511 69.8679C106.015 69.7239 106.447 69.4839 106.807 69.1479C107.167 68.7879 107.347 68.2719 107.347 67.5999C107.347 66.9999 107.155 66.5199 106.771 66.1599C106.387 65.7999 105.883 65.5119 105.259 65.2959C104.635 65.0559 103.963 64.8399 103.243 64.6479C102.475 64.4319 101.695 64.1919 100.903 63.9279C100.135 63.6639 99.4392 63.3279 98.8152 62.9199C98.1912 62.4879 97.6752 61.9359 97.2672 61.2639C96.8832 60.5919 96.6912 59.7639 96.6912 58.7799C96.6912 57.6519 97.0032 56.6799 97.6272 55.8639C98.2752 55.0479 99.1032 54.4119 100.111 53.9559C101.143 53.4999 102.259 53.2719 103.459 53.2719C104.155 53.2719 104.887 53.3679 105.655 53.5599C106.423 53.7279 107.167 54.0039 107.887 54.3879C108.607 54.7719 109.231 55.2759 109.759 55.8999C109.999 56.2119 110.131 56.5839 110.155 57.0159C110.203 57.4479 110.011 57.8319 109.579 58.1679C109.291 58.4079 108.943 58.5159 108.535 58.4919C108.127 58.4679 107.791 58.3359 107.527 58.0959C107.071 57.5199 106.483 57.0759 105.763 56.7639C105.043 56.4279 104.227 56.2599 103.315 56.2599C102.859 56.2599 102.379 56.3319 101.875 56.4759C101.395 56.5959 100.987 56.8239 100.651 57.1599C100.315 57.4959 100.147 57.9879 100.147 58.6359C100.147 59.2359 100.339 59.7159 100.723 60.0759C101.131 60.4359 101.659 60.7359 102.307 60.9759C102.955 61.2159 103.663 61.4319 104.431 61.6239C105.175 61.8159 105.907 62.0439 106.627 62.3079C107.371 62.5719 108.031 62.9199 108.607 63.3519C109.207 63.7599 109.687 64.2999 110.047 64.9719C110.431 65.6199 110.623 66.4479 110.623 67.4559C110.623 68.6319 110.275 69.6399 109.579 70.4799C108.907 71.2959 108.043 71.9199 106.987 72.3519C105.955 72.7839 104.863 72.9999 103.711 72.9999C102.343 72.9999 100.975 72.7599 99.6072 72.2799C98.2632 71.7759 97.1232 70.9119 96.1872 69.6879ZM113.379 69.6879C113.163 69.3519 113.067 68.9679 113.091 68.5359C113.115 68.0799 113.367 67.6959 113.847 67.3839C114.183 67.1679 114.531 67.0839 114.891 67.1319C115.275 67.1559 115.635 67.3359 115.971 67.6719C116.643 68.4159 117.387 69.0039 118.203 69.4359C119.043 69.8679 120.051 70.0839 121.227 70.0839C121.707 70.0599 122.199 69.9879 122.703 69.8679C123.207 69.7239 123.639 69.4839 123.999 69.1479C124.359 68.7879 124.539 68.2719 124.539 67.5999C124.539 66.9999 124.347 66.5199 123.963 66.1599C123.579 65.7999 123.075 65.5119 122.451 65.2959C121.827 65.0559 121.155 64.8399 120.435 64.6479C119.667 64.4319 118.887 64.1919 118.095 63.9279C117.327 63.6639 116.631 63.3279 116.007 62.9199C115.383 62.4879 114.867 61.9359 114.459 61.2639C114.075 60.5919 113.883 59.7639 113.883 58.7799C113.883 57.6519 114.195 56.6799 114.819 55.8639C115.467 55.0479 116.295 54.4119 117.303 53.9559C118.335 53.4999 119.451 53.2719 120.651 53.2719C121.347 53.2719 122.079 53.3679 122.847 53.5599C123.615 53.7279 124.359 54.0039 125.079 54.3879C125.799 54.7719 126.423 55.2759 126.951 55.8999C127.191 56.2119 127.323 56.5839 127.347 57.0159C127.395 57.4479 127.203 57.8319 126.771 58.1679C126.483 58.4079 126.135 58.5159 125.727 58.4919C125.319 58.4679 124.983 58.3359 124.719 58.0959C124.263 57.5199 123.675 57.0759 122.955 56.7639C122.235 56.4279 121.419 56.2599 120.507 56.2599C120.051 56.2599 119.571 56.3319 119.067 56.4759C118.587 56.5959 118.179 56.8239 117.843 57.1599C117.507 57.4959 117.339 57.9879 117.339 58.6359C117.339 59.2359 117.531 59.7159 117.915 60.0759C118.323 60.4359 118.851 60.7359 119.499 60.9759C120.147 61.2159 120.855 61.4319 121.623 61.6239C122.367 61.8159 123.099 62.0439 123.819 62.3079C124.563 62.5719 125.223 62.9199 125.799 63.3519C126.399 63.7599 126.879 64.2999 127.239 64.9719C127.623 65.6199 127.815 66.4479 127.815 67.4559C127.815 68.6319 127.467 69.6399 126.771 70.4799C126.099 71.2959 125.235 71.9199 124.179 72.3519C123.147 72.7839 122.055 72.9999 120.903 72.9999C119.535 72.9999 118.167 72.7599 116.799 72.2799C115.455 71.7759 114.315 70.9119 113.379 69.6879Z" fill="black"/>
</svg>
