<svg width="561" height="73" viewBox="0 0 561 73" fill="none" xmlns="http://www.w3.org/2000/svg">
<path d="M15.732 23.1119C16.236 23.1119 16.656 23.2799 16.992 23.6159C17.352 23.9519 17.532 24.3719 17.532 24.8759C17.532 25.3799 17.352 25.7999 16.992 26.1359C16.656 26.4719 16.236 26.6399 15.732 26.6399H3.636C3.108 26.6399 2.664 26.4719 2.304 26.1359C1.968 25.7759 1.8 25.3319 1.8 24.8039V3.27589C1.8 2.74789 1.98 2.31589 2.34 1.97989C2.7 1.61989 3.168 1.43989 3.744 1.43989C4.224 1.43989 4.644 1.61989 5.004 1.97989C5.388 2.31589 5.58 2.74789 5.58 3.27589V23.7239L4.824 23.1119H15.732ZM30.0873 26.9999C28.0953 26.9999 26.3673 26.5919 24.9033 25.7759C23.4393 24.9359 22.2993 23.7959 21.4833 22.3559C20.6913 20.8919 20.2953 19.2239 20.2953 17.3519C20.2953 15.2399 20.7153 13.4399 21.5553 11.9519C22.4193 10.4399 23.5353 9.28789 24.9033 8.49589C26.2713 7.67989 27.7233 7.27189 29.2593 7.27189C30.4353 7.27189 31.5513 7.51189 32.6073 7.99189C33.6633 8.44789 34.5993 9.09589 35.4153 9.93589C36.2553 10.7519 36.9153 11.7239 37.3953 12.8519C37.8753 13.9559 38.1273 15.1679 38.1513 16.4879C38.1273 16.9679 37.9353 17.3639 37.5753 17.6759C37.2153 17.9879 36.7953 18.1439 36.3153 18.1439H22.3113L21.4473 15.0839H34.9833L34.2993 15.7319V14.8319C34.2513 13.9919 33.9753 13.2599 33.4713 12.6359C32.9673 11.9879 32.3433 11.4959 31.5993 11.1599C30.8553 10.7999 30.0753 10.6199 29.2593 10.6199C28.5393 10.6199 27.8433 10.7399 27.1713 10.9799C26.5233 11.1959 25.9353 11.5559 25.4073 12.0599C24.9033 12.5639 24.4953 13.2359 24.1833 14.0759C23.8953 14.8919 23.7513 15.9119 23.7513 17.1359C23.7513 18.4559 24.0273 19.6079 24.5793 20.5919C25.1313 21.5759 25.8753 22.3439 26.8113 22.8959C27.7473 23.4239 28.7793 23.6879 29.9073 23.6879C30.7953 23.6879 31.5273 23.6039 32.1033 23.4359C32.6793 23.2439 33.1593 23.0159 33.5433 22.7519C33.9273 22.4879 34.2633 22.2359 34.5513 21.9959C34.9113 21.7799 35.2713 21.6719 35.6313 21.6719C36.0633 21.6719 36.4233 21.8279 36.7113 22.1399C36.9993 22.4279 37.1433 22.7759 37.1433 23.1839C37.1433 23.7119 36.8793 24.1919 36.3513 24.6239C35.7033 25.2479 34.8033 25.7999 33.6513 26.2799C32.5233 26.7599 31.3353 26.9999 30.0873 26.9999ZM57.877 7.41589C58.405 7.41589 58.837 7.59589 59.173 7.95589C59.509 8.29189 59.677 8.72389 59.677 9.25189V24.8039C59.677 25.3319 59.509 25.7759 59.173 26.1359C58.837 26.4719 58.405 26.6399 57.877 26.6399C57.373 26.6399 56.941 26.4719 56.581 26.1359C56.245 25.7759 56.077 25.3319 56.077 24.8039V22.2119L56.833 22.3199C56.833 22.7519 56.653 23.2319 56.293 23.7599C55.957 24.2879 55.489 24.8039 54.889 25.3079C54.289 25.7879 53.581 26.1959 52.765 26.5319C51.949 26.8439 51.073 26.9999 50.137 26.9999C48.481 26.9999 46.993 26.5799 45.673 25.7399C44.353 24.8759 43.309 23.6999 42.541 22.2119C41.773 20.7239 41.389 19.0319 41.389 17.1359C41.389 15.1919 41.773 13.4879 42.541 12.0239C43.309 10.5359 44.341 9.37189 45.637 8.53189C46.957 7.69189 48.421 7.27189 50.029 7.27189C51.061 7.27189 52.009 7.43989 52.873 7.77589C53.761 8.11189 54.529 8.54389 55.177 9.07189C55.825 9.59989 56.317 10.1639 56.653 10.7639C57.013 11.3399 57.193 11.8919 57.193 12.4199L56.077 12.5279V9.25189C56.077 8.74789 56.245 8.31589 56.581 7.95589C56.941 7.59589 57.373 7.41589 57.877 7.41589ZM50.533 23.6879C51.661 23.6879 52.657 23.3999 53.521 22.8239C54.385 22.2479 55.057 21.4679 55.537 20.4839C56.017 19.4759 56.257 18.3599 56.257 17.1359C56.257 15.8879 56.017 14.7719 55.537 13.7879C55.057 12.8039 54.385 12.0239 53.521 11.4479C52.657 10.8719 51.661 10.5839 50.533 10.5839C49.429 10.5839 48.445 10.8719 47.581 11.4479C46.741 12.0239 46.069 12.8039 45.565 13.7879C45.085 14.7719 44.845 15.8879 44.845 17.1359C44.845 18.3599 45.085 19.4759 45.565 20.4839C46.069 21.4679 46.741 22.2479 47.581 22.8239C48.445 23.3999 49.429 23.6879 50.533 23.6879ZM80.2364 -0.000107765C80.7644 -0.000107765 81.1964 0.167892 81.5324 0.503892C81.8684 0.839892 82.0364 1.28389 82.0364 1.83589V24.8039C82.0364 25.3319 81.8684 25.7759 81.5324 26.1359C81.1964 26.4719 80.7644 26.6399 80.2364 26.6399C79.7324 26.6399 79.3004 26.4719 78.9404 26.1359C78.6044 25.7759 78.4364 25.3319 78.4364 24.8039V22.2119L79.1924 22.2479C79.1924 22.6799 79.0124 23.1719 78.6524 23.7239C78.3164 24.2519 77.8484 24.7679 77.2484 25.2719C76.6484 25.7759 75.9404 26.1959 75.1244 26.5319C74.3084 26.8439 73.4324 26.9999 72.4964 26.9999C70.8404 26.9999 69.3524 26.5799 68.0324 25.7399C66.7124 24.8759 65.6684 23.7119 64.9004 22.2479C64.1324 20.7599 63.7484 19.0559 63.7484 17.1359C63.7484 15.2159 64.1324 13.5239 64.9004 12.0599C65.6684 10.5719 66.7004 9.40789 67.9964 8.56789C69.3164 7.70389 70.7804 7.27189 72.3884 7.27189C73.3964 7.27189 74.3324 7.43989 75.1964 7.77589C76.0844 8.11189 76.8524 8.54389 77.5004 9.07189C78.1484 9.59989 78.6524 10.1639 79.0124 10.7639C79.3724 11.3399 79.5524 11.8919 79.5524 12.4199L78.4364 12.5279V1.83589C78.4364 1.30789 78.6044 0.875892 78.9404 0.539892C79.3004 0.179892 79.7324 -0.000107765 80.2364 -0.000107765ZM72.8924 23.6879C74.0444 23.6879 75.0404 23.3999 75.8804 22.8239C76.7444 22.2479 77.4164 21.4679 77.8964 20.4839C78.3764 19.4999 78.6164 18.3839 78.6164 17.1359C78.6164 15.8879 78.3764 14.7719 77.8964 13.7879C77.4164 12.8039 76.7444 12.0239 75.8804 11.4479C75.0164 10.8719 74.0204 10.5839 72.8924 10.5839C71.7884 10.5839 70.8044 10.8719 69.9404 11.4479C69.1004 12.0239 68.4284 12.8039 67.9244 13.7879C67.4444 14.7719 67.2044 15.8879 67.2044 17.1359C67.2044 18.3839 67.4444 19.4999 67.9244 20.4839C68.4284 21.4679 69.1004 22.2479 69.9404 22.8239C70.8044 23.3999 71.7884 23.6879 72.8924 23.6879ZM99.3673 1.40389C99.6553 1.40389 99.9553 1.47589 100.267 1.61989C100.579 1.76389 100.819 1.96789 100.987 2.23189L110.131 16.1639L108.583 16.0919L117.907 2.23189C118.291 1.67989 118.783 1.40389 119.383 1.40389C119.863 1.40389 120.283 1.58389 120.643 1.94389C121.027 2.27989 121.219 2.71189 121.219 3.23989V24.8039C121.219 25.3319 121.051 25.7759 120.715 26.1359C120.379 26.4719 119.935 26.6399 119.383 26.6399C118.807 26.6399 118.339 26.4719 117.979 26.1359C117.643 25.7759 117.475 25.3319 117.475 24.8039V6.55189L118.627 6.80389L110.707 18.8639C110.539 19.0799 110.323 19.2719 110.059 19.4399C109.795 19.5839 109.519 19.6439 109.231 19.6199C108.967 19.6439 108.691 19.5839 108.403 19.4399C108.139 19.2719 107.923 19.0799 107.755 18.8639L100.123 6.98389L100.987 5.54389V24.8039C100.987 25.3319 100.819 25.7759 100.483 26.1359C100.171 26.4719 99.7513 26.6399 99.2233 26.6399C98.7193 26.6399 98.2993 26.4719 97.9633 26.1359C97.6513 25.7759 97.4953 25.3319 97.4953 24.8039V3.23989C97.4953 2.73589 97.6753 2.30389 98.0353 1.94389C98.4193 1.58389 98.8633 1.40389 99.3673 1.40389ZM142.217 7.41589C142.745 7.41589 143.177 7.59589 143.513 7.95589C143.849 8.29189 144.017 8.72389 144.017 9.25189V24.8039C144.017 25.3319 143.849 25.7759 143.513 26.1359C143.177 26.4719 142.745 26.6399 142.217 26.6399C141.713 26.6399 141.281 26.4719 140.921 26.1359C140.585 25.7759 140.417 25.3319 140.417 24.8039V22.2119L141.173 22.3199C141.173 22.7519 140.993 23.2319 140.633 23.7599C140.297 24.2879 139.829 24.8039 139.229 25.3079C138.629 25.7879 137.921 26.1959 137.105 26.5319C136.289 26.8439 135.413 26.9999 134.477 26.9999C132.821 26.9999 131.333 26.5799 130.013 25.7399C128.693 24.8759 127.649 23.6999 126.881 22.2119C126.113 20.7239 125.729 19.0319 125.729 17.1359C125.729 15.1919 126.113 13.4879 126.881 12.0239C127.649 10.5359 128.681 9.37189 129.977 8.53189C131.297 7.69189 132.761 7.27189 134.369 7.27189C135.401 7.27189 136.349 7.43989 137.213 7.77589C138.101 8.11189 138.869 8.54389 139.517 9.07189C140.165 9.59989 140.657 10.1639 140.993 10.7639C141.353 11.3399 141.533 11.8919 141.533 12.4199L140.417 12.5279V9.25189C140.417 8.74789 140.585 8.31589 140.921 7.95589C141.281 7.59589 141.713 7.41589 142.217 7.41589ZM134.873 23.6879C136.001 23.6879 136.997 23.3999 137.861 22.8239C138.725 22.2479 139.397 21.4679 139.877 20.4839C140.357 19.4759 140.597 18.3599 140.597 17.1359C140.597 15.8879 140.357 14.7719 139.877 13.7879C139.397 12.8039 138.725 12.0239 137.861 11.4479C136.997 10.8719 136.001 10.5839 134.873 10.5839C133.769 10.5839 132.785 10.8719 131.921 11.4479C131.081 12.0239 130.409 12.8039 129.905 13.7879C129.425 14.7719 129.185 15.8879 129.185 17.1359C129.185 18.3599 129.425 19.4759 129.905 20.4839C130.409 21.4679 131.081 22.2479 131.921 22.8239C132.785 23.3999 133.769 23.6879 134.873 23.6879ZM156.944 7.27189C157.976 7.27189 158.924 7.43989 159.788 7.77589C160.652 8.11189 161.396 8.54389 162.02 9.07189C162.668 9.57589 163.172 10.1039 163.532 10.6559C163.892 11.2079 164.072 11.6879 164.072 12.0959L163.244 12.1319V9.25189C163.244 8.74789 163.412 8.31589 163.748 7.95589C164.084 7.59589 164.516 7.41589 165.044 7.41589C165.572 7.41589 166.004 7.59589 166.34 7.95589C166.676 8.29189 166.844 8.72389 166.844 9.25189V25.1279C166.844 27.1679 166.412 28.8239 165.548 30.0959C164.684 31.3919 163.532 32.3399 162.092 32.9399C160.676 33.5399 159.116 33.8399 157.412 33.8399C156.812 33.8399 156.104 33.7559 155.288 33.5879C154.472 33.4439 153.716 33.2639 153.02 33.0479C152.348 32.8319 151.88 32.6159 151.616 32.3999C151.064 32.1119 150.692 31.7759 150.5 31.3919C150.332 31.0079 150.332 30.6239 150.5 30.2399C150.74 29.7119 151.064 29.3879 151.472 29.2679C151.88 29.1479 152.348 29.1839 152.876 29.3759C153.116 29.4479 153.488 29.5799 153.992 29.7719C154.496 29.9639 155.06 30.1319 155.684 30.2759C156.308 30.4439 156.896 30.5279 157.448 30.5279C159.368 30.5279 160.808 30.0839 161.768 29.1959C162.752 28.3079 163.244 27.0959 163.244 25.5599V22.3199L163.64 22.5719C163.568 23.0759 163.34 23.5919 162.956 24.1199C162.596 24.6239 162.116 25.0919 161.516 25.5239C160.916 25.9559 160.22 26.3159 159.428 26.6039C158.66 26.8679 157.868 26.9999 157.052 26.9999C155.348 26.9999 153.824 26.5799 152.48 25.7399C151.136 24.8759 150.068 23.7119 149.276 22.2479C148.484 20.7599 148.088 19.0559 148.088 17.1359C148.088 15.2159 148.484 13.5239 149.276 12.0599C150.068 10.5719 151.124 9.40789 152.444 8.56789C153.788 7.70389 155.288 7.27189 156.944 7.27189ZM157.484 10.5839C156.308 10.5839 155.276 10.8719 154.388 11.4479C153.5 12.0239 152.804 12.8039 152.3 13.7879C151.796 14.7719 151.544 15.8879 151.544 17.1359C151.544 18.3839 151.796 19.4999 152.3 20.4839C152.804 21.4679 153.5 22.2479 154.388 22.8239C155.276 23.3999 156.308 23.6879 157.484 23.6879C158.66 23.6879 159.692 23.4119 160.58 22.8599C161.468 22.2839 162.164 21.5039 162.668 20.5199C163.172 19.5119 163.424 18.3839 163.424 17.1359C163.424 15.8879 163.172 14.7719 162.668 13.7879C162.164 12.7799 161.468 11.9999 160.58 11.4479C159.692 10.8719 158.66 10.5839 157.484 10.5839ZM181.598 7.27189C183.302 7.27189 184.622 7.63189 185.558 8.35189C186.494 9.04789 187.142 9.99589 187.502 11.1959C187.886 12.3719 188.078 13.6919 188.078 15.1559V24.8039C188.078 25.3319 187.898 25.7759 187.538 26.1359C187.202 26.4719 186.782 26.6399 186.278 26.6399C185.75 26.6399 185.318 26.4719 184.982 26.1359C184.646 25.7759 184.478 25.3319 184.478 24.8039V15.1919C184.478 14.3279 184.358 13.5599 184.118 12.8879C183.878 12.1919 183.458 11.6399 182.858 11.2319C182.282 10.7999 181.466 10.5839 180.41 10.5839C179.426 10.5839 178.562 10.7999 177.818 11.2319C177.074 11.6399 176.486 12.1919 176.054 12.8879C175.646 13.5599 175.442 14.3279 175.442 15.1919V24.8039C175.442 25.3319 175.262 25.7759 174.902 26.1359C174.566 26.4719 174.146 26.6399 173.642 26.6399C173.114 26.6399 172.682 26.4719 172.346 26.1359C172.01 25.7759 171.842 25.3319 171.842 24.8039V9.53989C171.842 9.01189 172.01 8.57989 172.346 8.24389C172.682 7.88389 173.114 7.70389 173.642 7.70389C174.146 7.70389 174.566 7.88389 174.902 8.24389C175.262 8.57989 175.442 9.01189 175.442 9.53989V11.5559L174.794 11.9159C174.962 11.3879 175.25 10.8599 175.658 10.3319C176.09 9.77989 176.606 9.27589 177.206 8.81989C177.806 8.33989 178.478 7.96789 179.222 7.70389C179.966 7.41589 180.758 7.27189 181.598 7.27189ZM201.896 26.9999C199.904 26.9999 198.176 26.5919 196.712 25.7759C195.248 24.9359 194.108 23.7959 193.292 22.3559C192.5 20.8919 192.104 19.2239 192.104 17.3519C192.104 15.2399 192.524 13.4399 193.364 11.9519C194.228 10.4399 195.344 9.28789 196.712 8.49589C198.08 7.67989 199.532 7.27189 201.068 7.27189C202.244 7.27189 203.36 7.51189 204.416 7.99189C205.472 8.44789 206.408 9.09589 207.224 9.93589C208.064 10.7519 208.724 11.7239 209.204 12.8519C209.684 13.9559 209.936 15.1679 209.96 16.4879C209.936 16.9679 209.744 17.3639 209.384 17.6759C209.024 17.9879 208.604 18.1439 208.124 18.1439H194.12L193.256 15.0839H206.792L206.108 15.7319V14.8319C206.06 13.9919 205.784 13.2599 205.28 12.6359C204.776 11.9879 204.152 11.4959 203.408 11.1599C202.664 10.7999 201.884 10.6199 201.068 10.6199C200.348 10.6199 199.652 10.7399 198.98 10.9799C198.332 11.1959 197.744 11.5559 197.216 12.0599C196.712 12.5639 196.304 13.2359 195.992 14.0759C195.704 14.8919 195.56 15.9119 195.56 17.1359C195.56 18.4559 195.836 19.6079 196.388 20.5919C196.94 21.5759 197.684 22.3439 198.62 22.8959C199.556 23.4239 200.588 23.6879 201.716 23.6879C202.604 23.6879 203.336 23.6039 203.912 23.4359C204.488 23.2439 204.968 23.0159 205.352 22.7519C205.736 22.4879 206.072 22.2359 206.36 21.9959C206.72 21.7799 207.08 21.6719 207.44 21.6719C207.872 21.6719 208.232 21.8279 208.52 22.1399C208.808 22.4279 208.952 22.7759 208.952 23.1839C208.952 23.7119 208.688 24.1919 208.16 24.6239C207.512 25.2479 206.612 25.7999 205.46 26.2799C204.332 26.7599 203.144 26.9999 201.896 26.9999ZM213.777 7.91989H222.237C222.717 7.91989 223.113 8.08789 223.425 8.42389C223.761 8.73589 223.929 9.13189 223.929 9.61189C223.929 10.0679 223.761 10.4519 223.425 10.7639C223.113 11.0759 222.717 11.2319 222.237 11.2319H213.777C213.297 11.2319 212.889 11.0759 212.553 10.7639C212.241 10.4279 212.085 10.0319 212.085 9.57589C212.085 9.09589 212.241 8.69989 212.553 8.38789C212.889 8.07589 213.297 7.91989 213.777 7.91989ZM217.557 3.23989C218.085 3.23989 218.517 3.41989 218.853 3.77989C219.189 4.11589 219.357 4.54789 219.357 5.07589V21.7799C219.357 22.2119 219.429 22.5599 219.573 22.8239C219.717 23.0879 219.909 23.2679 220.149 23.3639C220.413 23.4599 220.677 23.5079 220.941 23.5079C221.205 23.5079 221.433 23.4599 221.625 23.3639C221.841 23.2679 222.093 23.2199 222.381 23.2199C222.669 23.2199 222.933 23.3519 223.173 23.6159C223.413 23.8799 223.533 24.2399 223.533 24.6959C223.533 25.2719 223.221 25.7399 222.597 26.0999C221.973 26.4599 221.301 26.6399 220.581 26.6399C220.173 26.6399 219.693 26.6039 219.141 26.5319C218.589 26.4599 218.049 26.2799 217.521 25.9919C217.017 25.7039 216.597 25.2479 216.261 24.6239C215.925 23.9759 215.757 23.0759 215.757 21.9239V5.07589C215.757 4.54789 215.925 4.11589 216.261 3.77989C216.621 3.41989 217.053 3.23989 217.557 3.23989ZM227.503 23.6879C227.287 23.3519 227.191 22.9679 227.215 22.5359C227.239 22.0799 227.491 21.6959 227.971 21.3839C228.307 21.1679 228.655 21.0839 229.015 21.1319C229.399 21.1559 229.759 21.3359 230.095 21.6719C230.767 22.4159 231.511 23.0039 232.327 23.4359C233.167 23.8679 234.175 24.0839 235.351 24.0839C235.831 24.0599 236.323 23.9879 236.827 23.8679C237.331 23.7239 237.763 23.4839 238.123 23.1479C238.483 22.7879 238.663 22.2719 238.663 21.5999C238.663 20.9999 238.471 20.5199 238.087 20.1599C237.703 19.7999 237.199 19.5119 236.575 19.2959C235.951 19.0559 235.279 18.8399 234.559 18.6479C233.791 18.4319 233.011 18.1919 232.219 17.9279C231.451 17.6639 230.755 17.3279 230.131 16.9199C229.507 16.4879 228.991 15.9359 228.583 15.2639C228.199 14.5919 228.007 13.7639 228.007 12.7799C228.007 11.6519 228.319 10.6799 228.943 9.86389C229.591 9.04789 230.419 8.41189 231.427 7.95589C232.459 7.49989 233.575 7.27189 234.775 7.27189C235.471 7.27189 236.203 7.36789 236.971 7.55989C237.739 7.72789 238.483 8.00389 239.203 8.38789C239.923 8.77189 240.547 9.27589 241.075 9.89989C241.315 10.2119 241.447 10.5839 241.471 11.0159C241.519 11.4479 241.327 11.8319 240.895 12.1679C240.607 12.4079 240.259 12.5159 239.851 12.4919C239.443 12.4679 239.107 12.3359 238.843 12.0959C238.387 11.5199 237.799 11.0759 237.079 10.7639C236.359 10.4279 235.543 10.2599 234.631 10.2599C234.175 10.2599 233.695 10.3319 233.191 10.4759C232.711 10.5959 232.303 10.8239 231.967 11.1599C231.631 11.4959 231.463 11.9879 231.463 12.6359C231.463 13.2359 231.655 13.7159 232.039 14.0759C232.447 14.4359 232.975 14.7359 233.623 14.9759C234.271 15.2159 234.979 15.4319 235.747 15.6239C236.491 15.8159 237.223 16.0439 237.943 16.3079C238.687 16.5719 239.347 16.9199 239.923 17.3519C240.523 17.7599 241.003 18.2999 241.363 18.9719C241.747 19.6199 241.939 20.4479 241.939 21.4559C241.939 22.6319 241.591 23.6399 240.895 24.4799C240.223 25.2959 239.359 25.9199 238.303 26.3519C237.271 26.7839 236.179 26.9999 235.027 26.9999C233.659 26.9999 232.291 26.7599 230.923 26.2799C229.579 25.7759 228.439 24.9119 227.503 23.6879ZM284.846 1.33189C285.326 1.33189 285.77 1.51189 286.178 1.87189C286.586 2.20789 286.79 2.67589 286.79 3.27589C286.79 3.44389 286.754 3.64789 286.682 3.88789L279.302 25.4879C279.182 25.8479 278.966 26.1239 278.654 26.3159C278.342 26.5079 278.018 26.6159 277.682 26.6399C277.346 26.6399 277.01 26.5439 276.674 26.3519C276.338 26.1599 276.086 25.8719 275.918 25.4879L270.23 12.1679L270.554 12.3119L264.938 25.4879C264.746 25.8719 264.482 26.1599 264.146 26.3519C263.834 26.5439 263.498 26.6399 263.138 26.6399C262.826 26.6159 262.514 26.5079 262.202 26.3159C261.89 26.1239 261.674 25.8479 261.554 25.4879L254.174 3.88789C254.102 3.64789 254.066 3.44389 254.066 3.27589C254.066 2.67589 254.282 2.20789 254.714 1.87189C255.146 1.51189 255.59 1.33189 256.046 1.33189C256.43 1.33189 256.778 1.43989 257.09 1.65589C257.426 1.84789 257.654 2.13589 257.774 2.51989L264.002 21.0959H263.354L268.826 7.70389C268.994 7.34389 269.222 7.05589 269.51 6.83989C269.822 6.62389 270.17 6.52789 270.554 6.55189C270.938 6.52789 271.274 6.62389 271.562 6.83989C271.874 7.05589 272.102 7.34389 272.246 7.70389L277.43 20.6999L276.89 20.9879L283.082 2.51989C283.202 2.13589 283.43 1.84789 283.766 1.65589C284.102 1.43989 284.462 1.33189 284.846 1.33189ZM293.456 24.8039C293.456 25.3319 293.288 25.7759 292.952 26.1359C292.616 26.4719 292.184 26.6399 291.656 26.6399C291.152 26.6399 290.72 26.4719 290.36 26.1359C290.024 25.7759 289.856 25.3319 289.856 24.8039V9.39589C289.856 8.86789 290.024 8.43589 290.36 8.09989C290.72 7.73989 291.152 7.55989 291.656 7.55989C292.184 7.55989 292.616 7.73989 292.952 8.09989C293.288 8.43589 293.456 8.86789 293.456 9.39589V24.8039ZM291.62 5.18389C290.924 5.18389 290.42 5.06389 290.108 4.82389C289.796 4.55989 289.64 4.12789 289.64 3.52789V2.95189C289.64 2.35189 289.808 1.93189 290.144 1.69189C290.48 1.45189 290.984 1.33189 291.656 1.33189C292.376 1.33189 292.892 1.46389 293.204 1.72789C293.516 1.96789 293.672 2.37589 293.672 2.95189V3.52789C293.672 4.15189 293.504 4.58389 293.168 4.82389C292.856 5.06389 292.34 5.18389 291.62 5.18389ZM298.047 7.91989H306.507C306.987 7.91989 307.383 8.08789 307.695 8.42389C308.031 8.73589 308.199 9.13189 308.199 9.61189C308.199 10.0679 308.031 10.4519 307.695 10.7639C307.383 11.0759 306.987 11.2319 306.507 11.2319H298.047C297.567 11.2319 297.159 11.0759 296.823 10.7639C296.511 10.4279 296.355 10.0319 296.355 9.57589C296.355 9.09589 296.511 8.69989 296.823 8.38789C297.159 8.07589 297.567 7.91989 298.047 7.91989ZM301.827 3.23989C302.355 3.23989 302.787 3.41989 303.123 3.77989C303.459 4.11589 303.627 4.54789 303.627 5.07589V21.7799C303.627 22.2119 303.699 22.5599 303.843 22.8239C303.987 23.0879 304.179 23.2679 304.419 23.3639C304.683 23.4599 304.947 23.5079 305.211 23.5079C305.475 23.5079 305.703 23.4599 305.895 23.3639C306.111 23.2679 306.363 23.2199 306.651 23.2199C306.939 23.2199 307.203 23.3519 307.443 23.6159C307.683 23.8799 307.803 24.2399 307.803 24.6959C307.803 25.2719 307.491 25.7399 306.867 26.0999C306.243 26.4599 305.571 26.6399 304.851 26.6399C304.443 26.6399 303.963 26.6039 303.411 26.5319C302.859 26.4599 302.319 26.2799 301.791 25.9919C301.287 25.7039 300.867 25.2479 300.531 24.6239C300.195 23.9759 300.027 23.0759 300.027 21.9239V5.07589C300.027 4.54789 300.195 4.11589 300.531 3.77989C300.891 3.41989 301.323 3.23989 301.827 3.23989ZM321.725 7.37989C323.381 7.37989 324.665 7.73989 325.577 8.45989C326.489 9.15589 327.125 10.1039 327.485 11.3039C327.869 12.5039 328.061 13.8239 328.061 15.2639V24.8039C328.061 25.3319 327.881 25.7759 327.521 26.1359C327.185 26.4719 326.765 26.6399 326.261 26.6399C325.733 26.6399 325.301 26.4719 324.965 26.1359C324.629 25.7759 324.461 25.3319 324.461 24.8039V15.2639C324.461 14.4239 324.341 13.6559 324.101 12.9599C323.885 12.2639 323.489 11.7119 322.913 11.3039C322.361 10.8959 321.581 10.6919 320.573 10.6919C319.637 10.6919 318.797 10.8959 318.053 11.3039C317.333 11.7119 316.769 12.2639 316.361 12.9599C315.977 13.6559 315.785 14.4239 315.785 15.2639V24.8039C315.785 25.3319 315.605 25.7759 315.245 26.1359C314.909 26.4719 314.489 26.6399 313.985 26.6399C313.457 26.6399 313.025 26.4719 312.689 26.1359C312.353 25.7759 312.185 25.3319 312.185 24.8039V1.83589C312.185 1.30789 312.353 0.875892 312.689 0.539892C313.025 0.179892 313.457 -0.000107765 313.985 -0.000107765C314.489 -0.000107765 314.909 0.179892 315.245 0.539892C315.605 0.875892 315.785 1.30789 315.785 1.83589V11.6639L315.137 12.0239C315.305 11.4959 315.581 10.9559 315.965 10.4039C316.373 9.85189 316.865 9.34789 317.441 8.89189C318.041 8.43589 318.701 8.07589 319.421 7.81189C320.141 7.52389 320.909 7.37989 321.725 7.37989ZM354.536 1.43989C356.744 1.43989 358.412 1.97989 359.54 3.05989C360.692 4.13989 361.268 5.71189 361.268 7.77589C361.268 8.85589 361.004 9.83989 360.476 10.7279C359.972 11.5919 359.216 12.2759 358.208 12.7799C357.224 13.2839 355.988 13.5479 354.5 13.5719L354.572 12.2399C355.364 12.2399 356.216 12.3479 357.128 12.5639C358.064 12.7799 358.94 13.1519 359.756 13.6799C360.572 14.2079 361.244 14.9279 361.772 15.8399C362.3 16.7279 362.564 17.8439 362.564 19.1879C362.564 20.6519 362.324 21.8759 361.844 22.8599C361.364 23.8199 360.728 24.5759 359.936 25.1279C359.144 25.6799 358.268 26.0759 357.308 26.3159C356.372 26.5319 355.448 26.6399 354.536 26.6399H345.32C344.816 26.6399 344.384 26.4719 344.024 26.1359C343.664 25.7759 343.484 25.3319 343.484 24.8039V3.27589C343.484 2.74789 343.664 2.31589 344.024 1.97989C344.384 1.61989 344.816 1.43989 345.32 1.43989H354.536ZM354.032 4.96789H346.94L347.372 4.39189V12.1319L346.976 11.7359H354.104C354.968 11.7119 355.724 11.4239 356.372 10.8719C357.044 10.2959 357.38 9.45589 357.38 8.35189C357.38 7.22389 357.08 6.38389 356.48 5.83189C355.88 5.25589 355.064 4.96789 354.032 4.96789ZM354.284 15.2639H347.12L347.372 15.0119V23.5079L347.084 23.1839H354.5C355.748 23.1839 356.756 22.8599 357.524 22.2119C358.292 21.5399 358.676 20.5319 358.676 19.1879C358.676 18.0599 358.448 17.2199 357.992 16.6679C357.536 16.1159 356.972 15.7439 356.3 15.5519C355.628 15.3599 354.956 15.2639 354.284 15.2639ZM380.754 7.70389C381.258 7.70389 381.678 7.88389 382.014 8.24389C382.374 8.57989 382.554 9.01189 382.554 9.53989V19.0079C382.554 21.5039 381.858 23.4599 380.466 24.8759C379.074 26.2679 377.106 26.9639 374.562 26.9639C372.042 26.9639 370.086 26.2679 368.694 24.8759C367.326 23.4599 366.642 21.5039 366.642 19.0079V9.53989C366.642 9.01189 366.81 8.57989 367.146 8.24389C367.482 7.88389 367.914 7.70389 368.442 7.70389C368.946 7.70389 369.366 7.88389 369.702 8.24389C370.062 8.57989 370.242 9.01189 370.242 9.53989V19.0079C370.242 20.5679 370.602 21.7319 371.322 22.4999C372.066 23.2679 373.146 23.6519 374.562 23.6519C376.002 23.6519 377.094 23.2679 377.838 22.4999C378.582 21.7319 378.954 20.5679 378.954 19.0079V9.53989C378.954 9.01189 379.122 8.57989 379.458 8.24389C379.794 7.88389 380.226 7.70389 380.754 7.70389ZM390.944 24.8039C390.944 25.3319 390.776 25.7759 390.44 26.1359C390.104 26.4719 389.672 26.6399 389.144 26.6399C388.64 26.6399 388.208 26.4719 387.848 26.1359C387.512 25.7759 387.344 25.3319 387.344 24.8039V9.39589C387.344 8.86789 387.512 8.43589 387.848 8.09989C388.208 7.73989 388.64 7.55989 389.144 7.55989C389.672 7.55989 390.104 7.73989 390.44 8.09989C390.776 8.43589 390.944 8.86789 390.944 9.39589V24.8039ZM389.108 5.18389C388.412 5.18389 387.908 5.06389 387.596 4.82389C387.284 4.55989 387.128 4.12789 387.128 3.52789V2.95189C387.128 2.35189 387.296 1.93189 387.632 1.69189C387.968 1.45189 388.472 1.33189 389.144 1.33189C389.864 1.33189 390.38 1.46389 390.692 1.72789C391.004 1.96789 391.16 2.37589 391.16 2.95189V3.52789C391.16 4.15189 390.992 4.58389 390.656 4.82389C390.344 5.06389 389.828 5.18389 389.108 5.18389ZM399.675 24.8039C399.675 25.3319 399.495 25.7759 399.135 26.1359C398.799 26.4719 398.379 26.6399 397.875 26.6399C397.371 26.6399 396.939 26.4719 396.579 26.1359C396.243 25.7759 396.075 25.3319 396.075 24.8039V1.83589C396.075 1.30789 396.255 0.875892 396.615 0.539892C396.975 0.179892 397.407 -0.000107765 397.911 -0.000107765C398.439 -0.000107765 398.859 0.179892 399.171 0.539892C399.507 0.875892 399.675 1.30789 399.675 1.83589V24.8039ZM404.675 7.91989H413.135C413.615 7.91989 414.011 8.08789 414.323 8.42389C414.659 8.73589 414.827 9.13189 414.827 9.61189C414.827 10.0679 414.659 10.4519 414.323 10.7639C414.011 11.0759 413.615 11.2319 413.135 11.2319H404.675C404.195 11.2319 403.787 11.0759 403.451 10.7639C403.139 10.4279 402.983 10.0319 402.983 9.57589C402.983 9.09589 403.139 8.69989 403.451 8.38789C403.787 8.07589 404.195 7.91989 404.675 7.91989ZM408.455 3.23989C408.983 3.23989 409.415 3.41989 409.751 3.77989C410.087 4.11589 410.255 4.54789 410.255 5.07589V21.7799C410.255 22.2119 410.327 22.5599 410.471 22.8239C410.615 23.0879 410.807 23.2679 411.047 23.3639C411.311 23.4599 411.575 23.5079 411.839 23.5079C412.103 23.5079 412.331 23.4599 412.523 23.3639C412.739 23.2679 412.991 23.2199 413.279 23.2199C413.567 23.2199 413.831 23.3519 414.071 23.6159C414.311 23.8799 414.431 24.2399 414.431 24.6959C414.431 25.2719 414.119 25.7399 413.495 26.0999C412.871 26.4599 412.199 26.6399 411.479 26.6399C411.071 26.6399 410.591 26.6039 410.039 26.5319C409.487 26.4599 408.947 26.2799 408.419 25.9919C407.915 25.7039 407.495 25.2479 407.159 24.6239C406.823 23.9759 406.655 23.0759 406.655 21.9239V5.07589C406.655 4.54789 406.823 4.11589 407.159 3.77989C407.519 3.41989 407.951 3.23989 408.455 3.23989ZM420.002 17.3159C419.498 17.3159 419.066 17.1479 418.706 16.8119C418.37 16.4519 418.202 16.0199 418.202 15.5159C418.202 14.9879 418.37 14.5679 418.706 14.2559C419.066 13.9199 419.498 13.7519 420.002 13.7519H426.77C427.274 13.7519 427.706 13.9319 428.066 14.2919C428.426 14.6279 428.606 15.0599 428.606 15.5879C428.606 16.0679 428.426 16.4759 428.066 16.8119C427.706 17.1479 427.274 17.3159 426.77 17.3159H420.002ZM437.158 24.8039C437.134 25.3319 436.93 25.7759 436.546 26.1359C436.186 26.4719 435.754 26.6399 435.25 26.6399C434.698 26.6399 434.242 26.4719 433.882 26.1359C433.546 25.7759 433.378 25.3319 433.378 24.8039V3.27589C433.378 2.74789 433.558 2.31589 433.918 1.97989C434.278 1.61989 434.746 1.43989 435.322 1.43989C435.802 1.43989 436.222 1.61989 436.582 1.97989C436.966 2.31589 437.158 2.74789 437.158 3.27589V24.8039ZM452.336 7.27189C454.04 7.27189 455.36 7.63189 456.296 8.35189C457.232 9.04789 457.88 9.99589 458.24 11.1959C458.624 12.3719 458.816 13.6919 458.816 15.1559V24.8039C458.816 25.3319 458.636 25.7759 458.276 26.1359C457.94 26.4719 457.52 26.6399 457.016 26.6399C456.488 26.6399 456.056 26.4719 455.72 26.1359C455.384 25.7759 455.216 25.3319 455.216 24.8039V15.1919C455.216 14.3279 455.096 13.5599 454.856 12.8879C454.616 12.1919 454.196 11.6399 453.596 11.2319C453.02 10.7999 452.204 10.5839 451.148 10.5839C450.164 10.5839 449.3 10.7999 448.556 11.2319C447.812 11.6399 447.224 12.1919 446.792 12.8879C446.384 13.5599 446.18 14.3279 446.18 15.1919V24.8039C446.18 25.3319 446 25.7759 445.64 26.1359C445.304 26.4719 444.884 26.6399 444.38 26.6399C443.852 26.6399 443.42 26.4719 443.084 26.1359C442.748 25.7759 442.58 25.3319 442.58 24.8039V9.53989C442.58 9.01189 442.748 8.57989 443.084 8.24389C443.42 7.88389 443.852 7.70389 444.38 7.70389C444.884 7.70389 445.304 7.88389 445.64 8.24389C446 8.57989 446.18 9.01189 446.18 9.53989V11.5559L445.532 11.9159C445.7 11.3879 445.988 10.8599 446.396 10.3319C446.828 9.77989 447.344 9.27589 447.944 8.81989C448.544 8.33989 449.216 7.96789 449.96 7.70389C450.704 7.41589 451.496 7.27189 452.336 7.27189ZM481.97 26.9999C480.242 26.9999 478.706 26.7599 477.362 26.2799C476.018 25.7999 474.734 25.0079 473.51 23.9039C473.246 23.7119 473.042 23.4839 472.898 23.2199C472.778 22.9319 472.718 22.6439 472.718 22.3559C472.718 21.8999 472.886 21.4919 473.222 21.1319C473.558 20.7719 473.978 20.5919 474.482 20.5919C474.866 20.5919 475.226 20.7239 475.562 20.9879C476.474 21.8279 477.422 22.4639 478.406 22.8959C479.414 23.3279 480.59 23.5439 481.934 23.5439C482.894 23.5439 483.77 23.3879 484.562 23.0759C485.378 22.7639 486.026 22.3439 486.506 21.8159C486.986 21.2879 487.226 20.6759 487.226 19.9799C487.226 19.1159 486.974 18.4079 486.47 17.8559C485.99 17.2799 485.282 16.8119 484.346 16.4519C483.434 16.0679 482.33 15.7439 481.034 15.4799C479.834 15.2639 478.754 14.9639 477.794 14.5799C476.858 14.1959 476.054 13.7159 475.382 13.1399C474.71 12.5399 474.194 11.8319 473.834 11.0159C473.474 10.1999 473.294 9.25189 473.294 8.17189C473.294 6.70789 473.678 5.44789 474.446 4.39189C475.214 3.33589 476.258 2.51989 477.578 1.94389C478.898 1.36789 480.386 1.07989 482.042 1.07989C483.554 1.07989 484.97 1.31989 486.29 1.79989C487.61 2.25589 488.678 2.87989 489.494 3.67189C490.07 4.17589 490.358 4.71589 490.358 5.29189C490.358 5.72389 490.178 6.13189 489.818 6.51589C489.482 6.87589 489.086 7.05589 488.63 7.05589C488.294 7.05589 488.006 6.95989 487.766 6.76789C487.382 6.35989 486.866 5.99989 486.218 5.68789C485.57 5.35189 484.874 5.07589 484.13 4.85989C483.41 4.64389 482.714 4.53589 482.042 4.53589C480.962 4.53589 480.038 4.69189 479.27 5.00389C478.502 5.29189 477.914 5.69989 477.506 6.22789C477.098 6.73189 476.894 7.33189 476.894 8.02789C476.894 8.84389 477.122 9.51589 477.578 10.0439C478.058 10.5719 478.718 11.0039 479.558 11.3399C480.398 11.6519 481.358 11.9399 482.438 12.2039C483.758 12.4919 484.934 12.8159 485.966 13.1759C487.022 13.5359 487.91 14.0039 488.63 14.5799C489.35 15.1319 489.902 15.8279 490.286 16.6679C490.67 17.5079 490.862 18.5519 490.862 19.7999C490.862 21.2399 490.454 22.4999 489.638 23.5799C488.822 24.6599 487.742 25.4999 486.398 26.0999C485.078 26.6999 483.602 26.9999 481.97 26.9999ZM510.408 7.41589C510.936 7.41589 511.368 7.59589 511.704 7.95589C512.04 8.29189 512.208 8.72389 512.208 9.25189V24.8039C512.208 25.3319 512.04 25.7759 511.704 26.1359C511.368 26.4719 510.936 26.6399 510.408 26.6399C509.904 26.6399 509.472 26.4719 509.112 26.1359C508.776 25.7759 508.608 25.3319 508.608 24.8039V22.2119L509.364 22.3199C509.364 22.7519 509.184 23.2319 508.824 23.7599C508.488 24.2879 508.02 24.8039 507.42 25.3079C506.82 25.7879 506.112 26.1959 505.296 26.5319C504.48 26.8439 503.604 26.9999 502.668 26.9999C501.012 26.9999 499.524 26.5799 498.204 25.7399C496.884 24.8759 495.84 23.6999 495.072 22.2119C494.304 20.7239 493.92 19.0319 493.92 17.1359C493.92 15.1919 494.304 13.4879 495.072 12.0239C495.84 10.5359 496.872 9.37189 498.168 8.53189C499.488 7.69189 500.952 7.27189 502.56 7.27189C503.592 7.27189 504.54 7.43989 505.404 7.77589C506.292 8.11189 507.06 8.54389 507.708 9.07189C508.356 9.59989 508.848 10.1639 509.184 10.7639C509.544 11.3399 509.724 11.8919 509.724 12.4199L508.608 12.5279V9.25189C508.608 8.74789 508.776 8.31589 509.112 7.95589C509.472 7.59589 509.904 7.41589 510.408 7.41589ZM503.064 23.6879C504.192 23.6879 505.188 23.3999 506.052 22.8239C506.916 22.2479 507.588 21.4679 508.068 20.4839C508.548 19.4759 508.788 18.3599 508.788 17.1359C508.788 15.8879 508.548 14.7719 508.068 13.7879C507.588 12.8039 506.916 12.0239 506.052 11.4479C505.188 10.8719 504.192 10.5839 503.064 10.5839C501.96 10.5839 500.976 10.8719 500.112 11.4479C499.272 12.0239 498.6 12.8039 498.096 13.7879C497.616 14.7719 497.376 15.8879 497.376 17.1359C497.376 18.3599 497.616 19.4759 498.096 20.4839C498.6 21.4679 499.272 22.2479 500.112 22.8239C500.976 23.3999 501.96 23.6879 503.064 23.6879ZM521.14 24.8039C521.14 25.3319 520.96 25.7759 520.6 26.1359C520.264 26.4719 519.844 26.6399 519.34 26.6399C518.836 26.6399 518.404 26.4719 518.044 26.1359C517.708 25.7759 517.54 25.3319 517.54 24.8039V1.83589C517.54 1.30789 517.72 0.875892 518.08 0.539892C518.44 0.179892 518.872 -0.000107765 519.376 -0.000107765C519.904 -0.000107765 520.324 0.179892 520.636 0.539892C520.972 0.875892 521.14 1.30789 521.14 1.83589V24.8039ZM534.966 26.9999C532.974 26.9999 531.246 26.5919 529.782 25.7759C528.318 24.9359 527.178 23.7959 526.362 22.3559C525.57 20.8919 525.174 19.2239 525.174 17.3519C525.174 15.2399 525.594 13.4399 526.434 11.9519C527.298 10.4399 528.414 9.28789 529.782 8.49589C531.15 7.67989 532.602 7.27189 534.138 7.27189C535.314 7.27189 536.43 7.51189 537.486 7.99189C538.542 8.44789 539.478 9.09589 540.294 9.93589C541.134 10.7519 541.794 11.7239 542.274 12.8519C542.754 13.9559 543.006 15.1679 543.03 16.4879C543.006 16.9679 542.814 17.3639 542.454 17.6759C542.094 17.9879 541.674 18.1439 541.194 18.1439H527.19L526.326 15.0839H539.862L539.178 15.7319V14.8319C539.13 13.9919 538.854 13.2599 538.35 12.6359C537.846 11.9879 537.222 11.4959 536.478 11.1599C535.734 10.7999 534.954 10.6199 534.138 10.6199C533.418 10.6199 532.722 10.7399 532.05 10.9799C531.402 11.1959 530.814 11.5559 530.286 12.0599C529.782 12.5639 529.374 13.2359 529.062 14.0759C528.774 14.8919 528.63 15.9119 528.63 17.1359C528.63 18.4559 528.906 19.6079 529.458 20.5919C530.01 21.5759 530.754 22.3439 531.69 22.8959C532.626 23.4239 533.658 23.6879 534.786 23.6879C535.674 23.6879 536.406 23.6039 536.982 23.4359C537.558 23.2439 538.038 23.0159 538.422 22.7519C538.806 22.4879 539.142 22.2359 539.43 21.9959C539.79 21.7799 540.15 21.6719 540.51 21.6719C540.942 21.6719 541.302 21.8279 541.59 22.1399C541.878 22.4279 542.022 22.7759 542.022 23.1839C542.022 23.7119 541.758 24.1919 541.23 24.6239C540.582 25.2479 539.682 25.7999 538.53 26.2799C537.402 26.7599 536.214 26.9999 534.966 26.9999ZM545.983 23.6879C545.767 23.3519 545.671 22.9679 545.695 22.5359C545.719 22.0799 545.971 21.6959 546.451 21.3839C546.787 21.1679 547.135 21.0839 547.495 21.1319C547.879 21.1559 548.239 21.3359 548.575 21.6719C549.247 22.4159 549.991 23.0039 550.807 23.4359C551.647 23.8679 552.655 24.0839 553.831 24.0839C554.311 24.0599 554.803 23.9879 555.307 23.8679C555.811 23.7239 556.243 23.4839 556.603 23.1479C556.963 22.7879 557.143 22.2719 557.143 21.5999C557.143 20.9999 556.951 20.5199 556.567 20.1599C556.183 19.7999 555.679 19.5119 555.055 19.2959C554.431 19.0559 553.759 18.8399 553.039 18.6479C552.271 18.4319 551.491 18.1919 550.699 17.9279C549.931 17.6639 549.235 17.3279 548.611 16.9199C547.987 16.4879 547.471 15.9359 547.063 15.2639C546.679 14.5919 546.487 13.7639 546.487 12.7799C546.487 11.6519 546.799 10.6799 547.423 9.86389C548.071 9.04789 548.899 8.41189 549.907 7.95589C550.939 7.49989 552.055 7.27189 553.255 7.27189C553.951 7.27189 554.683 7.36789 555.451 7.55989C556.219 7.72789 556.963 8.00389 557.683 8.38789C558.403 8.77189 559.027 9.27589 559.555 9.89989C559.795 10.2119 559.927 10.5839 559.951 11.0159C559.999 11.4479 559.807 11.8319 559.375 12.1679C559.087 12.4079 558.739 12.5159 558.331 12.4919C557.923 12.4679 557.587 12.3359 557.323 12.0959C556.867 11.5199 556.279 11.0759 555.559 10.7639C554.839 10.4279 554.023 10.2599 553.111 10.2599C552.655 10.2599 552.175 10.3319 551.671 10.4759C551.191 10.5959 550.783 10.8239 550.447 11.1599C550.111 11.4959 549.943 11.9879 549.943 12.6359C549.943 13.2359 550.135 13.7159 550.519 14.0759C550.927 14.4359 551.455 14.7359 552.103 14.9759C552.751 15.2159 553.459 15.4319 554.227 15.6239C554.971 15.8159 555.703 16.0439 556.423 16.3079C557.167 16.5719 557.827 16.9199 558.403 17.3519C559.003 17.7599 559.483 18.2999 559.843 18.9719C560.227 19.6199 560.419 20.4479 560.419 21.4559C560.419 22.6319 560.071 23.6399 559.375 24.4799C558.703 25.2959 557.839 25.9199 556.783 26.3519C555.751 26.7839 554.659 26.9999 553.507 26.9999C552.139 26.9999 550.771 26.7599 549.403 26.2799C548.059 25.7759 546.919 24.9119 545.983 23.6879ZM10.008 72.6399C9.432 72.6399 8.964 72.4719 8.604 72.1359C8.268 71.7759 8.1 71.3319 8.1 70.8039V49.2399H11.952V70.8039C11.952 71.3319 11.76 71.7759 11.376 72.1359C11.016 72.4719 10.56 72.6399 10.008 72.6399ZM1.836 50.8959C1.332 50.8959 0.900003 50.7399 0.540003 50.4279C0.180003 50.0919 2.73436e-06 49.6599 2.73436e-06 49.1319C2.73436e-06 48.6279 0.180003 48.2199 0.540003 47.9079C0.900003 47.5959 1.332 47.4399 1.836 47.4399H18.216C18.72 47.4399 19.14 47.6079 19.476 47.9439C19.836 48.2559 20.016 48.6639 20.016 49.1679C20.016 49.6959 19.836 50.1159 19.476 50.4279C19.14 50.7399 18.72 50.8959 18.216 50.8959H1.836ZM28.1888 72.9999C26.1968 72.9999 24.4688 72.5919 23.0048 71.7759C21.5408 70.9359 20.4008 69.7959 19.5848 68.3559C18.7928 66.8919 18.3968 65.2239 18.3968 63.3519C18.3968 61.2399 18.8168 59.4399 19.6568 57.9519C20.5208 56.4399 21.6368 55.2879 23.0048 54.4959C24.3728 53.6799 25.8248 53.2719 27.3608 53.2719C28.5368 53.2719 29.6528 53.5119 30.7088 53.9919C31.7648 54.4479 32.7008 55.0959 33.5168 55.9359C34.3568 56.7519 35.0168 57.7239 35.4968 58.8519C35.9768 59.9559 36.2288 61.1679 36.2528 62.4879C36.2288 62.9679 36.0368 63.3639 35.6768 63.6759C35.3168 63.9879 34.8968 64.1439 34.4168 64.1439H20.4128L19.5488 61.0839H33.0848L32.4008 61.7319V60.8319C32.3528 59.9919 32.0768 59.2599 31.5728 58.6359C31.0688 57.9879 30.4448 57.4959 29.7008 57.1599C28.9568 56.7999 28.1768 56.6199 27.3608 56.6199C26.6408 56.6199 25.9448 56.7399 25.2728 56.9799C24.6248 57.1959 24.0368 57.5559 23.5088 58.0599C23.0048 58.5639 22.5968 59.2359 22.2848 60.0759C21.9968 60.8919 21.8528 61.9119 21.8528 63.1359C21.8528 64.4559 22.1288 65.6079 22.6808 66.5919C23.2328 67.5759 23.9768 68.3439 24.9128 68.8959C25.8488 69.4239 26.8808 69.6879 28.0088 69.6879C28.8968 69.6879 29.6288 69.6039 30.2048 69.4359C30.7808 69.2439 31.2608 69.0159 31.6448 68.7519C32.0288 68.4879 32.3648 68.2359 32.6528 67.9959C33.0128 67.7799 33.3728 67.6719 33.7328 67.6719C34.1648 67.6719 34.5248 67.8279 34.8128 68.1399C35.1008 68.4279 35.2448 68.7759 35.2448 69.1839C35.2448 69.7119 34.9808 70.1919 34.4528 70.6239C33.8048 71.2479 32.9048 71.7999 31.7528 72.2799C30.6248 72.7599 29.4368 72.9999 28.1888 72.9999ZM55.9786 53.4159C56.5066 53.4159 56.9386 53.5959 57.2746 53.9559C57.6106 54.2919 57.7786 54.7239 57.7786 55.2519V70.8039C57.7786 71.3319 57.6106 71.7759 57.2746 72.1359C56.9386 72.4719 56.5066 72.6399 55.9786 72.6399C55.4746 72.6399 55.0426 72.4719 54.6826 72.1359C54.3466 71.7759 54.1786 71.3319 54.1786 70.8039V68.2119L54.9346 68.3199C54.9346 68.7519 54.7546 69.2319 54.3946 69.7599C54.0586 70.2879 53.5906 70.8039 52.9906 71.3079C52.3906 71.7879 51.6826 72.1959 50.8666 72.5319C50.0506 72.8439 49.1746 72.9999 48.2386 72.9999C46.5826 72.9999 45.0946 72.5799 43.7746 71.7399C42.4546 70.8759 41.4106 69.6999 40.6426 68.2119C39.8746 66.7239 39.4906 65.0319 39.4906 63.1359C39.4906 61.1919 39.8746 59.4879 40.6426 58.0239C41.4106 56.5359 42.4426 55.3719 43.7386 54.5319C45.0586 53.6919 46.5226 53.2719 48.1306 53.2719C49.1626 53.2719 50.1106 53.4399 50.9746 53.7759C51.8626 54.1119 52.6306 54.5439 53.2786 55.0719C53.9266 55.5999 54.4186 56.1639 54.7546 56.7639C55.1146 57.3399 55.2946 57.8919 55.2946 58.4199L54.1786 58.5279V55.2519C54.1786 54.7479 54.3466 54.3159 54.6826 53.9559C55.0426 53.5959 55.4746 53.4159 55.9786 53.4159ZM48.6346 69.6879C49.7626 69.6879 50.7586 69.3999 51.6226 68.8239C52.4866 68.2479 53.1586 67.4679 53.6386 66.4839C54.1186 65.4759 54.3586 64.3599 54.3586 63.1359C54.3586 61.8879 54.1186 60.7719 53.6386 59.7879C53.1586 58.8039 52.4866 58.0239 51.6226 57.4479C50.7586 56.8719 49.7626 56.5839 48.6346 56.5839C47.5306 56.5839 46.5466 56.8719 45.6826 57.4479C44.8426 58.0239 44.1706 58.8039 43.6666 59.7879C43.1866 60.7719 42.9466 61.8879 42.9466 63.1359C42.9466 64.3599 43.1866 65.4759 43.6666 66.4839C44.1706 67.4679 44.8426 68.2479 45.6826 68.8239C46.5466 69.3999 47.5306 69.6879 48.6346 69.6879ZM72.326 53.3799C74.102 53.3799 75.47 53.8239 76.43 54.7119C77.39 55.5759 78.026 56.7519 78.338 58.2399L77.762 58.0599L78.014 57.4839C78.326 56.8599 78.794 56.2359 79.418 55.6119C80.066 54.9639 80.834 54.4359 81.722 54.0279C82.61 53.5959 83.558 53.3799 84.566 53.3799C86.222 53.3799 87.506 53.7399 88.418 54.4599C89.33 55.1559 89.966 56.1039 90.326 57.3039C90.686 58.4799 90.866 59.7999 90.866 61.2639V70.8039C90.866 71.3319 90.698 71.7759 90.362 72.1359C90.026 72.4719 89.594 72.6399 89.066 72.6399C88.562 72.6399 88.13 72.4719 87.77 72.1359C87.434 71.7759 87.266 71.3319 87.266 70.8039V61.2999C87.266 60.4599 87.146 59.6919 86.906 58.9959C86.69 58.2999 86.294 57.7479 85.718 57.3399C85.166 56.9079 84.398 56.6919 83.414 56.6919C82.478 56.6919 81.638 56.9079 80.894 57.3399C80.174 57.7479 79.61 58.2999 79.202 58.9959C78.794 59.6919 78.59 60.4599 78.59 61.2999V70.8039C78.59 71.3319 78.422 71.7759 78.086 72.1359C77.75 72.4719 77.318 72.6399 76.79 72.6399C76.262 72.6399 75.83 72.4719 75.494 72.1359C75.158 71.7759 74.99 71.3319 74.99 70.8039V61.2639C74.99 60.4239 74.87 59.6559 74.63 58.9599C74.414 58.2639 74.03 57.7119 73.478 57.3039C72.926 56.8959 72.158 56.6919 71.174 56.6919C70.238 56.6919 69.41 56.8959 68.69 57.3039C67.97 57.7119 67.406 58.2639 66.998 58.9599C66.614 59.6559 66.422 60.4239 66.422 61.2639V70.8039C66.422 71.3319 66.242 71.7759 65.882 72.1359C65.546 72.4719 65.126 72.6399 64.622 72.6399C64.094 72.6399 63.662 72.4719 63.326 72.1359C62.99 71.7759 62.822 71.3319 62.822 70.8039V55.5399C62.822 55.0119 62.99 54.5799 63.326 54.2439C63.662 53.8839 64.094 53.7039 64.622 53.7039C65.126 53.7039 65.546 53.8839 65.882 54.2439C66.242 54.5799 66.422 55.0119 66.422 55.5399V57.6639L65.738 58.0599C65.906 57.5319 66.182 56.9919 66.566 56.4399C66.95 55.8879 67.43 55.3839 68.006 54.9279C68.606 54.4719 69.266 54.0999 69.986 53.8119C70.706 53.5239 71.486 53.3799 72.326 53.3799ZM94.788 69.6879C94.572 69.3519 94.476 68.9679 94.5 68.5359C94.524 68.0799 94.776 67.6959 95.256 67.3839C95.592 67.1679 95.94 67.0839 96.3 67.1319C96.684 67.1559 97.044 67.3359 97.38 67.6719C98.052 68.4159 98.796 69.0039 99.612 69.4359C100.452 69.8679 101.46 70.0839 102.636 70.0839C103.116 70.0599 103.608 69.9879 104.112 69.8679C104.616 69.7239 105.048 69.4839 105.408 69.1479C105.768 68.7879 105.948 68.2719 105.948 67.5999C105.948 66.9999 105.756 66.5199 105.372 66.1599C104.988 65.7999 104.484 65.5119 103.86 65.2959C103.236 65.0559 102.564 64.8399 101.844 64.6479C101.076 64.4319 100.296 64.1919 99.504 63.9279C98.736 63.6639 98.04 63.3279 97.416 62.9199C96.792 62.4879 96.276 61.9359 95.868 61.2639C95.484 60.5919 95.292 59.7639 95.292 58.7799C95.292 57.6519 95.604 56.6799 96.228 55.8639C96.876 55.0479 97.704 54.4119 98.712 53.9559C99.744 53.4999 100.86 53.2719 102.06 53.2719C102.756 53.2719 103.488 53.3679 104.256 53.5599C105.024 53.7279 105.768 54.0039 106.488 54.3879C107.208 54.7719 107.832 55.2759 108.36 55.8999C108.6 56.2119 108.732 56.5839 108.756 57.0159C108.804 57.4479 108.612 57.8319 108.18 58.1679C107.892 58.4079 107.544 58.5159 107.136 58.4919C106.728 58.4679 106.392 58.3359 106.128 58.0959C105.672 57.5199 105.084 57.0759 104.364 56.7639C103.644 56.4279 102.828 56.2599 101.916 56.2599C101.46 56.2599 100.98 56.3319 100.476 56.4759C99.996 56.5959 99.588 56.8239 99.252 57.1599C98.916 57.4959 98.748 57.9879 98.748 58.6359C98.748 59.2359 98.94 59.7159 99.324 60.0759C99.732 60.4359 100.26 60.7359 100.908 60.9759C101.556 61.2159 102.264 61.4319 103.032 61.6239C103.776 61.8159 104.508 62.0439 105.228 62.3079C105.972 62.5719 106.632 62.9199 107.208 63.3519C107.808 63.7599 108.288 64.2999 108.648 64.9719C109.032 65.6199 109.224 66.4479 109.224 67.4559C109.224 68.6319 108.876 69.6399 108.18 70.4799C107.508 71.2959 106.644 71.9199 105.588 72.3519C104.556 72.7839 103.464 72.9999 102.312 72.9999C100.944 72.9999 99.576 72.7599 98.208 72.2799C96.864 71.7759 95.724 70.9119 94.788 69.6879Z" fill="black"/>
</svg>
