<svg width="470" height="80" viewBox="0 0 470 80" fill="none" xmlns="http://www.w3.org/2000/svg">
<path d="M5.55248 24.8418C5.52845 25.3706 5.32414 25.8152 4.93955 26.1758C4.579 26.5123 4.14634 26.6806 3.64157 26.6806C3.08873 26.6806 2.63203 26.5123 2.27148 26.1758C1.93497 25.8152 1.76672 25.3706 1.76672 24.8418V3.28089C1.76672 2.75209 1.94699 2.31943 2.30754 1.98291C2.66809 1.62236 3.1368 1.44209 3.71368 1.44209C4.19442 1.44209 4.61506 1.62236 4.97561 1.98291C5.36019 2.31943 5.55248 2.75209 5.55248 3.28089V24.8418ZM20.7533 7.28299C22.4599 7.28299 23.7819 7.64354 24.7194 8.36464C25.6568 9.0617 26.3058 10.0111 26.6663 11.213C27.0509 12.3908 27.2432 13.7128 27.2432 15.179V24.8418C27.2432 25.3706 27.0629 25.8152 26.7024 26.1758C26.3659 26.5123 25.9452 26.6806 25.4405 26.6806C24.9116 26.6806 24.479 26.5123 24.1425 26.1758C23.806 25.8152 23.6377 25.3706 23.6377 24.8418V15.2151C23.6377 14.3498 23.5175 13.5806 23.2772 12.9076C23.0368 12.2105 22.6161 11.6577 22.0152 11.249C21.4384 10.8164 20.6211 10.6 19.5635 10.6C18.578 10.6 17.7127 10.8164 16.9675 11.249C16.2224 11.6577 15.6335 12.2105 15.2008 12.9076C14.7922 13.5806 14.5879 14.3498 14.5879 15.2151V24.8418C14.5879 25.3706 14.4076 25.8152 14.0471 26.1758C13.7106 26.5123 13.2899 26.6806 12.7852 26.6806C12.2564 26.6806 11.8237 26.5123 11.4872 26.1758C11.1507 25.8152 10.9824 25.3706 10.9824 24.8418V9.55445C10.9824 9.02565 11.1507 8.59299 11.4872 8.25647C11.8237 7.89593 12.2564 7.71565 12.7852 7.71565C13.2899 7.71565 13.7106 7.89593 14.0471 8.25647C14.4076 8.59299 14.5879 9.02565 14.5879 9.55445V11.5735L13.9389 11.9341C14.1072 11.4053 14.3956 10.8765 14.8042 10.3477C15.2369 9.79482 15.7537 9.29005 16.3546 8.83335C16.9555 8.35262 17.6285 7.98005 18.3737 7.71565C19.1188 7.42721 19.912 7.28299 20.7533 7.28299ZM42.0201 7.28299C43.7267 7.28299 45.0487 7.64354 45.9861 8.36464C46.9236 9.0617 47.5726 10.0111 47.9331 11.213C48.3177 12.3908 48.51 13.7128 48.51 15.179V24.8418C48.51 25.3706 48.3297 25.8152 47.9692 26.1758C47.6326 26.5123 47.212 26.6806 46.7072 26.6806C46.1784 26.6806 45.7458 26.5123 45.4093 26.1758C45.0727 25.8152 44.9045 25.3706 44.9045 24.8418V15.2151C44.9045 14.3498 44.7843 13.5806 44.5439 12.9076C44.3036 12.2105 43.8829 11.6577 43.282 11.249C42.7051 10.8164 41.8879 10.6 40.8303 10.6C39.8448 10.6 38.9795 10.8164 38.2343 11.249C37.4892 11.6577 36.9003 12.2105 36.4676 12.9076C36.059 13.5806 35.8547 14.3498 35.8547 15.2151V24.8418C35.8547 25.3706 35.6744 25.8152 35.3139 26.1758C34.9774 26.5123 34.5567 26.6806 34.052 26.6806C33.5231 26.6806 33.0905 26.5123 32.754 26.1758C32.4175 25.8152 32.2492 25.3706 32.2492 24.8418V9.55445C32.2492 9.02565 32.4175 8.59299 32.754 8.25647C33.0905 7.89593 33.5231 7.71565 34.052 7.71565C34.5567 7.71565 34.9774 7.89593 35.3139 8.25647C35.6744 8.59299 35.8547 9.02565 35.8547 9.55445V11.5735L35.2057 11.9341C35.374 11.4053 35.6624 10.8765 36.071 10.3477C36.5037 9.79482 37.0205 9.29005 37.6214 8.83335C38.2223 8.35262 38.8953 7.98005 39.6405 7.71565C40.3856 7.42721 41.1788 7.28299 42.0201 7.28299ZM71.6877 17.1981C71.6877 19.121 71.267 20.8276 70.4258 22.3179C69.5845 23.7841 68.4427 24.9379 67.0005 25.7792C65.5583 26.6205 63.9359 27.0411 62.1331 27.0411C60.3304 27.0411 58.7079 26.6205 57.2657 25.7792C55.8235 24.9379 54.6697 23.7841 53.8044 22.3179C52.9631 20.8276 52.5425 19.121 52.5425 17.1981C52.5425 15.2511 52.9631 13.5445 53.8044 12.0783C54.6697 10.588 55.8235 9.42225 57.2657 8.58097C58.7079 7.71565 60.3304 7.28299 62.1331 7.28299C63.9359 7.28299 65.5583 7.71565 67.0005 8.58097C68.4427 9.42225 69.5845 10.588 70.4258 12.0783C71.267 13.5445 71.6877 15.2511 71.6877 17.1981ZM68.0822 17.1981C68.0822 15.8761 67.8178 14.7343 67.289 13.7729C66.7602 12.7874 66.0391 12.0182 65.1257 11.4654C64.2363 10.8885 63.2388 10.6 62.1331 10.6C61.0274 10.6 60.0179 10.8885 59.1045 11.4654C58.1911 12.0182 57.47 12.7874 56.9412 13.7729C56.4124 14.7343 56.148 15.8761 56.148 17.1981C56.148 18.472 56.4124 19.6018 56.9412 20.5873C57.47 21.5728 58.1911 22.3419 59.1045 22.8948C60.0179 23.4476 61.0274 23.724 62.1331 23.724C63.2388 23.724 64.2363 23.4476 65.1257 22.8948C66.0391 22.3419 66.7602 21.5728 67.289 20.5873C67.8178 19.6018 68.0822 18.472 68.0822 17.1981ZM76.0253 7.53538C76.3858 7.53538 76.7223 7.63152 77.0348 7.82382C77.3713 8.01611 77.6117 8.30455 77.7559 8.68913L83.4165 21.7771L82.7315 22.1016L88.4642 8.72519C88.8007 7.93198 89.3416 7.54739 90.0867 7.57143C90.5674 7.57143 90.964 7.72767 91.2765 8.04015C91.613 8.32859 91.7813 8.71317 91.7813 9.1939C91.7813 9.33812 91.7572 9.49436 91.7092 9.66262C91.6611 9.80684 91.601 9.95106 91.5289 10.0953L84.6785 25.5268C84.366 26.2479 83.8492 26.6325 83.1281 26.6806C82.7675 26.7286 82.407 26.6565 82.0464 26.4642C81.7099 26.2479 81.4455 25.9354 81.2532 25.5268L74.4388 10.0953C74.3908 9.99913 74.3427 9.87895 74.2946 9.73473C74.2466 9.56647 74.2225 9.37418 74.2225 9.15785C74.2225 8.7973 74.3788 8.43675 74.6912 8.0762C75.0277 7.71565 75.4724 7.53538 76.0253 7.53538ZM110.92 7.42721C111.449 7.42721 111.882 7.60749 112.218 7.96803C112.555 8.30455 112.723 8.73721 112.723 9.26601V24.8418C112.723 25.3706 112.555 25.8152 112.218 26.1758C111.882 26.5123 111.449 26.6806 110.92 26.6806C110.415 26.6806 109.983 26.5123 109.622 26.1758C109.286 25.8152 109.118 25.3706 109.118 24.8418V22.2458L109.875 22.354C109.875 22.7866 109.694 23.2674 109.334 23.7962C108.997 24.325 108.529 24.8418 107.928 25.3465C107.327 25.8273 106.618 26.2359 105.8 26.5724C104.983 26.8849 104.106 27.0411 103.168 27.0411C101.51 27.0411 100.02 26.6205 98.6976 25.7792C97.3756 24.9139 96.33 23.7361 95.5609 22.2458C94.7917 20.7555 94.4071 19.0609 94.4071 17.162C94.4071 15.2151 94.7917 13.5085 95.5609 12.0422C96.33 10.552 97.3636 9.3862 98.6616 8.54491C99.9836 7.70363 101.45 7.28299 103.06 7.28299C104.094 7.28299 105.043 7.45125 105.909 7.78776C106.798 8.12427 107.567 8.55693 108.216 9.08574C108.865 9.61454 109.358 10.1794 109.694 10.7803C110.055 11.3572 110.235 11.91 110.235 12.4388L109.118 12.547V9.26601C109.118 8.76124 109.286 8.32859 109.622 7.96803C109.983 7.60749 110.415 7.42721 110.92 7.42721ZM103.565 23.724C104.695 23.724 105.692 23.4356 106.558 22.8587C107.423 22.2819 108.096 21.5007 108.577 20.5152C109.057 19.5056 109.298 18.3879 109.298 17.162C109.298 15.9121 109.057 14.7944 108.577 13.8089C108.096 12.8234 107.423 12.0422 106.558 11.4654C105.692 10.8885 104.695 10.6 103.565 10.6C102.459 10.6 101.474 10.8885 100.609 11.4654C99.7673 12.0422 99.0942 12.8234 98.5895 13.8089C98.1087 14.7944 97.8684 15.9121 97.8684 17.162C97.8684 18.3879 98.1087 19.5056 98.5895 20.5152C99.0942 21.5007 99.7673 22.2819 100.609 22.8587C101.474 23.4356 102.459 23.724 103.565 23.724ZM117.522 7.93198H125.995C126.475 7.93198 126.872 8.10024 127.184 8.43675C127.521 8.74923 127.689 9.14583 127.689 9.62656C127.689 10.0833 127.521 10.4678 127.184 10.7803C126.872 11.0928 126.475 11.249 125.995 11.249H117.522C117.041 11.249 116.632 11.0928 116.296 10.7803C115.983 10.4438 115.827 10.0472 115.827 9.59051C115.827 9.10978 115.983 8.71317 116.296 8.40069C116.632 8.08822 117.041 7.93198 117.522 7.93198ZM121.307 3.24484C121.836 3.24484 122.269 3.42511 122.605 3.78566C122.942 4.12217 123.11 4.55483 123.11 5.08364V21.8131C123.11 22.2458 123.182 22.5943 123.327 22.8587C123.471 23.1231 123.663 23.3034 123.903 23.3996C124.168 23.4957 124.432 23.5438 124.697 23.5438C124.961 23.5438 125.189 23.4957 125.382 23.3996C125.598 23.3034 125.85 23.2553 126.139 23.2553C126.427 23.2553 126.692 23.3875 126.932 23.6519C127.172 23.9163 127.293 24.2769 127.293 24.7336C127.293 25.3105 126.98 25.7792 126.355 26.1397C125.73 26.5003 125.057 26.6806 124.336 26.6806C123.927 26.6806 123.447 26.6445 122.894 26.5724C122.341 26.5003 121.8 26.32 121.271 26.0316C120.767 25.7431 120.346 25.2864 120.009 24.6615C119.673 24.0125 119.505 23.1111 119.505 21.9574V5.08364C119.505 4.55483 119.673 4.12217 120.009 3.78566C120.37 3.42511 120.803 3.24484 121.307 3.24484ZM135.071 24.8418C135.071 25.3706 134.903 25.8152 134.566 26.1758C134.23 26.5123 133.797 26.6806 133.268 26.6806C132.764 26.6806 132.331 26.5123 131.97 26.1758C131.634 25.8152 131.466 25.3706 131.466 24.8418V9.41023C131.466 8.88143 131.634 8.44877 131.97 8.11225C132.331 7.75171 132.764 7.57143 133.268 7.57143C133.797 7.57143 134.23 7.75171 134.566 8.11225C134.903 8.44877 135.071 8.88143 135.071 9.41023V24.8418ZM133.232 5.1918C132.535 5.1918 132.031 5.07162 131.718 4.83126C131.406 4.56685 131.249 4.13419 131.249 3.53328V2.9564C131.249 2.35548 131.418 1.93484 131.754 1.69447C132.091 1.45411 132.595 1.33393 133.268 1.33393C133.99 1.33393 134.506 1.46613 134.819 1.73053C135.131 1.97089 135.287 2.37952 135.287 2.9564V3.53328C135.287 4.15823 135.119 4.59089 134.783 4.83126C134.47 5.07162 133.953 5.1918 133.232 5.1918ZM158.093 17.1981C158.093 19.121 157.672 20.8276 156.831 22.3179C155.99 23.7841 154.848 24.9379 153.406 25.7792C151.963 26.6205 150.341 27.0411 148.538 27.0411C146.736 27.0411 145.113 26.6205 143.671 25.7792C142.229 24.9379 141.075 23.7841 140.21 22.3179C139.368 20.8276 138.948 19.121 138.948 17.1981C138.948 15.2511 139.368 13.5445 140.21 12.0783C141.075 10.588 142.229 9.42225 143.671 8.58097C145.113 7.71565 146.736 7.28299 148.538 7.28299C150.341 7.28299 151.963 7.71565 153.406 8.58097C154.848 9.42225 155.99 10.588 156.831 12.0783C157.672 13.5445 158.093 15.2511 158.093 17.1981ZM154.487 17.1981C154.487 15.8761 154.223 14.7343 153.694 13.7729C153.165 12.7874 152.444 12.0182 151.531 11.4654C150.641 10.8885 149.644 10.6 148.538 10.6C147.433 10.6 146.423 10.8885 145.51 11.4654C144.596 12.0182 143.875 12.7874 143.346 13.7729C142.818 14.7343 142.553 15.8761 142.553 17.1981C142.553 18.472 142.818 19.6018 143.346 20.5873C143.875 21.5728 144.596 22.3419 145.51 22.8948C146.423 23.4476 147.433 23.724 148.538 23.724C149.644 23.724 150.641 23.4476 151.531 22.8948C152.444 22.3419 153.165 21.5728 153.694 20.5873C154.223 19.6018 154.487 18.472 154.487 17.1981ZM171.945 7.28299C173.651 7.28299 174.973 7.64354 175.911 8.36464C176.848 9.0617 177.497 10.0111 177.858 11.213C178.242 12.3908 178.435 13.7128 178.435 15.179V24.8418C178.435 25.3706 178.254 25.8152 177.894 26.1758C177.557 26.5123 177.137 26.6806 176.632 26.6806C176.103 26.6806 175.67 26.5123 175.334 26.1758C174.997 25.8152 174.829 25.3706 174.829 24.8418V15.2151C174.829 14.3498 174.709 13.5806 174.469 12.9076C174.228 12.2105 173.808 11.6577 173.207 11.249C172.63 10.8164 171.812 10.6 170.755 10.6C169.769 10.6 168.904 10.8164 168.159 11.249C167.414 11.6577 166.825 12.2105 166.392 12.9076C165.984 13.5806 165.779 14.3498 165.779 15.2151V24.8418C165.779 25.3706 165.599 25.8152 165.238 26.1758C164.902 26.5123 164.481 26.6806 163.977 26.6806C163.448 26.6806 163.015 26.5123 162.679 26.1758C162.342 25.8152 162.174 25.3706 162.174 24.8418V9.55445C162.174 9.02565 162.342 8.59299 162.679 8.25647C163.015 7.89593 163.448 7.71565 163.977 7.71565C164.481 7.71565 164.902 7.89593 165.238 8.25647C165.599 8.59299 165.779 9.02565 165.779 9.55445V11.5735L165.13 11.9341C165.299 11.4053 165.587 10.8765 165.996 10.3477C166.428 9.79482 166.945 9.29005 167.546 8.83335C168.147 8.35262 168.82 7.98005 169.565 7.71565C170.31 7.42721 171.103 7.28299 171.945 7.28299ZM204.039 1.44209C205.313 1.44209 206.491 1.79062 207.573 2.48768C208.655 3.16071 209.52 4.08612 210.169 5.26391C210.818 6.44171 211.142 7.76372 211.142 9.22996C211.142 10.6962 210.818 12.0302 210.169 13.2321C209.52 14.4099 208.655 15.3593 207.573 16.0804C206.491 16.7775 205.313 17.126 204.039 17.126H197.081L197.369 16.5491V24.8418C197.369 25.3706 197.201 25.8152 196.865 26.1758C196.552 26.5123 196.131 26.6806 195.603 26.6806C195.098 26.6806 194.677 26.5123 194.341 26.1758C194.028 25.8152 193.872 25.3706 193.872 24.8418V3.28089C193.872 2.75209 194.052 2.31943 194.413 1.98291C194.773 1.62236 195.206 1.44209 195.711 1.44209H204.039ZM204.039 13.6647C204.664 13.6647 205.229 13.4604 205.734 13.0518C206.263 12.6432 206.684 12.1023 206.996 11.4293C207.333 10.7563 207.501 10.0232 207.501 9.22996C207.501 8.43675 207.333 7.71565 206.996 7.06666C206.684 6.41767 206.263 5.90088 205.734 5.5163C205.229 5.10768 204.664 4.90336 204.039 4.90336H197.009L197.369 4.36254V14.1334L197.045 13.6647H204.039ZM230.493 7.42721C231.022 7.42721 231.455 7.60749 231.791 7.96803C232.128 8.30455 232.296 8.73721 232.296 9.26601V24.8418C232.296 25.3706 232.128 25.8152 231.791 26.1758C231.455 26.5123 231.022 26.6806 230.493 26.6806C229.988 26.6806 229.556 26.5123 229.195 26.1758C228.859 25.8152 228.69 25.3706 228.69 24.8418V22.2458L229.448 22.354C229.448 22.7866 229.267 23.2674 228.907 23.7962C228.57 24.325 228.101 24.8418 227.501 25.3465C226.9 25.8273 226.191 26.2359 225.373 26.5724C224.556 26.8849 223.679 27.0411 222.741 27.0411C221.083 27.0411 219.593 26.6205 218.27 25.7792C216.948 24.9139 215.903 23.7361 215.134 22.2458C214.365 20.7555 213.98 19.0609 213.98 17.162C213.98 15.2151 214.365 13.5085 215.134 12.0422C215.903 10.552 216.936 9.3862 218.234 8.54491C219.556 7.70363 221.023 7.28299 222.633 7.28299C223.667 7.28299 224.616 7.45125 225.481 7.78776C226.371 8.12427 227.14 8.55693 227.789 9.08574C228.438 9.61454 228.931 10.1794 229.267 10.7803C229.628 11.3572 229.808 11.91 229.808 12.4388L228.69 12.547V9.26601C228.69 8.76124 228.859 8.32859 229.195 7.96803C229.556 7.60749 229.988 7.42721 230.493 7.42721ZM223.138 23.724C224.268 23.724 225.265 23.4356 226.13 22.8587C226.996 22.2819 227.669 21.5007 228.15 20.5152C228.63 19.5056 228.871 18.3879 228.871 17.162C228.871 15.9121 228.63 14.7944 228.15 13.8089C227.669 12.8234 226.996 12.0422 226.13 11.4654C225.265 10.8885 224.268 10.6 223.138 10.6C222.032 10.6 221.047 10.8885 220.181 11.4654C219.34 12.0422 218.667 12.8234 218.162 13.8089C217.682 14.7944 217.441 15.9121 217.441 17.162C217.441 18.3879 217.682 19.5056 218.162 20.5152C218.667 21.5007 219.34 22.2819 220.181 22.8587C221.047 23.4356 222.032 23.724 223.138 23.724ZM239.15 26.6806C238.621 26.6806 238.188 26.5123 237.852 26.1758C237.515 25.8152 237.347 25.3706 237.347 24.8418V9.55445C237.347 9.02565 237.515 8.59299 237.852 8.25647C238.188 7.89593 238.621 7.71565 239.15 7.71565C239.654 7.71565 240.075 7.89593 240.412 8.25647C240.772 8.59299 240.952 9.02565 240.952 9.55445V13.5926L240.592 12.0422C240.784 11.3692 241.073 10.7443 241.457 10.1674C241.866 9.59051 242.347 9.08574 242.899 8.65308C243.452 8.22042 244.065 7.88391 244.738 7.64354C245.435 7.40317 246.156 7.28299 246.902 7.28299C247.526 7.28299 248.067 7.45125 248.524 7.78776C248.981 8.12427 249.209 8.54491 249.209 9.04968C249.209 9.69867 249.041 10.1794 248.704 10.4919C248.368 10.7803 247.995 10.9245 247.587 10.9245C247.226 10.9245 246.877 10.8524 246.541 10.7082C246.204 10.54 245.808 10.4558 245.351 10.4558C244.846 10.4558 244.33 10.588 243.801 10.8524C243.272 11.1168 242.791 11.5134 242.359 12.0422C241.926 12.547 241.577 13.1479 241.313 13.845C241.073 14.5421 240.952 15.3232 240.952 16.1886V24.8418C240.952 25.3706 240.772 25.8152 240.412 26.1758C240.075 26.5123 239.654 26.6806 239.15 26.6806ZM252.164 7.93198H260.637C261.118 7.93198 261.515 8.10024 261.827 8.43675C262.164 8.74923 262.332 9.14583 262.332 9.62656C262.332 10.0833 262.164 10.4678 261.827 10.7803C261.515 11.0928 261.118 11.249 260.637 11.249H252.164C251.684 11.249 251.275 11.0928 250.939 10.7803C250.626 10.4438 250.47 10.0472 250.47 9.59051C250.47 9.10978 250.626 8.71317 250.939 8.40069C251.275 8.08822 251.684 7.93198 252.164 7.93198ZM255.95 3.24484C256.479 3.24484 256.912 3.42511 257.248 3.78566C257.585 4.12217 257.753 4.55483 257.753 5.08364V21.8131C257.753 22.2458 257.825 22.5943 257.969 22.8587C258.113 23.1231 258.306 23.3034 258.546 23.3996C258.811 23.4957 259.075 23.5438 259.339 23.5438C259.604 23.5438 259.832 23.4957 260.024 23.3996C260.241 23.3034 260.493 23.2553 260.782 23.2553C261.07 23.2553 261.334 23.3875 261.575 23.6519C261.815 23.9163 261.935 24.2769 261.935 24.7336C261.935 25.3105 261.623 25.7792 260.998 26.1397C260.373 26.5003 259.7 26.6806 258.979 26.6806C258.57 26.6806 258.089 26.6445 257.537 26.5724C256.984 26.5003 256.443 26.32 255.914 26.0316C255.409 25.7431 254.989 25.2864 254.652 24.6615C254.316 24.0125 254.147 23.1111 254.147 21.9574V5.08364C254.147 4.55483 254.316 4.12217 254.652 3.78566C255.013 3.42511 255.445 3.24484 255.95 3.24484ZM276.096 7.28299C277.802 7.28299 279.124 7.64354 280.062 8.36464C280.999 9.0617 281.648 10.0111 282.009 11.213C282.393 12.3908 282.585 13.7128 282.585 15.179V24.8418C282.585 25.3706 282.405 25.8152 282.045 26.1758C281.708 26.5123 281.288 26.6806 280.783 26.6806C280.254 26.6806 279.821 26.5123 279.485 26.1758C279.148 25.8152 278.98 25.3706 278.98 24.8418V15.2151C278.98 14.3498 278.86 13.5806 278.619 12.9076C278.379 12.2105 277.958 11.6577 277.358 11.249C276.781 10.8164 275.963 10.6 274.906 10.6C273.92 10.6 273.055 10.8164 272.31 11.249C271.565 11.6577 270.976 12.2105 270.543 12.9076C270.135 13.5806 269.93 14.3498 269.93 15.2151V24.8418C269.93 25.3706 269.75 25.8152 269.389 26.1758C269.053 26.5123 268.632 26.6806 268.127 26.6806C267.599 26.6806 267.166 26.5123 266.829 26.1758C266.493 25.8152 266.325 25.3706 266.325 24.8418V9.55445C266.325 9.02565 266.493 8.59299 266.829 8.25647C267.166 7.89593 267.599 7.71565 268.127 7.71565C268.632 7.71565 269.053 7.89593 269.389 8.25647C269.75 8.59299 269.93 9.02565 269.93 9.55445V11.5735L269.281 11.9341C269.449 11.4053 269.738 10.8765 270.147 10.3477C270.579 9.79482 271.096 9.29005 271.697 8.83335C272.298 8.35262 272.971 7.98005 273.716 7.71565C274.461 7.42721 275.254 7.28299 276.096 7.28299ZM296.425 27.0411C294.43 27.0411 292.699 26.6325 291.233 25.8152C289.767 24.974 288.625 23.8322 287.808 22.39C287.015 20.9238 286.618 19.2532 286.618 17.3784C286.618 15.2632 287.039 13.4604 287.88 11.9701C288.745 10.4558 289.863 9.30207 291.233 8.50886C292.603 7.69161 294.057 7.28299 295.596 7.28299C296.773 7.28299 297.891 7.52336 298.949 8.00409C300.006 8.46079 300.944 9.10978 301.761 9.95106C302.602 10.7683 303.263 11.7418 303.744 12.8715C304.225 13.9772 304.477 15.191 304.501 16.5131C304.477 16.9938 304.285 17.3904 303.924 17.7029C303.564 18.0153 303.143 18.1716 302.662 18.1716H288.637L287.772 15.1069H301.328L300.643 15.7559V14.8545C300.595 14.0132 300.319 13.2801 299.814 12.6552C299.309 12.0062 298.684 11.5134 297.939 11.1769C297.194 10.8164 296.413 10.6361 295.596 10.6361C294.875 10.6361 294.178 10.7563 293.504 10.9967C292.856 11.213 292.267 11.5735 291.738 12.0783C291.233 12.5831 290.824 13.2561 290.512 14.0974C290.223 14.9146 290.079 15.9362 290.079 17.162C290.079 18.4841 290.356 19.6378 290.909 20.6233C291.461 21.6088 292.207 22.378 293.144 22.9308C294.081 23.4596 295.115 23.724 296.245 23.724C297.134 23.724 297.867 23.6399 298.444 23.4717C299.021 23.2794 299.502 23.051 299.886 22.7866C300.271 22.5222 300.607 22.2698 300.896 22.0295C301.256 21.8131 301.617 21.705 301.977 21.705C302.41 21.705 302.771 21.8612 303.059 22.1737C303.347 22.4621 303.492 22.8107 303.492 23.2193C303.492 23.7481 303.227 24.2288 302.699 24.6615C302.05 25.2864 301.148 25.8393 299.994 26.32C298.865 26.8007 297.675 27.0411 296.425 27.0411ZM310.379 26.6806C309.851 26.6806 309.418 26.5123 309.081 26.1758C308.745 25.8152 308.577 25.3706 308.577 24.8418V9.55445C308.577 9.02565 308.745 8.59299 309.081 8.25647C309.418 7.89593 309.851 7.71565 310.379 7.71565C310.884 7.71565 311.305 7.89593 311.641 8.25647C312.002 8.59299 312.182 9.02565 312.182 9.55445V13.5926L311.822 12.0422C312.014 11.3692 312.302 10.7443 312.687 10.1674C313.095 9.59051 313.576 9.08574 314.129 8.65308C314.682 8.22042 315.295 7.88391 315.968 7.64354C316.665 7.40317 317.386 7.28299 318.131 7.28299C318.756 7.28299 319.297 7.45125 319.754 7.78776C320.21 8.12427 320.439 8.54491 320.439 9.04968C320.439 9.69867 320.27 10.1794 319.934 10.4919C319.597 10.7803 319.225 10.9245 318.816 10.9245C318.456 10.9245 318.107 10.8524 317.771 10.7082C317.434 10.54 317.037 10.4558 316.581 10.4558C316.076 10.4558 315.559 10.588 315.03 10.8524C314.502 11.1168 314.021 11.5134 313.588 12.0422C313.156 12.547 312.807 13.1479 312.543 13.845C312.302 14.5421 312.182 15.3232 312.182 16.1886V24.8418C312.182 25.3706 312.002 25.8152 311.641 26.1758C311.305 26.5123 310.884 26.6806 310.379 26.6806ZM322.529 23.724C322.312 23.3875 322.216 23.003 322.24 22.5703C322.264 22.1136 322.517 21.729 322.997 21.4165C323.334 21.2002 323.682 21.1161 324.043 21.1641C324.428 21.1882 324.788 21.3685 325.125 21.705C325.798 22.4501 326.543 23.039 327.36 23.4717C328.201 23.9043 329.211 24.1207 330.389 24.1207C330.869 24.0966 331.362 24.0245 331.867 23.9043C332.372 23.7601 332.804 23.5197 333.165 23.1832C333.525 22.8227 333.706 22.3059 333.706 21.6329C333.706 21.0319 333.513 20.5512 333.129 20.1907C332.744 19.8301 332.24 19.5417 331.615 19.3253C330.99 19.085 330.317 18.8686 329.596 18.6764C328.826 18.46 328.045 18.2197 327.252 17.9553C326.483 17.6909 325.786 17.3543 325.161 16.9457C324.536 16.5131 324.019 15.9602 323.61 15.2872C323.226 14.6142 323.034 13.7849 323.034 12.7994C323.034 11.6697 323.346 10.6962 323.971 9.87895C324.62 9.0617 325.449 8.42473 326.459 7.96803C327.492 7.51134 328.61 7.28299 329.812 7.28299C330.509 7.28299 331.242 7.37914 332.011 7.57143C332.78 7.73969 333.525 8.01611 334.247 8.40069C334.968 8.78528 335.593 9.29005 336.121 9.915C336.362 10.2275 336.494 10.6 336.518 11.0327C336.566 11.4654 336.374 11.85 335.941 12.1865C335.653 12.4268 335.304 12.535 334.896 12.511C334.487 12.4869 334.15 12.3547 333.886 12.1144C333.429 11.5375 332.84 11.0928 332.119 10.7803C331.398 10.4438 330.581 10.2756 329.668 10.2756C329.211 10.2756 328.73 10.3477 328.225 10.4919C327.745 10.6121 327.336 10.8404 327 11.1769C326.663 11.5134 326.495 12.0062 326.495 12.6552C326.495 13.2561 326.687 13.7368 327.072 14.0974C327.48 14.4579 328.009 14.7584 328.658 14.9988C329.307 15.2391 330.016 15.4554 330.785 15.6477C331.53 15.84 332.264 16.0684 332.985 16.3328C333.73 16.5972 334.391 16.9457 334.968 17.3784C335.569 17.787 336.049 18.3278 336.41 19.0009C336.794 19.6498 336.987 20.4791 336.987 21.4886C336.987 22.6664 336.638 23.676 335.941 24.5173C335.268 25.3345 334.403 25.9595 333.345 26.3921C332.312 26.8248 331.218 27.0411 330.064 27.0411C328.694 27.0411 327.324 26.8007 325.954 26.32C324.608 25.8152 323.466 24.9499 322.529 23.724ZM350.419 7.39116C352.077 7.39116 353.363 7.75171 354.277 8.47281C355.19 9.16987 355.827 10.1193 356.187 11.3211C356.572 12.523 356.764 13.845 356.764 15.2872V24.8418C356.764 25.3706 356.584 25.8152 356.223 26.1758C355.887 26.5123 355.466 26.6806 354.962 26.6806C354.433 26.6806 354 26.5123 353.664 26.1758C353.327 25.8152 353.159 25.3706 353.159 24.8418V15.2872C353.159 14.4459 353.039 13.6767 352.798 12.9797C352.582 12.2826 352.185 11.7298 351.608 11.3211C351.056 10.9125 350.274 10.7082 349.265 10.7082C348.327 10.7082 347.486 10.9125 346.741 11.3211C346.02 11.7298 345.455 12.2826 345.046 12.9797C344.662 13.6767 344.47 14.4459 344.47 15.2872V24.8418C344.47 25.3706 344.289 25.8152 343.929 26.1758C343.592 26.5123 343.172 26.6806 342.667 26.6806C342.138 26.6806 341.705 26.5123 341.369 26.1758C341.032 25.8152 340.864 25.3706 340.864 24.8418V1.83869C340.864 1.30989 341.032 0.877229 341.369 0.540716C341.705 0.180167 342.138 -0.00010793 342.667 -0.00010793C343.172 -0.00010793 343.592 0.180167 343.929 0.540716C344.289 0.877229 344.47 1.30989 344.47 1.83869V11.6817L343.821 12.0422C343.989 11.5134 344.265 10.9726 344.65 10.4198C345.058 9.86693 345.551 9.36216 346.128 8.90546C346.729 8.44877 347.39 8.08822 348.111 7.82382C348.832 7.53538 349.601 7.39116 350.419 7.39116ZM365.168 24.8418C365.168 25.3706 365 25.8152 364.663 26.1758C364.327 26.5123 363.894 26.6806 363.365 26.6806C362.86 26.6806 362.428 26.5123 362.067 26.1758C361.731 25.8152 361.562 25.3706 361.562 24.8418V9.41023C361.562 8.88143 361.731 8.44877 362.067 8.11225C362.428 7.75171 362.86 7.57143 363.365 7.57143C363.894 7.57143 364.327 7.75171 364.663 8.11225C365 8.44877 365.168 8.88143 365.168 9.41023V24.8418ZM363.329 5.1918C362.632 5.1918 362.127 5.07162 361.815 4.83126C361.502 4.56685 361.346 4.13419 361.346 3.53328V2.9564C361.346 2.35548 361.514 1.93484 361.851 1.69447C362.187 1.45411 362.692 1.33393 363.365 1.33393C364.086 1.33393 364.603 1.46613 364.916 1.73053C365.228 1.97089 365.384 2.37952 365.384 2.9564V3.53328C365.384 4.15823 365.216 4.59089 364.879 4.83126C364.567 5.07162 364.05 5.1918 363.329 5.1918ZM379.572 7.39116C381.255 7.39116 382.745 7.8118 384.043 8.65308C385.365 9.49436 386.411 10.6481 387.18 12.1144C387.949 13.5566 388.334 15.2391 388.334 17.162C388.334 19.085 387.949 20.7916 387.18 22.2819C386.411 23.7481 385.377 24.9018 384.079 25.7431C382.781 26.5844 381.315 27.005 379.681 27.005C378.767 27.005 377.902 26.8608 377.085 26.5724C376.267 26.284 375.546 25.9114 374.921 25.4547C374.296 24.974 373.78 24.4692 373.371 23.9404C372.986 23.4116 372.746 22.9188 372.65 22.4621L373.623 21.9934V32.0527C373.623 32.5815 373.443 33.0142 373.083 33.3507C372.746 33.7113 372.325 33.8915 371.821 33.8915C371.292 33.8915 370.859 33.7113 370.523 33.3507C370.186 33.0142 370.018 32.5815 370.018 32.0527V9.48234C370.018 8.97757 370.186 8.54491 370.523 8.18437C370.859 7.82382 371.292 7.64354 371.821 7.64354C372.325 7.64354 372.746 7.82382 373.083 8.18437C373.443 8.54491 373.623 8.97757 373.623 9.48234V11.9701L373.047 11.6456C373.119 11.1889 373.347 10.7202 373.732 10.2395C374.116 9.73473 374.597 9.26601 375.174 8.83335C375.775 8.4007 376.448 8.05216 377.193 7.78776C377.962 7.52336 378.755 7.39116 379.572 7.39116ZM379.176 10.7082C378.022 10.7082 377.013 10.9967 376.147 11.5735C375.306 12.1264 374.645 12.8835 374.164 13.845C373.683 14.8065 373.443 15.9121 373.443 17.162C373.443 18.3879 373.683 19.5056 374.164 20.5152C374.645 21.5007 375.306 22.2819 376.147 22.8587C377.013 23.4116 378.022 23.688 379.176 23.688C380.306 23.688 381.291 23.4116 382.132 22.8587C382.974 22.2819 383.635 21.5007 384.115 20.5152C384.62 19.5056 384.873 18.3879 384.873 17.162C384.873 15.9362 384.62 14.8425 384.115 13.881C383.635 12.8955 382.974 12.1264 382.132 11.5735C381.291 10.9967 380.306 10.7082 379.176 10.7082ZM397.026 26.5724C397.026 27.3175 396.81 28.0627 396.377 28.8078C395.945 29.5529 395.404 30.1659 394.755 30.6466C394.106 31.1514 393.421 31.4038 392.7 31.4038C392.459 31.4038 392.207 31.3076 391.943 31.1153C391.702 30.9471 391.582 30.6226 391.582 30.1418C391.582 29.6611 391.726 29.3727 392.015 29.2765C392.327 29.2044 392.628 29.0962 392.916 28.952C393.253 28.7838 393.517 28.5674 393.709 28.303C393.902 28.0627 393.998 27.7742 393.998 27.4377C393.998 27.1493 393.878 26.9089 393.637 26.7166C393.421 26.5243 393.132 26.4282 392.772 26.4282C392.628 26.4282 392.459 26.4522 392.267 26.5003C392.099 26.5243 391.943 26.5844 391.798 26.6806C391.582 26.5604 391.402 26.4162 391.258 26.2479C391.113 26.0796 391.041 25.8273 391.041 25.4907C391.065 24.8658 391.366 24.325 391.943 23.8683C392.544 23.3875 393.229 23.1472 393.998 23.1472C394.911 23.1472 395.644 23.4717 396.197 24.1207C396.75 24.7696 397.026 25.5869 397.026 26.5724ZM430.715 1.44209C431.196 1.44209 431.58 1.61035 431.869 1.94686C432.181 2.25933 432.337 2.65594 432.337 3.13667V24.8418C432.337 25.3706 432.157 25.8152 431.797 26.1758C431.46 26.5123 431.027 26.6806 430.499 26.6806C430.258 26.6806 429.994 26.6325 429.705 26.5363C429.441 26.4402 429.237 26.308 429.093 26.1397L414.274 6.92244L415.103 6.45373V25.022C415.103 25.4787 414.947 25.8753 414.634 26.2118C414.322 26.5243 413.925 26.6806 413.445 26.6806C412.94 26.6806 412.531 26.5243 412.219 26.2118C411.93 25.8753 411.786 25.4787 411.786 25.022V3.28089C411.786 2.72805 411.966 2.28337 412.327 1.94686C412.688 1.61035 413.12 1.44209 413.625 1.44209C413.889 1.44209 414.166 1.50218 414.454 1.62236C414.767 1.71851 414.995 1.87475 415.139 2.09108L429.597 20.9118L429.056 21.4165V3.13667C429.056 2.65594 429.213 2.25933 429.525 1.94686C429.838 1.61035 430.234 1.44209 430.715 1.44209ZM456.004 17.1981C456.004 19.121 455.583 20.8276 454.742 22.3179C453.901 23.7841 452.759 24.9379 451.317 25.7792C449.875 26.6205 448.252 27.0411 446.449 27.0411C444.647 27.0411 443.024 26.6205 441.582 25.7792C440.14 24.9379 438.986 23.7841 438.121 22.3179C437.279 20.8276 436.859 19.121 436.859 17.1981C436.859 15.2511 437.279 13.5445 438.121 12.0783C438.986 10.588 440.14 9.42225 441.582 8.58097C443.024 7.71565 444.647 7.28299 446.449 7.28299C448.252 7.28299 449.875 7.71565 451.317 8.58097C452.759 9.42225 453.901 10.588 454.742 12.0783C455.583 13.5445 456.004 15.2511 456.004 17.1981ZM452.398 17.1981C452.398 15.8761 452.134 14.7343 451.605 13.7729C451.076 12.7874 450.355 12.0182 449.442 11.4654C448.553 10.8885 447.555 10.6 446.449 10.6C445.344 10.6 444.334 10.8885 443.421 11.4654C442.507 12.0182 441.786 12.7874 441.257 13.7729C440.729 14.7343 440.464 15.8761 440.464 17.1981C440.464 18.472 440.729 19.6018 441.257 20.5873C441.786 21.5728 442.507 22.3419 443.421 22.8948C444.334 23.4476 445.344 23.724 446.449 23.724C447.555 23.724 448.553 23.4476 449.442 22.8948C450.355 22.3419 451.076 21.5728 451.605 20.5873C452.134 19.6018 452.398 18.472 452.398 17.1981ZM459.832 7.93198H468.305C468.786 7.93198 469.183 8.10024 469.495 8.43675C469.832 8.74923 470 9.14583 470 9.62656C470 10.0833 469.832 10.4678 469.495 10.7803C469.183 11.0928 468.786 11.249 468.305 11.249H459.832C459.352 11.249 458.943 11.0928 458.607 10.7803C458.294 10.4438 458.138 10.0472 458.138 9.59051C458.138 9.10978 458.294 8.71317 458.607 8.40069C458.943 8.08822 459.352 7.93198 459.832 7.93198ZM463.618 3.24484C464.147 3.24484 464.58 3.42511 464.916 3.78566C465.253 4.12217 465.421 4.55483 465.421 5.08364V21.8131C465.421 22.2458 465.493 22.5943 465.637 22.8587C465.782 23.1231 465.974 23.3034 466.214 23.3996C466.479 23.4957 466.743 23.5438 467.007 23.5438C467.272 23.5438 467.5 23.4957 467.692 23.3996C467.909 23.3034 468.161 23.2553 468.45 23.2553C468.738 23.2553 469.002 23.3875 469.243 23.6519C469.483 23.9163 469.603 24.2769 469.603 24.7336C469.603 25.3105 469.291 25.7792 468.666 26.1397C468.041 26.5003 467.368 26.6806 466.647 26.6806C466.238 26.6806 465.757 26.6445 465.205 26.5724C464.652 26.5003 464.111 26.32 463.582 26.0316C463.077 25.7431 462.657 25.2864 462.32 24.6615C461.984 24.0125 461.815 23.1111 461.815 21.9574V5.08364C461.815 4.55483 461.984 4.12217 462.32 3.78566C462.681 3.42511 463.113 3.24484 463.618 3.24484ZM20.1547 47.4402C20.6595 47.4402 21.0922 47.6084 21.4527 47.945C21.8133 48.2815 21.9935 48.6901 21.9935 49.1708C21.9935 49.4352 21.9335 49.7117 21.8133 50.0001L12.6914 71.561C12.4991 71.9696 12.2347 72.27 11.8982 72.4623C11.5857 72.6546 11.2612 72.7508 10.9247 72.7508C10.5882 72.7267 10.2637 72.6186 9.95119 72.4263C9.66275 72.234 9.4344 71.9576 9.26614 71.597L0.144242 50.0001C0.0961691 49.8799 0.0601141 49.7597 0.0360774 49.6395C0.0120408 49.4953 2.255e-05 49.3511 2.255e-05 49.2069C2.255e-05 48.654 0.204334 48.2214 0.612957 47.9089C1.02158 47.5964 1.41818 47.4402 1.80277 47.4402C2.57194 47.4402 3.1368 47.8368 3.49735 48.63L11.7539 68.2078H10.7083L18.4962 48.594C18.8327 47.8248 19.3856 47.4402 20.1547 47.4402ZM33.6534 73.1113C31.6583 73.1113 29.9277 72.7027 28.4615 71.8855C26.9952 71.0442 25.8535 69.9024 25.0362 68.4602C24.243 66.994 23.8464 65.3234 23.8464 63.4486C23.8464 61.3334 24.2671 59.5306 25.1084 58.0403C25.9737 56.526 27.0914 55.3723 28.4615 54.5791C29.8316 53.7618 31.2858 53.3532 32.8241 53.3532C34.0019 53.3532 35.1196 53.5936 36.1772 54.0743C37.2348 54.531 38.1723 55.18 38.9895 56.0213C39.8308 56.8385 40.4918 57.812 40.9725 58.9417C41.4533 60.0474 41.7056 61.2613 41.7297 62.5833C41.7056 63.064 41.5134 63.4606 41.1528 63.7731C40.7923 64.0856 40.3716 64.2418 39.8909 64.2418H25.8655L25.0002 61.1771H38.5568L37.8718 61.8261V60.9247C37.8237 60.0835 37.5473 59.3503 37.0425 58.7254C36.5378 58.0764 35.9128 57.5837 35.1677 57.2471C34.4225 56.8866 33.6414 56.7063 32.8241 56.7063C32.103 56.7063 31.406 56.8265 30.7329 57.0669C30.0839 57.2832 29.495 57.6437 28.9662 58.1485C28.4615 58.6533 28.0528 59.3263 27.7404 60.1676C27.4519 60.9848 27.3077 62.0064 27.3077 63.2323C27.3077 64.5543 27.5841 65.708 28.137 66.6935C28.6898 67.679 29.4349 68.4482 30.3724 69.0011C31.3098 69.5299 32.3434 69.7943 33.4731 69.7943C34.3625 69.7943 35.0956 69.7101 35.6725 69.5419C36.2493 69.3496 36.7301 69.1212 37.1147 68.8568C37.4992 68.5924 37.8357 68.34 38.1242 68.0997C38.4847 67.8834 38.8453 67.7752 39.2058 67.7752C39.6385 67.7752 39.999 67.9314 40.2875 68.2439C40.5759 68.5323 40.7201 68.8809 40.7201 69.2895C40.7201 69.8183 40.4557 70.299 39.9269 70.7317C39.2779 71.3566 38.3766 71.9095 37.2228 72.3902C36.0931 72.871 34.9033 73.1113 33.6534 73.1113ZM55.5759 53.3532C57.2825 53.3532 58.6045 53.7138 59.542 54.4349C60.4794 55.1319 61.1284 56.0814 61.4889 57.2832C61.8735 58.461 62.0658 59.783 62.0658 61.2492V70.912C62.0658 71.4408 61.8855 71.8855 61.525 72.246C61.1885 72.5825 60.7678 72.7508 60.2631 72.7508C59.7342 72.7508 59.3016 72.5825 58.9651 72.246C58.6286 71.8855 58.4603 71.4408 58.4603 70.912V61.2853C58.4603 60.42 58.3401 59.6508 58.0998 58.9778C57.8594 58.2807 57.4388 57.7279 56.8378 57.3192C56.261 56.8866 55.4437 56.6703 54.3861 56.6703C53.4006 56.6703 52.5353 56.8866 51.7901 57.3192C51.045 57.7279 50.4561 58.2807 50.0234 58.9778C49.6148 59.6508 49.4105 60.42 49.4105 61.2853V70.912C49.4105 71.4408 49.2302 71.8855 48.8697 72.246C48.5332 72.5825 48.1125 72.7508 47.6078 72.7508C47.079 72.7508 46.6463 72.5825 46.3098 72.246C45.9733 71.8855 45.805 71.4408 45.805 70.912V55.6247C45.805 55.0959 45.9733 54.6632 46.3098 54.3267C46.6463 53.9661 47.079 53.7859 47.6078 53.7859C48.1125 53.7859 48.5332 53.9661 48.8697 54.3267C49.2302 54.6632 49.4105 55.0959 49.4105 55.6247V57.6437L48.7615 58.0043C48.9298 57.4755 49.2182 56.9467 49.6268 56.4179C50.0595 55.865 50.5763 55.3603 51.1772 54.9036C51.7781 54.4228 52.4511 54.0503 53.1963 53.7859C53.9414 53.4974 54.7346 53.3532 55.5759 53.3532ZM82.6115 46.0701C83.1403 46.0701 83.573 46.2384 83.9095 46.5749C84.246 46.9114 84.4142 47.3561 84.4142 47.9089V70.912C84.4142 71.4408 84.246 71.8855 83.9095 72.246C83.573 72.5825 83.1403 72.7508 82.6115 72.7508C82.1067 72.7508 81.6741 72.5825 81.3135 72.246C80.977 71.8855 80.8087 71.4408 80.8087 70.912V68.316L81.5659 68.3521C81.5659 68.7847 81.3856 69.2775 81.0251 69.8303C80.6886 70.3591 80.2198 70.8759 79.6189 71.3807C79.018 71.8855 78.3089 72.3061 77.4917 72.6426C76.6744 72.9551 75.7971 73.1113 74.8597 73.1113C73.2011 73.1113 71.7109 72.6907 70.3889 71.8494C69.0668 70.9841 68.0213 69.8183 67.2521 68.3521C66.4829 66.8618 66.0983 65.1552 66.0983 63.2323C66.0983 61.3093 66.4829 59.6147 67.2521 58.1485C68.0213 56.6582 69.0548 55.4925 70.3528 54.6512C71.6748 53.7859 73.1411 53.3532 74.7515 53.3532C75.7611 53.3532 76.6985 53.5215 77.5638 53.858C78.4532 54.1945 79.2223 54.6271 79.8713 55.156C80.5203 55.6848 81.0251 56.2496 81.3856 56.8505C81.7462 57.4274 81.9264 57.9803 81.9264 58.5091L80.8087 58.6172V47.9089C80.8087 47.3801 80.977 46.9474 81.3135 46.6109C81.6741 46.2504 82.1067 46.0701 82.6115 46.0701ZM75.2563 69.7943C76.41 69.7943 77.4076 69.5058 78.2488 68.9289C79.1142 68.3521 79.7872 67.5709 80.2679 66.5854C80.7487 65.5999 80.989 64.4822 80.989 63.2323C80.989 61.9824 80.7487 60.8647 80.2679 59.8792C79.7872 58.8936 79.1142 58.1125 78.2488 57.5356C77.3835 56.9587 76.386 56.6703 75.2563 56.6703C74.1506 56.6703 73.1651 56.9587 72.2998 57.5356C71.4585 58.1125 70.7855 58.8936 70.2807 59.8792C69.8 60.8647 69.5596 61.9824 69.5596 63.2323C69.5596 64.4822 69.8 65.5999 70.2807 66.5854C70.7855 67.5709 71.4585 68.3521 72.2998 68.9289C73.1651 69.5058 74.1506 69.7943 75.2563 69.7943ZM107.637 63.2683C107.637 65.1912 107.216 66.8978 106.375 68.3881C105.534 69.8544 104.392 71.0081 102.95 71.8494C101.508 72.6907 99.8852 73.1113 98.0824 73.1113C96.2797 73.1113 94.6572 72.6907 93.215 71.8494C91.7728 71.0081 90.6191 69.8544 89.7538 68.3881C88.9125 66.8978 88.4918 65.1912 88.4918 63.2683C88.4918 61.3213 88.9125 59.6147 89.7538 58.1485C90.6191 56.6582 91.7728 55.4925 93.215 54.6512C94.6572 53.7859 96.2797 53.3532 98.0824 53.3532C99.8852 53.3532 101.508 53.7859 102.95 54.6512C104.392 55.4925 105.534 56.6582 106.375 58.1485C107.216 59.6147 107.637 61.3213 107.637 63.2683ZM104.032 63.2683C104.032 61.9463 103.767 60.8046 103.238 59.8431C102.709 58.8576 101.988 58.0884 101.075 57.5356C100.186 56.9587 99.1881 56.6703 98.0824 56.6703C96.9768 56.6703 95.9672 56.9587 95.0538 57.5356C94.1404 58.0884 93.4193 58.8576 92.8905 59.8431C92.3617 60.8046 92.0973 61.9463 92.0973 63.2683C92.0973 64.5423 92.3617 65.672 92.8905 66.6575C93.4193 67.643 94.1404 68.4122 95.0538 68.965C95.9672 69.5178 96.9768 69.7943 98.0824 69.7943C99.1881 69.7943 100.186 69.5178 101.075 68.965C101.988 68.4122 102.709 67.643 103.238 66.6575C103.767 65.672 104.032 64.5423 104.032 63.2683ZM113.521 72.7508C112.992 72.7508 112.559 72.5825 112.223 72.246C111.886 71.8855 111.718 71.4408 111.718 70.912V55.6247C111.718 55.0959 111.886 54.6632 112.223 54.3267C112.559 53.9661 112.992 53.7859 113.521 53.7859C114.025 53.7859 114.446 53.9661 114.783 54.3267C115.143 54.6632 115.323 55.0959 115.323 55.6247V59.6628L114.963 58.1125C115.155 57.4394 115.444 56.8145 115.828 56.2376C116.237 55.6607 116.718 55.156 117.27 54.7233C117.823 54.2906 118.436 53.9541 119.109 53.7138C119.806 53.4734 120.527 53.3532 121.273 53.3532C121.897 53.3532 122.438 53.5215 122.895 53.858C123.352 54.1945 123.58 54.6151 123.58 55.1199C123.58 55.7689 123.412 56.2496 123.075 56.5621C122.739 56.8505 122.366 56.9948 121.958 56.9948C121.597 56.9948 121.249 56.9226 120.912 56.7784C120.575 56.6102 120.179 56.526 119.722 56.526C119.217 56.526 118.701 56.6582 118.172 56.9226C117.643 57.187 117.162 57.5837 116.73 58.1125C116.297 58.6172 115.948 59.2181 115.684 59.9152C115.444 60.6123 115.323 61.3935 115.323 62.2588V70.912C115.323 71.4408 115.143 71.8855 114.783 72.246C114.446 72.5825 114.025 72.7508 113.521 72.7508ZM139.383 72.7508C138.806 72.7508 138.301 72.5825 137.868 72.246C137.436 71.8855 137.219 71.4408 137.219 70.912V49.3511C137.219 48.8223 137.4 48.3896 137.76 48.0531C138.121 47.6926 138.553 47.5123 139.058 47.5123H149.226C150.524 47.5123 151.713 47.8368 152.795 48.4858C153.877 49.1107 154.742 49.9881 155.391 51.1178C156.064 52.2235 156.4 53.4974 156.4 54.9396C156.4 55.9011 156.208 56.8265 155.824 57.7159C155.439 58.5812 154.922 59.3503 154.273 60.0234C153.624 60.6964 152.891 61.2012 152.074 61.5377L151.677 60.8526C152.422 61.117 153.071 61.5016 153.624 62.0064C154.177 62.4871 154.61 63.064 154.922 63.737C155.259 64.386 155.439 65.1312 155.463 65.9724C155.535 66.7176 155.595 67.3425 155.643 67.8473C155.715 68.328 155.812 68.7246 155.932 69.0371C156.052 69.3496 156.268 69.59 156.581 69.7582C157.013 69.9986 157.278 70.3591 157.374 70.8399C157.494 71.3206 157.398 71.7532 157.086 72.1378C156.869 72.4263 156.593 72.6186 156.256 72.7147C155.944 72.7868 155.619 72.7988 155.283 72.7508C154.946 72.6787 154.658 72.5825 154.417 72.4623C154.033 72.222 153.636 71.8855 153.228 71.4528C152.843 70.9961 152.531 70.3711 152.29 69.5779C152.05 68.7847 151.93 67.7391 151.93 66.4412C151.93 65.8402 151.834 65.3234 151.641 64.8908C151.449 64.4581 151.185 64.1096 150.848 63.8452C150.512 63.5568 150.115 63.3524 149.658 63.2323C149.202 63.088 148.697 63.0159 148.144 63.0159H140.5L141.005 62.2948V70.912C141.005 71.4408 140.861 71.8855 140.572 72.246C140.284 72.5825 139.887 72.7508 139.383 72.7508ZM140.536 59.8792H149.153C149.706 59.8551 150.235 59.6388 150.74 59.2302C151.269 58.7975 151.689 58.2206 152.002 57.4995C152.338 56.7784 152.507 55.9612 152.507 55.0478C152.507 53.894 152.158 52.9326 151.461 52.1634C150.788 51.3702 149.983 50.9736 149.045 50.9736H140.608L141.005 50.0361V60.6363L140.536 59.8792ZM170.021 73.1113C168.026 73.1113 166.296 72.7027 164.829 71.8855C163.363 71.0442 162.221 69.9024 161.404 68.4602C160.611 66.994 160.214 65.3234 160.214 63.4486C160.214 61.3334 160.635 59.5306 161.476 58.0403C162.342 56.526 163.459 55.3723 164.829 54.5791C166.2 53.7618 167.654 53.3532 169.192 53.3532C170.37 53.3532 171.488 53.5936 172.545 54.0743C173.603 54.531 174.54 55.18 175.357 56.0213C176.199 56.8385 176.86 57.812 177.341 58.9417C177.821 60.0474 178.074 61.2613 178.098 62.5833C178.074 63.064 177.881 63.4606 177.521 63.7731C177.16 64.0856 176.74 64.2418 176.259 64.2418H162.233L161.368 61.1771H174.925L174.24 61.8261V60.9247C174.192 60.0835 173.915 59.3503 173.411 58.7254C172.906 58.0764 172.281 57.5837 171.536 57.2471C170.791 56.8866 170.009 56.7063 169.192 56.7063C168.471 56.7063 167.774 56.8265 167.101 57.0669C166.452 57.2832 165.863 57.6437 165.334 58.1485C164.829 58.6533 164.421 59.3263 164.108 60.1676C163.82 60.9848 163.676 62.0064 163.676 63.2323C163.676 64.5543 163.952 65.708 164.505 66.6935C165.058 67.679 165.803 68.4482 166.74 69.0011C167.678 69.5299 168.711 69.7943 169.841 69.7943C170.73 69.7943 171.464 69.7101 172.04 69.5419C172.617 69.3496 173.098 69.1212 173.483 68.8568C173.867 68.5924 174.204 68.34 174.492 68.0997C174.853 67.8834 175.213 67.7752 175.574 67.7752C176.006 67.7752 176.367 67.9314 176.655 68.2439C176.944 68.5323 177.088 68.8809 177.088 69.2895C177.088 69.8183 176.824 70.299 176.295 70.7317C175.646 71.3566 174.745 71.9095 173.591 72.3902C172.461 72.871 171.271 73.1113 170.021 73.1113ZM186.067 70.912C186.067 71.4408 185.887 71.8855 185.526 72.246C185.19 72.5825 184.769 72.7508 184.264 72.7508C183.759 72.7508 183.327 72.5825 182.966 72.246C182.63 71.8855 182.461 71.4408 182.461 70.912V47.9089C182.461 47.3801 182.642 46.9474 183.002 46.6109C183.363 46.2504 183.795 46.0701 184.3 46.0701C184.829 46.0701 185.25 46.2504 185.562 46.6109C185.899 46.9474 186.067 47.3801 186.067 47.9089V70.912ZM206.973 53.4974C207.502 53.4974 207.934 53.6777 208.271 54.0382C208.607 54.3748 208.776 54.8074 208.776 55.3362V70.912C208.776 71.4408 208.607 71.8855 208.271 72.246C207.934 72.5825 207.502 72.7508 206.973 72.7508C206.468 72.7508 206.035 72.5825 205.675 72.246C205.338 71.8855 205.17 71.4408 205.17 70.912V68.316L205.927 68.4242C205.927 68.8568 205.747 69.3376 205.386 69.8664C205.05 70.3952 204.581 70.912 203.98 71.4167C203.379 71.8975 202.67 72.3061 201.853 72.6426C201.036 72.9551 200.159 73.1113 199.221 73.1113C197.563 73.1113 196.072 72.6907 194.75 71.8494C193.428 70.9841 192.383 69.8063 191.613 68.316C190.844 66.8257 190.46 65.1312 190.46 63.2323C190.46 61.2853 190.844 59.5787 191.613 58.1125C192.383 56.6222 193.416 55.4564 194.714 54.6151C196.036 53.7738 197.502 53.3532 199.113 53.3532C200.146 53.3532 201.096 53.5215 201.961 53.858C202.851 54.1945 203.62 54.6271 204.269 55.156C204.918 55.6848 205.411 56.2496 205.747 56.8505C206.108 57.4274 206.288 57.9803 206.288 58.5091L205.17 58.6172V55.3362C205.17 54.8315 205.338 54.3988 205.675 54.0382C206.035 53.6777 206.468 53.4974 206.973 53.4974ZM199.618 69.7943C200.747 69.7943 201.745 69.5058 202.61 68.9289C203.476 68.3521 204.149 67.5709 204.629 66.5854C205.11 65.5758 205.35 64.4581 205.35 63.2323C205.35 61.9824 205.11 60.8647 204.629 59.8792C204.149 58.8936 203.476 58.1125 202.61 57.5356C201.745 56.9587 200.747 56.6703 199.618 56.6703C198.512 56.6703 197.527 56.9587 196.661 57.5356C195.82 58.1125 195.147 58.8936 194.642 59.8792C194.161 60.8647 193.921 61.9824 193.921 63.2323C193.921 64.4581 194.161 65.5758 194.642 66.5854C195.147 67.5709 195.82 68.3521 196.661 68.9289C197.527 69.5058 198.512 69.7943 199.618 69.7943ZM213.574 54.0022H222.047C222.528 54.0022 222.925 54.1705 223.237 54.507C223.574 54.8194 223.742 55.216 223.742 55.6968C223.742 56.1535 223.574 56.5381 223.237 56.8505C222.925 57.163 222.528 57.3192 222.047 57.3192H213.574C213.094 57.3192 212.685 57.163 212.348 56.8505C212.036 56.514 211.88 56.1174 211.88 55.6607C211.88 55.18 212.036 54.7834 212.348 54.4709C212.685 54.1584 213.094 54.0022 213.574 54.0022ZM217.36 49.3151C217.889 49.3151 218.322 49.4953 218.658 49.8559C218.995 50.1924 219.163 50.625 219.163 51.1539V67.8834C219.163 68.316 219.235 68.6645 219.379 68.9289C219.523 69.1933 219.716 69.3736 219.956 69.4698C220.22 69.5659 220.485 69.614 220.749 69.614C221.014 69.614 221.242 69.5659 221.434 69.4698C221.651 69.3736 221.903 69.3255 222.191 69.3255C222.48 69.3255 222.744 69.4578 222.985 69.7222C223.225 69.9866 223.345 70.3471 223.345 70.8038C223.345 71.3807 223.033 71.8494 222.408 72.2099C221.783 72.5705 221.11 72.7508 220.389 72.7508C219.98 72.7508 219.499 72.7147 218.947 72.6426C218.394 72.5705 217.853 72.3902 217.324 72.1018C216.819 71.8133 216.399 71.3566 216.062 70.7317C215.726 70.0827 215.557 69.1813 215.557 68.0276V51.1539C215.557 50.625 215.726 50.1924 216.062 49.8559C216.423 49.4953 216.855 49.3151 217.36 49.3151ZM231.124 70.912C231.124 71.4408 230.956 71.8855 230.619 72.246C230.283 72.5825 229.85 72.7508 229.321 72.7508C228.816 72.7508 228.384 72.5825 228.023 72.246C227.687 71.8855 227.518 71.4408 227.518 70.912V55.4804C227.518 54.9516 227.687 54.519 228.023 54.1825C228.384 53.8219 228.816 53.6416 229.321 53.6416C229.85 53.6416 230.283 53.8219 230.619 54.1825C230.956 54.519 231.124 54.9516 231.124 55.4804V70.912ZM229.285 51.262C228.588 51.262 228.083 51.1418 227.771 50.9015C227.458 50.6371 227.302 50.2044 227.302 49.6035V49.0266C227.302 48.4257 227.47 48.0051 227.807 47.7647C228.143 47.5243 228.648 47.4041 229.321 47.4041C230.042 47.4041 230.559 47.5363 230.871 47.8007C231.184 48.0411 231.34 48.4497 231.34 49.0266V49.6035C231.34 50.2284 231.172 50.6611 230.835 50.9015C230.523 51.1418 230.006 51.262 229.285 51.262ZM254.145 63.2683C254.145 65.1912 253.725 66.8978 252.884 68.3881C252.042 69.8544 250.901 71.0081 249.458 71.8494C248.016 72.6907 246.394 73.1113 244.591 73.1113C242.788 73.1113 241.166 72.6907 239.723 71.8494C238.281 71.0081 237.128 69.8544 236.262 68.3881C235.421 66.8978 235 65.1912 235 63.2683C235 61.3213 235.421 59.6147 236.262 58.1485C237.128 56.6582 238.281 55.4925 239.723 54.6512C241.166 53.7859 242.788 53.3532 244.591 53.3532C246.394 53.3532 248.016 53.7859 249.458 54.6512C250.901 55.4925 252.042 56.6582 252.884 58.1485C253.725 59.6147 254.145 61.3213 254.145 63.2683ZM250.54 63.2683C250.54 61.9463 250.276 60.8046 249.747 59.8431C249.218 58.8576 248.497 58.0884 247.583 57.5356C246.694 56.9587 245.697 56.6703 244.591 56.6703C243.485 56.6703 242.476 56.9587 241.562 57.5356C240.649 58.0884 239.928 58.8576 239.399 59.8431C238.87 60.8046 238.606 61.9463 238.606 63.2683C238.606 64.5423 238.87 65.672 239.399 66.6575C239.928 67.643 240.649 68.4122 241.562 68.965C242.476 69.5178 243.485 69.7943 244.591 69.7943C245.697 69.7943 246.694 69.5178 247.583 68.965C248.497 68.4122 249.218 67.643 249.747 66.6575C250.276 65.672 250.54 64.5423 250.54 63.2683ZM267.997 53.3532C269.704 53.3532 271.026 53.7138 271.963 54.4349C272.901 55.1319 273.55 56.0814 273.91 57.2832C274.295 58.461 274.487 59.783 274.487 61.2492V70.912C274.487 71.4408 274.307 71.8855 273.946 72.246C273.61 72.5825 273.189 72.7508 272.684 72.7508C272.156 72.7508 271.723 72.5825 271.386 72.246C271.05 71.8855 270.882 71.4408 270.882 70.912V61.2853C270.882 60.42 270.762 59.6508 270.521 58.9778C270.281 58.2807 269.86 57.7279 269.259 57.3192C268.682 56.8866 267.865 56.6703 266.807 56.6703C265.822 56.6703 264.957 56.8866 264.212 57.3192C263.466 57.7279 262.878 58.2807 262.445 58.9778C262.036 59.6508 261.832 60.42 261.832 61.2853V70.912C261.832 71.4408 261.652 71.8855 261.291 72.246C260.955 72.5825 260.534 72.7508 260.029 72.7508C259.5 72.7508 259.068 72.5825 258.731 72.246C258.395 71.8855 258.226 71.4408 258.226 70.912V55.6247C258.226 55.0959 258.395 54.6632 258.731 54.3267C259.068 53.9661 259.5 53.7859 260.029 53.7859C260.534 53.7859 260.955 53.9661 261.291 54.3267C261.652 54.6632 261.832 55.0959 261.832 55.6247V57.6437L261.183 58.0043C261.351 57.4755 261.64 56.9467 262.048 56.4179C262.481 55.865 262.998 55.3603 263.599 54.9036C264.2 54.4228 264.873 54.0503 265.618 53.7859C266.363 53.4974 267.156 53.3532 267.997 53.3532ZM278.376 69.7943C278.159 69.4578 278.063 69.0732 278.087 68.6405C278.111 68.1838 278.363 67.7992 278.844 67.4867C279.181 67.2704 279.529 67.1863 279.89 67.2344C280.274 67.2584 280.635 67.4387 280.971 67.7752C281.644 68.5203 282.39 69.1092 283.207 69.5419C284.048 69.9745 285.058 70.1909 286.235 70.1909C286.716 70.1668 287.209 70.0947 287.714 69.9745C288.219 69.8303 288.651 69.59 289.012 69.2534C289.372 68.8929 289.553 68.3761 289.553 67.7031C289.553 67.1022 289.36 66.6214 288.976 66.2609C288.591 65.9003 288.086 65.6119 287.461 65.3956C286.836 65.1552 286.163 64.9389 285.442 64.7466C284.673 64.5302 283.892 64.2899 283.099 64.0255C282.33 63.7611 281.632 63.4246 281.008 63.0159C280.383 62.5833 279.866 62.0304 279.457 61.3574C279.073 60.6844 278.88 59.8551 278.88 58.8696C278.88 57.7399 279.193 56.7664 279.818 55.9492C280.467 55.1319 281.296 54.4949 282.305 54.0382C283.339 53.5816 284.457 53.3532 285.659 53.3532C286.356 53.3532 287.089 53.4494 287.858 53.6416C288.627 53.8099 289.372 54.0863 290.093 54.4709C290.814 54.8555 291.439 55.3603 291.968 55.9852C292.209 56.2977 292.341 56.6703 292.365 57.1029C292.413 57.5356 292.221 57.9202 291.788 58.2567C291.5 58.497 291.151 58.6052 290.742 58.5812C290.334 58.5571 289.997 58.4249 289.733 58.1846C289.276 57.6077 288.687 57.163 287.966 56.8505C287.245 56.514 286.428 56.3458 285.514 56.3458C285.058 56.3458 284.577 56.4179 284.072 56.5621C283.591 56.6823 283.183 56.9106 282.846 57.2471C282.51 57.5837 282.342 58.0764 282.342 58.7254C282.342 59.3263 282.534 59.807 282.918 60.1676C283.327 60.5281 283.856 60.8286 284.505 61.069C285.154 61.3093 285.863 61.5257 286.632 61.718C287.377 61.9102 288.11 62.1386 288.831 62.403C289.577 62.6674 290.238 63.0159 290.814 63.4486C291.415 63.8572 291.896 64.398 292.257 65.0711C292.641 65.7201 292.834 66.5493 292.834 67.5589C292.834 68.7367 292.485 69.7462 291.788 70.5875C291.115 71.4047 290.25 72.0297 289.192 72.4623C288.158 72.895 287.065 73.1113 285.911 73.1113C284.541 73.1113 283.171 72.871 281.801 72.3902C280.455 71.8855 279.313 71.0201 278.376 69.7943ZM306.265 53.4614C307.924 53.4614 309.21 53.8219 310.123 54.543C311.037 55.2401 311.674 56.1895 312.034 57.3914C312.419 58.5932 312.611 59.9152 312.611 61.3574V70.912C312.611 71.4408 312.431 71.8855 312.07 72.246C311.734 72.5825 311.313 72.7508 310.808 72.7508C310.28 72.7508 309.847 72.5825 309.51 72.246C309.174 71.8855 309.006 71.4408 309.006 70.912V61.3574C309.006 60.5161 308.885 59.747 308.645 59.0499C308.429 58.3528 308.032 57.8 307.455 57.3914C306.902 56.9827 306.121 56.7784 305.112 56.7784C304.174 56.7784 303.333 56.9827 302.588 57.3914C301.867 57.8 301.302 58.3528 300.893 59.0499C300.509 59.747 300.316 60.5161 300.316 61.3574V70.912C300.316 71.4408 300.136 71.8855 299.776 72.246C299.439 72.5825 299.018 72.7508 298.514 72.7508C297.985 72.7508 297.552 72.5825 297.216 72.246C296.879 71.8855 296.711 71.4408 296.711 70.912V47.9089C296.711 47.3801 296.879 46.9474 297.216 46.6109C297.552 46.2504 297.985 46.0701 298.514 46.0701C299.018 46.0701 299.439 46.2504 299.776 46.6109C300.136 46.9474 300.316 47.3801 300.316 47.9089V57.7519L299.667 58.1125C299.836 57.5837 300.112 57.0428 300.497 56.49C300.905 55.9371 301.398 55.4324 301.975 54.9757C302.576 54.519 303.237 54.1584 303.958 53.894C304.679 53.6056 305.448 53.4614 306.265 53.4614ZM321.015 70.912C321.015 71.4408 320.846 71.8855 320.51 72.246C320.173 72.5825 319.741 72.7508 319.212 72.7508C318.707 72.7508 318.275 72.5825 317.914 72.246C317.577 71.8855 317.409 71.4408 317.409 70.912V55.4804C317.409 54.9516 317.577 54.519 317.914 54.1825C318.275 53.8219 318.707 53.6416 319.212 53.6416C319.741 53.6416 320.173 53.8219 320.51 54.1825C320.846 54.519 321.015 54.9516 321.015 55.4804V70.912ZM319.176 51.262C318.479 51.262 317.974 51.1418 317.662 50.9015C317.349 50.6371 317.193 50.2044 317.193 49.6035V49.0266C317.193 48.4257 317.361 48.0051 317.698 47.7647C318.034 47.5243 318.539 47.4041 319.212 47.4041C319.933 47.4041 320.45 47.5363 320.762 47.8007C321.075 48.0411 321.231 48.4497 321.231 49.0266V49.6035C321.231 50.2284 321.063 50.6611 320.726 50.9015C320.414 51.1418 319.897 51.262 319.176 51.262ZM335.419 53.4614C337.102 53.4614 338.592 53.882 339.89 54.7233C341.212 55.5646 342.258 56.7183 343.027 58.1846C343.796 59.6268 344.181 61.3093 344.181 63.2323C344.181 65.1552 343.796 66.8618 343.027 68.3521C342.258 69.8183 341.224 70.9721 339.926 71.8133C338.628 72.6546 337.162 73.0753 335.527 73.0753C334.614 73.0753 333.749 72.931 332.931 72.6426C332.114 72.3542 331.393 71.9816 330.768 71.5249C330.143 71.0442 329.626 70.5394 329.218 70.0106C328.833 69.4818 328.593 68.989 328.497 68.5323L329.47 68.0636V78.123C329.47 78.6518 329.29 79.0844 328.929 79.4209C328.593 79.7815 328.172 79.9618 327.667 79.9618C327.139 79.9618 326.706 79.7815 326.369 79.4209C326.033 79.0844 325.865 78.6518 325.865 78.123V55.5526C325.865 55.0478 326.033 54.6151 326.369 54.2546C326.706 53.894 327.139 53.7138 327.667 53.7138C328.172 53.7138 328.593 53.894 328.929 54.2546C329.29 54.6151 329.47 55.0478 329.47 55.5526V58.0403L328.893 57.7159C328.965 57.2592 329.194 56.7904 329.578 56.3097C329.963 55.8049 330.444 55.3362 331.021 54.9036C331.621 54.4709 332.294 54.1224 333.04 53.858C333.809 53.5936 334.602 53.4614 335.419 53.4614ZM335.023 56.7784C333.869 56.7784 332.859 57.0669 331.994 57.6437C331.153 58.1966 330.492 58.9537 330.011 59.9152C329.53 60.8767 329.29 61.9824 329.29 63.2323C329.29 64.4581 329.53 65.5758 330.011 66.5854C330.492 67.5709 331.153 68.3521 331.994 68.9289C332.859 69.4818 333.869 69.7582 335.023 69.7582C336.152 69.7582 337.138 69.4818 337.979 68.9289C338.82 68.3521 339.481 67.5709 339.962 66.5854C340.467 65.5758 340.719 64.4581 340.719 63.2323C340.719 62.0064 340.467 60.9127 339.962 59.9513C339.481 58.9658 338.82 58.1966 337.979 57.6437C337.138 57.0669 336.152 56.7784 335.023 56.7784Z" fill="black"/>
</svg>
