<svg width="558" height="34" viewBox="0 0 558 34" fill="none" xmlns="http://www.w3.org/2000/svg">
<path d="M9.25395 27.0057C7.52557 27.0057 5.98924 26.7657 4.64495 26.2856C3.30066 25.8055 2.01638 25.0133 0.792119 23.9091C0.528061 23.717 0.324017 23.489 0.179986 23.2249C0.0599603 22.9368 -5.27168e-05 22.6488 -5.27168e-05 22.3607C-5.27168e-05 21.9046 0.167984 21.4965 0.504056 21.1365C0.840129 20.7764 1.26022 20.5963 1.76433 20.5963C2.14841 20.5963 2.50849 20.7284 2.84456 20.9924C3.75676 21.8326 4.70496 22.4687 5.68918 22.9008C6.6974 23.3329 7.87365 23.549 9.21794 23.549C10.1781 23.549 11.0543 23.3929 11.8465 23.0809C12.6627 22.7688 13.3108 22.3487 13.7909 21.8206C14.271 21.2925 14.5111 20.6804 14.5111 19.9842C14.5111 19.12 14.259 18.4119 13.7549 17.8598C13.2748 17.2836 12.5667 16.8155 11.6305 16.4554C10.7183 16.0714 9.61403 15.7473 8.31775 15.4832C7.11749 15.2672 6.03725 14.9671 5.07704 14.583C4.14084 14.199 3.33667 13.7189 2.66452 13.1427C1.99238 12.5426 1.47627 11.8345 1.11619 11.0183C0.756111 10.2021 0.576072 9.25389 0.576072 8.17366C0.576072 6.70934 0.960155 5.44907 1.72832 4.39284C2.49649 3.33661 3.54071 2.52044 4.861 1.94431C6.18128 1.36819 7.66961 1.08012 9.32596 1.08012C10.8383 1.08012 12.2546 1.32018 13.5749 1.80028C14.8952 2.25638 15.9634 2.88051 16.7796 3.67269C17.3557 4.17679 17.6438 4.71691 17.6438 5.29303C17.6438 5.72513 17.4637 6.13322 17.1036 6.5173C16.7676 6.87738 16.3715 7.05742 15.9154 7.05742C15.5793 7.05742 15.2913 6.9614 15.0512 6.76935C14.6671 6.36127 14.151 6.00119 13.5029 5.68912C12.8547 5.35305 12.1586 5.07699 11.4144 4.86094C10.6943 4.6449 9.99811 4.53687 9.32596 4.53687C8.24573 4.53687 7.32153 4.69291 6.55336 5.00497C5.7852 5.29304 5.19707 5.70112 4.78898 6.22924C4.38089 6.73335 4.17685 7.33348 4.17685 8.02963C4.17685 8.8458 4.4049 9.51795 4.861 10.0461C5.3411 10.5742 6.00124 11.0063 6.84143 11.3423C7.68161 11.6544 8.64182 11.9425 9.72205 12.2065C11.0423 12.4946 12.2186 12.8187 13.2508 13.1787C14.307 13.5388 15.1952 14.0069 15.9154 14.583C16.6355 15.1352 17.1877 15.8313 17.5717 16.6715C17.9558 17.5117 18.1479 18.5559 18.1479 19.8042C18.1479 21.2445 17.7398 22.5048 16.9236 23.585C16.1074 24.6652 15.0272 25.5054 13.6829 26.1055C12.3626 26.7057 10.8863 27.0057 9.25395 27.0057ZM36.2944 7.70556C36.7985 7.70556 37.2186 7.8856 37.5547 8.24567C37.9147 8.58175 38.0948 9.01384 38.0948 9.54195V19.012C38.0948 21.5085 37.3986 23.465 36.0063 24.8813C34.614 26.2736 32.6456 26.9697 30.101 26.9697C27.5805 26.9697 25.6241 26.2736 24.2318 24.8813C22.8635 23.465 22.1793 21.5085 22.1793 19.012V9.54195C22.1793 9.01384 22.3474 8.58175 22.6834 8.24567C23.0195 7.8856 23.4516 7.70556 23.9797 7.70556C24.4838 7.70556 24.9039 7.8856 25.24 8.24567C25.6001 8.58175 25.7801 9.01384 25.7801 9.54195V19.012C25.7801 20.5723 26.1402 21.7366 26.8603 22.5048C27.6045 23.2729 28.6847 23.657 30.101 23.657C31.5414 23.657 32.6336 23.2729 33.3778 22.5048C34.1219 21.7366 34.494 20.5723 34.494 19.012V9.54195C34.494 9.01384 34.662 8.58175 34.9981 8.24567C35.3342 7.8856 35.7663 7.70556 36.2944 7.70556ZM52.6439 7.38149C54.3243 7.38149 55.8126 7.80158 57.1089 8.64176C58.4291 9.48194 59.4734 10.6342 60.2415 12.0985C61.0097 13.5388 61.3938 15.2192 61.3938 17.1396C61.3938 19.06 61.0097 20.7644 60.2415 22.2527C59.4734 23.717 58.4411 24.8693 57.1449 25.7094C55.8486 26.5496 54.3843 26.9697 52.7519 26.9697C51.8397 26.9697 50.9755 26.8257 50.1594 26.5376C49.3432 26.2496 48.623 25.8775 47.9989 25.4214C47.3747 24.9413 46.8586 24.4372 46.4505 23.9091C46.0665 23.3809 45.8264 22.8888 45.7304 22.4327L46.7026 21.9646V32.0108C46.7026 32.5389 46.5226 32.971 46.1625 33.3071C45.8264 33.6672 45.4063 33.8472 44.9022 33.8472C44.3741 33.8472 43.942 33.6672 43.6059 33.3071C43.2699 32.971 43.1018 32.5389 43.1018 32.0108V9.46994C43.1018 8.96583 43.2699 8.53374 43.6059 8.17366C43.942 7.81358 44.3741 7.63354 44.9022 7.63354C45.4063 7.63354 45.8264 7.81358 46.1625 8.17366C46.5226 8.53374 46.7026 8.96583 46.7026 9.46994V11.9545L46.1265 11.6304C46.1985 11.1743 46.4265 10.7062 46.8106 10.2261C47.1947 9.72199 47.6748 9.25389 48.2509 8.8218C48.8511 8.38971 49.5232 8.04163 50.2674 7.77757C51.0355 7.51352 51.8277 7.38149 52.6439 7.38149ZM52.2478 10.6942C51.0956 10.6942 50.0873 10.9823 49.2231 11.5584C48.383 12.1105 47.7228 12.8667 47.2427 13.8269C46.7626 14.7871 46.5226 15.8913 46.5226 17.1396C46.5226 18.3639 46.7626 19.4801 47.2427 20.4883C47.7228 21.4725 48.383 22.2527 49.2231 22.8288C50.0873 23.3809 51.0956 23.657 52.2478 23.657C53.376 23.657 54.3603 23.3809 55.2004 22.8288C56.0406 22.2527 56.7008 21.4725 57.1809 20.4883C57.685 19.4801 57.937 18.3639 57.937 17.1396C57.937 15.9153 57.685 14.8231 57.1809 13.8629C56.7008 12.8787 56.0406 12.1105 55.2004 11.5584C54.3603 10.9823 53.376 10.6942 52.2478 10.6942ZM74.2879 27.0057C72.2955 27.0057 70.5671 26.5976 69.1028 25.7815C67.6385 24.9413 66.4983 23.801 65.6821 22.3607C64.8899 20.8964 64.4938 19.228 64.4938 17.3556C64.4938 15.2432 64.9139 13.4428 65.7541 11.9545C66.6183 10.4421 67.7345 9.2899 69.1028 8.49773C70.4711 7.68155 71.9234 7.27346 73.4598 7.27346C74.636 7.27346 75.7523 7.51352 76.8085 7.99362C77.8647 8.44972 78.8009 9.09786 79.6171 9.93804C80.4573 10.7542 81.1174 11.7264 81.5975 12.8547C82.0776 13.9589 82.3297 15.1712 82.3537 16.4915C82.3297 16.9716 82.1376 17.3676 81.7776 17.6797C81.4175 17.9918 80.9974 18.1478 80.5173 18.1478H66.5103L65.6461 15.0872H79.185L78.5009 15.7353V14.8351C78.4528 13.9949 78.1768 13.2628 77.6727 12.6386C77.1686 11.9905 76.5444 11.4984 75.8003 11.1623C75.0561 10.8022 74.2759 10.6222 73.4598 10.6222C72.7396 10.6222 72.0435 10.7422 71.3713 10.9823C70.7232 11.1983 70.135 11.5584 69.6069 12.0625C69.1028 12.5666 68.6947 13.2388 68.3827 14.0789C68.0946 14.8951 67.9506 15.9153 67.9506 17.1396C67.9506 18.4599 68.2266 19.6121 68.7788 20.5963C69.3309 21.5806 70.075 22.3487 71.0112 22.9008C71.9474 23.429 72.9797 23.693 74.1079 23.693C74.9961 23.693 75.7283 23.609 76.3044 23.441C76.8805 23.2489 77.3606 23.0209 77.7447 22.7568C78.1288 22.4928 78.4648 22.2407 78.7529 22.0006C79.113 21.7846 79.4731 21.6766 79.8331 21.6766C80.2652 21.6766 80.6253 21.8326 80.9134 22.1447C81.2014 22.4327 81.3455 22.7808 81.3455 23.1889C81.3455 23.717 81.0814 24.1971 80.5533 24.6292C79.9052 25.2534 79.005 25.8055 77.8527 26.2856C76.7245 26.7657 75.5362 27.0057 74.2879 27.0057ZM88.2241 26.6457C87.696 26.6457 87.2639 26.4776 86.9278 26.1415C86.5917 25.7815 86.4237 25.3374 86.4237 24.8093V9.54195C86.4237 9.01384 86.5917 8.58175 86.9278 8.24567C87.2639 7.8856 87.696 7.70556 88.2241 7.70556C88.7282 7.70556 89.1483 7.8856 89.4844 8.24567C89.8444 8.58175 90.0245 9.01384 90.0245 9.54195V13.5748L89.6644 12.0265C89.8564 11.3543 90.1445 10.7302 90.5286 10.1541C90.9367 9.57796 91.4168 9.07385 91.9689 8.64176C92.521 8.20967 93.1331 7.87359 93.8053 7.63354C94.5014 7.39349 95.2216 7.27346 95.9658 7.27346C96.5899 7.27346 97.13 7.4415 97.5861 7.77757C98.0422 8.11364 98.2703 8.53374 98.2703 9.03785C98.2703 9.68599 98.1022 10.1661 97.7661 10.4782C97.4301 10.7662 97.058 10.9103 96.6499 10.9103C96.2898 10.9103 95.9417 10.8382 95.6057 10.6942C95.2696 10.5262 94.8735 10.4421 94.4174 10.4421C93.9133 10.4421 93.3972 10.5742 92.8691 10.8382C92.341 11.1023 91.8609 11.4984 91.4288 12.0265C90.9967 12.5306 90.6486 13.1307 90.3845 13.8269C90.1445 14.523 90.0245 15.3032 90.0245 16.1674V24.8093C90.0245 25.3374 89.8444 25.7815 89.4844 26.1415C89.1483 26.4776 88.7282 26.6457 88.2241 26.6457ZM102.662 17.3196C102.158 17.3196 101.726 17.1516 101.366 16.8155C101.03 16.4554 100.862 16.0234 100.862 15.5192C100.862 14.9911 101.03 14.571 101.366 14.259C101.726 13.9229 102.158 13.7549 102.662 13.7549H109.432C109.936 13.7549 110.368 13.9349 110.728 14.295C111.088 14.6311 111.268 15.0631 111.268 15.5913C111.268 16.0714 111.088 16.4795 110.728 16.8155C110.368 17.1516 109.936 17.3196 109.432 17.3196H102.662ZM117.877 1.4402H130.336C130.84 1.4402 131.26 1.60824 131.596 1.94431C131.956 2.28038 132.136 2.70047 132.136 3.20458C132.136 3.70869 131.956 4.11678 131.596 4.42885C131.26 4.74092 130.84 4.89695 130.336 4.89695H119.462L119.822 4.28482V12.3506L119.498 11.9905H128.716C129.22 11.9905 129.64 12.1585 129.976 12.4946C130.336 12.8307 130.516 13.2628 130.516 13.7909C130.516 14.295 130.336 14.7031 129.976 15.0151C129.64 15.3272 129.22 15.4832 128.716 15.4832H119.57L119.822 15.1592V23.477L119.57 23.1889H130.336C130.84 23.1889 131.26 23.3689 131.596 23.729C131.956 24.0651 132.136 24.4612 132.136 24.9173C132.136 25.4214 131.956 25.8415 131.596 26.1776C131.26 26.4896 130.84 26.6457 130.336 26.6457H117.877C117.373 26.6457 116.941 26.4776 116.581 26.1415C116.221 25.7815 116.041 25.3374 116.041 24.8093V3.2766C116.041 2.74849 116.221 2.31639 116.581 1.98032C116.941 1.62024 117.373 1.4402 117.877 1.4402ZM145.722 7.38149C147.498 7.38149 148.866 7.82558 149.827 8.71378C150.787 9.57796 151.423 10.7542 151.735 12.2425L151.159 12.0625L151.411 11.4864C151.723 10.8622 152.191 10.2381 152.815 9.61397C153.463 8.96583 154.232 8.43772 155.12 8.02963C156.008 7.59753 156.956 7.38149 157.964 7.38149C159.621 7.38149 160.905 7.74157 161.817 8.46172C162.729 9.15787 163.366 10.1061 163.726 11.3063C164.086 12.4826 164.266 13.8029 164.266 15.2672V24.8093C164.266 25.3374 164.098 25.7815 163.762 26.1415C163.426 26.4776 162.993 26.6457 162.465 26.6457C161.961 26.6457 161.529 26.4776 161.169 26.1415C160.833 25.7815 160.665 25.3374 160.665 24.8093V15.3032C160.665 14.463 160.545 13.6949 160.305 12.9987C160.089 12.3026 159.693 11.7504 159.117 11.3423C158.565 10.9103 157.796 10.6942 156.812 10.6942C155.876 10.6942 155.036 10.9103 154.292 11.3423C153.571 11.7504 153.007 12.3026 152.599 12.9987C152.191 13.6949 151.987 14.463 151.987 15.3032V24.8093C151.987 25.3374 151.819 25.7815 151.483 26.1415C151.147 26.4776 150.715 26.6457 150.187 26.6457C149.659 26.6457 149.227 26.4776 148.89 26.1415C148.554 25.7815 148.386 25.3374 148.386 24.8093V15.2672C148.386 14.427 148.266 13.6588 148.026 12.9627C147.81 12.2665 147.426 11.7144 146.874 11.3063C146.322 10.8982 145.554 10.6942 144.57 10.6942C143.633 10.6942 142.805 10.8982 142.085 11.3063C141.365 11.7144 140.801 12.2665 140.393 12.9627C140.009 13.6588 139.816 14.427 139.816 15.2672V24.8093C139.816 25.3374 139.636 25.7815 139.276 26.1415C138.94 26.4776 138.52 26.6457 138.016 26.6457C137.488 26.6457 137.056 26.4776 136.72 26.1415C136.384 25.7815 136.216 25.3374 136.216 24.8093V9.54195C136.216 9.01384 136.384 8.58175 136.72 8.24567C137.056 7.8856 137.488 7.70556 138.016 7.70556C138.52 7.70556 138.94 7.8856 139.276 8.24567C139.636 8.58175 139.816 9.01384 139.816 9.54195V11.6664L139.132 12.0625C139.3 11.5344 139.576 10.9943 139.961 10.4421C140.345 9.89003 140.825 9.38592 141.401 8.92982C142.001 8.47372 142.661 8.10164 143.381 7.81358C144.101 7.52552 144.882 7.38149 145.722 7.38149ZM178.847 7.38149C180.527 7.38149 182.016 7.80158 183.312 8.64176C184.632 9.48194 185.676 10.6342 186.445 12.0985C187.213 13.5388 187.597 15.2192 187.597 17.1396C187.597 19.06 187.213 20.7644 186.445 22.2527C185.676 23.717 184.644 24.8693 183.348 25.7094C182.052 26.5496 180.587 26.9697 178.955 26.9697C178.043 26.9697 177.179 26.8257 176.362 26.5376C175.546 26.2496 174.826 25.8775 174.202 25.4214C173.578 24.9413 173.062 24.4372 172.654 23.9091C172.27 23.3809 172.029 22.8888 171.933 22.4327L172.906 21.9646V32.0108C172.906 32.5389 172.726 32.971 172.366 33.3071C172.029 33.6672 171.609 33.8472 171.105 33.8472C170.577 33.8472 170.145 33.6672 169.809 33.3071C169.473 32.971 169.305 32.5389 169.305 32.0108V9.46994C169.305 8.96583 169.473 8.53374 169.809 8.17366C170.145 7.81358 170.577 7.63354 171.105 7.63354C171.609 7.63354 172.029 7.81358 172.366 8.17366C172.726 8.53374 172.906 8.96583 172.906 9.46994V11.9545L172.33 11.6304C172.402 11.1743 172.63 10.7062 173.014 10.2261C173.398 9.72199 173.878 9.25389 174.454 8.8218C175.054 8.38971 175.726 8.04163 176.47 7.77757C177.239 7.51352 178.031 7.38149 178.847 7.38149ZM178.451 10.6942C177.299 10.6942 176.29 10.9823 175.426 11.5584C174.586 12.1105 173.926 12.8667 173.446 13.8269C172.966 14.7871 172.726 15.8913 172.726 17.1396C172.726 18.3639 172.966 19.4801 173.446 20.4883C173.926 21.4725 174.586 22.2527 175.426 22.8288C176.29 23.3809 177.299 23.657 178.451 23.657C179.579 23.657 180.563 23.3809 181.404 22.8288C182.244 22.2527 182.904 21.4725 183.384 20.4883C183.888 19.4801 184.14 18.3639 184.14 17.1396C184.14 15.9153 183.888 14.8231 183.384 13.8629C182.904 12.8787 182.244 12.1105 181.404 11.5584C180.563 10.9823 179.579 10.6942 178.451 10.6942ZM195.558 24.8093C195.558 25.3374 195.378 25.7815 195.018 26.1415C194.682 26.4776 194.262 26.6457 193.758 26.6457C193.253 26.6457 192.821 26.4776 192.461 26.1415C192.125 25.7815 191.957 25.3374 191.957 24.8093V1.83629C191.957 1.30817 192.137 0.876081 192.497 0.540008C192.857 0.179931 193.289 -0.000107788 193.794 -0.000107788C194.322 -0.000107788 194.742 0.179931 195.054 0.540008C195.39 0.876081 195.558 1.30817 195.558 1.83629V24.8093ZM218.713 17.1756C218.713 19.096 218.293 20.8004 217.453 22.2887C216.613 23.753 215.473 24.9053 214.032 25.7455C212.592 26.5856 210.972 27.0057 209.171 27.0057C207.371 27.0057 205.751 26.5856 204.31 25.7455C202.87 24.9053 201.718 23.753 200.854 22.2887C200.013 20.8004 199.593 19.096 199.593 17.1756C199.593 15.2312 200.013 13.5268 200.854 12.0625C201.718 10.5742 202.87 9.40993 204.31 8.56974C205.751 7.70556 207.371 7.27346 209.171 7.27346C210.972 7.27346 212.592 7.70556 214.032 8.56974C215.473 9.40993 216.613 10.5742 217.453 12.0625C218.293 13.5268 218.713 15.2312 218.713 17.1756ZM215.113 17.1756C215.113 15.8553 214.849 14.7151 214.321 13.7549C213.792 12.7707 213.072 12.0025 212.16 11.4504C211.272 10.8742 210.276 10.5862 209.171 10.5862C208.067 10.5862 207.059 10.8742 206.147 11.4504C205.235 12.0025 204.514 12.7707 203.986 13.7549C203.458 14.7151 203.194 15.8553 203.194 17.1756C203.194 18.4479 203.458 19.5761 203.986 20.5603C204.514 21.5445 205.235 22.3127 206.147 22.8648C207.059 23.417 208.067 23.693 209.171 23.693C210.276 23.693 211.272 23.417 212.16 22.8648C213.072 22.3127 213.792 21.5445 214.321 20.5603C214.849 19.5761 215.113 18.4479 215.113 17.1756ZM236.868 7.56153C237.396 7.56153 237.828 7.74156 238.164 8.10164C238.5 8.43771 238.669 8.86981 238.669 9.39792V24.8813C238.669 26.9937 238.26 28.7101 237.444 30.0304C236.652 31.3507 235.572 32.3109 234.204 32.911C232.859 33.5351 231.335 33.8472 229.631 33.8472C228.766 33.8472 227.902 33.7632 227.038 33.5952C226.174 33.4511 225.466 33.2351 224.914 32.947C224.337 32.683 223.929 32.3589 223.689 31.9748C223.449 31.5907 223.413 31.1706 223.581 30.7145C223.749 30.1384 224.037 29.7423 224.445 29.5263C224.854 29.3342 225.274 29.3222 225.706 29.4903C226.114 29.6583 226.654 29.8743 227.326 30.1384C227.998 30.4025 228.766 30.5345 229.631 30.5345C230.807 30.5345 231.803 30.3425 232.619 29.9584C233.435 29.5743 234.048 28.9742 234.456 28.158C234.888 27.3418 235.104 26.2856 235.104 24.9893V22.5048L235.68 23.3689C235.296 24.1611 234.792 24.8213 234.168 25.3494C233.543 25.8775 232.799 26.2856 231.935 26.5736C231.095 26.8617 230.159 27.0057 229.126 27.0057C227.806 27.0057 226.666 26.7177 225.706 26.1415C224.77 25.5414 224.049 24.7252 223.545 23.693C223.041 22.6368 222.789 21.4365 222.789 20.0922V9.39792C222.789 8.86981 222.957 8.43771 223.293 8.10164C223.629 7.74156 224.061 7.56153 224.589 7.56153C225.094 7.56153 225.514 7.74156 225.85 8.10164C226.21 8.43771 226.39 8.86981 226.39 9.39792V19.12C226.39 20.7044 226.738 21.8686 227.434 22.6128C228.13 23.3329 229.162 23.693 230.531 23.693C231.443 23.693 232.235 23.501 232.907 23.1169C233.579 22.7328 234.108 22.2047 234.492 21.5325C234.876 20.8364 235.068 20.0322 235.068 19.12V9.39792C235.068 8.86981 235.236 8.43771 235.572 8.10164C235.932 7.74156 236.364 7.56153 236.868 7.56153ZM252.358 27.0057C250.365 27.0057 248.637 26.5976 247.173 25.7815C245.708 24.9413 244.568 23.801 243.752 22.3607C242.96 20.8964 242.564 19.228 242.564 17.3556C242.564 15.2432 242.984 13.4428 243.824 11.9545C244.688 10.4421 245.804 9.2899 247.173 8.49773C248.541 7.68155 249.993 7.27346 251.53 7.27346C252.706 7.27346 253.822 7.51352 254.878 7.99362C255.934 8.44972 256.871 9.09786 257.687 9.93804C258.527 10.7542 259.187 11.7264 259.667 12.8547C260.147 13.9589 260.399 15.1712 260.423 16.4915C260.399 16.9716 260.207 17.3676 259.847 17.6797C259.487 17.9918 259.067 18.1478 258.587 18.1478H244.58L243.716 15.0872H257.255L256.571 15.7353V14.8351C256.523 13.9949 256.247 13.2628 255.742 12.6386C255.238 11.9905 254.614 11.4984 253.87 11.1623C253.126 10.8022 252.346 10.6222 251.53 10.6222C250.809 10.6222 250.113 10.7422 249.441 10.9823C248.793 11.1983 248.205 11.5584 247.677 12.0625C247.173 12.5666 246.764 13.2388 246.452 14.0789C246.164 14.8951 246.02 15.9153 246.02 17.1396C246.02 18.4599 246.296 19.6121 246.848 20.5963C247.401 21.5806 248.145 22.3487 249.081 22.9008C250.017 23.429 251.049 23.693 252.178 23.693C253.066 23.693 253.798 23.609 254.374 23.441C254.95 23.2489 255.43 23.0209 255.814 22.7568C256.199 22.4928 256.535 22.2407 256.823 22.0006C257.183 21.7846 257.543 21.6766 257.903 21.6766C258.335 21.6766 258.695 21.8326 258.983 22.1447C259.271 22.4327 259.415 22.7808 259.415 23.1889C259.415 23.717 259.151 24.1971 258.623 24.6292C257.975 25.2534 257.075 25.8055 255.922 26.2856C254.794 26.7657 253.606 27.0057 252.358 27.0057ZM273.315 27.0057C271.323 27.0057 269.595 26.5976 268.13 25.7815C266.666 24.9413 265.526 23.801 264.709 22.3607C263.917 20.8964 263.521 19.228 263.521 17.3556C263.521 15.2432 263.941 13.4428 264.781 11.9545C265.646 10.4421 266.762 9.2899 268.13 8.49773C269.499 7.68155 270.951 7.27346 272.487 7.27346C273.663 7.27346 274.78 7.51352 275.836 7.99362C276.892 8.44972 277.828 9.09786 278.644 9.93804C279.485 10.7542 280.145 11.7264 280.625 12.8547C281.105 13.9589 281.357 15.1712 281.381 16.4915C281.357 16.9716 281.165 17.3676 280.805 17.6797C280.445 17.9918 280.025 18.1478 279.545 18.1478H265.538L264.673 15.0872H278.212L277.528 15.7353V14.8351C277.48 13.9949 277.204 13.2628 276.7 12.6386C276.196 11.9905 275.572 11.4984 274.828 11.1623C274.084 10.8022 273.303 10.6222 272.487 10.6222C271.767 10.6222 271.071 10.7422 270.399 10.9823C269.751 11.1983 269.162 11.5584 268.634 12.0625C268.13 12.5666 267.722 13.2388 267.41 14.0789C267.122 14.8951 266.978 15.9153 266.978 17.1396C266.978 18.4599 267.254 19.6121 267.806 20.5963C268.358 21.5806 269.102 22.3487 270.039 22.9008C270.975 23.429 272.007 23.693 273.135 23.693C274.023 23.693 274.756 23.609 275.332 23.441C275.908 23.2489 276.388 23.0209 276.772 22.7568C277.156 22.4928 277.492 22.2407 277.78 22.0006C278.14 21.7846 278.5 21.6766 278.861 21.6766C279.293 21.6766 279.653 21.8326 279.941 22.1447C280.229 22.4327 280.373 22.7808 280.373 23.1889C280.373 23.717 280.109 24.1971 279.581 24.6292C278.933 25.2534 278.032 25.8055 276.88 26.2856C275.752 26.7657 274.564 27.0057 273.315 27.0057ZM304.079 26.6457C303.503 26.6457 303.034 26.4776 302.674 26.1415C302.338 25.7815 302.17 25.3374 302.17 24.8093V3.24059H306.023V24.8093C306.023 25.3374 305.831 25.7815 305.447 26.1415C305.087 26.4776 304.631 26.6457 304.079 26.6457ZM295.905 4.89695C295.401 4.89695 294.969 4.74092 294.609 4.42885C294.249 4.09278 294.068 3.66068 294.068 3.13257C294.068 2.62846 294.249 2.22037 294.609 1.9083C294.969 1.59624 295.401 1.4402 295.905 1.4402H312.288C312.793 1.4402 313.213 1.60824 313.549 1.94431C313.909 2.25638 314.089 2.66447 314.089 3.16858C314.089 3.69669 313.909 4.11678 313.549 4.42885C313.213 4.74092 312.793 4.89695 312.288 4.89695H295.905ZM317.422 26.6457C316.894 26.6457 316.462 26.4776 316.126 26.1415C315.79 25.7815 315.622 25.3374 315.622 24.8093V9.54195C315.622 9.01384 315.79 8.58175 316.126 8.24567C316.462 7.8856 316.894 7.70556 317.422 7.70556C317.926 7.70556 318.346 7.8856 318.682 8.24567C319.042 8.58175 319.222 9.01384 319.222 9.54195V13.5748L318.862 12.0265C319.054 11.3543 319.342 10.7302 319.727 10.1541C320.135 9.57796 320.615 9.07385 321.167 8.64176C321.719 8.20967 322.331 7.87359 323.003 7.63354C323.699 7.39349 324.42 7.27346 325.164 7.27346C325.788 7.27346 326.328 7.4415 326.784 7.77757C327.24 8.11364 327.468 8.53374 327.468 9.03785C327.468 9.68599 327.3 10.1661 326.964 10.4782C326.628 10.7662 326.256 10.9103 325.848 10.9103C325.488 10.9103 325.14 10.8382 324.804 10.6942C324.468 10.5262 324.071 10.4421 323.615 10.4421C323.111 10.4421 322.595 10.5742 322.067 10.8382C321.539 11.1023 321.059 11.4984 320.627 12.0265C320.195 12.5306 319.847 13.1307 319.583 13.8269C319.342 14.523 319.222 15.3032 319.222 16.1674V24.8093C319.222 25.3374 319.042 25.7815 318.682 26.1415C318.346 26.4776 317.926 26.6457 317.422 26.6457ZM345.769 7.41749C346.297 7.41749 346.729 7.59753 347.065 7.95761C347.402 8.29368 347.57 8.72578 347.57 9.25389V24.8093C347.57 25.3374 347.402 25.7815 347.065 26.1415C346.729 26.4776 346.297 26.6457 345.769 26.6457C345.265 26.6457 344.833 26.4776 344.473 26.1415C344.137 25.7815 343.969 25.3374 343.969 24.8093V22.2167L344.725 22.3247C344.725 22.7568 344.545 23.2369 344.185 23.765C343.849 24.2931 343.381 24.8093 342.781 25.3134C342.18 25.7935 341.472 26.2016 340.656 26.5376C339.84 26.8497 338.964 27.0057 338.028 27.0057C336.371 27.0057 334.883 26.5856 333.563 25.7455C332.242 24.8813 331.198 23.705 330.43 22.2167C329.662 20.7284 329.278 19.036 329.278 17.1396C329.278 15.1952 329.662 13.4908 330.43 12.0265C331.198 10.5382 332.23 9.37392 333.527 8.53374C334.847 7.69355 336.311 7.27346 337.919 7.27346C338.952 7.27346 339.9 7.4415 340.764 7.77757C341.652 8.11364 342.42 8.54574 343.069 9.07385C343.717 9.60197 344.209 10.1661 344.545 10.7662C344.905 11.3423 345.085 11.8945 345.085 12.4226L343.969 12.5306V9.25389C343.969 8.74978 344.137 8.31769 344.473 7.95761C344.833 7.59753 345.265 7.41749 345.769 7.41749ZM338.424 23.693C339.552 23.693 340.548 23.405 341.412 22.8288C342.276 22.2527 342.949 21.4725 343.429 20.4883C343.909 19.4801 344.149 18.3639 344.149 17.1396C344.149 15.8913 343.909 14.7751 343.429 13.7909C342.949 12.8067 342.276 12.0265 341.412 11.4504C340.548 10.8742 339.552 10.5862 338.424 10.5862C337.319 10.5862 336.335 10.8742 335.471 11.4504C334.631 12.0265 333.959 12.8067 333.455 13.7909C332.974 14.7751 332.734 15.8913 332.734 17.1396C332.734 18.3639 332.974 19.4801 333.455 20.4883C333.959 21.4725 334.631 22.2527 335.471 22.8288C336.335 23.405 337.319 23.693 338.424 23.693ZM362.372 7.27346C364.077 7.27346 365.397 7.63354 366.333 8.3537C367.269 9.04985 367.917 9.99805 368.277 11.1983C368.662 12.3746 368.854 13.6949 368.854 15.1592V24.8093C368.854 25.3374 368.674 25.7815 368.313 26.1415C367.977 26.4776 367.557 26.6457 367.053 26.6457C366.525 26.6457 366.093 26.4776 365.757 26.1415C365.421 25.7815 365.253 25.3374 365.253 24.8093V15.1952C365.253 14.331 365.133 13.5628 364.893 12.8907C364.653 12.1945 364.233 11.6424 363.632 11.2343C363.056 10.8022 362.24 10.5862 361.184 10.5862C360.2 10.5862 359.335 10.8022 358.591 11.2343C357.847 11.6424 357.259 12.1945 356.827 12.8907C356.419 13.5628 356.215 14.331 356.215 15.1952V24.8093C356.215 25.3374 356.035 25.7815 355.675 26.1415C355.339 26.4776 354.919 26.6457 354.414 26.6457C353.886 26.6457 353.454 26.4776 353.118 26.1415C352.782 25.7815 352.614 25.3374 352.614 24.8093V9.54195C352.614 9.01384 352.782 8.58175 353.118 8.24567C353.454 7.8856 353.886 7.70556 354.414 7.70556C354.919 7.70556 355.339 7.8856 355.675 8.24567C356.035 8.58175 356.215 9.01384 356.215 9.54195V11.5584L355.567 11.9185C355.735 11.3904 356.023 10.8622 356.431 10.3341C356.863 9.78201 357.379 9.2779 357.979 8.8218C358.579 8.34169 359.251 7.96961 359.996 7.70556C360.74 7.41749 361.532 7.27346 362.372 7.27346ZM372.737 23.693C372.521 23.3569 372.425 22.9729 372.449 22.5408C372.473 22.0847 372.725 21.7006 373.205 21.3885C373.541 21.1725 373.889 21.0885 374.249 21.1365C374.633 21.1605 374.993 21.3405 375.329 21.6766C376.001 22.4207 376.746 23.0089 377.562 23.441C378.402 23.8731 379.41 24.0891 380.586 24.0891C381.067 24.0651 381.559 23.9931 382.063 23.8731C382.567 23.729 382.999 23.489 383.359 23.1529C383.719 22.7928 383.899 22.2767 383.899 21.6046C383.899 21.0044 383.707 20.5243 383.323 20.1643C382.939 19.8042 382.435 19.5161 381.811 19.3001C381.187 19.06 380.514 18.844 379.794 18.6519C379.026 18.4359 378.246 18.1958 377.454 17.9318C376.686 17.6677 375.989 17.3316 375.365 16.9236C374.741 16.4915 374.225 15.9393 373.817 15.2672C373.433 14.595 373.241 13.7669 373.241 12.7827C373.241 11.6544 373.553 10.6822 374.177 9.86602C374.825 9.04985 375.653 8.41371 376.662 7.95761C377.694 7.50151 378.81 7.27346 380.01 7.27346C380.706 7.27346 381.439 7.36948 382.207 7.56153C382.975 7.72956 383.719 8.00562 384.439 8.3897C385.159 8.77379 385.784 9.2779 386.312 9.90203C386.552 10.2141 386.684 10.5862 386.708 11.0183C386.756 11.4504 386.564 11.8345 386.132 12.1705C385.844 12.4106 385.496 12.5186 385.087 12.4946C384.679 12.4706 384.343 12.3386 384.079 12.0985C383.623 11.5224 383.035 11.0783 382.315 10.7662C381.595 10.4301 380.778 10.2621 379.866 10.2621C379.41 10.2621 378.93 10.3341 378.426 10.4782C377.946 10.5982 377.538 10.8262 377.202 11.1623C376.866 11.4984 376.698 11.9905 376.698 12.6386C376.698 13.2388 376.89 13.7189 377.274 14.0789C377.682 14.439 378.21 14.7391 378.858 14.9791C379.506 15.2192 380.214 15.4352 380.983 15.6273C381.727 15.8193 382.459 16.0474 383.179 16.3114C383.923 16.5755 384.583 16.9235 385.159 17.3556C385.76 17.7637 386.24 18.3038 386.6 18.976C386.984 19.6241 387.176 20.4523 387.176 21.4605C387.176 22.6368 386.828 23.645 386.132 24.4852C385.46 25.3014 384.595 25.9255 383.539 26.3576C382.507 26.7897 381.415 27.0057 380.262 27.0057C378.894 27.0057 377.526 26.7657 376.157 26.2856C374.813 25.7815 373.673 24.9173 372.737 23.693ZM399.87 0.0358995C400.326 0.0358995 400.794 0.0959124 401.274 0.215938C401.754 0.335964 402.151 0.540008 402.463 0.828071C402.799 1.09213 402.967 1.46421 402.967 1.94431C402.967 2.42442 402.823 2.8205 402.535 3.13257C402.247 3.42063 401.91 3.56466 401.526 3.56466C401.286 3.56466 400.962 3.51665 400.554 3.42063C400.146 3.3006 399.738 3.24059 399.33 3.24059C398.778 3.24059 398.334 3.37262 397.998 3.63668C397.662 3.87673 397.422 4.1888 397.277 4.57288C397.133 4.93296 397.061 5.29304 397.061 5.65311V24.8093C397.061 25.3374 396.881 25.7815 396.521 26.1415C396.185 26.4776 395.765 26.6457 395.261 26.6457C394.733 26.6457 394.301 26.4776 393.965 26.1415C393.629 25.7815 393.461 25.3374 393.461 24.8093V5.68912C393.461 4.03276 394.001 2.67647 395.081 1.62024C396.185 0.564013 397.782 0.0358995 399.87 0.0358995ZM400.59 8.02963C401.07 8.02963 401.466 8.18566 401.778 8.49773C402.091 8.8098 402.247 9.20588 402.247 9.68599C402.247 10.1661 402.091 10.5622 401.778 10.8742C401.466 11.1863 401.07 11.3423 400.59 11.3423H391.264C390.808 11.3423 390.412 11.1863 390.076 10.8742C389.764 10.5622 389.608 10.1661 389.608 9.68599C389.608 9.20588 389.764 8.8098 390.076 8.49773C390.412 8.18566 390.808 8.02963 391.264 8.02963H400.59ZM422.84 17.1756C422.84 19.096 422.42 20.8004 421.579 22.2887C420.739 23.753 419.599 24.9053 418.159 25.7455C416.718 26.5856 415.098 27.0057 413.298 27.0057C411.497 27.0057 409.877 26.5856 408.437 25.7455C406.996 24.9053 405.844 23.753 404.98 22.2887C404.14 20.8004 403.719 19.096 403.719 17.1756C403.719 15.2312 404.14 13.5268 404.98 12.0625C405.844 10.5742 406.996 9.40993 408.437 8.56974C409.877 7.70556 411.497 7.27346 413.298 7.27346C415.098 7.27346 416.718 7.70556 418.159 8.56974C419.599 9.40993 420.739 10.5742 421.579 12.0625C422.42 13.5268 422.84 15.2312 422.84 17.1756ZM419.239 17.1756C419.239 15.8553 418.975 14.7151 418.447 13.7549C417.919 12.7707 417.198 12.0025 416.286 11.4504C415.398 10.8742 414.402 10.5862 413.298 10.5862C412.193 10.5862 411.185 10.8742 410.273 11.4504C409.361 12.0025 408.641 12.7707 408.112 13.7549C407.584 14.7151 407.32 15.8553 407.32 17.1756C407.32 18.4479 407.584 19.5761 408.112 20.5603C408.641 21.5445 409.361 22.3127 410.273 22.8648C411.185 23.417 412.193 23.693 413.298 23.693C414.402 23.693 415.398 23.417 416.286 22.8648C417.198 22.3127 417.919 21.5445 418.447 20.5603C418.975 19.5761 419.239 18.4479 419.239 17.1756ZM428.716 26.6457C428.188 26.6457 427.755 26.4776 427.419 26.1415C427.083 25.7815 426.915 25.3374 426.915 24.8093V9.54195C426.915 9.01384 427.083 8.58175 427.419 8.24567C427.755 7.8856 428.188 7.70556 428.716 7.70556C429.22 7.70556 429.64 7.8856 429.976 8.24567C430.336 8.58175 430.516 9.01384 430.516 9.54195V13.5748L430.156 12.0265C430.348 11.3543 430.636 10.7302 431.02 10.1541C431.428 9.57796 431.908 9.07385 432.46 8.64176C433.013 8.20967 433.625 7.87359 434.297 7.63354C434.993 7.39349 435.713 7.27346 436.457 7.27346C437.081 7.27346 437.622 7.4415 438.078 7.77757C438.534 8.11364 438.762 8.53374 438.762 9.03785C438.762 9.68599 438.594 10.1661 438.258 10.4782C437.922 10.7662 437.55 10.9103 437.141 10.9103C436.781 10.9103 436.433 10.8382 436.097 10.6942C435.761 10.5262 435.365 10.4421 434.909 10.4421C434.405 10.4421 433.889 10.5742 433.361 10.8382C432.833 11.1023 432.352 11.4984 431.92 12.0265C431.488 12.5306 431.14 13.1307 430.876 13.8269C430.636 14.523 430.516 15.3032 430.516 16.1674V24.8093C430.516 25.3374 430.336 25.7815 429.976 26.1415C429.64 26.4776 429.22 26.6457 428.716 26.6457ZM451.471 7.38149C453.248 7.38149 454.616 7.82558 455.576 8.71378C456.537 9.57796 457.173 10.7542 457.485 12.2425L456.909 12.0625L457.161 11.4864C457.473 10.8622 457.941 10.2381 458.565 9.61397C459.213 8.96583 459.981 8.43772 460.869 8.02963C461.758 7.59753 462.706 7.38149 463.714 7.38149C465.37 7.38149 466.655 7.74157 467.567 8.46172C468.479 9.15787 469.115 10.1061 469.475 11.3063C469.835 12.4826 470.015 13.8029 470.015 15.2672V24.8093C470.015 25.3374 469.847 25.7815 469.511 26.1415C469.175 26.4776 468.743 26.6457 468.215 26.6457C467.711 26.6457 467.279 26.4776 466.919 26.1415C466.583 25.7815 466.415 25.3374 466.415 24.8093V15.3032C466.415 14.463 466.295 13.6949 466.055 12.9987C465.839 12.3026 465.442 11.7504 464.866 11.3423C464.314 10.9103 463.546 10.6942 462.562 10.6942C461.626 10.6942 460.785 10.9103 460.041 11.3423C459.321 11.7504 458.757 12.3026 458.349 12.9987C457.941 13.6949 457.737 14.463 457.737 15.3032V24.8093C457.737 25.3374 457.569 25.7815 457.233 26.1415C456.897 26.4776 456.465 26.6457 455.936 26.6457C455.408 26.6457 454.976 26.4776 454.64 26.1415C454.304 25.7815 454.136 25.3374 454.136 24.8093V15.2672C454.136 14.427 454.016 13.6588 453.776 12.9627C453.56 12.2665 453.176 11.7144 452.624 11.3063C452.072 10.8982 451.303 10.6942 450.319 10.6942C449.383 10.6942 448.555 10.8982 447.835 11.3063C447.114 11.7144 446.55 12.2665 446.142 12.9627C445.758 13.6588 445.566 14.427 445.566 15.2672V24.8093C445.566 25.3374 445.386 25.7815 445.026 26.1415C444.69 26.4776 444.27 26.6457 443.766 26.6457C443.238 26.6457 442.806 26.4776 442.469 26.1415C442.133 25.7815 441.965 25.3374 441.965 24.8093V9.54195C441.965 9.01384 442.133 8.58175 442.469 8.24567C442.806 7.8856 443.238 7.70556 443.766 7.70556C444.27 7.70556 444.69 7.8856 445.026 8.24567C445.386 8.58175 445.566 9.01384 445.566 9.54195V11.6664L444.882 12.0625C445.05 11.5344 445.326 10.9943 445.71 10.4421C446.094 9.89003 446.574 9.38592 447.151 8.92982C447.751 8.47372 448.411 8.10164 449.131 7.81358C449.851 7.52552 450.631 7.38149 451.471 7.38149ZM490.574 7.41749C491.102 7.41749 491.534 7.59753 491.87 7.95761C492.206 8.29368 492.374 8.72578 492.374 9.25389V24.8093C492.374 25.3374 492.206 25.7815 491.87 26.1415C491.534 26.4776 491.102 26.6457 490.574 26.6457C490.07 26.6457 489.638 26.4776 489.278 26.1415C488.942 25.7815 488.774 25.3374 488.774 24.8093V22.2167L489.53 22.3247C489.53 22.7568 489.35 23.2369 488.99 23.765C488.654 24.2931 488.185 24.8093 487.585 25.3134C486.985 25.7935 486.277 26.2016 485.461 26.5376C484.645 26.8497 483.768 27.0057 482.832 27.0057C481.176 27.0057 479.688 26.5856 478.367 25.7455C477.047 24.8813 476.003 23.705 475.235 22.2167C474.466 20.7284 474.082 19.036 474.082 17.1396C474.082 15.1952 474.466 13.4908 475.235 12.0265C476.003 10.5382 477.035 9.37392 478.331 8.53374C479.652 7.69355 481.116 7.27346 482.724 7.27346C483.756 7.27346 484.705 7.4415 485.569 7.77757C486.457 8.11364 487.225 8.54574 487.873 9.07385C488.521 9.60197 489.014 10.1661 489.35 10.7662C489.71 11.3423 489.89 11.8945 489.89 12.4226L488.774 12.5306V9.25389C488.774 8.74978 488.942 8.31769 489.278 7.95761C489.638 7.59753 490.07 7.41749 490.574 7.41749ZM483.228 23.693C484.357 23.693 485.353 23.405 486.217 22.8288C487.081 22.2527 487.753 21.4725 488.233 20.4883C488.714 19.4801 488.954 18.3639 488.954 17.1396C488.954 15.8913 488.714 14.7751 488.233 13.7909C487.753 12.8067 487.081 12.0265 486.217 11.4504C485.353 10.8742 484.357 10.5862 483.228 10.5862C482.124 10.5862 481.14 10.8742 480.276 11.4504C479.436 12.0265 478.763 12.8067 478.259 13.7909C477.779 14.7751 477.539 15.8913 477.539 17.1396C477.539 18.3639 477.779 19.4801 478.259 20.4883C478.763 21.4725 479.436 22.2527 480.276 22.8288C481.14 23.405 482.124 23.693 483.228 23.693ZM497.167 7.9216H505.629C506.109 7.9216 506.505 8.08964 506.817 8.42571C507.153 8.73778 507.321 9.13387 507.321 9.61397C507.321 10.0701 507.153 10.4542 506.817 10.7662C506.505 11.0783 506.109 11.2343 505.629 11.2343H497.167C496.687 11.2343 496.279 11.0783 495.942 10.7662C495.63 10.4301 495.474 10.0341 495.474 9.57796C495.474 9.09786 495.63 8.70177 495.942 8.3897C496.279 8.07764 496.687 7.9216 497.167 7.9216ZM500.948 3.24059C501.476 3.24059 501.908 3.42063 502.244 3.78071C502.58 4.11678 502.748 4.54887 502.748 5.07699V21.7846C502.748 22.2167 502.82 22.5648 502.964 22.8288C503.108 23.0929 503.3 23.2729 503.54 23.3689C503.804 23.465 504.068 23.513 504.332 23.513C504.596 23.513 504.824 23.465 505.016 23.3689C505.232 23.2729 505.485 23.2249 505.773 23.2249C506.061 23.2249 506.325 23.3569 506.565 23.621C506.805 23.8851 506.925 24.2451 506.925 24.7012C506.925 25.2774 506.613 25.7455 505.989 26.1055C505.364 26.4656 504.692 26.6457 503.972 26.6457C503.564 26.6457 503.084 26.6096 502.532 26.5376C501.98 26.4656 501.44 26.2856 500.912 25.9975C500.407 25.7094 499.987 25.2534 499.651 24.6292C499.315 23.9811 499.147 23.0809 499.147 21.9286V5.07699C499.147 4.54887 499.315 4.11678 499.651 3.78071C500.011 3.42063 500.443 3.24059 500.948 3.24059ZM514.693 24.8093C514.693 25.3374 514.525 25.7815 514.189 26.1415C513.853 26.4776 513.421 26.6457 512.893 26.6457C512.389 26.6457 511.957 26.4776 511.597 26.1415C511.26 25.7815 511.092 25.3374 511.092 24.8093V9.39792C511.092 8.86981 511.26 8.43771 511.597 8.10164C511.957 7.74156 512.389 7.56153 512.893 7.56153C513.421 7.56153 513.853 7.74156 514.189 8.10164C514.525 8.43771 514.693 8.86981 514.693 9.39792V24.8093ZM512.857 5.18501C512.161 5.18501 511.657 5.06499 511.345 4.82494C511.032 4.56088 510.876 4.12878 510.876 3.52865V2.95253C510.876 2.3524 511.044 1.93231 511.381 1.69226C511.717 1.45221 512.221 1.33218 512.893 1.33218C513.613 1.33218 514.129 1.46421 514.441 1.72826C514.753 1.96832 514.909 2.3764 514.909 2.95253V3.52865C514.909 4.15279 514.741 4.58488 514.405 4.82494C514.093 5.06499 513.577 5.18501 512.857 5.18501ZM537.685 17.1756C537.685 19.096 537.265 20.8004 536.424 22.2887C535.584 23.753 534.444 24.9053 533.004 25.7455C531.563 26.5856 529.943 27.0057 528.143 27.0057C526.342 27.0057 524.722 26.5856 523.282 25.7455C521.841 24.9053 520.689 23.753 519.825 22.2887C518.985 20.8004 518.565 19.096 518.565 17.1756C518.565 15.2312 518.985 13.5268 519.825 12.0625C520.689 10.5742 521.841 9.40993 523.282 8.56974C524.722 7.70556 526.342 7.27346 528.143 7.27346C529.943 7.27346 531.563 7.70556 533.004 8.56974C534.444 9.40993 535.584 10.5742 536.424 12.0625C537.265 13.5268 537.685 15.2312 537.685 17.1756ZM534.084 17.1756C534.084 15.8553 533.82 14.7151 533.292 13.7549C532.764 12.7707 532.044 12.0025 531.131 11.4504C530.243 10.8742 529.247 10.5862 528.143 10.5862C527.038 10.5862 526.03 10.8742 525.118 11.4504C524.206 12.0025 523.486 12.7707 522.958 13.7549C522.429 14.7151 522.165 15.8553 522.165 17.1756C522.165 18.4479 522.429 19.5761 522.958 20.5603C523.486 21.5445 524.206 22.3127 525.118 22.8648C526.03 23.417 527.038 23.693 528.143 23.693C529.247 23.693 530.243 23.417 531.131 22.8648C532.044 22.3127 532.764 21.5445 533.292 20.5603C533.82 19.5761 534.084 18.4479 534.084 17.1756ZM551.518 7.27346C553.223 7.27346 554.543 7.63354 555.479 8.3537C556.416 9.04985 557.064 9.99805 557.424 11.1983C557.808 12.3746 558 13.6949 558 15.1592V24.8093C558 25.3374 557.82 25.7815 557.46 26.1415C557.124 26.4776 556.704 26.6457 556.2 26.6457C555.671 26.6457 555.239 26.4776 554.903 26.1415C554.567 25.7815 554.399 25.3374 554.399 24.8093V15.1952C554.399 14.331 554.279 13.5628 554.039 12.8907C553.799 12.1945 553.379 11.6424 552.779 11.2343C552.203 10.8022 551.386 10.5862 550.33 10.5862C549.346 10.5862 548.482 10.8022 547.738 11.2343C546.994 11.6424 546.405 12.1945 545.973 12.8907C545.565 13.5628 545.361 14.331 545.361 15.1952V24.8093C545.361 25.3374 545.181 25.7815 544.821 26.1415C544.485 26.4776 544.065 26.6457 543.561 26.6457C543.033 26.6457 542.601 26.4776 542.264 26.1415C541.928 25.7815 541.76 25.3374 541.76 24.8093V9.54195C541.76 9.01384 541.928 8.58175 542.264 8.24567C542.601 7.8856 543.033 7.70556 543.561 7.70556C544.065 7.70556 544.485 7.8856 544.821 8.24567C545.181 8.58175 545.361 9.01384 545.361 9.54195V11.5584L544.713 11.9185C544.881 11.3904 545.169 10.8622 545.577 10.3341C546.009 9.78201 546.525 9.2779 547.126 8.8218C547.726 8.34169 548.398 7.96961 549.142 7.70556C549.886 7.41749 550.678 7.27346 551.518 7.27346Z" fill="black"/>
</svg>
