<svg width="131" height="27" viewBox="0 0 131 27" fill="none" xmlns="http://www.w3.org/2000/svg">
<path d="M10.6694 1.30204C12.6948 1.30204 14.2742 1.85661 15.4074 2.96575C16.5648 4.05078 17.1435 5.56983 17.1435 7.52288C17.1435 8.53558 16.9265 9.50005 16.4924 10.4163C16.0584 11.3325 15.4195 12.08 14.5756 12.6587C13.7316 13.2133 12.6828 13.5267 11.429 13.5991L11.2843 12.8757C12.1764 12.8757 13.0445 13.0083 13.8884 13.2735C14.7564 13.5147 15.528 13.9125 16.2031 14.4671C16.8782 15.0217 17.4207 15.7209 17.8306 16.5648C18.2405 17.3846 18.4455 18.3853 18.4455 19.5667C18.4455 20.8205 18.2285 21.9056 17.7945 22.8218C17.3846 23.714 16.8179 24.4373 16.0946 24.9919C15.3954 25.5465 14.5876 25.9564 13.6714 26.2216C12.7551 26.4868 11.8027 26.6194 10.8141 26.6194H1.085C0.795656 26.6194 0.542482 26.5109 0.325476 26.2939C0.10847 26.0769 -3.32047e-05 25.8237 -3.32047e-05 25.5344V2.38707C-3.32047e-05 2.09773 0.10847 1.84455 0.325476 1.62755C0.542482 1.41054 0.795656 1.30204 1.085 1.30204H10.6694ZM10.3801 3.43593H1.88069L2.3147 2.78491V13.0204L1.91685 12.4779H10.3801C11.6339 12.4537 12.6828 12.0438 13.5267 11.2482C14.3947 10.4525 14.8287 9.27099 14.8287 7.70372C14.8287 6.37757 14.4429 5.34077 13.6714 4.5933C12.8998 3.82172 11.8027 3.43593 10.3801 3.43593ZM10.6333 14.6479H2.13386L2.3147 14.4309V24.811L2.09769 24.4855H10.7056C12.2488 24.4855 13.5387 24.0997 14.5756 23.3282C15.6124 22.5325 16.1308 21.2787 16.1308 19.5667C16.1308 18.3611 15.8776 17.3967 15.3712 16.6733C14.8649 15.95 14.1898 15.4316 13.3458 15.1181C12.5019 14.8046 11.5977 14.6479 10.6333 14.6479ZM31.3353 26.9811C29.4787 26.9811 27.8391 26.5833 26.4165 25.7876C24.9939 24.9919 23.8848 23.8827 23.0891 22.4601C22.2934 21.0375 21.8956 19.3738 21.8956 17.469C21.8956 15.4195 22.2934 13.6714 23.0891 12.2247C23.9089 10.778 24.9578 9.66883 26.2357 8.89726C27.5377 8.10157 28.9121 7.70372 30.3588 7.70372C31.4197 7.70372 32.4445 7.89662 33.4331 8.28241C34.4457 8.64408 35.3379 9.19865 36.1095 9.94612C36.9052 10.6695 37.5321 11.5616 37.9902 12.6225C38.4724 13.6834 38.7376 14.9132 38.7859 16.3116C38.7618 16.601 38.6412 16.8542 38.4242 17.0712C38.2072 17.2641 37.954 17.3605 37.6647 17.3605H23.1614L22.7274 15.4074H36.9775L36.5073 15.8415V15.1181C36.4109 13.9848 36.0492 13.0204 35.4223 12.2247C34.7954 11.429 34.0358 10.8262 33.1437 10.4163C32.2516 10.0064 31.3233 9.80145 30.3588 9.80145C29.6354 9.80145 28.888 9.94612 28.1164 10.2355C27.3689 10.5248 26.6817 10.9829 26.0548 11.6098C25.452 12.2126 24.9578 12.9963 24.572 13.9607C24.1862 14.9011 23.9933 16.0223 23.9933 17.3243C23.9933 18.7469 24.2826 20.0369 24.8613 21.1943C25.44 22.3516 26.2718 23.2679 27.3569 23.943C28.466 24.6182 29.7801 24.9557 31.2992 24.9557C32.1431 24.9557 32.9026 24.8352 33.5777 24.594C34.2529 24.3529 34.8436 24.0395 35.3499 23.6537C35.8563 23.2438 36.2782 22.8218 36.6158 22.3878C36.881 22.1708 37.1463 22.0623 37.4115 22.0623C37.6526 22.0623 37.8576 22.1587 38.0264 22.3516C38.2192 22.5445 38.3157 22.7615 38.3157 23.0027C38.3157 23.292 38.1951 23.5452 37.954 23.7622C37.2307 24.6302 36.2903 25.3897 35.1329 26.0407C33.9756 26.6677 32.7097 26.9811 31.3353 26.9811ZM52.1473 7.70372C53.7387 7.70372 55.0045 8.02923 55.9449 8.68025C56.9094 9.30716 57.5966 10.1752 58.0065 11.2843C58.4405 12.3694 58.6575 13.5749 58.6575 14.9011V25.5344C58.6575 25.8237 58.549 26.0769 58.332 26.2939C58.115 26.5109 57.8618 26.6194 57.5725 26.6194C57.2349 26.6194 56.9697 26.5109 56.7768 26.2939C56.5839 26.0769 56.4874 25.8237 56.4874 25.5344V15.0096C56.4874 14.0451 56.3307 13.165 56.0172 12.3694C55.7038 11.5737 55.1854 10.9347 54.462 10.4525C53.7628 9.97023 52.8345 9.72911 51.6771 9.72911C50.6403 9.72911 49.6517 9.97023 48.7114 10.4525C47.7951 10.9347 47.0476 11.5737 46.469 12.3694C45.8903 13.165 45.6009 14.0451 45.6009 15.0096V25.5344C45.6009 25.8237 45.4924 26.0769 45.2754 26.2939C45.0584 26.5109 44.8053 26.6194 44.5159 26.6194C44.1783 26.6194 43.9131 26.5109 43.7202 26.2939C43.5273 26.0769 43.4309 25.8237 43.4309 25.5344V9.33127C43.4309 9.04193 43.5273 8.78875 43.7202 8.57175C43.9372 8.35474 44.2025 8.24624 44.5159 8.24624C44.8294 8.24624 45.0825 8.35474 45.2754 8.57175C45.4924 8.78875 45.6009 9.04193 45.6009 9.33127V12.3694L44.7691 13.6714C44.8173 12.8998 45.0584 12.1644 45.4924 11.4652C45.9506 10.7418 46.5292 10.1028 47.2285 9.54827C47.9277 8.96959 48.6993 8.52352 49.5432 8.21007C50.4112 7.87251 51.2793 7.70372 52.1473 7.70372ZM72.6951 26.9811C70.8385 26.9811 69.1989 26.5833 67.7763 25.7876C66.3537 24.9919 65.2445 23.8827 64.4488 22.4601C63.6531 21.0375 63.2553 19.3738 63.2553 17.469C63.2553 15.4195 63.6531 13.6714 64.4488 12.2247C65.2686 10.778 66.3175 9.66883 67.5954 8.89726C68.8975 8.10157 70.2718 7.70372 71.7185 7.70372C72.7795 7.70372 73.8042 7.89662 74.7928 8.28241C75.8055 8.64408 76.6976 9.19865 77.4692 9.94612C78.2649 10.6695 78.8918 11.5616 79.3499 12.6225C79.8322 13.6834 80.0974 14.9132 80.1456 16.3116C80.1215 16.601 80.0009 16.8542 79.7839 17.0712C79.5669 17.2641 79.3138 17.3605 79.0244 17.3605H64.5212L64.0872 15.4074H78.3372L77.8671 15.8415V15.1181C77.7706 13.9848 77.4089 13.0204 76.782 12.2247C76.1551 11.429 75.3956 10.8262 74.5035 10.4163C73.6113 10.0064 72.683 9.80145 71.7185 9.80145C70.9952 9.80145 70.2477 9.94612 69.4761 10.2355C68.7287 10.5248 68.0415 10.9829 67.4146 11.6098C66.8118 12.2126 66.3175 12.9963 65.9317 13.9607C65.5459 14.9011 65.353 16.0223 65.353 17.3243C65.353 18.7469 65.6424 20.0369 66.2211 21.1943C66.7997 22.3516 67.6316 23.2679 68.7166 23.943C69.8258 24.6182 71.1399 24.9557 72.6589 24.9557C73.5028 24.9557 74.2623 24.8352 74.9375 24.594C75.6126 24.3529 76.2033 24.0395 76.7097 23.6537C77.216 23.2438 77.638 22.8218 77.9756 22.3878C78.2408 22.1708 78.506 22.0623 78.7712 22.0623C79.0124 22.0623 79.2173 22.1587 79.3861 22.3516C79.579 22.5445 79.6754 22.7615 79.6754 23.0027C79.6754 23.292 79.5549 23.5452 79.3138 23.7622C78.5904 24.6302 77.65 25.3897 76.4927 26.0407C75.3353 26.6677 74.0694 26.9811 72.6951 26.9811ZM91.4816 0C91.8433 0 92.2291 0.036168 92.639 0.108504C93.073 0.18084 93.4468 0.313454 93.7602 0.506348C94.0737 0.675131 94.2304 0.940361 94.2304 1.30204C94.2304 1.56727 94.1339 1.80839 93.9411 2.02539C93.7482 2.21829 93.5312 2.31473 93.29 2.31473C93.0489 2.31473 92.7475 2.25445 92.3858 2.1339C92.0242 1.98922 91.6384 1.91689 91.2285 1.91689C90.7221 1.91689 90.2881 2.03745 89.9264 2.27857C89.5648 2.49557 89.2875 2.82108 89.0946 3.25509C88.9017 3.665 88.8052 4.17134 88.8052 4.77414V25.5344C88.8052 25.8237 88.6967 26.0769 88.4797 26.2939C88.2868 26.5109 88.0337 26.6194 87.7202 26.6194C87.4068 26.6194 87.1415 26.5109 86.9245 26.2939C86.7316 26.0769 86.6352 25.8237 86.6352 25.5344V4.77414C86.6352 3.23098 87.0812 2.0495 87.9734 1.2297C88.8896 0.409901 90.0591 0 91.4816 0ZM92.856 8.49941C93.1454 8.49941 93.3865 8.59586 93.5794 8.78875C93.7723 8.98165 93.8687 9.22277 93.8687 9.51211C93.8687 9.80145 93.7723 10.0426 93.5794 10.2355C93.3865 10.4284 93.1454 10.5248 92.856 10.5248H83.9949C83.7297 10.5248 83.4886 10.4284 83.2716 10.2355C83.0787 10.0185 82.9822 9.77734 82.9822 9.51211C82.9822 9.19865 83.0787 8.95754 83.2716 8.78875C83.4886 8.59586 83.7297 8.49941 83.9949 8.49941H92.856ZM99.9087 25.5344C99.9087 25.8237 99.8002 26.0769 99.5832 26.2939C99.3662 26.5109 99.113 26.6194 98.8237 26.6194C98.5102 26.6194 98.245 26.5109 98.028 26.2939C97.8351 26.0769 97.7387 25.8237 97.7387 25.5344V8.89726C97.7387 8.60791 97.8351 8.35474 98.028 8.13773C98.245 7.92073 98.5102 7.81222 98.8237 7.81222C99.1371 7.81222 99.3903 7.92073 99.5832 8.13773C99.8002 8.35474 99.9087 8.60791 99.9087 8.89726V25.5344ZM98.8237 5.38899C98.3173 5.38899 97.9316 5.28049 97.6663 5.06348C97.4252 4.82236 97.3047 4.4848 97.3047 4.05078V3.68911C97.3047 3.2551 97.4373 2.92959 97.7025 2.71258C97.9918 2.47146 98.3776 2.3509 98.8599 2.3509C99.318 2.3509 99.6676 2.47146 99.9087 2.71258C100.174 2.92959 100.307 3.2551 100.307 3.68911V4.05078C100.307 4.4848 100.174 4.82236 99.9087 5.06348C99.6676 5.28049 99.3059 5.38899 98.8237 5.38899ZM104.33 8.21007H112.757C113.046 8.21007 113.287 8.31857 113.48 8.53558C113.673 8.72847 113.77 8.96959 113.77 9.25893C113.77 9.52416 113.673 9.75323 113.48 9.94612C113.287 10.139 113.046 10.2355 112.757 10.2355H104.33C104.041 10.2355 103.787 10.139 103.57 9.94612C103.378 9.72911 103.281 9.488 103.281 9.22277C103.281 8.93342 103.378 8.69231 103.57 8.49941C103.787 8.30652 104.041 8.21007 104.33 8.21007ZM108.055 3.11042C108.369 3.11042 108.622 3.21893 108.815 3.43593C109.032 3.65294 109.14 3.90611 109.14 4.19546V22.3516C109.14 23.0268 109.225 23.5331 109.393 23.8707C109.586 24.2083 109.827 24.4373 110.117 24.5579C110.406 24.6543 110.695 24.7025 110.985 24.7025C111.178 24.7025 111.346 24.6784 111.491 24.6302C111.66 24.5579 111.841 24.5217 112.034 24.5217C112.251 24.5217 112.432 24.6061 112.576 24.7749C112.745 24.9437 112.829 25.1607 112.829 25.4259C112.829 25.7635 112.636 26.0528 112.251 26.2939C111.865 26.5109 111.407 26.6194 110.876 26.6194C110.659 26.6194 110.334 26.6074 109.9 26.5833C109.466 26.535 109.02 26.4024 108.562 26.1854C108.103 25.9443 107.718 25.5344 107.404 24.9557C107.115 24.377 106.97 23.5452 106.97 22.4601V4.19546C106.97 3.90611 107.067 3.65294 107.26 3.43593C107.477 3.21893 107.742 3.11042 108.055 3.11042ZM117.437 23.6898C117.244 23.4005 117.148 23.1232 117.148 22.858C117.172 22.5686 117.329 22.3396 117.618 22.1708C117.811 22.002 118.028 21.9297 118.269 21.9538C118.534 21.9779 118.775 22.0985 118.992 22.3155C119.643 23.1594 120.427 23.8466 121.343 24.377C122.284 24.8834 123.393 25.1366 124.671 25.1366C125.346 25.1366 126.009 25.0281 126.66 24.811C127.335 24.5699 127.89 24.2203 128.324 23.7622C128.758 23.2799 128.975 22.6772 128.975 21.9538C128.975 21.2063 128.758 20.6035 128.324 20.1454C127.89 19.6873 127.323 19.3256 126.624 19.0604C125.949 18.7952 125.225 18.5661 124.454 18.3732C123.634 18.1562 122.838 17.9151 122.067 17.6498C121.295 17.3605 120.608 17.0109 120.005 16.601C119.426 16.167 118.956 15.6486 118.594 15.0458C118.233 14.443 118.052 13.7076 118.052 12.8395C118.052 11.8268 118.329 10.9347 118.884 10.1631C119.438 9.39155 120.186 8.78875 121.126 8.35474C122.091 7.92073 123.176 7.70372 124.381 7.70372C124.984 7.70372 125.635 7.78811 126.334 7.9569C127.034 8.10157 127.721 8.35474 128.396 8.71642C129.071 9.07809 129.674 9.57239 130.204 10.1993C130.421 10.4163 130.53 10.6695 130.53 10.9588C130.53 11.224 130.409 11.4652 130.168 11.6822C129.975 11.8268 129.746 11.8992 129.481 11.8992C129.24 11.8992 129.035 11.8027 128.866 11.6098C128.287 10.9588 127.6 10.4645 126.804 10.127C126.009 9.78939 125.153 9.62061 124.237 9.62061C123.537 9.62061 122.874 9.74117 122.247 9.98229C121.645 10.1993 121.138 10.5369 120.728 10.995C120.318 11.4531 120.113 12.0559 120.113 12.8034C120.162 13.5026 120.403 14.0692 120.837 14.5033C121.295 14.9373 121.886 15.2989 122.609 15.5883C123.357 15.8776 124.188 16.1429 125.105 16.384C125.876 16.5769 126.612 16.8059 127.311 17.0712C128.034 17.3364 128.661 17.674 129.192 18.0839C129.746 18.4696 130.18 18.9639 130.494 19.5667C130.831 20.1695 131 20.929 131 21.8453C131 22.9062 130.699 23.8225 130.096 24.594C129.517 25.3656 128.733 25.9564 127.745 26.3663C126.756 26.7762 125.659 26.9811 124.454 26.9811C123.152 26.9811 121.886 26.7279 120.656 26.2216C119.45 25.7152 118.377 24.8713 117.437 23.6898Z" fill="white"/>
</svg>
