<svg width="350" height="132" viewBox="0 0 350 132" fill="none" xmlns="http://www.w3.org/2000/svg">
<path d="M11.16 36.36C9.312 36.36 7.68 35.964 6.264 35.172C4.848 34.38 3.744 33.276 2.952 31.86C2.16 30.444 1.764 28.788 1.764 26.892C1.764 24.852 2.16 23.112 2.952 21.672C3.768 20.232 4.812 19.128 6.084 18.36C7.38 17.568 8.748 17.172 10.188 17.172C11.244 17.172 12.264 17.364 13.248 17.748C14.256 18.108 15.144 18.66 15.912 19.404C16.704 20.124 17.328 21.012 17.784 22.068C18.264 23.124 18.528 24.348 18.576 25.74C18.552 26.028 18.432 26.28 18.216 26.496C18 26.688 17.748 26.784 17.46 26.784H3.024L2.592 24.84H16.776L16.308 25.272V24.552C16.212 23.424 15.852 22.464 15.228 21.672C14.604 20.88 13.848 20.28 12.96 19.872C12.072 19.464 11.148 19.26 10.188 19.26C9.468 19.26 8.724 19.404 7.956 19.692C7.212 19.98 6.528 20.436 5.904 21.06C5.304 21.66 4.812 22.44 4.428 23.4C4.044 24.336 3.852 25.452 3.852 26.748C3.852 28.164 4.14 29.448 4.716 30.6C5.292 31.752 6.12 32.664 7.2 33.336C8.304 34.008 9.612 34.344 11.124 34.344C11.964 34.344 12.72 34.224 13.392 33.984C14.064 33.744 14.652 33.432 15.156 33.048C15.66 32.64 16.08 32.22 16.416 31.788C16.68 31.572 16.944 31.464 17.208 31.464C17.448 31.464 17.652 31.56 17.82 31.752C18.012 31.944 18.108 32.16 18.108 32.4C18.108 32.688 17.988 32.94 17.748 33.156C17.028 34.02 16.092 34.776 14.94 35.424C13.788 36.048 12.528 36.36 11.16 36.36ZM22.4494 17.424C22.8094 17.424 23.0974 17.58 23.3134 17.892L36.0574 34.38C36.2254 34.572 36.3094 34.788 36.3094 35.028C36.3094 35.316 36.2014 35.568 35.9854 35.784C35.7694 36 35.5174 36.108 35.2294 36.108C34.8934 36.108 34.5934 35.952 34.3294 35.64L21.5494 19.152C21.4054 18.984 21.3334 18.768 21.3334 18.504C21.3334 18.192 21.4414 17.94 21.6574 17.748C21.8974 17.532 22.1614 17.424 22.4494 17.424ZM22.4494 36.108C22.2094 36.108 21.9694 36.024 21.7294 35.856C21.5134 35.688 21.4054 35.448 21.4054 35.136C21.4054 34.872 21.4894 34.644 21.6574 34.452L27.7414 26.64L28.9294 28.368L23.3134 35.676C23.0974 35.964 22.8094 36.108 22.4494 36.108ZM35.2294 17.424C35.5414 17.424 35.7814 17.52 35.9494 17.712C36.1414 17.88 36.2374 18.096 36.2374 18.36C36.2374 18.48 36.2134 18.6 36.1654 18.72C36.1414 18.84 36.0814 18.948 35.9854 19.044L29.9014 27.036L28.7854 25.308L34.3294 17.892C34.5934 17.58 34.8934 17.424 35.2294 17.424ZM55.4749 17.604C55.7869 17.604 56.0389 17.712 56.2309 17.928C56.4469 18.144 56.5549 18.408 56.5549 18.72V34.92C56.5549 35.208 56.4469 35.46 56.2309 35.676C56.0149 35.892 55.7629 36 55.4749 36C55.1629 36 54.8989 35.892 54.6829 35.676C54.4909 35.46 54.3949 35.208 54.3949 34.92V30.636L55.0069 30.348C55.0069 31.02 54.8149 31.704 54.4309 32.4C54.0709 33.096 53.5669 33.744 52.9189 34.344C52.2709 34.944 51.5029 35.436 50.6149 35.82C49.7509 36.18 48.8149 36.36 47.8069 36.36C46.1749 36.36 44.7109 35.94 43.4149 35.1C42.1429 34.26 41.1349 33.108 40.3909 31.644C39.6709 30.18 39.3109 28.536 39.3109 26.712C39.3109 24.84 39.6829 23.196 40.4269 21.78C41.1709 20.34 42.1789 19.212 43.4509 18.396C44.7229 17.58 46.1629 17.172 47.7709 17.172C48.8029 17.172 49.7629 17.352 50.6509 17.712C51.5629 18.072 52.3549 18.564 53.0269 19.188C53.6989 19.812 54.2149 20.532 54.5749 21.348C54.9589 22.14 55.1509 22.968 55.1509 23.832L54.3949 23.292V18.72C54.3949 18.408 54.4909 18.144 54.6829 17.928C54.8989 17.712 55.1629 17.604 55.4749 17.604ZM47.9869 34.344C49.2589 34.344 50.3869 34.02 51.3709 33.372C52.3549 32.7 53.1229 31.788 53.6749 30.636C54.2509 29.46 54.5389 28.152 54.5389 26.712C54.5389 25.296 54.2509 24.024 53.6749 22.896C53.1229 21.768 52.3549 20.868 51.3709 20.196C50.3869 19.524 49.2589 19.188 47.9869 19.188C46.7389 19.188 45.6109 19.512 44.6029 20.16C43.6189 20.808 42.8389 21.696 42.2629 22.824C41.7109 23.952 41.4349 25.248 41.4349 26.712C41.4349 28.152 41.7109 29.46 42.2629 30.636C42.8389 31.788 43.6189 32.7 44.6029 33.372C45.5869 34.02 46.7149 34.344 47.9869 34.344ZM70.5029 17.46C71.9909 17.46 73.2629 17.856 74.3189 18.648C75.3749 19.416 76.0949 20.568 76.4789 22.104L75.9749 22.248L76.1909 21.6C76.5029 20.88 77.0189 20.208 77.7389 19.584C78.4829 18.936 79.3229 18.42 80.2589 18.036C81.1949 17.652 82.1429 17.46 83.1029 17.46C84.6149 17.46 85.8269 17.784 86.7389 18.432C87.6749 19.08 88.3469 19.956 88.7549 21.06C89.1869 22.14 89.4029 23.364 89.4029 24.732V34.92C89.4029 35.208 89.2949 35.46 89.0789 35.676C88.8869 35.892 88.6349 36 88.3229 36C88.0109 36 87.7469 35.892 87.5309 35.676C87.3389 35.46 87.2429 35.208 87.2429 34.92V24.84C87.2429 23.856 87.0869 22.956 86.7749 22.14C86.4629 21.324 85.9709 20.676 85.2989 20.196C84.6269 19.716 83.7269 19.476 82.5989 19.476C81.6149 19.476 80.6669 19.716 79.7549 20.196C78.8669 20.676 78.1349 21.324 77.5589 22.14C77.0069 22.956 76.7309 23.856 76.7309 24.84V34.92C76.7309 35.208 76.6229 35.46 76.4069 35.676C76.2149 35.892 75.9629 36 75.6509 36C75.3389 36 75.0749 35.892 74.8589 35.676C74.6669 35.46 74.5709 35.208 74.5709 34.92V24.732C74.5709 23.748 74.4269 22.86 74.1389 22.068C73.8509 21.276 73.3829 20.652 72.7349 20.196C72.0869 19.716 71.2109 19.476 70.1069 19.476C69.1229 19.476 68.1869 19.716 67.2989 20.196C66.4349 20.652 65.7269 21.276 65.1749 22.068C64.6469 22.86 64.3829 23.748 64.3829 24.732V34.92C64.3829 35.208 64.2749 35.46 64.0589 35.676C63.8429 35.892 63.5909 36 63.3029 36C62.9669 36 62.7029 35.892 62.5109 35.676C62.3189 35.46 62.2229 35.208 62.2229 34.92V18.792C62.2229 18.504 62.3189 18.252 62.5109 18.036C62.7269 17.82 62.9909 17.712 63.3029 17.712C63.6149 17.712 63.8669 17.82 64.0589 18.036C64.2749 18.252 64.3829 18.504 64.3829 18.792V22.14L63.4109 23.472C63.4829 22.752 63.7109 22.032 64.0949 21.312C64.5029 20.592 65.0309 19.944 65.6789 19.368C66.3269 18.792 67.0589 18.336 67.8749 18C68.7149 17.64 69.5909 17.46 70.5029 17.46ZM103.807 17.46C105.439 17.46 106.879 17.868 108.127 18.684C109.399 19.476 110.407 20.58 111.151 21.996C111.895 23.388 112.267 24.996 112.267 26.82C112.267 28.644 111.895 30.264 111.151 31.68C110.407 33.096 109.399 34.212 108.127 35.028C106.855 35.844 105.427 36.252 103.843 36.252C103.003 36.252 102.199 36.132 101.431 35.892C100.687 35.628 100.003 35.28 99.3788 34.848C98.7548 34.416 98.2028 33.912 97.7228 33.336C97.2428 32.736 96.8588 32.088 96.5708 31.392L97.2188 30.924V42.12C97.2188 42.408 97.1108 42.66 96.8948 42.876C96.7028 43.092 96.4508 43.2 96.1388 43.2C95.8268 43.2 95.5628 43.092 95.3468 42.876C95.1548 42.66 95.0588 42.408 95.0588 42.12V18.648C95.0588 18.336 95.1548 18.072 95.3468 17.856C95.5388 17.64 95.8028 17.532 96.1388 17.532C96.4508 17.532 96.7028 17.64 96.8948 17.856C97.1108 18.072 97.2188 18.336 97.2188 18.648V22.536L96.7148 22.248C96.9548 21.504 97.3028 20.844 97.7588 20.268C98.2388 19.668 98.7908 19.164 99.4148 18.756C100.039 18.324 100.723 18 101.467 17.784C102.211 17.568 102.991 17.46 103.807 17.46ZM103.627 19.476C102.331 19.476 101.191 19.8 100.207 20.448C99.2228 21.072 98.4428 21.936 97.8668 23.04C97.3148 24.12 97.0388 25.38 97.0388 26.82C97.0388 28.236 97.3148 29.508 97.8668 30.636C98.4428 31.764 99.2228 32.652 100.207 33.3C101.191 33.924 102.331 34.236 103.627 34.236C104.899 34.236 106.015 33.924 106.975 33.3C107.959 32.652 108.739 31.764 109.315 30.636C109.891 29.508 110.179 28.236 110.179 26.82C110.179 25.404 109.891 24.144 109.315 23.04C108.739 21.936 107.959 21.072 106.975 20.448C106.015 19.8 104.899 19.476 103.627 19.476ZM119.267 34.92C119.267 35.208 119.159 35.46 118.943 35.676C118.727 35.892 118.475 36 118.187 36C117.875 36 117.611 35.892 117.395 35.676C117.203 35.46 117.107 35.208 117.107 34.92V10.44C117.107 10.152 117.215 9.9 117.431 9.684C117.647 9.468 117.899 9.36 118.187 9.36C118.499 9.36 118.751 9.468 118.943 9.684C119.159 9.9 119.267 10.152 119.267 10.44V34.92ZM133.152 36.36C131.304 36.36 129.672 35.964 128.256 35.172C126.84 34.38 125.736 33.276 124.944 31.86C124.152 30.444 123.756 28.788 123.756 26.892C123.756 24.852 124.152 23.112 124.944 21.672C125.76 20.232 126.804 19.128 128.076 18.36C129.372 17.568 130.74 17.172 132.18 17.172C133.236 17.172 134.256 17.364 135.24 17.748C136.248 18.108 137.136 18.66 137.904 19.404C138.696 20.124 139.32 21.012 139.776 22.068C140.256 23.124 140.52 24.348 140.568 25.74C140.544 26.028 140.424 26.28 140.208 26.496C139.992 26.688 139.74 26.784 139.452 26.784H125.016L124.584 24.84H138.768L138.3 25.272V24.552C138.204 23.424 137.844 22.464 137.22 21.672C136.596 20.88 135.84 20.28 134.952 19.872C134.064 19.464 133.14 19.26 132.18 19.26C131.46 19.26 130.716 19.404 129.948 19.692C129.204 19.98 128.52 20.436 127.896 21.06C127.296 21.66 126.804 22.44 126.42 23.4C126.036 24.336 125.844 25.452 125.844 26.748C125.844 28.164 126.132 29.448 126.708 30.6C127.284 31.752 128.112 32.664 129.192 33.336C130.296 34.008 131.604 34.344 133.116 34.344C133.956 34.344 134.712 34.224 135.384 33.984C136.056 33.744 136.644 33.432 137.148 33.048C137.652 32.64 138.072 32.22 138.408 31.788C138.672 31.572 138.936 31.464 139.2 31.464C139.44 31.464 139.644 31.56 139.812 31.752C140.004 31.944 140.1 32.16 140.1 32.4C140.1 32.688 139.98 32.94 139.74 33.156C139.02 34.02 138.084 34.776 136.932 35.424C135.78 36.048 134.52 36.36 133.152 36.36ZM167.152 34.02C166.432 34.02 165.796 33.876 165.244 33.588C164.692 33.3 164.272 32.892 163.984 32.364C163.72 31.812 163.636 31.188 163.732 30.492L164.056 28.008L164.56 28.08C164.056 29.376 163.396 30.468 162.58 31.356C161.788 32.244 160.9 32.916 159.916 33.372C158.956 33.804 157.996 34.02 157.036 34.02C156.004 34.02 155.092 33.756 154.3 33.228C153.508 32.676 152.884 31.956 152.428 31.068C151.972 30.18 151.744 29.184 151.744 28.08C151.744 26.952 151.96 25.788 152.392 24.588C152.824 23.364 153.424 22.224 154.192 21.168C154.984 20.112 155.908 19.26 156.964 18.612C158.02 17.964 159.172 17.64 160.42 17.64C161.86 17.64 163.012 18.096 163.876 19.008C164.764 19.896 165.304 20.988 165.496 22.284L164.812 24.084L165.604 18.9C165.652 18.636 165.76 18.408 165.928 18.216C166.096 18.024 166.36 17.928 166.72 17.928C167.128 17.928 167.404 18.036 167.548 18.252C167.692 18.468 167.728 18.792 167.656 19.224L165.964 30.024C165.844 30.84 165.964 31.428 166.324 31.788C166.684 32.148 167.092 32.328 167.548 32.328C168.412 32.328 169.216 32.028 169.96 31.428C170.728 30.804 171.4 29.988 171.976 28.98C172.576 27.948 173.032 26.808 173.344 25.56C173.68 24.288 173.848 23.016 173.848 21.744C173.848 19.848 173.404 18.18 172.516 16.74C171.652 15.3 170.404 14.184 168.772 13.392C167.164 12.576 165.268 12.168 163.084 12.168C160.612 12.168 158.32 12.54 156.208 13.284C154.096 14.004 152.248 15.084 150.664 16.524C149.08 17.94 147.832 19.656 146.92 21.672C146.032 23.688 145.588 25.992 145.588 28.584C145.588 30 145.804 31.392 146.236 32.76C146.692 34.128 147.376 35.364 148.288 36.468C149.224 37.596 150.436 38.484 151.924 39.132C153.412 39.78 155.188 40.104 157.252 40.104C158.572 40.104 159.688 39.996 160.6 39.78C161.536 39.588 162.376 39.324 163.12 38.988C163.864 38.676 164.608 38.34 165.352 37.98C165.544 37.884 165.736 37.848 165.928 37.872C166.144 37.92 166.312 38.088 166.432 38.376C166.624 38.856 166.432 39.24 165.856 39.528C164.824 40.032 163.636 40.536 162.292 41.04C160.948 41.568 159.268 41.832 157.252 41.832C154.828 41.832 152.764 41.448 151.06 40.68C149.356 39.936 147.964 38.928 146.884 37.656C145.828 36.384 145.048 34.968 144.544 33.408C144.04 31.824 143.788 30.216 143.788 28.584C143.788 25.776 144.28 23.256 145.264 21.024C146.272 18.792 147.652 16.884 149.404 15.3C151.18 13.716 153.232 12.516 155.56 11.7C157.888 10.86 160.396 10.44 163.084 10.44C165.82 10.44 168.124 10.956 169.996 11.988C171.868 12.996 173.272 14.364 174.208 16.092C175.168 17.796 175.648 19.68 175.648 21.744C175.648 23.208 175.432 24.672 175 26.136C174.592 27.576 174.004 28.896 173.236 30.096C172.492 31.272 171.592 32.22 170.536 32.94C169.504 33.66 168.376 34.02 167.152 34.02ZM157.36 32.184C158.2 32.184 159.04 31.968 159.88 31.536C160.72 31.08 161.488 30.48 162.184 29.736C162.88 28.968 163.444 28.128 163.876 27.216C164.332 26.28 164.572 25.332 164.596 24.372C164.716 23.388 164.62 22.536 164.308 21.816C163.996 21.072 163.504 20.496 162.832 20.088C162.184 19.68 161.404 19.476 160.492 19.476C159.46 19.476 158.536 19.752 157.72 20.304C156.904 20.832 156.208 21.54 155.632 22.428C155.056 23.292 154.624 24.228 154.336 25.236C154.048 26.22 153.904 27.144 153.904 28.008C153.904 29.328 154.24 30.36 154.912 31.104C155.608 31.824 156.424 32.184 157.36 32.184ZM188.488 36.36C186.64 36.36 185.008 35.964 183.592 35.172C182.176 34.38 181.072 33.276 180.28 31.86C179.488 30.444 179.092 28.788 179.092 26.892C179.092 24.852 179.488 23.112 180.28 21.672C181.096 20.232 182.14 19.128 183.412 18.36C184.708 17.568 186.076 17.172 187.516 17.172C188.572 17.172 189.592 17.364 190.576 17.748C191.584 18.108 192.472 18.66 193.24 19.404C194.032 20.124 194.656 21.012 195.112 22.068C195.592 23.124 195.856 24.348 195.904 25.74C195.88 26.028 195.76 26.28 195.544 26.496C195.328 26.688 195.076 26.784 194.788 26.784H180.352L179.92 24.84H194.104L193.636 25.272V24.552C193.54 23.424 193.18 22.464 192.556 21.672C191.932 20.88 191.176 20.28 190.288 19.872C189.4 19.464 188.476 19.26 187.516 19.26C186.796 19.26 186.052 19.404 185.284 19.692C184.54 19.98 183.856 20.436 183.232 21.06C182.632 21.66 182.14 22.44 181.756 23.4C181.372 24.336 181.18 25.452 181.18 26.748C181.18 28.164 181.468 29.448 182.044 30.6C182.62 31.752 183.448 32.664 184.528 33.336C185.632 34.008 186.94 34.344 188.452 34.344C189.292 34.344 190.048 34.224 190.72 33.984C191.392 33.744 191.98 33.432 192.484 33.048C192.988 32.64 193.408 32.22 193.744 31.788C194.008 31.572 194.272 31.464 194.536 31.464C194.776 31.464 194.98 31.56 195.148 31.752C195.34 31.944 195.436 32.16 195.436 32.4C195.436 32.688 195.316 32.94 195.076 33.156C194.356 34.02 193.42 34.776 192.268 35.424C191.116 36.048 189.856 36.36 188.488 36.36ZM208.808 17.46C210.296 17.46 211.568 17.856 212.624 18.648C213.68 19.416 214.4 20.568 214.784 22.104L214.28 22.248L214.496 21.6C214.808 20.88 215.324 20.208 216.044 19.584C216.788 18.936 217.628 18.42 218.564 18.036C219.5 17.652 220.448 17.46 221.408 17.46C222.92 17.46 224.132 17.784 225.044 18.432C225.98 19.08 226.652 19.956 227.06 21.06C227.492 22.14 227.708 23.364 227.708 24.732V34.92C227.708 35.208 227.6 35.46 227.384 35.676C227.192 35.892 226.94 36 226.628 36C226.316 36 226.052 35.892 225.836 35.676C225.644 35.46 225.548 35.208 225.548 34.92V24.84C225.548 23.856 225.392 22.956 225.08 22.14C224.768 21.324 224.276 20.676 223.604 20.196C222.932 19.716 222.032 19.476 220.904 19.476C219.92 19.476 218.972 19.716 218.06 20.196C217.172 20.676 216.44 21.324 215.864 22.14C215.312 22.956 215.036 23.856 215.036 24.84V34.92C215.036 35.208 214.928 35.46 214.712 35.676C214.52 35.892 214.268 36 213.956 36C213.644 36 213.38 35.892 213.164 35.676C212.972 35.46 212.876 35.208 212.876 34.92V24.732C212.876 23.748 212.732 22.86 212.444 22.068C212.156 21.276 211.688 20.652 211.04 20.196C210.392 19.716 209.516 19.476 208.412 19.476C207.428 19.476 206.492 19.716 205.604 20.196C204.74 20.652 204.032 21.276 203.48 22.068C202.952 22.86 202.688 23.748 202.688 24.732V34.92C202.688 35.208 202.58 35.46 202.364 35.676C202.148 35.892 201.896 36 201.608 36C201.272 36 201.008 35.892 200.816 35.676C200.624 35.46 200.528 35.208 200.528 34.92V18.792C200.528 18.504 200.624 18.252 200.816 18.036C201.032 17.82 201.296 17.712 201.608 17.712C201.92 17.712 202.172 17.82 202.364 18.036C202.58 18.252 202.688 18.504 202.688 18.792V22.14L201.716 23.472C201.788 22.752 202.016 22.032 202.4 21.312C202.808 20.592 203.336 19.944 203.984 19.368C204.632 18.792 205.364 18.336 206.18 18C207.02 17.64 207.896 17.46 208.808 17.46ZM248.448 17.604C248.76 17.604 249.012 17.712 249.204 17.928C249.42 18.144 249.528 18.408 249.528 18.72V34.92C249.528 35.208 249.42 35.46 249.204 35.676C248.988 35.892 248.736 36 248.448 36C248.136 36 247.872 35.892 247.656 35.676C247.464 35.46 247.368 35.208 247.368 34.92V30.636L247.98 30.348C247.98 31.02 247.788 31.704 247.404 32.4C247.044 33.096 246.54 33.744 245.892 34.344C245.244 34.944 244.476 35.436 243.588 35.82C242.724 36.18 241.788 36.36 240.78 36.36C239.148 36.36 237.684 35.94 236.388 35.1C235.116 34.26 234.108 33.108 233.364 31.644C232.644 30.18 232.284 28.536 232.284 26.712C232.284 24.84 232.656 23.196 233.4 21.78C234.144 20.34 235.152 19.212 236.424 18.396C237.696 17.58 239.136 17.172 240.744 17.172C241.776 17.172 242.736 17.352 243.624 17.712C244.536 18.072 245.328 18.564 246 19.188C246.672 19.812 247.188 20.532 247.548 21.348C247.932 22.14 248.124 22.968 248.124 23.832L247.368 23.292V18.72C247.368 18.408 247.464 18.144 247.656 17.928C247.872 17.712 248.136 17.604 248.448 17.604ZM240.96 34.344C242.232 34.344 243.36 34.02 244.344 33.372C245.328 32.7 246.096 31.788 246.648 30.636C247.224 29.46 247.512 28.152 247.512 26.712C247.512 25.296 247.224 24.024 246.648 22.896C246.096 21.768 245.328 20.868 244.344 20.196C243.36 19.524 242.232 19.188 240.96 19.188C239.712 19.188 238.584 19.512 237.576 20.16C236.592 20.808 235.812 21.696 235.236 22.824C234.684 23.952 234.408 25.248 234.408 26.712C234.408 28.152 234.684 29.46 235.236 30.636C235.812 31.788 236.592 32.7 237.576 33.372C238.56 34.02 239.688 34.344 240.96 34.344ZM257.284 34.92C257.284 35.208 257.176 35.46 256.96 35.676C256.744 35.892 256.492 36 256.204 36C255.892 36 255.628 35.892 255.412 35.676C255.22 35.46 255.124 35.208 255.124 34.92V18.36C255.124 18.072 255.22 17.82 255.412 17.604C255.628 17.388 255.892 17.28 256.204 17.28C256.516 17.28 256.768 17.388 256.96 17.604C257.176 17.82 257.284 18.072 257.284 18.36V34.92ZM256.204 14.868C255.7 14.868 255.316 14.76 255.052 14.544C254.812 14.304 254.692 13.968 254.692 13.536V13.176C254.692 12.744 254.824 12.42 255.088 12.204C255.376 11.964 255.76 11.844 256.24 11.844C256.696 11.844 257.044 11.964 257.284 12.204C257.548 12.42 257.68 12.744 257.68 13.176V13.536C257.68 13.968 257.548 14.304 257.284 14.544C257.044 14.76 256.684 14.868 256.204 14.868ZM265.271 34.92C265.271 35.208 265.163 35.46 264.947 35.676C264.731 35.892 264.479 36 264.191 36C263.879 36 263.615 35.892 263.399 35.676C263.207 35.46 263.111 35.208 263.111 34.92V10.44C263.111 10.152 263.219 9.9 263.435 9.684C263.651 9.468 263.903 9.36 264.191 9.36C264.503 9.36 264.755 9.468 264.947 9.684C265.163 9.9 265.271 10.152 265.271 10.44V34.92ZM271.48 36C271.072 36 270.76 35.868 270.544 35.604C270.328 35.34 270.22 35.004 270.22 34.596V33.84C270.22 33.408 270.328 33.072 270.544 32.832C270.76 32.592 271.072 32.472 271.48 32.472H271.732C272.14 32.472 272.452 32.592 272.668 32.832C272.884 33.072 272.992 33.408 272.992 33.84V34.596C272.992 35.004 272.884 35.34 272.668 35.604C272.452 35.868 272.14 36 271.732 36H271.48ZM285.796 17.172C286.948 17.172 288.004 17.304 288.964 17.568C289.924 17.808 290.692 18.144 291.268 18.576C291.868 19.008 292.168 19.476 292.168 19.98C292.168 20.22 292.084 20.46 291.916 20.7C291.748 20.916 291.52 21.024 291.232 21.024C290.944 21.024 290.704 20.952 290.512 20.808C290.344 20.664 290.164 20.496 289.972 20.304C289.804 20.112 289.552 19.932 289.216 19.764C288.904 19.62 288.46 19.488 287.884 19.368C287.308 19.248 286.648 19.188 285.904 19.188C284.56 19.188 283.348 19.524 282.268 20.196C281.188 20.868 280.336 21.78 279.712 22.932C279.088 24.06 278.776 25.332 278.776 26.748C278.776 28.188 279.076 29.484 279.676 30.636C280.276 31.788 281.104 32.7 282.16 33.372C283.216 34.02 284.452 34.344 285.868 34.344C286.828 34.344 287.572 34.26 288.1 34.092C288.628 33.924 289.084 33.732 289.468 33.516C289.924 33.252 290.248 33 290.44 32.76C290.656 32.496 290.932 32.364 291.268 32.364C291.58 32.364 291.808 32.46 291.952 32.652C292.12 32.82 292.204 33.048 292.204 33.336C292.204 33.72 291.916 34.152 291.34 34.632C290.788 35.088 290.02 35.496 289.036 35.856C288.052 36.192 286.924 36.36 285.652 36.36C283.852 36.36 282.268 35.94 280.9 35.1C279.556 34.26 278.5 33.12 277.732 31.68C276.988 30.216 276.616 28.572 276.616 26.748C276.616 24.996 277 23.4 277.768 21.96C278.536 20.52 279.604 19.368 280.972 18.504C282.364 17.616 283.972 17.172 285.796 17.172ZM313.464 26.784C313.464 28.608 313.068 30.252 312.276 31.716C311.484 33.156 310.404 34.296 309.036 35.136C307.668 35.952 306.108 36.36 304.356 36.36C302.652 36.36 301.104 35.952 299.712 35.136C298.344 34.296 297.252 33.156 296.436 31.716C295.644 30.252 295.248 28.608 295.248 26.784C295.248 24.936 295.644 23.292 296.436 21.852C297.252 20.412 298.344 19.272 299.712 18.432C301.104 17.592 302.652 17.172 304.356 17.172C306.108 17.172 307.668 17.592 309.036 18.432C310.404 19.272 311.484 20.412 312.276 21.852C313.068 23.292 313.464 24.936 313.464 26.784ZM311.304 26.784C311.304 25.32 311.004 24.024 310.404 22.896C309.804 21.744 308.976 20.844 307.92 20.196C306.888 19.524 305.7 19.188 304.356 19.188C303.06 19.188 301.884 19.524 300.828 20.196C299.772 20.844 298.932 21.744 298.308 22.896C297.708 24.024 297.408 25.32 297.408 26.784C297.408 28.248 297.708 29.544 298.308 30.672C298.932 31.8 299.772 32.7 300.828 33.372C301.884 34.02 303.06 34.344 304.356 34.344C305.7 34.344 306.888 34.02 307.92 33.372C308.976 32.7 309.804 31.8 310.404 30.672C311.004 29.544 311.304 28.248 311.304 26.784ZM326.335 17.46C327.823 17.46 329.095 17.856 330.151 18.648C331.207 19.416 331.927 20.568 332.311 22.104L331.807 22.248L332.023 21.6C332.335 20.88 332.851 20.208 333.571 19.584C334.315 18.936 335.155 18.42 336.091 18.036C337.027 17.652 337.975 17.46 338.935 17.46C340.447 17.46 341.659 17.784 342.571 18.432C343.507 19.08 344.179 19.956 344.587 21.06C345.019 22.14 345.235 23.364 345.235 24.732V34.92C345.235 35.208 345.127 35.46 344.911 35.676C344.719 35.892 344.467 36 344.155 36C343.843 36 343.579 35.892 343.363 35.676C343.171 35.46 343.075 35.208 343.075 34.92V24.84C343.075 23.856 342.919 22.956 342.607 22.14C342.295 21.324 341.803 20.676 341.131 20.196C340.459 19.716 339.559 19.476 338.431 19.476C337.447 19.476 336.499 19.716 335.587 20.196C334.699 20.676 333.967 21.324 333.391 22.14C332.839 22.956 332.563 23.856 332.563 24.84V34.92C332.563 35.208 332.455 35.46 332.239 35.676C332.047 35.892 331.795 36 331.483 36C331.171 36 330.907 35.892 330.691 35.676C330.499 35.46 330.403 35.208 330.403 34.92V24.732C330.403 23.748 330.259 22.86 329.971 22.068C329.683 21.276 329.215 20.652 328.567 20.196C327.919 19.716 327.043 19.476 325.939 19.476C324.955 19.476 324.019 19.716 323.131 20.196C322.267 20.652 321.559 21.276 321.007 22.068C320.479 22.86 320.215 23.748 320.215 24.732V34.92C320.215 35.208 320.107 35.46 319.891 35.676C319.675 35.892 319.423 36 319.135 36C318.799 36 318.535 35.892 318.343 35.676C318.151 35.46 318.055 35.208 318.055 34.92V18.792C318.055 18.504 318.151 18.252 318.343 18.036C318.559 17.82 318.823 17.712 319.135 17.712C319.447 17.712 319.699 17.82 319.891 18.036C320.107 18.252 320.215 18.504 320.215 18.792V22.14L319.243 23.472C319.315 22.752 319.543 22.032 319.927 21.312C320.335 20.592 320.863 19.944 321.511 19.368C322.159 18.792 322.891 18.336 323.707 18C324.547 17.64 325.423 17.46 326.335 17.46Z" fill="white"/>
<path d="M2.772 111.056C2.484 111.056 2.232 110.96 2.016 110.768C1.824 110.552 1.728 110.288 1.728 109.976C1.728 109.688 1.824 109.46 2.016 109.292C2.232 109.1 2.484 109.004 2.772 109.004H17.64C17.928 109.004 18.168 109.1 18.36 109.292C18.576 109.484 18.684 109.736 18.684 110.048C18.684 110.312 18.576 110.552 18.36 110.768C18.168 110.96 17.928 111.056 17.64 111.056H2.772ZM10.188 118.832C9.852 118.832 9.576 118.724 9.36 118.508C9.144 118.292 9.036 118.016 9.036 117.68V102.452C9.036 102.092 9.144 101.804 9.36 101.588C9.6 101.372 9.876 101.264 10.188 101.264C10.548 101.264 10.824 101.372 11.016 101.588C11.232 101.804 11.34 102.08 11.34 102.416V117.68C11.34 118.016 11.232 118.292 11.016 118.508C10.8 118.724 10.524 118.832 10.188 118.832ZM26.6633 122C26.3273 122 26.0513 121.892 25.8353 121.676C25.6193 121.46 25.5113 121.208 25.5113 120.92V99.248L25.9073 99.608L21.1193 102.812C20.9273 102.956 20.7233 103.028 20.5073 103.028C20.2193 103.028 19.9553 102.908 19.7153 102.668C19.4993 102.428 19.3913 102.164 19.3913 101.876C19.3913 101.492 19.5833 101.192 19.9673 100.976L25.9793 96.98C26.1233 96.884 26.2673 96.824 26.4113 96.8C26.5793 96.776 26.7233 96.776 26.8433 96.8C27.1553 96.824 27.3953 96.944 27.5633 97.16C27.7313 97.352 27.8153 97.592 27.8153 97.88V120.92C27.8153 121.208 27.7073 121.46 27.4913 121.676C27.2753 121.892 26.9993 122 26.6633 122ZM48.9156 119.912C49.2036 119.912 49.4436 120.02 49.6356 120.236C49.8516 120.428 49.9596 120.668 49.9596 120.956C49.9596 121.268 49.8516 121.52 49.6356 121.712C49.4436 121.904 49.2036 122 48.9156 122H35.4156C35.1036 122 34.8276 121.916 34.5876 121.748C34.3716 121.556 34.2636 121.28 34.2636 120.92C34.2636 120.656 34.3596 120.404 34.5516 120.164L42.8676 110.984C44.1876 109.544 45.1716 108.224 45.8196 107.024C46.4916 105.8 46.8276 104.708 46.8276 103.748C46.8276 102.164 46.3476 100.892 45.3876 99.932C44.4276 98.972 43.1316 98.492 41.4996 98.492C40.7556 98.492 40.0116 98.648 39.2676 98.96C38.5476 99.272 37.8996 99.68 37.3236 100.184C36.7716 100.688 36.3396 101.264 36.0276 101.912C35.8836 102.152 35.7276 102.32 35.5596 102.416C35.4156 102.512 35.2476 102.56 35.0556 102.56C34.7676 102.56 34.5156 102.476 34.2996 102.308C34.0836 102.116 33.9756 101.888 33.9756 101.624C33.9756 101.456 34.0116 101.288 34.0836 101.12C34.1796 100.952 34.3116 100.76 34.4796 100.544C34.9116 99.8 35.5116 99.116 36.2796 98.492C37.0476 97.868 37.8996 97.376 38.8356 97.016C39.7956 96.632 40.7316 96.44 41.6436 96.44C43.1796 96.44 44.4996 96.74 45.6036 97.34C46.7316 97.916 47.5956 98.744 48.1956 99.824C48.8196 100.88 49.1316 102.14 49.1316 103.604C49.1316 104.852 48.7356 106.22 47.9436 107.708C47.1756 109.172 46.0236 110.756 44.4876 112.46L37.4676 120.344L37.1076 119.912H48.9156ZM64.8329 118.292C64.9529 118.292 65.0729 118.316 65.1929 118.364C65.3369 118.412 65.5049 118.52 65.6969 118.688C66.2009 119.216 66.8009 119.624 67.4969 119.912C68.1929 120.176 68.9849 120.308 69.8729 120.308C71.0489 120.308 72.1169 120.044 73.0769 119.516C74.0609 118.988 74.8409 118.256 75.4169 117.32C75.9929 116.36 76.2809 115.268 76.2809 114.044C76.2809 112.652 75.9689 111.536 75.3449 110.696C74.7449 109.832 73.9649 109.196 73.0049 108.788C72.0689 108.356 71.1089 108.14 70.1249 108.14C69.8609 108.14 69.5969 108.164 69.3329 108.212C69.0929 108.236 68.8649 108.272 68.6489 108.32C68.4329 108.368 68.2649 108.392 68.1449 108.392C67.8329 108.392 67.5929 108.296 67.4249 108.104C67.2569 107.888 67.1729 107.624 67.1729 107.312C67.1729 107.144 67.2089 107 67.2809 106.88C67.3529 106.736 67.4489 106.58 67.5689 106.412L74.8769 98.456L75.3089 99.032H64.4009C64.1129 99.032 63.8609 98.936 63.6449 98.744C63.4529 98.528 63.3569 98.276 63.3569 97.988C63.3569 97.7 63.4529 97.46 63.6449 97.268C63.8609 97.076 64.1129 96.98 64.4009 96.98H76.4969C76.9049 96.98 77.1929 97.112 77.3609 97.376C77.5289 97.616 77.6129 97.856 77.6129 98.096C77.6129 98.24 77.5769 98.384 77.5049 98.528C77.4329 98.648 77.3369 98.78 77.2169 98.924L69.9089 106.88L69.1169 106.412C69.1889 106.34 69.4289 106.268 69.8369 106.196C70.2689 106.1 70.6049 106.052 70.8449 106.052C72.1649 106.052 73.4009 106.364 74.5529 106.988C75.7289 107.612 76.6769 108.512 77.3969 109.688C78.1409 110.84 78.5129 112.268 78.5129 113.972C78.5129 115.652 78.1169 117.128 77.3249 118.4C76.5329 119.648 75.4649 120.62 74.1209 121.316C72.7769 122.012 71.2889 122.36 69.6569 122.36C68.6729 122.36 67.7009 122.192 66.7409 121.856C65.7809 121.52 64.9409 121.016 64.2209 120.344C64.0529 120.2 63.9329 120.056 63.8609 119.912C63.7889 119.768 63.7529 119.624 63.7529 119.48C63.7529 119.192 63.8489 118.928 64.0409 118.688C64.2569 118.424 64.5209 118.292 64.8329 118.292ZM93.7198 122C93.4078 122 93.1558 121.892 92.9638 121.676C92.7718 121.46 92.6758 121.208 92.6758 120.92V99.788L93.1438 100.076L83.6758 112.604L83.5678 112.208H97.3918C97.6798 112.208 97.9198 112.304 98.1118 112.496C98.3278 112.688 98.4358 112.928 98.4358 113.216C98.4358 113.504 98.3278 113.744 98.1118 113.936C97.9198 114.128 97.6798 114.224 97.3918 114.224H82.0918C81.8038 114.224 81.5518 114.116 81.3358 113.9C81.1198 113.66 81.0118 113.396 81.0118 113.108C81.0118 112.844 81.0958 112.604 81.2638 112.388L92.8558 97.232C92.9758 97.064 93.1198 96.956 93.2878 96.908C93.4798 96.836 93.6358 96.8 93.7558 96.8C94.0678 96.8 94.3198 96.908 94.5118 97.124C94.7278 97.34 94.8358 97.592 94.8358 97.88V120.92C94.8358 121.208 94.7278 121.46 94.5118 121.676C94.2958 121.892 94.0318 122 93.7198 122ZM108.197 122.072C107.213 122.072 106.217 121.916 105.209 121.604C104.225 121.268 103.349 120.776 102.581 120.128C102.437 120.008 102.317 119.864 102.221 119.696C102.149 119.528 102.113 119.36 102.113 119.192C102.113 118.952 102.209 118.724 102.401 118.508C102.593 118.268 102.845 118.148 103.157 118.148C103.421 118.148 103.685 118.256 103.949 118.472C104.573 118.952 105.245 119.324 105.965 119.588C106.709 119.852 107.453 119.984 108.197 119.984C109.613 119.984 110.849 119.72 111.905 119.192C112.961 118.64 113.777 117.872 114.353 116.888C114.929 115.88 115.217 114.716 115.217 113.396C115.217 112.172 114.953 111.116 114.425 110.228C113.897 109.316 113.141 108.608 112.157 108.104C111.197 107.576 110.057 107.312 108.737 107.312C107.873 107.312 107.081 107.444 106.361 107.708C105.665 107.972 105.053 108.248 104.525 108.536C104.021 108.8 103.613 108.932 103.301 108.932C103.013 108.932 102.773 108.86 102.581 108.716C102.413 108.572 102.293 108.392 102.221 108.176C102.173 107.96 102.173 107.732 102.221 107.492L103.769 97.88C103.793 97.664 103.901 97.472 104.093 97.304C104.309 97.112 104.573 97.016 104.885 97.016H115.721C116.009 97.016 116.249 97.124 116.441 97.34C116.657 97.532 116.765 97.772 116.765 98.06C116.765 98.372 116.657 98.636 116.441 98.852C116.249 99.044 116.009 99.14 115.721 99.14H105.389L105.713 98.816L104.237 107.348L103.589 106.88C103.901 106.64 104.345 106.4 104.921 106.16C105.521 105.92 106.181 105.716 106.901 105.548C107.645 105.356 108.425 105.26 109.241 105.26C110.801 105.26 112.193 105.608 113.417 106.304C114.641 106.976 115.601 107.924 116.297 109.148C117.017 110.348 117.377 111.74 117.377 113.324C117.377 115.076 116.993 116.612 116.225 117.932C115.481 119.228 114.425 120.248 113.057 120.992C111.689 121.712 110.069 122.072 108.197 122.072ZM139.566 122.36C138.174 122.36 136.95 122.108 135.894 121.604C134.862 121.1 133.998 120.428 133.302 119.588C132.63 118.724 132.126 117.752 131.79 116.672C131.478 115.592 131.322 114.488 131.322 113.36C131.322 112.208 131.466 110.972 131.754 109.652C132.042 108.308 132.486 106.952 133.086 105.584C133.686 104.216 134.418 102.92 135.282 101.696C136.17 100.472 137.19 99.38 138.342 98.42C139.518 97.436 140.838 96.668 142.302 96.116C142.47 96.068 142.614 96.044 142.734 96.044C143.046 96.044 143.31 96.128 143.526 96.296C143.766 96.464 143.886 96.752 143.886 97.16C143.886 97.4 143.802 97.616 143.634 97.808C143.49 97.976 143.286 98.108 143.022 98.204C142.014 98.636 141.018 99.248 140.034 100.04C139.05 100.832 138.138 101.744 137.298 102.776C136.458 103.808 135.738 104.924 135.138 106.124C134.562 107.3 134.154 108.5 133.914 109.724L133.122 110.192C133.554 109.4 134.106 108.704 134.778 108.104C135.474 107.48 136.266 106.988 137.154 106.628C138.042 106.244 139.002 106.052 140.034 106.052C141.114 106.052 142.11 106.28 143.022 106.736C143.934 107.192 144.714 107.816 145.362 108.608C146.034 109.376 146.55 110.252 146.91 111.236C147.294 112.22 147.486 113.24 147.486 114.296C147.486 115.712 147.138 117.032 146.442 118.256C145.77 119.48 144.834 120.476 143.634 121.244C142.458 121.988 141.102 122.36 139.566 122.36ZM139.53 120.272C140.634 120.272 141.618 120.02 142.482 119.516C143.346 119.012 144.018 118.316 144.498 117.428C145.002 116.516 145.254 115.472 145.254 114.296C145.254 113.216 145.038 112.22 144.606 111.308C144.198 110.372 143.574 109.616 142.734 109.04C141.918 108.44 140.898 108.14 139.674 108.14C138.402 108.14 137.298 108.428 136.362 109.004C135.45 109.58 134.742 110.348 134.238 111.308C133.758 112.244 133.518 113.276 133.518 114.404C133.518 115.412 133.758 116.372 134.238 117.284C134.718 118.172 135.402 118.892 136.29 119.444C137.202 119.996 138.282 120.272 139.53 120.272ZM155.013 122.108C154.725 122.108 154.461 122.012 154.221 121.82C153.981 121.628 153.861 121.388 153.861 121.1C153.861 120.932 153.897 120.752 153.969 120.56L163.545 98.564L163.941 99.068H151.773C151.485 99.068 151.233 98.972 151.017 98.78C150.825 98.564 150.729 98.312 150.729 98.024C150.729 97.712 150.825 97.46 151.017 97.268C151.233 97.076 151.485 96.98 151.773 96.98H164.985C165.345 96.98 165.609 97.076 165.777 97.268C165.945 97.46 166.029 97.7 166.029 97.988C166.029 98.18 165.993 98.36 165.921 98.528L156.021 121.388C155.949 121.604 155.817 121.784 155.625 121.928C155.433 122.048 155.229 122.108 155.013 122.108ZM180.167 109.328L180.059 109.004C180.875 109.316 181.619 109.784 182.291 110.408C182.963 111.008 183.503 111.728 183.911 112.568C184.319 113.384 184.523 114.284 184.523 115.268C184.523 116.564 184.175 117.74 183.479 118.796C182.807 119.852 181.883 120.692 180.707 121.316C179.531 121.94 178.223 122.252 176.783 122.252C175.319 122.252 173.999 121.94 172.823 121.316C171.671 120.692 170.747 119.852 170.051 118.796C169.379 117.74 169.043 116.564 169.043 115.268C169.043 114.212 169.247 113.276 169.655 112.46C170.087 111.62 170.639 110.912 171.311 110.336C172.007 109.76 172.727 109.316 173.471 109.004L173.363 109.364C172.715 109.052 172.103 108.632 171.527 108.104C170.975 107.552 170.519 106.904 170.159 106.16C169.799 105.392 169.619 104.552 169.619 103.64C169.619 102.344 169.931 101.18 170.555 100.148C171.203 99.116 172.067 98.3 173.147 97.7C174.251 97.1 175.463 96.8 176.783 96.8C178.103 96.8 179.291 97.1 180.347 97.7C181.427 98.3 182.279 99.116 182.903 100.148C183.551 101.18 183.875 102.344 183.875 103.64C183.875 104.576 183.695 105.416 183.335 106.16C182.975 106.904 182.507 107.552 181.931 108.104C181.355 108.632 180.767 109.04 180.167 109.328ZM171.851 103.64C171.851 104.6 172.079 105.44 172.535 106.16C172.991 106.88 173.591 107.444 174.335 107.852C175.079 108.26 175.895 108.464 176.783 108.464C177.647 108.464 178.451 108.26 179.195 107.852C179.939 107.444 180.527 106.88 180.959 106.16C181.415 105.44 181.643 104.6 181.643 103.64C181.643 102.224 181.187 101.072 180.275 100.184C179.363 99.296 178.199 98.852 176.783 98.852C175.319 98.852 174.131 99.296 173.219 100.184C172.307 101.072 171.851 102.224 171.851 103.64ZM176.783 120.2C178.415 120.2 179.735 119.732 180.743 118.796C181.775 117.86 182.291 116.684 182.291 115.268C182.291 114.308 182.039 113.444 181.535 112.676C181.031 111.908 180.359 111.308 179.519 110.876C178.679 110.444 177.767 110.228 176.783 110.228C175.799 110.228 174.887 110.444 174.047 110.876C173.207 111.308 172.535 111.908 172.031 112.676C171.527 113.444 171.275 114.308 171.275 115.268C171.275 116.684 171.779 117.86 172.787 118.796C173.795 119.732 175.127 120.2 176.783 120.2Z" fill="white"/>
</svg>
