<svg width="129" height="26" viewBox="0 0 129 26" fill="none" xmlns="http://www.w3.org/2000/svg">
<path d="M20.1418 2.20584C20.4311 2.3987 20.5999 2.65183 20.6481 2.96523C20.6963 3.25452 20.624 3.54381 20.4311 3.8331C20.2624 4.05007 20.0454 4.1706 19.7802 4.19471C19.515 4.21882 19.2619 4.17061 19.0208 4.05007C18.1047 3.44738 17.1163 2.97728 16.0556 2.63978C15.019 2.30227 13.898 2.13352 12.6926 2.13352C11.222 2.13352 9.8479 2.3987 8.5702 2.92907C7.31661 3.43533 6.21972 4.18266 5.27952 5.17107C4.33933 6.13537 3.60405 7.28048 3.07368 8.60639C2.56743 9.93231 2.3143 11.3908 2.3143 12.9819C2.3143 14.6212 2.57948 16.1159 3.10985 17.4659C3.64021 18.7918 4.37549 19.9369 5.31569 20.9012C6.27999 21.8655 7.38893 22.6008 8.64253 23.1071C9.89612 23.6133 11.2461 23.8665 12.6926 23.8665C13.8739 23.8665 14.9828 23.6977 16.0194 23.3602C17.0802 23.0227 18.0686 22.5647 18.9847 21.9861C19.2257 21.8414 19.4789 21.7932 19.744 21.8414C20.0333 21.8655 20.2624 21.9981 20.4311 22.2392C20.6481 22.5044 20.7204 22.7937 20.6481 23.1071C20.5999 23.3964 20.4432 23.6254 20.178 23.7941C19.5753 24.1799 18.8641 24.5415 18.0445 24.879C17.2248 25.2165 16.3569 25.4817 15.4409 25.6745C14.5248 25.8915 13.6087 26 12.6926 26C10.9569 26 9.32959 25.6866 7.81082 25.0598C6.29204 24.433 4.94202 23.5531 3.76075 22.42C2.57948 21.2629 1.65134 19.8887 0.976328 18.2976C0.325424 16.7065 -2.74512e-05 14.9346 -2.74512e-05 12.9819C-2.74512e-05 11.1015 0.325424 9.37783 0.976328 7.81084C1.62723 6.21975 2.53126 4.84562 3.68843 3.68845C4.84559 2.53129 6.19561 1.62726 7.73849 0.976356C9.28138 0.325452 10.9327 2.39487e-07 12.6926 2.39487e-07C14.0667 2.39487e-07 15.3926 0.192861 16.6703 0.578582C17.948 0.964302 19.1052 1.50672 20.1418 2.20584ZM41.9587 16.3811C41.9587 18.2132 41.5609 19.8646 40.7654 21.3352C39.9698 22.7816 38.885 23.9267 37.5108 24.7705C36.1367 25.5902 34.5697 26 32.8099 26C31.0982 26 29.5433 25.5902 28.1451 24.7705C26.7709 23.9267 25.674 22.7816 24.8544 21.3352C24.0588 19.8646 23.6611 18.2132 23.6611 16.3811C23.6611 14.5248 24.0588 12.8734 24.8544 11.427C25.674 9.98052 26.7709 8.83541 28.1451 7.99165C29.5433 7.14789 31.0982 6.72601 32.8099 6.72601C34.5697 6.72601 36.1367 7.14789 37.5108 7.99165C38.885 8.83541 39.9698 9.98052 40.7654 11.427C41.5609 12.8734 41.9587 14.5248 41.9587 16.3811ZM39.789 16.3811C39.789 14.9105 39.4877 13.6087 38.885 12.4757C38.2823 11.3185 37.4506 10.4145 36.3898 9.76356C35.3532 9.08854 34.1599 8.75104 32.8099 8.75104C31.5081 8.75104 30.3268 9.08854 29.2661 9.76356C28.2053 10.4145 27.3616 11.3185 26.7348 12.4757C26.1321 13.6087 25.8307 14.9105 25.8307 16.3811C25.8307 17.8516 26.1321 19.1534 26.7348 20.2865C27.3616 21.4196 28.2053 22.3236 29.2661 22.9986C30.3268 23.6495 31.5081 23.975 32.8099 23.975C34.1599 23.975 35.3532 23.6495 36.3898 22.9986C37.4506 22.3236 38.2823 21.4196 38.885 20.2865C39.4877 19.1534 39.789 17.8516 39.789 16.3811ZM55.2847 6.72601C56.8758 6.72601 58.1414 7.05146 59.0816 7.70236C60.0459 8.32916 60.733 9.19703 61.1428 10.306C61.5768 11.3908 61.7937 12.5962 61.7937 13.9221V24.5535C61.7937 24.8428 61.6852 25.096 61.4683 25.3129C61.2513 25.5299 60.9982 25.6384 60.7089 25.6384C60.3714 25.6384 60.1062 25.5299 59.9133 25.3129C59.7205 25.096 59.624 24.8428 59.624 24.5535V14.0306C59.624 13.0663 59.4673 12.1864 59.1539 11.3908C58.8405 10.5953 58.3222 9.95642 57.599 9.47426C56.8999 8.99211 55.9717 8.75104 54.8146 8.75104C53.778 8.75104 52.7896 8.99211 51.8494 9.47426C50.9333 9.95642 50.1859 10.5953 49.6074 11.3908C49.0288 12.1864 48.7395 13.0663 48.7395 14.0306V24.5535C48.7395 24.8428 48.631 25.096 48.414 25.3129C48.1971 25.5299 47.9439 25.6384 47.6546 25.6384C47.3171 25.6384 47.052 25.5299 46.8591 25.3129C46.6662 25.096 46.5698 24.8428 46.5698 24.5535V8.35326C46.5698 8.06397 46.6662 7.81084 46.8591 7.59388C47.0761 7.37691 47.3412 7.26842 47.6546 7.26842C47.968 7.26842 48.2212 7.37691 48.414 7.59388C48.631 7.81084 48.7395 8.06397 48.7395 8.35326V11.3908L47.9078 12.6926C47.956 11.9212 48.1971 11.1859 48.631 10.4868C49.089 9.76355 49.6676 9.1247 50.3667 8.57023C51.0659 7.99165 51.8373 7.54566 52.6811 7.23226C53.5489 6.89476 54.4168 6.72601 55.2847 6.72601ZM66.2822 7.23226H74.7078C74.9971 7.23226 75.2382 7.34075 75.4311 7.55772C75.6239 7.75058 75.7203 7.99165 75.7203 8.28094C75.7203 8.54612 75.6239 8.77515 75.4311 8.96801C75.2382 9.16087 74.9971 9.2573 74.7078 9.2573H66.2822C65.993 9.2573 65.7398 9.16087 65.5229 8.96801C65.33 8.75104 65.2336 8.50996 65.2336 8.24478C65.2336 7.95549 65.33 7.71441 65.5229 7.52155C65.7398 7.32869 65.993 7.23226 66.2822 7.23226ZM70.0069 2.13352C70.3203 2.13352 70.5734 2.242 70.7662 2.45897C70.9832 2.67594 71.0917 2.92907 71.0917 3.21836V21.3713C71.0917 22.0463 71.1761 22.5526 71.3448 22.8901C71.5377 23.2276 71.7788 23.4566 72.0681 23.5772C72.3573 23.6736 72.6466 23.7218 72.9359 23.7218C73.1288 23.7218 73.2975 23.6977 73.4422 23.6495C73.6109 23.5772 73.7917 23.541 73.9846 23.541C74.2016 23.541 74.3824 23.6254 74.527 23.7941C74.6958 23.9629 74.7801 24.1799 74.7801 24.445C74.7801 24.7826 74.5873 25.0718 74.2016 25.3129C73.8158 25.5299 73.3578 25.6384 72.8274 25.6384C72.6105 25.6384 72.285 25.6263 71.8511 25.6022C71.4171 25.554 70.9712 25.4214 70.5131 25.2044C70.0551 24.9634 69.6694 24.5535 69.356 23.975C69.0667 23.3964 68.922 22.5647 68.922 21.4798V3.21836C68.922 2.92907 69.0184 2.67594 69.2113 2.45897C69.4283 2.242 69.6935 2.13352 70.0069 2.13352ZM94.881 7.15994C95.1944 7.15994 95.4476 7.26842 95.6404 7.48539C95.8574 7.70236 95.9659 7.96754 95.9659 8.28094V24.5535C95.9659 24.8428 95.8574 25.096 95.6404 25.3129C95.4235 25.5299 95.1703 25.6384 94.881 25.6384C94.5676 25.6384 94.3025 25.5299 94.0855 25.3129C93.8926 25.096 93.7962 24.8428 93.7962 24.5535V20.2503L94.4109 19.961C94.4109 20.6361 94.2181 21.3231 93.8324 22.0222C93.4707 22.7214 92.9645 23.3723 92.3136 23.975C91.6627 24.5776 90.8912 25.0718 89.9993 25.4576C89.1314 25.8192 88.1912 26 87.1787 26C85.5394 26 84.0688 25.5781 82.767 24.7343C81.4893 23.8906 80.4768 22.7334 79.7294 21.2629C79.0062 19.7923 78.6446 18.1409 78.6446 16.3088C78.6446 14.4284 79.0183 12.777 79.7656 11.3547C80.5129 9.9082 81.5255 8.77515 82.8032 7.95549C84.0809 7.13583 85.5273 6.72601 87.1425 6.72601C88.1791 6.72601 89.1434 6.90681 90.0354 7.26842C90.9515 7.63004 91.7471 8.12424 92.4221 8.75104C93.0971 9.37783 93.6154 10.1011 93.977 10.9207C94.3627 11.7163 94.5556 12.548 94.5556 13.4158L93.7962 12.8734V8.28094C93.7962 7.96754 93.8926 7.70236 94.0855 7.48539C94.3025 7.26842 94.5676 7.15994 94.881 7.15994ZM87.3595 23.975C88.6372 23.975 89.7702 23.6495 90.7586 22.9986C91.7471 22.3236 92.5185 21.4075 93.073 20.2503C93.6516 19.0691 93.9408 17.7552 93.9408 16.3088C93.9408 14.8864 93.6516 13.6087 93.073 12.4757C92.5185 11.3426 91.7471 10.4386 90.7586 9.76356C89.7702 9.08854 88.6372 8.75104 87.3595 8.75104C86.1059 8.75104 84.9728 9.07649 83.9603 9.72739C82.9719 10.3783 82.1884 11.2703 81.6098 12.4033C81.0554 13.5364 80.7781 14.8382 80.7781 16.3088C80.7781 17.7552 81.0554 19.0691 81.6098 20.2503C82.1884 21.4075 82.9719 22.3236 83.9603 22.9986C84.9487 23.6495 86.0818 23.975 87.3595 23.975ZM109.796 6.72601C110.953 6.72601 112.013 6.8586 112.978 7.12378C113.942 7.36485 114.714 7.70236 115.292 8.1363C115.895 8.57023 116.196 9.04033 116.196 9.54659C116.196 9.78766 116.112 10.0287 115.943 10.2698C115.774 10.4868 115.545 10.5953 115.256 10.5953C114.967 10.5953 114.726 10.5229 114.533 10.3783C114.364 10.2337 114.183 10.0649 113.99 9.87204C113.822 9.67918 113.568 9.49837 113.231 9.32962C112.918 9.18497 112.472 9.05238 111.893 8.93185C111.314 8.81131 110.651 8.75104 109.904 8.75104C108.554 8.75104 107.337 9.08854 106.252 9.76356C105.167 10.4386 104.311 11.3547 103.684 12.5118C103.058 13.6449 102.744 14.9226 102.744 16.3449C102.744 17.7914 103.045 19.0932 103.648 20.2503C104.251 21.4075 105.083 22.3236 106.143 22.9986C107.204 23.6495 108.446 23.975 109.868 23.975C110.832 23.975 111.58 23.8906 112.11 23.7218C112.64 23.5531 113.098 23.3602 113.484 23.1432C113.942 22.8781 114.268 22.6249 114.46 22.3839C114.677 22.1187 114.955 21.9861 115.292 21.9861C115.606 21.9861 115.835 22.0825 115.979 22.2754C116.148 22.4441 116.232 22.6731 116.232 22.9624C116.232 23.3482 115.943 23.7821 115.364 24.2642C114.81 24.7223 114.039 25.1321 113.05 25.4937C112.062 25.8312 110.929 26 109.651 26C107.843 26 106.252 25.5781 104.878 24.7343C103.528 23.8906 102.467 22.7455 101.695 21.299C100.948 19.8285 100.574 18.1771 100.574 16.3449C100.574 14.5851 100.96 12.9819 101.732 11.5355C102.503 10.089 103.576 8.93184 104.95 8.06397C106.348 7.17199 107.963 6.72601 109.796 6.72601ZM119.182 7.23226H127.608C127.897 7.23226 128.138 7.34075 128.331 7.55772C128.524 7.75058 128.62 7.99165 128.62 8.28094C128.62 8.54612 128.524 8.77515 128.331 8.96801C128.138 9.16087 127.897 9.2573 127.608 9.2573H119.182C118.893 9.2573 118.64 9.16087 118.423 8.96801C118.23 8.75104 118.134 8.50996 118.134 8.24478C118.134 7.95549 118.23 7.71441 118.423 7.52155C118.64 7.32869 118.893 7.23226 119.182 7.23226ZM122.907 2.13352C123.22 2.13352 123.473 2.242 123.666 2.45897C123.883 2.67594 123.992 2.92907 123.992 3.21836V21.3713C123.992 22.0463 124.076 22.5526 124.245 22.8901C124.438 23.2276 124.679 23.4566 124.968 23.5772C125.257 23.6736 125.547 23.7218 125.836 23.7218C126.029 23.7218 126.198 23.6977 126.342 23.6495C126.511 23.5772 126.692 23.541 126.885 23.541C127.102 23.541 127.282 23.6254 127.427 23.7941C127.596 23.9629 127.68 24.1799 127.68 24.445C127.68 24.7826 127.487 25.0718 127.102 25.3129C126.716 25.5299 126.258 25.6384 125.727 25.6384C125.511 25.6384 125.185 25.6263 124.751 25.6022C124.317 25.554 123.871 25.4214 123.413 25.2044C122.955 24.9634 122.569 24.5535 122.256 23.975C121.967 23.3964 121.822 22.5647 121.822 21.4798V3.21836C121.822 2.92907 121.918 2.67594 122.111 2.45897C122.328 2.242 122.594 2.13352 122.907 2.13352Z" fill="white"/>
</svg>
