<svg width="715" height="34" viewBox="0 0 715 34" fill="none" xmlns="http://www.w3.org/2000/svg">
<path d="M1.08015 1.44037C1.24817 1.44037 1.4162 1.47638 1.58423 1.54839C1.77626 1.6204 1.93229 1.74042 2.05231 1.90845L11.9899 16.8149L11.0178 16.7789L20.9914 1.90845C21.2555 1.54839 21.5795 1.39237 21.9636 1.44037C22.2516 1.44037 22.4917 1.54839 22.6837 1.76443C22.8998 1.95646 23.0078 2.2085 23.0078 2.52055V25.5644C23.0078 25.8524 22.8998 26.1045 22.6837 26.3205C22.4677 26.5365 22.2036 26.6445 21.8916 26.6445C21.5555 26.6445 21.2795 26.5365 21.0634 26.3205C20.8474 26.1045 20.7394 25.8524 20.7394 25.5644V4.71692L21.3875 4.78893L12.278 18.5792C12.206 18.7232 12.098 18.8433 11.9539 18.9393C11.8099 19.0113 11.6419 19.0353 11.4499 19.0113C11.2818 19.0353 11.1138 19.0113 10.9458 18.9393C10.8018 18.8433 10.6817 18.7232 10.5857 18.5792L1.4402 4.6449L2.12432 4.17683V25.5644C2.12432 25.8524 2.0163 26.1045 1.80026 26.3205C1.60823 26.5365 1.35619 26.6445 1.04414 26.6445C0.732088 26.6445 0.480046 26.5365 0.288015 26.3205C0.0959828 26.1045 -3.30562e-05 25.8524 -3.30562e-05 25.5644V2.52055C-3.30562e-05 2.2325 0.0959828 1.98046 0.288015 1.76443C0.50405 1.54839 0.768094 1.44037 1.08015 1.44037ZM31.3305 25.5644C31.3305 25.8524 31.2225 26.1045 31.0064 26.3205C30.7904 26.5365 30.5384 26.6445 30.2503 26.6445C29.9383 26.6445 29.6742 26.5365 29.4582 26.3205C29.2661 26.1045 29.1701 25.8524 29.1701 25.5644V9.00162C29.1701 8.71358 29.2661 8.46153 29.4582 8.2455C29.6742 8.02946 29.9383 7.92144 30.2503 7.92144C30.5624 7.92144 30.8144 8.02946 31.0064 8.2455C31.2225 8.46153 31.3305 8.71358 31.3305 9.00162V25.5644ZM30.2503 5.50905C29.7462 5.50905 29.3622 5.40103 29.0981 5.18499C28.8581 4.94495 28.7381 4.6089 28.7381 4.17683V3.81677C28.7381 3.3847 28.8701 3.06064 29.1341 2.84461C29.4222 2.60457 29.8062 2.48455 30.2863 2.48455C30.7424 2.48455 31.0904 2.60457 31.3305 2.84461C31.5945 3.06064 31.7266 3.3847 31.7266 3.81677V4.17683C31.7266 4.6089 31.5945 4.94495 31.3305 5.18499C31.0904 5.40103 30.7304 5.50905 30.2503 5.50905ZM45.6201 7.81343C47.2043 7.81343 48.4645 8.13748 49.4007 8.78559C50.3609 9.40969 51.045 10.2738 51.453 11.378C51.8851 12.4582 52.1011 13.6584 52.1011 14.9786V25.5644C52.1011 25.8524 51.9931 26.1045 51.7771 26.3205C51.5611 26.5365 51.309 26.6445 51.021 26.6445C50.6849 26.6445 50.4209 26.5365 50.2288 26.3205C50.0368 26.1045 49.9408 25.8524 49.9408 25.5644V15.0866C49.9408 14.1265 49.7848 13.2503 49.4727 12.4582C49.1607 11.6661 48.6446 11.03 47.9244 10.5499C47.2283 10.0698 46.3042 9.82976 45.152 9.82976C44.1198 9.82976 43.1357 10.0698 42.1995 10.5499C41.2874 11.03 40.5432 11.6661 39.9671 12.4582C39.391 13.2503 39.103 14.1265 39.103 15.0866V25.5644C39.103 25.8524 38.995 26.1045 38.7789 26.3205C38.5629 26.5365 38.3109 26.6445 38.0228 26.6445C37.6868 26.6445 37.4227 26.5365 37.2307 26.3205C37.0387 26.1045 36.9426 25.8524 36.9426 25.5644V9.4337C36.9426 9.14565 37.0387 8.89361 37.2307 8.67757C37.4467 8.46153 37.7108 8.35352 38.0228 8.35352C38.3349 8.35352 38.5869 8.46153 38.7789 8.67757C38.995 8.89361 39.103 9.14565 39.103 9.4337V12.4582L38.2749 13.7544C38.3229 12.9863 38.5629 12.2542 38.995 11.558C39.451 10.8379 40.0271 10.2018 40.7233 9.64973C41.4194 9.07364 42.1875 8.62956 43.0276 8.31751C43.8918 7.98146 44.7559 7.81343 45.6201 7.81343ZM72.8451 0.000136398C73.1571 0.000136398 73.4092 0.108154 73.6012 0.32419C73.8172 0.516221 73.9252 0.768262 73.9252 1.08031V25.5644C73.9252 25.8524 73.8172 26.1045 73.6012 26.3205C73.3852 26.5365 73.1331 26.6445 72.8451 26.6445C72.533 26.6445 72.269 26.5365 72.0529 26.3205C71.8609 26.1045 71.7649 25.8524 71.7649 25.5644V21.2797L72.377 20.7756C72.377 21.4477 72.197 22.1558 71.8369 22.8999C71.4768 23.62 70.9608 24.2922 70.2886 24.9163C69.6405 25.5404 68.8724 26.0444 67.9843 26.4285C67.1201 26.8126 66.184 27.0046 65.1758 27.0046C63.5675 27.0046 62.1153 26.5845 60.8191 25.7444C59.5469 24.9043 58.5387 23.7641 57.7946 22.3238C57.0505 20.8836 56.6784 19.2393 56.6784 17.391C56.6784 15.5667 57.0505 13.9344 57.7946 12.4942C58.5387 11.03 59.5469 9.88977 60.8191 9.07363C62.0913 8.2335 63.5315 7.81343 65.1398 7.81343C66.124 7.81343 67.0601 7.99346 67.9483 8.35352C68.8364 8.71358 69.6165 9.20566 70.2886 9.82976C70.9848 10.4539 71.5249 11.174 71.9089 11.9901C72.317 12.7822 72.521 13.6104 72.521 14.4745L71.7649 13.9344V1.08031C71.7649 0.792266 71.8609 0.540224 72.0529 0.32419C72.269 0.108154 72.533 0.000136398 72.8451 0.000136398ZM65.3558 24.9883C66.652 24.9883 67.7802 24.6642 68.7404 24.0161C69.7246 23.344 70.4927 22.4438 71.0448 21.3157C71.6209 20.1635 71.9089 18.8553 71.9089 17.391C71.9089 15.9508 71.6209 14.6666 71.0448 13.5384C70.4927 12.3862 69.7246 11.486 68.7404 10.8379C67.7562 10.1658 66.628 9.82976 65.3558 9.82976C64.1076 9.82976 62.9794 10.1658 61.9713 10.8379C60.9871 11.486 60.207 12.3862 59.6309 13.5384C59.0788 14.6666 58.8027 15.9508 58.8027 17.391C58.8027 18.8312 59.0788 20.1275 59.6309 21.2797C60.207 22.4318 60.9871 23.344 61.9713 24.0161C62.9794 24.6642 64.1076 24.9883 65.3558 24.9883ZM78.55 23.7281C78.358 23.44 78.262 23.164 78.262 22.8999C78.286 22.6119 78.442 22.3838 78.7301 22.2158C78.9221 22.0478 79.1381 21.9758 79.3782 21.9998C79.6422 22.0238 79.8823 22.1438 80.0983 22.3598C80.7464 23.2 81.5265 23.8841 82.4387 24.4122C83.3748 24.9163 84.479 25.1683 85.7512 25.1683C86.4233 25.1683 87.0835 25.0603 87.7316 24.8442C88.4037 24.6042 88.9558 24.2561 89.3878 23.8001C89.8199 23.32 90.0359 22.7199 90.0359 21.9998C90.0359 21.2556 89.8199 20.6556 89.3878 20.1995C88.9558 19.7434 88.3917 19.3833 87.6956 19.1193C87.0234 18.8553 86.3033 18.6272 85.5352 18.4352C84.7191 18.2191 83.9269 17.9791 83.1588 17.7151C82.3907 17.427 81.7066 17.079 81.1065 16.6709C80.5304 16.2388 80.0623 15.7227 79.7022 15.1226C79.3422 14.5225 79.1621 13.7904 79.1621 12.9263C79.1621 11.9181 79.4382 11.03 79.9903 10.2618C80.5424 9.49371 81.2865 8.89361 82.2226 8.46154C83.1828 8.02946 84.263 7.81343 85.4632 7.81343C86.0633 7.81343 86.7114 7.89744 87.4075 8.06547C88.1036 8.20949 88.7877 8.46153 89.4598 8.82159C90.132 9.18165 90.7321 9.67373 91.2601 10.2978C91.4762 10.5139 91.5842 10.7659 91.5842 11.054C91.5842 11.318 91.4642 11.558 91.2241 11.7741C91.0321 11.9181 90.8041 11.9901 90.54 11.9901C90.3 11.9901 90.096 11.8941 89.9279 11.7021C89.3518 11.054 88.6677 10.5619 87.8756 10.2258C87.0835 9.88977 86.2313 9.72174 85.3192 9.72174C84.623 9.72174 83.9629 9.84176 83.3388 10.0818C82.7387 10.2978 82.2347 10.6339 81.8266 11.09C81.4185 11.546 81.2145 12.1461 81.2145 12.8903C81.2625 13.5864 81.5025 14.1505 81.9346 14.5825C82.3907 15.0146 82.9788 15.3747 83.6989 15.6627C84.443 15.9508 85.2712 16.2148 86.1833 16.4549C86.9514 16.6469 87.6836 16.8749 88.3797 17.139C89.0998 17.403 89.7239 17.7391 90.252 18.1471C90.8041 18.5312 91.2361 19.0233 91.5482 19.6234C91.8842 20.2235 92.0523 20.9796 92.0523 21.8918C92.0523 22.9479 91.7522 23.8601 91.1521 24.6282C90.576 25.3963 89.7959 25.9844 88.8117 26.3925C87.8276 26.8006 86.7354 27.0046 85.5352 27.0046C84.239 27.0046 82.9788 26.7526 81.7546 26.2485C80.5544 25.7444 79.4862 24.9043 78.55 23.7281ZM104.861 8.10147C106.374 8.10147 107.598 8.42553 108.534 9.07363C109.47 9.72174 110.154 10.5979 110.586 11.7021C111.042 12.8063 111.27 14.0305 111.27 15.3747V25.5644C111.27 25.8524 111.162 26.1045 110.946 26.3205C110.73 26.5365 110.478 26.6445 110.19 26.6445C109.854 26.6445 109.59 26.5365 109.398 26.3205C109.206 26.1045 109.11 25.8524 109.11 25.5644V15.3747C109.11 14.3905 108.954 13.5024 108.642 12.7102C108.354 11.9181 107.874 11.294 107.202 10.8379C106.53 10.3578 105.63 10.1178 104.501 10.1178C103.493 10.1178 102.533 10.3578 101.621 10.8379C100.733 11.294 100.013 11.9181 99.4605 12.7102C98.9084 13.5024 98.6324 14.3905 98.6324 15.3747V25.5644C98.6324 25.8524 98.5243 26.1045 98.3083 26.3205C98.0923 26.5365 97.8402 26.6445 97.5522 26.6445C97.2161 26.6445 96.9521 26.5365 96.7601 26.3205C96.568 26.1045 96.472 25.8524 96.472 25.5644V1.08031C96.472 0.792266 96.568 0.540224 96.7601 0.32419C96.9761 0.108154 97.2401 0.000136398 97.5522 0.000136398C97.8642 0.000136398 98.1163 0.108154 98.3083 0.32419C98.5243 0.540224 98.6324 0.792266 98.6324 1.08031V12.7462L97.8042 14.0065C97.8522 13.2623 98.0803 12.5422 98.4883 11.8461C98.9204 11.126 99.4725 10.4899 100.145 9.93778C100.817 9.36168 101.561 8.91761 102.377 8.60556C103.193 8.2695 104.021 8.10147 104.861 8.10147ZM125.254 27.0046C123.405 27.0046 121.773 26.6085 120.357 25.8164C118.941 25.0243 117.836 23.9201 117.044 22.5039C116.252 21.0876 115.856 19.4313 115.856 17.535C115.856 15.4947 116.252 13.7544 117.044 12.3142C117.86 10.8739 118.905 9.76975 120.177 9.00162C121.473 8.20949 122.841 7.81343 124.282 7.81343C125.338 7.81343 126.358 8.00546 127.342 8.38952C128.35 8.74958 129.238 9.30167 130.006 10.0458C130.799 10.7659 131.423 11.6541 131.879 12.7102C132.359 13.7664 132.623 14.9906 132.671 16.3828C132.647 16.6709 132.527 16.9229 132.311 17.139C132.095 17.331 131.843 17.427 131.555 17.427H117.116L116.684 15.4827H130.871L130.403 15.9148V15.1946C130.307 14.0665 129.946 13.1063 129.322 12.3142C128.698 11.522 127.942 10.9219 127.054 10.5139C126.166 10.1058 125.242 9.90177 124.282 9.90177C123.561 9.90177 122.817 10.0458 122.049 10.3338C121.305 10.6219 120.621 11.078 119.997 11.7021C119.397 12.3022 118.905 13.0823 118.521 14.0425C118.137 14.9786 117.944 16.0948 117.944 17.391C117.944 18.8072 118.233 20.0915 118.809 21.2436C119.385 22.3958 120.213 23.308 121.293 23.9801C122.397 24.6522 123.705 24.9883 125.218 24.9883C126.058 24.9883 126.814 24.8682 127.486 24.6282C128.158 24.3882 128.746 24.0761 129.25 23.6921C129.754 23.284 130.175 22.8639 130.511 22.4318C130.775 22.2158 131.039 22.1078 131.303 22.1078C131.543 22.1078 131.747 22.2038 131.915 22.3958C132.107 22.5879 132.203 22.8039 132.203 23.0439C132.203 23.332 132.083 23.584 131.843 23.8001C131.123 24.6642 130.187 25.4203 129.034 26.0684C127.882 26.6925 126.622 27.0046 125.254 27.0046ZM145.613 27.0046C143.764 27.0046 142.132 26.6085 140.716 25.8164C139.299 25.0243 138.195 23.9201 137.403 22.5039C136.611 21.0876 136.215 19.4313 136.215 17.535C136.215 15.4947 136.611 13.7544 137.403 12.3142C138.219 10.8739 139.263 9.76975 140.536 9.00162C141.832 8.20949 143.2 7.81343 144.64 7.81343C145.697 7.81343 146.717 8.00546 147.701 8.38952C148.709 8.74958 149.597 9.30167 150.365 10.0458C151.157 10.7659 151.782 11.6541 152.238 12.7102C152.718 13.7664 152.982 14.9906 153.03 16.3828C153.006 16.6709 152.886 16.9229 152.67 17.139C152.454 17.331 152.202 17.427 151.914 17.427H137.475L137.043 15.4827H151.229L150.761 15.9148V15.1946C150.665 14.0665 150.305 13.1063 149.681 12.3142C149.057 11.522 148.301 10.9219 147.413 10.5139C146.525 10.1058 145.601 9.90177 144.64 9.90177C143.92 9.90177 143.176 10.0458 142.408 10.3338C141.664 10.6219 140.98 11.078 140.356 11.7021C139.756 12.3022 139.263 13.0823 138.879 14.0425C138.495 14.9786 138.303 16.0948 138.303 17.391C138.303 18.8072 138.591 20.0915 139.167 21.2436C139.744 22.3958 140.572 23.308 141.652 23.9801C142.756 24.6522 144.064 24.9883 145.577 24.9883C146.417 24.9883 147.173 24.8682 147.845 24.6282C148.517 24.3882 149.105 24.0761 149.609 23.6921C150.113 23.284 150.533 22.8639 150.869 22.4318C151.133 22.2158 151.397 22.1078 151.662 22.1078C151.902 22.1078 152.106 22.2038 152.274 22.3958C152.466 22.5879 152.562 22.8039 152.562 23.0439C152.562 23.332 152.442 23.584 152.202 23.8001C151.482 24.6642 150.545 25.4203 149.393 26.0684C148.241 26.6925 146.981 27.0046 145.613 27.0046ZM166.403 8.10147C168.036 8.10147 169.476 8.50954 170.724 9.32568C171.996 10.1178 173.005 11.222 173.749 12.6382C174.493 14.0305 174.865 15.6387 174.865 17.463C174.865 19.2873 174.493 20.9076 173.749 22.3238C173.005 23.7401 171.996 24.8562 170.724 25.6724C169.452 26.4885 168.024 26.8966 166.439 26.8966C165.599 26.8966 164.795 26.7766 164.027 26.5365C163.283 26.2725 162.599 25.9244 161.975 25.4923C161.351 25.0603 160.799 24.5562 160.318 23.9801C159.838 23.38 159.454 22.7319 159.166 22.0358L159.814 21.5677V32.7656C159.814 33.0536 159.706 33.3056 159.49 33.5217C159.298 33.7377 159.046 33.8457 158.734 33.8457C158.422 33.8457 158.158 33.7377 157.942 33.5217C157.75 33.3056 157.654 33.0536 157.654 32.7656V9.28967C157.654 8.97762 157.75 8.71358 157.942 8.49754C158.134 8.2815 158.398 8.17349 158.734 8.17349C159.046 8.17349 159.298 8.2815 159.49 8.49754C159.706 8.71358 159.814 8.97762 159.814 9.28967V13.1783L159.31 12.8903C159.55 12.1461 159.898 11.486 160.354 10.9099C160.835 10.3098 161.387 9.80576 162.011 9.39769C162.635 8.96562 163.319 8.64156 164.063 8.42553C164.807 8.20949 165.587 8.10147 166.403 8.10147ZM166.223 10.1178C164.927 10.1178 163.787 10.4419 162.803 11.09C161.819 11.7141 161.039 12.5782 160.462 13.6824C159.91 14.7626 159.634 16.0228 159.634 17.463C159.634 18.8793 159.91 20.1515 160.462 21.2797C161.039 22.4078 161.819 23.296 162.803 23.9441C163.787 24.5682 164.927 24.8802 166.223 24.8802C167.496 24.8802 168.612 24.5682 169.572 23.9441C170.556 23.296 171.336 22.4078 171.912 21.2797C172.488 20.1515 172.776 18.8793 172.776 17.463C172.776 16.0468 172.488 14.7866 171.912 13.6824C171.336 12.5782 170.556 11.7141 169.572 11.09C168.612 10.4419 167.496 10.1178 166.223 10.1178ZM193.964 24.5202C194.252 24.5202 194.504 24.6282 194.72 24.8442C194.936 25.0363 195.044 25.2763 195.044 25.5644C195.044 25.8764 194.936 26.1405 194.72 26.3565C194.504 26.5485 194.252 26.6445 193.964 26.6445H181.11C180.798 26.6445 180.534 26.5365 180.318 26.3205C180.126 26.1045 180.03 25.8524 180.03 25.5644V2.52055C180.03 2.2325 180.138 1.98046 180.354 1.76443C180.57 1.54839 180.846 1.44037 181.182 1.44037C181.47 1.44037 181.722 1.54839 181.938 1.76443C182.178 1.98046 182.298 2.2325 182.298 2.52055V25.1323L181.614 24.5202H193.964ZM213.739 8.2455C214.051 8.2455 214.304 8.35352 214.496 8.56955C214.712 8.78559 214.82 9.04963 214.82 9.36168V25.5644C214.82 25.8524 214.712 26.1045 214.496 26.3205C214.28 26.5365 214.027 26.6445 213.739 26.6445C213.427 26.6445 213.163 26.5365 212.947 26.3205C212.755 26.1045 212.659 25.8524 212.659 25.5644V21.2797L213.271 20.9916C213.271 21.6637 213.079 22.3478 212.695 23.0439C212.335 23.7401 211.831 24.3882 211.183 24.9883C210.535 25.5884 209.767 26.0804 208.879 26.4645C208.015 26.8246 207.078 27.0046 206.07 27.0046C204.438 27.0046 202.974 26.5845 201.677 25.7444C200.405 24.9043 199.397 23.7521 198.653 22.2878C197.933 20.8236 197.573 19.1793 197.573 17.355C197.573 15.4827 197.945 13.8384 198.689 12.4222C199.433 10.982 200.441 9.85376 201.713 9.03763C202.986 8.2215 204.426 7.81343 206.034 7.81343C207.066 7.81343 208.027 7.99346 208.915 8.35352C209.827 8.71358 210.619 9.20566 211.291 9.82976C211.963 10.4539 212.479 11.174 212.839 11.9901C213.223 12.7822 213.415 13.6104 213.415 14.4745L212.659 13.9344V9.36168C212.659 9.04963 212.755 8.78559 212.947 8.56955C213.163 8.35352 213.427 8.2455 213.739 8.2455ZM206.25 24.9883C207.522 24.9883 208.651 24.6642 209.635 24.0161C210.619 23.344 211.387 22.4318 211.939 21.2797C212.515 20.1035 212.803 18.7952 212.803 17.355C212.803 15.9388 212.515 14.6666 211.939 13.5384C211.387 12.4102 210.619 11.51 209.635 10.8379C208.651 10.1658 207.522 9.82976 206.25 9.82976C205.002 9.82976 203.874 10.1538 202.866 10.8019C201.881 11.45 201.101 12.3382 200.525 13.4664C199.973 14.5945 199.697 15.8908 199.697 17.355C199.697 18.7952 199.973 20.1035 200.525 21.2797C201.101 22.4318 201.881 23.344 202.866 24.0161C203.85 24.6642 204.978 24.9883 206.25 24.9883ZM229.238 7.81343C230.87 7.81343 232.311 8.2215 233.559 9.03763C234.831 9.85376 235.839 10.982 236.583 12.4222C237.327 13.8384 237.699 15.4827 237.699 17.355C237.699 19.1793 237.327 20.8236 236.583 22.2878C235.839 23.7521 234.831 24.9043 233.559 25.7444C232.287 26.5845 230.858 27.0046 229.274 27.0046C228.434 27.0046 227.63 26.8726 226.862 26.6085C226.118 26.3445 225.433 25.9964 224.809 25.5644C224.185 25.1083 223.633 24.5802 223.153 23.9801C222.673 23.38 222.289 22.7319 222.001 22.0358L222.649 21.5677V25.6364C222.649 25.9484 222.541 26.2125 222.325 26.4285C222.133 26.6205 221.881 26.7166 221.569 26.7166C221.257 26.7166 220.993 26.6205 220.777 26.4285C220.585 26.2125 220.489 25.9484 220.489 25.6364V1.11632C220.489 0.804268 220.585 0.552226 220.777 0.360196C220.969 0.14416 221.233 0.0361419 221.569 0.0361419C221.881 0.0361419 222.133 0.14416 222.325 0.360196C222.541 0.552226 222.649 0.804268 222.649 1.11632V13.1783L222.145 12.8903C222.385 12.1461 222.733 11.474 223.189 10.8739C223.669 10.2498 224.221 9.70974 224.845 9.25367C225.469 8.79759 226.154 8.44953 226.898 8.20949C227.642 7.94545 228.422 7.81343 229.238 7.81343ZM229.058 9.82976C227.762 9.82976 226.622 10.1538 225.637 10.8019C224.653 11.45 223.873 12.3382 223.297 13.4664C222.745 14.5945 222.469 15.8908 222.469 17.355C222.469 18.7952 222.745 20.1035 223.297 21.2797C223.873 22.4318 224.653 23.344 225.637 24.0161C226.622 24.6642 227.762 24.9883 229.058 24.9883C230.33 24.9883 231.446 24.6522 232.407 23.9801C233.391 23.308 234.171 22.3958 234.747 21.2436C235.323 20.0675 235.611 18.7712 235.611 17.355C235.611 15.8908 235.323 14.5945 234.747 13.4664C234.171 12.3382 233.391 11.45 232.407 10.8019C231.446 10.1538 230.33 9.82976 229.058 9.82976ZM241.28 23.7281C241.088 23.44 240.992 23.164 240.992 22.8999C241.016 22.6119 241.172 22.3838 241.46 22.2158C241.652 22.0478 241.868 21.9758 242.108 21.9998C242.372 22.0238 242.612 22.1438 242.828 22.3598C243.476 23.2 244.257 23.8841 245.169 24.4122C246.105 24.9163 247.209 25.1683 248.481 25.1683C249.153 25.1683 249.813 25.0603 250.462 24.8442C251.134 24.6042 251.686 24.2561 252.118 23.8001C252.55 23.32 252.766 22.7199 252.766 21.9998C252.766 21.2556 252.55 20.6556 252.118 20.1995C251.686 19.7434 251.122 19.3833 250.426 19.1193C249.753 18.8553 249.033 18.6272 248.265 18.4352C247.449 18.2191 246.657 17.9791 245.889 17.7151C245.121 17.427 244.437 17.079 243.836 16.6709C243.26 16.2388 242.792 15.7227 242.432 15.1226C242.072 14.5225 241.892 13.7904 241.892 12.9263C241.892 11.9181 242.168 11.03 242.72 10.2618C243.272 9.49371 244.017 8.89361 244.953 8.46154C245.913 8.02946 246.993 7.81343 248.193 7.81343C248.793 7.81343 249.441 7.89744 250.138 8.06547C250.834 8.20949 251.518 8.46153 252.19 8.82159C252.862 9.18165 253.462 9.67373 253.99 10.2978C254.206 10.5139 254.314 10.7659 254.314 11.054C254.314 11.318 254.194 11.558 253.954 11.7741C253.762 11.9181 253.534 11.9901 253.27 11.9901C253.03 11.9901 252.826 11.8941 252.658 11.7021C252.082 11.054 251.398 10.5619 250.606 10.2258C249.813 9.88977 248.961 9.72174 248.049 9.72174C247.353 9.72174 246.693 9.84176 246.069 10.0818C245.469 10.2978 244.965 10.6339 244.557 11.09C244.149 11.546 243.945 12.1461 243.945 12.8903C243.993 13.5864 244.233 14.1505 244.665 14.5825C245.121 15.0146 245.709 15.3747 246.429 15.6627C247.173 15.9508 248.001 16.2148 248.913 16.4549C249.681 16.6469 250.414 16.8749 251.11 17.139C251.83 17.403 252.454 17.7391 252.982 18.1471C253.534 18.5312 253.966 19.0233 254.278 19.6234C254.614 20.2235 254.782 20.9796 254.782 21.8918C254.782 22.9479 254.482 23.8601 253.882 24.6282C253.306 25.3963 252.526 25.9844 251.542 26.3925C250.558 26.8006 249.465 27.0046 248.265 27.0046C246.969 27.0046 245.709 26.7526 244.485 26.2485C243.284 25.7444 242.216 24.9043 241.28 23.7281ZM280.533 26.7166C278.781 26.7166 277.137 26.4045 275.6 25.7804C274.064 25.1323 272.708 24.2441 271.532 23.116C270.38 21.9878 269.467 20.6435 268.795 19.0833C268.147 17.523 267.823 15.8428 267.823 14.0425C267.823 12.1942 268.147 10.5019 268.795 8.96562C269.467 7.42936 270.38 6.09714 271.532 4.96896C272.708 3.81677 274.064 2.92862 275.6 2.30452C277.137 1.65641 278.781 1.33236 280.533 1.33236C282.262 1.33236 283.894 1.65641 285.43 2.30452C286.966 2.92862 288.311 3.81677 289.463 4.96896C290.639 6.09714 291.551 7.42936 292.199 8.96562C292.871 10.5019 293.207 12.1942 293.207 14.0425C293.207 15.8428 292.871 17.523 292.199 19.0833C291.551 20.6435 290.639 21.9878 289.463 23.116C288.311 24.2441 286.966 25.1323 285.43 25.7804C283.894 26.4045 282.262 26.7166 280.533 26.7166ZM280.533 25.0243C282.022 25.0243 283.426 24.7602 284.746 24.2321C286.066 23.6801 287.23 22.9119 288.239 21.9278C289.271 20.9436 290.063 19.7794 290.615 18.4352C291.191 17.091 291.479 15.6267 291.479 14.0425C291.479 12.4582 291.191 11.006 290.615 9.68574C290.063 8.34151 289.271 7.17732 288.239 6.19316C287.23 5.18499 286.066 4.40486 284.746 3.85277C283.426 3.30068 282.022 3.02464 280.533 3.02464C279.021 3.02464 277.605 3.30068 276.285 3.85277C274.964 4.40486 273.8 5.18499 272.792 6.19316C271.784 7.17732 270.992 8.34151 270.416 9.68574C269.864 11.006 269.587 12.4582 269.587 14.0425C269.587 15.6267 269.864 17.091 270.416 18.4352C270.992 19.7794 271.784 20.9436 272.792 21.9278C273.8 22.9119 274.964 23.6801 276.285 24.2321C277.605 24.7602 279.021 25.0243 280.533 25.0243ZM281.181 21.1356C279.741 21.1356 278.469 20.8356 277.365 20.2355C276.285 19.6114 275.432 18.7592 274.808 17.6791C274.184 16.5989 273.872 15.3867 273.872 14.0425C273.872 12.7462 274.172 11.558 274.772 10.4779C275.372 9.39769 276.225 8.54555 277.329 7.92144C278.433 7.27334 279.717 6.94928 281.181 6.94928C282.718 6.94928 284.086 7.34535 285.286 8.13748C285.526 8.2575 285.67 8.46153 285.718 8.74958C285.766 9.03763 285.706 9.28967 285.538 9.50571C285.394 9.72174 285.202 9.84176 284.962 9.86577C284.722 9.86577 284.506 9.81776 284.314 9.72174C283.858 9.43369 283.366 9.20566 282.838 9.03763C282.31 8.8696 281.758 8.78559 281.181 8.78559C280.077 8.78559 279.117 9.02563 278.301 9.50571C277.485 9.96178 276.861 10.5859 276.429 11.378C275.997 12.1461 275.781 13.0343 275.781 14.0425C275.781 15.0746 275.997 15.9868 276.429 16.7789C276.861 17.571 277.485 18.1951 278.301 18.6512C279.117 19.0833 280.077 19.2993 281.181 19.2993C281.758 19.2993 282.298 19.2153 282.802 19.0473C283.33 18.8793 283.834 18.6632 284.314 18.3992C284.506 18.2792 284.722 18.2432 284.962 18.2912C285.202 18.3152 285.394 18.4232 285.538 18.6152C285.706 18.8312 285.766 19.0833 285.718 19.3713C285.67 19.6354 285.538 19.8394 285.322 19.9834C284.722 20.3435 284.062 20.6315 283.342 20.8476C282.646 21.0396 281.926 21.1356 281.181 21.1356ZM321.737 24.5562C322.025 24.5562 322.265 24.6642 322.457 24.8802C322.673 25.0723 322.781 25.3123 322.781 25.6004C322.781 25.9124 322.673 26.1645 322.457 26.3565C322.265 26.5485 322.025 26.6445 321.737 26.6445H308.235C307.923 26.6445 307.647 26.5605 307.407 26.3925C307.191 26.2005 307.083 25.9244 307.083 25.5644C307.083 25.3003 307.179 25.0483 307.371 24.8082L315.688 15.6267C317.008 14.1865 317.992 12.8663 318.641 11.6661C319.313 10.4419 319.649 9.34968 319.649 8.38952C319.649 6.80526 319.169 5.53305 318.208 4.57289C317.248 3.61273 315.952 3.13265 314.32 3.13265C313.576 3.13265 312.832 3.28868 312.087 3.60073C311.367 3.91278 310.719 4.32085 310.143 4.82493C309.591 5.32902 309.159 5.90511 308.847 6.55322C308.703 6.79326 308.547 6.96129 308.379 7.0573C308.235 7.15332 308.067 7.20133 307.875 7.20133C307.587 7.20133 307.335 7.11731 307.119 6.94928C306.903 6.75725 306.795 6.52922 306.795 6.26517C306.795 6.09714 306.831 5.92912 306.903 5.76109C306.999 5.59306 307.131 5.40103 307.299 5.18499C307.731 4.44087 308.331 3.75676 309.099 3.13265C309.867 2.50855 310.719 2.01647 311.655 1.65641C312.616 1.27235 313.552 1.08031 314.464 1.08031C316 1.08031 317.32 1.38036 318.424 1.98046C319.553 2.55656 320.417 3.3847 321.017 4.46487C321.641 5.52105 321.953 6.78126 321.953 8.2455C321.953 9.4937 321.557 10.8619 320.765 12.3502C319.997 13.8144 318.845 15.3987 317.308 17.103L310.287 24.9883L309.927 24.5562H321.737ZM335.301 27.0046C333.381 27.0046 331.772 26.4285 330.476 25.2763C329.18 24.1241 328.208 22.5759 327.56 20.6315C326.911 18.6632 326.587 16.4669 326.587 14.0425C326.587 11.5941 326.911 9.39769 327.56 7.45337C328.208 5.48504 329.18 3.93679 330.476 2.8086C331.772 1.65641 333.381 1.08031 335.301 1.08031C337.269 1.08031 338.889 1.65641 340.162 2.8086C341.458 3.93679 342.43 5.48504 343.078 7.45337C343.726 9.39769 344.05 11.5941 344.05 14.0425C344.05 16.4669 343.726 18.6632 343.078 20.6315C342.43 22.5759 341.458 24.1241 340.162 25.2763C338.889 26.4285 337.269 27.0046 335.301 27.0046ZM335.301 24.7722C336.717 24.7722 337.893 24.3282 338.829 23.44C339.79 22.5519 340.51 21.3037 340.99 19.6954C341.494 18.0631 341.746 16.1788 341.746 14.0425C341.746 11.8821 341.494 9.99779 340.99 8.38952C340.51 6.75725 339.79 5.49704 338.829 4.6089C337.893 3.72075 336.717 3.27668 335.301 3.27668C333.909 3.27668 332.732 3.72075 331.772 4.6089C330.836 5.49704 330.116 6.75725 329.612 8.38952C329.132 9.99779 328.892 11.8821 328.892 14.0425C328.892 16.1788 329.132 18.0631 329.612 19.6954C330.116 21.3037 330.836 22.5519 331.772 23.44C332.732 24.3282 333.909 24.7722 335.301 24.7722ZM363.088 24.5562C363.376 24.5562 363.616 24.6642 363.808 24.8802C364.024 25.0723 364.132 25.3123 364.132 25.6004C364.132 25.9124 364.024 26.1645 363.808 26.3565C363.616 26.5485 363.376 26.6445 363.088 26.6445H349.585C349.273 26.6445 348.997 26.5605 348.757 26.3925C348.541 26.2005 348.433 25.9244 348.433 25.5644C348.433 25.3003 348.529 25.0483 348.721 24.8082L357.039 15.6267C358.359 14.1865 359.343 12.8663 359.991 11.6661C360.663 10.4419 360.999 9.34968 360.999 8.38952C360.999 6.80526 360.519 5.53305 359.559 4.57289C358.599 3.61273 357.303 3.13265 355.67 3.13265C354.926 3.13265 354.182 3.28868 353.438 3.60073C352.718 3.91278 352.07 4.32085 351.494 4.82493C350.942 5.32902 350.51 5.90511 350.197 6.55322C350.053 6.79326 349.897 6.96129 349.729 7.0573C349.585 7.15332 349.417 7.20133 349.225 7.20133C348.937 7.20133 348.685 7.11731 348.469 6.94928C348.253 6.75725 348.145 6.52922 348.145 6.26517C348.145 6.09714 348.181 5.92912 348.253 5.76109C348.349 5.59306 348.481 5.40103 348.649 5.18499C349.081 4.44087 349.681 3.75676 350.45 3.13265C351.218 2.50855 352.07 2.01647 353.006 1.65641C353.966 1.27235 354.902 1.08031 355.814 1.08031C357.351 1.08031 358.671 1.38036 359.775 1.98046C360.903 2.55656 361.767 3.3847 362.368 4.46487C362.992 5.52105 363.304 6.78126 363.304 8.2455C363.304 9.4937 362.908 10.8619 362.115 12.3502C361.347 13.8144 360.195 15.3987 358.659 17.103L351.638 24.9883L351.278 24.5562H363.088ZM374.383 26.7166C373.399 26.7166 372.403 26.5605 371.395 26.2485C370.41 25.9124 369.534 25.4203 368.766 24.7722C368.622 24.6522 368.502 24.5082 368.406 24.3402C368.334 24.1721 368.298 24.0041 368.298 23.8361C368.298 23.596 368.394 23.368 368.586 23.152C368.778 22.9119 369.03 22.7919 369.342 22.7919C369.606 22.7919 369.87 22.8999 370.134 23.116C370.758 23.596 371.431 23.9681 372.151 24.2321C372.895 24.4962 373.639 24.6282 374.383 24.6282C375.799 24.6282 377.036 24.3642 378.092 23.8361C379.148 23.284 379.964 22.5159 380.54 21.5317C381.116 20.5235 381.404 19.3593 381.404 18.0391C381.404 16.8149 381.14 15.7587 380.612 14.8706C380.084 13.9584 379.328 13.2503 378.344 12.7462C377.384 12.2182 376.243 11.9541 374.923 11.9541C374.059 11.9541 373.267 12.0861 372.547 12.3502C371.851 12.6142 371.239 12.8903 370.71 13.1783C370.206 13.4424 369.798 13.5744 369.486 13.5744C369.198 13.5744 368.958 13.5024 368.766 13.3583C368.598 13.2143 368.478 13.0343 368.406 12.8183C368.358 12.6022 368.358 12.3742 368.406 12.1341L369.954 2.52055C369.978 2.30452 370.086 2.11248 370.278 1.94446C370.494 1.75243 370.758 1.65641 371.071 1.65641H381.908C382.196 1.65641 382.436 1.76443 382.628 1.98046C382.844 2.17249 382.953 2.41253 382.953 2.70058C382.953 3.01263 382.844 3.27668 382.628 3.49271C382.436 3.68474 382.196 3.78076 381.908 3.78076H371.575L371.899 3.45671L370.422 11.9901L369.774 11.522C370.086 11.282 370.53 11.042 371.107 10.8019C371.707 10.5619 372.367 10.3578 373.087 10.1898C373.831 9.99779 374.611 9.90177 375.427 9.90177C376.988 9.90177 378.38 10.2498 379.604 10.9459C380.828 11.6181 381.788 12.5662 382.484 13.7904C383.205 14.9906 383.565 16.3828 383.565 17.9671C383.565 19.7194 383.181 21.2556 382.412 22.5759C381.668 23.8721 380.612 24.8923 379.244 25.6364C377.876 26.3565 376.255 26.7166 374.383 26.7166ZM407.233 4.21283L398.484 25.9604C398.388 26.2005 398.256 26.3805 398.088 26.5005C397.92 26.6205 397.728 26.6805 397.512 26.6805C397.176 26.6805 396.924 26.5965 396.756 26.4285C396.588 26.2365 396.492 26.0084 396.468 25.7444C396.444 25.6244 396.456 25.4803 396.504 25.3123L406.009 2.05247C406.129 1.78843 406.273 1.6084 406.441 1.51239C406.633 1.39237 406.849 1.33236 407.089 1.33236C407.329 1.33236 407.534 1.40437 407.702 1.54839C407.894 1.66841 408.038 1.83644 408.134 2.05247L417.603 25.2043C417.651 25.3483 417.675 25.4923 417.675 25.6364C417.675 25.9724 417.567 26.2365 417.351 26.4285C417.135 26.5965 416.883 26.6805 416.595 26.6805C416.355 26.6805 416.139 26.6205 415.947 26.5005C415.779 26.3565 415.647 26.1765 415.551 25.9604L406.585 4.06881L407.233 4.21283ZM400.572 19.3713L401.473 17.247H412.634L413.066 19.3713H400.572ZM423.957 25.5644C423.957 25.8524 423.849 26.1045 423.633 26.3205C423.417 26.5365 423.165 26.6445 422.877 26.6445C422.565 26.6445 422.301 26.5365 422.085 26.3205C421.892 26.1045 421.796 25.8524 421.796 25.5644V1.08031C421.796 0.792266 421.904 0.540224 422.121 0.32419C422.337 0.108154 422.589 0.000136398 422.877 0.000136398C423.189 0.000136398 423.441 0.108154 423.633 0.32419C423.849 0.540224 423.957 0.792266 423.957 1.08031V25.5644ZM432.255 25.5644C432.255 25.8524 432.147 26.1045 431.931 26.3205C431.715 26.5365 431.463 26.6445 431.175 26.6445C430.863 26.6445 430.599 26.5365 430.383 26.3205C430.191 26.1045 430.095 25.8524 430.095 25.5644V1.08031C430.095 0.792266 430.203 0.540224 430.419 0.32419C430.635 0.108154 430.887 0.000136398 431.175 0.000136398C431.487 0.000136398 431.739 0.108154 431.931 0.32419C432.147 0.540224 432.255 0.792266 432.255 1.08031V25.5644ZM449.787 26.6445C449.427 26.6445 449.126 26.5365 448.886 26.3205C448.67 26.1045 448.562 25.8524 448.562 25.5644V2.52055C448.562 2.2325 448.67 1.98046 448.886 1.76443C449.102 1.54839 449.355 1.44037 449.643 1.44037H459.364C460.732 1.44037 461.957 1.74042 463.037 2.34052C464.117 2.91662 464.957 3.72075 465.557 4.75292C466.181 5.78509 466.493 6.94928 466.493 8.2455C466.493 9.30167 466.301 10.2738 465.917 11.162C465.533 12.0501 464.993 12.8063 464.297 13.4304C463.601 14.0305 462.821 14.4745 461.957 14.7626L460.696 14.3665C461.585 14.4385 462.413 14.7266 463.181 15.2307C463.949 15.7107 464.561 16.3828 465.017 17.247C465.497 18.0871 465.749 19.1073 465.773 20.3075C465.797 21.3397 465.845 22.1438 465.917 22.7199C466.013 23.296 466.145 23.7281 466.313 24.0161C466.481 24.3042 466.697 24.5322 466.961 24.7002C467.201 24.8442 467.357 25.0483 467.429 25.3123C467.526 25.5764 467.502 25.8284 467.357 26.0684C467.261 26.2605 467.117 26.4045 466.925 26.5005C466.757 26.5725 466.577 26.6085 466.385 26.6085C466.193 26.6085 466.001 26.5605 465.809 26.4645C465.473 26.2725 465.125 25.9724 464.765 25.5644C464.429 25.1563 464.141 24.5562 463.901 23.7641C463.685 22.9719 463.577 21.8678 463.577 20.4515C463.577 19.5154 463.421 18.7472 463.109 18.1471C462.821 17.547 462.437 17.091 461.957 16.7789C461.501 16.4429 460.984 16.2148 460.408 16.0948C459.856 15.9508 459.328 15.8788 458.824 15.8788H450.435L450.831 15.3747V25.5644C450.831 25.8524 450.735 26.1045 450.543 26.3205C450.351 26.5365 450.099 26.6445 449.787 26.6445ZM450.435 13.8984H459.472C460.288 13.8264 461.056 13.5624 461.777 13.1063C462.497 12.6262 463.073 11.9781 463.505 11.162C463.961 10.3458 464.189 9.39769 464.189 8.31751C464.189 6.94928 463.721 5.8211 462.785 4.93295C461.873 4.0208 460.672 3.56472 459.184 3.56472H450.579L450.831 3.06064V14.4025L450.435 13.8984ZM474.232 25.5644C474.232 25.8524 474.124 26.1045 473.908 26.3205C473.692 26.5365 473.44 26.6445 473.152 26.6445C472.84 26.6445 472.576 26.5365 472.359 26.3205C472.167 26.1045 472.071 25.8524 472.071 25.5644V9.00162C472.071 8.71358 472.167 8.46153 472.359 8.2455C472.576 8.02946 472.84 7.92144 473.152 7.92144C473.464 7.92144 473.716 8.02946 473.908 8.2455C474.124 8.46153 474.232 8.71358 474.232 9.00162V25.5644ZM473.152 5.50905C472.648 5.50905 472.263 5.40103 471.999 5.18499C471.759 4.94495 471.639 4.6089 471.639 4.17683V3.81677C471.639 3.3847 471.771 3.06064 472.035 2.84461C472.323 2.60457 472.708 2.48455 473.188 2.48455C473.644 2.48455 473.992 2.60457 474.232 2.84461C474.496 3.06064 474.628 3.3847 474.628 3.81677V4.17683C474.628 4.6089 474.496 4.94495 474.232 5.18499C473.992 5.40103 473.632 5.50905 473.152 5.50905ZM487.513 7.81343C488.593 7.81343 489.59 8.00546 490.502 8.38952C491.414 8.74958 492.206 9.22966 492.878 9.82976C493.574 10.4059 494.114 11.03 494.498 11.7021C494.882 12.3502 495.074 12.9743 495.074 13.5744L494.462 12.7102V9.36168C494.462 9.04963 494.558 8.78559 494.75 8.56955C494.966 8.35352 495.23 8.2455 495.543 8.2455C495.879 8.2455 496.143 8.35352 496.335 8.56955C496.527 8.78559 496.623 9.04963 496.623 9.36168V24.9523C496.623 26.8726 496.227 28.4928 495.435 29.8131C494.642 31.1333 493.562 32.1294 492.194 32.8016C490.85 33.4977 489.314 33.8457 487.585 33.8457C486.745 33.8457 485.857 33.7377 484.921 33.5217C484.009 33.3056 483.217 33.0296 482.544 32.6935C481.896 32.3575 481.536 32.0094 481.464 31.6494C481.272 31.4333 481.176 31.2173 481.176 31.0013C481.2 30.8092 481.308 30.6412 481.5 30.4972C481.74 30.3291 481.992 30.3051 482.256 30.4252C482.52 30.5692 482.916 30.7492 483.445 30.9653C483.685 31.0373 484.009 31.1453 484.417 31.2893C484.825 31.4333 485.305 31.5534 485.857 31.6494C486.433 31.7694 487.033 31.8294 487.657 31.8294C489.818 31.8294 491.486 31.2053 492.662 29.9571C493.862 28.7329 494.462 27.1126 494.462 25.0963V21.6397L494.858 21.7477C494.642 22.6119 494.282 23.368 493.778 24.0161C493.298 24.6642 492.722 25.2163 492.05 25.6724C491.378 26.1045 490.646 26.4285 489.854 26.6445C489.085 26.8846 488.317 27.0046 487.549 27.0046C485.893 27.0046 484.405 26.5845 483.084 25.7444C481.764 24.9043 480.708 23.7641 479.916 22.3238C479.148 20.8836 478.764 19.2393 478.764 17.391C478.764 15.5667 479.148 13.9344 479.916 12.4942C480.708 11.03 481.752 9.88977 483.048 9.07363C484.369 8.2335 485.857 7.81343 487.513 7.81343ZM487.765 9.82976C486.445 9.82976 485.257 10.1658 484.201 10.8379C483.169 11.486 482.352 12.3862 481.752 13.5384C481.176 14.6666 480.888 15.9508 480.888 17.391C480.888 18.8312 481.176 20.1275 481.752 21.2797C482.352 22.4318 483.169 23.344 484.201 24.0161C485.257 24.6642 486.445 24.9883 487.765 24.9883C489.085 24.9883 490.262 24.6642 491.294 24.0161C492.326 23.368 493.142 22.4799 493.742 21.3517C494.342 20.1995 494.642 18.8793 494.642 17.391C494.642 15.9028 494.342 14.5945 493.742 13.4664C493.142 12.3142 492.326 11.426 491.294 10.8019C490.262 10.1538 489.085 9.82976 487.765 9.82976ZM510.702 8.10147C512.214 8.10147 513.438 8.42553 514.375 9.07363C515.311 9.72174 515.995 10.5979 516.427 11.7021C516.883 12.8063 517.111 14.0305 517.111 15.3747V25.5644C517.111 25.8524 517.003 26.1045 516.787 26.3205C516.571 26.5365 516.319 26.6445 516.031 26.6445C515.695 26.6445 515.431 26.5365 515.239 26.3205C515.047 26.1045 514.951 25.8524 514.951 25.5644V15.3747C514.951 14.3905 514.795 13.5024 514.483 12.7102C514.194 11.9181 513.714 11.294 513.042 10.8379C512.37 10.3578 511.47 10.1178 510.342 10.1178C509.334 10.1178 508.374 10.3578 507.461 10.8379C506.573 11.294 505.853 11.9181 505.301 12.7102C504.749 13.5024 504.473 14.3905 504.473 15.3747V25.5644C504.473 25.8524 504.365 26.1045 504.149 26.3205C503.933 26.5365 503.681 26.6445 503.393 26.6445C503.057 26.6445 502.793 26.5365 502.601 26.3205C502.409 26.1045 502.313 25.8524 502.313 25.5644V1.08031C502.313 0.792266 502.409 0.540224 502.601 0.32419C502.817 0.108154 503.081 0.000136398 503.393 0.000136398C503.705 0.000136398 503.957 0.108154 504.149 0.32419C504.365 0.540224 504.473 0.792266 504.473 1.08031V12.7462L503.645 14.0065C503.693 13.2623 503.921 12.5422 504.329 11.8461C504.761 11.126 505.313 10.4899 505.985 9.93778C506.657 9.36168 507.401 8.91761 508.217 8.60556C509.034 8.2695 509.862 8.10147 510.702 8.10147ZM521.589 8.31751H529.978C530.266 8.31751 530.506 8.42553 530.698 8.64156C530.89 8.8336 530.986 9.07364 530.986 9.36168C530.986 9.62573 530.89 9.85376 530.698 10.0458C530.506 10.2378 530.266 10.3338 529.978 10.3338H521.589C521.301 10.3338 521.049 10.2378 520.833 10.0458C520.64 9.82976 520.544 9.58972 520.544 9.32568C520.544 9.03763 520.64 8.79759 520.833 8.60556C521.049 8.41353 521.301 8.31751 521.589 8.31751ZM525.297 3.24067C525.609 3.24067 525.861 3.34869 526.053 3.56472C526.269 3.78076 526.377 4.0328 526.377 4.32085V22.3958C526.377 23.0679 526.461 23.572 526.629 23.9081C526.822 24.2441 527.062 24.4722 527.35 24.5922C527.638 24.6882 527.926 24.7362 528.214 24.7362C528.406 24.7362 528.574 24.7122 528.718 24.6642C528.886 24.5922 529.066 24.5562 529.258 24.5562C529.474 24.5562 529.654 24.6402 529.798 24.8082C529.966 24.9763 530.05 25.1923 530.05 25.4563C530.05 25.7924 529.858 26.0804 529.474 26.3205C529.09 26.5365 528.634 26.6445 528.106 26.6445C527.89 26.6445 527.566 26.6325 527.134 26.6085C526.701 26.5605 526.257 26.4285 525.801 26.2125C525.345 25.9724 524.961 25.5644 524.649 24.9883C524.361 24.4122 524.217 23.584 524.217 22.5039V4.32085C524.217 4.0328 524.313 3.78076 524.505 3.56472C524.721 3.34869 524.985 3.24067 525.297 3.24067ZM534.637 23.7281C534.445 23.44 534.349 23.164 534.349 22.8999C534.373 22.6119 534.529 22.3838 534.817 22.2158C535.009 22.0478 535.225 21.9758 535.465 21.9998C535.729 22.0238 535.969 22.1438 536.185 22.3598C536.833 23.2 537.614 23.8841 538.526 24.4122C539.462 24.9163 540.566 25.1683 541.838 25.1683C542.51 25.1683 543.171 25.0603 543.819 24.8442C544.491 24.6042 545.043 24.2561 545.475 23.8001C545.907 23.32 546.123 22.7199 546.123 21.9998C546.123 21.2556 545.907 20.6556 545.475 20.1995C545.043 19.7434 544.479 19.3833 543.783 19.1193C543.111 18.8553 542.39 18.6272 541.622 18.4352C540.806 18.2191 540.014 17.9791 539.246 17.7151C538.478 17.427 537.794 17.079 537.194 16.6709C536.617 16.2388 536.149 15.7227 535.789 15.1226C535.429 14.5225 535.249 13.7904 535.249 12.9263C535.249 11.9181 535.525 11.03 536.077 10.2618C536.629 9.49371 537.374 8.89361 538.31 8.46154C539.27 8.02946 540.35 7.81343 541.55 7.81343C542.15 7.81343 542.798 7.89744 543.495 8.06547C544.191 8.20949 544.875 8.46153 545.547 8.82159C546.219 9.18165 546.819 9.67373 547.347 10.2978C547.563 10.5139 547.671 10.7659 547.671 11.054C547.671 11.318 547.551 11.558 547.311 11.7741C547.119 11.9181 546.891 11.9901 546.627 11.9901C546.387 11.9901 546.183 11.8941 546.015 11.7021C545.439 11.054 544.755 10.5619 543.963 10.2258C543.171 9.88977 542.318 9.72174 541.406 9.72174C540.71 9.72174 540.05 9.84176 539.426 10.0818C538.826 10.2978 538.322 10.6339 537.914 11.09C537.506 11.546 537.302 12.1461 537.302 12.8903C537.35 13.5864 537.59 14.1505 538.022 14.5825C538.478 15.0146 539.066 15.3747 539.786 15.6627C540.53 15.9508 541.358 16.2148 542.27 16.4549C543.039 16.6469 543.771 16.8749 544.467 17.139C545.187 17.403 545.811 17.7391 546.339 18.1471C546.891 18.5312 547.323 19.0233 547.635 19.6234C547.971 20.2235 548.139 20.9796 548.139 21.8918C548.139 22.9479 547.839 23.8601 547.239 24.6282C546.663 25.3963 545.883 25.9844 544.899 26.3925C543.915 26.8006 542.822 27.0046 541.622 27.0046C540.326 27.0046 539.066 26.7526 537.842 26.2485C536.641 25.7444 535.573 24.9043 534.637 23.7281ZM564.169 26.6445C563.809 26.6445 563.509 26.5365 563.269 26.3205C563.053 26.1045 562.945 25.8524 562.945 25.5644V2.52055C562.945 2.2325 563.053 1.98046 563.269 1.76443C563.485 1.54839 563.737 1.44037 564.025 1.44037H573.746C575.115 1.44037 576.339 1.74042 577.419 2.34052C578.499 2.91662 579.339 3.72075 579.939 4.75292C580.563 5.78509 580.876 6.94928 580.876 8.2455C580.876 9.30167 580.683 10.2738 580.299 11.162C579.915 12.0501 579.375 12.8063 578.679 13.4304C577.983 14.0305 577.203 14.4745 576.339 14.7626L575.079 14.3665C575.967 14.4385 576.795 14.7266 577.563 15.2307C578.331 15.7107 578.943 16.3828 579.399 17.247C579.879 18.0871 580.131 19.1073 580.155 20.3075C580.179 21.3397 580.227 22.1438 580.299 22.7199C580.395 23.296 580.527 23.7281 580.695 24.0161C580.864 24.3042 581.08 24.5322 581.344 24.7002C581.584 24.8442 581.74 25.0483 581.812 25.3123C581.908 25.5764 581.884 25.8284 581.74 26.0684C581.644 26.2605 581.5 26.4045 581.308 26.5005C581.14 26.5725 580.96 26.6085 580.768 26.6085C580.575 26.6085 580.383 26.5605 580.191 26.4645C579.855 26.2725 579.507 25.9724 579.147 25.5644C578.811 25.1563 578.523 24.5562 578.283 23.7641C578.067 22.9719 577.959 21.8678 577.959 20.4515C577.959 19.5154 577.803 18.7472 577.491 18.1471C577.203 17.547 576.819 17.091 576.339 16.7789C575.883 16.4429 575.367 16.2148 574.791 16.0948C574.238 15.9508 573.71 15.8788 573.206 15.8788H564.817L565.213 15.3747V25.5644C565.213 25.8524 565.117 26.1045 564.925 26.3205C564.733 26.5365 564.481 26.6445 564.169 26.6445ZM564.817 13.8984H573.854C574.671 13.8264 575.439 13.5624 576.159 13.1063C576.879 12.6262 577.455 11.9781 577.887 11.162C578.343 10.3458 578.571 9.39769 578.571 8.31751C578.571 6.94928 578.103 5.8211 577.167 4.93295C576.255 4.0208 575.055 3.56472 573.566 3.56472H564.961L565.213 3.06064V14.4025L564.817 13.8984ZM594.667 27.0046C592.819 27.0046 591.187 26.6085 589.77 25.8164C588.354 25.0243 587.25 23.9201 586.458 22.5039C585.666 21.0876 585.27 19.4313 585.27 17.535C585.27 15.4947 585.666 13.7544 586.458 12.3142C587.274 10.8739 588.318 9.76975 589.59 9.00162C590.887 8.20949 592.255 7.81343 593.695 7.81343C594.751 7.81343 595.771 8.00546 596.756 8.38952C597.764 8.74958 598.652 9.30167 599.42 10.0458C600.212 10.7659 600.836 11.6541 601.292 12.7102C601.772 13.7664 602.036 14.9906 602.084 16.3828C602.06 16.6709 601.94 16.9229 601.724 17.139C601.508 17.331 601.256 17.427 600.968 17.427H586.53L586.098 15.4827H600.284L599.816 15.9148V15.1946C599.72 14.0665 599.36 13.1063 598.736 12.3142C598.112 11.522 597.356 10.9219 596.468 10.5139C595.579 10.1058 594.655 9.90177 593.695 9.90177C592.975 9.90177 592.231 10.0458 591.463 10.3338C590.719 10.6219 590.034 11.078 589.41 11.7021C588.81 12.3022 588.318 13.0823 587.934 14.0425C587.55 14.9786 587.358 16.0948 587.358 17.391C587.358 18.8072 587.646 20.0915 588.222 21.2436C588.798 22.3958 589.626 23.308 590.707 23.9801C591.811 24.6522 593.119 24.9883 594.631 24.9883C595.471 24.9883 596.227 24.8682 596.9 24.6282C597.572 24.3882 598.16 24.0761 598.664 23.6921C599.168 23.284 599.588 22.8639 599.924 22.4318C600.188 22.2158 600.452 22.1078 600.716 22.1078C600.956 22.1078 601.16 22.2038 601.328 22.3958C601.52 22.5879 601.616 22.8039 601.616 23.0439C601.616 23.332 601.496 23.584 601.256 23.8001C600.536 24.6642 599.6 25.4203 598.448 26.0684C597.296 26.6925 596.035 27.0046 594.667 27.0046ZM605.664 23.7281C605.472 23.44 605.376 23.164 605.376 22.8999C605.4 22.6119 605.556 22.3838 605.845 22.2158C606.037 22.0478 606.253 21.9758 606.493 21.9998C606.757 22.0238 606.997 22.1438 607.213 22.3598C607.861 23.2 608.641 23.8841 609.553 24.4122C610.489 24.9163 611.593 25.1683 612.866 25.1683C613.538 25.1683 614.198 25.0603 614.846 24.8442C615.518 24.6042 616.07 24.2561 616.502 23.8001C616.934 23.32 617.15 22.7199 617.15 21.9998C617.15 21.2556 616.934 20.6556 616.502 20.1995C616.07 19.7434 615.506 19.3833 614.81 19.1193C614.138 18.8553 613.418 18.6272 612.65 18.4352C611.834 18.2191 611.041 17.9791 610.273 17.7151C609.505 17.427 608.821 17.079 608.221 16.6709C607.645 16.2388 607.177 15.7227 606.817 15.1226C606.457 14.5225 606.277 13.7904 606.277 12.9263C606.277 11.9181 606.553 11.03 607.105 10.2618C607.657 9.49371 608.401 8.89361 609.337 8.46154C610.297 8.02946 611.377 7.81343 612.578 7.81343C613.178 7.81343 613.826 7.89744 614.522 8.06547C615.218 8.20949 615.902 8.46153 616.574 8.82159C617.246 9.18165 617.847 9.67373 618.375 10.2978C618.591 10.5139 618.699 10.7659 618.699 11.054C618.699 11.318 618.579 11.558 618.339 11.7741C618.147 11.9181 617.919 11.9901 617.654 11.9901C617.414 11.9901 617.21 11.8941 617.042 11.7021C616.466 11.054 615.782 10.5619 614.99 10.2258C614.198 9.88977 613.346 9.72174 612.434 9.72174C611.738 9.72174 611.077 9.84176 610.453 10.0818C609.853 10.2978 609.349 10.6339 608.941 11.09C608.533 11.546 608.329 12.1461 608.329 12.8903C608.377 13.5864 608.617 14.1505 609.049 14.5825C609.505 15.0146 610.093 15.3747 610.813 15.6627C611.557 15.9508 612.386 16.2148 613.298 16.4549C614.066 16.6469 614.798 16.8749 615.494 17.139C616.214 17.403 616.838 17.7391 617.366 18.1471C617.919 18.5312 618.351 19.0233 618.663 19.6234C618.999 20.2235 619.167 20.9796 619.167 21.8918C619.167 22.9479 618.867 23.8601 618.267 24.6282C617.69 25.3963 616.91 25.9844 615.926 26.3925C614.942 26.8006 613.85 27.0046 612.65 27.0046C611.353 27.0046 610.093 26.7526 608.869 26.2485C607.669 25.7444 606.601 24.9043 605.664 23.7281ZM631.904 27.0046C630.056 27.0046 628.423 26.6085 627.007 25.8164C625.591 25.0243 624.487 23.9201 623.694 22.5039C622.902 21.0876 622.506 19.4313 622.506 17.535C622.506 15.4947 622.902 13.7544 623.694 12.3142C624.511 10.8739 625.555 9.76975 626.827 9.00162C628.123 8.20949 629.491 7.81343 630.932 7.81343C631.988 7.81343 633.008 8.00546 633.992 8.38952C635 8.74958 635.888 9.30167 636.657 10.0458C637.449 10.7659 638.073 11.6541 638.529 12.7102C639.009 13.7664 639.273 14.9906 639.321 16.3828C639.297 16.6709 639.177 16.9229 638.961 17.139C638.745 17.331 638.493 17.427 638.205 17.427H623.766L623.334 15.4827H637.521L637.053 15.9148V15.1946C636.957 14.0665 636.597 13.1063 635.973 12.3142C635.348 11.522 634.592 10.9219 633.704 10.5139C632.816 10.1058 631.892 9.90177 630.932 9.90177C630.212 9.90177 629.467 10.0458 628.699 10.3338C627.955 10.6219 627.271 11.078 626.647 11.7021C626.047 12.3022 625.555 13.0823 625.171 14.0425C624.787 14.9786 624.595 16.0948 624.595 17.391C624.595 18.8072 624.883 20.0915 625.459 21.2436C626.035 22.3958 626.863 23.308 627.943 23.9801C629.047 24.6522 630.356 24.9883 631.868 24.9883C632.708 24.9883 633.464 24.8682 634.136 24.6282C634.808 24.3882 635.396 24.0761 635.9 23.6921C636.405 23.284 636.825 22.8639 637.161 22.4318C637.425 22.2158 637.689 22.1078 637.953 22.1078C638.193 22.1078 638.397 22.2038 638.565 22.3958C638.757 22.5879 638.853 22.8039 638.853 23.0439C638.853 23.332 638.733 23.584 638.493 23.8001C637.773 24.6642 636.837 25.4203 635.684 26.0684C634.532 26.6925 633.272 27.0046 631.904 27.0046ZM645.025 26.6445C644.689 26.6445 644.425 26.5365 644.233 26.3205C644.041 26.1045 643.945 25.8524 643.945 25.5644V9.4337C643.945 9.14565 644.041 8.89361 644.233 8.67757C644.449 8.46153 644.713 8.35352 645.025 8.35352C645.338 8.35352 645.59 8.46153 645.782 8.67757C645.998 8.89361 646.106 9.14565 646.106 9.4337V14.8346L645.566 14.9426C645.638 14.1025 645.842 13.2743 646.178 12.4582C646.538 11.6181 647.018 10.8499 647.618 10.1538C648.218 9.4577 648.926 8.89361 649.742 8.46154C650.582 8.02946 651.519 7.81343 652.551 7.81343C652.983 7.81343 653.403 7.90944 653.811 8.10147C654.219 8.2695 654.423 8.55755 654.423 8.96562C654.423 9.32568 654.327 9.60172 654.135 9.79375C653.943 9.98579 653.715 10.0818 653.451 10.0818C653.235 10.0818 652.995 10.0218 652.731 9.90177C652.491 9.78175 652.167 9.72174 651.759 9.72174C651.086 9.72174 650.414 9.92578 649.742 10.3338C649.07 10.7179 648.458 11.246 647.906 11.9181C647.354 12.5902 646.91 13.3463 646.574 14.1865C646.262 15.0026 646.106 15.8308 646.106 16.6709V25.5644C646.106 25.8524 645.998 26.1045 645.782 26.3205C645.566 26.5365 645.314 26.6445 645.025 26.6445ZM659.16 7.84943C659.352 7.84943 659.544 7.90944 659.736 8.02946C659.928 8.14948 660.072 8.32951 660.169 8.56955L666.47 23.548L666.001 23.8361L672.447 8.56955C672.639 8.08947 672.987 7.86144 673.491 7.88544C673.731 7.88544 673.959 7.96945 674.175 8.13748C674.391 8.2815 674.499 8.49754 674.499 8.78559C674.499 8.92961 674.475 9.04963 674.427 9.14565C674.403 9.21766 674.379 9.30167 674.355 9.39769L667.298 25.9604C667.106 26.3925 666.782 26.6205 666.326 26.6445C666.109 26.6685 665.893 26.6205 665.677 26.5005C665.485 26.3565 665.341 26.1765 665.245 25.9604L658.152 9.39769C658.128 9.34968 658.104 9.27767 658.08 9.18165C658.056 9.08564 658.044 8.98962 658.044 8.89361C658.044 8.62956 658.14 8.38952 658.332 8.17349C658.524 7.95745 658.8 7.84943 659.16 7.84943ZM686.792 27.0046C684.944 27.0046 683.311 26.6085 681.895 25.8164C680.479 25.0243 679.375 23.9201 678.582 22.5039C677.79 21.0876 677.394 19.4313 677.394 17.535C677.394 15.4947 677.79 13.7544 678.582 12.3142C679.399 10.8739 680.443 9.76975 681.715 9.00162C683.011 8.20949 684.379 7.81343 685.82 7.81343C686.876 7.81343 687.896 8.00546 688.88 8.38952C689.888 8.74958 690.776 9.30167 691.545 10.0458C692.337 10.7659 692.961 11.6541 693.417 12.7102C693.897 13.7664 694.161 14.9906 694.209 16.3828C694.185 16.6709 694.065 16.9229 693.849 17.139C693.633 17.331 693.381 17.427 693.093 17.427H678.654L678.222 15.4827H692.409L691.941 15.9148V15.1946C691.845 14.0665 691.485 13.1063 690.86 12.3142C690.236 11.522 689.48 10.9219 688.592 10.5139C687.704 10.1058 686.78 9.90177 685.82 9.90177C685.1 9.90177 684.355 10.0458 683.587 10.3338C682.843 10.6219 682.159 11.078 681.535 11.7021C680.935 12.3022 680.443 13.0823 680.059 14.0425C679.675 14.9786 679.483 16.0948 679.483 17.391C679.483 18.8072 679.771 20.0915 680.347 21.2436C680.923 22.3958 681.751 23.308 682.831 23.9801C683.935 24.6522 685.244 24.9883 686.756 24.9883C687.596 24.9883 688.352 24.8682 689.024 24.6282C689.696 24.3882 690.284 24.0761 690.788 23.6921C691.293 23.284 691.713 22.8639 692.049 22.4318C692.313 22.2158 692.577 22.1078 692.841 22.1078C693.081 22.1078 693.285 22.2038 693.453 22.3958C693.645 22.5879 693.741 22.8039 693.741 23.0439C693.741 23.332 693.621 23.584 693.381 23.8001C692.661 24.6642 691.725 25.4203 690.572 26.0684C689.42 26.6925 688.16 27.0046 686.792 27.0046ZM713.92 0.000136398C714.232 0.000136398 714.484 0.108154 714.676 0.32419C714.892 0.516221 715 0.768262 715 1.08031V25.5644C715 25.8524 714.892 26.1045 714.676 26.3205C714.46 26.5365 714.208 26.6445 713.92 26.6445C713.608 26.6445 713.344 26.5365 713.128 26.3205C712.936 26.1045 712.84 25.8524 712.84 25.5644V21.2797L713.452 20.7756C713.452 21.4477 713.272 22.1558 712.912 22.8999C712.552 23.62 712.035 24.2922 711.363 24.9163C710.715 25.5404 709.947 26.0444 709.059 26.4285C708.195 26.8126 707.259 27.0046 706.25 27.0046C704.642 27.0046 703.19 26.5845 701.894 25.7444C700.622 24.9043 699.613 23.7641 698.869 22.3238C698.125 20.8836 697.753 19.2393 697.753 17.391C697.753 15.5667 698.125 13.9344 698.869 12.4942C699.613 11.03 700.622 9.88977 701.894 9.07363C703.166 8.2335 704.606 7.81343 706.214 7.81343C707.199 7.81343 708.135 7.99346 709.023 8.35352C709.911 8.71358 710.691 9.20566 711.363 9.82976C712.059 10.4539 712.6 11.174 712.984 11.9901C713.392 12.7822 713.596 13.6104 713.596 14.4745L712.84 13.9344V1.08031C712.84 0.792266 712.936 0.540224 713.128 0.32419C713.344 0.108154 713.608 0.000136398 713.92 0.000136398ZM706.431 24.9883C707.727 24.9883 708.855 24.6642 709.815 24.0161C710.799 23.344 711.567 22.4438 712.119 21.3157C712.696 20.1635 712.984 18.8553 712.984 17.391C712.984 15.9508 712.696 14.6666 712.119 13.5384C711.567 12.3862 710.799 11.486 709.815 10.8379C708.831 10.1658 707.703 9.82976 706.431 9.82976C705.182 9.82976 704.054 10.1658 703.046 10.8379C702.062 11.486 701.282 12.3862 700.706 13.5384C700.153 14.6666 699.877 15.9508 699.877 17.391C699.877 18.8312 700.153 20.1275 700.706 21.2797C701.282 22.4318 702.062 23.344 703.046 24.0161C704.054 24.6642 705.182 24.9883 706.431 24.9883Z" fill="white"/>
</svg>
