<svg width="132" height="46" viewBox="0 0 132 46" fill="none" xmlns="http://www.w3.org/2000/svg">
<path d="M22.3191 12.672C22.6071 12.864 22.7751 13.116 22.8231 13.428C22.8711 13.716 22.7991 14.004 22.6071 14.292C22.4391 14.508 22.2231 14.628 21.9591 14.652C21.6951 14.676 21.4431 14.628 21.2031 14.508C20.2911 13.908 19.3071 13.44 18.2511 13.104C17.2191 12.768 16.1031 12.6 14.9031 12.6C13.4391 12.6 12.0711 12.864 10.7991 13.392C9.55106 13.896 8.45906 14.64 7.52306 15.624C6.58706 16.584 5.85506 17.724 5.32706 19.044C4.82306 20.364 4.57106 21.816 4.57106 23.4C4.57106 25.032 4.83506 26.52 5.36306 27.864C5.89106 29.184 6.62306 30.324 7.55906 31.284C8.51906 32.244 9.62306 32.976 10.8711 33.48C12.1191 33.984 13.4631 34.236 14.9031 34.236C16.0791 34.236 17.1831 34.068 18.2151 33.732C19.2711 33.396 20.2551 32.94 21.1671 32.364C21.4071 32.22 21.6591 32.172 21.9231 32.22C22.2111 32.244 22.4391 32.376 22.6071 32.616C22.8231 32.88 22.8951 33.168 22.8231 33.48C22.7751 33.768 22.6191 33.996 22.3551 34.164C21.7551 34.548 21.0471 34.908 20.2311 35.244C19.4151 35.58 18.5511 35.844 17.6391 36.036C16.7271 36.252 15.8151 36.36 14.9031 36.36C13.1751 36.36 11.5551 36.048 10.0431 35.424C8.53106 34.8 7.18706 33.924 6.01106 32.796C4.83506 31.644 3.91106 30.276 3.23906 28.692C2.59106 27.108 2.26706 25.344 2.26706 23.4C2.26706 21.528 2.59106 19.812 3.23906 18.252C3.88706 16.668 4.78706 15.3 5.93906 14.148C7.09106 12.996 8.43506 12.096 9.97106 11.448C11.5071 10.8 13.1511 10.476 14.9031 10.476C16.2711 10.476 17.5911 10.668 18.8631 11.052C20.1351 11.436 21.2871 11.976 22.3191 12.672ZM44.0386 26.784C44.0386 28.608 43.6426 30.252 42.8506 31.716C42.0586 33.156 40.9786 34.296 39.6106 35.136C38.2426 35.952 36.6826 36.36 34.9306 36.36C33.2266 36.36 31.6786 35.952 30.2866 35.136C28.9186 34.296 27.8266 33.156 27.0106 31.716C26.2186 30.252 25.8226 28.608 25.8226 26.784C25.8226 24.936 26.2186 23.292 27.0106 21.852C27.8266 20.412 28.9186 19.272 30.2866 18.432C31.6786 17.592 33.2266 17.172 34.9306 17.172C36.6826 17.172 38.2426 17.592 39.6106 18.432C40.9786 19.272 42.0586 20.412 42.8506 21.852C43.6426 23.292 44.0386 24.936 44.0386 26.784ZM41.8786 26.784C41.8786 25.32 41.5786 24.024 40.9786 22.896C40.3786 21.744 39.5506 20.844 38.4946 20.196C37.4626 19.524 36.2746 19.188 34.9306 19.188C33.6346 19.188 32.4586 19.524 31.4026 20.196C30.3466 20.844 29.5066 21.744 28.8826 22.896C28.2826 24.024 27.9826 25.32 27.9826 26.784C27.9826 28.248 28.2826 29.544 28.8826 30.672C29.5066 31.8 30.3466 32.7 31.4026 33.372C32.4586 34.02 33.6346 34.344 34.9306 34.344C36.2746 34.344 37.4626 34.02 38.4946 33.372C39.5506 32.7 40.3786 31.8 40.9786 30.672C41.5786 29.544 41.8786 28.248 41.8786 26.784ZM57.3052 17.172C58.8892 17.172 60.1492 17.496 61.0852 18.144C62.0452 18.768 62.7292 19.632 63.1372 20.736C63.5692 21.816 63.7852 23.016 63.7852 24.336V34.92C63.7852 35.208 63.6772 35.46 63.4612 35.676C63.2452 35.892 62.9932 36 62.7052 36C62.3692 36 62.1052 35.892 61.9132 35.676C61.7212 35.46 61.6252 35.208 61.6252 34.92V24.444C61.6252 23.484 61.4692 22.608 61.1572 21.816C60.8452 21.024 60.3292 20.388 59.6092 19.908C58.9132 19.428 57.9892 19.188 56.8372 19.188C55.8052 19.188 54.8212 19.428 53.8852 19.908C52.9732 20.388 52.2292 21.024 51.6532 21.816C51.0772 22.608 50.7892 23.484 50.7892 24.444V34.92C50.7892 35.208 50.6812 35.46 50.4652 35.676C50.2492 35.892 49.9972 36 49.7092 36C49.3732 36 49.1092 35.892 48.9172 35.676C48.7252 35.46 48.6292 35.208 48.6292 34.92V18.792C48.6292 18.504 48.7252 18.252 48.9172 18.036C49.1332 17.82 49.3972 17.712 49.7092 17.712C50.0212 17.712 50.2732 17.82 50.4652 18.036C50.6812 18.252 50.7892 18.504 50.7892 18.792V21.816L49.9612 23.112C50.0092 22.344 50.2492 21.612 50.6812 20.916C51.1372 20.196 51.7132 19.56 52.4092 19.008C53.1052 18.432 53.8732 17.988 54.7132 17.676C55.5772 17.34 56.4412 17.172 57.3052 17.172ZM68.2537 17.676H76.6417C76.9297 17.676 77.1697 17.784 77.3617 18C77.5537 18.192 77.6497 18.432 77.6497 18.72C77.6497 18.984 77.5537 19.212 77.3617 19.404C77.1697 19.596 76.9297 19.692 76.6417 19.692H68.2537C67.9657 19.692 67.7137 19.596 67.4977 19.404C67.3057 19.188 67.2097 18.948 67.2097 18.684C67.2097 18.396 67.3057 18.156 67.4977 17.964C67.7137 17.772 67.9657 17.676 68.2537 17.676ZM71.9617 12.6C72.2737 12.6 72.5257 12.708 72.7177 12.924C72.9337 13.14 73.0417 13.392 73.0417 13.68V31.752C73.0417 32.424 73.1257 32.928 73.2937 33.264C73.4857 33.6 73.7257 33.828 74.0137 33.948C74.3017 34.044 74.5897 34.092 74.8777 34.092C75.0697 34.092 75.2377 34.068 75.3817 34.02C75.5497 33.948 75.7297 33.912 75.9217 33.912C76.1377 33.912 76.3177 33.996 76.4617 34.164C76.6297 34.332 76.7137 34.548 76.7137 34.812C76.7137 35.148 76.5217 35.436 76.1377 35.676C75.7537 35.892 75.2977 36 74.7697 36C74.5537 36 74.2297 35.988 73.7977 35.964C73.3657 35.916 72.9217 35.784 72.4657 35.568C72.0097 35.328 71.6257 34.92 71.3137 34.344C71.0257 33.768 70.8817 32.94 70.8817 31.86V13.68C70.8817 13.392 70.9777 13.14 71.1697 12.924C71.3857 12.708 71.6497 12.6 71.9617 12.6ZM96.7249 17.604C97.0369 17.604 97.2889 17.712 97.4809 17.928C97.6969 18.144 97.8049 18.408 97.8049 18.72V34.92C97.8049 35.208 97.6969 35.46 97.4809 35.676C97.2649 35.892 97.0129 36 96.7249 36C96.4129 36 96.1489 35.892 95.9329 35.676C95.7409 35.46 95.6449 35.208 95.6449 34.92V30.636L96.2569 30.348C96.2569 31.02 96.0649 31.704 95.6809 32.4C95.3209 33.096 94.8169 33.744 94.1689 34.344C93.5209 34.944 92.7529 35.436 91.8649 35.82C91.0009 36.18 90.0649 36.36 89.0569 36.36C87.4249 36.36 85.9609 35.94 84.6649 35.1C83.3929 34.26 82.3849 33.108 81.6409 31.644C80.9209 30.18 80.5609 28.536 80.5609 26.712C80.5609 24.84 80.9329 23.196 81.6769 21.78C82.4209 20.34 83.4289 19.212 84.7009 18.396C85.9729 17.58 87.4129 17.172 89.0209 17.172C90.0529 17.172 91.0129 17.352 91.9009 17.712C92.8129 18.072 93.6049 18.564 94.2769 19.188C94.9489 19.812 95.4649 20.532 95.8249 21.348C96.2089 22.14 96.4009 22.968 96.4009 23.832L95.6449 23.292V18.72C95.6449 18.408 95.7409 18.144 95.9329 17.928C96.1489 17.712 96.4129 17.604 96.7249 17.604ZM89.2369 34.344C90.5089 34.344 91.6369 34.02 92.6209 33.372C93.6049 32.7 94.3729 31.788 94.9249 30.636C95.5009 29.46 95.7889 28.152 95.7889 26.712C95.7889 25.296 95.5009 24.024 94.9249 22.896C94.3729 21.768 93.6049 20.868 92.6209 20.196C91.6369 19.524 90.5089 19.188 89.2369 19.188C87.9889 19.188 86.8609 19.512 85.8529 20.16C84.8689 20.808 84.0889 21.696 83.5129 22.824C82.9609 23.952 82.6849 25.248 82.6849 26.712C82.6849 28.152 82.9609 29.46 83.5129 30.636C84.0889 31.788 84.8689 32.7 85.8529 33.372C86.8369 34.02 87.9649 34.344 89.2369 34.344ZM111.573 17.172C112.725 17.172 113.781 17.304 114.741 17.568C115.701 17.808 116.469 18.144 117.045 18.576C117.645 19.008 117.945 19.476 117.945 19.98C117.945 20.22 117.861 20.46 117.693 20.7C117.525 20.916 117.297 21.024 117.009 21.024C116.721 21.024 116.481 20.952 116.289 20.808C116.121 20.664 115.941 20.496 115.749 20.304C115.581 20.112 115.329 19.932 114.993 19.764C114.681 19.62 114.237 19.488 113.661 19.368C113.085 19.248 112.425 19.188 111.681 19.188C110.337 19.188 109.125 19.524 108.045 20.196C106.965 20.868 106.113 21.78 105.489 22.932C104.865 24.06 104.553 25.332 104.553 26.748C104.553 28.188 104.853 29.484 105.453 30.636C106.053 31.788 106.881 32.7 107.937 33.372C108.993 34.02 110.229 34.344 111.645 34.344C112.605 34.344 113.349 34.26 113.877 34.092C114.405 33.924 114.861 33.732 115.245 33.516C115.701 33.252 116.025 33 116.217 32.76C116.433 32.496 116.709 32.364 117.045 32.364C117.357 32.364 117.585 32.46 117.729 32.652C117.897 32.82 117.981 33.048 117.981 33.336C117.981 33.72 117.693 34.152 117.117 34.632C116.565 35.088 115.797 35.496 114.813 35.856C113.829 36.192 112.701 36.36 111.429 36.36C109.629 36.36 108.045 35.94 106.677 35.1C105.333 34.26 104.277 33.12 103.509 31.68C102.765 30.216 102.393 28.572 102.393 26.748C102.393 24.996 102.777 23.4 103.545 21.96C104.313 20.52 105.381 19.368 106.749 18.504C108.141 17.616 109.749 17.172 111.573 17.172ZM120.918 17.676H129.306C129.594 17.676 129.834 17.784 130.026 18C130.218 18.192 130.314 18.432 130.314 18.72C130.314 18.984 130.218 19.212 130.026 19.404C129.834 19.596 129.594 19.692 129.306 19.692H120.918C120.63 19.692 120.378 19.596 120.162 19.404C119.97 19.188 119.874 18.948 119.874 18.684C119.874 18.396 119.97 18.156 120.162 17.964C120.378 17.772 120.63 17.676 120.918 17.676ZM124.626 12.6C124.938 12.6 125.19 12.708 125.382 12.924C125.598 13.14 125.706 13.392 125.706 13.68V31.752C125.706 32.424 125.79 32.928 125.958 33.264C126.15 33.6 126.39 33.828 126.678 33.948C126.966 34.044 127.254 34.092 127.542 34.092C127.734 34.092 127.902 34.068 128.046 34.02C128.214 33.948 128.394 33.912 128.586 33.912C128.802 33.912 128.982 33.996 129.126 34.164C129.294 34.332 129.378 34.548 129.378 34.812C129.378 35.148 129.186 35.436 128.802 35.676C128.418 35.892 127.962 36 127.434 36C127.218 36 126.894 35.988 126.462 35.964C126.03 35.916 125.586 35.784 125.13 35.568C124.674 35.328 124.29 34.92 123.978 34.344C123.69 33.768 123.546 32.94 123.546 31.86V13.68C123.546 13.392 123.642 13.14 123.834 12.924C124.05 12.708 124.314 12.6 124.626 12.6Z" fill="white"/>
</svg>
