<svg width="1910" height="220" viewBox="0 0 1910 220" fill="none" xmlns="http://www.w3.org/2000/svg">
<g filter="url(#filter0_d_8_102)">
<path d="M255.382 37.56L234.682 87.24C234.314 88.2213 233.762 88.988 233.026 89.54C232.29 90.092 231.462 90.368 230.542 90.368C229.192 90.368 228.18 90 227.506 89.264C226.831 88.4667 226.463 87.4853 226.402 86.32C226.402 85.8907 226.494 85.4 226.678 84.848L250.046 28.36C250.475 27.3173 251.088 26.52 251.886 25.968C252.744 25.416 253.664 25.1707 254.646 25.232C255.566 25.232 256.424 25.508 257.222 26.06C258.019 26.612 258.602 27.3787 258.97 28.36L282.062 84.02C282.307 84.6333 282.43 85.2467 282.43 85.86C282.43 87.2093 281.97 88.3133 281.05 89.172C280.191 89.9693 279.21 90.368 278.106 90.368C277.186 90.368 276.327 90.092 275.53 89.54C274.794 88.9267 274.242 88.16 273.874 87.24L252.99 37.836L255.382 37.56ZM238.362 74.176L242.502 65.344H268.538L270.102 74.176H238.362ZM301.069 85.308C301.008 86.6573 300.486 87.792 299.505 88.712C298.585 89.5707 297.481 90 296.193 90C294.782 90 293.617 89.5707 292.697 88.712C291.838 87.792 291.409 86.6573 291.409 85.308V30.292C291.409 28.9427 291.869 27.8387 292.789 26.98C293.709 26.06 294.905 25.6 296.377 25.6C297.604 25.6 298.677 26.06 299.597 26.98C300.578 27.8387 301.069 28.9427 301.069 30.292V85.308ZM317.96 66.172C316.672 66.172 315.568 65.7427 314.648 64.884C313.79 63.964 313.36 62.86 313.36 61.572C313.36 60.2227 313.79 59.1493 314.648 58.352C315.568 57.4933 316.672 57.064 317.96 57.064H335.256C336.544 57.064 337.648 57.524 338.568 58.444C339.488 59.3027 339.948 60.4067 339.948 61.756C339.948 62.9827 339.488 64.0253 338.568 64.884C337.648 65.7427 336.544 66.172 335.256 66.172H317.96ZM378.087 25.6C381.338 25.6 384.343 26.4893 387.103 28.268C389.863 29.9853 392.071 32.3467 393.727 35.352C395.383 38.3573 396.211 41.7307 396.211 45.472C396.211 49.2133 395.383 52.6173 393.727 55.684C392.071 58.6893 389.863 61.112 387.103 62.952C384.343 64.7307 381.338 65.62 378.087 65.62H360.331L361.067 64.148V85.308C361.067 86.6573 360.638 87.792 359.779 88.712C358.982 89.5707 357.909 90 356.559 90C355.271 90 354.198 89.5707 353.339 88.712C352.542 87.792 352.143 86.6573 352.143 85.308V30.292C352.143 28.9427 352.603 27.8387 353.523 26.98C354.443 26.06 355.547 25.6 356.835 25.6H378.087ZM378.087 56.788C379.682 56.788 381.123 56.2667 382.411 55.224C383.761 54.1813 384.834 52.8013 385.631 51.084C386.49 49.3667 386.919 47.496 386.919 45.472C386.919 43.448 386.49 41.608 385.631 39.952C384.834 38.296 383.761 36.9773 382.411 35.996C381.123 34.9533 379.682 34.432 378.087 34.432H360.147L361.067 33.052V57.984L360.239 56.788H378.087ZM451.855 65.804C451.855 70.7107 450.782 75.0653 448.635 78.868C446.488 82.6093 443.575 85.5533 439.895 87.7C436.215 89.8467 432.075 90.92 427.475 90.92C422.875 90.92 418.735 89.8467 415.055 87.7C411.375 85.5533 408.431 82.6093 406.223 78.868C404.076 75.0653 403.003 70.7107 403.003 65.804C403.003 60.836 404.076 56.4813 406.223 52.74C408.431 48.9373 411.375 45.9627 415.055 43.816C418.735 41.608 422.875 40.504 427.475 40.504C432.075 40.504 436.215 41.608 439.895 43.816C443.575 45.9627 446.488 48.9373 448.635 52.74C450.782 56.4813 451.855 60.836 451.855 65.804ZM442.655 65.804C442.655 62.4307 441.98 59.5173 440.631 57.064C439.282 54.5493 437.442 52.5867 435.111 51.176C432.842 49.704 430.296 48.968 427.475 48.968C424.654 48.968 422.078 49.704 419.747 51.176C417.416 52.5867 415.576 54.5493 414.227 57.064C412.878 59.5173 412.203 62.4307 412.203 65.804C412.203 69.0547 412.878 71.9373 414.227 74.452C415.576 76.9667 417.416 78.9293 419.747 80.34C422.078 81.7507 424.654 82.456 427.475 82.456C430.296 82.456 432.842 81.7507 435.111 80.34C437.442 78.9293 439.282 76.9667 440.631 74.452C441.98 71.9373 442.655 69.0547 442.655 65.804ZM518.664 41.148C519.829 41.148 520.841 41.608 521.7 42.528C522.62 43.3867 523.08 44.5213 523.08 45.932C523.08 46.2387 523.049 46.5453 522.988 46.852C522.927 47.1587 522.835 47.4347 522.712 47.68L508.636 87.056C508.268 88.0987 507.624 88.896 506.704 89.448C505.784 89.9387 504.833 90.1227 503.852 90C502.073 89.8773 500.755 88.896 499.896 87.056L489.5 59.456L491.616 59.64L482.048 87.056C481.189 88.896 479.871 89.8773 478.092 90C477.172 90.1227 476.221 89.9387 475.24 89.448C474.32 88.896 473.676 88.0987 473.308 87.056L459.14 47.68C458.895 47.128 458.772 46.5453 458.772 45.932C458.772 44.644 459.171 43.54 459.968 42.62C460.827 41.6387 461.961 41.148 463.372 41.148C464.353 41.148 465.212 41.3933 465.948 41.884C466.745 42.3747 467.297 43.1107 467.604 44.092L479.38 77.304L477.264 77.12L486.832 52.004C487.629 50.1027 489.04 49.152 491.064 49.152C492.168 49.152 493.027 49.3973 493.64 49.888C494.253 50.3787 494.744 51.084 495.112 52.004L504.864 77.212L502.38 77.488L514.248 44.092C514.861 42.1293 516.333 41.148 518.664 41.148ZM554.976 90.92C549.885 90.92 545.469 89.8773 541.728 87.792C537.987 85.6453 535.073 82.732 532.988 79.052C530.964 75.3107 529.952 71.048 529.952 66.264C529.952 60.8667 531.025 56.2667 533.172 52.464C535.38 48.6 538.232 45.656 541.728 43.632C545.224 41.5467 548.935 40.504 552.86 40.504C555.865 40.504 558.717 41.1173 561.416 42.344C564.115 43.5093 566.507 45.1653 568.592 47.312C570.739 49.3973 572.425 51.8813 573.652 54.764C574.879 57.5853 575.523 60.6827 575.584 64.056C575.523 65.2827 575.032 66.2947 574.112 67.092C573.192 67.8893 572.119 68.288 570.892 68.288H535.104L532.896 60.468H567.488L565.74 62.124V59.824C565.617 57.6773 564.912 55.8067 563.624 54.212C562.336 52.556 560.741 51.2987 558.84 50.44C556.939 49.52 554.945 49.06 552.86 49.06C551.02 49.06 549.241 49.3667 547.524 49.98C545.868 50.532 544.365 51.452 543.016 52.74C541.728 54.028 540.685 55.7453 539.888 57.892C539.152 59.9773 538.784 62.584 538.784 65.712C538.784 69.0853 539.489 72.0293 540.9 74.544C542.311 77.0587 544.212 79.0213 546.604 80.432C548.996 81.7813 551.633 82.456 554.516 82.456C556.785 82.456 558.656 82.2413 560.128 81.812C561.6 81.3213 562.827 80.7387 563.808 80.064C564.789 79.3893 565.648 78.7453 566.384 78.132C567.304 77.58 568.224 77.304 569.144 77.304C570.248 77.304 571.168 77.7027 571.904 78.5C572.64 79.236 573.008 80.1253 573.008 81.168C573.008 82.5173 572.333 83.744 570.984 84.848C569.328 86.4427 567.028 87.8533 564.084 89.08C561.201 90.3067 558.165 90.92 554.976 90.92ZM590.583 90C589.234 90 588.13 89.5707 587.271 88.712C586.412 87.792 585.983 86.6573 585.983 85.308V46.3C585.983 44.9507 586.412 43.8467 587.271 42.988C588.13 42.068 589.234 41.608 590.583 41.608C591.871 41.608 592.944 42.068 593.803 42.988C594.723 43.8467 595.183 44.9507 595.183 46.3V56.604L594.263 52.648C594.754 50.9307 595.49 49.336 596.471 47.864C597.514 46.392 598.74 45.104 600.151 44C601.562 42.896 603.126 42.0373 604.843 41.424C606.622 40.8107 608.462 40.504 610.363 40.504C611.958 40.504 613.338 40.9333 614.503 41.792C615.668 42.6507 616.251 43.724 616.251 45.012C616.251 46.668 615.822 47.8947 614.963 48.692C614.104 49.428 613.154 49.796 612.111 49.796C611.191 49.796 610.302 49.612 609.443 49.244C608.584 48.8147 607.572 48.6 606.407 48.6C605.119 48.6 603.8 48.9373 602.451 49.612C601.102 50.2867 599.875 51.2987 598.771 52.648C597.667 53.936 596.778 55.4693 596.103 57.248C595.49 59.0267 595.183 61.02 595.183 63.228V85.308C595.183 86.6573 594.723 87.792 593.803 88.712C592.944 89.5707 591.871 90 590.583 90ZM644.91 90.92C639.819 90.92 635.403 89.8773 631.662 87.792C627.92 85.6453 625.007 82.732 622.922 79.052C620.898 75.3107 619.886 71.048 619.886 66.264C619.886 60.8667 620.959 56.2667 623.106 52.464C625.314 48.6 628.166 45.656 631.662 43.632C635.158 41.5467 638.868 40.504 642.794 40.504C645.799 40.504 648.651 41.1173 651.35 42.344C654.048 43.5093 656.44 45.1653 658.526 47.312C660.672 49.3973 662.359 51.8813 663.586 54.764C664.812 57.5853 665.456 60.6827 665.518 64.056C665.456 65.2827 664.966 66.2947 664.046 67.092C663.126 67.8893 662.052 68.288 660.826 68.288H625.038L622.83 60.468H657.422L655.674 62.124V59.824C655.551 57.6773 654.846 55.8067 653.558 54.212C652.27 52.556 650.675 51.2987 648.774 50.44C646.872 49.52 644.879 49.06 642.794 49.06C640.954 49.06 639.175 49.3667 637.458 49.98C635.802 50.532 634.299 51.452 632.95 52.74C631.662 54.028 630.619 55.7453 629.822 57.892C629.086 59.9773 628.718 62.584 628.718 65.712C628.718 69.0853 629.423 72.0293 630.834 74.544C632.244 77.0587 634.146 79.0213 636.538 80.432C638.93 81.7813 641.567 82.456 644.45 82.456C646.719 82.456 648.59 82.2413 650.062 81.812C651.534 81.3213 652.76 80.7387 653.742 80.064C654.723 79.3893 655.582 78.7453 656.318 78.132C657.238 77.58 658.158 77.304 659.078 77.304C660.182 77.304 661.102 77.7027 661.838 78.5C662.574 79.236 662.942 80.1253 662.942 81.168C662.942 82.5173 662.267 83.744 660.918 84.848C659.262 86.4427 656.962 87.8533 654.018 89.08C651.135 90.3067 648.099 90.92 644.91 90.92ZM715.569 21.92C716.918 21.92 718.022 22.3493 718.881 23.208C719.739 24.0667 720.169 25.2013 720.169 26.612V85.308C720.169 86.6573 719.739 87.792 718.881 88.712C718.022 89.5707 716.918 90 715.569 90C714.281 90 713.177 89.5707 712.257 88.712C711.398 87.792 710.969 86.6573 710.969 85.308V78.684L712.901 78.776C712.901 79.88 712.441 81.1373 711.521 82.548C710.662 83.8973 709.466 85.216 707.933 86.504C706.399 87.792 704.59 88.8653 702.505 89.724C700.419 90.5213 698.181 90.92 695.789 90.92C691.557 90.92 687.754 89.8467 684.381 87.7C681.007 85.492 678.339 82.5173 676.377 78.776C674.414 74.9733 673.433 70.6187 673.433 65.712C673.433 60.8053 674.414 56.4813 676.377 52.74C678.339 48.9373 680.977 45.9627 684.289 43.816C687.662 41.608 691.403 40.504 695.513 40.504C698.089 40.504 700.481 40.9333 702.689 41.792C704.958 42.6507 706.921 43.7547 708.577 45.104C710.233 46.4533 711.521 47.8947 712.441 49.428C713.361 50.9 713.821 52.3107 713.821 53.66L710.969 53.936V26.612C710.969 25.2627 711.398 24.1587 712.257 23.3C713.177 22.38 714.281 21.92 715.569 21.92ZM696.801 82.456C699.745 82.456 702.29 81.72 704.437 80.248C706.645 78.776 708.362 76.7827 709.589 74.268C710.815 71.7533 711.429 68.9013 711.429 65.712C711.429 62.5227 710.815 59.6707 709.589 57.156C708.362 54.6413 706.645 52.648 704.437 51.176C702.229 49.704 699.683 48.968 696.801 48.968C693.979 48.968 691.465 49.704 689.257 51.176C687.11 52.648 685.393 54.6413 684.105 57.156C682.878 59.6707 682.265 62.5227 682.265 65.712C682.265 68.9013 682.878 71.7533 684.105 74.268C685.393 76.7827 687.11 78.776 689.257 80.248C691.465 81.72 693.979 82.456 696.801 82.456ZM764.459 25.508C765.195 25.508 765.961 25.692 766.759 26.06C767.556 26.428 768.169 26.9493 768.599 27.624L791.967 63.228L788.011 63.044L811.839 27.624C812.82 26.2133 814.077 25.508 815.611 25.508C816.837 25.508 817.911 25.968 818.831 26.888C819.812 27.7467 820.303 28.8507 820.303 30.2V85.308C820.303 86.6573 819.873 87.792 819.015 88.712C818.156 89.5707 817.021 90 815.611 90C814.139 90 812.943 89.5707 812.023 88.712C811.164 87.792 810.735 86.6573 810.735 85.308V38.664L813.679 39.308L793.439 70.128C793.009 70.68 792.457 71.1707 791.783 71.6C791.108 71.968 790.403 72.1213 789.667 72.06C788.992 72.1213 788.287 71.968 787.551 71.6C786.876 71.1707 786.324 70.68 785.895 70.128L766.391 39.768L768.599 36.088V85.308C768.599 86.6573 768.169 87.792 767.311 88.712C766.513 89.5707 765.44 90 764.091 90C762.803 90 761.729 89.5707 760.871 88.712C760.073 87.792 759.675 86.6573 759.675 85.308V30.2C759.675 28.912 760.135 27.808 761.055 26.888C762.036 25.968 763.171 25.508 764.459 25.508ZM873.963 40.872C875.312 40.872 876.416 41.332 877.275 42.252C878.134 43.1107 878.563 44.2147 878.563 45.564V85.308C878.563 86.6573 878.134 87.792 877.275 88.712C876.416 89.5707 875.312 90 873.963 90C872.675 90 871.571 89.5707 870.651 88.712C869.792 87.792 869.363 86.6573 869.363 85.308V78.684L871.295 78.96C871.295 80.064 870.835 81.2907 869.915 82.64C869.056 83.9893 867.86 85.308 866.327 86.596C864.794 87.8227 862.984 88.8653 860.899 89.724C858.814 90.5213 856.575 90.92 854.183 90.92C849.951 90.92 846.148 89.8467 842.775 87.7C839.402 85.492 836.734 82.4867 834.771 78.684C832.808 74.8813 831.827 70.5573 831.827 65.712C831.827 60.744 832.808 56.3893 834.771 52.648C836.734 48.8453 839.371 45.8707 842.683 43.724C846.056 41.5773 849.798 40.504 853.907 40.504C856.544 40.504 858.967 40.9333 861.175 41.792C863.444 42.6507 865.407 43.7547 867.063 45.104C868.719 46.4533 869.976 47.8947 870.835 49.428C871.755 50.9 872.215 52.3107 872.215 53.66L869.363 53.936V45.564C869.363 44.276 869.792 43.172 870.651 42.252C871.571 41.332 872.675 40.872 873.963 40.872ZM855.195 82.456C858.078 82.456 860.623 81.72 862.831 80.248C865.039 78.776 866.756 76.7827 867.983 74.268C869.21 71.692 869.823 68.84 869.823 65.712C869.823 62.5227 869.21 59.6707 867.983 57.156C866.756 54.6413 865.039 52.648 862.831 51.176C860.623 49.704 858.078 48.968 855.195 48.968C852.374 48.968 849.859 49.704 847.651 51.176C845.504 52.648 843.787 54.6413 842.499 57.156C841.272 59.6707 840.659 62.5227 840.659 65.712C840.659 68.84 841.272 71.692 842.499 74.268C843.787 76.7827 845.504 78.776 847.651 80.248C849.859 81.72 852.374 82.456 855.195 82.456ZM896.052 90C894.702 90 893.598 89.5707 892.74 88.712C891.881 87.792 891.452 86.6573 891.452 85.308V46.3C891.452 44.9507 891.881 43.8467 892.74 42.988C893.598 42.068 894.702 41.608 896.052 41.608C897.34 41.608 898.413 42.068 899.272 42.988C900.192 43.8467 900.652 44.9507 900.652 46.3V56.604L899.732 52.648C900.222 50.9307 900.958 49.336 901.94 47.864C902.982 46.392 904.209 45.104 905.62 44C907.03 42.896 908.594 42.0373 910.312 41.424C912.09 40.8107 913.93 40.504 915.832 40.504C917.426 40.504 918.806 40.9333 919.972 41.792C921.137 42.6507 921.72 43.724 921.72 45.012C921.72 46.668 921.29 47.8947 920.432 48.692C919.573 49.428 918.622 49.796 917.58 49.796C916.66 49.796 915.77 49.612 914.912 49.244C914.053 48.8147 913.041 48.6 911.876 48.6C910.588 48.6 909.269 48.9373 907.92 49.612C906.57 50.2867 905.344 51.2987 904.24 52.648C903.136 53.936 902.246 55.4693 901.572 57.248C900.958 59.0267 900.652 61.02 900.652 63.228V85.308C900.652 86.6573 900.192 87.792 899.272 88.712C898.413 89.5707 897.34 90 896.052 90ZM935.241 90C933.953 90 932.849 89.5707 931.929 88.712C931.07 87.792 930.641 86.6573 930.641 85.308V26.612C930.641 25.2627 931.07 24.1587 931.929 23.3C932.849 22.38 933.953 21.92 935.241 21.92C936.59 21.92 937.694 22.38 938.553 23.3C939.412 24.1587 939.841 25.2627 939.841 26.612V85.308C939.841 86.6573 939.412 87.792 938.553 88.712C937.694 89.5707 936.59 90 935.241 90ZM965.233 41.424C966.398 41.424 967.41 41.9147 968.269 42.896C969.128 43.8773 969.557 44.8587 969.557 45.84C969.557 47.0667 968.974 48.2013 967.809 49.244L939.013 75.004L938.645 64.424L961.829 42.896C962.81 41.9147 963.945 41.424 965.233 41.424ZM966.337 89.908C965.049 89.908 963.945 89.3867 963.025 88.344L944.625 68.932L951.617 62.492L969.557 81.904C970.538 82.9467 971.029 84.112 971.029 85.4C971.029 86.7493 970.477 87.8533 969.373 88.712C968.33 89.5093 967.318 89.908 966.337 89.908ZM1001.68 90.92C996.589 90.92 992.173 89.8773 988.431 87.792C984.69 85.6453 981.777 82.732 979.691 79.052C977.667 75.3107 976.655 71.048 976.655 66.264C976.655 60.8667 977.729 56.2667 979.875 52.464C982.083 48.6 984.935 45.656 988.431 43.632C991.927 41.5467 995.638 40.504 999.563 40.504C1002.57 40.504 1005.42 41.1173 1008.12 42.344C1010.82 43.5093 1013.21 45.1653 1015.3 47.312C1017.44 49.3973 1019.13 51.8813 1020.36 54.764C1021.58 57.5853 1022.23 60.6827 1022.29 64.056C1022.23 65.2827 1021.74 66.2947 1020.82 67.092C1019.9 67.8893 1018.82 68.288 1017.6 68.288H981.807L979.599 60.468H1014.19L1012.44 62.124V59.824C1012.32 57.6773 1011.62 55.8067 1010.33 54.212C1009.04 52.556 1007.44 51.2987 1005.54 50.44C1003.64 49.52 1001.65 49.06 999.563 49.06C997.723 49.06 995.945 49.3667 994.227 49.98C992.571 50.532 991.069 51.452 989.719 52.74C988.431 54.028 987.389 55.7453 986.591 57.892C985.855 59.9773 985.487 62.584 985.487 65.712C985.487 69.0853 986.193 72.0293 987.603 74.544C989.014 77.0587 990.915 79.0213 993.307 80.432C995.699 81.7813 998.337 82.456 1001.22 82.456C1003.49 82.456 1005.36 82.2413 1006.83 81.812C1008.3 81.3213 1009.53 80.7387 1010.51 80.064C1011.49 79.3893 1012.35 78.7453 1013.09 78.132C1014.01 77.58 1014.93 77.304 1015.85 77.304C1016.95 77.304 1017.87 77.7027 1018.61 78.5C1019.34 79.236 1019.71 80.1253 1019.71 81.168C1019.71 82.5173 1019.04 83.744 1017.69 84.848C1016.03 86.4427 1013.73 87.8533 1010.79 89.08C1007.9 90.3067 1004.87 90.92 1001.68 90.92ZM1032.04 42.16H1053.66C1054.89 42.16 1055.9 42.5893 1056.7 43.448C1057.56 44.2453 1057.99 45.2573 1057.99 46.484C1057.99 47.6493 1057.56 48.6307 1056.7 49.428C1055.9 50.2253 1054.89 50.624 1053.66 50.624H1032.04C1030.82 50.624 1029.77 50.2253 1028.91 49.428C1028.12 48.5693 1027.72 47.5573 1027.72 46.392C1027.72 45.1653 1028.12 44.1533 1028.91 43.356C1029.77 42.5587 1030.82 42.16 1032.04 42.16ZM1041.7 30.2C1043.05 30.2 1044.16 30.66 1045.01 31.58C1045.87 32.4387 1046.3 33.5427 1046.3 34.892V77.58C1046.3 78.684 1046.49 79.5733 1046.85 80.248C1047.22 80.9227 1047.71 81.3827 1048.33 81.628C1049 81.8733 1049.68 81.996 1050.35 81.996C1051.02 81.996 1051.61 81.8733 1052.1 81.628C1052.65 81.3827 1053.29 81.26 1054.03 81.26C1054.77 81.26 1055.44 81.5973 1056.05 82.272C1056.67 82.9467 1056.97 83.8667 1056.97 85.032C1056.97 86.504 1056.18 87.7 1054.58 88.62C1052.99 89.54 1051.27 90 1049.43 90C1048.39 90 1047.16 89.908 1045.75 89.724C1044.34 89.54 1042.96 89.08 1041.61 88.344C1040.32 87.608 1039.25 86.4427 1038.39 84.848C1037.53 83.192 1037.1 80.892 1037.1 77.948V34.892C1037.1 33.5427 1037.53 32.4387 1038.39 31.58C1039.31 30.66 1040.41 30.2 1041.7 30.2ZM1076.82 85.308C1076.82 86.6573 1076.39 87.792 1075.53 88.712C1074.68 89.5707 1073.57 90 1072.22 90C1070.93 90 1069.83 89.5707 1068.91 88.712C1068.05 87.792 1067.62 86.6573 1067.62 85.308V45.932C1067.62 44.5827 1068.05 43.4787 1068.91 42.62C1069.83 41.7 1070.93 41.24 1072.22 41.24C1073.57 41.24 1074.68 41.7 1075.53 42.62C1076.39 43.4787 1076.82 44.5827 1076.82 45.932V85.308ZM1072.13 35.168C1070.35 35.168 1069.06 34.8613 1068.27 34.248C1067.47 33.5733 1067.07 32.4693 1067.07 30.936V29.464C1067.07 27.9307 1067.5 26.8573 1068.36 26.244C1069.22 25.6307 1070.51 25.324 1072.22 25.324C1074.06 25.324 1075.38 25.6613 1076.18 26.336C1076.98 26.9493 1077.37 27.992 1077.37 29.464V30.936C1077.37 32.5307 1076.95 33.6347 1076.09 34.248C1075.29 34.8613 1073.97 35.168 1072.13 35.168ZM1114.13 40.504C1118.48 40.504 1121.86 41.424 1124.25 43.264C1126.64 45.0427 1128.3 47.4653 1129.22 50.532C1130.2 53.5373 1130.69 56.9107 1130.69 60.652V85.308C1130.69 86.6573 1130.23 87.792 1129.31 88.712C1128.45 89.5707 1127.38 90 1126.09 90C1124.74 90 1123.64 89.5707 1122.78 88.712C1121.92 87.792 1121.49 86.6573 1121.49 85.308V60.744C1121.49 58.536 1121.18 56.5733 1120.57 54.856C1119.96 53.0773 1118.88 51.6667 1117.35 50.624C1115.88 49.52 1113.79 48.968 1111.09 48.968C1108.58 48.968 1106.37 49.52 1104.47 50.624C1102.57 51.6667 1101.07 53.0773 1099.96 54.856C1098.92 56.5733 1098.4 58.536 1098.4 60.744V85.308C1098.4 86.6573 1097.94 87.792 1097.02 88.712C1096.16 89.5707 1095.09 90 1093.8 90C1092.45 90 1091.34 89.5707 1090.49 88.712C1089.63 87.792 1089.2 86.6573 1089.2 85.308V46.3C1089.2 44.9507 1089.63 43.8467 1090.49 42.988C1091.34 42.068 1092.45 41.608 1093.8 41.608C1095.09 41.608 1096.16 42.068 1097.02 42.988C1097.94 43.8467 1098.4 44.9507 1098.4 46.3V51.452L1096.74 52.372C1097.17 51.0227 1097.91 49.6733 1098.95 48.324C1100.05 46.9133 1101.37 45.6253 1102.91 44.46C1104.44 43.2333 1106.16 42.2827 1108.06 41.608C1109.96 40.872 1111.98 40.504 1114.13 40.504ZM1163.61 40.504C1166.25 40.504 1168.67 40.9333 1170.88 41.792C1173.09 42.6507 1174.99 43.7547 1176.58 45.104C1178.24 46.392 1179.53 47.7413 1180.45 49.152C1181.37 50.5627 1181.83 51.7893 1181.83 52.832L1179.71 52.924V45.564C1179.71 44.276 1180.14 43.172 1181 42.252C1181.86 41.332 1182.96 40.872 1184.31 40.872C1185.66 40.872 1186.76 41.332 1187.62 42.252C1188.48 43.1107 1188.91 44.2147 1188.91 45.564V86.136C1188.91 91.3493 1187.81 95.5813 1185.6 98.832C1183.39 102.144 1180.45 104.567 1176.77 106.1C1173.15 107.633 1169.16 108.4 1164.81 108.4C1163.27 108.4 1161.46 108.185 1159.38 107.756C1157.29 107.388 1155.36 106.928 1153.58 106.376C1151.87 105.824 1150.67 105.272 1150 104.72C1148.58 103.984 1147.63 103.125 1147.14 102.144C1146.71 101.163 1146.71 100.181 1147.14 99.2C1147.76 97.8507 1148.58 97.0227 1149.63 96.716C1150.67 96.4093 1151.87 96.5013 1153.22 96.992C1153.83 97.176 1154.78 97.5133 1156.07 98.004C1157.36 98.4947 1158.8 98.924 1160.39 99.292C1161.99 99.7213 1163.49 99.936 1164.9 99.936C1169.81 99.936 1173.49 98.8013 1175.94 96.532C1178.45 94.2627 1179.71 91.1653 1179.71 87.24V78.96L1180.72 79.604C1180.54 80.892 1179.96 82.2107 1178.98 83.56C1178.06 84.848 1176.83 86.044 1175.3 87.148C1173.76 88.252 1171.98 89.172 1169.96 89.908C1168 90.5827 1165.97 90.92 1163.89 90.92C1159.53 90.92 1155.64 89.8467 1152.2 87.7C1148.77 85.492 1146.04 82.5173 1144.02 78.776C1141.99 74.9733 1140.98 70.6187 1140.98 65.712C1140.98 60.8053 1141.99 56.4813 1144.02 52.74C1146.04 48.9373 1148.74 45.9627 1152.11 43.816C1155.55 41.608 1159.38 40.504 1163.61 40.504ZM1164.99 48.968C1161.99 48.968 1159.35 49.704 1157.08 51.176C1154.81 52.648 1153.03 54.6413 1151.74 57.156C1150.46 59.6707 1149.81 62.5227 1149.81 65.712C1149.81 68.9013 1150.46 71.7533 1151.74 74.268C1153.03 76.7827 1154.81 78.776 1157.08 80.248C1159.35 81.72 1161.99 82.456 1164.99 82.456C1168 82.456 1170.63 81.7507 1172.9 80.34C1175.17 78.868 1176.95 76.8747 1178.24 74.36C1179.53 71.784 1180.17 68.9013 1180.17 65.712C1180.17 62.5227 1179.53 59.6707 1178.24 57.156C1176.95 54.58 1175.17 52.5867 1172.9 51.176C1170.63 49.704 1168 48.968 1164.99 48.968ZM1246.33 90.92C1241.98 90.92 1238.08 89.9693 1234.65 88.068C1231.21 86.1053 1228.51 83.56 1226.55 80.432C1224.59 77.304 1223.61 73.992 1223.61 70.496C1223.61 67.552 1224.13 64.8227 1225.17 62.308C1226.28 59.732 1227.9 57.4627 1230.05 55.5C1232.26 53.5373 1235.05 51.912 1238.42 50.624L1244.49 56.88C1240.08 57.8613 1237.04 59.4253 1235.38 61.572C1233.79 63.7187 1232.99 66.2333 1232.99 69.116C1232.99 71.2627 1233.51 73.348 1234.56 75.372C1235.6 77.3347 1237.22 78.96 1239.43 80.248C1241.7 81.536 1244.64 82.18 1248.26 82.18C1251.51 82.18 1254.37 81.536 1256.82 80.248C1259.33 78.8987 1261.48 77.1507 1263.26 75.004C1265.04 72.796 1266.48 70.3733 1267.58 67.736C1268.69 65.0373 1269.45 62.2773 1269.88 59.456C1270.01 58.5973 1270.34 57.9533 1270.9 57.524C1271.45 57.0333 1272.37 56.788 1273.66 56.788C1275 56.788 1276.05 57.3093 1276.78 58.352C1277.58 59.3947 1277.89 60.652 1277.7 62.124C1277.15 65.6813 1276.11 69.1773 1274.58 72.612C1273.04 75.9853 1270.99 79.0827 1268.41 81.904C1265.84 84.664 1262.71 86.872 1259.03 88.528C1255.35 90.1227 1251.12 90.92 1246.33 90.92ZM1278.99 90C1278.44 90 1277.92 89.9387 1277.43 89.816C1277 89.632 1276.66 89.448 1276.42 89.264C1272.18 85.768 1268.26 82.4867 1264.64 79.42C1261.08 76.3533 1257.71 73.3173 1254.52 70.312C1251.39 67.2453 1248.29 63.9947 1245.23 60.56C1243.08 58.1067 1241.12 55.8373 1239.34 53.752C1237.62 51.6667 1236.21 49.612 1235.11 47.588C1234.06 45.564 1233.54 43.4173 1233.54 41.148C1233.54 38.204 1234.31 35.5053 1235.84 33.052C1237.44 30.5373 1239.65 28.5133 1242.47 26.98C1245.35 25.4467 1248.75 24.68 1252.68 24.68C1256.97 24.68 1260.71 25.4467 1263.9 26.98C1267.15 28.452 1269.36 30.3227 1270.53 32.592C1270.59 32.6533 1270.71 32.9907 1270.9 33.604C1271.14 34.156 1271.26 34.8307 1271.26 35.628C1271.26 36.548 1270.9 37.376 1270.16 38.112C1269.42 38.848 1268.44 39.216 1267.22 39.216C1266.42 39.216 1265.77 39.0627 1265.28 38.756C1264.79 38.4493 1264.42 38.1427 1264.18 37.836C1262.83 35.996 1261.24 34.6467 1259.4 33.788C1257.62 32.9293 1255.38 32.5 1252.68 32.5C1249.61 32.5 1247.25 33.2973 1245.6 34.892C1244 36.4867 1243.2 38.4493 1243.2 40.78C1243.2 42.6813 1243.82 44.6133 1245.04 46.576C1246.33 48.5387 1247.8 50.44 1249.46 52.28C1251.18 54.0587 1252.74 55.7147 1254.15 57.248C1256.24 59.5173 1258.51 61.8787 1260.96 64.332C1263.47 66.724 1265.96 69.024 1268.41 71.232C1270.93 73.44 1273.26 75.464 1275.4 77.304C1277.55 79.144 1279.36 80.708 1280.83 81.996C1281.51 82.6093 1282 83.2227 1282.3 83.836C1282.67 84.4493 1282.86 85.1853 1282.86 86.044C1282.86 86.7187 1282.55 87.5467 1281.94 88.528C1281.32 89.5093 1280.34 90 1278.99 90ZM1346.48 25.6C1352.12 25.6 1356.38 26.98 1359.27 29.74C1362.21 32.5 1363.68 36.5173 1363.68 41.792C1363.68 44.552 1363.01 47.0667 1361.66 49.336C1360.37 51.544 1358.44 53.292 1355.86 54.58C1353.35 55.868 1350.19 56.5427 1346.39 56.604L1346.57 53.2C1348.59 53.2 1350.77 53.476 1353.1 54.028C1355.49 54.58 1357.73 55.5307 1359.82 56.88C1361.9 58.2293 1363.62 60.0693 1364.97 62.4C1366.32 64.6693 1366.99 67.5213 1366.99 70.956C1366.99 74.6973 1366.38 77.8253 1365.15 80.34C1363.93 82.7933 1362.3 84.7253 1360.28 86.136C1358.25 87.5467 1356.01 88.5587 1353.56 89.172C1351.17 89.724 1348.81 90 1346.48 90H1322.93C1321.64 90 1320.53 89.5707 1319.61 88.712C1318.69 87.792 1318.23 86.6573 1318.23 85.308V30.292C1318.23 28.9427 1318.69 27.8387 1319.61 26.98C1320.53 26.06 1321.64 25.6 1322.93 25.6H1346.48ZM1345.19 34.616H1327.07L1328.17 33.144V52.924L1327.16 51.912H1345.37C1347.58 51.8507 1349.51 51.1147 1351.17 49.704C1352.89 48.232 1353.75 46.0853 1353.75 43.264C1353.75 40.3813 1352.98 38.2347 1351.45 36.824C1349.91 35.352 1347.83 34.616 1345.19 34.616ZM1345.83 60.928H1327.53L1328.17 60.284V81.996L1327.43 81.168H1346.39C1349.57 81.168 1352.15 80.34 1354.11 78.684C1356.08 76.9667 1357.06 74.3907 1357.06 70.956C1357.06 68.0733 1356.47 65.9267 1355.31 64.516C1354.14 63.1053 1352.7 62.1547 1350.99 61.664C1349.27 61.1733 1347.55 60.928 1345.83 60.928ZM1413.48 41.608C1414.77 41.608 1415.84 42.068 1416.7 42.988C1417.62 43.8467 1418.08 44.9507 1418.08 46.3V70.496C1418.08 76.8747 1416.3 81.8733 1412.74 85.492C1409.19 89.0493 1404.16 90.828 1397.66 90.828C1391.22 90.828 1386.22 89.0493 1382.66 85.492C1379.16 81.8733 1377.42 76.8747 1377.42 70.496V46.3C1377.42 44.9507 1377.85 43.8467 1378.7 42.988C1379.56 42.068 1380.67 41.608 1382.02 41.608C1383.3 41.608 1384.38 42.068 1385.24 42.988C1386.16 43.8467 1386.62 44.9507 1386.62 46.3V70.496C1386.62 74.4827 1387.54 77.4573 1389.38 79.42C1391.28 81.3827 1394.04 82.364 1397.66 82.364C1401.34 82.364 1404.13 81.3827 1406.03 79.42C1407.93 77.4573 1408.88 74.4827 1408.88 70.496V46.3C1408.88 44.9507 1409.31 43.8467 1410.17 42.988C1411.03 42.068 1412.13 41.608 1413.48 41.608ZM1428.02 82.456C1427.47 81.5973 1427.22 80.616 1427.29 79.512C1427.35 78.3467 1427.99 77.3653 1429.22 76.568C1430.08 76.016 1430.97 75.8013 1431.89 75.924C1432.87 75.9853 1433.79 76.4453 1434.65 77.304C1436.36 79.2053 1438.26 80.708 1440.35 81.812C1442.5 82.916 1445.07 83.468 1448.08 83.468C1449.3 83.4067 1450.56 83.2227 1451.85 82.916C1453.14 82.548 1454.24 81.9347 1455.16 81.076C1456.08 80.156 1456.54 78.8373 1456.54 77.12C1456.54 75.5867 1456.05 74.36 1455.07 73.44C1454.09 72.52 1452.8 71.784 1451.21 71.232C1449.61 70.6187 1447.89 70.0667 1446.05 69.576C1444.09 69.024 1442.1 68.4107 1440.07 67.736C1438.11 67.0613 1436.33 66.2027 1434.74 65.16C1433.14 64.056 1431.82 62.6453 1430.78 60.928C1429.8 59.2107 1429.31 57.0947 1429.31 54.58C1429.31 51.6973 1430.11 49.2133 1431.7 47.128C1433.36 45.0427 1435.47 43.4173 1438.05 42.252C1440.69 41.0867 1443.54 40.504 1446.61 40.504C1448.38 40.504 1450.25 40.7493 1452.22 41.24C1454.18 41.6693 1456.08 42.3747 1457.92 43.356C1459.76 44.3373 1461.36 45.6253 1462.71 47.22C1463.32 48.0173 1463.66 48.968 1463.72 50.072C1463.84 51.176 1463.35 52.1573 1462.25 53.016C1461.51 53.6293 1460.62 53.9053 1459.58 53.844C1458.53 53.7827 1457.68 53.4453 1457 52.832C1455.84 51.36 1454.33 50.2253 1452.49 49.428C1450.65 48.5693 1448.57 48.14 1446.24 48.14C1445.07 48.14 1443.85 48.324 1442.56 48.692C1441.33 48.9987 1440.29 49.5813 1439.43 50.44C1438.57 51.2987 1438.14 52.556 1438.14 54.212C1438.14 55.7453 1438.63 56.972 1439.61 57.892C1440.66 58.812 1442.01 59.5787 1443.66 60.192C1445.32 60.8053 1447.13 61.3573 1449.09 61.848C1450.99 62.3387 1452.86 62.9213 1454.7 63.596C1456.6 64.2707 1458.29 65.16 1459.76 66.264C1461.29 67.3067 1462.52 68.6867 1463.44 70.404C1464.42 72.06 1464.91 74.176 1464.91 76.752C1464.91 79.7573 1464.02 82.3333 1462.25 84.48C1460.53 86.5653 1458.32 88.16 1455.62 89.264C1452.98 90.368 1450.19 90.92 1447.25 90.92C1443.75 90.92 1440.26 90.3067 1436.76 89.08C1433.33 87.792 1430.41 85.584 1428.02 82.456ZM1483.46 85.308C1483.46 86.6573 1483.03 87.792 1482.17 88.712C1481.31 89.5707 1480.2 90 1478.86 90C1477.57 90 1476.46 89.5707 1475.54 88.712C1474.68 87.792 1474.26 86.6573 1474.26 85.308V45.932C1474.26 44.5827 1474.68 43.4787 1475.54 42.62C1476.46 41.7 1477.57 41.24 1478.86 41.24C1480.2 41.24 1481.31 41.7 1482.17 42.62C1483.03 43.4787 1483.46 44.5827 1483.46 45.932V85.308ZM1478.76 35.168C1476.98 35.168 1475.7 34.8613 1474.9 34.248C1474.1 33.5733 1473.7 32.4693 1473.7 30.936V29.464C1473.7 27.9307 1474.13 26.8573 1474.99 26.244C1475.85 25.6307 1477.14 25.324 1478.86 25.324C1480.7 25.324 1482.01 25.6613 1482.81 26.336C1483.61 26.9493 1484.01 27.992 1484.01 29.464V30.936C1484.01 32.5307 1483.58 33.6347 1482.72 34.248C1481.92 34.8613 1480.6 35.168 1478.76 35.168ZM1520.76 40.504C1525.12 40.504 1528.49 41.424 1530.88 43.264C1533.27 45.0427 1534.93 47.4653 1535.85 50.532C1536.83 53.5373 1537.32 56.9107 1537.32 60.652V85.308C1537.32 86.6573 1536.86 87.792 1535.94 88.712C1535.08 89.5707 1534.01 90 1532.72 90C1531.37 90 1530.27 89.5707 1529.41 88.712C1528.55 87.792 1528.12 86.6573 1528.12 85.308V60.744C1528.12 58.536 1527.82 56.5733 1527.2 54.856C1526.59 53.0773 1525.52 51.6667 1523.98 50.624C1522.51 49.52 1520.43 48.968 1517.73 48.968C1515.21 48.968 1513 49.52 1511.1 50.624C1509.2 51.6667 1507.7 53.0773 1506.59 54.856C1505.55 56.5733 1505.03 58.536 1505.03 60.744V85.308C1505.03 86.6573 1504.57 87.792 1503.65 88.712C1502.79 89.5707 1501.72 90 1500.43 90C1499.08 90 1497.98 89.5707 1497.12 88.712C1496.26 87.792 1495.83 86.6573 1495.83 85.308V46.3C1495.83 44.9507 1496.26 43.8467 1497.12 42.988C1497.98 42.068 1499.08 41.608 1500.43 41.608C1501.72 41.608 1502.79 42.068 1503.65 42.988C1504.57 43.8467 1505.03 44.9507 1505.03 46.3V51.452L1503.37 52.372C1503.8 51.0227 1504.54 49.6733 1505.58 48.324C1506.69 46.9133 1508.01 45.6253 1509.54 44.46C1511.07 43.2333 1512.79 42.2827 1514.69 41.608C1516.59 40.872 1518.62 40.504 1520.76 40.504ZM1572.64 90.92C1567.55 90.92 1563.13 89.8773 1559.39 87.792C1555.65 85.6453 1552.73 82.732 1550.65 79.052C1548.62 75.3107 1547.61 71.048 1547.61 66.264C1547.61 60.8667 1548.69 56.2667 1550.83 52.464C1553.04 48.6 1555.89 45.656 1559.39 43.632C1562.88 41.5467 1566.59 40.504 1570.52 40.504C1573.53 40.504 1576.38 41.1173 1579.08 42.344C1581.77 43.5093 1584.17 45.1653 1586.25 47.312C1588.4 49.3973 1590.09 51.8813 1591.31 54.764C1592.54 57.5853 1593.18 60.6827 1593.24 64.056C1593.18 65.2827 1592.69 66.2947 1591.77 67.092C1590.85 67.8893 1589.78 68.288 1588.55 68.288H1552.76L1550.56 60.468H1585.15L1583.4 62.124V59.824C1583.28 57.6773 1582.57 55.8067 1581.28 54.212C1580 52.556 1578.4 51.2987 1576.5 50.44C1574.6 49.52 1572.61 49.06 1570.52 49.06C1568.68 49.06 1566.9 49.3667 1565.18 49.98C1563.53 50.532 1562.03 51.452 1560.68 52.74C1559.39 54.028 1558.35 55.7453 1557.55 57.892C1556.81 59.9773 1556.44 62.584 1556.44 65.712C1556.44 69.0853 1557.15 72.0293 1558.56 74.544C1559.97 77.0587 1561.87 79.0213 1564.26 80.432C1566.66 81.7813 1569.29 82.456 1572.18 82.456C1574.45 82.456 1576.32 82.2413 1577.79 81.812C1579.26 81.3213 1580.49 80.7387 1581.47 80.064C1582.45 79.3893 1583.31 78.7453 1584.04 78.132C1584.96 77.58 1585.88 77.304 1586.8 77.304C1587.91 77.304 1588.83 77.7027 1589.56 78.5C1590.3 79.236 1590.67 80.1253 1590.67 81.168C1590.67 82.5173 1589.99 83.744 1588.64 84.848C1586.99 86.4427 1584.69 87.8533 1581.74 89.08C1578.86 90.3067 1575.83 90.92 1572.64 90.92ZM1600.79 82.456C1600.24 81.5973 1599.99 80.616 1600.06 79.512C1600.12 78.3467 1600.76 77.3653 1601.99 76.568C1602.85 76.016 1603.74 75.8013 1604.66 75.924C1605.64 75.9853 1606.56 76.4453 1607.42 77.304C1609.13 79.2053 1611.03 80.708 1613.12 81.812C1615.27 82.916 1617.84 83.468 1620.85 83.468C1622.07 83.4067 1623.33 83.2227 1624.62 82.916C1625.91 82.548 1627.01 81.9347 1627.93 81.076C1628.85 80.156 1629.31 78.8373 1629.31 77.12C1629.31 75.5867 1628.82 74.36 1627.84 73.44C1626.86 72.52 1625.57 71.784 1623.98 71.232C1622.38 70.6187 1620.66 70.0667 1618.82 69.576C1616.86 69.024 1614.87 68.4107 1612.84 67.736C1610.88 67.0613 1609.1 66.2027 1607.51 65.16C1605.91 64.056 1604.59 62.6453 1603.55 60.928C1602.57 59.2107 1602.08 57.0947 1602.08 54.58C1602.08 51.6973 1602.88 49.2133 1604.47 47.128C1606.13 45.0427 1608.24 43.4173 1610.82 42.252C1613.46 41.0867 1616.31 40.504 1619.38 40.504C1621.15 40.504 1623.02 40.7493 1624.99 41.24C1626.95 41.6693 1628.85 42.3747 1630.69 43.356C1632.53 44.3373 1634.13 45.6253 1635.48 47.22C1636.09 48.0173 1636.43 48.968 1636.49 50.072C1636.61 51.176 1636.12 52.1573 1635.02 53.016C1634.28 53.6293 1633.39 53.9053 1632.35 53.844C1631.3 53.7827 1630.45 53.4453 1629.77 52.832C1628.61 51.36 1627.1 50.2253 1625.26 49.428C1623.42 48.5693 1621.34 48.14 1619.01 48.14C1617.84 48.14 1616.62 48.324 1615.33 48.692C1614.1 48.9987 1613.06 49.5813 1612.2 50.44C1611.34 51.2987 1610.91 52.556 1610.91 54.212C1610.91 55.7453 1611.4 56.972 1612.38 57.892C1613.43 58.812 1614.78 59.5787 1616.43 60.192C1618.09 60.8053 1619.9 61.3573 1621.86 61.848C1623.76 62.3387 1625.63 62.9213 1627.47 63.596C1629.37 64.2707 1631.06 65.16 1632.53 66.264C1634.06 67.3067 1635.29 68.6867 1636.21 70.404C1637.19 72.06 1637.68 74.176 1637.68 76.752C1637.68 79.7573 1636.79 82.3333 1635.02 84.48C1633.3 86.5653 1631.09 88.16 1628.39 89.264C1625.75 90.368 1622.96 90.92 1620.02 90.92C1616.52 90.92 1613.03 90.3067 1609.53 89.08C1606.1 87.792 1603.18 85.584 1600.79 82.456ZM1644.72 82.456C1644.17 81.5973 1643.93 80.616 1643.99 79.512C1644.05 78.3467 1644.69 77.3653 1645.92 76.568C1646.78 76.016 1647.67 75.8013 1648.59 75.924C1649.57 75.9853 1650.49 76.4453 1651.35 77.304C1653.07 79.2053 1654.97 80.708 1657.05 81.812C1659.2 82.916 1661.78 83.468 1664.78 83.468C1666.01 83.4067 1667.26 83.2227 1668.55 82.916C1669.84 82.548 1670.94 81.9347 1671.86 81.076C1672.78 80.156 1673.24 78.8373 1673.24 77.12C1673.24 75.5867 1672.75 74.36 1671.77 73.44C1670.79 72.52 1669.5 71.784 1667.91 71.232C1666.31 70.6187 1664.6 70.0667 1662.76 69.576C1660.79 69.024 1658.8 68.4107 1656.78 67.736C1654.81 67.0613 1653.04 66.2027 1651.44 65.16C1649.85 64.056 1648.53 62.6453 1647.48 60.928C1646.5 59.2107 1646.01 57.0947 1646.01 54.58C1646.01 51.6973 1646.81 49.2133 1648.4 47.128C1650.06 45.0427 1652.18 43.4173 1654.75 42.252C1657.39 41.0867 1660.24 40.504 1663.31 40.504C1665.09 40.504 1666.96 40.7493 1668.92 41.24C1670.88 41.6693 1672.78 42.3747 1674.62 43.356C1676.46 44.3373 1678.06 45.6253 1679.41 47.22C1680.02 48.0173 1680.36 48.968 1680.42 50.072C1680.54 51.176 1680.05 52.1573 1678.95 53.016C1678.21 53.6293 1677.32 53.9053 1676.28 53.844C1675.24 53.7827 1674.38 53.4453 1673.7 52.832C1672.54 51.36 1671.04 50.2253 1669.2 49.428C1667.36 48.5693 1665.27 48.14 1662.94 48.14C1661.78 48.14 1660.55 48.324 1659.26 48.692C1658.03 48.9987 1656.99 49.5813 1656.13 50.44C1655.27 51.2987 1654.84 52.556 1654.84 54.212C1654.84 55.7453 1655.34 56.972 1656.32 57.892C1657.36 58.812 1658.71 59.5787 1660.36 60.192C1662.02 60.8053 1663.83 61.3573 1665.79 61.848C1667.69 62.3387 1669.56 62.9213 1671.4 63.596C1673.31 64.2707 1674.99 65.16 1676.46 66.264C1678 67.3067 1679.22 68.6867 1680.14 70.404C1681.13 72.06 1681.62 74.176 1681.62 76.752C1681.62 79.7573 1680.73 82.3333 1678.95 84.48C1677.23 86.5653 1675.02 88.16 1672.32 89.264C1669.69 90.368 1666.9 90.92 1663.95 90.92C1660.46 90.92 1656.96 90.3067 1653.46 89.08C1650.03 87.792 1647.12 85.584 1644.72 82.456ZM400.614 147.56L379.914 197.24C379.546 198.221 378.994 198.988 378.258 199.54C377.522 200.092 376.694 200.368 375.774 200.368C374.425 200.368 373.413 200 372.738 199.264C372.063 198.467 371.695 197.485 371.634 196.32C371.634 195.891 371.726 195.4 371.91 194.848L395.278 138.36C395.707 137.317 396.321 136.52 397.118 135.968C397.977 135.416 398.897 135.171 399.878 135.232C400.798 135.232 401.657 135.508 402.454 136.06C403.251 136.612 403.834 137.379 404.202 138.36L427.294 194.02C427.539 194.633 427.662 195.247 427.662 195.86C427.662 197.209 427.202 198.313 426.282 199.172C425.423 199.969 424.442 200.368 423.338 200.368C422.418 200.368 421.559 200.092 420.762 199.54C420.026 198.927 419.474 198.16 419.106 197.24L398.222 147.836L400.614 147.56ZM383.594 184.176L387.734 175.344H413.77L415.334 184.176H383.594ZM470.795 151.608C472.083 151.608 473.156 152.068 474.015 152.988C474.935 153.847 475.395 154.951 475.395 156.3V180.496C475.395 186.875 473.616 191.873 470.059 195.492C466.502 199.049 461.472 200.828 454.971 200.828C448.531 200.828 443.532 199.049 439.975 195.492C436.479 191.873 434.731 186.875 434.731 180.496V156.3C434.731 154.951 435.16 153.847 436.019 152.988C436.878 152.068 437.982 151.608 439.331 151.608C440.619 151.608 441.692 152.068 442.551 152.988C443.471 153.847 443.931 154.951 443.931 156.3V180.496C443.931 184.483 444.851 187.457 446.691 189.42C448.592 191.383 451.352 192.364 454.971 192.364C458.651 192.364 461.442 191.383 463.343 189.42C465.244 187.457 466.195 184.483 466.195 180.496V156.3C466.195 154.951 466.624 153.847 467.483 152.988C468.342 152.068 469.446 151.608 470.795 151.608ZM487.544 152.16H509.164C510.391 152.16 511.403 152.589 512.2 153.448C513.059 154.245 513.488 155.257 513.488 156.484C513.488 157.649 513.059 158.631 512.2 159.428C511.403 160.225 510.391 160.624 509.164 160.624H487.544C486.317 160.624 485.275 160.225 484.416 159.428C483.619 158.569 483.22 157.557 483.22 156.392C483.22 155.165 483.619 154.153 484.416 153.356C485.275 152.559 486.317 152.16 487.544 152.16ZM497.204 140.2C498.553 140.2 499.657 140.66 500.516 141.58C501.375 142.439 501.804 143.543 501.804 144.892V187.58C501.804 188.684 501.988 189.573 502.356 190.248C502.724 190.923 503.215 191.383 503.828 191.628C504.503 191.873 505.177 191.996 505.852 191.996C506.527 191.996 507.109 191.873 507.6 191.628C508.152 191.383 508.796 191.26 509.532 191.26C510.268 191.26 510.943 191.597 511.556 192.272C512.169 192.947 512.476 193.867 512.476 195.032C512.476 196.504 511.679 197.7 510.084 198.62C508.489 199.54 506.772 200 504.932 200C503.889 200 502.663 199.908 501.252 199.724C499.841 199.54 498.461 199.08 497.112 198.344C495.824 197.608 494.751 196.443 493.892 194.848C493.033 193.192 492.604 190.892 492.604 187.948V144.892C492.604 143.543 493.033 142.439 493.892 141.58C494.812 140.66 495.916 140.2 497.204 140.2ZM569.595 175.804C569.595 180.711 568.522 185.065 566.375 188.868C564.228 192.609 561.315 195.553 557.635 197.7C553.955 199.847 549.815 200.92 545.215 200.92C540.615 200.92 536.475 199.847 532.795 197.7C529.115 195.553 526.171 192.609 523.963 188.868C521.816 185.065 520.743 180.711 520.743 175.804C520.743 170.836 521.816 166.481 523.963 162.74C526.171 158.937 529.115 155.963 532.795 153.816C536.475 151.608 540.615 150.504 545.215 150.504C549.815 150.504 553.955 151.608 557.635 153.816C561.315 155.963 564.228 158.937 566.375 162.74C568.522 166.481 569.595 170.836 569.595 175.804ZM560.395 175.804C560.395 172.431 559.72 169.517 558.371 167.064C557.022 164.549 555.182 162.587 552.851 161.176C550.582 159.704 548.036 158.968 545.215 158.968C542.394 158.968 539.818 159.704 537.487 161.176C535.156 162.587 533.316 164.549 531.967 167.064C530.618 169.517 529.943 172.431 529.943 175.804C529.943 179.055 530.618 181.937 531.967 184.452C533.316 186.967 535.156 188.929 537.487 190.34C539.818 191.751 542.394 192.456 545.215 192.456C548.036 192.456 550.582 191.751 552.851 190.34C555.182 188.929 557.022 186.967 558.371 184.452C559.72 181.937 560.395 179.055 560.395 175.804ZM604.296 150.78C608.835 150.78 612.331 151.915 614.784 154.184C617.238 156.392 618.863 159.397 619.66 163.2L618.188 162.74L618.832 161.268C619.63 159.673 620.826 158.079 622.42 156.484C624.076 154.828 626.039 153.479 628.308 152.436C630.578 151.332 633 150.78 635.576 150.78C639.808 150.78 643.09 151.7 645.42 153.54C647.751 155.319 649.376 157.741 650.296 160.808C651.216 163.813 651.676 167.187 651.676 170.928V195.308C651.676 196.657 651.247 197.792 650.388 198.712C649.53 199.571 648.426 200 647.076 200C645.788 200 644.684 199.571 643.764 198.712C642.906 197.792 642.476 196.657 642.476 195.308V171.02C642.476 168.873 642.17 166.911 641.556 165.132C641.004 163.353 639.992 161.943 638.52 160.9C637.11 159.796 635.147 159.244 632.632 159.244C630.24 159.244 628.094 159.796 626.192 160.9C624.352 161.943 622.911 163.353 621.868 165.132C620.826 166.911 620.304 168.873 620.304 171.02V195.308C620.304 196.657 619.875 197.792 619.016 198.712C618.158 199.571 617.054 200 615.704 200C614.355 200 613.251 199.571 612.392 198.712C611.534 197.792 611.104 196.657 611.104 195.308V170.928C611.104 168.781 610.798 166.819 610.184 165.04C609.632 163.261 608.651 161.851 607.24 160.808C605.83 159.765 603.867 159.244 601.352 159.244C598.96 159.244 596.844 159.765 595.004 160.808C593.164 161.851 591.723 163.261 590.68 165.04C589.699 166.819 589.208 168.781 589.208 170.928V195.308C589.208 196.657 588.748 197.792 587.828 198.712C586.97 199.571 585.896 200 584.608 200C583.259 200 582.155 199.571 581.296 198.712C580.438 197.792 580.008 196.657 580.008 195.308V156.3C580.008 154.951 580.438 153.847 581.296 152.988C582.155 152.068 583.259 151.608 584.608 151.608C585.896 151.608 586.97 152.068 587.828 152.988C588.748 153.847 589.208 154.951 589.208 156.3V161.728L587.46 162.74C587.89 161.391 588.595 160.011 589.576 158.6C590.558 157.189 591.784 155.901 593.256 154.736C594.79 153.571 596.476 152.62 598.316 151.884C600.156 151.148 602.15 150.78 604.296 150.78ZM704.203 150.872C705.553 150.872 706.657 151.332 707.515 152.252C708.374 153.111 708.803 154.215 708.803 155.564V195.308C708.803 196.657 708.374 197.792 707.515 198.712C706.657 199.571 705.553 200 704.203 200C702.915 200 701.811 199.571 700.891 198.712C700.033 197.792 699.603 196.657 699.603 195.308V188.684L701.535 188.96C701.535 190.064 701.075 191.291 700.155 192.64C699.297 193.989 698.101 195.308 696.567 196.596C695.034 197.823 693.225 198.865 691.139 199.724C689.054 200.521 686.815 200.92 684.423 200.92C680.191 200.92 676.389 199.847 673.015 197.7C669.642 195.492 666.974 192.487 665.011 188.684C663.049 184.881 662.067 180.557 662.067 175.712C662.067 170.744 663.049 166.389 665.011 162.648C666.974 158.845 669.611 155.871 672.923 153.724C676.297 151.577 680.038 150.504 684.147 150.504C686.785 150.504 689.207 150.933 691.415 151.792C693.685 152.651 695.647 153.755 697.303 155.104C698.959 156.453 700.217 157.895 701.075 159.428C701.995 160.9 702.455 162.311 702.455 163.66L699.603 163.936V155.564C699.603 154.276 700.033 153.172 700.891 152.252C701.811 151.332 702.915 150.872 704.203 150.872ZM685.435 192.456C688.318 192.456 690.863 191.72 693.071 190.248C695.279 188.776 696.997 186.783 698.223 184.268C699.45 181.692 700.063 178.84 700.063 175.712C700.063 172.523 699.45 169.671 698.223 167.156C696.997 164.641 695.279 162.648 693.071 161.176C690.863 159.704 688.318 158.968 685.435 158.968C682.614 158.968 680.099 159.704 677.891 161.176C675.745 162.648 674.027 164.641 672.739 167.156C671.513 169.671 670.899 172.523 670.899 175.712C670.899 178.84 671.513 181.692 672.739 184.268C674.027 186.783 675.745 188.776 677.891 190.248C680.099 191.72 682.614 192.456 685.435 192.456ZM721.048 152.16H742.668C743.895 152.16 744.907 152.589 745.704 153.448C746.563 154.245 746.992 155.257 746.992 156.484C746.992 157.649 746.563 158.631 745.704 159.428C744.907 160.225 743.895 160.624 742.668 160.624H721.048C719.821 160.624 718.779 160.225 717.92 159.428C717.123 158.569 716.724 157.557 716.724 156.392C716.724 155.165 717.123 154.153 717.92 153.356C718.779 152.559 719.821 152.16 721.048 152.16ZM730.708 140.2C732.057 140.2 733.161 140.66 734.02 141.58C734.879 142.439 735.308 143.543 735.308 144.892V187.58C735.308 188.684 735.492 189.573 735.86 190.248C736.228 190.923 736.719 191.383 737.332 191.628C738.007 191.873 738.681 191.996 739.356 191.996C740.031 191.996 740.613 191.873 741.104 191.628C741.656 191.383 742.3 191.26 743.036 191.26C743.772 191.26 744.447 191.597 745.06 192.272C745.673 192.947 745.98 193.867 745.98 195.032C745.98 196.504 745.183 197.7 743.588 198.62C741.993 199.54 740.276 200 738.436 200C737.393 200 736.167 199.908 734.756 199.724C733.345 199.54 731.965 199.08 730.616 198.344C729.328 197.608 728.255 196.443 727.396 194.848C726.537 193.192 726.108 190.892 726.108 187.948V144.892C726.108 143.543 726.537 142.439 727.396 141.58C728.316 140.66 729.42 140.2 730.708 140.2ZM765.828 195.308C765.828 196.657 765.399 197.792 764.54 198.712C763.682 199.571 762.578 200 761.228 200C759.94 200 758.836 199.571 757.916 198.712C757.058 197.792 756.628 196.657 756.628 195.308V155.932C756.628 154.583 757.058 153.479 757.916 152.62C758.836 151.7 759.94 151.24 761.228 151.24C762.578 151.24 763.682 151.7 764.54 152.62C765.399 153.479 765.828 154.583 765.828 155.932V195.308ZM761.136 145.168C759.358 145.168 758.07 144.861 757.272 144.248C756.475 143.573 756.076 142.469 756.076 140.936V139.464C756.076 137.931 756.506 136.857 757.364 136.244C758.223 135.631 759.511 135.324 761.228 135.324C763.068 135.324 764.387 135.661 765.184 136.336C765.982 136.949 766.38 137.992 766.38 139.464V140.936C766.38 142.531 765.951 143.635 765.092 144.248C764.295 144.861 762.976 145.168 761.136 145.168ZM824.572 175.804C824.572 180.711 823.498 185.065 821.352 188.868C819.205 192.609 816.292 195.553 812.612 197.7C808.932 199.847 804.792 200.92 800.192 200.92C795.592 200.92 791.452 199.847 787.772 197.7C784.092 195.553 781.148 192.609 778.94 188.868C776.793 185.065 775.72 180.711 775.72 175.804C775.72 170.836 776.793 166.481 778.94 162.74C781.148 158.937 784.092 155.963 787.772 153.816C791.452 151.608 795.592 150.504 800.192 150.504C804.792 150.504 808.932 151.608 812.612 153.816C816.292 155.963 819.205 158.937 821.352 162.74C823.498 166.481 824.572 170.836 824.572 175.804ZM815.372 175.804C815.372 172.431 814.697 169.517 813.348 167.064C811.998 164.549 810.158 162.587 807.828 161.176C805.558 159.704 803.013 158.968 800.192 158.968C797.37 158.968 794.794 159.704 792.464 161.176C790.133 162.587 788.293 164.549 786.944 167.064C785.594 169.517 784.92 172.431 784.92 175.804C784.92 179.055 785.594 181.937 786.944 184.452C788.293 186.967 790.133 188.929 792.464 190.34C794.794 191.751 797.37 192.456 800.192 192.456C803.013 192.456 805.558 191.751 807.828 190.34C810.158 188.929 811.998 186.967 813.348 184.452C814.697 181.937 815.372 179.055 815.372 175.804ZM859.917 150.504C864.272 150.504 867.645 151.424 870.037 153.264C872.429 155.043 874.085 157.465 875.005 160.532C875.986 163.537 876.477 166.911 876.477 170.652V195.308C876.477 196.657 876.017 197.792 875.097 198.712C874.238 199.571 873.165 200 871.877 200C870.528 200 869.424 199.571 868.565 198.712C867.706 197.792 867.277 196.657 867.277 195.308V170.744C867.277 168.536 866.97 166.573 866.357 164.856C865.744 163.077 864.67 161.667 863.137 160.624C861.665 159.52 859.58 158.968 856.881 158.968C854.366 158.968 852.158 159.52 850.257 160.624C848.356 161.667 846.853 163.077 845.749 164.856C844.706 166.573 844.185 168.536 844.185 170.744V195.308C844.185 196.657 843.725 197.792 842.805 198.712C841.946 199.571 840.873 200 839.585 200C838.236 200 837.132 199.571 836.273 198.712C835.414 197.792 834.985 196.657 834.985 195.308V156.3C834.985 154.951 835.414 153.847 836.273 152.988C837.132 152.068 838.236 151.608 839.585 151.608C840.873 151.608 841.946 152.068 842.805 152.988C843.725 153.847 844.185 154.951 844.185 156.3V161.452L842.529 162.372C842.958 161.023 843.694 159.673 844.737 158.324C845.841 156.913 847.16 155.625 848.693 154.46C850.226 153.233 851.944 152.283 853.845 151.608C855.746 150.872 857.77 150.504 859.917 150.504ZM989.008 135.324C990.235 135.324 991.369 135.784 992.412 136.704C993.455 137.563 993.976 138.759 993.976 140.292C993.976 140.721 993.884 141.243 993.7 141.856L974.84 197.056C974.533 197.976 973.981 198.681 973.184 199.172C972.387 199.663 971.559 199.939 970.7 200C969.841 200 968.983 199.755 968.124 199.264C967.265 198.773 966.621 198.037 966.192 197.056L951.656 163.016L952.484 163.384L938.132 197.056C937.641 198.037 936.967 198.773 936.108 199.264C935.311 199.755 934.452 200 933.532 200C932.735 199.939 931.937 199.663 931.14 199.172C930.343 198.681 929.791 197.976 929.484 197.056L910.624 141.856C910.44 141.243 910.348 140.721 910.348 140.292C910.348 138.759 910.9 137.563 912.004 136.704C913.108 135.784 914.243 135.324 915.408 135.324C916.389 135.324 917.279 135.6 918.076 136.152C918.935 136.643 919.517 137.379 919.824 138.36L935.74 185.832H934.084L948.068 151.608C948.497 150.688 949.08 149.952 949.816 149.4C950.613 148.848 951.503 148.603 952.484 148.664C953.465 148.603 954.324 148.848 955.06 149.4C955.857 149.952 956.44 150.688 956.808 151.608L970.056 184.82L968.676 185.556L984.5 138.36C984.807 137.379 985.389 136.643 986.248 136.152C987.107 135.6 988.027 135.324 989.008 135.324ZM1011.01 195.308C1011.01 196.657 1010.58 197.792 1009.72 198.712C1008.87 199.571 1007.76 200 1006.41 200C1005.12 200 1004.02 199.571 1003.1 198.712C1002.24 197.792 1001.81 196.657 1001.81 195.308V155.932C1001.81 154.583 1002.24 153.479 1003.1 152.62C1004.02 151.7 1005.12 151.24 1006.41 151.24C1007.76 151.24 1008.87 151.7 1009.72 152.62C1010.58 153.479 1011.01 154.583 1011.01 155.932V195.308ZM1006.32 145.168C1004.54 145.168 1003.25 144.861 1002.46 144.248C1001.66 143.573 1001.26 142.469 1001.26 140.936V139.464C1001.26 137.931 1001.69 136.857 1002.55 136.244C1003.41 135.631 1004.69 135.324 1006.41 135.324C1008.25 135.324 1009.57 135.661 1010.37 136.336C1011.17 136.949 1011.56 137.992 1011.56 139.464V140.936C1011.56 142.531 1011.13 143.635 1010.28 144.248C1009.48 144.861 1008.16 145.168 1006.32 145.168ZM1022.74 152.16H1044.36C1045.59 152.16 1046.6 152.589 1047.4 153.448C1048.26 154.245 1048.69 155.257 1048.69 156.484C1048.69 157.649 1048.26 158.631 1047.4 159.428C1046.6 160.225 1045.59 160.624 1044.36 160.624H1022.74C1021.52 160.624 1020.47 160.225 1019.62 159.428C1018.82 158.569 1018.42 157.557 1018.42 156.392C1018.42 155.165 1018.82 154.153 1019.62 153.356C1020.47 152.559 1021.52 152.16 1022.74 152.16ZM1032.4 140.2C1033.75 140.2 1034.86 140.66 1035.72 141.58C1036.57 142.439 1037 143.543 1037 144.892V187.58C1037 188.684 1037.19 189.573 1037.56 190.248C1037.92 190.923 1038.41 191.383 1039.03 191.628C1039.7 191.873 1040.38 191.996 1041.05 191.996C1041.73 191.996 1042.31 191.873 1042.8 191.628C1043.35 191.383 1044 191.26 1044.73 191.26C1045.47 191.26 1046.14 191.597 1046.76 192.272C1047.37 192.947 1047.68 193.867 1047.68 195.032C1047.68 196.504 1046.88 197.7 1045.28 198.62C1043.69 199.54 1041.97 200 1040.13 200C1039.09 200 1037.86 199.908 1036.45 199.724C1035.04 199.54 1033.66 199.08 1032.31 198.344C1031.02 197.608 1029.95 196.443 1029.09 194.848C1028.23 193.192 1027.8 190.892 1027.8 187.948V144.892C1027.8 143.543 1028.23 142.439 1029.09 141.58C1030.01 140.66 1031.12 140.2 1032.4 140.2ZM1083.26 150.78C1087.49 150.78 1090.77 151.7 1093.1 153.54C1095.43 155.319 1097.06 157.741 1097.98 160.808C1098.96 163.875 1099.45 167.248 1099.45 170.928V195.308C1099.45 196.657 1098.99 197.792 1098.07 198.712C1097.21 199.571 1096.14 200 1094.85 200C1093.5 200 1092.39 199.571 1091.54 198.712C1090.68 197.792 1090.25 196.657 1090.25 195.308V170.928C1090.25 168.781 1089.94 166.819 1089.33 165.04C1088.78 163.261 1087.76 161.851 1086.29 160.808C1084.88 159.765 1082.89 159.244 1080.31 159.244C1077.92 159.244 1075.77 159.765 1073.87 160.808C1072.03 161.851 1070.59 163.261 1069.55 165.04C1068.57 166.819 1068.08 168.781 1068.08 170.928V195.308C1068.08 196.657 1067.62 197.792 1066.7 198.712C1065.84 199.571 1064.76 200 1063.48 200C1062.13 200 1061.02 199.571 1060.16 198.712C1059.3 197.792 1058.88 196.657 1058.88 195.308V136.612C1058.88 135.263 1059.3 134.159 1060.16 133.3C1061.02 132.38 1062.13 131.92 1063.48 131.92C1064.76 131.92 1065.84 132.38 1066.7 133.3C1067.62 134.159 1068.08 135.263 1068.08 136.612V161.728L1066.42 162.648C1066.85 161.299 1067.55 159.919 1068.54 158.508C1069.58 157.097 1070.84 155.809 1072.31 154.644C1073.84 153.479 1075.53 152.559 1077.37 151.884C1079.21 151.148 1081.17 150.78 1083.26 150.78ZM1187.16 135.6C1188.39 135.6 1189.37 136.029 1190.1 136.888C1190.9 137.685 1191.3 138.697 1191.3 139.924V195.308C1191.3 196.657 1190.84 197.792 1189.92 198.712C1189.06 199.571 1187.96 200 1186.61 200C1185.99 200 1185.32 199.877 1184.58 199.632C1183.91 199.387 1183.39 199.049 1183.02 198.62L1145.21 149.584L1147.32 148.388V195.768C1147.32 196.933 1146.93 197.945 1146.13 198.804C1145.33 199.601 1144.32 200 1143.09 200C1141.8 200 1140.76 199.601 1139.96 198.804C1139.23 197.945 1138.86 196.933 1138.86 195.768V140.292C1138.86 138.881 1139.32 137.747 1140.24 136.888C1141.16 136.029 1142.26 135.6 1143.55 135.6C1144.23 135.6 1144.93 135.753 1145.67 136.06C1146.47 136.305 1147.05 136.704 1147.42 137.256L1184.31 185.28L1182.93 186.568V139.924C1182.93 138.697 1183.33 137.685 1184.12 136.888C1184.92 136.029 1185.93 135.6 1187.16 135.6ZM1251.69 175.804C1251.69 180.711 1250.62 185.065 1248.47 188.868C1246.32 192.609 1243.41 195.553 1239.73 197.7C1236.05 199.847 1231.91 200.92 1227.31 200.92C1222.71 200.92 1218.57 199.847 1214.89 197.7C1211.21 195.553 1208.26 192.609 1206.06 188.868C1203.91 185.065 1202.84 180.711 1202.84 175.804C1202.84 170.836 1203.91 166.481 1206.06 162.74C1208.26 158.937 1211.21 155.963 1214.89 153.816C1218.57 151.608 1222.71 150.504 1227.31 150.504C1231.91 150.504 1236.05 151.608 1239.73 153.816C1243.41 155.963 1246.32 158.937 1248.47 162.74C1250.62 166.481 1251.69 170.836 1251.69 175.804ZM1242.49 175.804C1242.49 172.431 1241.81 169.517 1240.46 167.064C1239.12 164.549 1237.28 162.587 1234.94 161.176C1232.68 159.704 1230.13 158.968 1227.31 158.968C1224.49 158.968 1221.91 159.704 1219.58 161.176C1217.25 162.587 1215.41 164.549 1214.06 167.064C1212.71 169.517 1212.04 172.431 1212.04 175.804C1212.04 179.055 1212.71 181.937 1214.06 184.452C1215.41 186.967 1217.25 188.929 1219.58 190.34C1221.91 191.751 1224.49 192.456 1227.31 192.456C1230.13 192.456 1232.68 191.751 1234.94 190.34C1237.28 188.929 1239.12 186.967 1240.46 184.452C1241.81 181.937 1242.49 179.055 1242.49 175.804ZM1324.32 190.984C1325.61 190.984 1326.68 191.413 1327.54 192.272C1328.46 193.131 1328.92 194.204 1328.92 195.492C1328.92 196.78 1328.46 197.853 1327.54 198.712C1326.68 199.571 1325.61 200 1324.32 200H1293.41C1292.06 200 1290.93 199.571 1290.01 198.712C1289.15 197.792 1288.72 196.657 1288.72 195.308V140.292C1288.72 138.943 1289.18 137.839 1290.1 136.98C1291.02 136.06 1292.22 135.6 1293.69 135.6C1294.91 135.6 1295.99 136.06 1296.91 136.98C1297.89 137.839 1298.38 138.943 1298.38 140.292V192.548L1296.45 190.984H1324.32ZM1347.12 195.308C1347.12 196.657 1346.69 197.792 1345.83 198.712C1344.97 199.571 1343.87 200 1342.52 200C1341.23 200 1340.13 199.571 1339.21 198.712C1338.35 197.792 1337.92 196.657 1337.92 195.308V155.932C1337.92 154.583 1338.35 153.479 1339.21 152.62C1340.13 151.7 1341.23 151.24 1342.52 151.24C1343.87 151.24 1344.97 151.7 1345.83 152.62C1346.69 153.479 1347.12 154.583 1347.12 155.932V195.308ZM1342.43 145.168C1340.65 145.168 1339.36 144.861 1338.56 144.248C1337.76 143.573 1337.37 142.469 1337.37 140.936V139.464C1337.37 137.931 1337.79 136.857 1338.65 136.244C1339.51 135.631 1340.8 135.324 1342.52 135.324C1344.36 135.324 1345.68 135.661 1346.47 136.336C1347.27 136.949 1347.67 137.992 1347.67 139.464V140.936C1347.67 142.531 1347.24 143.635 1346.38 144.248C1345.58 144.861 1344.27 145.168 1342.43 145.168ZM1383.78 150.78C1388.32 150.78 1391.82 151.915 1394.27 154.184C1396.72 156.392 1398.35 159.397 1399.14 163.2L1397.67 162.74L1398.32 161.268C1399.11 159.673 1400.31 158.079 1401.9 156.484C1403.56 154.828 1405.52 153.479 1407.79 152.436C1410.06 151.332 1412.48 150.78 1415.06 150.78C1419.29 150.78 1422.57 151.7 1424.9 153.54C1427.24 155.319 1428.86 157.741 1429.78 160.808C1430.7 163.813 1431.16 167.187 1431.16 170.928V195.308C1431.16 196.657 1430.73 197.792 1429.87 198.712C1429.01 199.571 1427.91 200 1426.56 200C1425.27 200 1424.17 199.571 1423.25 198.712C1422.39 197.792 1421.96 196.657 1421.96 195.308V171.02C1421.96 168.873 1421.65 166.911 1421.04 165.132C1420.49 163.353 1419.48 161.943 1418 160.9C1416.59 159.796 1414.63 159.244 1412.12 159.244C1409.72 159.244 1407.58 159.796 1405.68 160.9C1403.84 161.943 1402.4 163.353 1401.35 165.132C1400.31 166.911 1399.79 168.873 1399.79 171.02V195.308C1399.79 196.657 1399.36 197.792 1398.5 198.712C1397.64 199.571 1396.54 200 1395.19 200C1393.84 200 1392.74 199.571 1391.88 198.712C1391.02 197.792 1390.59 196.657 1390.59 195.308V170.928C1390.59 168.781 1390.28 166.819 1389.67 165.04C1389.12 163.261 1388.14 161.851 1386.72 160.808C1385.31 159.765 1383.35 159.244 1380.84 159.244C1378.44 159.244 1376.33 159.765 1374.49 160.808C1372.65 161.851 1371.21 163.261 1370.16 165.04C1369.18 166.819 1368.69 168.781 1368.69 170.928V195.308C1368.69 196.657 1368.23 197.792 1367.31 198.712C1366.45 199.571 1365.38 200 1364.09 200C1362.74 200 1361.64 199.571 1360.78 198.712C1359.92 197.792 1359.49 196.657 1359.49 195.308V156.3C1359.49 154.951 1359.92 153.847 1360.78 152.988C1361.64 152.068 1362.74 151.608 1364.09 151.608C1365.38 151.608 1366.45 152.068 1367.31 152.988C1368.23 153.847 1368.69 154.951 1368.69 156.3V161.728L1366.94 162.74C1367.37 161.391 1368.08 160.011 1369.06 158.6C1370.04 157.189 1371.27 155.901 1372.74 154.736C1374.27 153.571 1375.96 152.62 1377.8 151.884C1379.64 151.148 1381.63 150.78 1383.78 150.78ZM1452.68 195.308C1452.68 196.657 1452.25 197.792 1451.4 198.712C1450.54 199.571 1449.43 200 1448.08 200C1446.8 200 1445.69 199.571 1444.77 198.712C1443.91 197.792 1443.48 196.657 1443.48 195.308V155.932C1443.48 154.583 1443.91 153.479 1444.77 152.62C1445.69 151.7 1446.8 151.24 1448.08 151.24C1449.43 151.24 1450.54 151.7 1451.4 152.62C1452.25 153.479 1452.68 154.583 1452.68 155.932V195.308ZM1447.99 145.168C1446.21 145.168 1444.93 144.861 1444.13 144.248C1443.33 143.573 1442.93 142.469 1442.93 140.936V139.464C1442.93 137.931 1443.36 136.857 1444.22 136.244C1445.08 135.631 1446.37 135.324 1448.08 135.324C1449.92 135.324 1451.24 135.661 1452.04 136.336C1452.84 136.949 1453.24 137.992 1453.24 139.464V140.936C1453.24 142.531 1452.81 143.635 1451.95 144.248C1451.15 144.861 1449.83 145.168 1447.99 145.168ZM1464.42 152.16H1486.04C1487.26 152.16 1488.27 152.589 1489.07 153.448C1489.93 154.245 1490.36 155.257 1490.36 156.484C1490.36 157.649 1489.93 158.631 1489.07 159.428C1488.27 160.225 1487.26 160.624 1486.04 160.624H1464.42C1463.19 160.624 1462.15 160.225 1461.29 159.428C1460.49 158.569 1460.09 157.557 1460.09 156.392C1460.09 155.165 1460.49 154.153 1461.29 153.356C1462.15 152.559 1463.19 152.16 1464.42 152.16ZM1474.08 140.2C1475.42 140.2 1476.53 140.66 1477.39 141.58C1478.25 142.439 1478.68 143.543 1478.68 144.892V187.58C1478.68 188.684 1478.86 189.573 1479.23 190.248C1479.6 190.923 1480.09 191.383 1480.7 191.628C1481.37 191.873 1482.05 191.996 1482.72 191.996C1483.4 191.996 1483.98 191.873 1484.47 191.628C1485.02 191.383 1485.67 191.26 1486.4 191.26C1487.14 191.26 1487.81 191.597 1488.43 192.272C1489.04 192.947 1489.35 193.867 1489.35 195.032C1489.35 196.504 1488.55 197.7 1486.96 198.62C1485.36 199.54 1483.64 200 1481.8 200C1480.76 200 1479.53 199.908 1478.12 199.724C1476.71 199.54 1475.33 199.08 1473.98 198.344C1472.7 197.608 1471.62 196.443 1470.76 194.848C1469.9 193.192 1469.48 190.892 1469.48 187.948V144.892C1469.48 143.543 1469.9 142.439 1470.76 141.58C1471.68 140.66 1472.79 140.2 1474.08 140.2ZM1499.49 192.456C1498.94 191.597 1498.69 190.616 1498.76 189.512C1498.82 188.347 1499.46 187.365 1500.69 186.568C1501.55 186.016 1502.44 185.801 1503.36 185.924C1504.34 185.985 1505.26 186.445 1506.12 187.304C1507.83 189.205 1509.73 190.708 1511.82 191.812C1513.97 192.916 1516.54 193.468 1519.55 193.468C1520.77 193.407 1522.03 193.223 1523.32 192.916C1524.61 192.548 1525.71 191.935 1526.63 191.076C1527.55 190.156 1528.01 188.837 1528.01 187.12C1528.01 185.587 1527.52 184.36 1526.54 183.44C1525.56 182.52 1524.27 181.784 1522.68 181.232C1521.08 180.619 1519.36 180.067 1517.52 179.576C1515.56 179.024 1513.57 178.411 1511.54 177.736C1509.58 177.061 1507.8 176.203 1506.21 175.16C1504.61 174.056 1503.29 172.645 1502.25 170.928C1501.27 169.211 1500.78 167.095 1500.78 164.58C1500.78 161.697 1501.58 159.213 1503.17 157.128C1504.83 155.043 1506.94 153.417 1509.52 152.252C1512.16 151.087 1515.01 150.504 1518.08 150.504C1519.85 150.504 1521.73 150.749 1523.69 151.24C1525.65 151.669 1527.55 152.375 1529.39 153.356C1531.23 154.337 1532.83 155.625 1534.18 157.22C1534.79 158.017 1535.13 158.968 1535.19 160.072C1535.31 161.176 1534.82 162.157 1533.72 163.016C1532.98 163.629 1532.09 163.905 1531.05 163.844C1530.01 163.783 1529.15 163.445 1528.47 162.832C1527.31 161.36 1525.8 160.225 1523.96 159.428C1522.12 158.569 1520.04 158.14 1517.71 158.14C1516.54 158.14 1515.32 158.324 1514.03 158.692C1512.8 158.999 1511.76 159.581 1510.9 160.44C1510.04 161.299 1509.61 162.556 1509.61 164.212C1509.61 165.745 1510.1 166.972 1511.08 167.892C1512.13 168.812 1513.48 169.579 1515.13 170.192C1516.79 170.805 1518.6 171.357 1520.56 171.848C1522.46 172.339 1524.33 172.921 1526.17 173.596C1528.07 174.271 1529.76 175.16 1531.23 176.264C1532.77 177.307 1533.99 178.687 1534.91 180.404C1535.89 182.06 1536.38 184.176 1536.38 186.752C1536.38 189.757 1535.49 192.333 1533.72 194.48C1532 196.565 1529.79 198.16 1527.09 199.264C1524.45 200.368 1521.66 200.92 1518.72 200.92C1515.22 200.92 1511.73 200.307 1508.23 199.08C1504.8 197.792 1501.88 195.584 1499.49 192.456Z" fill="white"/>
</g>
<defs>
<filter id="filter0_d_8_102" x="218.402" y="21.92" width="1471.21" height="195" filterUnits="userSpaceOnUse" color-interpolation-filters="sRGB">
<feFlood flood-opacity="0" result="BackgroundImageFix"/>
<feColorMatrix in="SourceAlpha" type="matrix" values="0 0 0 0 0 0 0 0 0 0 0 0 0 0 0 0 0 0 127 0" result="hardAlpha"/>
<feOffset dy="4"/>
<feGaussianBlur stdDeviation="2"/>
<feComposite in2="hardAlpha" operator="out"/>
<feColorMatrix type="matrix" values="0 0 0 0 0 0 0 0 0 0 0 0 0 0 0 0 0 0 0.25 0"/>
<feBlend mode="normal" in2="BackgroundImageFix" result="effect1_dropShadow_8_102"/>
<feBlend mode="normal" in="SourceGraphic" in2="effect1_dropShadow_8_102" result="shape"/>
</filter>
</defs>
</svg>
