<svg width="183" height="27" viewBox="0 0 183 27" fill="none" xmlns="http://www.w3.org/2000/svg">
<path d="M1.04515 15.0289C0.756823 15.0289 0.504539 14.9328 0.288296 14.7406C0.0960806 14.5244 -2.73595e-05 14.2601 -2.73595e-05 13.9477C-2.73595e-05 13.6594 0.0960806 13.4311 0.288296 13.2629C0.504539 13.0707 0.756823 12.9746 1.04515 12.9746H15.9299C16.2182 12.9746 16.4585 13.0707 16.6507 13.2629C16.8669 13.4552 16.975 13.7074 16.975 14.0198C16.975 14.2841 16.8669 14.5244 16.6507 14.7406C16.4585 14.9328 16.2182 15.0289 15.9299 15.0289H1.04515ZM8.46948 22.8137C8.13311 22.8137 7.8568 22.7056 7.64055 22.4893C7.42431 22.2731 7.31619 21.9968 7.31619 21.6604V6.41526C7.31619 6.05485 7.42431 5.76653 7.64055 5.55029C7.88082 5.33404 8.15713 5.22592 8.46948 5.22592C8.82989 5.22592 9.1062 5.33404 9.29842 5.55029C9.51466 5.76653 9.62278 6.04284 9.62278 6.37922V21.6604C9.62278 21.9968 9.51466 22.2731 9.29842 22.4893C9.08217 22.7056 8.80586 22.8137 8.46948 22.8137ZM24.9634 25.9852C24.627 25.9852 24.3507 25.8771 24.1344 25.6609C23.9182 25.4446 23.8101 25.1923 23.8101 24.904V3.20766L24.2065 3.56806L19.4131 6.77566C19.2209 6.91982 19.0167 6.99191 18.8004 6.99191C18.5121 6.99191 18.2478 6.87177 18.0075 6.6315C17.7913 6.39123 17.6832 6.12693 17.6832 5.83861C17.6832 5.45418 17.8754 5.15384 18.2598 4.9376L24.2786 0.937105C24.4227 0.840997 24.5669 0.78093 24.7111 0.756903C24.8793 0.732876 25.0234 0.732876 25.1436 0.756903C25.4559 0.78093 25.6962 0.901064 25.8644 1.11731C26.0326 1.30952 26.1166 1.54979 26.1166 1.83812V24.904C26.1166 25.1923 26.0085 25.4446 25.7923 25.6609C25.576 25.8771 25.2997 25.9852 24.9634 25.9852ZM47.2406 23.8949C47.5289 23.8949 47.7692 24.003 47.9614 24.2193C48.1776 24.4115 48.2858 24.6517 48.2858 24.9401C48.2858 25.2524 48.1776 25.5047 47.9614 25.6969C47.7692 25.8891 47.5289 25.9852 47.2406 25.9852H33.7254C33.4131 25.9852 33.1367 25.9011 32.8965 25.733C32.6802 25.5407 32.5721 25.2644 32.5721 24.904C32.5721 24.6397 32.6682 24.3874 32.8604 24.1472L41.1858 14.9569C42.5073 13.5152 43.4924 12.1937 44.1411 10.9924C44.8139 9.76702 45.1502 8.67379 45.1502 7.71271C45.1502 6.12693 44.6697 4.8535 43.7086 3.89242C42.7475 2.93134 41.4501 2.4508 39.8162 2.4508C39.0714 2.4508 38.3266 2.60698 37.5817 2.91933C36.8609 3.23168 36.2122 3.64014 35.6356 4.14471C35.0829 4.64927 34.6504 5.22592 34.3381 5.87465C34.1939 6.11492 34.0378 6.28311 33.8696 6.37922C33.7254 6.47533 33.5572 6.52338 33.365 6.52338C33.0767 6.52338 32.8244 6.43928 32.6082 6.2711C32.3919 6.07888 32.2838 5.85062 32.2838 5.58633C32.2838 5.41814 32.3198 5.24995 32.3919 5.08176C32.488 4.91357 32.6202 4.72136 32.7884 4.50511C33.2208 3.76028 33.8215 3.07551 34.5904 2.4508C35.3592 1.8261 36.2122 1.33355 37.1493 0.973147C38.1103 0.588715 39.0474 0.396499 39.9604 0.396499C41.4981 0.396499 42.8196 0.696836 43.9249 1.29751C45.0541 1.87416 45.9191 2.70309 46.5198 3.7843C47.1445 4.84149 47.4568 6.10291 47.4568 7.56855C47.4568 8.81796 47.0604 10.1875 46.2675 11.6772C45.4986 13.1428 44.3453 14.7286 42.8076 16.4345L35.7797 24.3274L35.4193 23.8949H47.2406ZM63.1758 22.2731C63.296 22.2731 63.4161 22.2971 63.5362 22.3451C63.6804 22.3932 63.8486 22.5013 64.0408 22.6695C64.5454 23.1981 65.146 23.6066 65.8428 23.8949C66.5396 24.1592 67.3325 24.2913 68.2215 24.2913C69.3988 24.2913 70.468 24.027 71.4291 23.4984C72.4142 22.9698 73.1951 22.237 73.7717 21.3C74.3484 20.3389 74.6367 19.2457 74.6367 18.0203C74.6367 16.6267 74.3243 15.5095 73.6996 14.6685C73.099 13.8036 72.3181 13.1668 71.357 12.7584C70.42 12.3259 69.4589 12.1097 68.4738 12.1097C68.2095 12.1097 67.9452 12.1337 67.6809 12.1817C67.4406 12.2058 67.2124 12.2418 66.9961 12.2899C66.7799 12.3379 66.6117 12.3619 66.4915 12.3619C66.1792 12.3619 65.9389 12.2658 65.7707 12.0736C65.6025 11.8574 65.5185 11.5931 65.5185 11.2807C65.5185 11.1125 65.5545 10.9684 65.6266 10.8482C65.6987 10.7041 65.7948 10.5479 65.9149 10.3797L73.2311 2.41476L73.6636 2.99141H62.7433C62.455 2.99141 62.2027 2.89531 61.9865 2.70309C61.7943 2.48685 61.6982 2.23456 61.6982 1.94624C61.6982 1.65792 61.7943 1.41765 61.9865 1.22543C62.2027 1.03321 62.455 0.937105 62.7433 0.937105H74.8529C75.2614 0.937105 75.5497 1.06925 75.7179 1.33355C75.8861 1.57382 75.9702 1.81409 75.9702 2.05436C75.9702 2.19852 75.9342 2.34268 75.8621 2.48685C75.79 2.60698 75.6939 2.73913 75.5737 2.88329L68.2575 10.8482L67.4646 10.3797C67.5367 10.3076 67.777 10.2355 68.1855 10.1635C68.6179 10.0674 68.9543 10.0193 69.1946 10.0193C70.5161 10.0193 71.7535 10.3317 72.9068 10.9564C74.0841 11.5811 75.0331 12.4821 75.7539 13.6594C76.4988 14.8127 76.8712 16.2423 76.8712 17.9482C76.8712 19.6301 76.4748 21.1078 75.6819 22.3812C74.889 23.6306 73.8198 24.6037 72.4743 25.3005C71.1288 25.9972 69.6391 26.3456 68.0052 26.3456C67.0201 26.3456 66.047 26.1775 65.086 25.8411C64.1249 25.5047 63.2839 25.0001 62.5631 24.3274C62.3949 24.1832 62.2748 24.0391 62.2027 23.8949C62.1307 23.7507 62.0946 23.6066 62.0946 23.4624C62.0946 23.1741 62.1907 22.9098 62.3829 22.6695C62.5992 22.4052 62.8635 22.2731 63.1758 22.2731ZM92.0952 25.9852C91.7829 25.9852 91.5306 25.8771 91.3384 25.6609C91.1461 25.4446 91.05 25.1923 91.05 24.904V3.74826L91.5186 4.03659L82.0399 16.5787L81.9318 16.1822H95.7713C96.0597 16.1822 96.2999 16.2783 96.4921 16.4706C96.7084 16.6628 96.8165 16.903 96.8165 17.1914C96.8165 17.4797 96.7084 17.72 96.4921 17.9122C96.2999 18.1044 96.0597 18.2005 95.7713 18.2005H80.4541C80.1658 18.2005 79.9135 18.0924 79.6973 17.8761C79.481 17.6359 79.3729 17.3716 79.3729 17.0832C79.3729 16.8189 79.457 16.5787 79.6252 16.3624L91.2302 1.18939C91.3504 1.0212 91.4945 0.913078 91.6627 0.865025C91.8549 0.792944 92.0111 0.756903 92.1312 0.756903C92.4436 0.756903 92.6959 0.865024 92.8881 1.08127C93.1043 1.29751 93.2125 1.54979 93.2125 1.83812V24.904C93.2125 25.1923 93.1043 25.4446 92.8881 25.6609C92.6719 25.8771 92.4076 25.9852 92.0952 25.9852ZM106.589 26.0573C105.604 26.0573 104.607 25.9011 103.598 25.5888C102.613 25.2524 101.736 24.7599 100.967 24.1111C100.823 23.991 100.702 23.8468 100.606 23.6786C100.534 23.5105 100.498 23.3423 100.498 23.1741C100.498 22.9338 100.594 22.7056 100.787 22.4893C100.979 22.249 101.231 22.1289 101.543 22.1289C101.808 22.1289 102.072 22.237 102.336 22.4533C102.961 22.9338 103.634 23.3062 104.355 23.5705C105.099 23.8348 105.844 23.967 106.589 23.967C108.007 23.967 109.244 23.7027 110.301 23.1741C111.358 22.6215 112.175 21.8526 112.752 20.8675C113.329 19.8584 113.617 18.693 113.617 17.3716C113.617 16.1462 113.353 15.089 112.824 14.2C112.296 13.287 111.539 12.5782 110.554 12.0736C109.592 11.545 108.451 11.2807 107.13 11.2807C106.265 11.2807 105.472 11.4129 104.751 11.6772C104.054 11.9415 103.442 12.2178 102.913 12.5061C102.408 12.7704 102 12.9025 101.688 12.9025C101.399 12.9025 101.159 12.8305 100.967 12.6863C100.799 12.5421 100.678 12.3619 100.606 12.1457C100.558 11.9295 100.558 11.7012 100.606 11.4609L102.156 1.83812C102.18 1.62188 102.288 1.42966 102.48 1.26147C102.697 1.06925 102.961 0.973147 103.273 0.973147H114.122C114.41 0.973147 114.65 1.08127 114.842 1.29751C115.059 1.48973 115.167 1.73 115.167 2.01832C115.167 2.33067 115.059 2.59497 114.842 2.81121C114.65 3.00343 114.41 3.09953 114.122 3.09953H103.778L104.102 2.77517L102.625 11.3168L101.976 10.8482C102.288 10.608 102.733 10.3677 103.309 10.1274C103.91 9.88716 104.571 9.68293 105.292 9.51474C106.036 9.32252 106.817 9.22641 107.634 9.22641C109.196 9.22641 110.59 9.57481 111.815 10.2716C113.04 10.9443 114.001 11.8934 114.698 13.1188C115.419 14.3201 115.779 15.7137 115.779 17.2995C115.779 19.0535 115.395 20.5912 114.626 21.9127C113.881 23.2101 112.824 24.2313 111.455 24.9761C110.085 25.6969 108.463 26.0573 106.589 26.0573ZM137.993 26.3456C136.6 26.3456 135.374 26.0934 134.317 25.5888C133.284 25.0842 132.419 24.4115 131.722 23.5705C131.05 22.7056 130.545 21.7325 130.209 20.6512C129.896 19.57 129.74 18.4648 129.74 17.3355C129.74 16.1822 129.884 14.9448 130.173 13.6234C130.461 12.2778 130.905 10.9203 131.506 9.55078C132.107 8.18124 132.84 6.88378 133.704 5.65841C134.593 4.43303 135.615 3.3398 136.768 2.37872C137.945 1.39362 139.267 0.624755 140.732 0.0721342C140.901 0.0240809 141.045 5.41819e-05 141.165 5.41819e-05C141.477 5.41819e-05 141.742 0.0841483 141.958 0.252336C142.198 0.420526 142.318 0.70885 142.318 1.11731C142.318 1.35758 142.234 1.57382 142.066 1.76604C141.922 1.93423 141.717 2.06637 141.453 2.16248C140.444 2.59497 139.447 3.20766 138.462 4.00055C137.477 4.79344 136.564 5.70646 135.723 6.73962C134.882 7.77278 134.161 8.89004 133.56 10.0914C132.984 11.2687 132.575 12.4701 132.335 13.6954L131.542 14.164C131.975 13.3711 132.527 12.6743 133.2 12.0736C133.897 11.4489 134.69 10.9564 135.579 10.596C136.468 10.2115 137.429 10.0193 138.462 10.0193C139.543 10.0193 140.54 10.2476 141.453 10.7041C142.366 11.1606 143.147 11.7853 143.796 12.5782C144.469 13.347 144.985 14.224 145.346 15.2091C145.73 16.1942 145.922 17.2154 145.922 18.2726C145.922 19.6902 145.574 21.0117 144.877 22.237C144.204 23.4624 143.267 24.4595 142.066 25.2284C140.889 25.9732 139.531 26.3456 137.993 26.3456ZM137.957 24.2553C139.063 24.2553 140.048 24.003 140.913 23.4984C141.778 22.9939 142.45 22.2971 142.931 21.4081C143.435 20.4951 143.688 19.4499 143.688 18.2726C143.688 17.1914 143.471 16.1942 143.039 15.2812C142.631 14.3442 142.006 13.5873 141.165 13.0107C140.348 12.41 139.327 12.1097 138.101 12.1097C136.828 12.1097 135.723 12.398 134.786 12.9746C133.873 13.5513 133.164 14.3201 132.659 15.2812C132.179 16.2183 131.939 17.2514 131.939 18.3807C131.939 19.3898 132.179 20.3509 132.659 21.2639C133.14 22.1529 133.825 22.8737 134.714 23.4264C135.627 23.979 136.708 24.2553 137.957 24.2553ZM153.458 26.0934C153.169 26.0934 152.905 25.9972 152.665 25.805C152.425 25.6128 152.304 25.3725 152.304 25.0842C152.304 24.916 152.341 24.7358 152.413 24.5436L161.999 2.52289L162.396 3.02745H150.214C149.926 3.02745 149.674 2.93135 149.457 2.73913C149.265 2.52289 149.169 2.2706 149.169 1.98228C149.169 1.66993 149.265 1.41765 149.457 1.22543C149.674 1.03321 149.926 0.937105 150.214 0.937105H163.441C163.801 0.937105 164.066 1.03321 164.234 1.22543C164.402 1.41765 164.486 1.65792 164.486 1.94624C164.486 2.13845 164.45 2.31866 164.378 2.48685L154.467 25.3725C154.395 25.5888 154.263 25.769 154.07 25.9132C153.878 26.0333 153.674 26.0934 153.458 26.0934ZM178.639 13.299L178.531 12.9746C179.348 13.287 180.093 13.7555 180.765 14.3802C181.438 14.9809 181.979 15.7017 182.387 16.5426C182.796 17.3595 183 18.2606 183 19.2457C183 20.5431 182.652 21.7204 181.955 22.7776C181.282 23.8348 180.357 24.6758 179.18 25.3005C178.002 25.9252 176.693 26.2375 175.251 26.2375C173.786 26.2375 172.464 25.9252 171.287 25.3005C170.134 24.6758 169.208 23.8348 168.512 22.7776C167.839 21.7204 167.503 20.5431 167.503 19.2457C167.503 18.1885 167.707 17.2514 168.115 16.4345C168.548 15.5936 169.1 14.8848 169.773 14.3081C170.47 13.7315 171.191 13.287 171.936 12.9746L171.827 13.335C171.179 13.0227 170.566 12.6022 169.989 12.0736C169.437 11.521 168.98 10.8723 168.62 10.1274C168.259 9.35856 168.079 8.51762 168.079 7.60459C168.079 6.30714 168.392 5.14183 169.016 4.10867C169.665 3.07551 170.53 2.25859 171.611 1.65792C172.716 1.05724 173.93 0.756903 175.251 0.756903C176.573 0.756903 177.762 1.05724 178.819 1.65792C179.9 2.25859 180.753 3.07551 181.378 4.10867C182.027 5.14183 182.351 6.30714 182.351 7.60459C182.351 8.54165 182.171 9.38259 181.811 10.1274C181.45 10.8723 180.982 11.521 180.405 12.0736C179.828 12.6022 179.24 13.0107 178.639 13.299ZM170.314 7.60459C170.314 8.56567 170.542 9.40662 170.999 10.1274C171.455 10.8482 172.056 11.4129 172.801 11.8213C173.545 12.2298 174.362 12.434 175.251 12.434C176.116 12.434 176.921 12.2298 177.666 11.8213C178.411 11.4129 178.999 10.8482 179.432 10.1274C179.888 9.40662 180.117 8.56567 180.117 7.60459C180.117 6.187 179.66 5.03371 178.747 4.14471C177.834 3.25571 176.669 2.81121 175.251 2.81121C173.786 2.81121 172.596 3.25571 171.683 4.14471C170.77 5.03371 170.314 6.187 170.314 7.60459ZM175.251 24.1832C176.885 24.1832 178.207 23.7147 179.216 22.7776C180.249 21.8406 180.765 20.6633 180.765 19.2457C180.765 18.2846 180.513 17.4196 180.009 16.6508C179.504 15.8819 178.831 15.2812 177.99 14.8487C177.149 14.4162 176.236 14.2 175.251 14.2C174.266 14.2 173.353 14.4162 172.512 14.8487C171.671 15.2812 170.999 15.8819 170.494 16.6508C169.989 17.4196 169.737 18.2846 169.737 19.2457C169.737 20.6633 170.242 21.8406 171.251 22.7776C172.26 23.7147 173.593 24.1832 175.251 24.1832Z" fill="white"/>
</svg>
