<svg width="266" height="218" viewBox="0 0 266 218" fill="none" xmlns="http://www.w3.org/2000/svg">
<path d="M4.464 10.8C4.632 10.8 4.8 10.836 4.968 10.908C5.16 10.98 5.316 11.1 5.436 11.268L15.372 26.172L14.4 26.136L24.372 11.268C24.636 10.908 24.96 10.752 25.344 10.8C25.632 10.8 25.872 10.908 26.064 11.124C26.28 11.316 26.388 11.568 26.388 11.88V34.92C26.388 35.208 26.28 35.46 26.064 35.676C25.848 35.892 25.584 36 25.272 36C24.936 36 24.66 35.892 24.444 35.676C24.228 35.46 24.12 35.208 24.12 34.92V14.076L24.768 14.148L15.66 27.936C15.588 28.08 15.48 28.2 15.336 28.296C15.192 28.368 15.024 28.392 14.832 28.368C14.664 28.392 14.496 28.368 14.328 28.296C14.184 28.2 14.064 28.08 13.968 27.936L4.824 14.004L5.508 13.536V34.92C5.508 35.208 5.4 35.46 5.184 35.676C4.992 35.892 4.74 36 4.428 36C4.116 36 3.864 35.892 3.672 35.676C3.48 35.46 3.384 35.208 3.384 34.92V11.88C3.384 11.592 3.48 11.34 3.672 11.124C3.888 10.908 4.152 10.8 4.464 10.8ZM34.7093 34.92C34.7093 35.208 34.6013 35.46 34.3853 35.676C34.1693 35.892 33.9173 36 33.6293 36C33.3173 36 33.0533 35.892 32.8373 35.676C32.6453 35.46 32.5493 35.208 32.5493 34.92V18.36C32.5493 18.072 32.6453 17.82 32.8373 17.604C33.0533 17.388 33.3173 17.28 33.6293 17.28C33.9413 17.28 34.1933 17.388 34.3853 17.604C34.6013 17.82 34.7093 18.072 34.7093 18.36V34.92ZM33.6293 14.868C33.1253 14.868 32.7413 14.76 32.4773 14.544C32.2373 14.304 32.1173 13.968 32.1173 13.536V13.176C32.1173 12.744 32.2493 12.42 32.5133 12.204C32.8013 11.964 33.1853 11.844 33.6653 11.844C34.1213 11.844 34.4693 11.964 34.7093 12.204C34.9733 12.42 35.1053 12.744 35.1053 13.176V13.536C35.1053 13.968 34.9733 14.304 34.7093 14.544C34.4693 14.76 34.1093 14.868 33.6293 14.868ZM39.2766 33.084C39.0846 32.796 38.9886 32.52 38.9886 32.256C39.0126 31.968 39.1686 31.74 39.4566 31.572C39.6486 31.404 39.8646 31.332 40.1046 31.356C40.3686 31.38 40.6086 31.5 40.8246 31.716C41.4726 32.556 42.2526 33.24 43.1646 33.768C44.1006 34.272 45.2046 34.524 46.4766 34.524C47.1486 34.524 47.8086 34.416 48.4566 34.2C49.1286 33.96 49.6806 33.612 50.1126 33.156C50.5446 32.676 50.7606 32.076 50.7606 31.356C50.7606 30.612 50.5446 30.012 50.1126 29.556C49.6806 29.1 49.1166 28.74 48.4206 28.476C47.7486 28.212 47.0286 27.984 46.2606 27.792C45.4446 27.576 44.6526 27.336 43.8846 27.072C43.1166 26.784 42.4326 26.436 41.8326 26.028C41.2566 25.596 40.7886 25.08 40.4286 24.48C40.0686 23.88 39.8886 23.148 39.8886 22.284C39.8886 21.276 40.1646 20.388 40.7166 19.62C41.2686 18.852 42.0126 18.252 42.9486 17.82C43.9086 17.388 44.9886 17.172 46.1886 17.172C46.7886 17.172 47.4366 17.256 48.1326 17.424C48.8286 17.568 49.5126 17.82 50.1846 18.18C50.8566 18.54 51.4566 19.032 51.9846 19.656C52.2006 19.872 52.3086 20.124 52.3086 20.412C52.3086 20.676 52.1886 20.916 51.9486 21.132C51.7566 21.276 51.5286 21.348 51.2646 21.348C51.0246 21.348 50.8206 21.252 50.6526 21.06C50.0766 20.412 49.3926 19.92 48.6006 19.584C47.8086 19.248 46.9566 19.08 46.0446 19.08C45.3486 19.08 44.6886 19.2 44.0646 19.44C43.4646 19.656 42.9606 19.992 42.5526 20.448C42.1446 20.904 41.9406 21.504 41.9406 22.248C41.9886 22.944 42.2286 23.508 42.6606 23.94C43.1166 24.372 43.7046 24.732 44.4246 25.02C45.1686 25.308 45.9966 25.572 46.9086 25.812C47.6766 26.004 48.4086 26.232 49.1046 26.496C49.8246 26.76 50.4486 27.096 50.9766 27.504C51.5286 27.888 51.9606 28.38 52.2726 28.98C52.6086 29.58 52.7766 30.336 52.7766 31.248C52.7766 32.304 52.4766 33.216 51.8766 33.984C51.3006 34.752 50.5206 35.34 49.5366 35.748C48.5526 36.156 47.4606 36.36 46.2606 36.36C44.9646 36.36 43.7046 36.108 42.4806 35.604C41.2806 35.1 40.2126 34.26 39.2766 33.084ZM56.1516 33.084C55.9596 32.796 55.8636 32.52 55.8636 32.256C55.8876 31.968 56.0436 31.74 56.3316 31.572C56.5236 31.404 56.7396 31.332 56.9796 31.356C57.2436 31.38 57.4836 31.5 57.6996 31.716C58.3476 32.556 59.1276 33.24 60.0396 33.768C60.9756 34.272 62.0796 34.524 63.3516 34.524C64.0236 34.524 64.6836 34.416 65.3316 34.2C66.0036 33.96 66.5556 33.612 66.9876 33.156C67.4196 32.676 67.6356 32.076 67.6356 31.356C67.6356 30.612 67.4196 30.012 66.9876 29.556C66.5556 29.1 65.9916 28.74 65.2956 28.476C64.6236 28.212 63.9036 27.984 63.1356 27.792C62.3196 27.576 61.5276 27.336 60.7596 27.072C59.9916 26.784 59.3076 26.436 58.7076 26.028C58.1316 25.596 57.6636 25.08 57.3036 24.48C56.9436 23.88 56.7636 23.148 56.7636 22.284C56.7636 21.276 57.0396 20.388 57.5916 19.62C58.1436 18.852 58.8876 18.252 59.8236 17.82C60.7836 17.388 61.8636 17.172 63.0636 17.172C63.6636 17.172 64.3116 17.256 65.0076 17.424C65.7036 17.568 66.3876 17.82 67.0596 18.18C67.7316 18.54 68.3316 19.032 68.8596 19.656C69.0756 19.872 69.1836 20.124 69.1836 20.412C69.1836 20.676 69.0636 20.916 68.8236 21.132C68.6316 21.276 68.4036 21.348 68.1396 21.348C67.8996 21.348 67.6956 21.252 67.5276 21.06C66.9516 20.412 66.2676 19.92 65.4756 19.584C64.6836 19.248 63.8316 19.08 62.9196 19.08C62.2236 19.08 61.5636 19.2 60.9396 19.44C60.3396 19.656 59.8356 19.992 59.4276 20.448C59.0196 20.904 58.8156 21.504 58.8156 22.248C58.8636 22.944 59.1036 23.508 59.5356 23.94C59.9916 24.372 60.5796 24.732 61.2996 25.02C62.0436 25.308 62.8716 25.572 63.7836 25.812C64.5516 26.004 65.2836 26.232 65.9796 26.496C66.6996 26.76 67.3236 27.096 67.8516 27.504C68.4036 27.888 68.8356 28.38 69.1476 28.98C69.4836 29.58 69.6516 30.336 69.6516 31.248C69.6516 32.304 69.3516 33.216 68.7516 33.984C68.1756 34.752 67.3956 35.34 66.4116 35.748C65.4276 36.156 64.3356 36.36 63.1356 36.36C61.8396 36.36 60.5796 36.108 59.3556 35.604C58.1556 35.1 57.0876 34.26 56.1516 33.084ZM76.1586 34.92C76.1586 35.208 76.0506 35.46 75.8346 35.676C75.6186 35.892 75.3666 36 75.0786 36C74.7666 36 74.5026 35.892 74.2866 35.676C74.0946 35.46 73.9986 35.208 73.9986 34.92V18.36C73.9986 18.072 74.0946 17.82 74.2866 17.604C74.5026 17.388 74.7666 17.28 75.0786 17.28C75.3906 17.28 75.6426 17.388 75.8346 17.604C76.0506 17.82 76.1586 18.072 76.1586 18.36V34.92ZM75.0786 14.868C74.5746 14.868 74.1906 14.76 73.9266 14.544C73.6866 14.304 73.5666 13.968 73.5666 13.536V13.176C73.5666 12.744 73.6986 12.42 73.9626 12.204C74.2506 11.964 74.6346 11.844 75.1146 11.844C75.5706 11.844 75.9186 11.964 76.1586 12.204C76.4226 12.42 76.5546 12.744 76.5546 13.176V13.536C76.5546 13.968 76.4226 14.304 76.1586 14.544C75.9186 14.76 75.5586 14.868 75.0786 14.868ZM98.9058 26.784C98.9058 28.608 98.5098 30.252 97.7178 31.716C96.9258 33.156 95.8458 34.296 94.4778 35.136C93.1098 35.952 91.5498 36.36 89.7978 36.36C88.0938 36.36 86.5458 35.952 85.1538 35.136C83.7858 34.296 82.6938 33.156 81.8778 31.716C81.0858 30.252 80.6898 28.608 80.6898 26.784C80.6898 24.936 81.0858 23.292 81.8778 21.852C82.6938 20.412 83.7858 19.272 85.1538 18.432C86.5458 17.592 88.0938 17.172 89.7978 17.172C91.5498 17.172 93.1098 17.592 94.4778 18.432C95.8458 19.272 96.9258 20.412 97.7178 21.852C98.5098 23.292 98.9058 24.936 98.9058 26.784ZM96.7458 26.784C96.7458 25.32 96.4458 24.024 95.8458 22.896C95.2458 21.744 94.4178 20.844 93.3618 20.196C92.3298 19.524 91.1418 19.188 89.7978 19.188C88.5018 19.188 87.3258 19.524 86.2698 20.196C85.2138 20.844 84.3738 21.744 83.7498 22.896C83.1498 24.024 82.8498 25.32 82.8498 26.784C82.8498 28.248 83.1498 29.544 83.7498 30.672C84.3738 31.8 85.2138 32.7 86.2698 33.372C87.3258 34.02 88.5018 34.344 89.7978 34.344C91.1418 34.344 92.3298 34.02 93.3618 33.372C94.4178 32.7 95.2458 31.8 95.8458 30.672C96.4458 29.544 96.7458 28.248 96.7458 26.784ZM112.172 17.172C113.756 17.172 115.016 17.496 115.952 18.144C116.912 18.768 117.596 19.632 118.004 20.736C118.436 21.816 118.652 23.016 118.652 24.336V34.92C118.652 35.208 118.544 35.46 118.328 35.676C118.112 35.892 117.86 36 117.572 36C117.236 36 116.972 35.892 116.78 35.676C116.588 35.46 116.492 35.208 116.492 34.92V24.444C116.492 23.484 116.336 22.608 116.024 21.816C115.712 21.024 115.196 20.388 114.476 19.908C113.78 19.428 112.856 19.188 111.704 19.188C110.672 19.188 109.688 19.428 108.752 19.908C107.84 20.388 107.096 21.024 106.52 21.816C105.944 22.608 105.656 23.484 105.656 24.444V34.92C105.656 35.208 105.548 35.46 105.332 35.676C105.116 35.892 104.864 36 104.576 36C104.24 36 103.976 35.892 103.784 35.676C103.592 35.46 103.496 35.208 103.496 34.92V18.792C103.496 18.504 103.592 18.252 103.784 18.036C104 17.82 104.264 17.712 104.576 17.712C104.888 17.712 105.14 17.82 105.332 18.036C105.548 18.252 105.656 18.504 105.656 18.792V21.816L104.828 23.112C104.876 22.344 105.116 21.612 105.548 20.916C106.004 20.196 106.58 19.56 107.276 19.008C107.972 18.432 108.74 17.988 109.58 17.676C110.444 17.34 111.308 17.172 112.172 17.172ZM141.101 36.36C139.397 36.36 137.885 35.964 136.565 35.172C135.245 34.38 134.213 33.36 133.469 32.112C132.749 30.864 132.389 29.544 132.389 28.152C132.389 27.096 132.593 26.076 133.001 25.092C133.433 24.108 134.069 23.232 134.909 22.464C135.773 21.672 136.865 21.048 138.185 20.592L139.733 22.14C137.861 22.572 136.541 23.316 135.773 24.372C135.005 25.428 134.621 26.592 134.621 27.864C134.621 28.944 134.873 29.976 135.377 30.96C135.881 31.92 136.637 32.712 137.645 33.336C138.653 33.96 139.889 34.272 141.353 34.272C142.913 34.272 144.245 34.02 145.349 33.516C146.477 32.988 147.425 32.304 148.193 31.464C148.961 30.6 149.573 29.64 150.029 28.584C150.485 27.504 150.821 26.412 151.037 25.308C151.085 25.068 151.181 24.888 151.325 24.768C151.493 24.624 151.721 24.552 152.009 24.552C152.345 24.552 152.609 24.672 152.801 24.912C152.993 25.152 153.065 25.452 153.017 25.812C152.801 27.108 152.405 28.38 151.829 29.628C151.253 30.876 150.473 32.016 149.489 33.048C148.505 34.056 147.317 34.86 145.925 35.46C144.533 36.06 142.925 36.36 141.101 36.36ZM153.881 35.892C153.761 35.892 153.641 35.88 153.521 35.856C153.425 35.808 153.329 35.76 153.233 35.712C151.769 34.56 150.353 33.456 148.985 32.4C147.641 31.32 146.297 30.156 144.953 28.908C143.633 27.66 142.241 26.22 140.777 24.588C139.937 23.628 139.181 22.692 138.509 21.78C137.837 20.844 137.297 19.932 136.889 19.044C136.481 18.132 136.277 17.232 136.277 16.344C136.277 15.24 136.553 14.244 137.105 13.356C137.657 12.444 138.437 11.736 139.445 11.232C140.453 10.704 141.653 10.44 143.045 10.44C144.773 10.44 146.201 10.764 147.329 11.412C148.457 12.06 149.249 12.828 149.705 13.716C149.729 13.74 149.765 13.824 149.813 13.968C149.861 14.088 149.885 14.232 149.885 14.4C149.885 14.616 149.789 14.82 149.597 15.012C149.429 15.204 149.189 15.3 148.877 15.3C148.685 15.3 148.517 15.264 148.373 15.192C148.253 15.12 148.157 15.024 148.085 14.904C147.605 14.184 146.969 13.596 146.177 13.14C145.409 12.66 144.365 12.42 143.045 12.42C141.581 12.42 140.465 12.792 139.697 13.536C138.929 14.256 138.545 15.192 138.545 16.344C138.545 17.088 138.749 17.88 139.157 18.72C139.565 19.536 140.081 20.364 140.705 21.204C141.353 22.044 142.025 22.86 142.721 23.652C143.681 24.732 144.689 25.788 145.745 26.82C146.825 27.828 147.881 28.776 148.913 29.664C149.969 30.552 150.965 31.356 151.901 32.076C152.837 32.796 153.665 33.432 154.385 33.984C154.553 34.104 154.673 34.236 154.745 34.38C154.817 34.524 154.853 34.692 154.853 34.884C154.853 35.076 154.769 35.292 154.601 35.532C154.433 35.772 154.193 35.892 153.881 35.892ZM187.186 10.764C187.522 10.764 187.786 10.86 187.978 11.052C188.194 11.244 188.302 11.484 188.302 11.772C188.302 11.94 188.266 12.12 188.194 12.312L178.582 35.28C178.462 35.52 178.306 35.7 178.114 35.82C177.922 35.94 177.73 36 177.538 36C177.322 36 177.118 35.94 176.926 35.82C176.734 35.7 176.602 35.532 176.53 35.316L166.954 12.384C166.93 12.312 166.906 12.228 166.882 12.132C166.858 12.036 166.846 11.928 166.846 11.808C166.846 11.496 166.954 11.244 167.17 11.052C167.41 10.86 167.65 10.764 167.89 10.764C168.394 10.764 168.754 11.028 168.97 11.556L177.97 33.084H177.322L186.178 11.484C186.418 11.004 186.754 10.764 187.186 10.764ZM194.459 34.92C194.459 35.208 194.351 35.46 194.135 35.676C193.919 35.892 193.667 36 193.379 36C193.067 36 192.803 35.892 192.587 35.676C192.395 35.46 192.299 35.208 192.299 34.92V18.36C192.299 18.072 192.395 17.82 192.587 17.604C192.803 17.388 193.067 17.28 193.379 17.28C193.691 17.28 193.943 17.388 194.135 17.604C194.351 17.82 194.459 18.072 194.459 18.36V34.92ZM193.379 14.868C192.875 14.868 192.491 14.76 192.227 14.544C191.987 14.304 191.867 13.968 191.867 13.536V13.176C191.867 12.744 191.999 12.42 192.263 12.204C192.551 11.964 192.935 11.844 193.415 11.844C193.871 11.844 194.219 11.964 194.459 12.204C194.723 12.42 194.855 12.744 194.855 13.176V13.536C194.855 13.968 194.723 14.304 194.459 14.544C194.219 14.76 193.859 14.868 193.379 14.868ZM199.027 33.084C198.835 32.796 198.739 32.52 198.739 32.256C198.763 31.968 198.919 31.74 199.207 31.572C199.399 31.404 199.615 31.332 199.855 31.356C200.119 31.38 200.359 31.5 200.575 31.716C201.223 32.556 202.003 33.24 202.915 33.768C203.851 34.272 204.955 34.524 206.227 34.524C206.899 34.524 207.559 34.416 208.207 34.2C208.879 33.96 209.431 33.612 209.863 33.156C210.295 32.676 210.511 32.076 210.511 31.356C210.511 30.612 210.295 30.012 209.863 29.556C209.431 29.1 208.867 28.74 208.171 28.476C207.499 28.212 206.779 27.984 206.011 27.792C205.195 27.576 204.403 27.336 203.635 27.072C202.867 26.784 202.183 26.436 201.583 26.028C201.007 25.596 200.539 25.08 200.179 24.48C199.819 23.88 199.639 23.148 199.639 22.284C199.639 21.276 199.915 20.388 200.467 19.62C201.019 18.852 201.763 18.252 202.699 17.82C203.659 17.388 204.739 17.172 205.939 17.172C206.539 17.172 207.187 17.256 207.883 17.424C208.579 17.568 209.263 17.82 209.935 18.18C210.607 18.54 211.207 19.032 211.735 19.656C211.951 19.872 212.059 20.124 212.059 20.412C212.059 20.676 211.939 20.916 211.699 21.132C211.507 21.276 211.279 21.348 211.015 21.348C210.775 21.348 210.571 21.252 210.403 21.06C209.827 20.412 209.143 19.92 208.351 19.584C207.559 19.248 206.707 19.08 205.795 19.08C205.099 19.08 204.439 19.2 203.815 19.44C203.215 19.656 202.711 19.992 202.303 20.448C201.895 20.904 201.691 21.504 201.691 22.248C201.739 22.944 201.979 23.508 202.411 23.94C202.867 24.372 203.455 24.732 204.175 25.02C204.919 25.308 205.747 25.572 206.659 25.812C207.427 26.004 208.159 26.232 208.855 26.496C209.575 26.76 210.199 27.096 210.727 27.504C211.279 27.888 211.711 28.38 212.023 28.98C212.359 29.58 212.527 30.336 212.527 31.248C212.527 32.304 212.227 33.216 211.627 33.984C211.051 34.752 210.271 35.34 209.287 35.748C208.303 36.156 207.211 36.36 206.011 36.36C204.715 36.36 203.455 36.108 202.231 35.604C201.031 35.1 199.963 34.26 199.027 33.084ZM219.034 34.92C219.034 35.208 218.926 35.46 218.71 35.676C218.494 35.892 218.242 36 217.954 36C217.642 36 217.378 35.892 217.162 35.676C216.97 35.46 216.874 35.208 216.874 34.92V18.36C216.874 18.072 216.97 17.82 217.162 17.604C217.378 17.388 217.642 17.28 217.954 17.28C218.266 17.28 218.518 17.388 218.71 17.604C218.926 17.82 219.034 18.072 219.034 18.36V34.92ZM217.954 14.868C217.45 14.868 217.066 14.76 216.802 14.544C216.562 14.304 216.442 13.968 216.442 13.536V13.176C216.442 12.744 216.574 12.42 216.838 12.204C217.126 11.964 217.51 11.844 217.99 11.844C218.446 11.844 218.794 11.964 219.034 12.204C219.298 12.42 219.43 12.744 219.43 13.176V13.536C219.43 13.968 219.298 14.304 219.034 14.544C218.794 14.76 218.434 14.868 217.954 14.868ZM241.781 26.784C241.781 28.608 241.385 30.252 240.593 31.716C239.801 33.156 238.721 34.296 237.353 35.136C235.985 35.952 234.425 36.36 232.673 36.36C230.969 36.36 229.421 35.952 228.029 35.136C226.661 34.296 225.569 33.156 224.753 31.716C223.961 30.252 223.565 28.608 223.565 26.784C223.565 24.936 223.961 23.292 224.753 21.852C225.569 20.412 226.661 19.272 228.029 18.432C229.421 17.592 230.969 17.172 232.673 17.172C234.425 17.172 235.985 17.592 237.353 18.432C238.721 19.272 239.801 20.412 240.593 21.852C241.385 23.292 241.781 24.936 241.781 26.784ZM239.621 26.784C239.621 25.32 239.321 24.024 238.721 22.896C238.121 21.744 237.293 20.844 236.237 20.196C235.205 19.524 234.017 19.188 232.673 19.188C231.377 19.188 230.201 19.524 229.145 20.196C228.089 20.844 227.249 21.744 226.625 22.896C226.025 24.024 225.725 25.32 225.725 26.784C225.725 28.248 226.025 29.544 226.625 30.672C227.249 31.8 228.089 32.7 229.145 33.372C230.201 34.02 231.377 34.344 232.673 34.344C234.017 34.344 235.205 34.02 236.237 33.372C237.293 32.7 238.121 31.8 238.721 30.672C239.321 29.544 239.621 28.248 239.621 26.784ZM255.047 17.172C256.631 17.172 257.891 17.496 258.827 18.144C259.787 18.768 260.471 19.632 260.879 20.736C261.311 21.816 261.527 23.016 261.527 24.336V34.92C261.527 35.208 261.419 35.46 261.203 35.676C260.987 35.892 260.735 36 260.447 36C260.111 36 259.847 35.892 259.655 35.676C259.463 35.46 259.367 35.208 259.367 34.92V24.444C259.367 23.484 259.211 22.608 258.899 21.816C258.587 21.024 258.071 20.388 257.351 19.908C256.655 19.428 255.731 19.188 254.579 19.188C253.547 19.188 252.563 19.428 251.627 19.908C250.715 20.388 249.971 21.024 249.395 21.816C248.819 22.608 248.531 23.484 248.531 24.444V34.92C248.531 35.208 248.423 35.46 248.207 35.676C247.991 35.892 247.739 36 247.451 36C247.115 36 246.851 35.892 246.659 35.676C246.467 35.46 246.371 35.208 246.371 34.92V18.792C246.371 18.504 246.467 18.252 246.659 18.036C246.875 17.82 247.139 17.712 247.451 17.712C247.763 17.712 248.015 17.82 248.207 18.036C248.423 18.252 248.531 18.504 248.531 18.792V21.816L247.703 23.112C247.751 22.344 247.991 21.612 248.423 20.916C248.879 20.196 249.455 19.56 250.151 19.008C250.847 18.432 251.615 17.988 252.455 17.676C253.319 17.34 254.183 17.172 255.047 17.172Z" fill="white"/>
<path d="M14.004 96.8C16.02 96.8 17.592 97.352 18.72 98.456C19.872 99.536 20.448 101.048 20.448 102.992C20.448 104 20.232 104.96 19.8 105.872C19.368 106.784 18.732 107.528 17.892 108.104C17.052 108.656 16.008 108.968 14.76 109.04L14.616 108.32C15.504 108.32 16.368 108.452 17.208 108.716C18.072 108.956 18.84 109.352 19.512 109.904C20.184 110.456 20.724 111.152 21.132 111.992C21.54 112.808 21.744 113.804 21.744 114.98C21.744 116.228 21.528 117.308 21.096 118.22C20.688 119.108 20.124 119.828 19.404 120.38C18.708 120.932 17.904 121.34 16.992 121.604C16.08 121.868 15.132 122 14.148 122H4.464C4.176 122 3.924 121.892 3.708 121.676C3.492 121.46 3.384 121.208 3.384 120.92V97.88C3.384 97.592 3.492 97.34 3.708 97.124C3.924 96.908 4.176 96.8 4.464 96.8H14.004ZM13.716 98.924H5.256L5.688 98.276V108.464L5.292 107.924H13.716C14.964 107.9 16.008 107.492 16.848 106.7C17.712 105.908 18.144 104.732 18.144 103.172C18.144 101.852 17.76 100.82 16.992 100.076C16.224 99.308 15.132 98.924 13.716 98.924ZM13.968 110.084H5.508L5.688 109.868V120.2L5.472 119.876H14.04C15.576 119.876 16.86 119.492 17.892 118.724C18.924 117.932 19.44 116.684 19.44 114.98C19.44 113.78 19.188 112.82 18.684 112.1C18.18 111.38 17.508 110.864 16.668 110.552C15.828 110.24 14.928 110.084 13.968 110.084ZM34.5741 122.36C32.7261 122.36 31.0941 121.964 29.6781 121.172C28.2621 120.38 27.1581 119.276 26.3661 117.86C25.5741 116.444 25.1781 114.788 25.1781 112.892C25.1781 110.852 25.5741 109.112 26.3661 107.672C27.1821 106.232 28.2261 105.128 29.4981 104.36C30.7941 103.568 32.1621 103.172 33.6021 103.172C34.6581 103.172 35.6781 103.364 36.6621 103.748C37.6701 104.108 38.5581 104.66 39.3261 105.404C40.1181 106.124 40.7421 107.012 41.1981 108.068C41.6781 109.124 41.9421 110.348 41.9901 111.74C41.9661 112.028 41.8461 112.28 41.6301 112.496C41.4141 112.688 41.1621 112.784 40.8741 112.784H26.4381L26.0061 110.84H40.1901L39.7221 111.272V110.552C39.6261 109.424 39.2661 108.464 38.6421 107.672C38.0181 106.88 37.2621 106.28 36.3741 105.872C35.4861 105.464 34.5621 105.26 33.6021 105.26C32.8821 105.26 32.1381 105.404 31.3701 105.692C30.6261 105.98 29.9421 106.436 29.3181 107.06C28.7181 107.66 28.2261 108.44 27.8421 109.4C27.4581 110.336 27.2661 111.452 27.2661 112.748C27.2661 114.164 27.5541 115.448 28.1301 116.6C28.7061 117.752 29.5341 118.664 30.6141 119.336C31.7181 120.008 33.0261 120.344 34.5381 120.344C35.3781 120.344 36.1341 120.224 36.8061 119.984C37.4781 119.744 38.0661 119.432 38.5701 119.048C39.0741 118.64 39.4941 118.22 39.8301 117.788C40.0941 117.572 40.3581 117.464 40.6221 117.464C40.8621 117.464 41.0661 117.56 41.2341 117.752C41.4261 117.944 41.5221 118.16 41.5221 118.4C41.5221 118.688 41.4021 118.94 41.1621 119.156C40.4421 120.02 39.5061 120.776 38.3541 121.424C37.2021 122.048 35.9421 122.36 34.5741 122.36ZM55.2895 103.172C56.8735 103.172 58.1335 103.496 59.0695 104.144C60.0295 104.768 60.7135 105.632 61.1215 106.736C61.5535 107.816 61.7695 109.016 61.7695 110.336V120.92C61.7695 121.208 61.6615 121.46 61.4455 121.676C61.2295 121.892 60.9775 122 60.6895 122C60.3535 122 60.0895 121.892 59.8975 121.676C59.7055 121.46 59.6095 121.208 59.6095 120.92V110.444C59.6095 109.484 59.4535 108.608 59.1415 107.816C58.8295 107.024 58.3135 106.388 57.5935 105.908C56.8975 105.428 55.9735 105.188 54.8215 105.188C53.7895 105.188 52.8055 105.428 51.8695 105.908C50.9575 106.388 50.2135 107.024 49.6375 107.816C49.0615 108.608 48.7735 109.484 48.7735 110.444V120.92C48.7735 121.208 48.6655 121.46 48.4495 121.676C48.2335 121.892 47.9815 122 47.6935 122C47.3575 122 47.0935 121.892 46.9015 121.676C46.7095 121.46 46.6135 121.208 46.6135 120.92V104.792C46.6135 104.504 46.7095 104.252 46.9015 104.036C47.1175 103.82 47.3815 103.712 47.6935 103.712C48.0055 103.712 48.2575 103.82 48.4495 104.036C48.6655 104.252 48.7735 104.504 48.7735 104.792V107.816L47.9455 109.112C47.9935 108.344 48.2335 107.612 48.6655 106.916C49.1215 106.196 49.6975 105.56 50.3935 105.008C51.0895 104.432 51.8575 103.988 52.6975 103.676C53.5615 103.34 54.4255 103.172 55.2895 103.172ZM75.742 122.36C73.894 122.36 72.262 121.964 70.846 121.172C69.43 120.38 68.326 119.276 67.534 117.86C66.742 116.444 66.346 114.788 66.346 112.892C66.346 110.852 66.742 109.112 67.534 107.672C68.35 106.232 69.394 105.128 70.666 104.36C71.962 103.568 73.33 103.172 74.77 103.172C75.826 103.172 76.846 103.364 77.83 103.748C78.838 104.108 79.726 104.66 80.494 105.404C81.286 106.124 81.91 107.012 82.366 108.068C82.846 109.124 83.11 110.348 83.158 111.74C83.134 112.028 83.014 112.28 82.798 112.496C82.582 112.688 82.33 112.784 82.042 112.784H67.606L67.174 110.84H81.358L80.89 111.272V110.552C80.794 109.424 80.434 108.464 79.81 107.672C79.186 106.88 78.43 106.28 77.542 105.872C76.654 105.464 75.73 105.26 74.77 105.26C74.05 105.26 73.306 105.404 72.538 105.692C71.794 105.98 71.11 106.436 70.486 107.06C69.886 107.66 69.394 108.44 69.01 109.4C68.626 110.336 68.434 111.452 68.434 112.748C68.434 114.164 68.722 115.448 69.298 116.6C69.874 117.752 70.702 118.664 71.782 119.336C72.886 120.008 74.194 120.344 75.706 120.344C76.546 120.344 77.302 120.224 77.974 119.984C78.646 119.744 79.234 119.432 79.738 119.048C80.242 118.64 80.662 118.22 80.998 117.788C81.262 117.572 81.526 117.464 81.79 117.464C82.03 117.464 82.234 117.56 82.402 117.752C82.594 117.944 82.69 118.16 82.69 118.4C82.69 118.688 82.57 118.94 82.33 119.156C81.61 120.02 80.674 120.776 79.522 121.424C78.37 122.048 77.11 122.36 75.742 122.36ZM94.4415 95.504C94.8015 95.504 95.1855 95.54 95.5935 95.612C96.0255 95.684 96.3975 95.816 96.7095 96.008C97.0215 96.176 97.1775 96.44 97.1775 96.8C97.1775 97.064 97.0815 97.304 96.8895 97.52C96.6975 97.712 96.4815 97.808 96.2415 97.808C96.0015 97.808 95.7015 97.748 95.3415 97.628C94.9815 97.484 94.5975 97.412 94.1895 97.412C93.6855 97.412 93.2535 97.532 92.8935 97.772C92.5335 97.988 92.2575 98.312 92.0655 98.744C91.8735 99.152 91.7775 99.656 91.7775 100.256V120.92C91.7775 121.208 91.6695 121.46 91.4535 121.676C91.2615 121.892 91.0095 122 90.6975 122C90.3855 122 90.1215 121.892 89.9055 121.676C89.7135 121.46 89.6175 121.208 89.6175 120.92V100.256C89.6175 98.72 90.0615 97.544 90.9495 96.728C91.8615 95.912 93.0255 95.504 94.4415 95.504ZM95.8095 103.964C96.0975 103.964 96.3375 104.06 96.5295 104.252C96.7215 104.444 96.8175 104.684 96.8175 104.972C96.8175 105.26 96.7215 105.5 96.5295 105.692C96.3375 105.884 96.0975 105.98 95.8095 105.98H86.9895C86.7255 105.98 86.4855 105.884 86.2695 105.692C86.0775 105.476 85.9815 105.236 85.9815 104.972C85.9815 104.66 86.0775 104.42 86.2695 104.252C86.4855 104.06 86.7255 103.964 86.9895 103.964H95.8095ZM102.83 120.92C102.83 121.208 102.722 121.46 102.506 121.676C102.29 121.892 102.038 122 101.75 122C101.438 122 101.174 121.892 100.958 121.676C100.766 121.46 100.67 121.208 100.67 120.92V104.36C100.67 104.072 100.766 103.82 100.958 103.604C101.174 103.388 101.438 103.28 101.75 103.28C102.062 103.28 102.314 103.388 102.506 103.604C102.722 103.82 102.83 104.072 102.83 104.36V120.92ZM101.75 100.868C101.246 100.868 100.862 100.76 100.598 100.544C100.358 100.304 100.238 99.968 100.238 99.536V99.176C100.238 98.744 100.37 98.42 100.634 98.204C100.922 97.964 101.306 97.844 101.786 97.844C102.242 97.844 102.59 97.964 102.83 98.204C103.094 98.42 103.226 98.744 103.226 99.176V99.536C103.226 99.968 103.094 100.304 102.83 100.544C102.59 100.76 102.23 100.868 101.75 100.868ZM107.23 103.676H115.618C115.906 103.676 116.146 103.784 116.338 104C116.53 104.192 116.626 104.432 116.626 104.72C116.626 104.984 116.53 105.212 116.338 105.404C116.146 105.596 115.906 105.692 115.618 105.692H107.23C106.942 105.692 106.69 105.596 106.474 105.404C106.282 105.188 106.186 104.948 106.186 104.684C106.186 104.396 106.282 104.156 106.474 103.964C106.69 103.772 106.942 103.676 107.23 103.676ZM110.938 98.6C111.25 98.6 111.502 98.708 111.694 98.924C111.91 99.14 112.018 99.392 112.018 99.68V117.752C112.018 118.424 112.102 118.928 112.27 119.264C112.462 119.6 112.702 119.828 112.99 119.948C113.278 120.044 113.566 120.092 113.854 120.092C114.046 120.092 114.214 120.068 114.358 120.02C114.526 119.948 114.706 119.912 114.898 119.912C115.114 119.912 115.294 119.996 115.438 120.164C115.606 120.332 115.69 120.548 115.69 120.812C115.69 121.148 115.498 121.436 115.114 121.676C114.73 121.892 114.274 122 113.746 122C113.53 122 113.206 121.988 112.774 121.964C112.342 121.916 111.898 121.784 111.442 121.568C110.986 121.328 110.602 120.92 110.29 120.344C110.002 119.768 109.858 118.94 109.858 117.86V99.68C109.858 99.392 109.954 99.14 110.146 98.924C110.362 98.708 110.626 98.6 110.938 98.6ZM120.277 119.084C120.085 118.796 119.989 118.52 119.989 118.256C120.013 117.968 120.169 117.74 120.457 117.572C120.649 117.404 120.865 117.332 121.105 117.356C121.369 117.38 121.609 117.5 121.825 117.716C122.473 118.556 123.253 119.24 124.165 119.768C125.101 120.272 126.205 120.524 127.477 120.524C128.149 120.524 128.809 120.416 129.457 120.2C130.129 119.96 130.681 119.612 131.113 119.156C131.545 118.676 131.761 118.076 131.761 117.356C131.761 116.612 131.545 116.012 131.113 115.556C130.681 115.1 130.117 114.74 129.421 114.476C128.749 114.212 128.029 113.984 127.261 113.792C126.445 113.576 125.653 113.336 124.885 113.072C124.117 112.784 123.433 112.436 122.833 112.028C122.257 111.596 121.789 111.08 121.429 110.48C121.069 109.88 120.889 109.148 120.889 108.284C120.889 107.276 121.165 106.388 121.717 105.62C122.269 104.852 123.013 104.252 123.949 103.82C124.909 103.388 125.989 103.172 127.189 103.172C127.789 103.172 128.437 103.256 129.133 103.424C129.829 103.568 130.513 103.82 131.185 104.18C131.857 104.54 132.457 105.032 132.985 105.656C133.201 105.872 133.309 106.124 133.309 106.412C133.309 106.676 133.189 106.916 132.949 107.132C132.757 107.276 132.529 107.348 132.265 107.348C132.025 107.348 131.821 107.252 131.653 107.06C131.077 106.412 130.393 105.92 129.601 105.584C128.809 105.248 127.957 105.08 127.045 105.08C126.349 105.08 125.689 105.2 125.065 105.44C124.465 105.656 123.961 105.992 123.553 106.448C123.145 106.904 122.941 107.504 122.941 108.248C122.989 108.944 123.229 109.508 123.661 109.94C124.117 110.372 124.705 110.732 125.425 111.02C126.169 111.308 126.997 111.572 127.909 111.812C128.677 112.004 129.409 112.232 130.105 112.496C130.825 112.76 131.449 113.096 131.977 113.504C132.529 113.888 132.961 114.38 133.273 114.98C133.609 115.58 133.777 116.336 133.777 117.248C133.777 118.304 133.477 119.216 132.877 119.984C132.301 120.752 131.521 121.34 130.537 121.748C129.553 122.156 128.461 122.36 127.261 122.36C125.965 122.36 124.705 122.108 123.481 121.604C122.281 121.1 121.213 120.26 120.277 119.084Z" fill="white"/>
<path d="M11.808 185.572L3.06 207.316C2.964 207.556 2.832 207.736 2.664 207.856C2.496 207.976 2.304 208.036 2.088 208.036C1.752 208.036 1.5 207.952 1.332 207.784C1.164 207.592 1.068 207.364 1.044 207.1C1.02 206.98 1.032 206.836 1.08 206.668L10.584 183.412C10.704 183.148 10.848 182.968 11.016 182.872C11.208 182.752 11.424 182.692 11.664 182.692C11.904 182.692 12.108 182.764 12.276 182.908C12.468 183.028 12.612 183.196 12.708 183.412L22.176 206.56C22.224 206.704 22.248 206.848 22.248 206.992C22.248 207.328 22.14 207.592 21.924 207.784C21.708 207.952 21.456 208.036 21.168 208.036C20.928 208.036 20.712 207.976 20.52 207.856C20.352 207.712 20.22 207.532 20.124 207.316L11.16 185.428L11.808 185.572ZM5.148 200.728L6.048 198.604H17.208L17.64 200.728H5.148ZM34.9006 189.172C36.5326 189.172 37.9726 189.58 39.2206 190.396C40.4926 191.212 41.5006 192.34 42.2446 193.78C42.9886 195.196 43.3606 196.84 43.3606 198.712C43.3606 200.536 42.9886 202.18 42.2446 203.644C41.5006 205.108 40.4926 206.26 39.2206 207.1C37.9486 207.94 36.5206 208.36 34.9366 208.36C34.0966 208.36 33.2926 208.228 32.5246 207.964C31.7806 207.7 31.0966 207.352 30.4726 206.92C29.8486 206.464 29.2966 205.936 28.8166 205.336C28.3366 204.736 27.9526 204.088 27.6646 203.392L28.3126 202.924V206.992C28.3126 207.304 28.2046 207.568 27.9886 207.784C27.7966 207.976 27.5446 208.072 27.2326 208.072C26.9206 208.072 26.6566 207.976 26.4406 207.784C26.2486 207.568 26.1526 207.304 26.1526 206.992V182.476C26.1526 182.164 26.2486 181.912 26.4406 181.72C26.6326 181.504 26.8966 181.396 27.2326 181.396C27.5446 181.396 27.7966 181.504 27.9886 181.72C28.2046 181.912 28.3126 182.164 28.3126 182.476V194.536L27.8086 194.248C28.0486 193.504 28.3966 192.832 28.8526 192.232C29.3326 191.608 29.8846 191.068 30.5086 190.612C31.1326 190.156 31.8166 189.808 32.5606 189.568C33.3046 189.304 34.0846 189.172 34.9006 189.172ZM34.7206 191.188C33.4246 191.188 32.2846 191.512 31.3006 192.16C30.3166 192.808 29.5366 193.696 28.9606 194.824C28.4086 195.952 28.1326 197.248 28.1326 198.712C28.1326 200.152 28.4086 201.46 28.9606 202.636C29.5366 203.788 30.3166 204.7 31.3006 205.372C32.2846 206.02 33.4246 206.344 34.7206 206.344C35.9926 206.344 37.1086 206.008 38.0686 205.336C39.0526 204.664 39.8326 203.752 40.4086 202.6C40.9846 201.424 41.2726 200.128 41.2726 198.712C41.2726 197.248 40.9846 195.952 40.4086 194.824C39.8326 193.696 39.0526 192.808 38.0686 192.16C37.1086 191.512 35.9926 191.188 34.7206 191.188ZM65.1206 198.784C65.1206 200.608 64.7246 202.252 63.9326 203.716C63.1406 205.156 62.0606 206.296 60.6926 207.136C59.3246 207.952 57.7646 208.36 56.0126 208.36C54.3086 208.36 52.7606 207.952 51.3686 207.136C50.0006 206.296 48.9086 205.156 48.0926 203.716C47.3006 202.252 46.9046 200.608 46.9046 198.784C46.9046 196.936 47.3006 195.292 48.0926 193.852C48.9086 192.412 50.0006 191.272 51.3686 190.432C52.7606 189.592 54.3086 189.172 56.0126 189.172C57.7646 189.172 59.3246 189.592 60.6926 190.432C62.0606 191.272 63.1406 192.412 63.9326 193.852C64.7246 195.292 65.1206 196.936 65.1206 198.784ZM62.9606 198.784C62.9606 197.32 62.6606 196.024 62.0606 194.896C61.4606 193.744 60.6326 192.844 59.5766 192.196C58.5446 191.524 57.3566 191.188 56.0126 191.188C54.7166 191.188 53.5406 191.524 52.4846 192.196C51.4286 192.844 50.5886 193.744 49.9646 194.896C49.3646 196.024 49.0646 197.32 49.0646 198.784C49.0646 200.248 49.3646 201.544 49.9646 202.672C50.5886 203.8 51.4286 204.7 52.4846 205.372C53.5406 206.02 54.7166 206.344 56.0126 206.344C57.3566 206.344 58.5446 206.02 59.5766 205.372C60.6326 204.7 61.4606 203.8 62.0606 202.672C62.6606 201.544 62.9606 200.248 62.9606 198.784ZM83.4632 189.712C83.7752 189.712 84.0272 189.82 84.2192 190.036C84.4352 190.252 84.5432 190.504 84.5432 190.792V200.944C84.5432 203.32 83.8712 205.132 82.5272 206.38C81.1832 207.628 79.3712 208.252 77.0912 208.252C74.8352 208.252 73.0352 207.628 71.6912 206.38C70.3712 205.132 69.7112 203.32 69.7112 200.944V190.792C69.7112 190.504 69.8072 190.252 69.9992 190.036C70.2152 189.82 70.4792 189.712 70.7912 189.712C71.1032 189.712 71.3552 189.82 71.5472 190.036C71.7632 190.252 71.8712 190.504 71.8712 190.792V200.944C71.8712 202.672 72.3272 203.992 73.2392 204.904C74.1752 205.792 75.4592 206.236 77.0912 206.236C78.7472 206.236 80.0432 205.792 80.9792 204.904C81.9152 203.992 82.3832 202.672 82.3832 200.944V190.792C82.3832 190.504 82.4792 190.252 82.6712 190.036C82.8632 189.82 83.1272 189.712 83.4632 189.712ZM89.0193 189.676H97.4073C97.6953 189.676 97.9353 189.784 98.1273 190C98.3193 190.192 98.4153 190.432 98.4153 190.72C98.4153 190.984 98.3193 191.212 98.1273 191.404C97.9353 191.596 97.6953 191.692 97.4073 191.692H89.0193C88.7313 191.692 88.4793 191.596 88.2633 191.404C88.0713 191.188 87.9753 190.948 87.9753 190.684C87.9753 190.396 88.0713 190.156 88.2633 189.964C88.4793 189.772 88.7313 189.676 89.0193 189.676ZM92.7273 184.6C93.0393 184.6 93.2913 184.708 93.4833 184.924C93.6993 185.14 93.8073 185.392 93.8073 185.68V203.752C93.8073 204.424 93.8913 204.928 94.0593 205.264C94.2513 205.6 94.4913 205.828 94.7793 205.948C95.0673 206.044 95.3553 206.092 95.6433 206.092C95.8353 206.092 96.0033 206.068 96.1473 206.02C96.3153 205.948 96.4953 205.912 96.6873 205.912C96.9033 205.912 97.0833 205.996 97.2273 206.164C97.3953 206.332 97.4793 206.548 97.4793 206.812C97.4793 207.148 97.2873 207.436 96.9033 207.676C96.5193 207.892 96.0633 208 95.5353 208C95.3193 208 94.9953 207.988 94.5633 207.964C94.1313 207.916 93.6873 207.784 93.2313 207.568C92.7753 207.328 92.3913 206.92 92.0793 206.344C91.7913 205.768 91.6473 204.94 91.6473 203.86V185.68C91.6473 185.392 91.7433 185.14 91.9353 184.924C92.1513 184.708 92.4153 184.6 92.7273 184.6ZM130.61 182.8C130.946 182.8 131.21 182.908 131.402 183.124C131.594 183.316 131.69 183.568 131.69 183.88V198.784C131.69 200.56 131.27 202.168 130.43 203.608C129.59 205.048 128.462 206.2 127.046 207.064C125.63 207.904 124.034 208.324 122.258 208.324C120.482 208.324 118.874 207.904 117.434 207.064C116.018 206.2 114.89 205.048 114.05 203.608C113.21 202.168 112.79 200.56 112.79 198.784V183.88C112.79 183.568 112.886 183.316 113.078 183.124C113.294 182.908 113.582 182.8 113.942 182.8C114.23 182.8 114.482 182.908 114.698 183.124C114.914 183.316 115.022 183.568 115.022 183.88V198.784C115.022 200.176 115.346 201.424 115.994 202.528C116.666 203.632 117.554 204.52 118.658 205.192C119.762 205.84 120.962 206.164 122.258 206.164C123.602 206.164 124.826 205.84 125.93 205.192C127.034 204.52 127.91 203.632 128.558 202.528C129.23 201.424 129.566 200.176 129.566 198.784V183.88C129.566 183.568 129.662 183.316 129.854 183.124C130.046 182.908 130.298 182.8 130.61 182.8ZM136.87 205.084C136.678 204.796 136.582 204.52 136.582 204.256C136.606 203.968 136.762 203.74 137.05 203.572C137.242 203.404 137.458 203.332 137.698 203.356C137.962 203.38 138.202 203.5 138.418 203.716C139.066 204.556 139.846 205.24 140.758 205.768C141.694 206.272 142.798 206.524 144.07 206.524C144.742 206.524 145.402 206.416 146.05 206.2C146.722 205.96 147.274 205.612 147.706 205.156C148.138 204.676 148.354 204.076 148.354 203.356C148.354 202.612 148.138 202.012 147.706 201.556C147.274 201.1 146.71 200.74 146.014 200.476C145.342 200.212 144.622 199.984 143.854 199.792C143.038 199.576 142.246 199.336 141.478 199.072C140.71 198.784 140.026 198.436 139.426 198.028C138.85 197.596 138.382 197.08 138.022 196.48C137.662 195.88 137.482 195.148 137.482 194.284C137.482 193.276 137.758 192.388 138.31 191.62C138.862 190.852 139.606 190.252 140.542 189.82C141.502 189.388 142.582 189.172 143.782 189.172C144.382 189.172 145.03 189.256 145.726 189.424C146.422 189.568 147.106 189.82 147.778 190.18C148.45 190.54 149.05 191.032 149.578 191.656C149.794 191.872 149.902 192.124 149.902 192.412C149.902 192.676 149.782 192.916 149.542 193.132C149.35 193.276 149.122 193.348 148.858 193.348C148.618 193.348 148.414 193.252 148.246 193.06C147.67 192.412 146.986 191.92 146.194 191.584C145.402 191.248 144.55 191.08 143.638 191.08C142.942 191.08 142.282 191.2 141.658 191.44C141.058 191.656 140.554 191.992 140.146 192.448C139.738 192.904 139.534 193.504 139.534 194.248C139.582 194.944 139.822 195.508 140.254 195.94C140.71 196.372 141.298 196.732 142.018 197.02C142.762 197.308 143.59 197.572 144.502 197.812C145.27 198.004 146.002 198.232 146.698 198.496C147.418 198.76 148.042 199.096 148.57 199.504C149.122 199.888 149.554 200.38 149.866 200.98C150.202 201.58 150.37 202.336 150.37 203.248C150.37 204.304 150.07 205.216 149.47 205.984C148.894 206.752 148.114 207.34 147.13 207.748C146.146 208.156 145.054 208.36 143.854 208.36C142.558 208.36 141.298 208.108 140.074 207.604C138.874 207.1 137.806 206.26 136.87 205.084Z" fill="white"/>
</svg>
