<svg width="738" height="46" viewBox="0 0 738 46" fill="none" xmlns="http://www.w3.org/2000/svg">
<path d="M5.12194 10.8C5.40994 10.8 5.66194 10.908 5.87794 11.124C6.11794 11.34 6.23794 11.604 6.23794 11.916V34.884C6.21394 35.196 6.08194 35.46 5.84194 35.676C5.62594 35.892 5.37394 36 5.08594 36C4.74994 36 4.47394 35.892 4.25794 35.676C4.06594 35.46 3.96994 35.196 3.96994 34.884V11.916C3.96994 11.604 4.07794 11.34 4.29394 11.124C4.50994 10.908 4.78594 10.8 5.12194 10.8ZM22.0059 10.8C22.3419 10.8 22.6059 10.908 22.7979 11.124C23.0139 11.34 23.1219 11.604 23.1219 11.916V34.884C23.0979 35.196 22.9779 35.46 22.7619 35.676C22.5699 35.892 22.3059 36 21.9699 36C21.6579 36 21.3939 35.892 21.1779 35.676C20.9619 35.46 20.8539 35.196 20.8539 34.884V11.916C20.8539 11.604 20.9619 11.34 21.1779 11.124C21.4179 10.908 21.6939 10.8 22.0059 10.8ZM4.94194 22.068H22.0419L22.0059 24.156H4.79794L4.94194 22.068ZM46.4761 26.784C46.4761 28.608 46.0801 30.252 45.2881 31.716C44.4961 33.156 43.4161 34.296 42.0481 35.136C40.6801 35.952 39.1201 36.36 37.3681 36.36C35.6641 36.36 34.1161 35.952 32.7241 35.136C31.3561 34.296 30.2641 33.156 29.4481 31.716C28.6561 30.252 28.2601 28.608 28.2601 26.784C28.2601 24.936 28.6561 23.292 29.4481 21.852C30.2641 20.412 31.3561 19.272 32.7241 18.432C34.1161 17.592 35.6641 17.172 37.3681 17.172C39.1201 17.172 40.6801 17.592 42.0481 18.432C43.4161 19.272 44.4961 20.412 45.2881 21.852C46.0801 23.292 46.4761 24.936 46.4761 26.784ZM44.3161 26.784C44.3161 25.32 44.0161 24.024 43.4161 22.896C42.8161 21.744 41.9881 20.844 40.9321 20.196C39.9001 19.524 38.7121 19.188 37.3681 19.188C36.0721 19.188 34.8961 19.524 33.8401 20.196C32.7841 20.844 31.9441 21.744 31.3201 22.896C30.7201 24.024 30.4201 25.32 30.4201 26.784C30.4201 28.248 30.7201 29.544 31.3201 30.672C31.9441 31.8 32.7841 32.7 33.8401 33.372C34.8961 34.02 36.0721 34.344 37.3681 34.344C38.7121 34.344 39.9001 34.02 40.9321 33.372C41.9881 32.7 42.8161 31.8 43.4161 30.672C44.0161 29.544 44.3161 28.248 44.3161 26.784ZM59.3467 17.46C60.8347 17.46 62.1067 17.856 63.1627 18.648C64.2187 19.416 64.9387 20.568 65.3227 22.104L64.8187 22.248L65.0347 21.6C65.3467 20.88 65.8627 20.208 66.5827 19.584C67.3267 18.936 68.1667 18.42 69.1027 18.036C70.0387 17.652 70.9867 17.46 71.9467 17.46C73.4587 17.46 74.6707 17.784 75.5827 18.432C76.5187 19.08 77.1907 19.956 77.5987 21.06C78.0307 22.14 78.2467 23.364 78.2467 24.732V34.92C78.2467 35.208 78.1387 35.46 77.9227 35.676C77.7307 35.892 77.4787 36 77.1667 36C76.8547 36 76.5907 35.892 76.3747 35.676C76.1827 35.46 76.0867 35.208 76.0867 34.92V24.84C76.0867 23.856 75.9307 22.956 75.6187 22.14C75.3067 21.324 74.8147 20.676 74.1427 20.196C73.4707 19.716 72.5707 19.476 71.4427 19.476C70.4587 19.476 69.5107 19.716 68.5987 20.196C67.7107 20.676 66.9787 21.324 66.4027 22.14C65.8507 22.956 65.5747 23.856 65.5747 24.84V34.92C65.5747 35.208 65.4667 35.46 65.2507 35.676C65.0587 35.892 64.8067 36 64.4947 36C64.1827 36 63.9187 35.892 63.7027 35.676C63.5107 35.46 63.4147 35.208 63.4147 34.92V24.732C63.4147 23.748 63.2707 22.86 62.9827 22.068C62.6947 21.276 62.2267 20.652 61.5787 20.196C60.9307 19.716 60.0547 19.476 58.9507 19.476C57.9667 19.476 57.0307 19.716 56.1427 20.196C55.2787 20.652 54.5707 21.276 54.0187 22.068C53.4907 22.86 53.2267 23.748 53.2267 24.732V34.92C53.2267 35.208 53.1187 35.46 52.9027 35.676C52.6867 35.892 52.4347 36 52.1467 36C51.8107 36 51.5467 35.892 51.3547 35.676C51.1627 35.46 51.0667 35.208 51.0667 34.92V18.792C51.0667 18.504 51.1627 18.252 51.3547 18.036C51.5707 17.82 51.8347 17.712 52.1467 17.712C52.4587 17.712 52.7107 17.82 52.9027 18.036C53.1187 18.252 53.2267 18.504 53.2267 18.792V22.14L52.2547 23.472C52.3267 22.752 52.5547 22.032 52.9387 21.312C53.3467 20.592 53.8747 19.944 54.5227 19.368C55.1707 18.792 55.9027 18.336 56.7187 18C57.5587 17.64 58.4347 17.46 59.3467 17.46ZM92.2186 36.36C90.3706 36.36 88.7386 35.964 87.3226 35.172C85.9066 34.38 84.8026 33.276 84.0106 31.86C83.2186 30.444 82.8226 28.788 82.8226 26.892C82.8226 24.852 83.2186 23.112 84.0106 21.672C84.8266 20.232 85.8706 19.128 87.1426 18.36C88.4386 17.568 89.8066 17.172 91.2466 17.172C92.3026 17.172 93.3226 17.364 94.3066 17.748C95.3146 18.108 96.2026 18.66 96.9706 19.404C97.7626 20.124 98.3866 21.012 98.8426 22.068C99.3226 23.124 99.5866 24.348 99.6346 25.74C99.6106 26.028 99.4906 26.28 99.2746 26.496C99.0586 26.688 98.8066 26.784 98.5186 26.784H84.0826L83.6506 24.84H97.8346L97.3666 25.272V24.552C97.2706 23.424 96.9106 22.464 96.2866 21.672C95.6626 20.88 94.9066 20.28 94.0186 19.872C93.1306 19.464 92.2066 19.26 91.2466 19.26C90.5266 19.26 89.7826 19.404 89.0146 19.692C88.2706 19.98 87.5866 20.436 86.9626 21.06C86.3626 21.66 85.8706 22.44 85.4866 23.4C85.1026 24.336 84.9106 25.452 84.9106 26.748C84.9106 28.164 85.1986 29.448 85.7746 30.6C86.3506 31.752 87.1786 32.664 88.2586 33.336C89.3626 34.008 90.6706 34.344 92.1826 34.344C93.0226 34.344 93.7786 34.224 94.4506 33.984C95.1226 33.744 95.7106 33.432 96.2146 33.048C96.7186 32.64 97.1386 32.22 97.4746 31.788C97.7386 31.572 98.0026 31.464 98.2666 31.464C98.5066 31.464 98.7106 31.56 98.8786 31.752C99.0706 31.944 99.1666 32.16 99.1666 32.4C99.1666 32.688 99.0466 32.94 98.8066 33.156C98.0866 34.02 97.1506 34.776 95.9986 35.424C94.8466 36.048 93.5866 36.36 92.2186 36.36Z" fill="white"/>
<path d="M300.328 10.8C302.344 10.8 303.916 11.352 305.044 12.456C306.196 13.536 306.772 15.048 306.772 16.992C306.772 18 306.556 18.96 306.124 19.872C305.692 20.784 305.056 21.528 304.216 22.104C303.376 22.656 302.332 22.968 301.084 23.04L300.94 22.32C301.828 22.32 302.692 22.452 303.532 22.716C304.396 22.956 305.164 23.352 305.836 23.904C306.508 24.456 307.048 25.152 307.456 25.992C307.864 26.808 308.068 27.804 308.068 28.98C308.068 30.228 307.852 31.308 307.42 32.22C307.012 33.108 306.448 33.828 305.728 34.38C305.032 34.932 304.228 35.34 303.316 35.604C302.404 35.868 301.456 36 300.472 36H290.788C290.5 36 290.248 35.892 290.032 35.676C289.816 35.46 289.708 35.208 289.708 34.92V11.88C289.708 11.592 289.816 11.34 290.032 11.124C290.248 10.908 290.5 10.8 290.788 10.8H300.328ZM300.04 12.924H291.58L292.012 12.276V22.464L291.616 21.924H300.04C301.288 21.9 302.332 21.492 303.172 20.7C304.036 19.908 304.468 18.732 304.468 17.172C304.468 15.852 304.084 14.82 303.316 14.076C302.548 13.308 301.456 12.924 300.04 12.924ZM300.292 24.084H291.832L292.012 23.868V34.2L291.796 33.876H300.364C301.9 33.876 303.184 33.492 304.216 32.724C305.248 31.932 305.764 30.684 305.764 28.98C305.764 27.78 305.512 26.82 305.008 26.1C304.504 25.38 303.832 24.864 302.992 24.552C302.152 24.24 301.252 24.084 300.292 24.084ZM320.898 36.36C319.05 36.36 317.418 35.964 316.002 35.172C314.586 34.38 313.482 33.276 312.69 31.86C311.898 30.444 311.502 28.788 311.502 26.892C311.502 24.852 311.898 23.112 312.69 21.672C313.506 20.232 314.55 19.128 315.822 18.36C317.118 17.568 318.486 17.172 319.926 17.172C320.982 17.172 322.002 17.364 322.986 17.748C323.994 18.108 324.882 18.66 325.65 19.404C326.442 20.124 327.066 21.012 327.522 22.068C328.002 23.124 328.266 24.348 328.314 25.74C328.29 26.028 328.17 26.28 327.954 26.496C327.738 26.688 327.486 26.784 327.198 26.784H312.762L312.33 24.84H326.514L326.046 25.272V24.552C325.95 23.424 325.59 22.464 324.966 21.672C324.342 20.88 323.586 20.28 322.698 19.872C321.81 19.464 320.886 19.26 319.926 19.26C319.206 19.26 318.462 19.404 317.694 19.692C316.95 19.98 316.266 20.436 315.642 21.06C315.042 21.66 314.55 22.44 314.166 23.4C313.782 24.336 313.59 25.452 313.59 26.748C313.59 28.164 313.878 29.448 314.454 30.6C315.03 31.752 315.858 32.664 316.938 33.336C318.042 34.008 319.35 34.344 320.862 34.344C321.702 34.344 322.458 34.224 323.13 33.984C323.802 33.744 324.39 33.432 324.894 33.048C325.398 32.64 325.818 32.22 326.154 31.788C326.418 31.572 326.682 31.464 326.946 31.464C327.186 31.464 327.39 31.56 327.558 31.752C327.75 31.944 327.846 32.16 327.846 32.4C327.846 32.688 327.726 32.94 327.486 33.156C326.766 34.02 325.83 34.776 324.678 35.424C323.526 36.048 322.266 36.36 320.898 36.36ZM341.614 17.172C343.198 17.172 344.458 17.496 345.394 18.144C346.354 18.768 347.038 19.632 347.446 20.736C347.878 21.816 348.094 23.016 348.094 24.336V34.92C348.094 35.208 347.986 35.46 347.77 35.676C347.554 35.892 347.302 36 347.014 36C346.678 36 346.414 35.892 346.222 35.676C346.03 35.46 345.934 35.208 345.934 34.92V24.444C345.934 23.484 345.778 22.608 345.466 21.816C345.154 21.024 344.638 20.388 343.918 19.908C343.222 19.428 342.298 19.188 341.146 19.188C340.114 19.188 339.13 19.428 338.194 19.908C337.282 20.388 336.538 21.024 335.962 21.816C335.386 22.608 335.098 23.484 335.098 24.444V34.92C335.098 35.208 334.99 35.46 334.774 35.676C334.558 35.892 334.306 36 334.018 36C333.682 36 333.418 35.892 333.226 35.676C333.034 35.46 332.938 35.208 332.938 34.92V18.792C332.938 18.504 333.034 18.252 333.226 18.036C333.442 17.82 333.706 17.712 334.018 17.712C334.33 17.712 334.582 17.82 334.774 18.036C334.99 18.252 335.098 18.504 335.098 18.792V21.816L334.27 23.112C334.318 22.344 334.558 21.612 334.99 20.916C335.446 20.196 336.022 19.56 336.718 19.008C337.414 18.432 338.182 17.988 339.022 17.676C339.886 17.34 340.75 17.172 341.614 17.172ZM362.066 36.36C360.218 36.36 358.586 35.964 357.17 35.172C355.754 34.38 354.65 33.276 353.858 31.86C353.066 30.444 352.67 28.788 352.67 26.892C352.67 24.852 353.066 23.112 353.858 21.672C354.674 20.232 355.718 19.128 356.99 18.36C358.286 17.568 359.654 17.172 361.094 17.172C362.15 17.172 363.17 17.364 364.154 17.748C365.162 18.108 366.05 18.66 366.818 19.404C367.61 20.124 368.234 21.012 368.69 22.068C369.17 23.124 369.434 24.348 369.482 25.74C369.458 26.028 369.338 26.28 369.122 26.496C368.906 26.688 368.654 26.784 368.366 26.784H353.93L353.498 24.84H367.682L367.214 25.272V24.552C367.118 23.424 366.758 22.464 366.134 21.672C365.51 20.88 364.754 20.28 363.866 19.872C362.978 19.464 362.054 19.26 361.094 19.26C360.374 19.26 359.63 19.404 358.862 19.692C358.118 19.98 357.434 20.436 356.81 21.06C356.21 21.66 355.718 22.44 355.334 23.4C354.95 24.336 354.758 25.452 354.758 26.748C354.758 28.164 355.046 29.448 355.622 30.6C356.198 31.752 357.026 32.664 358.106 33.336C359.21 34.008 360.518 34.344 362.03 34.344C362.87 34.344 363.626 34.224 364.298 33.984C364.97 33.744 365.558 33.432 366.062 33.048C366.566 32.64 366.986 32.22 367.322 31.788C367.586 31.572 367.85 31.464 368.114 31.464C368.354 31.464 368.558 31.56 368.726 31.752C368.918 31.944 369.014 32.16 369.014 32.4C369.014 32.688 368.894 32.94 368.654 33.156C367.934 34.02 366.998 34.776 365.846 35.424C364.694 36.048 363.434 36.36 362.066 36.36ZM380.766 9.504C381.126 9.504 381.51 9.54 381.918 9.612C382.35 9.684 382.722 9.816 383.034 10.008C383.346 10.176 383.502 10.44 383.502 10.8C383.502 11.064 383.406 11.304 383.214 11.52C383.022 11.712 382.806 11.808 382.566 11.808C382.326 11.808 382.026 11.748 381.666 11.628C381.306 11.484 380.922 11.412 380.514 11.412C380.01 11.412 379.578 11.532 379.218 11.772C378.858 11.988 378.582 12.312 378.39 12.744C378.198 13.152 378.102 13.656 378.102 14.256V34.92C378.102 35.208 377.994 35.46 377.778 35.676C377.586 35.892 377.334 36 377.022 36C376.71 36 376.446 35.892 376.23 35.676C376.038 35.46 375.942 35.208 375.942 34.92V14.256C375.942 12.72 376.386 11.544 377.274 10.728C378.186 9.912 379.35 9.504 380.766 9.504ZM382.134 17.964C382.422 17.964 382.662 18.06 382.854 18.252C383.046 18.444 383.142 18.684 383.142 18.972C383.142 19.26 383.046 19.5 382.854 19.692C382.662 19.884 382.422 19.98 382.134 19.98H373.314C373.05 19.98 372.81 19.884 372.594 19.692C372.402 19.476 372.306 19.236 372.306 18.972C372.306 18.66 372.402 18.42 372.594 18.252C372.81 18.06 373.05 17.964 373.314 17.964H382.134ZM389.154 34.92C389.154 35.208 389.046 35.46 388.83 35.676C388.614 35.892 388.362 36 388.074 36C387.762 36 387.498 35.892 387.282 35.676C387.09 35.46 386.994 35.208 386.994 34.92V18.36C386.994 18.072 387.09 17.82 387.282 17.604C387.498 17.388 387.762 17.28 388.074 17.28C388.386 17.28 388.638 17.388 388.83 17.604C389.046 17.82 389.154 18.072 389.154 18.36V34.92ZM388.074 14.868C387.57 14.868 387.186 14.76 386.922 14.544C386.682 14.304 386.562 13.968 386.562 13.536V13.176C386.562 12.744 386.694 12.42 386.958 12.204C387.246 11.964 387.63 11.844 388.11 11.844C388.566 11.844 388.914 11.964 389.154 12.204C389.418 12.42 389.55 12.744 389.55 13.176V13.536C389.55 13.968 389.418 14.304 389.154 14.544C388.914 14.76 388.554 14.868 388.074 14.868ZM393.554 17.676H401.942C402.23 17.676 402.47 17.784 402.662 18C402.854 18.192 402.95 18.432 402.95 18.72C402.95 18.984 402.854 19.212 402.662 19.404C402.47 19.596 402.23 19.692 401.942 19.692H393.554C393.266 19.692 393.014 19.596 392.798 19.404C392.606 19.188 392.51 18.948 392.51 18.684C392.51 18.396 392.606 18.156 392.798 17.964C393.014 17.772 393.266 17.676 393.554 17.676ZM397.262 12.6C397.574 12.6 397.826 12.708 398.018 12.924C398.234 13.14 398.342 13.392 398.342 13.68V31.752C398.342 32.424 398.426 32.928 398.594 33.264C398.786 33.6 399.026 33.828 399.314 33.948C399.602 34.044 399.89 34.092 400.178 34.092C400.37 34.092 400.538 34.068 400.682 34.02C400.85 33.948 401.03 33.912 401.222 33.912C401.438 33.912 401.618 33.996 401.762 34.164C401.93 34.332 402.014 34.548 402.014 34.812C402.014 35.148 401.822 35.436 401.438 35.676C401.054 35.892 400.598 36 400.07 36C399.854 36 399.53 35.988 399.098 35.964C398.666 35.916 398.222 35.784 397.766 35.568C397.31 35.328 396.926 34.92 396.614 34.344C396.326 33.768 396.182 32.94 396.182 31.86V13.68C396.182 13.392 396.278 13.14 396.47 12.924C396.686 12.708 396.95 12.6 397.262 12.6ZM406.601 33.084C406.409 32.796 406.313 32.52 406.313 32.256C406.337 31.968 406.493 31.74 406.781 31.572C406.973 31.404 407.189 31.332 407.429 31.356C407.693 31.38 407.933 31.5 408.149 31.716C408.797 32.556 409.577 33.24 410.489 33.768C411.425 34.272 412.529 34.524 413.801 34.524C414.473 34.524 415.133 34.416 415.781 34.2C416.453 33.96 417.005 33.612 417.437 33.156C417.869 32.676 418.085 32.076 418.085 31.356C418.085 30.612 417.869 30.012 417.437 29.556C417.005 29.1 416.441 28.74 415.745 28.476C415.073 28.212 414.353 27.984 413.585 27.792C412.769 27.576 411.977 27.336 411.209 27.072C410.441 26.784 409.757 26.436 409.157 26.028C408.581 25.596 408.113 25.08 407.753 24.48C407.393 23.88 407.213 23.148 407.213 22.284C407.213 21.276 407.489 20.388 408.041 19.62C408.593 18.852 409.337 18.252 410.273 17.82C411.233 17.388 412.313 17.172 413.513 17.172C414.113 17.172 414.761 17.256 415.457 17.424C416.153 17.568 416.837 17.82 417.509 18.18C418.181 18.54 418.781 19.032 419.309 19.656C419.525 19.872 419.633 20.124 419.633 20.412C419.633 20.676 419.513 20.916 419.273 21.132C419.081 21.276 418.853 21.348 418.589 21.348C418.349 21.348 418.145 21.252 417.977 21.06C417.401 20.412 416.717 19.92 415.925 19.584C415.133 19.248 414.281 19.08 413.369 19.08C412.673 19.08 412.013 19.2 411.389 19.44C410.789 19.656 410.285 19.992 409.877 20.448C409.469 20.904 409.265 21.504 409.265 22.248C409.313 22.944 409.553 23.508 409.985 23.94C410.441 24.372 411.029 24.732 411.749 25.02C412.493 25.308 413.321 25.572 414.233 25.812C415.001 26.004 415.733 26.232 416.429 26.496C417.149 26.76 417.773 27.096 418.301 27.504C418.853 27.888 419.285 28.38 419.597 28.98C419.933 29.58 420.101 30.336 420.101 31.248C420.101 32.304 419.801 33.216 419.201 33.984C418.625 34.752 417.845 35.34 416.861 35.748C415.877 36.156 414.785 36.36 413.585 36.36C412.289 36.36 411.029 36.108 409.805 35.604C408.605 35.1 407.537 34.26 406.601 33.084Z" fill="white"/>
<path d="M628.319 12.672C628.607 12.864 628.775 13.116 628.823 13.428C628.871 13.716 628.799 14.004 628.607 14.292C628.439 14.508 628.223 14.628 627.959 14.652C627.695 14.676 627.443 14.628 627.203 14.508C626.291 13.908 625.307 13.44 624.251 13.104C623.219 12.768 622.103 12.6 620.903 12.6C619.439 12.6 618.071 12.864 616.799 13.392C615.551 13.896 614.459 14.64 613.523 15.624C612.587 16.584 611.855 17.724 611.327 19.044C610.823 20.364 610.571 21.816 610.571 23.4C610.571 25.032 610.835 26.52 611.363 27.864C611.891 29.184 612.623 30.324 613.559 31.284C614.519 32.244 615.623 32.976 616.871 33.48C618.119 33.984 619.463 34.236 620.903 34.236C622.079 34.236 623.183 34.068 624.215 33.732C625.271 33.396 626.255 32.94 627.167 32.364C627.407 32.22 627.659 32.172 627.923 32.22C628.211 32.244 628.439 32.376 628.607 32.616C628.823 32.88 628.895 33.168 628.823 33.48C628.775 33.768 628.619 33.996 628.355 34.164C627.755 34.548 627.047 34.908 626.231 35.244C625.415 35.58 624.551 35.844 623.639 36.036C622.727 36.252 621.815 36.36 620.903 36.36C619.175 36.36 617.555 36.048 616.043 35.424C614.531 34.8 613.187 33.924 612.011 32.796C610.835 31.644 609.911 30.276 609.239 28.692C608.591 27.108 608.267 25.344 608.267 23.4C608.267 21.528 608.591 19.812 609.239 18.252C609.887 16.668 610.787 15.3 611.939 14.148C613.091 12.996 614.435 12.096 615.971 11.448C617.507 10.8 619.151 10.476 620.903 10.476C622.271 10.476 623.591 10.668 624.863 11.052C626.135 11.436 627.287 11.976 628.319 12.672ZM650.039 26.784C650.039 28.608 649.643 30.252 648.851 31.716C648.059 33.156 646.979 34.296 645.611 35.136C644.243 35.952 642.683 36.36 640.931 36.36C639.227 36.36 637.679 35.952 636.287 35.136C634.919 34.296 633.827 33.156 633.011 31.716C632.219 30.252 631.823 28.608 631.823 26.784C631.823 24.936 632.219 23.292 633.011 21.852C633.827 20.412 634.919 19.272 636.287 18.432C637.679 17.592 639.227 17.172 640.931 17.172C642.683 17.172 644.243 17.592 645.611 18.432C646.979 19.272 648.059 20.412 648.851 21.852C649.643 23.292 650.039 24.936 650.039 26.784ZM647.879 26.784C647.879 25.32 647.579 24.024 646.979 22.896C646.379 21.744 645.551 20.844 644.495 20.196C643.463 19.524 642.275 19.188 640.931 19.188C639.635 19.188 638.459 19.524 637.403 20.196C636.347 20.844 635.507 21.744 634.883 22.896C634.283 24.024 633.983 25.32 633.983 26.784C633.983 28.248 634.283 29.544 634.883 30.672C635.507 31.8 636.347 32.7 637.403 33.372C638.459 34.02 639.635 34.344 640.931 34.344C642.275 34.344 643.463 34.02 644.495 33.372C645.551 32.7 646.379 31.8 646.979 30.672C647.579 29.544 647.879 28.248 647.879 26.784ZM663.305 17.172C664.889 17.172 666.149 17.496 667.085 18.144C668.045 18.768 668.729 19.632 669.137 20.736C669.569 21.816 669.785 23.016 669.785 24.336V34.92C669.785 35.208 669.677 35.46 669.461 35.676C669.245 35.892 668.993 36 668.705 36C668.369 36 668.105 35.892 667.913 35.676C667.721 35.46 667.625 35.208 667.625 34.92V24.444C667.625 23.484 667.469 22.608 667.157 21.816C666.845 21.024 666.329 20.388 665.609 19.908C664.913 19.428 663.989 19.188 662.837 19.188C661.805 19.188 660.821 19.428 659.885 19.908C658.973 20.388 658.229 21.024 657.653 21.816C657.077 22.608 656.789 23.484 656.789 24.444V34.92C656.789 35.208 656.681 35.46 656.465 35.676C656.249 35.892 655.997 36 655.709 36C655.373 36 655.109 35.892 654.917 35.676C654.725 35.46 654.629 35.208 654.629 34.92V18.792C654.629 18.504 654.725 18.252 654.917 18.036C655.133 17.82 655.397 17.712 655.709 17.712C656.021 17.712 656.273 17.82 656.465 18.036C656.681 18.252 656.789 18.504 656.789 18.792V21.816L655.961 23.112C656.009 22.344 656.249 21.612 656.681 20.916C657.137 20.196 657.713 19.56 658.409 19.008C659.105 18.432 659.873 17.988 660.713 17.676C661.577 17.34 662.441 17.172 663.305 17.172ZM674.254 17.676H682.642C682.93 17.676 683.17 17.784 683.362 18C683.554 18.192 683.65 18.432 683.65 18.72C683.65 18.984 683.554 19.212 683.362 19.404C683.17 19.596 682.93 19.692 682.642 19.692H674.254C673.966 19.692 673.714 19.596 673.498 19.404C673.306 19.188 673.21 18.948 673.21 18.684C673.21 18.396 673.306 18.156 673.498 17.964C673.714 17.772 673.966 17.676 674.254 17.676ZM677.962 12.6C678.274 12.6 678.526 12.708 678.718 12.924C678.934 13.14 679.042 13.392 679.042 13.68V31.752C679.042 32.424 679.126 32.928 679.294 33.264C679.486 33.6 679.726 33.828 680.014 33.948C680.302 34.044 680.59 34.092 680.878 34.092C681.07 34.092 681.238 34.068 681.382 34.02C681.55 33.948 681.73 33.912 681.922 33.912C682.138 33.912 682.318 33.996 682.462 34.164C682.63 34.332 682.714 34.548 682.714 34.812C682.714 35.148 682.522 35.436 682.138 35.676C681.754 35.892 681.298 36 680.77 36C680.554 36 680.23 35.988 679.798 35.964C679.366 35.916 678.922 35.784 678.466 35.568C678.01 35.328 677.626 34.92 677.314 34.344C677.026 33.768 676.882 32.94 676.882 31.86V13.68C676.882 13.392 676.978 13.14 677.17 12.924C677.386 12.708 677.65 12.6 677.962 12.6ZM702.725 17.604C703.037 17.604 703.289 17.712 703.481 17.928C703.697 18.144 703.805 18.408 703.805 18.72V34.92C703.805 35.208 703.697 35.46 703.481 35.676C703.265 35.892 703.013 36 702.725 36C702.413 36 702.149 35.892 701.933 35.676C701.741 35.46 701.645 35.208 701.645 34.92V30.636L702.257 30.348C702.257 31.02 702.065 31.704 701.681 32.4C701.321 33.096 700.817 33.744 700.169 34.344C699.521 34.944 698.753 35.436 697.865 35.82C697.001 36.18 696.065 36.36 695.057 36.36C693.425 36.36 691.961 35.94 690.665 35.1C689.393 34.26 688.385 33.108 687.641 31.644C686.921 30.18 686.561 28.536 686.561 26.712C686.561 24.84 686.933 23.196 687.677 21.78C688.421 20.34 689.429 19.212 690.701 18.396C691.973 17.58 693.413 17.172 695.021 17.172C696.053 17.172 697.013 17.352 697.901 17.712C698.813 18.072 699.605 18.564 700.277 19.188C700.949 19.812 701.465 20.532 701.825 21.348C702.209 22.14 702.401 22.968 702.401 23.832L701.645 23.292V18.72C701.645 18.408 701.741 18.144 701.933 17.928C702.149 17.712 702.413 17.604 702.725 17.604ZM695.237 34.344C696.509 34.344 697.637 34.02 698.621 33.372C699.605 32.7 700.373 31.788 700.925 30.636C701.501 29.46 701.789 28.152 701.789 26.712C701.789 25.296 701.501 24.024 700.925 22.896C700.373 21.768 699.605 20.868 698.621 20.196C697.637 19.524 696.509 19.188 695.237 19.188C693.989 19.188 692.861 19.512 691.853 20.16C690.869 20.808 690.089 21.696 689.513 22.824C688.961 23.952 688.685 25.248 688.685 26.712C688.685 28.152 688.961 29.46 689.513 30.636C690.089 31.788 690.869 32.7 691.853 33.372C692.837 34.02 693.965 34.344 695.237 34.344ZM717.573 17.172C718.725 17.172 719.781 17.304 720.741 17.568C721.701 17.808 722.469 18.144 723.045 18.576C723.645 19.008 723.945 19.476 723.945 19.98C723.945 20.22 723.861 20.46 723.693 20.7C723.525 20.916 723.297 21.024 723.009 21.024C722.721 21.024 722.481 20.952 722.289 20.808C722.121 20.664 721.941 20.496 721.749 20.304C721.581 20.112 721.329 19.932 720.993 19.764C720.681 19.62 720.237 19.488 719.661 19.368C719.085 19.248 718.425 19.188 717.681 19.188C716.337 19.188 715.125 19.524 714.045 20.196C712.965 20.868 712.113 21.78 711.489 22.932C710.865 24.06 710.553 25.332 710.553 26.748C710.553 28.188 710.853 29.484 711.453 30.636C712.053 31.788 712.881 32.7 713.937 33.372C714.993 34.02 716.229 34.344 717.645 34.344C718.605 34.344 719.349 34.26 719.877 34.092C720.405 33.924 720.861 33.732 721.245 33.516C721.701 33.252 722.025 33 722.217 32.76C722.433 32.496 722.709 32.364 723.045 32.364C723.357 32.364 723.585 32.46 723.729 32.652C723.897 32.82 723.981 33.048 723.981 33.336C723.981 33.72 723.693 34.152 723.117 34.632C722.565 35.088 721.797 35.496 720.813 35.856C719.829 36.192 718.701 36.36 717.429 36.36C715.629 36.36 714.045 35.94 712.677 35.1C711.333 34.26 710.277 33.12 709.509 31.68C708.765 30.216 708.393 28.572 708.393 26.748C708.393 24.996 708.777 23.4 709.545 21.96C710.313 20.52 711.381 19.368 712.749 18.504C714.141 17.616 715.749 17.172 717.573 17.172ZM726.918 17.676H735.306C735.594 17.676 735.834 17.784 736.026 18C736.218 18.192 736.314 18.432 736.314 18.72C736.314 18.984 736.218 19.212 736.026 19.404C735.834 19.596 735.594 19.692 735.306 19.692H726.918C726.63 19.692 726.378 19.596 726.162 19.404C725.97 19.188 725.874 18.948 725.874 18.684C725.874 18.396 725.97 18.156 726.162 17.964C726.378 17.772 726.63 17.676 726.918 17.676ZM730.626 12.6C730.938 12.6 731.19 12.708 731.382 12.924C731.598 13.14 731.706 13.392 731.706 13.68V31.752C731.706 32.424 731.79 32.928 731.958 33.264C732.15 33.6 732.39 33.828 732.678 33.948C732.966 34.044 733.254 34.092 733.542 34.092C733.734 34.092 733.902 34.068 734.046 34.02C734.214 33.948 734.394 33.912 734.586 33.912C734.802 33.912 734.982 33.996 735.126 34.164C735.294 34.332 735.378 34.548 735.378 34.812C735.378 35.148 735.186 35.436 734.802 35.676C734.418 35.892 733.962 36 733.434 36C733.218 36 732.894 35.988 732.462 35.964C732.03 35.916 731.586 35.784 731.13 35.568C730.674 35.328 730.29 34.92 729.978 34.344C729.69 33.768 729.546 32.94 729.546 31.86V13.68C729.546 13.392 729.642 13.14 729.834 12.924C730.05 12.708 730.314 12.6 730.626 12.6Z" fill="white"/>
</svg>
