<svg width="2158" height="68" viewBox="0 0 2158 68" fill="none" xmlns="http://www.w3.org/2000/svg">
<path d="M61.5755 2.6647C62.5358 2.6647 63.424 3.02479 64.2402 3.74497C65.0564 4.41714 65.4645 5.35338 65.4645 6.55368C65.4645 6.88976 65.3925 7.29787 65.2484 7.77799L50.4847 50.9889C50.2447 51.7091 49.8126 52.2612 49.1884 52.6453C48.5642 53.0294 47.9161 53.2454 47.2439 53.2935C46.5717 53.2935 45.8996 53.1014 45.2274 52.7173C44.5552 52.3332 44.0511 51.7571 43.715 50.9889L32.3362 24.3422L32.9843 24.6302L21.7495 50.9889C21.3654 51.7571 20.8373 52.3332 20.1651 52.7173C19.5409 53.1014 18.8688 53.2935 18.1486 53.2935C17.5244 53.2454 16.9003 53.0294 16.2761 52.6453C15.652 52.2612 15.2198 51.7091 14.9798 50.9889L0.216061 7.77799C0.0720248 7.29787 6.70721e-06 6.88976 6.70721e-06 6.55368C6.70721e-06 5.35338 0.432116 4.41714 1.29633 3.74497C2.16055 3.02479 3.04878 2.6647 3.961 2.6647C4.7292 2.6647 5.42537 2.88075 6.04953 3.31286C6.7217 3.69696 7.17782 4.2731 7.41788 5.0413L19.877 42.2027H18.5807L29.5274 15.4119C29.8635 14.6917 30.3196 14.1156 30.8958 13.6835C31.5199 13.2514 32.2161 13.0593 32.9843 13.1073C33.7525 13.0593 34.4247 13.2514 35.0008 13.6835C35.625 14.1156 36.0811 14.6917 36.3692 15.4119L46.7398 41.4105L45.6595 41.9866L58.0466 5.0413C58.2867 4.2731 58.7428 3.69696 59.415 3.31286C60.0871 2.88075 60.8073 2.6647 61.5755 2.6647ZM91.1153 14.7637C94.4282 14.7637 96.9968 15.4839 98.8213 16.9243C100.646 18.3166 101.918 20.2131 102.638 22.6137C103.406 25.0143 103.791 27.655 103.791 30.5357V49.6205C103.791 50.6768 103.43 51.565 102.71 52.2852C102.038 52.9574 101.198 53.2935 100.19 53.2935C99.1334 53.2935 98.2691 52.9574 97.597 52.2852C96.9248 51.565 96.5887 50.6768 96.5887 49.6205V30.5357C96.5887 28.8553 96.3487 27.3189 95.8685 25.9266C95.4364 24.5342 94.6442 23.4299 93.4919 22.6137C92.3877 21.7975 90.8273 21.3894 88.8108 21.3894C86.9383 21.3894 85.2579 21.7975 83.7695 22.6137C82.3291 23.4299 81.2008 24.5342 80.3846 25.9266C79.6164 27.3189 79.2323 28.8553 79.2323 30.5357V49.6205C79.2323 50.6768 78.8723 51.565 78.1521 52.2852C77.4799 52.9574 76.6397 53.2935 75.6314 53.2935C74.5752 53.2935 73.711 52.9574 73.0388 52.2852C72.3666 51.565 72.0305 50.6768 72.0305 49.6205V3.67295C72.0305 2.61669 72.3666 1.75247 73.0388 1.0803C73.711 0.360119 74.5752 2.86174e-05 75.6314 2.86174e-05C76.6397 2.86174e-05 77.4799 0.360119 78.1521 1.0803C78.8723 1.75247 79.2323 2.61669 79.2323 3.67295V23.3339L77.936 24.0541C78.2721 22.9978 78.8242 21.9175 79.5924 20.8133C80.4086 19.709 81.3929 18.7007 82.5452 17.7885C83.7455 16.8763 85.0658 16.1561 86.5062 15.628C87.9465 15.0518 89.4829 14.7637 91.1153 14.7637ZM144.847 14.8358C145.903 14.8358 146.767 15.1959 147.439 15.916C148.111 16.5882 148.447 17.4524 148.447 18.5087V49.6205C148.447 50.6768 148.111 51.565 147.439 52.2852C146.767 52.9574 145.903 53.2935 144.847 53.2935C143.838 53.2935 142.974 52.9574 142.254 52.2852C141.582 51.565 141.246 50.6768 141.246 49.6205V44.4352L142.758 44.6513C142.758 45.5155 142.398 46.4757 141.678 47.532C141.006 48.5883 140.069 49.6205 138.869 50.6288C137.669 51.589 136.252 52.4052 134.62 53.0774C132.988 53.7016 131.235 54.0136 129.363 54.0136C126.05 54.0136 123.073 53.1734 120.432 51.493C117.792 49.7646 115.703 47.412 114.167 44.4352C112.63 41.4585 111.862 38.0736 111.862 34.2807C111.862 30.3917 112.63 26.9828 114.167 24.0541C115.703 21.0773 117.768 18.7488 120.36 17.0683C123.001 15.3879 125.93 14.5477 129.147 14.5477C131.211 14.5477 133.108 14.8838 134.836 15.5559C136.612 16.2281 138.149 17.0923 139.445 18.1486C140.741 19.2049 141.726 20.3332 142.398 21.5335C143.118 22.6857 143.478 23.79 143.478 24.8463L141.246 25.0623V18.5087C141.246 17.5004 141.582 16.6362 142.254 15.916C142.974 15.1959 143.838 14.8358 144.847 14.8358ZM130.155 47.388C132.411 47.388 134.404 46.8118 136.132 45.6595C137.861 44.5072 139.205 42.9468 140.165 40.9784C141.126 38.9618 141.606 36.7293 141.606 34.2807C141.606 31.784 141.126 29.5515 140.165 27.583C139.205 25.6145 137.861 24.0541 136.132 22.9018C134.404 21.7495 132.411 21.1734 130.155 21.1734C127.946 21.1734 125.978 21.7495 124.249 22.9018C122.569 24.0541 121.225 25.6145 120.216 27.583C119.256 29.5515 118.776 31.784 118.776 34.2807C118.776 36.7293 119.256 38.9618 120.216 40.9784C121.225 42.9468 122.569 44.5072 124.249 45.6595C125.978 46.8118 127.946 47.388 130.155 47.388ZM158.033 15.844H174.957C175.917 15.844 176.709 16.1801 177.333 16.8523C178.006 17.4764 178.342 18.2686 178.342 19.2289C178.342 20.1411 178.006 20.9093 177.333 21.5335C176.709 22.1576 175.917 22.4697 174.957 22.4697H158.033C157.072 22.4697 156.256 22.1576 155.584 21.5335C154.96 20.8613 154.648 20.0691 154.648 19.1569C154.648 18.1966 154.96 17.4044 155.584 16.7803C156.256 16.1561 157.072 15.844 158.033 15.844ZM165.594 6.48166C166.651 6.48166 167.515 6.84175 168.187 7.56193C168.859 8.2341 169.195 9.09832 169.195 10.1546V43.571C169.195 44.4352 169.339 45.1314 169.627 45.6595C169.916 46.1877 170.3 46.5478 170.78 46.7398C171.308 46.9319 171.836 47.0279 172.364 47.0279C172.892 47.0279 173.348 46.9319 173.733 46.7398C174.165 46.5478 174.669 46.4517 175.245 46.4517C175.821 46.4517 176.349 46.7158 176.829 47.2439C177.309 47.7721 177.549 48.4922 177.549 49.4045C177.549 50.5568 176.925 51.493 175.677 52.2132C174.429 52.9334 173.084 53.2935 171.644 53.2935C170.828 53.2935 169.868 53.2214 168.763 53.0774C167.659 52.9334 166.579 52.5733 165.522 51.9971C164.514 51.421 163.674 50.5088 163.002 49.2604C162.33 47.9641 161.994 46.1637 161.994 43.8591V10.1546C161.994 9.09832 162.33 8.2341 163.002 7.56193C163.722 6.84175 164.586 6.48166 165.594 6.48166ZM225.446 14.7637C228.759 14.7637 231.328 15.4839 233.152 16.9243C234.976 18.3166 236.249 20.2131 236.969 22.6137C237.737 25.0143 238.121 27.655 238.121 30.5357V49.6205C238.121 50.6768 237.761 51.565 237.041 52.2852C236.369 52.9574 235.529 53.2935 234.52 53.2935C233.464 53.2935 232.6 52.9574 231.928 52.2852C231.256 51.565 230.919 50.6768 230.919 49.6205V30.5357C230.919 28.8553 230.679 27.3189 230.199 25.9266C229.767 24.5342 228.975 23.4299 227.823 22.6137C226.718 21.7975 225.158 21.3894 223.141 21.3894C221.269 21.3894 219.589 21.7975 218.1 22.6137C216.66 23.4299 215.532 24.5342 214.715 25.9266C213.947 27.3189 213.563 28.8553 213.563 30.5357V49.6205C213.563 50.6768 213.203 51.565 212.483 52.2852C211.811 52.9574 210.97 53.2935 209.962 53.2935C208.906 53.2935 208.042 52.9574 207.37 52.2852C206.697 51.565 206.361 50.6768 206.361 49.6205V3.67295C206.361 2.61669 206.697 1.75247 207.37 1.0803C208.042 0.360119 208.906 2.86174e-05 209.962 2.86174e-05C210.97 2.86174e-05 211.811 0.360119 212.483 1.0803C213.203 1.75247 213.563 2.61669 213.563 3.67295V23.3339L212.267 24.0541C212.603 22.9978 213.155 21.9175 213.923 20.8133C214.739 19.709 215.724 18.7007 216.876 17.7885C218.076 16.8763 219.397 16.1561 220.837 15.628C222.277 15.0518 223.814 14.7637 225.446 14.7637ZM279.177 14.8358C280.233 14.8358 281.098 15.1959 281.77 15.916C282.442 16.5882 282.778 17.4524 282.778 18.5087V49.6205C282.778 50.6768 282.442 51.565 281.77 52.2852C281.098 52.9574 280.233 53.2935 279.177 53.2935C278.169 53.2935 277.305 52.9574 276.585 52.2852C275.912 51.565 275.576 50.6768 275.576 49.6205V44.4352L277.089 44.6513C277.089 45.5155 276.729 46.4757 276.008 47.532C275.336 48.5883 274.4 49.6205 273.2 50.6288C271.999 51.589 270.583 52.4052 268.951 53.0774C267.318 53.7016 265.566 54.0136 263.693 54.0136C260.38 54.0136 257.404 53.1734 254.763 51.493C252.122 49.7646 250.034 47.412 248.497 44.4352C246.961 41.4585 246.193 38.0736 246.193 34.2807C246.193 30.3917 246.961 26.9828 248.497 24.0541C250.034 21.0773 252.098 18.7488 254.691 17.0683C257.332 15.3879 260.26 14.5477 263.477 14.5477C265.542 14.5477 267.438 14.8838 269.167 15.5559C270.943 16.2281 272.48 17.0923 273.776 18.1486C275.072 19.2049 276.056 20.3332 276.729 21.5335C277.449 22.6857 277.809 23.79 277.809 24.8463L275.576 25.0623V18.5087C275.576 17.5004 275.912 16.6362 276.585 15.916C277.305 15.1959 278.169 14.8358 279.177 14.8358ZM264.486 47.388C266.742 47.388 268.735 46.8118 270.463 45.6595C272.191 44.5072 273.536 42.9468 274.496 40.9784C275.456 38.9618 275.936 36.7293 275.936 34.2807C275.936 31.784 275.456 29.5515 274.496 27.583C273.536 25.6145 272.191 24.0541 270.463 22.9018C268.735 21.7495 266.742 21.1734 264.486 21.1734C262.277 21.1734 260.308 21.7495 258.58 22.9018C256.9 24.0541 255.555 25.6145 254.547 27.583C253.587 29.5515 253.107 31.784 253.107 34.2807C253.107 36.7293 253.587 38.9618 254.547 40.9784C255.555 42.9468 256.9 44.5072 258.58 45.6595C260.308 46.8118 262.277 47.388 264.486 47.388ZM311.952 14.7637C315.313 14.7637 318.29 15.604 320.882 17.2844C323.523 18.9648 325.612 21.2694 327.148 24.1981C328.684 27.0789 329.453 30.4397 329.453 34.2807C329.453 38.1216 328.684 41.5305 327.148 44.5072C325.612 47.436 323.547 49.7406 320.954 51.421C318.362 53.1014 315.433 53.9416 312.168 53.9416C310.344 53.9416 308.615 53.6535 306.983 53.0774C305.351 52.5013 303.91 51.7571 302.662 50.8448C301.414 49.8846 300.381 48.8763 299.565 47.8201C298.797 46.7638 298.317 45.7796 298.125 44.8673L300.069 43.9311V64.0242C300.069 65.0804 299.709 65.9446 298.989 66.6168C298.317 67.337 297.477 67.6971 296.468 67.6971C295.412 67.6971 294.548 67.337 293.876 66.6168C293.204 65.9446 292.867 65.0804 292.867 64.0242V18.9408C292.867 17.9325 293.204 17.0683 293.876 16.3481C294.548 15.628 295.412 15.2679 296.468 15.2679C297.477 15.2679 298.317 15.628 298.989 16.3481C299.709 17.0683 300.069 17.9325 300.069 18.9408V23.9101L298.917 23.2619C299.061 22.3497 299.517 21.4134 300.285 20.4532C301.053 19.4449 302.014 18.5087 303.166 17.6445C304.366 16.7803 305.711 16.0841 307.199 15.5559C308.735 15.0278 310.32 14.7637 311.952 14.7637ZM311.16 21.3894C308.855 21.3894 306.839 21.9656 305.111 23.1179C303.43 24.2221 302.11 25.7345 301.15 27.655C300.189 29.5755 299.709 31.784 299.709 34.2807C299.709 36.7293 300.189 38.9618 301.15 40.9784C302.11 42.9468 303.43 44.5072 305.111 45.6595C306.839 46.7638 308.855 47.316 311.16 47.316C313.417 47.316 315.385 46.7638 317.066 45.6595C318.746 44.5072 320.066 42.9468 321.027 40.9784C322.035 38.9618 322.539 36.7293 322.539 34.2807C322.539 31.832 322.035 29.6475 321.027 27.727C320.066 25.7585 318.746 24.2221 317.066 23.1179C315.385 21.9656 313.417 21.3894 311.16 21.3894ZM356.682 14.7637C360.043 14.7637 363.02 15.604 365.612 17.2844C368.253 18.9648 370.342 21.2694 371.878 24.1981C373.414 27.0789 374.183 30.4397 374.183 34.2807C374.183 38.1216 373.414 41.5305 371.878 44.5072C370.342 47.436 368.277 49.7406 365.685 51.421C363.092 53.1014 360.163 53.9416 356.898 53.9416C355.074 53.9416 353.345 53.6535 351.713 53.0774C350.081 52.5013 348.64 51.7571 347.392 50.8448C346.144 49.8846 345.111 48.8763 344.295 47.8201C343.527 46.7638 343.047 45.7796 342.855 44.8673L344.799 43.9311V64.0242C344.799 65.0804 344.439 65.9446 343.719 66.6168C343.047 67.337 342.207 67.6971 341.198 67.6971C340.142 67.6971 339.278 67.337 338.606 66.6168C337.934 65.9446 337.597 65.0804 337.597 64.0242V18.9408C337.597 17.9325 337.934 17.0683 338.606 16.3481C339.278 15.628 340.142 15.2679 341.198 15.2679C342.207 15.2679 343.047 15.628 343.719 16.3481C344.439 17.0683 344.799 17.9325 344.799 18.9408V23.9101L343.647 23.2619C343.791 22.3497 344.247 21.4134 345.015 20.4532C345.784 19.4449 346.744 18.5087 347.896 17.6445C349.096 16.7803 350.441 16.0841 351.929 15.5559C353.465 15.0278 355.05 14.7637 356.682 14.7637ZM355.89 21.3894C353.585 21.3894 351.569 21.9656 349.841 23.1179C348.16 24.2221 346.84 25.7345 345.88 27.655C344.919 29.5755 344.439 31.784 344.439 34.2807C344.439 36.7293 344.919 38.9618 345.88 40.9784C346.84 42.9468 348.16 44.5072 349.841 45.6595C351.569 46.7638 353.585 47.316 355.89 47.316C358.147 47.316 360.115 46.7638 361.796 45.6595C363.476 44.5072 364.796 42.9468 365.757 40.9784C366.765 38.9618 367.269 36.7293 367.269 34.2807C367.269 31.832 366.765 29.6475 365.757 27.727C364.796 25.7585 363.476 24.2221 361.796 23.1179C360.115 21.9656 358.147 21.3894 355.89 21.3894ZM399.972 54.0136C395.987 54.0136 392.53 53.1974 389.601 51.565C386.673 49.8846 384.392 47.604 382.76 44.7233C381.175 41.7946 380.383 38.4577 380.383 34.7128C380.383 30.4877 381.223 26.8868 382.904 23.9101C384.632 20.8853 386.865 18.5807 389.601 16.9963C392.338 15.3639 395.243 14.5477 398.315 14.5477C400.668 14.5477 402.901 15.0278 405.013 15.9881C407.126 16.9003 408.998 18.1966 410.631 19.877C412.311 21.5094 413.631 23.4539 414.592 25.7105C415.552 27.9191 416.056 30.3437 416.104 32.9843C416.056 33.9446 415.672 34.7368 414.952 35.3609C414.231 35.9851 413.391 36.2972 412.431 36.2972H384.416L382.688 30.1756H409.766L408.398 31.472V29.6715C408.302 27.9911 407.75 26.5267 406.742 25.2784C405.733 23.9821 404.485 22.9978 402.997 22.3257C401.508 21.6055 399.948 21.2454 398.315 21.2454C396.875 21.2454 395.483 21.4854 394.138 21.9656C392.842 22.3977 391.666 23.1179 390.61 24.1261C389.601 25.1344 388.785 26.4787 388.161 28.1591C387.585 29.7915 387.297 31.832 387.297 34.2807C387.297 36.9213 387.849 39.2259 388.953 41.1944C390.057 43.1629 391.546 44.6993 393.418 45.8036C395.291 46.8598 397.355 47.388 399.612 47.388C401.388 47.388 402.853 47.2199 404.005 46.8838C405.157 46.4997 406.117 46.0436 406.886 45.5155C407.654 44.9874 408.326 44.4832 408.902 44.0031C409.622 43.571 410.343 43.355 411.063 43.355C411.927 43.355 412.647 43.667 413.223 44.2912C413.799 44.8673 414.087 45.5635 414.087 46.3797C414.087 47.436 413.559 48.3962 412.503 49.2604C411.207 50.5088 409.406 51.613 407.102 52.5733C404.845 53.5335 402.469 54.0136 399.972 54.0136ZM443.761 14.5477C447.17 14.5477 449.811 15.2679 451.683 16.7082C453.556 18.1006 454.852 19.9971 455.572 22.3977C456.34 24.7503 456.724 27.3909 456.724 30.3197V49.6205C456.724 50.6768 456.364 51.565 455.644 52.2852C454.972 52.9574 454.132 53.2935 453.124 53.2935C452.067 53.2935 451.203 52.9574 450.531 52.2852C449.859 51.565 449.523 50.6768 449.523 49.6205V30.3917C449.523 28.6633 449.283 27.1269 448.802 25.7825C448.322 24.3902 447.482 23.2859 446.282 22.4697C445.13 21.6055 443.497 21.1734 441.385 21.1734C439.416 21.1734 437.688 21.6055 436.199 22.4697C434.711 23.2859 433.535 24.3902 432.67 25.7825C431.854 27.1269 431.446 28.6633 431.446 30.3917V49.6205C431.446 50.6768 431.086 51.565 430.366 52.2852C429.694 52.9574 428.853 53.2935 427.845 53.2935C426.789 53.2935 425.925 52.9574 425.253 52.2852C424.58 51.565 424.244 50.6768 424.244 49.6205V19.0848C424.244 18.0286 424.58 17.1644 425.253 16.4922C425.925 15.772 426.789 15.4119 427.845 15.4119C428.853 15.4119 429.694 15.772 430.366 16.4922C431.086 17.1644 431.446 18.0286 431.446 19.0848V23.1179L430.15 23.838C430.486 22.7818 431.062 21.7255 431.878 20.6692C432.742 19.565 433.775 18.5567 434.975 17.6445C436.175 16.6842 437.52 15.94 439.008 15.4119C440.496 14.8358 442.081 14.5477 443.761 14.5477ZM464.491 47.388C464.059 46.7158 463.867 45.9476 463.915 45.0834C463.963 44.1712 464.467 43.403 465.427 42.7788C466.1 42.3467 466.796 42.1787 467.516 42.2747C468.284 42.3227 469.004 42.6828 469.676 43.355C471.021 44.8433 472.509 46.0196 474.142 46.8838C475.822 47.7481 477.839 48.1802 480.191 48.1802C481.151 48.1322 482.136 47.9881 483.144 47.7481C484.152 47.46 485.016 46.9799 485.737 46.3077C486.457 45.5875 486.817 44.5553 486.817 43.2109C486.817 42.0106 486.433 41.0504 485.664 40.3302C484.896 39.61 483.888 39.0339 482.64 38.6018C481.391 38.1216 480.047 37.6895 478.607 37.3054C477.07 36.8733 475.51 36.3932 473.926 35.8651C472.389 35.3369 470.997 34.6648 469.748 33.8486C468.5 32.9843 467.468 31.8801 466.652 30.5357C465.884 29.1914 465.499 27.535 465.499 25.5665C465.499 23.3099 466.124 21.3654 467.372 19.733C468.668 18.1006 470.325 16.8283 472.341 15.916C474.406 15.0038 476.638 14.5477 479.039 14.5477C480.431 14.5477 481.896 14.7397 483.432 15.1238C484.968 15.4599 486.457 16.0121 487.897 16.7803C489.337 17.5484 490.586 18.5567 491.642 19.805C492.122 20.4292 492.386 21.1734 492.434 22.0376C492.53 22.9018 492.146 23.67 491.282 24.3422C490.706 24.8223 490.01 25.0383 489.193 24.9903C488.377 24.9423 487.705 24.6782 487.177 24.1981C486.265 23.0458 485.088 22.1576 483.648 21.5335C482.208 20.8613 480.575 20.5252 478.751 20.5252C477.839 20.5252 476.878 20.6692 475.87 20.9573C474.91 21.1974 474.094 21.6535 473.421 22.3257C472.749 22.9978 472.413 23.9821 472.413 25.2784C472.413 26.4787 472.797 27.4389 473.565 28.1591C474.382 28.8793 475.438 29.4795 476.734 29.9596C478.031 30.4397 479.447 30.8718 480.983 31.2559C482.472 31.64 483.936 32.0961 485.376 32.6242C486.865 33.1524 488.185 33.8486 489.337 34.7128C490.538 35.529 491.498 36.6093 492.218 37.9536C492.986 39.2499 493.37 40.9063 493.37 42.9228C493.37 45.2754 492.674 47.2919 491.282 48.9724C489.938 50.6048 488.209 51.8531 486.097 52.7173C484.032 53.5815 481.848 54.0136 479.543 54.0136C476.806 54.0136 474.07 53.5335 471.333 52.5733C468.644 51.565 466.364 49.8366 464.491 47.388ZM565.306 15.0518C566.219 15.0518 567.011 15.4119 567.683 16.1321C568.403 16.8043 568.763 17.6925 568.763 18.7968C568.763 19.0368 568.739 19.2769 568.691 19.5169C568.643 19.757 568.571 19.9731 568.475 20.1651L557.456 50.9889C557.168 51.8051 556.664 52.4292 555.944 52.8613C555.224 53.2454 554.48 53.3895 553.712 53.2935C552.319 53.1974 551.287 52.4292 550.615 50.9889L542.477 29.3834L544.133 29.5275L536.643 50.9889C535.971 52.4292 534.939 53.1974 533.546 53.2935C532.826 53.3895 532.082 53.2454 531.314 52.8613C530.594 52.4292 530.09 51.8051 529.801 50.9889L518.711 20.1651C518.519 19.733 518.423 19.2769 518.423 18.7968C518.423 17.7885 518.735 16.9243 519.359 16.2041C520.031 15.4359 520.919 15.0518 522.024 15.0518C522.792 15.0518 523.464 15.2439 524.04 15.628C524.664 16.0121 525.096 16.5882 525.336 17.3564L534.555 43.355L532.898 43.2109L540.388 23.55C541.012 22.0616 542.117 21.3174 543.701 21.3174C544.565 21.3174 545.237 21.5094 545.717 21.8935C546.198 22.2776 546.582 22.8298 546.87 23.55L554.504 43.2829L552.559 43.499L561.85 17.3564C562.33 15.82 563.482 15.0518 565.306 15.0518ZM595.172 14.7637C598.485 14.7637 601.054 15.4839 602.878 16.9243C604.702 18.3166 605.975 20.2131 606.695 22.6137C607.463 25.0143 607.847 27.655 607.847 30.5357V49.6205C607.847 50.6768 607.487 51.565 606.767 52.2852C606.095 52.9574 605.255 53.2935 604.246 53.2935C603.19 53.2935 602.326 52.9574 601.654 52.2852C600.981 51.565 600.645 50.6768 600.645 49.6205V30.5357C600.645 28.8553 600.405 27.3189 599.925 25.9266C599.493 24.5342 598.701 23.4299 597.549 22.6137C596.444 21.7975 594.884 21.3894 592.867 21.3894C590.995 21.3894 589.315 21.7975 587.826 22.6137C586.386 23.4299 585.258 24.5342 584.441 25.9266C583.673 27.3189 583.289 28.8553 583.289 30.5357V49.6205C583.289 50.6768 582.929 51.565 582.209 52.2852C581.537 52.9574 580.696 53.2935 579.688 53.2935C578.632 53.2935 577.768 52.9574 577.095 52.2852C576.423 51.565 576.087 50.6768 576.087 49.6205V3.67295C576.087 2.61669 576.423 1.75247 577.095 1.0803C577.768 0.360119 578.632 2.86174e-05 579.688 2.86174e-05C580.696 2.86174e-05 581.537 0.360119 582.209 1.0803C582.929 1.75247 583.289 2.61669 583.289 3.67295V23.3339L581.993 24.0541C582.329 22.9978 582.881 21.9175 583.649 20.8133C584.465 19.709 585.45 18.7007 586.602 17.7885C587.802 16.8763 589.122 16.1561 590.563 15.628C592.003 15.0518 593.54 14.7637 595.172 14.7637ZM635.508 54.0136C631.523 54.0136 628.066 53.1974 625.137 51.565C622.208 49.8846 619.928 47.604 618.295 44.7233C616.711 41.7946 615.919 38.4577 615.919 34.7128C615.919 30.4877 616.759 26.8868 618.44 23.9101C620.168 20.8853 622.401 18.5807 625.137 16.9963C627.874 15.3639 630.779 14.5477 633.851 14.5477C636.204 14.5477 638.437 15.0278 640.549 15.9881C642.662 16.9003 644.534 18.1966 646.166 19.877C647.847 21.5094 649.167 23.4539 650.127 25.7105C651.088 27.9191 651.592 30.3437 651.64 32.9843C651.592 33.9446 651.208 34.7368 650.488 35.3609C649.767 35.9851 648.927 36.2972 647.967 36.2972H619.952L618.223 30.1756H645.302L643.934 31.472V29.6715C643.838 27.9911 643.286 26.5267 642.278 25.2784C641.269 23.9821 640.021 22.9978 638.533 22.3257C637.044 21.6055 635.484 21.2454 633.851 21.2454C632.411 21.2454 631.019 21.4854 629.674 21.9656C628.378 22.3977 627.202 23.1179 626.145 24.1261C625.137 25.1344 624.321 26.4787 623.697 28.1591C623.121 29.7915 622.833 31.832 622.833 34.2807C622.833 36.9213 623.385 39.2259 624.489 41.1944C625.593 43.1629 627.082 44.6993 628.954 45.8036C630.827 46.8598 632.891 47.388 635.148 47.388C636.924 47.388 638.389 47.2199 639.541 46.8838C640.693 46.4997 641.653 46.0436 642.422 45.5155C643.19 44.9874 643.862 44.4832 644.438 44.0031C645.158 43.571 645.878 43.355 646.599 43.355C647.463 43.355 648.183 43.667 648.759 44.2912C649.335 44.8673 649.623 45.5635 649.623 46.3797C649.623 47.436 649.095 48.3962 648.039 49.2604C646.743 50.5088 644.942 51.613 642.638 52.5733C640.381 53.5335 638.004 54.0136 635.508 54.0136ZM679.297 14.5477C682.706 14.5477 685.347 15.2679 687.219 16.7082C689.092 18.1006 690.388 19.9971 691.108 22.3977C691.876 24.7503 692.26 27.3909 692.26 30.3197V49.6205C692.26 50.6768 691.9 51.565 691.18 52.2852C690.508 52.9574 689.668 53.2935 688.659 53.2935C687.603 53.2935 686.739 52.9574 686.067 52.2852C685.395 51.565 685.059 50.6768 685.059 49.6205V30.3917C685.059 28.6633 684.818 27.1269 684.338 25.7825C683.858 24.3902 683.018 23.2859 681.818 22.4697C680.665 21.6055 679.033 21.1734 676.92 21.1734C674.952 21.1734 673.224 21.6055 671.735 22.4697C670.247 23.2859 669.071 24.3902 668.206 25.7825C667.39 27.1269 666.982 28.6633 666.982 30.3917V49.6205C666.982 50.6768 666.622 51.565 665.902 52.2852C665.23 52.9574 664.389 53.2935 663.381 53.2935C662.325 53.2935 661.461 52.9574 660.788 52.2852C660.116 51.565 659.78 50.6768 659.78 49.6205V19.0848C659.78 18.0286 660.116 17.1644 660.788 16.4922C661.461 15.772 662.325 15.4119 663.381 15.4119C664.389 15.4119 665.23 15.772 665.902 16.4922C666.622 17.1644 666.982 18.0286 666.982 19.0848V23.1179L665.686 23.838C666.022 22.7818 666.598 21.7255 667.414 20.6692C668.278 19.565 669.311 18.5567 670.511 17.6445C671.711 16.6842 673.056 15.94 674.544 15.4119C676.032 14.8358 677.617 14.5477 679.297 14.5477ZM750.463 15.1238C751.519 15.1238 752.383 15.4839 753.055 16.2041C753.728 16.8763 754.064 17.7405 754.064 18.7968V49.7646C754.064 53.9896 753.248 57.4225 751.615 60.0632C750.031 62.7038 747.87 64.6243 745.133 65.8246C742.445 67.0729 739.396 67.6971 735.987 67.6971C734.259 67.6971 732.53 67.529 730.802 67.193C729.073 66.9049 727.657 66.4728 726.553 65.8966C725.401 65.3685 724.584 64.7203 724.104 63.9521C723.624 63.1839 723.552 62.3437 723.888 61.4315C724.224 60.2792 724.8 59.487 725.617 59.0549C726.433 58.6708 727.273 58.6468 728.137 58.9829C728.953 59.319 730.034 59.7511 731.378 60.2792C732.722 60.8073 734.259 61.0714 735.987 61.0714C738.34 61.0714 740.332 60.6873 741.965 59.9191C743.597 59.1509 744.821 57.9506 745.638 56.3182C746.502 54.6858 746.934 52.5733 746.934 49.9806V45.0114L748.086 46.7398C747.318 48.3242 746.31 49.6445 745.061 50.7008C743.813 51.7571 742.325 52.5733 740.596 53.1494C738.916 53.7256 737.043 54.0136 734.979 54.0136C732.338 54.0136 730.058 53.4375 728.137 52.2852C726.265 51.0849 724.824 49.4525 723.816 47.388C722.808 45.2754 722.304 42.8748 722.304 40.1862V18.7968C722.304 17.7405 722.64 16.8763 723.312 16.2041C723.984 15.4839 724.848 15.1238 725.905 15.1238C726.913 15.1238 727.753 15.4839 728.425 16.2041C729.145 16.8763 729.506 17.7405 729.506 18.7968V38.2417C729.506 41.4105 730.202 43.739 731.594 45.2274C732.986 46.6678 735.051 47.388 737.788 47.388C739.612 47.388 741.196 47.0039 742.541 46.2357C743.885 45.4675 744.941 44.4112 745.71 43.0669C746.478 41.6745 746.862 40.0661 746.862 38.2417V18.7968C746.862 17.7405 747.198 16.8763 747.87 16.2041C748.59 15.4839 749.455 15.1238 750.463 15.1238ZM800.096 34.3527C800.096 38.1937 799.256 41.6025 797.575 44.5793C795.895 47.508 793.614 49.8126 790.733 51.493C787.853 53.1734 784.612 54.0136 781.011 54.0136C777.41 54.0136 774.169 53.1734 771.288 51.493C768.408 49.8126 766.103 47.508 764.375 44.5793C762.694 41.6025 761.854 38.1937 761.854 34.3527C761.854 30.4637 762.694 27.0548 764.375 24.1261C766.103 21.1494 768.408 18.8208 771.288 17.1403C774.169 15.4119 777.41 14.5477 781.011 14.5477C784.612 14.5477 787.853 15.4119 790.733 17.1403C793.614 18.8208 795.895 21.1494 797.575 24.1261C799.256 27.0548 800.096 30.4637 800.096 34.3527ZM792.894 34.3527C792.894 31.712 792.366 29.4314 791.31 27.511C790.253 25.5425 788.813 24.0061 786.988 22.9018C785.212 21.7495 783.219 21.1734 781.011 21.1734C778.802 21.1734 776.786 21.7495 774.961 22.9018C773.137 24.0061 771.697 25.5425 770.64 27.511C769.584 29.4314 769.056 31.712 769.056 34.3527C769.056 36.8973 769.584 39.1539 770.64 41.1224C771.697 43.0909 773.137 44.6273 774.961 45.7316C776.786 46.8358 778.802 47.388 781.011 47.388C783.219 47.388 785.212 46.8358 786.988 45.7316C788.813 44.6273 790.253 43.0909 791.31 41.1224C792.366 39.1539 792.894 36.8973 792.894 34.3527ZM836.478 15.4119C837.487 15.4119 838.327 15.772 838.999 16.4922C839.719 17.1644 840.079 18.0286 840.079 19.0848V38.0256C840.079 43.0189 838.687 46.9319 835.902 49.7646C833.118 52.5493 829.181 53.9416 824.091 53.9416C819.05 53.9416 815.137 52.5493 812.352 49.7646C809.616 46.9319 808.247 43.0189 808.247 38.0256V19.0848C808.247 18.0286 808.583 17.1644 809.256 16.4922C809.928 15.772 810.792 15.4119 811.848 15.4119C812.856 15.4119 813.697 15.772 814.369 16.4922C815.089 17.1644 815.449 18.0286 815.449 19.0848V38.0256C815.449 41.1464 816.169 43.475 817.61 45.0114C819.098 46.5478 821.259 47.316 824.091 47.316C826.972 47.316 829.157 46.5478 830.645 45.0114C832.133 43.475 832.877 41.1464 832.877 38.0256V19.0848C832.877 18.0286 833.214 17.1644 833.886 16.4922C834.558 15.772 835.422 15.4119 836.478 15.4119ZM867.905 47.388C867.473 46.7158 867.281 45.9476 867.329 45.0834C867.377 44.1712 867.881 43.403 868.842 42.7788C869.514 42.3467 870.21 42.1787 870.93 42.2747C871.698 42.3227 872.418 42.6828 873.091 43.355C874.435 44.8433 875.923 46.0196 877.556 46.8838C879.236 47.7481 881.253 48.1802 883.605 48.1802C884.565 48.1322 885.55 47.9881 886.558 47.7481C887.566 47.46 888.43 46.9799 889.151 46.3077C889.871 45.5875 890.231 44.5553 890.231 43.2109C890.231 42.0106 889.847 41.0504 889.079 40.3302C888.31 39.61 887.302 39.0339 886.054 38.6018C884.806 38.1216 883.461 37.6895 882.021 37.3054C880.484 36.8733 878.924 36.3932 877.34 35.8651C875.803 35.3369 874.411 34.6648 873.163 33.8486C871.914 32.9843 870.882 31.8801 870.066 30.5357C869.298 29.1914 868.914 27.535 868.914 25.5665C868.914 23.3099 869.538 21.3654 870.786 19.733C872.082 18.1006 873.739 16.8283 875.755 15.916C877.82 15.0038 880.052 14.5477 882.453 14.5477C883.845 14.5477 885.31 14.7397 886.846 15.1238C888.382 15.4599 889.871 16.0121 891.311 16.7803C892.752 17.5484 894 18.5567 895.056 19.805C895.536 20.4292 895.8 21.1734 895.848 22.0376C895.944 22.9018 895.56 23.67 894.696 24.3422C894.12 24.8223 893.424 25.0383 892.608 24.9903C891.791 24.9423 891.119 24.6782 890.591 24.1981C889.679 23.0458 888.502 22.1576 887.062 21.5335C885.622 20.8613 883.989 20.5252 882.165 20.5252C881.253 20.5252 880.292 20.6692 879.284 20.9573C878.324 21.1974 877.508 21.6535 876.836 22.3257C876.163 22.9978 875.827 23.9821 875.827 25.2784C875.827 26.4787 876.211 27.4389 876.98 28.1591C877.796 28.8793 878.852 29.4795 880.148 29.9596C881.445 30.4397 882.861 30.8718 884.397 31.2559C885.886 31.64 887.35 32.0961 888.791 32.6242C890.279 33.1524 891.599 33.8486 892.752 34.7128C893.952 35.529 894.912 36.6093 895.632 37.9536C896.4 39.2499 896.785 40.9063 896.785 42.9228C896.785 45.2754 896.088 47.2919 894.696 48.9724C893.352 50.6048 891.623 51.8531 889.511 52.7173C887.446 53.5815 885.262 54.0136 882.957 54.0136C880.22 54.0136 877.484 53.5335 874.747 52.5733C872.058 51.565 869.778 49.8366 867.905 47.388ZM904.025 15.844H920.949C921.91 15.844 922.702 16.1801 923.326 16.8523C923.998 17.4764 924.334 18.2686 924.334 19.2289C924.334 20.1411 923.998 20.9093 923.326 21.5335C922.702 22.1576 921.91 22.4697 920.949 22.4697H904.025C903.065 22.4697 902.249 22.1576 901.577 21.5335C900.952 20.8613 900.64 20.0691 900.64 19.1569C900.64 18.1966 900.952 17.4044 901.577 16.7803C902.249 16.1561 903.065 15.844 904.025 15.844ZM911.587 6.48166C912.643 6.48166 913.508 6.84175 914.18 7.56193C914.852 8.2341 915.188 9.09832 915.188 10.1546V43.571C915.188 44.4352 915.332 45.1314 915.62 45.6595C915.908 46.1877 916.292 46.5478 916.772 46.7398C917.301 46.9319 917.829 47.0279 918.357 47.0279C918.885 47.0279 919.341 46.9319 919.725 46.7398C920.157 46.5478 920.661 46.4517 921.238 46.4517C921.814 46.4517 922.342 46.7158 922.822 47.2439C923.302 47.7721 923.542 48.4922 923.542 49.4045C923.542 50.5568 922.918 51.493 921.67 52.2132C920.421 52.9334 919.077 53.2935 917.637 53.2935C916.82 53.2935 915.86 53.2214 914.756 53.0774C913.652 52.9334 912.571 52.5733 911.515 51.9971C910.507 51.421 909.667 50.5088 908.994 49.2604C908.322 47.9641 907.986 46.1637 907.986 43.8591V10.1546C907.986 9.09832 908.322 8.2341 908.994 7.56193C909.715 6.84175 910.579 6.48166 911.587 6.48166ZM968.255 34.3527C968.255 38.1937 967.415 41.6025 965.735 44.5793C964.054 47.508 961.774 49.8126 958.893 51.493C956.012 53.1734 952.771 54.0136 949.17 54.0136C945.57 54.0136 942.329 53.1734 939.448 51.493C936.567 49.8126 934.263 47.508 932.534 44.5793C930.854 41.6025 930.014 38.1937 930.014 34.3527C930.014 30.4637 930.854 27.0548 932.534 24.1261C934.263 21.1494 936.567 18.8208 939.448 17.1403C942.329 15.4119 945.57 14.5477 949.17 14.5477C952.771 14.5477 956.012 15.4119 958.893 17.1403C961.774 18.8208 964.054 21.1494 965.735 24.1261C967.415 27.0548 968.255 30.4637 968.255 34.3527ZM961.053 34.3527C961.053 31.712 960.525 29.4314 959.469 27.511C958.413 25.5425 956.972 24.0061 955.148 22.9018C953.372 21.7495 951.379 21.1734 949.17 21.1734C946.962 21.1734 944.945 21.7495 943.121 22.9018C941.296 24.0061 939.856 25.5425 938.8 27.511C937.744 29.4314 937.215 31.712 937.215 34.3527C937.215 36.8973 937.744 39.1539 938.8 41.1224C939.856 43.0909 941.296 44.6273 943.121 45.7316C944.945 46.8358 946.962 47.388 949.17 47.388C951.379 47.388 953.372 46.8358 955.148 45.7316C956.972 44.6273 958.413 43.0909 959.469 41.1224C960.525 39.1539 961.053 36.8973 961.053 34.3527ZM995.492 14.7637C998.852 14.7637 1001.83 15.604 1004.42 17.2844C1007.06 18.9648 1009.15 21.2694 1010.69 24.1981C1012.22 27.0789 1012.99 30.4397 1012.99 34.2807C1012.99 38.1216 1012.22 41.5305 1010.69 44.5072C1009.15 47.436 1007.09 49.7406 1004.49 51.421C1001.9 53.1014 998.973 53.9416 995.708 53.9416C993.883 53.9416 992.155 53.6535 990.522 53.0774C988.89 52.5013 987.45 51.7571 986.201 50.8448C984.953 49.8846 983.921 48.8763 983.105 47.8201C982.336 46.7638 981.856 45.7796 981.664 44.8673L983.609 43.9311V64.0242C983.609 65.0804 983.249 65.9446 982.528 66.6168C981.856 67.337 981.016 67.6971 980.008 67.6971C978.951 67.6971 978.087 67.337 977.415 66.6168C976.743 65.9446 976.407 65.0804 976.407 64.0242V18.9408C976.407 17.9325 976.743 17.0683 977.415 16.3481C978.087 15.628 978.951 15.2679 980.008 15.2679C981.016 15.2679 981.856 15.628 982.528 16.3481C983.249 17.0683 983.609 17.9325 983.609 18.9408V23.9101L982.456 23.2619C982.6 22.3497 983.056 21.4134 983.825 20.4532C984.593 19.4449 985.553 18.5087 986.705 17.6445C987.906 16.7803 989.25 16.0841 990.738 15.5559C992.275 15.0278 993.859 14.7637 995.492 14.7637ZM994.699 21.3894C992.395 21.3894 990.378 21.9656 988.65 23.1179C986.969 24.2221 985.649 25.7345 984.689 27.655C983.729 29.5755 983.249 31.784 983.249 34.2807C983.249 36.7293 983.729 38.9618 984.689 40.9784C985.649 42.9468 986.969 44.5072 988.65 45.6595C990.378 46.7638 992.395 47.316 994.699 47.316C996.956 47.316 998.924 46.7638 1000.6 45.6595C1002.29 44.5072 1003.61 42.9468 1004.57 40.9784C1005.57 38.9618 1006.08 36.7293 1006.08 34.2807C1006.08 31.832 1005.57 29.6475 1004.57 27.727C1003.61 25.7585 1002.29 24.2221 1000.6 23.1179C998.924 21.9656 996.956 21.3894 994.699 21.3894ZM1072.22 14.8358C1073.28 14.8358 1074.14 15.1959 1074.81 15.916C1075.49 16.5882 1075.82 17.4524 1075.82 18.5087V49.6205C1075.82 50.6768 1075.49 51.565 1074.81 52.2852C1074.14 52.9574 1073.28 53.2935 1072.22 53.2935C1071.21 53.2935 1070.35 52.9574 1069.63 52.2852C1068.96 51.565 1068.62 50.6768 1068.62 49.6205V44.4352L1070.13 44.6513C1070.13 45.5155 1069.77 46.4757 1069.05 47.532C1068.38 48.5883 1067.44 49.6205 1066.24 50.6288C1065.04 51.589 1063.63 52.4052 1061.99 53.0774C1060.36 53.7016 1058.61 54.0136 1056.74 54.0136C1053.42 54.0136 1050.45 53.1734 1047.81 51.493C1045.17 49.7646 1043.08 47.412 1041.54 44.4352C1040 41.4585 1039.24 38.0736 1039.24 34.2807C1039.24 30.3917 1040 26.9828 1041.54 24.0541C1043.08 21.0773 1045.14 18.7488 1047.73 17.0683C1050.38 15.3879 1053.3 14.5477 1056.52 14.5477C1058.59 14.5477 1060.48 14.8838 1062.21 15.5559C1063.99 16.2281 1065.52 17.0923 1066.82 18.1486C1068.12 19.2049 1069.1 20.3332 1069.77 21.5335C1070.49 22.6857 1070.85 23.79 1070.85 24.8463L1068.62 25.0623V18.5087C1068.62 17.5004 1068.96 16.6362 1069.63 15.916C1070.35 15.1959 1071.21 14.8358 1072.22 14.8358ZM1057.53 47.388C1059.79 47.388 1061.78 46.8118 1063.51 45.6595C1065.24 44.5072 1066.58 42.9468 1067.54 40.9784C1068.5 38.9618 1068.98 36.7293 1068.98 34.2807C1068.98 31.784 1068.5 29.5515 1067.54 27.583C1066.58 25.6145 1065.24 24.0541 1063.51 22.9018C1061.78 21.7495 1059.79 21.1734 1057.53 21.1734C1055.32 21.1734 1053.35 21.7495 1051.62 22.9018C1049.94 24.0541 1048.6 25.6145 1047.59 27.583C1046.63 29.5515 1046.15 31.784 1046.15 34.2807C1046.15 36.7293 1046.63 38.9618 1047.59 40.9784C1048.6 42.9468 1049.94 44.5072 1051.62 45.6595C1053.35 46.8118 1055.32 47.388 1057.53 47.388ZM1102.69 14.5477C1105.28 14.5477 1107.59 14.8358 1109.6 15.4119C1111.62 15.94 1113.18 16.7082 1114.29 17.7165C1115.44 18.6767 1116.01 19.805 1116.01 21.1013C1116.01 21.9176 1115.77 22.6857 1115.29 23.4059C1114.81 24.0781 1114.09 24.4142 1113.13 24.4142C1112.46 24.4142 1111.89 24.2941 1111.41 24.0541C1110.97 23.814 1110.57 23.526 1110.18 23.1899C1109.8 22.8538 1109.32 22.5177 1108.74 22.1816C1108.21 21.8935 1107.42 21.6535 1106.36 21.4614C1105.36 21.2694 1104.44 21.1734 1103.63 21.1734C1101.08 21.1734 1098.87 21.7495 1097 22.9018C1095.18 24.0541 1093.74 25.6145 1092.68 27.583C1091.67 29.5515 1091.17 31.784 1091.17 34.2807C1091.17 36.7773 1091.67 39.0099 1092.68 40.9784C1093.74 42.9468 1095.15 44.5072 1096.93 45.6595C1098.75 46.8118 1100.87 47.388 1103.27 47.388C1104.71 47.388 1105.88 47.2919 1106.8 47.0999C1107.71 46.8598 1108.5 46.5718 1109.17 46.2357C1109.89 45.8036 1110.49 45.3715 1110.97 44.9394C1111.5 44.4592 1112.22 44.2192 1113.13 44.2192C1114.19 44.2192 1114.98 44.5553 1115.51 45.2274C1116.09 45.8516 1116.37 46.6438 1116.37 47.604C1116.37 48.6603 1115.73 49.6925 1114.43 50.7008C1113.18 51.661 1111.5 52.4532 1109.39 53.0774C1107.28 53.7016 1104.95 54.0136 1102.4 54.0136C1098.66 54.0136 1095.39 53.1494 1092.61 51.421C1089.87 49.6925 1087.74 47.34 1086.2 44.3632C1084.71 41.3865 1083.97 38.0256 1083.97 34.2807C1083.97 30.4877 1084.76 27.1269 1086.34 24.1981C1087.93 21.2214 1090.14 18.8688 1092.97 17.1403C1095.8 15.4119 1099.04 14.5477 1102.69 14.5477ZM1140.04 14.5477C1142.63 14.5477 1144.93 14.8358 1146.95 15.4119C1148.97 15.94 1150.53 16.7082 1151.63 17.7165C1152.78 18.6767 1153.36 19.805 1153.36 21.1013C1153.36 21.9176 1153.12 22.6857 1152.64 23.4059C1152.16 24.0781 1151.44 24.4142 1150.48 24.4142C1149.81 24.4142 1149.23 24.2941 1148.75 24.0541C1148.32 23.814 1147.91 23.526 1147.53 23.1899C1147.14 22.8538 1146.66 22.5177 1146.09 22.1816C1145.56 21.8935 1144.77 21.6535 1143.71 21.4614C1142.7 21.2694 1141.79 21.1734 1140.97 21.1734C1138.43 21.1734 1136.22 21.7495 1134.35 22.9018C1132.52 24.0541 1131.08 25.6145 1130.03 27.583C1129.02 29.5515 1128.51 31.784 1128.51 34.2807C1128.51 36.7773 1129.02 39.0099 1130.03 40.9784C1131.08 42.9468 1132.5 44.5072 1134.28 45.6595C1136.1 46.8118 1138.21 47.388 1140.61 47.388C1142.05 47.388 1143.23 47.2919 1144.14 47.0999C1145.05 46.8598 1145.85 46.5718 1146.52 46.2357C1147.24 45.8036 1147.84 45.3715 1148.32 44.9394C1148.85 44.4592 1149.57 44.2192 1150.48 44.2192C1151.54 44.2192 1152.33 44.5553 1152.86 45.2274C1153.43 45.8516 1153.72 46.6438 1153.72 47.604C1153.72 48.6603 1153.07 49.6925 1151.78 50.7008C1150.53 51.661 1148.85 52.4532 1146.73 53.0774C1144.62 53.7016 1142.29 54.0136 1139.75 54.0136C1136 54.0136 1132.74 53.1494 1129.95 51.421C1127.22 49.6925 1125.08 47.34 1123.54 44.3632C1122.06 41.3865 1121.31 38.0256 1121.31 34.2807C1121.31 30.4877 1122.1 27.1269 1123.69 24.1981C1125.27 21.2214 1127.48 18.8688 1130.31 17.1403C1133.15 15.4119 1136.39 14.5477 1140.04 14.5477ZM1178.25 54.0136C1174.26 54.0136 1170.8 53.1974 1167.88 51.565C1164.95 49.8846 1162.67 47.604 1161.03 44.7233C1159.45 41.7946 1158.66 38.4577 1158.66 34.7128C1158.66 30.4877 1159.5 26.8868 1161.18 23.9101C1162.91 20.8853 1165.14 18.5807 1167.88 16.9963C1170.61 15.3639 1173.52 14.5477 1176.59 14.5477C1178.94 14.5477 1181.17 15.0278 1183.29 15.9881C1185.4 16.9003 1187.27 18.1966 1188.9 19.877C1190.59 21.5094 1191.91 23.4539 1192.87 25.7105C1193.83 27.9191 1194.33 30.3437 1194.38 32.9843C1194.33 33.9446 1193.95 34.7368 1193.23 35.3609C1192.51 35.9851 1191.67 36.2972 1190.71 36.2972H1162.69L1160.96 30.1756H1188.04L1186.67 31.472V29.6715C1186.58 27.9911 1186.02 26.5267 1185.02 25.2784C1184.01 23.9821 1182.76 22.9978 1181.27 22.3257C1179.78 21.6055 1178.22 21.2454 1176.59 21.2454C1175.15 21.2454 1173.76 21.4854 1172.41 21.9656C1171.12 22.3977 1169.94 23.1179 1168.88 24.1261C1167.88 25.1344 1167.06 26.4787 1166.44 28.1591C1165.86 29.7915 1165.57 31.832 1165.57 34.2807C1165.57 36.9213 1166.12 39.2259 1167.23 41.1944C1168.33 43.1629 1169.82 44.6993 1171.69 45.8036C1173.56 46.8598 1175.63 47.388 1177.89 47.388C1179.66 47.388 1181.13 47.2199 1182.28 46.8838C1183.43 46.4997 1184.39 46.0436 1185.16 45.5155C1185.93 44.9874 1186.6 44.4832 1187.18 44.0031C1187.9 43.571 1188.62 43.355 1189.34 43.355C1190.2 43.355 1190.92 43.667 1191.5 44.2912C1192.07 44.8673 1192.36 45.5635 1192.36 46.3797C1192.36 47.436 1191.83 48.3962 1190.78 49.2604C1189.48 50.5088 1187.68 51.613 1185.38 52.5733C1183.12 53.5335 1180.74 54.0136 1178.25 54.0136ZM1221.6 14.7637C1224.96 14.7637 1227.94 15.604 1230.53 17.2844C1233.17 18.9648 1235.26 21.2694 1236.8 24.1981C1238.34 27.0789 1239.1 30.4397 1239.1 34.2807C1239.1 38.1216 1238.34 41.5305 1236.8 44.5072C1235.26 47.436 1233.2 49.7406 1230.61 51.421C1228.01 53.1014 1225.08 53.9416 1221.82 53.9416C1219.99 53.9416 1218.27 53.6535 1216.63 53.0774C1215 52.5013 1213.56 51.7571 1212.31 50.8448C1211.06 49.8846 1210.03 48.8763 1209.22 47.8201C1208.45 46.7638 1207.97 45.7796 1207.78 44.8673L1209.72 43.9311V64.0242C1209.72 65.0804 1209.36 65.9446 1208.64 66.6168C1207.97 67.337 1207.13 67.6971 1206.12 67.6971C1205.06 67.6971 1204.2 67.337 1203.53 66.6168C1202.85 65.9446 1202.52 65.0804 1202.52 64.0242V18.9408C1202.52 17.9325 1202.85 17.0683 1203.53 16.3481C1204.2 15.628 1205.06 15.2679 1206.12 15.2679C1207.13 15.2679 1207.97 15.628 1208.64 16.3481C1209.36 17.0683 1209.72 17.9325 1209.72 18.9408V23.9101L1208.57 23.2619C1208.71 22.3497 1209.17 21.4134 1209.94 20.4532C1210.7 19.4449 1211.66 18.5087 1212.82 17.6445C1214.02 16.7803 1215.36 16.0841 1216.85 15.5559C1218.39 15.0278 1219.97 14.7637 1221.6 14.7637ZM1220.81 21.3894C1218.51 21.3894 1216.49 21.9656 1214.76 23.1179C1213.08 24.2221 1211.76 25.7345 1210.8 27.655C1209.84 29.5755 1209.36 31.784 1209.36 34.2807C1209.36 36.7293 1209.84 38.9618 1210.8 40.9784C1211.76 42.9468 1213.08 44.5072 1214.76 45.6595C1216.49 46.7638 1218.51 47.316 1220.81 47.316C1223.07 47.316 1225.04 46.7638 1226.72 45.6595C1228.4 44.5072 1229.72 42.9468 1230.68 40.9784C1231.69 38.9618 1232.19 36.7293 1232.19 34.2807C1232.19 31.832 1231.69 29.6475 1230.68 27.727C1229.72 25.7585 1228.4 24.2221 1226.72 23.1179C1225.04 21.9656 1223.07 21.3894 1220.81 21.3894ZM1246.74 15.844H1263.67C1264.63 15.844 1265.42 16.1801 1266.05 16.8523C1266.72 17.4764 1267.05 18.2686 1267.05 19.2289C1267.05 20.1411 1266.72 20.9093 1266.05 21.5335C1265.42 22.1576 1264.63 22.4697 1263.67 22.4697H1246.74C1245.78 22.4697 1244.97 22.1576 1244.3 21.5335C1243.67 20.8613 1243.36 20.0691 1243.36 19.1569C1243.36 18.1966 1243.67 17.4044 1244.3 16.7803C1244.97 16.1561 1245.78 15.844 1246.74 15.844ZM1254.31 6.48166C1255.36 6.48166 1256.23 6.84175 1256.9 7.56193C1257.57 8.2341 1257.91 9.09832 1257.91 10.1546V43.571C1257.91 44.4352 1258.05 45.1314 1258.34 45.6595C1258.63 46.1877 1259.01 46.5478 1259.49 46.7398C1260.02 46.9319 1260.55 47.0279 1261.08 47.0279C1261.6 47.0279 1262.06 46.9319 1262.44 46.7398C1262.88 46.5478 1263.38 46.4517 1263.96 46.4517C1264.53 46.4517 1265.06 46.7158 1265.54 47.2439C1266.02 47.7721 1266.26 48.4922 1266.26 49.4045C1266.26 50.5568 1265.64 51.493 1264.39 52.2132C1263.14 52.9334 1261.8 53.2935 1260.36 53.2935C1259.54 53.2935 1258.58 53.2214 1257.48 53.0774C1256.37 52.9334 1255.29 52.5733 1254.23 51.9971C1253.23 51.421 1252.39 50.5088 1251.71 49.2604C1251.04 47.9641 1250.71 46.1637 1250.71 43.8591V10.1546C1250.71 9.09832 1251.04 8.2341 1251.71 7.56193C1252.43 6.84175 1253.3 6.48166 1254.31 6.48166ZM1281.8 49.6205C1281.8 50.6768 1281.46 51.565 1280.79 52.2852C1280.12 52.9574 1279.25 53.2935 1278.2 53.2935C1277.19 53.2935 1276.33 52.9574 1275.61 52.2852C1274.93 51.565 1274.6 50.6768 1274.6 49.6205V18.7968C1274.6 17.7405 1274.93 16.8763 1275.61 16.2041C1276.33 15.4839 1277.19 15.1238 1278.2 15.1238C1279.25 15.1238 1280.12 15.4839 1280.79 16.2041C1281.46 16.8763 1281.8 17.7405 1281.8 18.7968V49.6205ZM1278.13 10.3706C1276.73 10.3706 1275.73 10.1306 1275.1 9.65046C1274.48 9.12233 1274.16 8.25811 1274.16 7.05781V5.90551C1274.16 4.70521 1274.5 3.865 1275.17 3.38488C1275.85 2.90476 1276.85 2.6647 1278.2 2.6647C1279.64 2.6647 1280.67 2.92877 1281.29 3.4569C1281.92 3.93702 1282.23 4.75322 1282.23 5.90551V7.05781C1282.23 8.30612 1281.89 9.17034 1281.22 9.65046C1280.6 10.1306 1279.57 10.3706 1278.13 10.3706ZM1311 14.5477C1314.41 14.5477 1317.05 15.2679 1318.93 16.7082C1320.8 18.1006 1322.09 19.9971 1322.81 22.3977C1323.58 24.7503 1323.97 27.3909 1323.97 30.3197V49.6205C1323.97 50.6768 1323.61 51.565 1322.89 52.2852C1322.21 52.9574 1321.37 53.2935 1320.37 53.2935C1319.31 53.2935 1318.44 52.9574 1317.77 52.2852C1317.1 51.565 1316.76 50.6768 1316.76 49.6205V30.3917C1316.76 28.6633 1316.52 27.1269 1316.04 25.7825C1315.56 24.3902 1314.72 23.2859 1313.52 22.4697C1312.37 21.6055 1310.74 21.1734 1308.63 21.1734C1306.66 21.1734 1304.93 21.6055 1303.44 22.4697C1301.95 23.2859 1300.78 24.3902 1299.91 25.7825C1299.1 27.1269 1298.69 28.6633 1298.69 30.3917V49.6205C1298.69 50.6768 1298.33 51.565 1297.61 52.2852C1296.94 52.9574 1296.1 53.2935 1295.09 53.2935C1294.03 53.2935 1293.17 52.9574 1292.49 52.2852C1291.82 51.565 1291.49 50.6768 1291.49 49.6205V19.0848C1291.49 18.0286 1291.82 17.1644 1292.49 16.4922C1293.17 15.772 1294.03 15.4119 1295.09 15.4119C1296.1 15.4119 1296.94 15.772 1297.61 16.4922C1298.33 17.1644 1298.69 18.0286 1298.69 19.0848V23.1179L1297.39 23.838C1297.73 22.7818 1298.3 21.7255 1299.12 20.6692C1299.98 19.565 1301.02 18.5567 1302.22 17.6445C1303.42 16.6842 1304.76 15.94 1306.25 15.4119C1307.74 14.8358 1309.32 14.5477 1311 14.5477ZM1349.74 14.5477C1351.8 14.5477 1353.7 14.8838 1355.43 15.5559C1357.16 16.2281 1358.64 17.0923 1359.89 18.1486C1361.19 19.1569 1362.2 20.2131 1362.92 21.3174C1363.64 22.4217 1364 23.3819 1364 24.1981L1362.34 24.2701V18.5087C1362.34 17.5004 1362.68 16.6362 1363.35 15.916C1364.02 15.1959 1364.89 14.8358 1365.94 14.8358C1367 14.8358 1367.86 15.1959 1368.53 15.916C1369.21 16.5882 1369.54 17.4524 1369.54 18.5087V50.2687C1369.54 54.3497 1368.68 57.6626 1366.95 60.2072C1365.22 62.7999 1362.92 64.6963 1360.04 65.8966C1357.2 67.0969 1354.08 67.6971 1350.67 67.6971C1349.47 67.6971 1348.06 67.529 1346.42 67.193C1344.79 66.9049 1343.28 66.5448 1341.89 66.1127C1340.54 65.6806 1339.61 65.2485 1339.08 64.8164C1337.97 64.2402 1337.23 63.568 1336.85 62.7999C1336.51 62.0317 1336.51 61.2635 1336.85 60.4953C1337.33 59.439 1337.97 58.7908 1338.79 58.5508C1339.61 58.3107 1340.54 58.3827 1341.6 58.7668C1342.08 58.9109 1342.82 59.1749 1343.83 59.559C1344.84 59.9431 1345.97 60.2792 1347.22 60.5673C1348.47 60.9034 1349.64 61.0714 1350.75 61.0714C1354.59 61.0714 1357.47 60.1832 1359.39 58.4067C1361.36 56.6303 1362.34 54.2057 1362.34 51.1329V44.6513L1363.13 45.1554C1362.99 46.1637 1362.53 47.1959 1361.76 48.2522C1361.04 49.2604 1360.08 50.1967 1358.88 51.0609C1357.68 51.9251 1356.29 52.6453 1354.71 53.2214C1353.17 53.7496 1351.59 54.0136 1349.95 54.0136C1346.54 54.0136 1343.5 53.1734 1340.81 51.493C1338.12 49.7646 1335.98 47.436 1334.4 44.5072C1332.81 41.5305 1332.02 38.1216 1332.02 34.2807C1332.02 30.4397 1332.81 27.0548 1334.4 24.1261C1335.98 21.1494 1338.09 18.8208 1340.74 17.1403C1343.42 15.4119 1346.42 14.5477 1349.74 14.5477ZM1350.82 21.1734C1348.47 21.1734 1346.4 21.7495 1344.62 22.9018C1342.85 24.0541 1341.46 25.6145 1340.45 27.583C1339.44 29.5515 1338.93 31.784 1338.93 34.2807C1338.93 36.7773 1339.44 39.0099 1340.45 40.9784C1341.46 42.9468 1342.85 44.5072 1344.62 45.6595C1346.4 46.8118 1348.47 47.388 1350.82 47.388C1353.17 47.388 1355.24 46.8358 1357.01 45.7316C1358.79 44.5793 1360.18 43.0189 1361.19 41.0504C1362.2 39.0339 1362.7 36.7773 1362.7 34.2807C1362.7 31.784 1362.2 29.5515 1361.19 27.583C1360.18 25.5665 1358.79 24.0061 1357.01 22.9018C1355.24 21.7495 1353.17 21.1734 1350.82 21.1734ZM1418.6 14.7637C1422.15 14.7637 1424.89 15.652 1426.81 17.4284C1428.73 19.1569 1430 21.5094 1430.62 24.4862L1429.47 24.1261L1429.98 22.9738C1430.6 21.7255 1431.54 20.4772 1432.78 19.2289C1434.08 17.9325 1435.62 16.8763 1437.39 16.0601C1439.17 15.1959 1441.07 14.7637 1443.08 14.7637C1446.4 14.7637 1448.96 15.4839 1450.79 16.9243C1452.61 18.3166 1453.89 20.2131 1454.61 22.6137C1455.33 24.9663 1455.69 27.607 1455.69 30.5357V49.6205C1455.69 50.6768 1455.35 51.565 1454.68 52.2852C1454.01 52.9574 1453.14 53.2935 1452.08 53.2935C1451.08 53.2935 1450.21 52.9574 1449.49 52.2852C1448.82 51.565 1448.48 50.6768 1448.48 49.6205V30.6077C1448.48 28.9273 1448.24 27.3909 1447.76 25.9986C1447.33 24.6062 1446.54 23.5019 1445.39 22.6857C1444.28 21.8215 1442.75 21.3894 1440.78 21.3894C1438.91 21.3894 1437.23 21.8215 1435.74 22.6857C1434.3 23.5019 1433.17 24.6062 1432.35 25.9986C1431.54 27.3909 1431.13 28.9273 1431.13 30.6077V49.6205C1431.13 50.6768 1430.79 51.565 1430.12 52.2852C1429.45 52.9574 1428.58 53.2935 1427.53 53.2935C1426.47 53.2935 1425.61 52.9574 1424.93 52.2852C1424.26 51.565 1423.93 50.6768 1423.93 49.6205V30.5357C1423.93 28.8553 1423.69 27.3189 1423.21 25.9266C1422.77 24.5342 1422.01 23.4299 1420.9 22.6137C1419.8 21.7975 1418.26 21.3894 1416.29 21.3894C1414.42 21.3894 1412.76 21.7975 1411.32 22.6137C1409.88 23.4299 1408.75 24.5342 1407.94 25.9266C1407.17 27.3189 1406.79 28.8553 1406.79 30.5357V49.6205C1406.79 50.6768 1406.43 51.565 1405.71 52.2852C1405.03 52.9574 1404.19 53.2935 1403.18 53.2935C1402.13 53.2935 1401.26 52.9574 1400.59 52.2852C1399.92 51.565 1399.58 50.6768 1399.58 49.6205V19.0848C1399.58 18.0286 1399.92 17.1644 1400.59 16.4922C1401.26 15.772 1402.13 15.4119 1403.18 15.4119C1404.19 15.4119 1405.03 15.772 1405.71 16.4922C1406.43 17.1644 1406.79 18.0286 1406.79 19.0848V23.3339L1405.42 24.1261C1405.75 23.0698 1406.31 21.9896 1407.07 20.8853C1407.84 19.781 1408.8 18.7728 1409.95 17.8605C1411.15 16.9483 1412.48 16.2041 1413.92 15.628C1415.36 15.0518 1416.92 14.7637 1418.6 14.7637ZM1496.8 14.8358C1497.86 14.8358 1498.72 15.1959 1499.4 15.916C1500.07 16.5882 1500.41 17.4524 1500.41 18.5087V49.6205C1500.41 50.6768 1500.07 51.565 1499.4 52.2852C1498.72 52.9574 1497.86 53.2935 1496.8 53.2935C1495.8 53.2935 1494.93 52.9574 1494.21 52.2852C1493.54 51.565 1493.2 50.6768 1493.2 49.6205V44.4352L1494.72 44.6513C1494.72 45.5155 1494.36 46.4757 1493.64 47.532C1492.96 48.5883 1492.03 49.6205 1490.83 50.6288C1489.63 51.589 1488.21 52.4052 1486.58 53.0774C1484.95 53.7016 1483.19 54.0136 1481.32 54.0136C1478.01 54.0136 1475.03 53.1734 1472.39 51.493C1469.75 49.7646 1467.66 47.412 1466.12 44.4352C1464.59 41.4585 1463.82 38.0736 1463.82 34.2807C1463.82 30.3917 1464.59 26.9828 1466.12 24.0541C1467.66 21.0773 1469.73 18.7488 1472.32 17.0683C1474.96 15.3879 1477.89 14.5477 1481.1 14.5477C1483.17 14.5477 1485.07 14.8838 1486.79 15.5559C1488.57 16.2281 1490.11 17.0923 1491.4 18.1486C1492.7 19.2049 1493.68 20.3332 1494.36 21.5335C1495.08 22.6857 1495.44 23.79 1495.44 24.8463L1493.2 25.0623V18.5087C1493.2 17.5004 1493.54 16.6362 1494.21 15.916C1494.93 15.1959 1495.8 14.8358 1496.8 14.8358ZM1482.11 47.388C1484.37 47.388 1486.36 46.8118 1488.09 45.6595C1489.82 44.5072 1491.16 42.9468 1492.12 40.9784C1493.08 38.9618 1493.56 36.7293 1493.56 34.2807C1493.56 31.784 1493.08 29.5515 1492.12 27.583C1491.16 25.6145 1489.82 24.0541 1488.09 22.9018C1486.36 21.7495 1484.37 21.1734 1482.11 21.1734C1479.9 21.1734 1477.94 21.7495 1476.21 22.9018C1474.53 24.0541 1473.18 25.6145 1472.17 27.583C1471.21 29.5515 1470.73 31.784 1470.73 34.2807C1470.73 36.7293 1471.21 38.9618 1472.17 40.9784C1473.18 42.9468 1474.53 44.5072 1476.21 45.6595C1477.94 46.8118 1479.9 47.388 1482.11 47.388ZM1514.1 53.2935C1513.04 53.2935 1512.17 52.9574 1511.5 52.2852C1510.83 51.565 1510.49 50.6768 1510.49 49.6205V19.0848C1510.49 18.0286 1510.83 17.1644 1511.5 16.4922C1512.17 15.772 1513.04 15.4119 1514.1 15.4119C1515.1 15.4119 1515.94 15.772 1516.62 16.4922C1517.34 17.1644 1517.7 18.0286 1517.7 19.0848V27.1509L1516.98 24.0541C1517.36 22.7097 1517.94 21.4614 1518.7 20.3091C1519.52 19.1569 1520.48 18.1486 1521.59 17.2844C1522.69 16.4202 1523.91 15.748 1525.26 15.2679C1526.65 14.7878 1528.09 14.5477 1529.58 14.5477C1530.83 14.5477 1531.91 14.8838 1532.82 15.5559C1533.73 16.2281 1534.19 17.0683 1534.19 18.0766C1534.19 19.3729 1533.85 20.3332 1533.18 20.9573C1532.51 21.5335 1531.76 21.8215 1530.95 21.8215C1530.23 21.8215 1529.53 21.6775 1528.86 21.3894C1528.19 21.0533 1527.39 20.8853 1526.48 20.8853C1525.47 20.8853 1524.44 21.1494 1523.39 21.6775C1522.33 22.2056 1521.37 22.9978 1520.51 24.0541C1519.64 25.0623 1518.94 26.2626 1518.42 27.655C1517.94 29.0473 1517.7 30.6077 1517.7 32.3362V49.6205C1517.7 50.6768 1517.34 51.565 1516.62 52.2852C1515.94 52.9574 1515.1 53.2935 1514.1 53.2935ZM1544.77 53.2935C1543.76 53.2935 1542.9 52.9574 1542.18 52.2852C1541.51 51.565 1541.17 50.6768 1541.17 49.6205V3.67295C1541.17 2.61669 1541.51 1.75247 1542.18 1.0803C1542.9 0.360119 1543.76 2.86174e-05 1544.77 2.86174e-05C1545.83 2.86174e-05 1546.69 0.360119 1547.37 1.0803C1548.04 1.75247 1548.37 2.61669 1548.37 3.67295V49.6205C1548.37 50.6768 1548.04 51.565 1547.37 52.2852C1546.69 52.9574 1545.83 53.2935 1544.77 53.2935ZM1568.25 15.2679C1569.16 15.2679 1569.96 15.652 1570.63 16.4202C1571.3 17.1884 1571.64 17.9566 1571.64 18.7247C1571.64 19.685 1571.18 20.5732 1570.27 21.3894L1547.73 41.5545L1547.44 33.2724L1565.59 16.4202C1566.35 15.652 1567.24 15.2679 1568.25 15.2679ZM1569.12 53.2214C1568.11 53.2214 1567.24 52.8133 1566.52 51.9971L1552.12 36.8013L1557.59 31.76L1571.64 46.9559C1572.4 47.7721 1572.79 48.6843 1572.79 49.6925C1572.79 50.7488 1572.36 51.613 1571.49 52.2852C1570.68 52.9094 1569.88 53.2214 1569.12 53.2214ZM1596.78 54.0136C1592.8 54.0136 1589.34 53.1974 1586.41 51.565C1583.48 49.8846 1581.2 47.604 1579.57 44.7233C1577.98 41.7946 1577.19 38.4577 1577.19 34.7128C1577.19 30.4877 1578.03 26.8868 1579.71 23.9101C1581.44 20.8853 1583.67 18.5807 1586.41 16.9963C1589.15 15.3639 1592.05 14.5477 1595.12 14.5477C1597.48 14.5477 1599.71 15.0278 1601.82 15.9881C1603.94 16.9003 1605.81 18.1966 1607.44 19.877C1609.12 21.5094 1610.44 23.4539 1611.4 25.7105C1612.36 27.9191 1612.87 30.3437 1612.91 32.9843C1612.87 33.9446 1612.48 34.7368 1611.76 35.3609C1611.04 35.9851 1610.2 36.2972 1609.24 36.2972H1581.23L1579.5 30.1756H1606.58L1605.21 31.472V29.6715C1605.11 27.9911 1604.56 26.5267 1603.55 25.2784C1602.54 23.9821 1601.29 22.9978 1599.81 22.3257C1598.32 21.6055 1596.76 21.2454 1595.12 21.2454C1593.68 21.2454 1592.29 21.4854 1590.95 21.9656C1589.65 22.3977 1588.48 23.1179 1587.42 24.1261C1586.41 25.1344 1585.59 26.4787 1584.97 28.1591C1584.39 29.7915 1584.11 31.832 1584.11 34.2807C1584.11 36.9213 1584.66 39.2259 1585.76 41.1944C1586.87 43.1629 1588.36 44.6993 1590.23 45.8036C1592.1 46.8598 1594.16 47.388 1596.42 47.388C1598.2 47.388 1599.66 47.2199 1600.81 46.8838C1601.97 46.4997 1602.93 46.0436 1603.69 45.5155C1604.46 44.9874 1605.14 44.4832 1605.71 44.0031C1606.43 43.571 1607.15 43.355 1607.87 43.355C1608.74 43.355 1609.46 43.667 1610.03 44.2912C1610.61 44.8673 1610.9 45.5635 1610.9 46.3797C1610.9 47.436 1610.37 48.3962 1609.31 49.2604C1608.02 50.5088 1606.22 51.613 1603.91 52.5733C1601.65 53.5335 1599.28 54.0136 1596.78 54.0136ZM1620.55 15.844H1637.47C1638.43 15.844 1639.23 16.1801 1639.85 16.8523C1640.52 17.4764 1640.86 18.2686 1640.86 19.2289C1640.86 20.1411 1640.52 20.9093 1639.85 21.5335C1639.23 22.1576 1638.43 22.4697 1637.47 22.4697H1620.55C1619.59 22.4697 1618.77 22.1576 1618.1 21.5335C1617.48 20.8613 1617.16 20.0691 1617.16 19.1569C1617.16 18.1966 1617.48 17.4044 1618.1 16.7803C1618.77 16.1561 1619.59 15.844 1620.55 15.844ZM1628.11 6.48166C1629.17 6.48166 1630.03 6.84175 1630.7 7.56193C1631.38 8.2341 1631.71 9.09832 1631.71 10.1546V43.571C1631.71 44.4352 1631.86 45.1314 1632.14 45.6595C1632.43 46.1877 1632.82 46.5478 1633.3 46.7398C1633.82 46.9319 1634.35 47.0279 1634.88 47.0279C1635.41 47.0279 1635.87 46.9319 1636.25 46.7398C1636.68 46.5478 1637.19 46.4517 1637.76 46.4517C1638.34 46.4517 1638.87 46.7158 1639.35 47.2439C1639.83 47.7721 1640.07 48.4922 1640.07 49.4045C1640.07 50.5568 1639.44 51.493 1638.19 52.2132C1636.95 52.9334 1635.6 53.2935 1634.16 53.2935C1633.34 53.2935 1632.38 53.2214 1631.28 53.0774C1630.18 52.9334 1629.1 52.5733 1628.04 51.9971C1627.03 51.421 1626.19 50.5088 1625.52 49.2604C1624.85 47.9641 1624.51 46.1637 1624.51 43.8591V10.1546C1624.51 9.09832 1624.85 8.2341 1625.52 7.56193C1626.24 6.84175 1627.1 6.48166 1628.11 6.48166ZM1655.6 49.6205C1655.6 50.6768 1655.27 51.565 1654.6 52.2852C1653.92 52.9574 1653.06 53.2935 1652 53.2935C1650.99 53.2935 1650.13 52.9574 1649.41 52.2852C1648.74 51.565 1648.4 50.6768 1648.4 49.6205V18.7968C1648.4 17.7405 1648.74 16.8763 1649.41 16.2041C1650.13 15.4839 1650.99 15.1238 1652 15.1238C1653.06 15.1238 1653.92 15.4839 1654.6 16.2041C1655.27 16.8763 1655.6 17.7405 1655.6 18.7968V49.6205ZM1651.93 10.3706C1650.54 10.3706 1649.53 10.1306 1648.91 9.65046C1648.28 9.12233 1647.97 8.25811 1647.97 7.05781V5.90551C1647.97 4.70521 1648.31 3.865 1648.98 3.38488C1649.65 2.90476 1650.66 2.6647 1652 2.6647C1653.44 2.6647 1654.48 2.92877 1655.1 3.4569C1655.72 3.93702 1656.04 4.75322 1656.04 5.90551V7.05781C1656.04 8.30612 1655.7 9.17034 1655.03 9.65046C1654.4 10.1306 1653.37 10.3706 1651.93 10.3706ZM1684.81 14.5477C1688.22 14.5477 1690.86 15.2679 1692.73 16.7082C1694.6 18.1006 1695.9 19.9971 1696.62 22.3977C1697.39 24.7503 1697.77 27.3909 1697.77 30.3197V49.6205C1697.77 50.6768 1697.41 51.565 1696.69 52.2852C1696.02 52.9574 1695.18 53.2935 1694.17 53.2935C1693.11 53.2935 1692.25 52.9574 1691.58 52.2852C1690.91 51.565 1690.57 50.6768 1690.57 49.6205V30.3917C1690.57 28.6633 1690.33 27.1269 1689.85 25.7825C1689.37 24.3902 1688.53 23.2859 1687.33 22.4697C1686.18 21.6055 1684.54 21.1734 1682.43 21.1734C1680.46 21.1734 1678.73 21.6055 1677.25 22.4697C1675.76 23.2859 1674.58 24.3902 1673.72 25.7825C1672.9 27.1269 1672.49 28.6633 1672.49 30.3917V49.6205C1672.49 50.6768 1672.13 51.565 1671.41 52.2852C1670.74 52.9574 1669.9 53.2935 1668.89 53.2935C1667.84 53.2935 1666.97 52.9574 1666.3 52.2852C1665.63 51.565 1665.29 50.6768 1665.29 49.6205V19.0848C1665.29 18.0286 1665.63 17.1644 1666.3 16.4922C1666.97 15.772 1667.84 15.4119 1668.89 15.4119C1669.9 15.4119 1670.74 15.772 1671.41 16.4922C1672.13 17.1644 1672.49 18.0286 1672.49 19.0848V23.1179L1671.2 23.838C1671.53 22.7818 1672.11 21.7255 1672.93 20.6692C1673.79 19.565 1674.82 18.5567 1676.02 17.6445C1677.22 16.6842 1678.57 15.94 1680.06 15.4119C1681.54 14.8358 1683.13 14.5477 1684.81 14.5477ZM1723.54 14.5477C1725.61 14.5477 1727.5 14.8838 1729.23 15.5559C1730.96 16.2281 1732.45 17.0923 1733.7 18.1486C1734.99 19.1569 1736 20.2131 1736.72 21.3174C1737.44 22.4217 1737.8 23.3819 1737.8 24.1981L1736.15 24.2701V18.5087C1736.15 17.5004 1736.48 16.6362 1737.15 15.916C1737.83 15.1959 1738.69 14.8358 1739.75 14.8358C1740.8 14.8358 1741.67 15.1959 1742.34 15.916C1743.01 16.5882 1743.35 17.4524 1743.35 18.5087V50.2687C1743.35 54.3497 1742.48 57.6626 1740.76 60.2072C1739.03 62.7999 1736.72 64.6963 1733.84 65.8966C1731.01 67.0969 1727.89 67.6971 1724.48 67.6971C1723.28 67.6971 1721.86 67.529 1720.23 67.193C1718.6 66.9049 1717.09 66.5448 1715.69 66.1127C1714.35 65.6806 1713.41 65.2485 1712.88 64.8164C1711.78 64.2402 1711.04 63.568 1710.65 62.7999C1710.32 62.0317 1710.32 61.2635 1710.65 60.4953C1711.13 59.439 1711.78 58.7908 1712.6 58.5508C1713.41 58.3107 1714.35 58.3827 1715.4 58.7668C1715.88 58.9109 1716.63 59.1749 1717.64 59.559C1718.65 59.9431 1719.77 60.2792 1721.02 60.5673C1722.27 60.9034 1723.45 61.0714 1724.55 61.0714C1728.39 61.0714 1731.27 60.1832 1733.19 58.4067C1735.16 56.6303 1736.15 54.2057 1736.15 51.1329V44.6513L1736.94 45.1554C1736.79 46.1637 1736.34 47.1959 1735.57 48.2522C1734.85 49.2604 1733.89 50.1967 1732.69 51.0609C1731.49 51.9251 1730.1 52.6453 1728.51 53.2214C1726.98 53.7496 1725.39 54.0136 1723.76 54.0136C1720.35 54.0136 1717.3 53.1734 1714.61 51.493C1711.92 49.7646 1709.79 47.436 1708.2 44.5072C1706.62 41.5305 1705.83 38.1216 1705.83 34.2807C1705.83 30.4397 1706.62 27.0548 1708.2 24.1261C1709.79 21.1494 1711.9 18.8208 1714.54 17.1403C1717.23 15.4119 1720.23 14.5477 1723.54 14.5477ZM1724.62 21.1734C1722.27 21.1734 1720.21 21.7495 1718.43 22.9018C1716.65 24.0541 1715.26 25.6145 1714.25 27.583C1713.24 29.5515 1712.74 31.784 1712.74 34.2807C1712.74 36.7773 1713.24 39.0099 1714.25 40.9784C1715.26 42.9468 1716.65 44.5072 1718.43 45.6595C1720.21 46.8118 1722.27 47.388 1724.62 47.388C1726.98 47.388 1729.04 46.8358 1730.82 45.7316C1732.59 44.5793 1733.99 43.0189 1734.99 41.0504C1736 39.0339 1736.51 36.7773 1736.51 34.2807C1736.51 31.784 1736 29.5515 1734.99 27.583C1733.99 25.5665 1732.59 24.0061 1730.82 22.9018C1729.04 21.7495 1726.98 21.1734 1724.62 21.1734ZM1781.17 49.6205C1781.17 50.6768 1780.81 51.565 1780.09 52.2852C1779.41 52.9574 1778.57 53.2935 1777.57 53.2935C1776.56 53.2935 1775.69 52.9574 1774.97 52.2852C1774.3 51.565 1773.97 50.6768 1773.97 49.6205V3.67295C1773.97 2.61669 1774.33 1.75247 1775.05 1.0803C1775.77 0.360119 1776.63 2.86174e-05 1777.64 2.86174e-05C1778.69 2.86174e-05 1779.53 0.360119 1780.16 1.0803C1780.83 1.75247 1781.17 2.61669 1781.17 3.67295V49.6205ZM1798.66 49.6205C1798.66 50.6768 1798.32 51.565 1797.65 52.2852C1796.97 52.9574 1796.11 53.2935 1795.05 53.2935C1794.05 53.2935 1793.18 52.9574 1792.46 52.2852C1791.79 51.565 1791.45 50.6768 1791.45 49.6205V18.7968C1791.45 17.7405 1791.79 16.8763 1792.46 16.2041C1793.18 15.4839 1794.05 15.1238 1795.05 15.1238C1796.11 15.1238 1796.97 15.4839 1797.65 16.2041C1798.32 16.8763 1798.66 17.7405 1798.66 18.7968V49.6205ZM1794.98 10.3706C1793.59 10.3706 1792.58 10.1306 1791.96 9.65046C1791.33 9.12233 1791.02 8.25811 1791.02 7.05781V5.90551C1791.02 4.70521 1791.36 3.865 1792.03 3.38488C1792.7 2.90476 1793.71 2.6647 1795.05 2.6647C1796.49 2.6647 1797.53 2.92877 1798.15 3.4569C1798.78 3.93702 1799.09 4.75322 1799.09 5.90551V7.05781C1799.09 8.30612 1798.75 9.17034 1798.08 9.65046C1797.46 10.1306 1796.42 10.3706 1794.98 10.3706ZM1827.36 14.7637C1830.91 14.7637 1833.65 15.652 1835.57 17.4284C1837.49 19.1569 1838.76 21.5094 1839.38 24.4862L1838.23 24.1261L1838.73 22.9738C1839.36 21.7255 1840.3 20.4772 1841.54 19.2289C1842.84 17.9325 1844.38 16.8763 1846.15 16.0601C1847.93 15.1959 1849.83 14.7637 1851.84 14.7637C1855.15 14.7637 1857.72 15.4839 1859.55 16.9243C1861.37 18.3166 1862.64 20.2131 1863.36 22.6137C1864.09 24.9663 1864.45 27.607 1864.45 30.5357V49.6205C1864.45 50.6768 1864.11 51.565 1863.44 52.2852C1862.76 52.9574 1861.9 53.2935 1860.84 53.2935C1859.84 53.2935 1858.97 52.9574 1858.25 52.2852C1857.58 51.565 1857.24 50.6768 1857.24 49.6205V30.6077C1857.24 28.9273 1857 27.3909 1856.52 25.9986C1856.09 24.6062 1855.3 23.5019 1854.15 22.6857C1853.04 21.8215 1851.51 21.3894 1849.54 21.3894C1847.66 21.3894 1845.98 21.8215 1844.5 22.6857C1843.06 23.5019 1841.93 24.6062 1841.11 25.9986C1840.3 27.3909 1839.89 28.9273 1839.89 30.6077V49.6205C1839.89 50.6768 1839.55 51.565 1838.88 52.2852C1838.21 52.9574 1837.34 53.2935 1836.29 53.2935C1835.23 53.2935 1834.37 52.9574 1833.69 52.2852C1833.02 51.565 1832.69 50.6768 1832.69 49.6205V30.5357C1832.69 28.8553 1832.45 27.3189 1831.96 25.9266C1831.53 24.5342 1830.76 23.4299 1829.66 22.6137C1828.56 21.7975 1827.02 21.3894 1825.05 21.3894C1823.18 21.3894 1821.52 21.7975 1820.08 22.6137C1818.64 23.4299 1817.51 24.5342 1816.7 25.9266C1815.93 27.3189 1815.54 28.8553 1815.54 30.5357V49.6205C1815.54 50.6768 1815.18 51.565 1814.46 52.2852C1813.79 52.9574 1812.95 53.2935 1811.94 53.2935C1810.89 53.2935 1810.02 52.9574 1809.35 52.2852C1808.68 51.565 1808.34 50.6768 1808.34 49.6205V19.0848C1808.34 18.0286 1808.68 17.1644 1809.35 16.4922C1810.02 15.772 1810.89 15.4119 1811.94 15.4119C1812.95 15.4119 1813.79 15.772 1814.46 16.4922C1815.18 17.1644 1815.54 18.0286 1815.54 19.0848V23.3339L1814.18 24.1261C1814.51 23.0698 1815.06 21.9896 1815.83 20.8853C1816.6 19.781 1817.56 18.7728 1818.71 17.8605C1819.91 16.9483 1821.23 16.2041 1822.67 15.628C1824.11 15.0518 1825.68 14.7637 1827.36 14.7637ZM1881.29 49.6205C1881.29 50.6768 1880.96 51.565 1880.29 52.2852C1879.61 52.9574 1878.75 53.2935 1877.69 53.2935C1876.68 53.2935 1875.82 52.9574 1875.1 52.2852C1874.43 51.565 1874.09 50.6768 1874.09 49.6205V18.7968C1874.09 17.7405 1874.43 16.8763 1875.1 16.2041C1875.82 15.4839 1876.68 15.1238 1877.69 15.1238C1878.75 15.1238 1879.61 15.4839 1880.29 16.2041C1880.96 16.8763 1881.29 17.7405 1881.29 18.7968V49.6205ZM1877.62 10.3706C1876.23 10.3706 1875.22 10.1306 1874.6 9.65046C1873.97 9.12233 1873.66 8.25811 1873.66 7.05781V5.90551C1873.66 4.70521 1874 3.865 1874.67 3.38488C1875.34 2.90476 1876.35 2.6647 1877.69 2.6647C1879.13 2.6647 1880.17 2.92877 1880.79 3.4569C1881.41 3.93702 1881.73 4.75322 1881.73 5.90551V7.05781C1881.73 8.30612 1881.39 9.17034 1880.72 9.65046C1880.09 10.1306 1879.06 10.3706 1877.62 10.3706ZM1890.48 15.844H1907.4C1908.36 15.844 1909.15 16.1801 1909.78 16.8523C1910.45 17.4764 1910.79 18.2686 1910.79 19.2289C1910.79 20.1411 1910.45 20.9093 1909.78 21.5335C1909.15 22.1576 1908.36 22.4697 1907.4 22.4697H1890.48C1889.52 22.4697 1888.7 22.1576 1888.03 21.5335C1887.4 20.8613 1887.09 20.0691 1887.09 19.1569C1887.09 18.1966 1887.4 17.4044 1888.03 16.7803C1888.7 16.1561 1889.52 15.844 1890.48 15.844ZM1898.04 6.48166C1899.1 6.48166 1899.96 6.84175 1900.63 7.56193C1901.3 8.2341 1901.64 9.09832 1901.64 10.1546V43.571C1901.64 44.4352 1901.78 45.1314 1902.07 45.6595C1902.36 46.1877 1902.74 46.5478 1903.22 46.7398C1903.75 46.9319 1904.28 47.0279 1904.81 47.0279C1905.34 47.0279 1905.79 46.9319 1906.18 46.7398C1906.61 46.5478 1907.11 46.4517 1907.69 46.4517C1908.27 46.4517 1908.79 46.7158 1909.27 47.2439C1909.75 47.7721 1909.99 48.4922 1909.99 49.4045C1909.99 50.5568 1909.37 51.493 1908.12 52.2132C1906.87 52.9334 1905.53 53.2935 1904.09 53.2935C1903.27 53.2935 1902.31 53.2214 1901.21 53.0774C1900.1 52.9334 1899.02 52.5733 1897.97 51.9971C1896.96 51.421 1896.12 50.5088 1895.45 49.2604C1894.77 47.9641 1894.44 46.1637 1894.44 43.8591V10.1546C1894.44 9.09832 1894.77 8.2341 1895.45 7.56193C1896.17 6.84175 1897.03 6.48166 1898.04 6.48166ZM1949.8 14.8358C1950.86 14.8358 1951.72 15.1959 1952.39 15.916C1953.07 16.5882 1953.4 17.4524 1953.4 18.5087V49.6205C1953.4 50.6768 1953.07 51.565 1952.39 52.2852C1951.72 52.9574 1950.86 53.2935 1949.8 53.2935C1948.79 53.2935 1947.93 52.9574 1947.21 52.2852C1946.54 51.565 1946.2 50.6768 1946.2 49.6205V44.4352L1947.71 44.6513C1947.71 45.5155 1947.35 46.4757 1946.63 47.532C1945.96 48.5883 1945.02 49.6205 1943.82 50.6288C1942.62 51.589 1941.21 52.4052 1939.57 53.0774C1937.94 53.7016 1936.19 54.0136 1934.32 54.0136C1931 54.0136 1928.03 53.1734 1925.39 51.493C1922.75 49.7646 1920.66 47.412 1919.12 44.4352C1917.59 41.4585 1916.82 38.0736 1916.82 34.2807C1916.82 30.3917 1917.59 26.9828 1919.12 24.0541C1920.66 21.0773 1922.72 18.7488 1925.32 17.0683C1927.96 15.3879 1930.88 14.5477 1934.1 14.5477C1936.17 14.5477 1938.06 14.8838 1939.79 15.5559C1941.57 16.2281 1943.1 17.0923 1944.4 18.1486C1945.7 19.2049 1946.68 20.3332 1947.35 21.5335C1948.07 22.6857 1948.43 23.79 1948.43 24.8463L1946.2 25.0623V18.5087C1946.2 17.5004 1946.54 16.6362 1947.21 15.916C1947.93 15.1959 1948.79 14.8358 1949.8 14.8358ZM1935.11 47.388C1937.37 47.388 1939.36 46.8118 1941.09 45.6595C1942.82 44.5072 1944.16 42.9468 1945.12 40.9784C1946.08 38.9618 1946.56 36.7293 1946.56 34.2807C1946.56 31.784 1946.08 29.5515 1945.12 27.583C1944.16 25.6145 1942.82 24.0541 1941.09 22.9018C1939.36 21.7495 1937.37 21.1734 1935.11 21.1734C1932.9 21.1734 1930.93 21.7495 1929.2 22.9018C1927.52 24.0541 1926.18 25.6145 1925.17 27.583C1924.21 29.5515 1923.73 31.784 1923.73 34.2807C1923.73 36.7293 1924.21 38.9618 1925.17 40.9784C1926.18 42.9468 1927.52 44.5072 1929.2 45.6595C1930.93 46.8118 1932.9 47.388 1935.11 47.388ZM1962.99 15.844H1979.91C1980.87 15.844 1981.66 16.1801 1982.29 16.8523C1982.96 17.4764 1983.3 18.2686 1983.3 19.2289C1983.3 20.1411 1982.96 20.9093 1982.29 21.5335C1981.66 22.1576 1980.87 22.4697 1979.91 22.4697H1962.99C1962.03 22.4697 1961.21 22.1576 1960.54 21.5335C1959.91 20.8613 1959.6 20.0691 1959.6 19.1569C1959.6 18.1966 1959.91 17.4044 1960.54 16.7803C1961.21 16.1561 1962.03 15.844 1962.99 15.844ZM1970.55 6.48166C1971.61 6.48166 1972.47 6.84175 1973.14 7.56193C1973.81 8.2341 1974.15 9.09832 1974.15 10.1546V43.571C1974.15 44.4352 1974.29 45.1314 1974.58 45.6595C1974.87 46.1877 1975.25 46.5478 1975.73 46.7398C1976.26 46.9319 1976.79 47.0279 1977.32 47.0279C1977.85 47.0279 1978.3 46.9319 1978.69 46.7398C1979.12 46.5478 1979.62 46.4517 1980.2 46.4517C1980.78 46.4517 1981.3 46.7158 1981.78 47.2439C1982.26 47.7721 1982.5 48.4922 1982.5 49.4045C1982.5 50.5568 1981.88 51.493 1980.63 52.2132C1979.38 52.9334 1978.04 53.2935 1976.6 53.2935C1975.78 53.2935 1974.82 53.2214 1973.72 53.0774C1972.61 52.9334 1971.53 52.5733 1970.48 51.9971C1969.47 51.421 1968.63 50.5088 1967.96 49.2604C1967.28 47.9641 1966.95 46.1637 1966.95 43.8591V10.1546C1966.95 9.09832 1967.28 8.2341 1967.96 7.56193C1968.68 6.84175 1969.54 6.48166 1970.55 6.48166ZM1998.04 49.6205C1998.04 50.6768 1997.71 51.565 1997.03 52.2852C1996.36 52.9574 1995.5 53.2935 1994.44 53.2935C1993.43 53.2935 1992.57 52.9574 1991.85 52.2852C1991.18 51.565 1990.84 50.6768 1990.84 49.6205V18.7968C1990.84 17.7405 1991.18 16.8763 1991.85 16.2041C1992.57 15.4839 1993.43 15.1238 1994.44 15.1238C1995.5 15.1238 1996.36 15.4839 1997.03 16.2041C1997.71 16.8763 1998.04 17.7405 1998.04 18.7968V49.6205ZM1994.37 10.3706C1992.98 10.3706 1991.97 10.1306 1991.34 9.65046C1990.72 9.12233 1990.41 8.25811 1990.41 7.05781V5.90551C1990.41 4.70521 1990.74 3.865 1991.42 3.38488C1992.09 2.90476 1993.1 2.6647 1994.44 2.6647C1995.88 2.6647 1996.91 2.92877 1997.54 3.4569C1998.16 3.93702 1998.47 4.75322 1998.47 5.90551V7.05781C1998.47 8.30612 1998.14 9.17034 1997.47 9.65046C1996.84 10.1306 1995.81 10.3706 1994.37 10.3706ZM2044.03 34.3527C2044.03 38.1937 2043.19 41.6025 2041.51 44.5793C2039.83 47.508 2037.54 49.8126 2034.66 51.493C2031.78 53.1734 2028.54 54.0136 2024.94 54.0136C2021.34 54.0136 2018.1 53.1734 2015.22 51.493C2012.34 49.8126 2010.03 47.508 2008.31 44.5793C2006.62 41.6025 2005.78 38.1937 2005.78 34.3527C2005.78 30.4637 2006.62 27.0548 2008.31 24.1261C2010.03 21.1494 2012.34 18.8208 2015.22 17.1403C2018.1 15.4119 2021.34 14.5477 2024.94 14.5477C2028.54 14.5477 2031.78 15.4119 2034.66 17.1403C2037.54 18.8208 2039.83 21.1494 2041.51 24.1261C2043.19 27.0548 2044.03 30.4637 2044.03 34.3527ZM2036.82 34.3527C2036.82 31.712 2036.3 29.4314 2035.24 27.511C2034.18 25.5425 2032.74 24.0061 2030.92 22.9018C2029.14 21.7495 2027.15 21.1734 2024.94 21.1734C2022.73 21.1734 2020.72 21.7495 2018.89 22.9018C2017.07 24.0061 2015.63 25.5425 2014.57 27.511C2013.51 29.4314 2012.99 31.712 2012.99 34.3527C2012.99 36.8973 2013.51 39.1539 2014.57 41.1224C2015.63 43.0909 2017.07 44.6273 2018.89 45.7316C2020.72 46.8358 2022.73 47.388 2024.94 47.388C2027.15 47.388 2029.14 46.8358 2030.92 45.7316C2032.74 44.6273 2034.18 43.0909 2035.24 41.1224C2036.3 39.1539 2036.82 36.8973 2036.82 34.3527ZM2071.69 14.5477C2075.1 14.5477 2077.74 15.2679 2079.62 16.7082C2081.49 18.1006 2082.79 19.9971 2083.51 22.3977C2084.27 24.7503 2084.66 27.3909 2084.66 30.3197V49.6205C2084.66 50.6768 2084.3 51.565 2083.58 52.2852C2082.91 52.9574 2082.07 53.2935 2081.06 53.2935C2080 53.2935 2079.14 52.9574 2078.46 52.2852C2077.79 51.565 2077.46 50.6768 2077.46 49.6205V30.3917C2077.46 28.6633 2077.22 27.1269 2076.74 25.7825C2076.26 24.3902 2075.42 23.2859 2074.22 22.4697C2073.06 21.6055 2071.43 21.1734 2069.32 21.1734C2067.35 21.1734 2065.62 21.6055 2064.13 22.4697C2062.64 23.2859 2061.47 24.3902 2060.6 25.7825C2059.79 27.1269 2059.38 28.6633 2059.38 30.3917V49.6205C2059.38 50.6768 2059.02 51.565 2058.3 52.2852C2057.63 52.9574 2056.79 53.2935 2055.78 53.2935C2054.72 53.2935 2053.86 52.9574 2053.19 52.2852C2052.51 51.565 2052.18 50.6768 2052.18 49.6205V19.0848C2052.18 18.0286 2052.51 17.1644 2053.19 16.4922C2053.86 15.772 2054.72 15.4119 2055.78 15.4119C2056.79 15.4119 2057.63 15.772 2058.3 16.4922C2059.02 17.1644 2059.38 18.0286 2059.38 19.0848V23.1179L2058.08 23.838C2058.42 22.7818 2059 21.7255 2059.81 20.6692C2060.68 19.565 2061.71 18.5567 2062.91 17.6445C2064.11 16.6842 2065.45 15.94 2066.94 15.4119C2068.43 14.8358 2070.01 14.5477 2071.69 14.5477ZM2092.42 47.388C2091.99 46.7158 2091.8 45.9476 2091.85 45.0834C2091.9 44.1712 2092.4 43.403 2093.36 42.7788C2094.03 42.3467 2094.73 42.1787 2095.45 42.2747C2096.22 42.3227 2096.94 42.6828 2097.61 43.355C2098.95 44.8433 2100.44 46.0196 2102.08 46.8838C2103.76 47.7481 2105.77 48.1802 2108.12 48.1802C2109.08 48.1322 2110.07 47.9881 2111.08 47.7481C2112.09 47.46 2112.95 46.9799 2113.67 46.3077C2114.39 45.5875 2114.75 44.5553 2114.75 43.2109C2114.75 42.0106 2114.37 41.0504 2113.6 40.3302C2112.83 39.61 2111.82 39.0339 2110.57 38.6018C2109.33 38.1216 2107.98 37.6895 2106.54 37.3054C2105 36.8733 2103.44 36.3932 2101.86 35.8651C2100.32 35.3369 2098.93 34.6648 2097.68 33.8486C2096.43 32.9843 2095.4 31.8801 2094.59 30.5357C2093.82 29.1914 2093.43 27.535 2093.43 25.5665C2093.43 23.3099 2094.06 21.3654 2095.31 19.733C2096.6 18.1006 2098.26 16.8283 2100.27 15.916C2102.34 15.0038 2104.57 14.5477 2106.97 14.5477C2108.36 14.5477 2109.83 14.7397 2111.37 15.1238C2112.9 15.4599 2114.39 16.0121 2115.83 16.7803C2117.27 17.5484 2118.52 18.5567 2119.58 19.805C2120.06 20.4292 2120.32 21.1734 2120.37 22.0376C2120.46 22.9018 2120.08 23.67 2119.22 24.3422C2118.64 24.8223 2117.94 25.0383 2117.13 24.9903C2116.31 24.9423 2115.64 24.6782 2115.11 24.1981C2114.2 23.0458 2113.02 22.1576 2111.58 21.5335C2110.14 20.8613 2108.51 20.5252 2106.68 20.5252C2105.77 20.5252 2104.81 20.6692 2103.8 20.9573C2102.84 21.1974 2102.03 21.6535 2101.35 22.3257C2100.68 22.9978 2100.35 23.9821 2100.35 25.2784C2100.35 26.4787 2100.73 27.4389 2101.5 28.1591C2102.32 28.8793 2103.37 29.4795 2104.67 29.9596C2105.96 30.4397 2107.38 30.8718 2108.92 31.2559C2110.41 31.64 2111.87 32.0961 2113.31 32.6242C2114.8 33.1524 2116.12 33.8486 2117.27 34.7128C2118.47 35.529 2119.43 36.6093 2120.15 37.9536C2120.92 39.2499 2121.3 40.9063 2121.3 42.9228C2121.3 45.2754 2120.61 47.2919 2119.22 48.9724C2117.87 50.6048 2116.14 51.8531 2114.03 52.7173C2111.97 53.5815 2109.78 54.0136 2107.48 54.0136C2104.74 54.0136 2102 53.5335 2099.27 52.5733C2096.58 51.565 2094.3 49.8366 2092.42 47.388ZM2136.32 30.0316C2136.32 29.0233 2136.66 28.1591 2137.33 27.4389C2138.05 26.7188 2138.92 26.3587 2139.92 26.3587C2141.99 26.3107 2143.84 25.9266 2145.47 25.2064C2147.1 24.4862 2148.4 23.4059 2149.36 21.9656C2150.32 20.5252 2150.8 18.7247 2150.8 16.5642C2150.8 14.6917 2150.37 13.0833 2149.5 11.739C2148.69 10.3466 2147.56 9.26636 2146.12 8.49817C2144.68 7.68196 2143.04 7.27386 2141.22 7.27386C2139.64 7.27386 2138.17 7.58594 2136.83 8.21009C2135.48 8.83425 2134.28 9.65046 2133.23 10.6587C2132.6 11.2349 2131.83 11.667 2130.92 11.955C2130.06 12.1951 2129.17 11.979 2128.26 11.3069C2127.3 10.6347 2126.77 9.7945 2126.67 8.78624C2126.58 7.77799 2126.94 6.84175 2127.75 5.97753C2129.38 4.15307 2131.38 2.71271 2133.73 1.65645C2136.08 0.600179 2138.58 0.0720458 2141.22 0.0720458C2144.34 0.0720458 2147.17 0.792227 2149.72 2.23259C2152.26 3.67295 2154.28 5.61744 2155.77 8.06606C2157.26 10.5147 2158 13.3474 2158 16.5642C2158 18.7728 2157.64 20.7893 2156.92 22.6137C2156.2 24.4382 2155.17 26.0226 2153.82 27.3669C2152.48 28.7113 2150.92 29.7915 2149.14 30.6077C2147.41 31.4239 2145.52 31.9521 2143.45 32.1921C2143.36 32.2402 2143.31 32.2642 2143.31 32.2642C2143.36 32.2642 2143.43 32.2642 2143.52 32.2642V36.5852C2143.52 37.5935 2143.16 38.4577 2142.44 39.1779C2141.77 39.8501 2140.93 40.1862 2139.92 40.1862C2138.87 40.1862 2138 39.8501 2137.33 39.1779C2136.66 38.4577 2136.32 37.5935 2136.32 36.5852V30.0316ZM2139.71 53.2935C2138.51 53.2935 2137.57 52.9574 2136.9 52.2852C2136.27 51.613 2135.96 50.6768 2135.96 49.4765V48.1802C2135.96 46.9319 2136.27 45.9956 2136.9 45.3715C2137.57 44.6993 2138.51 44.3632 2139.71 44.3632H2140.43C2141.68 44.3632 2142.61 44.6993 2143.24 45.3715C2143.86 45.9956 2144.17 46.9319 2144.17 48.1802V49.4765C2144.17 50.6768 2143.86 51.613 2143.24 52.2852C2142.61 52.9574 2141.68 53.2935 2140.43 53.2935H2139.71Z" fill="black"/>
</svg>
