<svg width="2220" height="200" viewBox="0 0 2220 200" fill="none" xmlns="http://www.w3.org/2000/svg">
<path d="M1054.76 10.8C1056.88 10.8 1058.5 11.352 1059.62 12.456C1060.78 13.536 1061.35 15.072 1061.35 17.064C1061.35 18.12 1061.11 19.092 1060.63 19.98C1060.15 20.868 1059.44 21.576 1058.51 22.104C1057.6 22.632 1056.47 22.92 1055.12 22.968L1055.05 21.96C1055.89 21.96 1056.76 22.08 1057.64 22.32C1058.53 22.56 1059.35 22.944 1060.09 23.472C1060.86 24 1061.47 24.696 1061.93 25.56C1062.41 26.424 1062.65 27.492 1062.65 28.764C1062.65 30.132 1062.42 31.284 1061.96 32.22C1061.51 33.132 1060.9 33.876 1060.13 34.452C1059.38 35.004 1058.54 35.4 1057.61 35.64C1056.7 35.88 1055.77 36 1054.84 36H1045.37C1044.96 36 1044.61 35.856 1044.32 35.568C1044.06 35.28 1043.93 34.932 1043.93 34.524V12.24C1043.93 11.832 1044.06 11.496 1044.32 11.232C1044.61 10.944 1044.96 10.8 1045.37 10.8H1054.76ZM1054.33 13.644H1046.59L1047.02 12.996V21.96L1046.63 21.492H1054.4C1055.46 21.492 1056.36 21.156 1057.1 20.484C1057.87 19.788 1058.26 18.768 1058.26 17.424C1058.26 16.224 1057.91 15.3 1057.21 14.652C1056.52 13.98 1055.56 13.644 1054.33 13.644ZM1054.62 24.372H1046.77L1047.02 24.12V33.516L1046.74 33.192H1054.73C1056.14 33.192 1057.3 32.832 1058.18 32.112C1059.1 31.392 1059.55 30.276 1059.55 28.764C1059.55 27.588 1059.31 26.688 1058.83 26.064C1058.35 25.416 1057.73 24.972 1056.96 24.732C1056.22 24.492 1055.44 24.372 1054.62 24.372ZM1075.51 36.36C1073.59 36.36 1071.91 35.952 1070.47 35.136C1069.03 34.32 1067.9 33.204 1067.09 31.788C1066.3 30.348 1065.9 28.692 1065.9 26.82C1065.9 24.732 1066.31 22.956 1067.12 21.492C1067.96 20.004 1069.04 18.876 1070.36 18.108C1071.71 17.316 1073.12 16.92 1074.61 16.92C1075.72 16.92 1076.78 17.124 1077.82 17.532C1078.85 17.94 1079.76 18.54 1080.55 19.332C1081.34 20.1 1081.98 21.036 1082.46 22.14C1082.94 23.22 1083.19 24.432 1083.22 25.776C1083.22 26.16 1083.07 26.484 1082.78 26.748C1082.5 27.012 1082.16 27.144 1081.78 27.144H1067.56L1066.91 24.66H1080.77L1080.19 25.164V24.372C1080.1 23.388 1079.76 22.548 1079.18 21.852C1078.63 21.132 1077.95 20.58 1077.13 20.196C1076.34 19.812 1075.5 19.62 1074.61 19.62C1073.89 19.62 1073.17 19.752 1072.45 20.016C1071.76 20.256 1071.12 20.664 1070.54 21.24C1069.99 21.792 1069.54 22.512 1069.18 23.4C1068.84 24.288 1068.67 25.356 1068.67 26.604C1068.67 27.996 1068.95 29.22 1069.5 30.276C1070.08 31.332 1070.87 32.172 1071.88 32.796C1072.88 33.396 1074.06 33.696 1075.4 33.696C1076.24 33.696 1076.98 33.588 1077.6 33.372C1078.22 33.156 1078.76 32.892 1079.22 32.58C1079.68 32.244 1080.06 31.908 1080.37 31.572C1080.68 31.356 1080.98 31.248 1081.27 31.248C1081.63 31.248 1081.92 31.368 1082.14 31.608C1082.38 31.848 1082.5 32.136 1082.5 32.472C1082.5 32.88 1082.3 33.24 1081.92 33.552C1081.25 34.296 1080.34 34.956 1079.18 35.532C1078.03 36.084 1076.81 36.36 1075.51 36.36ZM1096.8 16.92C1098.43 16.92 1099.71 17.256 1100.65 17.928C1101.58 18.6 1102.24 19.5 1102.63 20.628C1103.04 21.756 1103.24 23.016 1103.24 24.408V34.524C1103.24 34.932 1103.1 35.28 1102.81 35.568C1102.54 35.856 1102.21 36 1101.8 36C1101.39 36 1101.04 35.856 1100.76 35.568C1100.49 35.28 1100.36 34.932 1100.36 34.524V24.48C1100.36 23.568 1100.22 22.752 1099.93 22.032C1099.66 21.288 1099.21 20.7 1098.56 20.268C1097.94 19.812 1097.07 19.584 1095.97 19.584C1094.96 19.584 1094.04 19.812 1093.2 20.268C1092.36 20.7 1091.68 21.288 1091.18 22.032C1090.68 22.752 1090.42 23.568 1090.42 24.48V34.524C1090.42 34.932 1090.28 35.28 1089.99 35.568C1089.73 35.856 1089.39 36 1088.98 36C1088.58 36 1088.23 35.856 1087.94 35.568C1087.68 35.28 1087.54 34.932 1087.54 34.524V18.828C1087.54 18.42 1087.68 18.084 1087.94 17.82C1088.23 17.532 1088.58 17.388 1088.98 17.388C1089.42 17.388 1089.76 17.532 1090.03 17.82C1090.29 18.084 1090.42 18.42 1090.42 18.828V21.384L1089.7 22.176C1089.82 21.552 1090.1 20.928 1090.53 20.304C1090.96 19.656 1091.5 19.08 1092.15 18.576C1092.8 18.072 1093.52 17.676 1094.31 17.388C1095.1 17.076 1095.93 16.92 1096.8 16.92ZM1117.17 36.36C1115.25 36.36 1113.57 35.952 1112.13 35.136C1110.69 34.32 1109.56 33.204 1108.75 31.788C1107.96 30.348 1107.56 28.692 1107.56 26.82C1107.56 24.732 1107.97 22.956 1108.78 21.492C1109.62 20.004 1110.7 18.876 1112.02 18.108C1113.37 17.316 1114.78 16.92 1116.27 16.92C1117.38 16.92 1118.44 17.124 1119.48 17.532C1120.51 17.94 1121.42 18.54 1122.21 19.332C1123 20.1 1123.64 21.036 1124.12 22.14C1124.6 23.22 1124.85 24.432 1124.88 25.776C1124.88 26.16 1124.73 26.484 1124.44 26.748C1124.16 27.012 1123.82 27.144 1123.44 27.144H1109.22L1108.57 24.66H1122.43L1121.85 25.164V24.372C1121.76 23.388 1121.42 22.548 1120.84 21.852C1120.29 21.132 1119.61 20.58 1118.79 20.196C1118 19.812 1117.16 19.62 1116.27 19.62C1115.55 19.62 1114.83 19.752 1114.11 20.016C1113.42 20.256 1112.78 20.664 1112.2 21.24C1111.65 21.792 1111.2 22.512 1110.84 23.4C1110.5 24.288 1110.33 25.356 1110.33 26.604C1110.33 27.996 1110.61 29.22 1111.16 30.276C1111.74 31.332 1112.53 32.172 1113.54 32.796C1114.54 33.396 1115.72 33.696 1117.06 33.696C1117.9 33.696 1118.64 33.588 1119.26 33.372C1119.88 33.156 1120.42 32.892 1120.88 32.58C1121.34 32.244 1121.72 31.908 1122.03 31.572C1122.34 31.356 1122.64 31.248 1122.93 31.248C1123.29 31.248 1123.58 31.368 1123.8 31.608C1124.04 31.848 1124.16 32.136 1124.16 32.472C1124.16 32.88 1123.96 33.24 1123.58 33.552C1122.91 34.296 1122 34.956 1120.84 35.532C1119.69 36.084 1118.47 36.36 1117.17 36.36ZM1136.98 9.432C1137.39 9.432 1137.81 9.48 1138.24 9.576C1138.7 9.672 1139.08 9.84 1139.39 10.08C1139.73 10.32 1139.9 10.644 1139.9 11.052C1139.9 11.436 1139.78 11.76 1139.54 12.024C1139.3 12.264 1139.01 12.384 1138.67 12.384C1138.46 12.384 1138.16 12.324 1137.77 12.204C1137.39 12.06 1136.99 11.988 1136.59 11.988C1136.03 11.988 1135.58 12.108 1135.22 12.348C1134.88 12.588 1134.63 12.912 1134.46 13.32C1134.32 13.704 1134.25 14.136 1134.25 14.616V34.524C1134.25 34.932 1134.1 35.28 1133.81 35.568C1133.55 35.856 1133.21 36 1132.81 36C1132.37 36 1132.03 35.856 1131.76 35.568C1131.5 35.28 1131.37 34.932 1131.37 34.524V14.652C1131.37 13.044 1131.86 11.772 1132.84 10.836C1133.85 9.9 1135.23 9.432 1136.98 9.432ZM1137.99 17.676C1138.37 17.676 1138.7 17.808 1138.96 18.072C1139.23 18.312 1139.36 18.624 1139.36 19.008C1139.36 19.392 1139.23 19.716 1138.96 19.98C1138.7 20.22 1138.37 20.34 1137.99 20.34H1128.95C1128.57 20.34 1128.25 20.208 1127.98 19.944C1127.72 19.68 1127.59 19.368 1127.59 19.008C1127.59 18.6 1127.72 18.276 1127.98 18.036C1128.25 17.796 1128.57 17.676 1128.95 17.676H1137.99ZM1145.87 34.524C1145.87 34.932 1145.73 35.28 1145.44 35.568C1145.18 35.856 1144.84 36 1144.43 36C1144 36 1143.65 35.856 1143.39 35.568C1143.13 35.28 1142.99 34.932 1142.99 34.524V18.54C1142.99 18.132 1143.13 17.796 1143.39 17.532C1143.68 17.244 1144.03 17.1 1144.43 17.1C1144.84 17.1 1145.18 17.244 1145.44 17.532C1145.73 17.796 1145.87 18.132 1145.87 18.54V34.524ZM1144.4 14.688C1143.8 14.688 1143.35 14.568 1143.07 14.328C1142.78 14.088 1142.63 13.716 1142.63 13.212V12.708C1142.63 12.204 1142.79 11.832 1143.1 11.592C1143.41 11.352 1143.86 11.232 1144.43 11.232C1145.01 11.232 1145.44 11.352 1145.73 11.592C1146.02 11.832 1146.16 12.204 1146.16 12.708V13.212C1146.16 13.716 1146.01 14.088 1145.69 14.328C1145.41 14.568 1144.97 14.688 1144.4 14.688ZM1150.35 17.496H1158.81C1159.2 17.496 1159.51 17.628 1159.75 17.892C1160.01 18.156 1160.14 18.468 1160.14 18.828C1160.14 19.212 1160.01 19.536 1159.75 19.8C1159.51 20.04 1159.2 20.16 1158.81 20.16H1150.35C1149.99 20.16 1149.68 20.028 1149.42 19.764C1149.15 19.5 1149.02 19.176 1149.02 18.792C1149.02 18.432 1149.15 18.132 1149.42 17.892C1149.68 17.628 1149.99 17.496 1150.35 17.496ZM1154.13 12.6C1154.54 12.6 1154.88 12.744 1155.14 13.032C1155.4 13.296 1155.54 13.632 1155.54 14.04V31.428C1155.54 32.004 1155.62 32.436 1155.79 32.724C1155.96 33.012 1156.17 33.216 1156.44 33.336C1156.72 33.432 1157 33.48 1157.26 33.48C1157.5 33.48 1157.71 33.444 1157.88 33.372C1158.07 33.276 1158.28 33.228 1158.52 33.228C1158.76 33.228 1158.98 33.348 1159.17 33.588C1159.39 33.804 1159.5 34.092 1159.5 34.452C1159.5 34.884 1159.24 35.256 1158.74 35.568C1158.24 35.856 1157.67 36 1157.05 36C1156.71 36 1156.29 35.976 1155.79 35.928C1155.31 35.88 1154.83 35.724 1154.35 35.46C1153.87 35.196 1153.46 34.764 1153.12 34.164C1152.81 33.54 1152.66 32.676 1152.66 31.572V14.04C1152.66 13.632 1152.8 13.296 1153.09 13.032C1153.38 12.744 1153.72 12.6 1154.13 12.6ZM1163.81 33.048C1163.59 32.736 1163.5 32.412 1163.52 32.076C1163.55 31.716 1163.75 31.404 1164.13 31.14C1164.37 30.972 1164.65 30.9 1164.96 30.924C1165.3 30.948 1165.6 31.104 1165.86 31.392C1166.53 32.184 1167.3 32.82 1168.17 33.3C1169.03 33.756 1170.09 33.984 1171.33 33.984C1171.91 33.96 1172.49 33.864 1173.06 33.696C1173.64 33.528 1174.12 33.24 1174.5 32.832C1174.91 32.4 1175.11 31.836 1175.11 31.14C1175.11 30.468 1174.91 29.94 1174.5 29.556C1174.09 29.148 1173.57 28.824 1172.92 28.584C1172.27 28.32 1171.56 28.092 1170.79 27.9C1170 27.684 1169.22 27.444 1168.45 27.18C1167.69 26.892 1166.99 26.544 1166.37 26.136C1165.77 25.704 1165.27 25.176 1164.89 24.552C1164.53 23.904 1164.35 23.124 1164.35 22.212C1164.35 21.132 1164.64 20.196 1165.21 19.404C1165.81 18.612 1166.61 18 1167.59 17.568C1168.6 17.136 1169.69 16.92 1170.87 16.92C1171.54 16.92 1172.23 17.004 1172.95 17.172C1173.7 17.316 1174.42 17.58 1175.11 17.964C1175.81 18.324 1176.42 18.828 1176.95 19.476C1177.17 19.716 1177.29 20.016 1177.31 20.376C1177.33 20.736 1177.18 21.06 1176.84 21.348C1176.58 21.54 1176.28 21.624 1175.94 21.6C1175.63 21.576 1175.37 21.456 1175.15 21.24C1174.65 20.64 1174.01 20.184 1173.24 19.872C1172.5 19.536 1171.67 19.368 1170.76 19.368C1170.18 19.368 1169.62 19.452 1169.07 19.62C1168.51 19.788 1168.05 20.076 1167.66 20.484C1167.3 20.868 1167.12 21.408 1167.12 22.104C1167.15 22.752 1167.36 23.28 1167.77 23.688C1168.18 24.096 1168.73 24.432 1169.43 24.696C1170.12 24.936 1170.89 25.176 1171.73 25.416C1172.5 25.608 1173.23 25.836 1173.93 26.1C1174.65 26.34 1175.29 26.664 1175.87 27.072C1176.45 27.48 1176.9 28.008 1177.24 28.656C1177.57 29.28 1177.74 30.072 1177.74 31.032C1177.74 32.136 1177.43 33.096 1176.81 33.912C1176.18 34.704 1175.35 35.316 1174.32 35.748C1173.31 36.156 1172.22 36.36 1171.05 36.36C1169.73 36.36 1168.42 36.108 1167.12 35.604C1165.85 35.1 1164.75 34.248 1163.81 33.048Z" fill="#FD5400"/>
<path d="M92.1228 131.384C93.0828 131.384 93.9708 131.744 94.7868 132.464C95.6028 133.136 96.0108 134.072 96.0108 135.272C96.0108 135.608 95.9388 136.016 95.7948 136.496L81.0348 179.696C80.7948 180.416 80.3628 180.968 79.7388 181.352C79.1148 181.736 78.4668 181.952 77.7948 182C77.1228 182 76.4508 181.808 75.7788 181.424C75.1068 181.04 74.6028 180.464 74.2668 179.696L62.8908 153.056L63.5388 153.344L52.3068 179.696C51.9228 180.464 51.3948 181.04 50.7228 181.424C50.0988 181.808 49.4268 182 48.7068 182C48.0828 181.952 47.4588 181.736 46.8348 181.352C46.2108 180.968 45.7788 180.416 45.5388 179.696L30.7788 136.496C30.6348 136.016 30.5628 135.608 30.5628 135.272C30.5628 134.072 30.9948 133.136 31.8588 132.464C32.7228 131.744 33.6108 131.384 34.5228 131.384C35.2908 131.384 35.9868 131.6 36.6108 132.032C37.2828 132.416 37.7388 132.992 37.9788 133.76L50.4348 170.912H49.1388L60.0828 144.128C60.4188 143.408 60.8748 142.832 61.4508 142.4C62.0748 141.968 62.7708 141.776 63.5388 141.824C64.3068 141.776 64.9788 141.968 65.5548 142.4C66.1788 142.832 66.6348 143.408 66.9228 144.128L77.2908 170.12L76.2108 170.696L88.5948 133.76C88.8348 132.992 89.2908 132.416 89.9628 132.032C90.6348 131.6 91.3548 131.384 92.1228 131.384ZM121.655 143.48C124.967 143.48 127.535 144.2 129.359 145.64C131.183 147.032 132.455 148.928 133.175 151.328C133.943 153.728 134.327 156.368 134.327 159.248V178.328C134.327 179.384 133.967 180.272 133.247 180.992C132.575 181.664 131.735 182 130.727 182C129.671 182 128.807 181.664 128.135 180.992C127.463 180.272 127.127 179.384 127.127 178.328V159.248C127.127 157.568 126.887 156.032 126.407 154.64C125.975 153.248 125.183 152.144 124.031 151.328C122.927 150.512 121.367 150.104 119.351 150.104C117.479 150.104 115.799 150.512 114.311 151.328C112.871 152.144 111.743 153.248 110.927 154.64C110.159 156.032 109.775 157.568 109.775 159.248V178.328C109.775 179.384 109.415 180.272 108.695 180.992C108.023 181.664 107.183 182 106.175 182C105.119 182 104.255 181.664 103.583 180.992C102.911 180.272 102.575 179.384 102.575 178.328V132.392C102.575 131.336 102.911 130.472 103.583 129.8C104.255 129.08 105.119 128.72 106.175 128.72C107.183 128.72 108.023 129.08 108.695 129.8C109.415 130.472 109.775 131.336 109.775 132.392V152.048L108.479 152.768C108.815 151.712 109.367 150.632 110.135 149.528C110.951 148.424 111.935 147.416 113.087 146.504C114.287 145.592 115.607 144.872 117.047 144.344C118.487 143.768 120.023 143.48 121.655 143.48ZM175.373 143.552C176.429 143.552 177.293 143.912 177.965 144.632C178.637 145.304 178.973 146.168 178.973 147.224V178.328C178.973 179.384 178.637 180.272 177.965 180.992C177.293 181.664 176.429 182 175.373 182C174.365 182 173.501 181.664 172.781 180.992C172.109 180.272 171.773 179.384 171.773 178.328V173.144L173.285 173.36C173.285 174.224 172.925 175.184 172.205 176.24C171.533 177.296 170.597 178.328 169.397 179.336C168.197 180.296 166.781 181.112 165.149 181.784C163.517 182.408 161.765 182.72 159.893 182.72C156.581 182.72 153.605 181.88 150.965 180.2C148.325 178.472 146.237 176.12 144.701 173.144C143.165 170.168 142.397 166.784 142.397 162.992C142.397 159.104 143.165 155.696 144.701 152.768C146.237 149.792 148.301 147.464 150.893 145.784C153.533 144.104 156.461 143.264 159.677 143.264C161.741 143.264 163.637 143.6 165.365 144.272C167.141 144.944 168.677 145.808 169.973 146.864C171.269 147.92 172.253 149.048 172.925 150.248C173.645 151.4 174.005 152.504 174.005 153.56L171.773 153.776V147.224C171.773 146.216 172.109 145.352 172.781 144.632C173.501 143.912 174.365 143.552 175.373 143.552ZM160.685 176.096C162.941 176.096 164.933 175.52 166.661 174.368C168.389 173.216 169.733 171.656 170.693 169.688C171.653 167.672 172.133 165.44 172.133 162.992C172.133 160.496 171.653 158.264 170.693 156.296C169.733 154.328 168.389 152.768 166.661 151.616C164.933 150.464 162.941 149.888 160.685 149.888C158.477 149.888 156.509 150.464 154.781 151.616C153.101 152.768 151.757 154.328 150.749 156.296C149.789 158.264 149.309 160.496 149.309 162.992C149.309 165.44 149.789 167.672 150.749 169.688C151.757 171.656 153.101 173.216 154.781 174.368C156.509 175.52 158.477 176.096 160.685 176.096ZM188.556 144.56H205.476C206.436 144.56 207.228 144.896 207.852 145.568C208.524 146.192 208.86 146.984 208.86 147.944C208.86 148.856 208.524 149.624 207.852 150.248C207.228 150.872 206.436 151.184 205.476 151.184H188.556C187.596 151.184 186.78 150.872 186.108 150.248C185.484 149.576 185.172 148.784 185.172 147.872C185.172 146.912 185.484 146.12 186.108 145.496C186.78 144.872 187.596 144.56 188.556 144.56ZM196.116 135.2C197.172 135.2 198.036 135.56 198.708 136.28C199.38 136.952 199.716 137.816 199.716 138.872V172.28C199.716 173.144 199.86 173.84 200.148 174.368C200.436 174.896 200.82 175.256 201.3 175.448C201.828 175.64 202.356 175.736 202.884 175.736C203.412 175.736 203.868 175.64 204.252 175.448C204.684 175.256 205.188 175.16 205.764 175.16C206.34 175.16 206.868 175.424 207.348 175.952C207.828 176.48 208.068 177.2 208.068 178.112C208.068 179.264 207.444 180.2 206.196 180.92C204.948 181.64 203.604 182 202.164 182C201.348 182 200.388 181.928 199.284 181.784C198.18 181.64 197.1 181.28 196.044 180.704C195.036 180.128 194.196 179.216 193.524 177.968C192.852 176.672 192.516 174.872 192.516 172.568V138.872C192.516 137.816 192.852 136.952 193.524 136.28C194.244 135.56 195.108 135.2 196.116 135.2ZM255.952 143.48C259.264 143.48 261.832 144.2 263.656 145.64C265.48 147.032 266.752 148.928 267.472 151.328C268.24 153.728 268.624 156.368 268.624 159.248V178.328C268.624 179.384 268.264 180.272 267.544 180.992C266.872 181.664 266.032 182 265.024 182C263.968 182 263.104 181.664 262.432 180.992C261.76 180.272 261.424 179.384 261.424 178.328V159.248C261.424 157.568 261.184 156.032 260.704 154.64C260.272 153.248 259.48 152.144 258.328 151.328C257.224 150.512 255.664 150.104 253.648 150.104C251.776 150.104 250.096 150.512 248.608 151.328C247.168 152.144 246.04 153.248 245.224 154.64C244.456 156.032 244.072 157.568 244.072 159.248V178.328C244.072 179.384 243.712 180.272 242.992 180.992C242.32 181.664 241.48 182 240.472 182C239.416 182 238.552 181.664 237.88 180.992C237.208 180.272 236.872 179.384 236.872 178.328V132.392C236.872 131.336 237.208 130.472 237.88 129.8C238.552 129.08 239.416 128.72 240.472 128.72C241.48 128.72 242.32 129.08 242.992 129.8C243.712 130.472 244.072 131.336 244.072 132.392V152.048L242.776 152.768C243.112 151.712 243.664 150.632 244.432 149.528C245.248 148.424 246.232 147.416 247.384 146.504C248.584 145.592 249.904 144.872 251.344 144.344C252.784 143.768 254.32 143.48 255.952 143.48ZM309.67 143.552C310.726 143.552 311.59 143.912 312.262 144.632C312.934 145.304 313.27 146.168 313.27 147.224V178.328C313.27 179.384 312.934 180.272 312.262 180.992C311.59 181.664 310.726 182 309.67 182C308.662 182 307.798 181.664 307.078 180.992C306.406 180.272 306.07 179.384 306.07 178.328V173.144L307.582 173.36C307.582 174.224 307.222 175.184 306.502 176.24C305.83 177.296 304.894 178.328 303.694 179.336C302.494 180.296 301.078 181.112 299.446 181.784C297.814 182.408 296.062 182.72 294.19 182.72C290.878 182.72 287.902 181.88 285.262 180.2C282.622 178.472 280.534 176.12 278.998 173.144C277.462 170.168 276.694 166.784 276.694 162.992C276.694 159.104 277.462 155.696 278.998 152.768C280.534 149.792 282.598 147.464 285.19 145.784C287.83 144.104 290.758 143.264 293.974 143.264C296.038 143.264 297.934 143.6 299.662 144.272C301.438 144.944 302.974 145.808 304.27 146.864C305.566 147.92 306.55 149.048 307.222 150.248C307.942 151.4 308.302 152.504 308.302 153.56L306.07 153.776V147.224C306.07 146.216 306.406 145.352 307.078 144.632C307.798 143.912 308.662 143.552 309.67 143.552ZM294.982 176.096C297.238 176.096 299.23 175.52 300.958 174.368C302.686 173.216 304.03 171.656 304.99 169.688C305.95 167.672 306.43 165.44 306.43 162.992C306.43 160.496 305.95 158.264 304.99 156.296C304.03 154.328 302.686 152.768 300.958 151.616C299.23 150.464 297.238 149.888 294.982 149.888C292.774 149.888 290.806 150.464 289.078 151.616C287.398 152.768 286.054 154.328 285.046 156.296C284.086 158.264 283.606 160.496 283.606 162.992C283.606 165.44 284.086 167.672 285.046 169.688C286.054 171.656 287.398 173.216 289.078 174.368C290.806 175.52 292.774 176.096 294.982 176.096ZM342.436 143.48C345.796 143.48 348.772 144.32 351.364 146C354.004 147.68 356.092 149.984 357.628 152.912C359.164 155.792 359.932 159.152 359.932 162.992C359.932 166.832 359.164 170.24 357.628 173.216C356.092 176.144 354.028 178.448 351.436 180.128C348.844 181.808 345.916 182.648 342.652 182.648C340.828 182.648 339.1 182.36 337.468 181.784C335.836 181.208 334.396 180.464 333.148 179.552C331.9 178.592 330.868 177.584 330.052 176.528C329.284 175.472 328.804 174.488 328.612 173.576L330.556 172.64V192.728C330.556 193.784 330.196 194.648 329.476 195.32C328.804 196.04 327.964 196.4 326.956 196.4C325.9 196.4 325.036 196.04 324.364 195.32C323.692 194.648 323.356 193.784 323.356 192.728V147.656C323.356 146.648 323.692 145.784 324.364 145.064C325.036 144.344 325.9 143.984 326.956 143.984C327.964 143.984 328.804 144.344 329.476 145.064C330.196 145.784 330.556 146.648 330.556 147.656V152.624L329.404 151.976C329.548 151.064 330.004 150.128 330.772 149.168C331.54 148.16 332.5 147.224 333.652 146.36C334.852 145.496 336.196 144.8 337.684 144.272C339.22 143.744 340.804 143.48 342.436 143.48ZM341.644 150.104C339.34 150.104 337.324 150.68 335.596 151.832C333.916 152.936 332.596 154.448 331.636 156.368C330.676 158.288 330.196 160.496 330.196 162.992C330.196 165.44 330.676 167.672 331.636 169.688C332.596 171.656 333.916 173.216 335.596 174.368C337.324 175.472 339.34 176.024 341.644 176.024C343.9 176.024 345.868 175.472 347.548 174.368C349.228 173.216 350.548 171.656 351.508 169.688C352.516 167.672 353.02 165.44 353.02 162.992C353.02 160.544 352.516 158.36 351.508 156.44C350.548 154.472 349.228 152.936 347.548 151.832C345.868 150.68 343.9 150.104 341.644 150.104ZM387.155 143.48C390.515 143.48 393.491 144.32 396.083 146C398.723 147.68 400.811 149.984 402.347 152.912C403.883 155.792 404.651 159.152 404.651 162.992C404.651 166.832 403.883 170.24 402.347 173.216C400.811 176.144 398.747 178.448 396.155 180.128C393.563 181.808 390.635 182.648 387.371 182.648C385.547 182.648 383.819 182.36 382.187 181.784C380.555 181.208 379.115 180.464 377.867 179.552C376.619 178.592 375.587 177.584 374.771 176.528C374.003 175.472 373.523 174.488 373.331 173.576L375.275 172.64V192.728C375.275 193.784 374.915 194.648 374.195 195.32C373.523 196.04 372.683 196.4 371.675 196.4C370.619 196.4 369.755 196.04 369.083 195.32C368.411 194.648 368.075 193.784 368.075 192.728V147.656C368.075 146.648 368.411 145.784 369.083 145.064C369.755 144.344 370.619 143.984 371.675 143.984C372.683 143.984 373.523 144.344 374.195 145.064C374.915 145.784 375.275 146.648 375.275 147.656V152.624L374.123 151.976C374.267 151.064 374.723 150.128 375.491 149.168C376.259 148.16 377.219 147.224 378.371 146.36C379.571 145.496 380.915 144.8 382.403 144.272C383.939 143.744 385.523 143.48 387.155 143.48ZM386.363 150.104C384.059 150.104 382.043 150.68 380.315 151.832C378.635 152.936 377.315 154.448 376.355 156.368C375.395 158.288 374.915 160.496 374.915 162.992C374.915 165.44 375.395 167.672 376.355 169.688C377.315 171.656 378.635 173.216 380.315 174.368C382.043 175.472 384.059 176.024 386.363 176.024C388.619 176.024 390.587 175.472 392.267 174.368C393.947 173.216 395.267 171.656 396.227 169.688C397.235 167.672 397.739 165.44 397.739 162.992C397.739 160.544 397.235 158.36 396.227 156.44C395.267 154.472 393.947 152.936 392.267 151.832C390.587 150.68 388.619 150.104 386.363 150.104ZM430.434 182.72C426.45 182.72 422.994 181.904 420.066 180.272C417.138 178.592 414.858 176.312 413.226 173.432C411.642 170.504 410.85 167.168 410.85 163.424C410.85 159.2 411.69 155.6 413.37 152.624C415.098 149.6 417.33 147.296 420.066 145.712C422.802 144.08 425.706 143.264 428.778 143.264C431.13 143.264 433.362 143.744 435.474 144.704C437.586 145.616 439.458 146.912 441.09 148.592C442.77 150.224 444.09 152.168 445.05 154.424C446.01 156.632 446.514 159.056 446.562 161.696C446.514 162.656 446.13 163.448 445.41 164.072C444.69 164.696 443.85 165.008 442.89 165.008H414.882L413.154 158.888H440.226L438.858 160.184V158.384C438.762 156.704 438.21 155.24 437.202 153.992C436.194 152.696 434.946 151.712 433.458 151.04C431.97 150.32 430.41 149.96 428.778 149.96C427.338 149.96 425.946 150.2 424.602 150.68C423.306 151.112 422.13 151.832 421.074 152.84C420.066 153.848 419.25 155.192 418.626 156.872C418.05 158.504 417.762 160.544 417.762 162.992C417.762 165.632 418.314 167.936 419.418 169.904C420.522 171.872 422.01 173.408 423.882 174.512C425.754 175.568 427.818 176.096 430.074 176.096C431.85 176.096 433.314 175.928 434.466 175.592C435.618 175.208 436.578 174.752 437.346 174.224C438.114 173.696 438.786 173.192 439.362 172.712C440.082 172.28 440.802 172.064 441.522 172.064C442.386 172.064 443.106 172.376 443.682 173C444.258 173.576 444.546 174.272 444.546 175.088C444.546 176.144 444.018 177.104 442.962 177.968C441.666 179.216 439.866 180.32 437.562 181.28C435.306 182.24 432.93 182.72 430.434 182.72ZM474.212 143.264C477.62 143.264 480.26 143.984 482.132 145.424C484.004 146.816 485.3 148.712 486.02 151.112C486.788 153.464 487.172 156.104 487.172 159.032V178.328C487.172 179.384 486.812 180.272 486.092 180.992C485.42 181.664 484.58 182 483.572 182C482.516 182 481.652 181.664 480.98 180.992C480.308 180.272 479.972 179.384 479.972 178.328V159.104C479.972 157.376 479.732 155.84 479.252 154.496C478.772 153.104 477.932 152 476.732 151.184C475.58 150.32 473.948 149.888 471.836 149.888C469.868 149.888 468.14 150.32 466.652 151.184C465.164 152 463.988 153.104 463.124 154.496C462.308 155.84 461.9 157.376 461.9 159.104V178.328C461.9 179.384 461.54 180.272 460.82 180.992C460.148 181.664 459.308 182 458.3 182C457.244 182 456.38 181.664 455.708 180.992C455.036 180.272 454.7 179.384 454.7 178.328V147.8C454.7 146.744 455.036 145.88 455.708 145.208C456.38 144.488 457.244 144.128 458.3 144.128C459.308 144.128 460.148 144.488 460.82 145.208C461.54 145.88 461.9 146.744 461.9 147.8V151.832L460.604 152.552C460.94 151.496 461.516 150.44 462.332 149.384C463.196 148.28 464.228 147.272 465.428 146.36C466.628 145.4 467.972 144.656 469.46 144.128C470.948 143.552 472.532 143.264 474.212 143.264ZM494.937 176.096C494.505 175.424 494.313 174.656 494.361 173.792C494.409 172.88 494.913 172.112 495.873 171.488C496.545 171.056 497.241 170.888 497.961 170.984C498.729 171.032 499.449 171.392 500.121 172.064C501.465 173.552 502.953 174.728 504.585 175.592C506.265 176.456 508.281 176.888 510.633 176.888C511.593 176.84 512.577 176.696 513.585 176.456C514.593 176.168 515.457 175.688 516.177 175.016C516.897 174.296 517.257 173.264 517.257 171.92C517.257 170.72 516.873 169.76 516.105 169.04C515.337 168.32 514.329 167.744 513.081 167.312C511.833 166.832 510.489 166.4 509.049 166.016C507.513 165.584 505.953 165.104 504.369 164.576C502.833 164.048 501.441 163.376 500.193 162.56C498.945 161.696 497.913 160.592 497.097 159.248C496.329 157.904 495.945 156.248 495.945 154.28C495.945 152.024 496.569 150.08 497.817 148.448C499.113 146.816 500.769 145.544 502.785 144.632C504.849 143.72 507.081 143.264 509.481 143.264C510.873 143.264 512.337 143.456 513.873 143.84C515.409 144.176 516.897 144.728 518.337 145.496C519.777 146.264 521.025 147.272 522.081 148.52C522.561 149.144 522.825 149.888 522.873 150.752C522.969 151.616 522.585 152.384 521.721 153.056C521.145 153.536 520.449 153.752 519.633 153.704C518.817 153.656 518.145 153.392 517.617 152.912C516.705 151.76 515.529 150.872 514.089 150.248C512.649 149.576 511.017 149.24 509.193 149.24C508.281 149.24 507.321 149.384 506.313 149.672C505.353 149.912 504.537 150.368 503.865 151.04C503.193 151.712 502.857 152.696 502.857 153.992C502.857 155.192 503.241 156.152 504.009 156.872C504.825 157.592 505.881 158.192 507.177 158.672C508.473 159.152 509.889 159.584 511.425 159.968C512.913 160.352 514.377 160.808 515.817 161.336C517.305 161.864 518.625 162.56 519.777 163.424C520.977 164.24 521.937 165.32 522.657 166.664C523.425 167.96 523.809 169.616 523.809 171.632C523.809 173.984 523.113 176 521.721 177.68C520.377 179.312 518.649 180.56 516.537 181.424C514.473 182.288 512.289 182.72 509.985 182.72C507.249 182.72 504.513 182.24 501.777 181.28C499.089 180.272 496.809 178.544 494.937 176.096ZM595.727 143.768C596.639 143.768 597.431 144.128 598.103 144.848C598.823 145.52 599.183 146.408 599.183 147.512C599.183 147.752 599.159 147.992 599.111 148.232C599.063 148.472 598.991 148.688 598.895 148.88L587.879 179.696C587.591 180.512 587.087 181.136 586.367 181.568C585.647 181.952 584.903 182.096 584.135 182C582.743 181.904 581.711 181.136 581.039 179.696L572.903 158.096L574.559 158.24L567.071 179.696C566.399 181.136 565.367 181.904 563.975 182C563.255 182.096 562.511 181.952 561.743 181.568C561.023 181.136 560.519 180.512 560.231 179.696L549.143 148.88C548.951 148.448 548.855 147.992 548.855 147.512C548.855 146.504 549.167 145.64 549.791 144.92C550.463 144.152 551.351 143.768 552.455 143.768C553.223 143.768 553.895 143.96 554.471 144.344C555.095 144.728 555.527 145.304 555.767 146.072L564.983 172.064L563.327 171.92L570.815 152.264C571.439 150.776 572.543 150.032 574.127 150.032C574.991 150.032 575.663 150.224 576.143 150.608C576.623 150.992 577.007 151.544 577.295 152.264L584.927 171.992L582.983 172.208L592.271 146.072C592.751 144.536 593.903 143.768 595.727 143.768ZM625.585 143.48C628.897 143.48 631.465 144.2 633.289 145.64C635.113 147.032 636.385 148.928 637.105 151.328C637.873 153.728 638.257 156.368 638.257 159.248V178.328C638.257 179.384 637.897 180.272 637.177 180.992C636.505 181.664 635.665 182 634.657 182C633.601 182 632.737 181.664 632.065 180.992C631.393 180.272 631.057 179.384 631.057 178.328V159.248C631.057 157.568 630.817 156.032 630.337 154.64C629.905 153.248 629.113 152.144 627.961 151.328C626.857 150.512 625.297 150.104 623.281 150.104C621.409 150.104 619.729 150.512 618.241 151.328C616.801 152.144 615.673 153.248 614.857 154.64C614.089 156.032 613.705 157.568 613.705 159.248V178.328C613.705 179.384 613.345 180.272 612.625 180.992C611.953 181.664 611.113 182 610.105 182C609.049 182 608.185 181.664 607.513 180.992C606.841 180.272 606.505 179.384 606.505 178.328V132.392C606.505 131.336 606.841 130.472 607.513 129.8C608.185 129.08 609.049 128.72 610.105 128.72C611.113 128.72 611.953 129.08 612.625 129.8C613.345 130.472 613.705 131.336 613.705 132.392V152.048L612.409 152.768C612.745 151.712 613.297 150.632 614.065 149.528C614.881 148.424 615.865 147.416 617.017 146.504C618.217 145.592 619.537 144.872 620.977 144.344C622.417 143.768 623.953 143.48 625.585 143.48ZM665.91 182.72C661.926 182.72 658.47 181.904 655.542 180.272C652.614 178.592 650.334 176.312 648.702 173.432C647.118 170.504 646.326 167.168 646.326 163.424C646.326 159.2 647.166 155.6 648.846 152.624C650.574 149.6 652.806 147.296 655.542 145.712C658.278 144.08 661.182 143.264 664.254 143.264C666.606 143.264 668.838 143.744 670.95 144.704C673.062 145.616 674.934 146.912 676.566 148.592C678.246 150.224 679.566 152.168 680.526 154.424C681.486 156.632 681.99 159.056 682.038 161.696C681.99 162.656 681.606 163.448 680.886 164.072C680.166 164.696 679.326 165.008 678.366 165.008H650.358L648.63 158.888H675.702L674.334 160.184V158.384C674.238 156.704 673.686 155.24 672.678 153.992C671.67 152.696 670.422 151.712 668.934 151.04C667.446 150.32 665.886 149.96 664.254 149.96C662.814 149.96 661.422 150.2 660.078 150.68C658.782 151.112 657.606 151.832 656.55 152.84C655.542 153.848 654.726 155.192 654.102 156.872C653.526 158.504 653.238 160.544 653.238 162.992C653.238 165.632 653.79 167.936 654.894 169.904C655.998 171.872 657.486 173.408 659.358 174.512C661.23 175.568 663.294 176.096 665.55 176.096C667.326 176.096 668.79 175.928 669.942 175.592C671.094 175.208 672.054 174.752 672.822 174.224C673.59 173.696 674.262 173.192 674.838 172.712C675.558 172.28 676.278 172.064 676.998 172.064C677.862 172.064 678.582 172.376 679.158 173C679.734 173.576 680.022 174.272 680.022 175.088C680.022 176.144 679.494 177.104 678.438 177.968C677.142 179.216 675.342 180.32 673.038 181.28C670.782 182.24 668.406 182.72 665.91 182.72ZM709.689 143.264C713.097 143.264 715.737 143.984 717.609 145.424C719.481 146.816 720.777 148.712 721.497 151.112C722.265 153.464 722.649 156.104 722.649 159.032V178.328C722.649 179.384 722.289 180.272 721.569 180.992C720.897 181.664 720.057 182 719.049 182C717.993 182 717.129 181.664 716.457 180.992C715.785 180.272 715.449 179.384 715.449 178.328V159.104C715.449 157.376 715.209 155.84 714.729 154.496C714.249 153.104 713.409 152 712.209 151.184C711.057 150.32 709.425 149.888 707.313 149.888C705.345 149.888 703.617 150.32 702.129 151.184C700.641 152 699.465 153.104 698.601 154.496C697.785 155.84 697.377 157.376 697.377 159.104V178.328C697.377 179.384 697.017 180.272 696.297 180.992C695.625 181.664 694.785 182 693.777 182C692.721 182 691.857 181.664 691.185 180.992C690.513 180.272 690.177 179.384 690.177 178.328V147.8C690.177 146.744 690.513 145.88 691.185 145.208C691.857 144.488 692.721 144.128 693.777 144.128C694.785 144.128 695.625 144.488 696.297 145.208C697.017 145.88 697.377 146.744 697.377 147.8V151.832L696.081 152.552C696.417 151.496 696.993 150.44 697.809 149.384C698.673 148.28 699.705 147.272 700.905 146.36C702.105 145.4 703.449 144.656 704.937 144.128C706.425 143.552 708.009 143.264 709.689 143.264ZM780.837 143.84C781.893 143.84 782.757 144.2 783.429 144.92C784.101 145.592 784.437 146.456 784.437 147.512V178.472C784.437 182.696 783.621 186.128 781.989 188.768C780.405 191.408 778.245 193.328 775.509 194.528C772.821 195.776 769.773 196.4 766.365 196.4C764.637 196.4 762.909 196.232 761.181 195.896C759.453 195.608 758.037 195.176 756.933 194.6C755.781 194.072 754.965 193.424 754.485 192.656C754.005 191.888 753.933 191.048 754.269 190.136C754.605 188.984 755.181 188.192 755.997 187.76C756.813 187.376 757.653 187.352 758.517 187.688C759.333 188.024 760.413 188.456 761.757 188.984C763.101 189.512 764.637 189.776 766.365 189.776C768.717 189.776 770.709 189.392 772.341 188.624C773.973 187.856 775.197 186.656 776.013 185.024C776.877 183.392 777.309 181.28 777.309 178.688V173.72L778.461 175.448C777.693 177.032 776.685 178.352 775.437 179.408C774.189 180.464 772.701 181.28 770.973 181.856C769.293 182.432 767.421 182.72 765.357 182.72C762.717 182.72 760.437 182.144 758.517 180.992C756.645 179.792 755.205 178.16 754.197 176.096C753.189 173.984 752.685 171.584 752.685 168.896V147.512C752.685 146.456 753.021 145.592 753.693 144.92C754.365 144.2 755.229 143.84 756.285 143.84C757.293 143.84 758.133 144.2 758.805 144.92C759.525 145.592 759.885 146.456 759.885 147.512V166.952C759.885 170.12 760.581 172.448 761.973 173.936C763.365 175.376 765.429 176.096 768.165 176.096C769.989 176.096 771.573 175.712 772.917 174.944C774.261 174.176 775.317 173.12 776.085 171.776C776.853 170.384 777.237 168.776 777.237 166.952V147.512C777.237 146.456 777.573 145.592 778.245 144.92C778.965 144.2 779.829 143.84 780.837 143.84ZM830.457 163.064C830.457 166.904 829.617 170.312 827.937 173.288C826.257 176.216 823.977 178.52 821.097 180.2C818.217 181.88 814.977 182.72 811.377 182.72C807.777 182.72 804.537 181.88 801.657 180.2C798.777 178.52 796.473 176.216 794.745 173.288C793.065 170.312 792.225 166.904 792.225 163.064C792.225 159.176 793.065 155.768 794.745 152.84C796.473 149.864 798.777 147.536 801.657 145.856C804.537 144.128 807.777 143.264 811.377 143.264C814.977 143.264 818.217 144.128 821.097 145.856C823.977 147.536 826.257 149.864 827.937 152.84C829.617 155.768 830.457 159.176 830.457 163.064ZM823.257 163.064C823.257 160.424 822.729 158.144 821.673 156.224C820.617 154.256 819.177 152.72 817.353 151.616C815.577 150.464 813.585 149.888 811.377 149.888C809.169 149.888 807.153 150.464 805.329 151.616C803.505 152.72 802.065 154.256 801.009 156.224C799.953 158.144 799.425 160.424 799.425 163.064C799.425 165.608 799.953 167.864 801.009 169.832C802.065 171.8 803.505 173.336 805.329 174.44C807.153 175.544 809.169 176.096 811.377 176.096C813.585 176.096 815.577 175.544 817.353 174.44C819.177 173.336 820.617 171.8 821.673 169.832C822.729 167.864 823.257 165.608 823.257 163.064ZM866.83 144.128C867.838 144.128 868.678 144.488 869.35 145.208C870.07 145.88 870.43 146.744 870.43 147.8V166.736C870.43 171.728 869.038 175.64 866.254 178.472C863.47 181.256 859.534 182.648 854.446 182.648C849.406 182.648 845.494 181.256 842.71 178.472C839.974 175.64 838.606 171.728 838.606 166.736V147.8C838.606 146.744 838.942 145.88 839.614 145.208C840.286 144.488 841.15 144.128 842.206 144.128C843.214 144.128 844.054 144.488 844.726 145.208C845.446 145.88 845.806 146.744 845.806 147.8V166.736C845.806 169.856 846.526 172.184 847.966 173.72C849.454 175.256 851.614 176.024 854.446 176.024C857.326 176.024 859.51 175.256 860.998 173.72C862.486 172.184 863.23 169.856 863.23 166.736V147.8C863.23 146.744 863.566 145.88 864.238 145.208C864.91 144.488 865.774 144.128 866.83 144.128ZM898.249 176.096C897.817 175.424 897.625 174.656 897.673 173.792C897.721 172.88 898.225 172.112 899.185 171.488C899.857 171.056 900.553 170.888 901.273 170.984C902.041 171.032 902.761 171.392 903.433 172.064C904.777 173.552 906.265 174.728 907.897 175.592C909.577 176.456 911.593 176.888 913.945 176.888C914.905 176.84 915.889 176.696 916.897 176.456C917.905 176.168 918.769 175.688 919.489 175.016C920.209 174.296 920.569 173.264 920.569 171.92C920.569 170.72 920.185 169.76 919.417 169.04C918.649 168.32 917.641 167.744 916.393 167.312C915.145 166.832 913.801 166.4 912.361 166.016C910.825 165.584 909.265 165.104 907.681 164.576C906.145 164.048 904.753 163.376 903.505 162.56C902.257 161.696 901.225 160.592 900.409 159.248C899.641 157.904 899.257 156.248 899.257 154.28C899.257 152.024 899.881 150.08 901.129 148.448C902.425 146.816 904.081 145.544 906.097 144.632C908.161 143.72 910.393 143.264 912.793 143.264C914.185 143.264 915.649 143.456 917.185 143.84C918.721 144.176 920.209 144.728 921.649 145.496C923.089 146.264 924.337 147.272 925.393 148.52C925.873 149.144 926.137 149.888 926.185 150.752C926.281 151.616 925.897 152.384 925.033 153.056C924.457 153.536 923.761 153.752 922.945 153.704C922.129 153.656 921.457 153.392 920.929 152.912C920.017 151.76 918.841 150.872 917.401 150.248C915.961 149.576 914.329 149.24 912.505 149.24C911.593 149.24 910.633 149.384 909.625 149.672C908.665 149.912 907.849 150.368 907.177 151.04C906.505 151.712 906.169 152.696 906.169 153.992C906.169 155.192 906.553 156.152 907.321 156.872C908.137 157.592 909.193 158.192 910.489 158.672C911.785 159.152 913.201 159.584 914.737 159.968C916.225 160.352 917.689 160.808 919.129 161.336C920.617 161.864 921.937 162.56 923.089 163.424C924.289 164.24 925.249 165.32 925.969 166.664C926.737 167.96 927.121 169.616 927.121 171.632C927.121 173.984 926.425 176 925.033 177.68C923.689 179.312 921.961 180.56 919.849 181.424C917.785 182.288 915.601 182.72 913.297 182.72C910.561 182.72 907.825 182.24 905.089 181.28C902.401 180.272 900.121 178.544 898.249 176.096ZM934.36 144.56H951.28C952.24 144.56 953.032 144.896 953.656 145.568C954.328 146.192 954.664 146.984 954.664 147.944C954.664 148.856 954.328 149.624 953.656 150.248C953.032 150.872 952.24 151.184 951.28 151.184H934.36C933.4 151.184 932.584 150.872 931.912 150.248C931.288 149.576 930.976 148.784 930.976 147.872C930.976 146.912 931.288 146.12 931.912 145.496C932.584 144.872 933.4 144.56 934.36 144.56ZM941.92 135.2C942.976 135.2 943.84 135.56 944.512 136.28C945.184 136.952 945.52 137.816 945.52 138.872V172.28C945.52 173.144 945.664 173.84 945.952 174.368C946.24 174.896 946.624 175.256 947.104 175.448C947.632 175.64 948.16 175.736 948.688 175.736C949.216 175.736 949.672 175.64 950.056 175.448C950.488 175.256 950.992 175.16 951.568 175.16C952.144 175.16 952.672 175.424 953.152 175.952C953.632 176.48 953.872 177.2 953.872 178.112C953.872 179.264 953.248 180.2 952 180.92C950.752 181.64 949.408 182 947.968 182C947.152 182 946.192 181.928 945.088 181.784C943.984 181.64 942.904 181.28 941.848 180.704C940.84 180.128 940 179.216 939.328 177.968C938.656 176.672 938.32 174.872 938.32 172.568V138.872C938.32 137.816 938.656 136.952 939.328 136.28C940.048 135.56 940.912 135.2 941.92 135.2ZM998.574 163.064C998.574 166.904 997.734 170.312 996.054 173.288C994.374 176.216 992.094 178.52 989.214 180.2C986.334 181.88 983.094 182.72 979.494 182.72C975.894 182.72 972.654 181.88 969.774 180.2C966.894 178.52 964.59 176.216 962.862 173.288C961.182 170.312 960.342 166.904 960.342 163.064C960.342 159.176 961.182 155.768 962.862 152.84C964.59 149.864 966.894 147.536 969.774 145.856C972.654 144.128 975.894 143.264 979.494 143.264C983.094 143.264 986.334 144.128 989.214 145.856C992.094 147.536 994.374 149.864 996.054 152.84C997.734 155.768 998.574 159.176 998.574 163.064ZM991.374 163.064C991.374 160.424 990.846 158.144 989.79 156.224C988.734 154.256 987.294 152.72 985.47 151.616C983.694 150.464 981.702 149.888 979.494 149.888C977.286 149.888 975.27 150.464 973.446 151.616C971.622 152.72 970.182 154.256 969.126 156.224C968.07 158.144 967.542 160.424 967.542 163.064C967.542 165.608 968.07 167.864 969.126 169.832C970.182 171.8 971.622 173.336 973.446 174.44C975.27 175.544 977.286 176.096 979.494 176.096C981.702 176.096 983.694 175.544 985.47 174.44C987.294 173.336 988.734 171.8 989.79 169.832C990.846 167.864 991.374 165.608 991.374 163.064ZM1025.8 143.48C1029.16 143.48 1032.14 144.32 1034.73 146C1037.37 147.68 1039.46 149.984 1041 152.912C1042.53 155.792 1043.3 159.152 1043.3 162.992C1043.3 166.832 1042.53 170.24 1041 173.216C1039.46 176.144 1037.4 178.448 1034.8 180.128C1032.21 181.808 1029.28 182.648 1026.02 182.648C1024.2 182.648 1022.47 182.36 1020.84 181.784C1019.2 181.208 1017.76 180.464 1016.52 179.552C1015.27 178.592 1014.24 177.584 1013.42 176.528C1012.65 175.472 1012.17 174.488 1011.98 173.576L1013.92 172.64V192.728C1013.92 193.784 1013.56 194.648 1012.84 195.32C1012.17 196.04 1011.33 196.4 1010.32 196.4C1009.27 196.4 1008.4 196.04 1007.73 195.32C1007.06 194.648 1006.72 193.784 1006.72 192.728V147.656C1006.72 146.648 1007.06 145.784 1007.73 145.064C1008.4 144.344 1009.27 143.984 1010.32 143.984C1011.33 143.984 1012.17 144.344 1012.84 145.064C1013.56 145.784 1013.92 146.648 1013.92 147.656V152.624L1012.77 151.976C1012.92 151.064 1013.37 150.128 1014.14 149.168C1014.91 148.16 1015.87 147.224 1017.02 146.36C1018.22 145.496 1019.56 144.8 1021.05 144.272C1022.59 143.744 1024.17 143.48 1025.8 143.48ZM1025.01 150.104C1022.71 150.104 1020.69 150.68 1018.96 151.832C1017.28 152.936 1015.96 154.448 1015 156.368C1014.04 158.288 1013.56 160.496 1013.56 162.992C1013.56 165.44 1014.04 167.672 1015 169.688C1015.96 171.656 1017.28 173.216 1018.96 174.368C1020.69 175.472 1022.71 176.024 1025.01 176.024C1027.27 176.024 1029.24 175.472 1030.92 174.368C1032.6 173.216 1033.92 171.656 1034.88 169.688C1035.88 167.672 1036.39 165.44 1036.39 162.992C1036.39 160.544 1035.88 158.36 1034.88 156.44C1033.92 154.472 1032.6 152.936 1030.92 151.832C1029.24 150.68 1027.27 150.104 1025.01 150.104ZM1102.51 143.552C1103.57 143.552 1104.43 143.912 1105.11 144.632C1105.78 145.304 1106.11 146.168 1106.11 147.224V178.328C1106.11 179.384 1105.78 180.272 1105.11 180.992C1104.43 181.664 1103.57 182 1102.51 182C1101.51 182 1100.64 181.664 1099.92 180.992C1099.25 180.272 1098.91 179.384 1098.91 178.328V173.144L1100.43 173.36C1100.43 174.224 1100.07 175.184 1099.35 176.24C1098.67 177.296 1097.74 178.328 1096.54 179.336C1095.34 180.296 1093.92 181.112 1092.29 181.784C1090.66 182.408 1088.91 182.72 1087.03 182.72C1083.72 182.72 1080.75 181.88 1078.11 180.2C1075.47 178.472 1073.38 176.12 1071.84 173.144C1070.31 170.168 1069.54 166.784 1069.54 162.992C1069.54 159.104 1070.31 155.696 1071.84 152.768C1073.38 149.792 1075.44 147.464 1078.03 145.784C1080.67 144.104 1083.6 143.264 1086.82 143.264C1088.88 143.264 1090.78 143.6 1092.51 144.272C1094.28 144.944 1095.82 145.808 1097.11 146.864C1098.41 147.92 1099.39 149.048 1100.07 150.248C1100.79 151.4 1101.15 152.504 1101.15 153.56L1098.91 153.776V147.224C1098.91 146.216 1099.25 145.352 1099.92 144.632C1100.64 143.912 1101.51 143.552 1102.51 143.552ZM1087.83 176.096C1090.08 176.096 1092.07 175.52 1093.8 174.368C1095.53 173.216 1096.87 171.656 1097.83 169.688C1098.79 167.672 1099.27 165.44 1099.27 162.992C1099.27 160.496 1098.79 158.264 1097.83 156.296C1096.87 154.328 1095.53 152.768 1093.8 151.616C1092.07 150.464 1090.08 149.888 1087.83 149.888C1085.62 149.888 1083.65 150.464 1081.92 151.616C1080.24 152.768 1078.9 154.328 1077.89 156.296C1076.93 158.264 1076.45 160.496 1076.45 162.992C1076.45 165.44 1076.93 167.672 1077.89 169.688C1078.9 171.656 1080.24 173.216 1081.92 174.368C1083.65 175.52 1085.62 176.096 1087.83 176.096ZM1132.98 143.264C1135.57 143.264 1137.87 143.552 1139.89 144.128C1141.9 144.656 1143.46 145.424 1144.57 146.432C1145.72 147.392 1146.3 148.52 1146.3 149.816C1146.3 150.632 1146.06 151.4 1145.58 152.12C1145.1 152.792 1144.38 153.128 1143.42 153.128C1142.74 153.128 1142.17 153.008 1141.69 152.768C1141.26 152.528 1140.85 152.24 1140.46 151.904C1140.08 151.568 1139.6 151.232 1139.02 150.896C1138.5 150.608 1137.7 150.368 1136.65 150.176C1135.64 149.984 1134.73 149.888 1133.91 149.888C1131.37 149.888 1129.16 150.464 1127.29 151.616C1125.46 152.768 1124.02 154.328 1122.97 156.296C1121.96 158.264 1121.46 160.496 1121.46 162.992C1121.46 165.488 1121.96 167.72 1122.97 169.688C1124.02 171.656 1125.44 173.216 1127.22 174.368C1129.04 175.52 1131.15 176.096 1133.55 176.096C1134.99 176.096 1136.17 176 1137.08 175.808C1137.99 175.568 1138.78 175.28 1139.46 174.944C1140.18 174.512 1140.78 174.08 1141.26 173.648C1141.78 173.168 1142.5 172.928 1143.42 172.928C1144.47 172.928 1145.26 173.264 1145.79 173.936C1146.37 174.56 1146.66 175.352 1146.66 176.312C1146.66 177.368 1146.01 178.4 1144.71 179.408C1143.46 180.368 1141.78 181.16 1139.67 181.784C1137.56 182.408 1135.23 182.72 1132.69 182.72C1128.94 182.72 1125.68 181.856 1122.9 180.128C1120.16 178.4 1118.02 176.048 1116.49 173.072C1115 170.096 1114.26 166.736 1114.26 162.992C1114.26 159.2 1115.05 155.84 1116.63 152.912C1118.22 149.936 1120.42 147.584 1123.26 145.856C1126.09 144.128 1129.33 143.264 1132.98 143.264ZM1170.31 143.264C1172.9 143.264 1175.21 143.552 1177.22 144.128C1179.24 144.656 1180.8 145.424 1181.9 146.432C1183.06 147.392 1183.63 148.52 1183.63 149.816C1183.63 150.632 1183.39 151.4 1182.91 152.12C1182.43 152.792 1181.71 153.128 1180.75 153.128C1180.08 153.128 1179.5 153.008 1179.02 152.768C1178.59 152.528 1178.18 152.24 1177.8 151.904C1177.42 151.568 1176.94 151.232 1176.36 150.896C1175.83 150.608 1175.04 150.368 1173.98 150.176C1172.98 149.984 1172.06 149.888 1171.25 149.888C1168.7 149.888 1166.5 150.464 1164.62 151.616C1162.8 152.768 1161.36 154.328 1160.3 156.296C1159.3 158.264 1158.79 160.496 1158.79 162.992C1158.79 165.488 1159.3 167.72 1160.3 169.688C1161.36 171.656 1162.78 173.216 1164.55 174.368C1166.38 175.52 1168.49 176.096 1170.89 176.096C1172.33 176.096 1173.5 176 1174.42 175.808C1175.33 175.568 1176.12 175.28 1176.79 174.944C1177.51 174.512 1178.11 174.08 1178.59 173.648C1179.12 173.168 1179.84 172.928 1180.75 172.928C1181.81 172.928 1182.6 173.264 1183.13 173.936C1183.7 174.56 1183.99 175.352 1183.99 176.312C1183.99 177.368 1183.34 178.4 1182.05 179.408C1180.8 180.368 1179.12 181.16 1177.01 181.784C1174.9 182.408 1172.57 182.72 1170.02 182.72C1166.28 182.72 1163.02 181.856 1160.23 180.128C1157.5 178.4 1155.36 176.048 1153.82 173.072C1152.34 170.096 1151.59 166.736 1151.59 162.992C1151.59 159.2 1152.38 155.84 1153.97 152.912C1155.55 149.936 1157.76 147.584 1160.59 145.856C1163.42 144.128 1166.66 143.264 1170.31 143.264ZM1208.51 182.72C1204.53 182.72 1201.07 181.904 1198.14 180.272C1195.22 178.592 1192.94 176.312 1191.3 173.432C1189.72 170.504 1188.93 167.168 1188.93 163.424C1188.93 159.2 1189.77 155.6 1191.45 152.624C1193.18 149.6 1195.41 147.296 1198.14 145.712C1200.88 144.08 1203.78 143.264 1206.86 143.264C1209.21 143.264 1211.44 143.744 1213.55 144.704C1215.66 145.616 1217.54 146.912 1219.17 148.592C1220.85 150.224 1222.17 152.168 1223.13 154.424C1224.09 156.632 1224.59 159.056 1224.64 161.696C1224.59 162.656 1224.21 163.448 1223.49 164.072C1222.77 164.696 1221.93 165.008 1220.97 165.008H1192.96L1191.23 158.888H1218.3L1216.94 160.184V158.384C1216.84 156.704 1216.29 155.24 1215.28 153.992C1214.27 152.696 1213.02 151.712 1211.54 151.04C1210.05 150.32 1208.49 149.96 1206.86 149.96C1205.42 149.96 1204.02 150.2 1202.68 150.68C1201.38 151.112 1200.21 151.832 1199.15 152.84C1198.14 153.848 1197.33 155.192 1196.7 156.872C1196.13 158.504 1195.84 160.544 1195.84 162.992C1195.84 165.632 1196.39 167.936 1197.5 169.904C1198.6 171.872 1200.09 173.408 1201.96 174.512C1203.83 175.568 1205.9 176.096 1208.15 176.096C1209.93 176.096 1211.39 175.928 1212.54 175.592C1213.7 175.208 1214.66 174.752 1215.42 174.224C1216.19 173.696 1216.86 173.192 1217.44 172.712C1218.16 172.28 1218.88 172.064 1219.6 172.064C1220.46 172.064 1221.18 172.376 1221.76 173C1222.34 173.576 1222.62 174.272 1222.62 175.088C1222.62 176.144 1222.1 177.104 1221.04 177.968C1219.74 179.216 1217.94 180.32 1215.64 181.28C1213.38 182.24 1211.01 182.72 1208.51 182.72ZM1251.86 143.48C1255.22 143.48 1258.19 144.32 1260.79 146C1263.43 147.68 1265.51 149.984 1267.05 152.912C1268.59 155.792 1269.35 159.152 1269.35 162.992C1269.35 166.832 1268.59 170.24 1267.05 173.216C1265.51 176.144 1263.45 178.448 1260.86 180.128C1258.27 181.808 1255.34 182.648 1252.07 182.648C1250.25 182.648 1248.52 182.36 1246.89 181.784C1245.26 181.208 1243.82 180.464 1242.57 179.552C1241.32 178.592 1240.29 177.584 1239.47 176.528C1238.71 175.472 1238.23 174.488 1238.03 173.576L1239.98 172.64V192.728C1239.98 193.784 1239.62 194.648 1238.9 195.32C1238.23 196.04 1237.39 196.4 1236.38 196.4C1235.32 196.4 1234.46 196.04 1233.79 195.32C1233.11 194.648 1232.78 193.784 1232.78 192.728V147.656C1232.78 146.648 1233.11 145.784 1233.79 145.064C1234.46 144.344 1235.32 143.984 1236.38 143.984C1237.39 143.984 1238.23 144.344 1238.9 145.064C1239.62 145.784 1239.98 146.648 1239.98 147.656V152.624L1238.83 151.976C1238.97 151.064 1239.43 150.128 1240.19 149.168C1240.96 148.16 1241.92 147.224 1243.07 146.36C1244.27 145.496 1245.62 144.8 1247.11 144.272C1248.64 143.744 1250.23 143.48 1251.86 143.48ZM1251.07 150.104C1248.76 150.104 1246.75 150.68 1245.02 151.832C1243.34 152.936 1242.02 154.448 1241.06 156.368C1240.1 158.288 1239.62 160.496 1239.62 162.992C1239.62 165.44 1240.1 167.672 1241.06 169.688C1242.02 171.656 1243.34 173.216 1245.02 174.368C1246.75 175.472 1248.76 176.024 1251.07 176.024C1253.32 176.024 1255.29 175.472 1256.97 174.368C1258.65 173.216 1259.97 171.656 1260.93 169.688C1261.94 167.672 1262.44 165.44 1262.44 162.992C1262.44 160.544 1261.94 158.36 1260.93 156.44C1259.97 154.472 1258.65 152.936 1256.97 151.832C1255.29 150.68 1253.32 150.104 1251.07 150.104ZM1276.99 144.56H1293.91C1294.87 144.56 1295.67 144.896 1296.29 145.568C1296.96 146.192 1297.3 146.984 1297.3 147.944C1297.3 148.856 1296.96 149.624 1296.29 150.248C1295.67 150.872 1294.87 151.184 1293.91 151.184H1276.99C1276.03 151.184 1275.22 150.872 1274.55 150.248C1273.92 149.576 1273.61 148.784 1273.61 147.872C1273.61 146.912 1273.92 146.12 1274.55 145.496C1275.22 144.872 1276.03 144.56 1276.99 144.56ZM1284.55 135.2C1285.61 135.2 1286.47 135.56 1287.15 136.28C1287.82 136.952 1288.15 137.816 1288.15 138.872V172.28C1288.15 173.144 1288.3 173.84 1288.59 174.368C1288.87 174.896 1289.26 175.256 1289.74 175.448C1290.27 175.64 1290.79 175.736 1291.32 175.736C1291.85 175.736 1292.31 175.64 1292.69 175.448C1293.12 175.256 1293.63 175.16 1294.2 175.16C1294.78 175.16 1295.31 175.424 1295.79 175.952C1296.27 176.48 1296.51 177.2 1296.51 178.112C1296.51 179.264 1295.88 180.2 1294.63 180.92C1293.39 181.64 1292.04 182 1290.6 182C1289.79 182 1288.83 181.928 1287.72 181.784C1286.62 181.64 1285.54 181.28 1284.48 180.704C1283.47 180.128 1282.63 179.216 1281.96 177.968C1281.29 176.672 1280.95 174.872 1280.95 172.568V138.872C1280.95 137.816 1281.29 136.952 1281.96 136.28C1282.68 135.56 1283.55 135.2 1284.55 135.2ZM1312.04 178.328C1312.04 179.384 1311.7 180.272 1311.03 180.992C1310.36 181.664 1309.49 182 1308.44 182C1307.43 182 1306.57 181.664 1305.85 180.992C1305.17 180.272 1304.84 179.384 1304.84 178.328V147.512C1304.84 146.456 1305.17 145.592 1305.85 144.92C1306.57 144.2 1307.43 143.84 1308.44 143.84C1309.49 143.84 1310.36 144.2 1311.03 144.92C1311.7 145.592 1312.04 146.456 1312.04 147.512V178.328ZM1308.37 139.088C1306.97 139.088 1305.97 138.848 1305.34 138.368C1304.72 137.84 1304.41 136.976 1304.41 135.776V134.624C1304.41 133.424 1304.74 132.584 1305.41 132.104C1306.09 131.624 1307.09 131.384 1308.44 131.384C1309.88 131.384 1310.91 131.648 1311.53 132.176C1312.16 132.656 1312.47 133.472 1312.47 134.624V135.776C1312.47 137.024 1312.13 137.888 1311.46 138.368C1310.84 138.848 1309.81 139.088 1308.37 139.088ZM1341.24 143.264C1344.64 143.264 1347.28 143.984 1349.16 145.424C1351.03 146.816 1352.32 148.712 1353.04 151.112C1353.81 153.464 1354.2 156.104 1354.2 159.032V178.328C1354.2 179.384 1353.84 180.272 1353.12 180.992C1352.44 181.664 1351.6 182 1350.6 182C1349.54 182 1348.68 181.664 1348 180.992C1347.33 180.272 1347 179.384 1347 178.328V159.104C1347 157.376 1346.76 155.84 1346.28 154.496C1345.8 153.104 1344.96 152 1343.76 151.184C1342.6 150.32 1340.97 149.888 1338.86 149.888C1336.89 149.888 1335.16 150.32 1333.68 151.184C1332.19 152 1331.01 153.104 1330.15 154.496C1329.33 155.84 1328.92 157.376 1328.92 159.104V178.328C1328.92 179.384 1328.56 180.272 1327.84 180.992C1327.17 181.664 1326.33 182 1325.32 182C1324.27 182 1323.4 181.664 1322.73 180.992C1322.06 180.272 1321.72 179.384 1321.72 178.328V147.8C1321.72 146.744 1322.06 145.88 1322.73 145.208C1323.4 144.488 1324.27 144.128 1325.32 144.128C1326.33 144.128 1327.17 144.488 1327.84 145.208C1328.56 145.88 1328.92 146.744 1328.92 147.8V151.832L1327.63 152.552C1327.96 151.496 1328.54 150.44 1329.36 149.384C1330.22 148.28 1331.25 147.272 1332.45 146.36C1333.65 145.4 1335 144.656 1336.48 144.128C1337.97 143.552 1339.56 143.264 1341.24 143.264ZM1379.96 143.264C1382.02 143.264 1383.92 143.6 1385.65 144.272C1387.38 144.944 1388.86 145.808 1390.11 146.864C1391.41 147.872 1392.42 148.928 1393.14 150.032C1393.86 151.136 1394.22 152.096 1394.22 152.912L1392.56 152.984V147.224C1392.56 146.216 1392.9 145.352 1393.57 144.632C1394.24 143.912 1395.1 143.552 1396.16 143.552C1397.22 143.552 1398.08 143.912 1398.75 144.632C1399.42 145.304 1399.76 146.168 1399.76 147.224V178.976C1399.76 183.056 1398.9 186.368 1397.17 188.912C1395.44 191.504 1393.14 193.4 1390.26 194.6C1387.42 195.8 1384.3 196.4 1380.9 196.4C1379.7 196.4 1378.28 196.232 1376.65 195.896C1375.02 195.608 1373.5 195.248 1372.11 194.816C1370.77 194.384 1369.83 193.952 1369.3 193.52C1368.2 192.944 1367.46 192.272 1367.07 191.504C1366.74 190.736 1366.74 189.968 1367.07 189.2C1367.55 188.144 1368.2 187.496 1369.02 187.256C1369.83 187.016 1370.77 187.088 1371.82 187.472C1372.3 187.616 1373.05 187.88 1374.06 188.264C1375.06 188.648 1376.19 188.984 1377.44 189.272C1378.69 189.608 1379.86 189.776 1380.97 189.776C1384.81 189.776 1387.69 188.888 1389.61 187.112C1391.58 185.336 1392.56 182.912 1392.56 179.84V173.36L1393.35 173.864C1393.21 174.872 1392.75 175.904 1391.98 176.96C1391.26 177.968 1390.3 178.904 1389.1 179.768C1387.9 180.632 1386.51 181.352 1384.93 181.928C1383.39 182.456 1381.81 182.72 1380.18 182.72C1376.77 182.72 1373.72 181.88 1371.03 180.2C1368.34 178.472 1366.21 176.144 1364.62 173.216C1363.04 170.24 1362.25 166.832 1362.25 162.992C1362.25 159.152 1363.04 155.768 1364.62 152.84C1366.21 149.864 1368.32 147.536 1370.96 145.856C1373.65 144.128 1376.65 143.264 1379.96 143.264ZM1381.04 149.888C1378.69 149.888 1376.62 150.464 1374.85 151.616C1373.07 152.768 1371.68 154.328 1370.67 156.296C1369.66 158.264 1369.16 160.496 1369.16 162.992C1369.16 165.488 1369.66 167.72 1370.67 169.688C1371.68 171.656 1373.07 173.216 1374.85 174.368C1376.62 175.52 1378.69 176.096 1381.04 176.096C1383.39 176.096 1385.46 175.544 1387.23 174.44C1389.01 173.288 1390.4 171.728 1391.41 169.76C1392.42 167.744 1392.92 165.488 1392.92 162.992C1392.92 160.496 1392.42 158.264 1391.41 156.296C1390.4 154.28 1389.01 152.72 1387.23 151.616C1385.46 150.464 1383.39 149.888 1381.04 149.888ZM1448.8 143.48C1452.35 143.48 1455.09 144.368 1457.01 146.144C1458.93 147.872 1460.2 150.224 1460.83 153.2L1459.67 152.84L1460.18 151.688C1460.8 150.44 1461.74 149.192 1462.99 147.944C1464.28 146.648 1465.82 145.592 1467.59 144.776C1469.37 143.912 1471.27 143.48 1473.28 143.48C1476.59 143.48 1479.16 144.2 1480.99 145.64C1482.81 147.032 1484.08 148.928 1484.8 151.328C1485.52 153.68 1485.88 156.32 1485.88 159.248V178.328C1485.88 179.384 1485.55 180.272 1484.87 180.992C1484.2 181.664 1483.34 182 1482.28 182C1481.27 182 1480.41 181.664 1479.69 180.992C1479.02 180.272 1478.68 179.384 1478.68 178.328V159.32C1478.68 157.64 1478.44 156.104 1477.96 154.712C1477.53 153.32 1476.74 152.216 1475.59 151.4C1474.48 150.536 1472.95 150.104 1470.98 150.104C1469.11 150.104 1467.43 150.536 1465.94 151.4C1464.5 152.216 1463.37 153.32 1462.55 154.712C1461.74 156.104 1461.33 157.64 1461.33 159.32V178.328C1461.33 179.384 1460.99 180.272 1460.32 180.992C1459.65 181.664 1458.79 182 1457.73 182C1456.67 182 1455.81 181.664 1455.14 180.992C1454.47 180.272 1454.13 179.384 1454.13 178.328V159.248C1454.13 157.568 1453.89 156.032 1453.41 154.64C1452.98 153.248 1452.21 152.144 1451.11 151.328C1450 150.512 1448.47 150.104 1446.5 150.104C1444.63 150.104 1442.97 150.512 1441.53 151.328C1440.09 152.144 1438.96 153.248 1438.15 154.64C1437.38 156.032 1436.99 157.568 1436.99 159.248V178.328C1436.99 179.384 1436.63 180.272 1435.91 180.992C1435.24 181.664 1434.4 182 1433.39 182C1432.34 182 1431.47 181.664 1430.8 180.992C1430.13 180.272 1429.79 179.384 1429.79 178.328V147.8C1429.79 146.744 1430.13 145.88 1430.8 145.208C1431.47 144.488 1432.34 144.128 1433.39 144.128C1434.4 144.128 1435.24 144.488 1435.91 145.208C1436.63 145.88 1436.99 146.744 1436.99 147.8V152.048L1435.63 152.84C1435.96 151.784 1436.51 150.704 1437.28 149.6C1438.05 148.496 1439.01 147.488 1440.16 146.576C1441.36 145.664 1442.68 144.92 1444.12 144.344C1445.56 143.768 1447.12 143.48 1448.8 143.48ZM1526.99 143.552C1528.05 143.552 1528.91 143.912 1529.58 144.632C1530.25 145.304 1530.59 146.168 1530.59 147.224V178.328C1530.59 179.384 1530.25 180.272 1529.58 180.992C1528.91 181.664 1528.05 182 1526.99 182C1525.98 182 1525.12 181.664 1524.4 180.992C1523.73 180.272 1523.39 179.384 1523.39 178.328V173.144L1524.9 173.36C1524.9 174.224 1524.54 175.184 1523.82 176.24C1523.15 177.296 1522.21 178.328 1521.01 179.336C1519.81 180.296 1518.4 181.112 1516.77 181.784C1515.13 182.408 1513.38 182.72 1511.51 182.72C1508.2 182.72 1505.22 181.88 1502.58 180.2C1499.94 178.472 1497.85 176.12 1496.32 173.144C1494.78 170.168 1494.01 166.784 1494.01 162.992C1494.01 159.104 1494.78 155.696 1496.32 152.768C1497.85 149.792 1499.92 147.464 1502.51 145.784C1505.15 144.104 1508.08 143.264 1511.29 143.264C1513.36 143.264 1515.25 143.6 1516.98 144.272C1518.76 144.944 1520.29 145.808 1521.59 146.864C1522.89 147.92 1523.87 149.048 1524.54 150.248C1525.26 151.4 1525.62 152.504 1525.62 153.56L1523.39 153.776V147.224C1523.39 146.216 1523.73 145.352 1524.4 144.632C1525.12 143.912 1525.98 143.552 1526.99 143.552ZM1512.3 176.096C1514.56 176.096 1516.55 175.52 1518.28 174.368C1520.01 173.216 1521.35 171.656 1522.31 169.688C1523.27 167.672 1523.75 165.44 1523.75 162.992C1523.75 160.496 1523.27 158.264 1522.31 156.296C1521.35 154.328 1520.01 152.768 1518.28 151.616C1516.55 150.464 1514.56 149.888 1512.3 149.888C1510.09 149.888 1508.13 150.464 1506.4 151.616C1504.72 152.768 1503.37 154.328 1502.37 156.296C1501.41 158.264 1500.93 160.496 1500.93 162.992C1500.93 165.44 1501.41 167.672 1502.37 169.688C1503.37 171.656 1504.72 173.216 1506.4 174.368C1508.13 175.52 1510.09 176.096 1512.3 176.096ZM1544.28 182C1543.22 182 1542.36 181.664 1541.68 180.992C1541.01 180.272 1540.68 179.384 1540.68 178.328V147.8C1540.68 146.744 1541.01 145.88 1541.68 145.208C1542.36 144.488 1543.22 144.128 1544.28 144.128C1545.28 144.128 1546.12 144.488 1546.8 145.208C1547.52 145.88 1547.88 146.744 1547.88 147.8V155.864L1547.16 152.768C1547.54 151.424 1548.12 150.176 1548.88 149.024C1549.7 147.872 1550.66 146.864 1551.76 146C1552.87 145.136 1554.09 144.464 1555.44 143.984C1556.83 143.504 1558.27 143.264 1559.76 143.264C1561 143.264 1562.08 143.6 1563 144.272C1563.91 144.944 1564.36 145.784 1564.36 146.792C1564.36 148.088 1564.03 149.048 1563.36 149.672C1562.68 150.248 1561.94 150.536 1561.12 150.536C1560.4 150.536 1559.71 150.392 1559.04 150.104C1558.36 149.768 1557.57 149.6 1556.66 149.6C1555.65 149.6 1554.62 149.864 1553.56 150.392C1552.51 150.92 1551.55 151.712 1550.68 152.768C1549.82 153.776 1549.12 154.976 1548.6 156.368C1548.12 157.76 1547.88 159.32 1547.88 161.048V178.328C1547.88 179.384 1547.52 180.272 1546.8 180.992C1546.12 181.664 1545.28 182 1544.28 182ZM1574.95 182C1573.94 182 1573.07 181.664 1572.35 180.992C1571.68 180.272 1571.35 179.384 1571.35 178.328V132.392C1571.35 131.336 1571.68 130.472 1572.35 129.8C1573.07 129.08 1573.94 128.72 1574.95 128.72C1576 128.72 1576.87 129.08 1577.54 129.8C1578.21 130.472 1578.55 131.336 1578.55 132.392V178.328C1578.55 179.384 1578.21 180.272 1577.54 180.992C1576.87 181.664 1576 182 1574.95 182ZM1598.42 143.984C1599.33 143.984 1600.12 144.368 1600.79 145.136C1601.47 145.904 1601.8 146.672 1601.8 147.44C1601.8 148.4 1601.35 149.288 1600.43 150.104L1577.9 170.264L1577.61 161.984L1595.75 145.136C1596.52 144.368 1597.41 143.984 1598.42 143.984ZM1599.28 181.928C1598.27 181.928 1597.41 181.52 1596.69 180.704L1582.29 165.512L1587.76 160.472L1601.8 175.664C1602.57 176.48 1602.95 177.392 1602.95 178.4C1602.95 179.456 1602.52 180.32 1601.66 180.992C1600.84 181.616 1600.05 181.928 1599.28 181.928ZM1626.94 182.72C1622.96 182.72 1619.5 181.904 1616.57 180.272C1613.65 178.592 1611.37 176.312 1609.73 173.432C1608.15 170.504 1607.36 167.168 1607.36 163.424C1607.36 159.2 1608.2 155.6 1609.88 152.624C1611.61 149.6 1613.84 147.296 1616.57 145.712C1619.31 144.08 1622.21 143.264 1625.29 143.264C1627.64 143.264 1629.87 143.744 1631.98 144.704C1634.09 145.616 1635.97 146.912 1637.6 148.592C1639.28 150.224 1640.6 152.168 1641.56 154.424C1642.52 156.632 1643.02 159.056 1643.07 161.696C1643.02 162.656 1642.64 163.448 1641.92 164.072C1641.2 164.696 1640.36 165.008 1639.4 165.008H1611.39L1609.66 158.888H1636.73L1635.37 160.184V158.384C1635.27 156.704 1634.72 155.24 1633.71 153.992C1632.7 152.696 1631.45 151.712 1629.97 151.04C1628.48 150.32 1626.92 149.96 1625.29 149.96C1623.85 149.96 1622.45 150.2 1621.11 150.68C1619.81 151.112 1618.64 151.832 1617.58 152.84C1616.57 153.848 1615.76 155.192 1615.13 156.872C1614.56 158.504 1614.27 160.544 1614.27 162.992C1614.27 165.632 1614.82 167.936 1615.93 169.904C1617.03 171.872 1618.52 173.408 1620.39 174.512C1622.26 175.568 1624.33 176.096 1626.58 176.096C1628.36 176.096 1629.82 175.928 1630.97 175.592C1632.13 175.208 1633.09 174.752 1633.85 174.224C1634.62 173.696 1635.29 173.192 1635.87 172.712C1636.59 172.28 1637.31 172.064 1638.03 172.064C1638.89 172.064 1639.61 172.376 1640.19 173C1640.77 173.576 1641.05 174.272 1641.05 175.088C1641.05 176.144 1640.53 177.104 1639.47 177.968C1638.17 179.216 1636.37 180.32 1634.07 181.28C1631.81 182.24 1629.44 182.72 1626.94 182.72ZM1650.7 144.56H1667.62C1668.58 144.56 1669.38 144.896 1670 145.568C1670.67 146.192 1671.01 146.984 1671.01 147.944C1671.01 148.856 1670.67 149.624 1670 150.248C1669.38 150.872 1668.58 151.184 1667.62 151.184H1650.7C1649.74 151.184 1648.93 150.872 1648.26 150.248C1647.63 149.576 1647.32 148.784 1647.32 147.872C1647.32 146.912 1647.63 146.12 1648.26 145.496C1648.93 144.872 1649.74 144.56 1650.7 144.56ZM1658.26 135.2C1659.32 135.2 1660.18 135.56 1660.86 136.28C1661.53 136.952 1661.86 137.816 1661.86 138.872V172.28C1661.86 173.144 1662.01 173.84 1662.3 174.368C1662.58 174.896 1662.97 175.256 1663.45 175.448C1663.98 175.64 1664.5 175.736 1665.03 175.736C1665.56 175.736 1666.02 175.64 1666.4 175.448C1666.83 175.256 1667.34 175.16 1667.91 175.16C1668.49 175.16 1669.02 175.424 1669.5 175.952C1669.98 176.48 1670.22 177.2 1670.22 178.112C1670.22 179.264 1669.59 180.2 1668.34 180.92C1667.1 181.64 1665.75 182 1664.31 182C1663.5 182 1662.54 181.928 1661.43 181.784C1660.33 181.64 1659.25 181.28 1658.19 180.704C1657.18 180.128 1656.34 179.216 1655.67 177.968C1655 176.672 1654.66 174.872 1654.66 172.568V138.872C1654.66 137.816 1655 136.952 1655.67 136.28C1656.39 135.56 1657.26 135.2 1658.26 135.2ZM1685.75 178.328C1685.75 179.384 1685.41 180.272 1684.74 180.992C1684.07 181.664 1683.21 182 1682.15 182C1681.14 182 1680.28 181.664 1679.56 180.992C1678.89 180.272 1678.55 179.384 1678.55 178.328V147.512C1678.55 146.456 1678.89 145.592 1679.56 144.92C1680.28 144.2 1681.14 143.84 1682.15 143.84C1683.21 143.84 1684.07 144.2 1684.74 144.92C1685.41 145.592 1685.75 146.456 1685.75 147.512V178.328ZM1682.08 139.088C1680.69 139.088 1679.68 138.848 1679.05 138.368C1678.43 137.84 1678.12 136.976 1678.12 135.776V134.624C1678.12 133.424 1678.45 132.584 1679.13 132.104C1679.8 131.624 1680.81 131.384 1682.15 131.384C1683.59 131.384 1684.62 131.648 1685.25 132.176C1685.87 132.656 1686.18 133.472 1686.18 134.624V135.776C1686.18 137.024 1685.85 137.888 1685.17 138.368C1684.55 138.848 1683.52 139.088 1682.08 139.088ZM1714.95 143.264C1718.35 143.264 1720.99 143.984 1722.87 145.424C1724.74 146.816 1726.03 148.712 1726.75 151.112C1727.52 153.464 1727.91 156.104 1727.91 159.032V178.328C1727.91 179.384 1727.55 180.272 1726.83 180.992C1726.15 181.664 1725.31 182 1724.31 182C1723.25 182 1722.39 181.664 1721.71 180.992C1721.04 180.272 1720.71 179.384 1720.71 178.328V159.104C1720.71 157.376 1720.47 155.84 1719.99 154.496C1719.51 153.104 1718.67 152 1717.47 151.184C1716.31 150.32 1714.68 149.888 1712.57 149.888C1710.6 149.888 1708.87 150.32 1707.39 151.184C1705.9 152 1704.72 153.104 1703.86 154.496C1703.04 155.84 1702.63 157.376 1702.63 159.104V178.328C1702.63 179.384 1702.27 180.272 1701.55 180.992C1700.88 181.664 1700.04 182 1699.03 182C1697.98 182 1697.11 181.664 1696.44 180.992C1695.77 180.272 1695.43 179.384 1695.43 178.328V147.8C1695.43 146.744 1695.77 145.88 1696.44 145.208C1697.11 144.488 1697.98 144.128 1699.03 144.128C1700.04 144.128 1700.88 144.488 1701.55 145.208C1702.27 145.88 1702.63 146.744 1702.63 147.8V151.832L1701.34 152.552C1701.67 151.496 1702.25 150.44 1703.07 149.384C1703.93 148.28 1704.96 147.272 1706.16 146.36C1707.36 145.4 1708.71 144.656 1710.19 144.128C1711.68 143.552 1713.27 143.264 1714.95 143.264ZM1753.67 143.264C1755.74 143.264 1757.63 143.6 1759.36 144.272C1761.09 144.944 1762.58 145.808 1763.82 146.864C1765.12 147.872 1766.13 148.928 1766.85 150.032C1767.57 151.136 1767.93 152.096 1767.93 152.912L1766.27 152.984V147.224C1766.27 146.216 1766.61 145.352 1767.28 144.632C1767.95 143.912 1768.82 143.552 1769.87 143.552C1770.93 143.552 1771.79 143.912 1772.46 144.632C1773.14 145.304 1773.47 146.168 1773.47 147.224V178.976C1773.47 183.056 1772.61 186.368 1770.88 188.912C1769.15 191.504 1766.85 193.4 1763.97 194.6C1761.14 195.8 1758.02 196.4 1754.61 196.4C1753.41 196.4 1751.99 196.232 1750.36 195.896C1748.73 195.608 1747.22 195.248 1745.82 194.816C1744.48 194.384 1743.54 193.952 1743.02 193.52C1741.91 192.944 1741.17 192.272 1740.78 191.504C1740.45 190.736 1740.45 189.968 1740.78 189.2C1741.26 188.144 1741.91 187.496 1742.73 187.256C1743.54 187.016 1744.48 187.088 1745.54 187.472C1746.02 187.616 1746.76 187.88 1747.77 188.264C1748.78 188.648 1749.9 188.984 1751.15 189.272C1752.4 189.608 1753.58 189.776 1754.68 189.776C1758.52 189.776 1761.4 188.888 1763.32 187.112C1765.29 185.336 1766.27 182.912 1766.27 179.84V173.36L1767.06 173.864C1766.92 174.872 1766.46 175.904 1765.7 176.96C1764.98 177.968 1764.02 178.904 1762.82 179.768C1761.62 180.632 1760.22 181.352 1758.64 181.928C1757.1 182.456 1755.52 182.72 1753.89 182.72C1750.48 182.72 1747.43 181.88 1744.74 180.2C1742.06 178.472 1739.92 176.144 1738.34 173.216C1736.75 170.24 1735.96 166.832 1735.96 162.992C1735.96 159.152 1736.75 155.768 1738.34 152.84C1739.92 149.864 1742.03 147.536 1744.67 145.856C1747.36 144.128 1750.36 143.264 1753.67 143.264ZM1754.75 149.888C1752.4 149.888 1750.34 150.464 1748.56 151.616C1746.78 152.768 1745.39 154.328 1744.38 156.296C1743.38 158.264 1742.87 160.496 1742.87 162.992C1742.87 165.488 1743.38 167.72 1744.38 169.688C1745.39 171.656 1746.78 173.216 1748.56 174.368C1750.34 175.52 1752.4 176.096 1754.75 176.096C1757.1 176.096 1759.17 175.544 1760.94 174.44C1762.72 173.288 1764.11 171.728 1765.12 169.76C1766.13 167.744 1766.63 165.488 1766.63 162.992C1766.63 160.496 1766.13 158.264 1765.12 156.296C1764.11 154.28 1762.72 152.72 1760.94 151.616C1759.17 150.464 1757.1 149.888 1754.75 149.888ZM1811.28 178.328C1811.28 179.384 1810.92 180.272 1810.2 180.992C1809.53 181.664 1808.69 182 1807.68 182C1806.67 182 1805.81 181.664 1805.09 180.992C1804.42 180.272 1804.08 179.384 1804.08 178.328V132.392C1804.08 131.336 1804.44 130.472 1805.16 129.8C1805.88 129.08 1806.74 128.72 1807.75 128.72C1808.81 128.72 1809.65 129.08 1810.27 129.8C1810.94 130.472 1811.28 131.336 1811.28 132.392V178.328ZM1828.77 178.328C1828.77 179.384 1828.43 180.272 1827.76 180.992C1827.09 181.664 1826.22 182 1825.17 182C1824.16 182 1823.29 181.664 1822.57 180.992C1821.9 180.272 1821.57 179.384 1821.57 178.328V147.512C1821.57 146.456 1821.9 145.592 1822.57 144.92C1823.29 144.2 1824.16 143.84 1825.17 143.84C1826.22 143.84 1827.09 144.2 1827.76 144.92C1828.43 145.592 1828.77 146.456 1828.77 147.512V178.328ZM1825.09 139.088C1823.7 139.088 1822.69 138.848 1822.07 138.368C1821.45 137.84 1821.13 136.976 1821.13 135.776V134.624C1821.13 133.424 1821.47 132.584 1822.14 132.104C1822.81 131.624 1823.82 131.384 1825.17 131.384C1826.61 131.384 1827.64 131.648 1828.26 132.176C1828.89 132.656 1829.2 133.472 1829.2 134.624V135.776C1829.2 137.024 1828.86 137.888 1828.19 138.368C1827.57 138.848 1826.53 139.088 1825.09 139.088ZM1857.46 143.48C1861.01 143.48 1863.75 144.368 1865.67 146.144C1867.59 147.872 1868.86 150.224 1869.48 153.2L1868.33 152.84L1868.83 151.688C1869.46 150.44 1870.39 149.192 1871.64 147.944C1872.94 146.648 1874.47 145.592 1876.25 144.776C1878.03 143.912 1879.92 143.48 1881.94 143.48C1885.25 143.48 1887.82 144.2 1889.64 145.64C1891.47 147.032 1892.74 148.928 1893.46 151.328C1894.18 153.68 1894.54 156.32 1894.54 159.248V178.328C1894.54 179.384 1894.2 180.272 1893.53 180.992C1892.86 181.664 1891.99 182 1890.94 182C1889.93 182 1889.07 181.664 1888.35 180.992C1887.67 180.272 1887.34 179.384 1887.34 178.328V159.32C1887.34 157.64 1887.1 156.104 1886.62 154.712C1886.19 153.32 1885.39 152.216 1884.24 151.4C1883.14 150.536 1881.6 150.104 1879.63 150.104C1877.76 150.104 1876.08 150.536 1874.59 151.4C1873.15 152.216 1872.03 153.32 1871.21 154.712C1870.39 156.104 1869.99 157.64 1869.99 159.32V178.328C1869.99 179.384 1869.65 180.272 1868.98 180.992C1868.31 181.664 1867.44 182 1866.39 182C1865.33 182 1864.47 181.664 1863.79 180.992C1863.12 180.272 1862.79 179.384 1862.79 178.328V159.248C1862.79 157.568 1862.55 156.032 1862.07 154.64C1861.63 153.248 1860.87 152.144 1859.76 151.328C1858.66 150.512 1857.12 150.104 1855.15 150.104C1853.28 150.104 1851.63 150.512 1850.19 151.328C1848.75 152.144 1847.62 153.248 1846.8 154.64C1846.03 156.032 1845.65 157.568 1845.65 159.248V178.328C1845.65 179.384 1845.29 180.272 1844.57 180.992C1843.9 181.664 1843.06 182 1842.05 182C1840.99 182 1840.13 181.664 1839.46 180.992C1838.79 180.272 1838.45 179.384 1838.45 178.328V147.8C1838.45 146.744 1838.79 145.88 1839.46 145.208C1840.13 144.488 1840.99 144.128 1842.05 144.128C1843.06 144.128 1843.9 144.488 1844.57 145.208C1845.29 145.88 1845.65 146.744 1845.65 147.8V152.048L1844.28 152.84C1844.62 151.784 1845.17 150.704 1845.94 149.6C1846.71 148.496 1847.67 147.488 1848.82 146.576C1850.02 145.664 1851.34 144.92 1852.78 144.344C1854.22 143.768 1855.78 143.48 1857.46 143.48ZM1911.38 178.328C1911.38 179.384 1911.05 180.272 1910.37 180.992C1909.7 181.664 1908.84 182 1907.78 182C1906.77 182 1905.91 181.664 1905.19 180.992C1904.52 180.272 1904.18 179.384 1904.18 178.328V147.512C1904.18 146.456 1904.52 145.592 1905.19 144.92C1905.91 144.2 1906.77 143.84 1907.78 143.84C1908.84 143.84 1909.7 144.2 1910.37 144.92C1911.05 145.592 1911.38 146.456 1911.38 147.512V178.328ZM1907.71 139.088C1906.32 139.088 1905.31 138.848 1904.69 138.368C1904.06 137.84 1903.75 136.976 1903.75 135.776V134.624C1903.75 133.424 1904.09 132.584 1904.76 132.104C1905.43 131.624 1906.44 131.384 1907.78 131.384C1909.22 131.384 1910.25 131.648 1910.88 132.176C1911.5 132.656 1911.81 133.472 1911.81 134.624V135.776C1911.81 137.024 1911.48 137.888 1910.81 138.368C1910.18 138.848 1909.15 139.088 1907.71 139.088ZM1920.56 144.56H1937.48C1938.44 144.56 1939.24 144.896 1939.86 145.568C1940.53 146.192 1940.87 146.984 1940.87 147.944C1940.87 148.856 1940.53 149.624 1939.86 150.248C1939.24 150.872 1938.44 151.184 1937.48 151.184H1920.56C1919.6 151.184 1918.79 150.872 1918.12 150.248C1917.49 149.576 1917.18 148.784 1917.18 147.872C1917.18 146.912 1917.49 146.12 1918.12 145.496C1918.79 144.872 1919.6 144.56 1920.56 144.56ZM1928.12 135.2C1929.18 135.2 1930.04 135.56 1930.72 136.28C1931.39 136.952 1931.72 137.816 1931.72 138.872V172.28C1931.72 173.144 1931.87 173.84 1932.16 174.368C1932.44 174.896 1932.83 175.256 1933.31 175.448C1933.84 175.64 1934.36 175.736 1934.89 175.736C1935.42 175.736 1935.88 175.64 1936.26 175.448C1936.69 175.256 1937.2 175.16 1937.77 175.16C1938.35 175.16 1938.88 175.424 1939.36 175.952C1939.84 176.48 1940.08 177.2 1940.08 178.112C1940.08 179.264 1939.45 180.2 1938.2 180.92C1936.96 181.64 1935.61 182 1934.17 182C1933.36 182 1932.4 181.928 1931.29 181.784C1930.19 181.64 1929.11 181.28 1928.05 180.704C1927.04 180.128 1926.2 179.216 1925.53 177.968C1924.86 176.672 1924.52 174.872 1924.52 172.568V138.872C1924.52 137.816 1924.86 136.952 1925.53 136.28C1926.25 135.56 1927.12 135.2 1928.12 135.2ZM1979.87 143.552C1980.93 143.552 1981.79 143.912 1982.46 144.632C1983.14 145.304 1983.47 146.168 1983.47 147.224V178.328C1983.47 179.384 1983.14 180.272 1982.46 180.992C1981.79 181.664 1980.93 182 1979.87 182C1978.86 182 1978 181.664 1977.28 180.992C1976.61 180.272 1976.27 179.384 1976.27 178.328V173.144L1977.78 173.36C1977.78 174.224 1977.42 175.184 1976.7 176.24C1976.03 177.296 1975.1 178.328 1973.9 179.336C1972.7 180.296 1971.28 181.112 1969.65 181.784C1968.02 182.408 1966.26 182.72 1964.39 182.72C1961.08 182.72 1958.1 181.88 1955.46 180.2C1952.82 178.472 1950.74 176.12 1949.2 173.144C1947.66 170.168 1946.9 166.784 1946.9 162.992C1946.9 159.104 1947.66 155.696 1949.2 152.768C1950.74 149.792 1952.8 147.464 1955.39 145.784C1958.03 144.104 1960.96 143.264 1964.18 143.264C1966.24 143.264 1968.14 143.6 1969.86 144.272C1971.64 144.944 1973.18 145.808 1974.47 146.864C1975.77 147.92 1976.75 149.048 1977.42 150.248C1978.14 151.4 1978.5 152.504 1978.5 153.56L1976.27 153.776V147.224C1976.27 146.216 1976.61 145.352 1977.28 144.632C1978 143.912 1978.86 143.552 1979.87 143.552ZM1965.18 176.096C1967.44 176.096 1969.43 175.52 1971.16 174.368C1972.89 173.216 1974.23 171.656 1975.19 169.688C1976.15 167.672 1976.63 165.44 1976.63 162.992C1976.63 160.496 1976.15 158.264 1975.19 156.296C1974.23 154.328 1972.89 152.768 1971.16 151.616C1969.43 150.464 1967.44 149.888 1965.18 149.888C1962.98 149.888 1961.01 150.464 1959.28 151.616C1957.6 152.768 1956.26 154.328 1955.25 156.296C1954.29 158.264 1953.81 160.496 1953.81 162.992C1953.81 165.44 1954.29 167.672 1955.25 169.688C1956.26 171.656 1957.6 173.216 1959.28 174.368C1961.01 175.52 1962.98 176.096 1965.18 176.096ZM1993.06 144.56H2009.98C2010.94 144.56 2011.73 144.896 2012.35 145.568C2013.02 146.192 2013.36 146.984 2013.36 147.944C2013.36 148.856 2013.02 149.624 2012.35 150.248C2011.73 150.872 2010.94 151.184 2009.98 151.184H1993.06C1992.1 151.184 1991.28 150.872 1990.61 150.248C1989.98 149.576 1989.67 148.784 1989.67 147.872C1989.67 146.912 1989.98 146.12 1990.61 145.496C1991.28 144.872 1992.1 144.56 1993.06 144.56ZM2000.62 135.2C2001.67 135.2 2002.54 135.56 2003.21 136.28C2003.88 136.952 2004.22 137.816 2004.22 138.872V172.28C2004.22 173.144 2004.36 173.84 2004.65 174.368C2004.94 174.896 2005.32 175.256 2005.8 175.448C2006.33 175.64 2006.86 175.736 2007.38 175.736C2007.91 175.736 2008.37 175.64 2008.75 175.448C2009.18 175.256 2009.69 175.16 2010.26 175.16C2010.84 175.16 2011.37 175.424 2011.85 175.952C2012.33 176.48 2012.57 177.2 2012.57 178.112C2012.57 179.264 2011.94 180.2 2010.7 180.92C2009.45 181.64 2008.1 182 2006.66 182C2005.85 182 2004.89 181.928 2003.78 181.784C2002.68 181.64 2001.6 181.28 2000.54 180.704C1999.54 180.128 1998.7 179.216 1998.02 177.968C1997.35 176.672 1997.02 174.872 1997.02 172.568V138.872C1997.02 137.816 1997.35 136.952 1998.02 136.28C1998.74 135.56 1999.61 135.2 2000.62 135.2ZM2028.1 178.328C2028.1 179.384 2027.76 180.272 2027.09 180.992C2026.42 181.664 2025.56 182 2024.5 182C2023.49 182 2022.63 181.664 2021.91 180.992C2021.24 180.272 2020.9 179.384 2020.9 178.328V147.512C2020.9 146.456 2021.24 145.592 2021.91 144.92C2022.63 144.2 2023.49 143.84 2024.5 143.84C2025.56 143.84 2026.42 144.2 2027.09 144.92C2027.76 145.592 2028.1 146.456 2028.1 147.512V178.328ZM2024.43 139.088C2023.04 139.088 2022.03 138.848 2021.4 138.368C2020.78 137.84 2020.47 136.976 2020.47 135.776V134.624C2020.47 133.424 2020.8 132.584 2021.48 132.104C2022.15 131.624 2023.16 131.384 2024.5 131.384C2025.94 131.384 2026.97 131.648 2027.6 132.176C2028.22 132.656 2028.53 133.472 2028.53 134.624V135.776C2028.53 137.024 2028.2 137.888 2027.52 138.368C2026.9 138.848 2025.87 139.088 2024.43 139.088ZM2074.07 163.064C2074.07 166.904 2073.23 170.312 2071.55 173.288C2069.87 176.216 2067.59 178.52 2064.71 180.2C2061.83 181.88 2058.59 182.72 2054.99 182.72C2051.39 182.72 2048.15 181.88 2045.27 180.2C2042.39 178.52 2040.09 176.216 2038.36 173.288C2036.68 170.312 2035.84 166.904 2035.84 163.064C2035.84 159.176 2036.68 155.768 2038.36 152.84C2040.09 149.864 2042.39 147.536 2045.27 145.856C2048.15 144.128 2051.39 143.264 2054.99 143.264C2058.59 143.264 2061.83 144.128 2064.71 145.856C2067.59 147.536 2069.87 149.864 2071.55 152.84C2073.23 155.768 2074.07 159.176 2074.07 163.064ZM2066.87 163.064C2066.87 160.424 2066.35 158.144 2065.29 156.224C2064.23 154.256 2062.79 152.72 2060.97 151.616C2059.19 150.464 2057.2 149.888 2054.99 149.888C2052.79 149.888 2050.77 150.464 2048.95 151.616C2047.12 152.72 2045.68 154.256 2044.63 156.224C2043.57 158.144 2043.04 160.424 2043.04 163.064C2043.04 165.608 2043.57 167.864 2044.63 169.832C2045.68 171.8 2047.12 173.336 2048.95 174.44C2050.77 175.544 2052.79 176.096 2054.99 176.096C2057.2 176.096 2059.19 175.544 2060.97 174.44C2062.79 173.336 2064.23 171.8 2065.29 169.832C2066.35 167.864 2066.87 165.608 2066.87 163.064ZM2101.74 143.264C2105.14 143.264 2107.78 143.984 2109.66 145.424C2111.53 146.816 2112.82 148.712 2113.54 151.112C2114.31 153.464 2114.7 156.104 2114.7 159.032V178.328C2114.7 179.384 2114.34 180.272 2113.62 180.992C2112.94 181.664 2112.1 182 2111.1 182C2110.04 182 2109.18 181.664 2108.5 180.992C2107.83 180.272 2107.5 179.384 2107.5 178.328V159.104C2107.5 157.376 2107.26 155.84 2106.78 154.496C2106.3 153.104 2105.46 152 2104.26 151.184C2103.1 150.32 2101.47 149.888 2099.36 149.888C2097.39 149.888 2095.66 150.32 2094.18 151.184C2092.69 152 2091.51 153.104 2090.65 154.496C2089.83 155.84 2089.42 157.376 2089.42 159.104V178.328C2089.42 179.384 2089.06 180.272 2088.34 180.992C2087.67 181.664 2086.83 182 2085.82 182C2084.77 182 2083.9 181.664 2083.23 180.992C2082.56 180.272 2082.22 179.384 2082.22 178.328V147.8C2082.22 146.744 2082.56 145.88 2083.23 145.208C2083.9 144.488 2084.77 144.128 2085.82 144.128C2086.83 144.128 2087.67 144.488 2088.34 145.208C2089.06 145.88 2089.42 146.744 2089.42 147.8V151.832L2088.13 152.552C2088.46 151.496 2089.04 150.44 2089.86 149.384C2090.72 148.28 2091.75 147.272 2092.95 146.36C2094.15 145.4 2095.5 144.656 2096.98 144.128C2098.47 143.552 2100.06 143.264 2101.74 143.264ZM2122.46 176.096C2122.03 175.424 2121.84 174.656 2121.88 173.792C2121.93 172.88 2122.44 172.112 2123.4 171.488C2124.07 171.056 2124.76 170.888 2125.48 170.984C2126.25 171.032 2126.97 171.392 2127.64 172.064C2128.99 173.552 2130.48 174.728 2132.11 175.592C2133.79 176.456 2135.8 176.888 2138.16 176.888C2139.12 176.84 2140.1 176.696 2141.11 176.456C2142.12 176.168 2142.98 175.688 2143.7 175.016C2144.42 174.296 2144.78 173.264 2144.78 171.92C2144.78 170.72 2144.4 169.76 2143.63 169.04C2142.86 168.32 2141.85 167.744 2140.6 167.312C2139.36 166.832 2138.01 166.4 2136.57 166.016C2135.04 165.584 2133.48 165.104 2131.89 164.576C2130.36 164.048 2128.96 163.376 2127.72 162.56C2126.47 161.696 2125.44 160.592 2124.62 159.248C2123.85 157.904 2123.47 156.248 2123.47 154.28C2123.47 152.024 2124.09 150.08 2125.34 148.448C2126.64 146.816 2128.29 145.544 2130.31 144.632C2132.37 143.72 2134.6 143.264 2137 143.264C2138.4 143.264 2139.86 143.456 2141.4 143.84C2142.93 144.176 2144.42 144.728 2145.86 145.496C2147.3 146.264 2148.55 147.272 2149.6 148.52C2150.08 149.144 2150.35 149.888 2150.4 150.752C2150.49 151.616 2150.11 152.384 2149.24 153.056C2148.67 153.536 2147.97 153.752 2147.16 153.704C2146.34 153.656 2145.67 153.392 2145.14 152.912C2144.23 151.76 2143.05 150.872 2141.61 150.248C2140.17 149.576 2138.54 149.24 2136.72 149.24C2135.8 149.24 2134.84 149.384 2133.84 149.672C2132.88 149.912 2132.06 150.368 2131.39 151.04C2130.72 151.712 2130.38 152.696 2130.38 153.992C2130.38 155.192 2130.76 156.152 2131.53 156.872C2132.35 157.592 2133.4 158.192 2134.7 158.672C2136 159.152 2137.41 159.584 2138.95 159.968C2140.44 160.352 2141.9 160.808 2143.34 161.336C2144.83 161.864 2146.15 162.56 2147.3 163.424C2148.5 164.24 2149.46 165.32 2150.18 166.664C2150.95 167.96 2151.33 169.616 2151.33 171.632C2151.33 173.984 2150.64 176 2149.24 177.68C2147.9 179.312 2146.17 180.56 2144.06 181.424C2142 182.288 2139.81 182.72 2137.51 182.72C2134.77 182.72 2132.04 182.24 2129.3 181.28C2126.61 180.272 2124.33 178.544 2122.46 176.096ZM2166.35 158.744C2166.35 157.736 2166.68 156.872 2167.36 156.152C2168.08 155.432 2168.94 155.072 2169.95 155.072C2172.01 155.024 2173.86 154.64 2175.49 153.92C2177.12 153.2 2178.42 152.12 2179.38 150.68C2180.34 149.24 2180.82 147.44 2180.82 145.28C2180.82 143.408 2180.39 141.8 2179.52 140.456C2178.71 139.064 2177.58 137.984 2176.14 137.216C2174.7 136.4 2173.07 135.992 2171.24 135.992C2169.66 135.992 2168.2 136.304 2166.85 136.928C2165.51 137.552 2164.31 138.368 2163.25 139.376C2162.63 139.952 2161.86 140.384 2160.95 140.672C2160.08 140.912 2159.2 140.696 2158.28 140.024C2157.32 139.352 2156.8 138.512 2156.7 137.504C2156.6 136.496 2156.96 135.56 2157.78 134.696C2159.41 132.872 2161.4 131.432 2163.76 130.376C2166.11 129.32 2168.6 128.792 2171.24 128.792C2174.36 128.792 2177.2 129.512 2179.74 130.952C2182.28 132.392 2184.3 134.336 2185.79 136.784C2187.28 139.232 2188.02 142.064 2188.02 145.28C2188.02 147.488 2187.66 149.504 2186.94 151.328C2186.22 153.152 2185.19 154.736 2183.84 156.08C2182.5 157.424 2180.94 158.504 2179.16 159.32C2177.44 160.136 2175.54 160.664 2173.48 160.904C2173.38 160.952 2173.33 160.976 2173.33 160.976C2173.38 160.976 2173.45 160.976 2173.55 160.976V165.296C2173.55 166.304 2173.19 167.168 2172.47 167.888C2171.8 168.56 2170.96 168.896 2169.95 168.896C2168.89 168.896 2168.03 168.56 2167.36 167.888C2166.68 167.168 2166.35 166.304 2166.35 165.296V158.744ZM2169.73 182C2168.53 182 2167.6 181.664 2166.92 180.992C2166.3 180.32 2165.99 179.384 2165.99 178.184V176.888C2165.99 175.64 2166.3 174.704 2166.92 174.08C2167.6 173.408 2168.53 173.072 2169.73 173.072H2170.45C2171.7 173.072 2172.64 173.408 2173.26 174.08C2173.88 174.704 2174.2 175.64 2174.2 176.888V178.184C2174.2 179.384 2173.88 180.32 2173.26 180.992C2172.64 181.664 2171.7 182 2170.45 182H2169.73Z" fill="black"/>
</svg>
