<svg width="134" height="27" viewBox="0 0 134 27" fill="none" xmlns="http://www.w3.org/2000/svg">
<path d="M10.8511 1.37002C12.9661 1.37002 14.5883 1.92279 15.7179 3.02832C16.8715 4.10983 17.4483 5.64797 17.4483 7.64274C17.4483 8.70021 17.208 9.67356 16.7273 10.5628C16.2466 11.452 15.5376 12.161 14.6003 12.6898C13.6871 13.2185 12.5575 13.5069 11.2116 13.555L11.1395 12.5456C11.9807 12.5456 12.8459 12.6657 13.7351 12.9061C14.6244 13.1464 15.4415 13.5309 16.1865 14.0597C16.9556 14.5884 17.5685 15.2854 18.0251 16.1506C18.5058 17.0158 18.7461 18.0853 18.7461 19.359C18.7461 20.7289 18.5178 21.8825 18.0611 22.8198C17.6045 23.7331 16.9917 24.4781 16.2226 25.0549C15.4775 25.6077 14.6364 26.0043 13.6991 26.2446C12.7858 26.4849 11.8605 26.6051 10.9232 26.6051H1.44204C1.03347 26.6051 0.684984 26.4609 0.396583 26.1725C0.132215 25.8841 3.15449e-05 25.5356 3.15449e-05 25.127V2.81202C3.15449e-05 2.40345 0.132215 2.06699 0.396583 1.80262C0.684984 1.51422 1.03347 1.37002 1.44204 1.37002H10.8511ZM10.4185 4.21798H2.66774L3.10034 3.56907V12.5456L2.70379 12.0769H10.4906C11.5481 12.0769 12.4493 11.7404 13.1944 11.0675C13.9634 10.3705 14.348 9.34911 14.348 8.00324C14.348 6.80157 13.9995 5.87628 13.3025 5.22738C12.6056 4.55444 11.6442 4.21798 10.4185 4.21798ZM10.7069 14.9609H2.84799L3.10034 14.7086V24.1176L2.81194 23.7932H10.8151C12.233 23.7932 13.3866 23.4327 14.2759 22.7117C15.1891 21.9907 15.6458 20.8731 15.6458 19.359C15.6458 18.1814 15.4054 17.2801 14.9248 16.6553C14.4441 16.0064 13.8192 15.5617 13.0502 15.3214C12.3051 15.0811 11.5241 14.9609 10.7069 14.9609ZM31.6284 26.9656C29.7057 26.9656 28.0234 26.557 26.5814 25.7399C25.1394 24.9228 24.0098 23.8052 23.1926 22.3872C22.3995 20.9452 22.003 19.2869 22.003 17.4123C22.003 15.3214 22.4116 13.5429 23.2287 12.0769C24.0699 10.5868 25.1514 9.45726 26.4732 8.68819C27.8191 7.89509 29.2371 7.49854 30.7271 7.49854C31.8327 7.49854 32.9021 7.70282 33.9356 8.11139C34.969 8.51996 35.8823 9.12079 36.6754 9.9139C37.4685 10.683 38.1054 11.6203 38.586 12.7258C39.0667 13.8073 39.3191 15.021 39.3431 16.3669C39.3431 16.7514 39.1989 17.0759 38.9105 17.3402C38.6221 17.6046 38.2856 17.7368 37.9011 17.7368H23.6613L23.0124 15.2493H36.8917L36.3149 15.754V14.9609C36.2188 13.9755 35.8823 13.1344 35.3055 12.4374C34.7527 11.7164 34.0678 11.1636 33.2506 10.7791C32.4575 10.3946 31.6164 10.2023 30.7271 10.2023C30.0061 10.2023 29.2851 10.3345 28.5641 10.5988C27.8671 10.8392 27.2303 11.2478 26.6535 11.8246C26.1007 12.3773 25.6441 13.0983 25.2836 13.9876C24.9471 14.8768 24.7789 15.9463 24.7789 17.196C24.7789 18.59 25.0552 19.8157 25.608 20.8731C26.1848 21.9306 26.9779 22.7718 27.9873 23.3966C28.9967 23.9975 30.1744 24.2979 31.5202 24.2979C32.3614 24.2979 33.0944 24.1897 33.7193 23.9734C34.3442 23.7571 34.8849 23.4928 35.3415 23.1803C35.7982 22.8439 36.1827 22.5074 36.4951 22.1709C36.8076 21.9546 37.108 21.8465 37.3964 21.8465C37.7569 21.8465 38.0453 21.9667 38.2616 22.207C38.5019 22.4473 38.6221 22.7357 38.6221 23.0722C38.6221 23.4808 38.4298 23.8413 38.0453 24.1537C37.3724 24.8987 36.4591 25.5596 35.3055 26.1364C34.1519 26.6892 32.9262 26.9656 31.6284 26.9656ZM52.9427 7.49854C54.577 7.49854 55.8628 7.83501 56.8001 8.50794C57.7374 9.18088 58.3983 10.0821 58.7828 11.2117C59.1914 12.3413 59.3957 13.603 59.3957 14.997V25.127C59.3957 25.5356 59.2515 25.8841 58.9631 26.1725C58.6987 26.4609 58.3623 26.6051 57.9537 26.6051C57.5451 26.6051 57.1966 26.4609 56.9082 26.1725C56.6439 25.8841 56.5117 25.5356 56.5117 25.127V15.0691C56.5117 14.1558 56.3675 13.3387 56.0791 12.6177C55.8147 11.8726 55.3581 11.2838 54.7092 10.8512C54.0843 10.3946 53.2191 10.1662 52.1136 10.1662C51.1042 10.1662 50.1789 10.3946 49.3377 10.8512C48.4965 11.2838 47.8236 11.8726 47.3189 12.6177C46.8142 13.3387 46.5619 14.1558 46.5619 15.0691V25.127C46.5619 25.5356 46.4177 25.8841 46.1293 26.1725C45.8649 26.4609 45.5284 26.6051 45.1198 26.6051C44.7113 26.6051 44.3628 26.4609 44.0744 26.1725C43.81 25.8841 43.6778 25.5356 43.6778 25.127V9.40919C43.6778 9.00063 43.81 8.66416 44.0744 8.39979C44.3628 8.11139 44.7113 7.96719 45.1198 7.96719C45.5524 7.96719 45.9009 8.11139 46.1653 8.39979C46.4297 8.66416 46.5619 9.00063 46.5619 9.40919V11.9688L45.8409 12.7619C45.961 12.137 46.2374 11.5121 46.67 10.8872C47.1026 10.2383 47.6434 9.66155 48.2923 9.15684C48.9412 8.65214 49.6622 8.25559 50.4553 7.96719C51.2484 7.65476 52.0775 7.49854 52.9427 7.49854ZM73.3465 26.9656C71.4239 26.9656 69.7415 26.557 68.2995 25.7399C66.8575 24.9228 65.7279 23.8052 64.9108 22.3872C64.1177 20.9452 63.7211 19.2869 63.7211 17.4123C63.7211 15.3214 64.1297 13.5429 64.9468 12.0769C65.788 10.5868 66.8695 9.45726 68.1914 8.68819C69.5372 7.89509 70.9552 7.49854 72.4453 7.49854C73.5508 7.49854 74.6203 7.70282 75.6537 8.11139C76.6872 8.51996 77.6004 9.12079 78.3935 9.9139C79.1866 10.683 79.8235 11.6203 80.3042 12.7258C80.7849 13.8073 81.0372 15.021 81.0612 16.3669C81.0612 16.7514 80.917 17.0759 80.6286 17.3402C80.3402 17.6046 80.0038 17.7368 79.6192 17.7368H65.3794L64.7305 15.2493H78.6098L78.033 15.754V14.9609C77.9369 13.9755 77.6004 13.1344 77.0236 12.4374C76.4709 11.7164 75.7859 11.1636 74.9688 10.7791C74.1757 10.3946 73.3345 10.2023 72.4453 10.2023C71.7243 10.2023 71.0033 10.3345 70.2823 10.5988C69.5853 10.8392 68.9484 11.2478 68.3716 11.8246C67.8188 12.3773 67.3622 13.0983 67.0017 13.9876C66.6652 14.8768 66.497 15.9463 66.497 17.196C66.497 18.59 66.7734 19.8157 67.3262 20.8731C67.903 21.9306 68.6961 22.7718 69.7055 23.3966C70.7149 23.9975 71.8925 24.2979 73.2384 24.2979C74.0795 24.2979 74.8126 24.1897 75.4374 23.9734C76.0623 23.7571 76.6031 23.4928 77.0597 23.1803C77.5163 22.8439 77.9009 22.5074 78.2133 22.1709C78.5257 21.9546 78.8261 21.8465 79.1145 21.8465C79.475 21.8465 79.7634 21.9667 79.9797 22.207C80.2201 22.4473 80.3402 22.7357 80.3402 23.0722C80.3402 23.4808 80.148 23.8413 79.7634 24.1537C79.0905 24.8987 78.1772 25.5596 77.0236 26.1364C75.87 26.6892 74.6443 26.9656 73.3465 26.9656ZM93.1828 0.000114123C93.5914 0.000114123 94.012 0.048181 94.4446 0.144315C94.9012 0.240449 95.2857 0.408683 95.5982 0.649016C95.9346 0.88935 96.1029 1.2138 96.1029 1.62237C96.1029 2.0069 95.9827 2.33135 95.7424 2.59572C95.502 2.83606 95.2136 2.95622 94.8772 2.95622C94.6609 2.95622 94.3605 2.89614 93.9759 2.77597C93.5914 2.63177 93.1948 2.55967 92.7863 2.55967C92.2335 2.55967 91.7769 2.67984 91.4164 2.92017C91.0799 3.16051 90.8275 3.48496 90.6593 3.89353C90.5151 4.27806 90.443 4.71066 90.443 5.19133V25.127C90.443 25.5356 90.2988 25.8841 90.0104 26.1725C89.746 26.4609 89.4096 26.6051 89.001 26.6051C88.5684 26.6051 88.2199 26.4609 87.9556 26.1725C87.6912 25.8841 87.559 25.5356 87.559 25.127V5.22738C87.559 3.61714 88.0517 2.34337 89.0371 1.40607C90.0465 0.468765 91.4284 0.000114123 93.1828 0.000114123ZM94.1922 8.25559C94.5768 8.25559 94.9012 8.38778 95.1656 8.65214C95.4299 8.89248 95.5621 9.20491 95.5621 9.58944C95.5621 9.97398 95.4299 10.2984 95.1656 10.5628C94.9012 10.8031 94.5768 10.9233 94.1922 10.9233H85.1436C84.7591 10.9233 84.4347 10.7911 84.1703 10.5267C83.9059 10.2624 83.7737 9.94995 83.7737 9.58944C83.7737 9.18088 83.9059 8.85643 84.1703 8.61609C84.4347 8.37576 84.7591 8.25559 85.1436 8.25559H94.1922ZM102.087 25.127C102.087 25.5356 101.943 25.8841 101.655 26.1725C101.39 26.4609 101.054 26.6051 100.645 26.6051C100.213 26.6051 99.8641 26.4609 99.5997 26.1725C99.3354 25.8841 99.2032 25.5356 99.2032 25.127V9.12079C99.2032 8.71223 99.3354 8.37576 99.5997 8.11139C99.8881 7.82299 100.237 7.67879 100.645 7.67879C101.054 7.67879 101.39 7.82299 101.655 8.11139C101.943 8.37576 102.087 8.71223 102.087 9.12079V25.127ZM100.609 5.26343C100.008 5.26343 99.5637 5.14326 99.2753 4.90293C98.9869 4.6626 98.8427 4.29008 98.8427 3.78538V3.28068C98.8427 2.77597 98.9989 2.40345 99.3113 2.16312C99.6238 1.92279 100.068 1.80262 100.645 1.80262C101.222 1.80262 101.655 1.92279 101.943 2.16312C102.231 2.40345 102.376 2.77597 102.376 3.28068V3.78538C102.376 4.29008 102.219 4.6626 101.907 4.90293C101.619 5.14326 101.186 5.26343 100.609 5.26343ZM106.573 8.07534H115.044C115.429 8.07534 115.741 8.20752 115.982 8.47189C116.246 8.73626 116.378 9.04869 116.378 9.40919C116.378 9.79373 116.246 10.1182 115.982 10.3825C115.741 10.6229 115.429 10.743 115.044 10.743H106.573C106.212 10.743 105.9 10.6109 105.635 10.3465C105.371 10.0821 105.239 9.75768 105.239 9.37314C105.239 9.01264 105.371 8.71223 105.635 8.47189C105.9 8.20752 106.212 8.07534 106.573 8.07534ZM110.358 3.17252C110.766 3.17252 111.103 3.31672 111.367 3.60513C111.632 3.86949 111.764 4.20596 111.764 4.61453V22.0267C111.764 22.6035 111.848 23.0361 112.016 23.3245C112.184 23.6129 112.401 23.8172 112.665 23.9374C112.953 24.0335 113.23 24.0816 113.494 24.0816C113.735 24.0816 113.939 24.0455 114.107 23.9734C114.299 23.8773 114.516 23.8292 114.756 23.8292C114.996 23.8292 115.213 23.9494 115.405 24.1897C115.621 24.406 115.729 24.6944 115.729 25.0549C115.729 25.4875 115.477 25.8601 114.972 26.1725C114.468 26.4609 113.903 26.6051 113.278 26.6051C112.941 26.6051 112.521 26.5811 112.016 26.533C111.536 26.4849 111.055 26.3287 110.574 26.0643C110.094 25.8 109.685 25.3674 109.348 24.7665C109.036 24.1417 108.88 23.2765 108.88 22.1709V4.61453C108.88 4.20596 109.024 3.86949 109.312 3.60513C109.601 3.31672 109.949 3.17252 110.358 3.17252ZM120.049 23.649C119.832 23.3366 119.736 23.0121 119.76 22.6756C119.784 22.3151 119.989 22.0027 120.373 21.7383C120.613 21.5701 120.89 21.498 121.202 21.522C121.539 21.5461 121.839 21.7023 122.103 21.9907C122.776 22.7838 123.545 23.4207 124.411 23.9013C125.276 24.358 126.333 24.5863 127.583 24.5863C128.16 24.5623 128.737 24.4661 129.313 24.2979C129.89 24.1297 130.371 23.8413 130.755 23.4327C131.164 23.0001 131.368 22.4353 131.368 21.7383C131.368 21.0654 131.164 20.5367 130.755 20.1521C130.347 19.7436 129.818 19.4191 129.169 19.1788C128.52 18.9144 127.811 18.6861 127.042 18.4938C126.249 18.2775 125.468 18.0372 124.699 17.7728C123.93 17.4844 123.233 17.1359 122.608 16.7274C122.007 16.2948 121.515 15.766 121.13 15.1412C120.77 14.4923 120.589 13.7112 120.589 12.7979C120.589 11.7164 120.878 10.7791 121.455 9.986C122.055 9.19289 122.848 8.58004 123.834 8.14744C124.843 7.71484 125.937 7.49854 127.114 7.49854C127.787 7.49854 128.484 7.58266 129.205 7.75089C129.95 7.89509 130.671 8.15946 131.368 8.54399C132.065 8.90449 132.678 9.40919 133.207 10.0581C133.423 10.2984 133.543 10.5988 133.567 10.9593C133.591 11.3199 133.435 11.6443 133.099 11.9327C132.834 12.125 132.534 12.2091 132.197 12.1851C131.885 12.161 131.621 12.0409 131.404 11.8246C130.9 11.2237 130.263 10.7671 129.494 10.4546C128.749 10.1182 127.92 9.94995 127.006 9.94995C126.429 9.94995 125.865 10.0341 125.312 10.2023C124.759 10.3705 124.291 10.6589 123.906 11.0675C123.545 11.452 123.365 11.9928 123.365 12.6898C123.389 13.3387 123.606 13.8674 124.014 14.276C124.423 14.6845 124.975 15.021 125.672 15.2854C126.369 15.5257 127.138 15.766 127.98 16.0064C128.749 16.1986 129.482 16.427 130.179 16.6913C130.9 16.9317 131.549 17.2561 132.125 17.6647C132.702 18.0732 133.159 18.602 133.495 19.2509C133.832 19.8757 134 20.6688 134 21.6302C134 22.7357 133.688 23.6971 133.063 24.5142C132.438 25.3073 131.609 25.9201 130.575 26.3527C129.566 26.7613 128.472 26.9656 127.295 26.9656C125.973 26.9656 124.663 26.7133 123.365 26.2085C122.091 25.7038 120.986 24.8507 120.049 23.649Z" fill="#FD5400"/>
</svg>
