<svg width="1491" height="103" viewBox="0 0 1491 103" fill="none" xmlns="http://www.w3.org/2000/svg">
<g filter="url(#filter0_d_8_82)">
<path d="M13.5289 68.1253C12.056 68.1253 10.7671 67.6956 9.66238 66.8364C8.55765 65.9158 8.00528 64.7804 8.00528 63.4302V8.37763C8.00528 7.0274 8.46559 5.92267 9.3862 5.06343C10.3068 4.14282 11.4115 3.68252 12.7004 3.68252H38.6616C41.9758 3.68252 45.0138 4.51107 47.7757 6.16817C50.5375 7.76389 52.747 10.004 54.4041 12.8886C56.1225 15.7118 56.9818 18.9647 56.9818 22.6471C56.9818 25.1021 56.4908 27.465 55.5088 29.7358C54.5268 31.9453 53.2073 33.9092 51.5502 35.6277C49.8931 37.3462 48.0212 38.635 45.9344 39.4943L44.9218 37.7451C46.8244 38.4202 48.4815 39.4022 49.8931 40.6911C51.3047 41.9185 52.4094 43.3915 53.2073 45.11C54.0665 46.7671 54.5268 48.6697 54.5882 50.8178C54.7723 52.7204 54.9257 54.3161 55.0485 55.605C55.2326 56.8324 55.4781 57.8451 55.785 58.643C56.0918 59.4408 56.6442 60.0546 57.4421 60.4842C58.5468 61.0979 59.2219 62.0185 59.4674 63.246C59.7743 64.4735 59.5288 65.5782 58.7309 66.5602C58.1786 67.2967 57.4728 67.7877 56.6135 68.0332C55.8157 68.2173 54.9871 68.248 54.1279 68.1253C53.2686 67.9411 52.5322 67.6956 51.9184 67.3888C50.9364 66.775 49.9238 65.9158 48.8804 64.8111C47.8984 63.645 47.1006 62.0492 46.4868 60.0239C45.8731 57.9985 45.5662 55.3288 45.5662 52.0146C45.5662 50.4802 45.3207 49.1607 44.8297 48.056C44.3387 46.9512 43.6636 46.0613 42.8044 45.3862C41.9451 44.6497 40.9325 44.128 39.7664 43.8211C38.6002 43.4529 37.3114 43.2688 35.8998 43.2688H16.3828L17.6717 41.4276V63.4302C17.6717 64.7804 17.3035 65.9158 16.567 66.8364C15.8305 67.6956 14.8178 68.1253 13.5289 68.1253ZM16.4749 35.2595H38.4775C39.8891 35.1981 41.2393 34.6457 42.5282 33.6024C43.8784 32.4976 44.9525 31.0247 45.7503 29.1834C46.6096 27.3422 47.0392 25.2555 47.0392 22.9233C47.0392 19.9773 46.1493 17.5224 44.3694 15.5584C42.6509 13.5331 40.5949 12.5204 38.2013 12.5204H16.659L17.6717 10.1268V37.1927L16.4749 35.2595ZM91.7607 69.0459C86.6667 69.0459 82.2477 68.0025 78.5039 65.9158C74.7601 63.7677 71.8448 60.8524 69.7581 57.17C67.7328 53.4262 66.7201 49.1607 66.7201 44.3735C66.7201 38.9726 67.7942 34.3695 69.9422 30.5644C72.1517 26.6978 75.0056 23.7518 78.5039 21.7265C82.0022 19.6398 85.7154 18.5964 89.6433 18.5964C92.6506 18.5964 95.5045 19.2102 98.205 20.4376C100.905 21.6037 103.299 23.2608 105.386 25.4089C107.534 27.4956 109.222 29.9813 110.449 32.8659C111.677 35.6891 112.321 38.7885 112.382 42.164C112.321 43.3915 111.83 44.4042 110.909 45.2021C109.989 45.9999 108.915 46.3989 107.687 46.3989H71.8755L69.6661 38.5737H104.281L102.532 40.2308V37.9292C102.409 35.7811 101.703 33.9092 100.414 32.3135C99.1256 30.6564 97.5299 29.3982 95.6273 28.539C93.7247 27.6184 91.73 27.1581 89.6433 27.1581C87.8021 27.1581 86.0222 27.465 84.3038 28.0787C82.6467 28.6311 81.143 29.5517 79.7928 30.8405C78.5039 32.1294 77.4606 33.8479 76.6627 35.996C75.9262 38.0827 75.558 40.6911 75.558 43.8211C75.558 47.1967 76.2638 50.1427 77.6754 52.659C79.087 55.1753 80.9896 57.1393 83.3832 58.5509C85.7767 59.9011 88.4158 60.5763 91.3004 60.5763C93.5713 60.5763 95.4432 60.3615 96.9161 59.9318C98.3891 59.4408 99.6166 58.8578 100.599 58.1827C101.581 57.5076 102.44 56.8631 103.176 56.2494C104.097 55.697 105.018 55.4208 105.938 55.4208C107.043 55.4208 107.963 55.8198 108.7 56.6176C109.436 57.3541 109.805 58.244 109.805 59.2874C109.805 60.6376 109.13 61.8651 107.779 62.9698C106.122 64.5656 103.821 65.9772 100.875 67.2047C97.9902 68.4321 94.9522 69.0459 91.7607 69.0459ZM162.826 18.9647C164.176 18.9647 165.281 19.425 166.14 20.3456C167 21.2048 167.429 22.3095 167.429 23.6598V63.4302C167.429 64.7804 167 65.9158 166.14 66.8364C165.281 67.6956 164.176 68.1253 162.826 68.1253C161.537 68.1253 160.433 67.6956 159.512 66.8364C158.653 65.9158 158.223 64.7804 158.223 63.4302V56.8018L160.156 57.0779C160.156 58.1827 159.696 59.4102 158.775 60.7604C157.916 62.1106 156.719 63.4302 155.185 64.719C153.651 65.9465 151.84 66.9898 149.753 67.8491C147.667 68.6469 145.427 69.0459 143.033 69.0459C138.798 69.0459 134.993 67.9718 131.617 65.8237C128.242 63.6143 125.572 60.6069 123.608 56.8018C121.644 52.9966 120.662 48.6697 120.662 43.8211C120.662 38.8498 121.644 34.4923 123.608 30.7485C125.572 26.9433 128.211 23.9666 131.525 21.8185C134.901 19.6705 138.645 18.5964 142.757 18.5964C145.396 18.5964 147.82 19.026 150.03 19.8853C152.3 20.7445 154.264 21.8492 155.922 23.1995C157.579 24.5497 158.837 25.992 159.696 27.5263C160.617 28.9993 161.077 30.4109 161.077 31.7611L158.223 32.0373V23.6598C158.223 22.3709 158.653 21.2662 159.512 20.3456C160.433 19.425 161.537 18.9647 162.826 18.9647ZM144.046 60.5763C146.93 60.5763 149.477 59.8398 151.687 58.3668C153.896 56.8938 155.615 54.8992 156.842 52.3828C158.07 49.8051 158.683 46.9512 158.683 43.8211C158.683 40.6297 158.07 37.7758 156.842 35.2595C155.615 32.7431 153.896 30.7485 151.687 29.2755C149.477 27.8025 146.93 27.066 144.046 27.066C141.222 27.066 138.706 27.8025 136.497 29.2755C134.349 30.7485 132.63 32.7431 131.341 35.2595C130.114 37.7758 129.5 40.6297 129.5 43.8211C129.5 46.9512 130.114 49.8051 131.341 52.3828C132.63 54.8992 134.349 56.8938 136.497 58.3668C138.706 59.8398 141.222 60.5763 144.046 60.5763ZM220.005 7.72989e-05C221.355 7.72989e-05 222.46 0.429696 223.319 1.28893C224.178 2.14817 224.608 3.28359 224.608 4.69519V63.4302C224.608 64.7804 224.178 65.9158 223.319 66.8364C222.46 67.6956 221.355 68.1253 220.005 68.1253C218.716 68.1253 217.611 67.6956 216.69 66.8364C215.831 65.9158 215.402 64.7804 215.402 63.4302V56.8018L217.335 56.8938C217.335 57.9985 216.875 59.2567 215.954 60.6683C215.095 62.0185 213.898 63.3381 212.364 64.6269C210.829 65.9158 209.019 66.9898 206.932 67.8491C204.845 68.6469 202.605 69.0459 200.212 69.0459C195.977 69.0459 192.172 67.9718 188.796 65.8237C185.42 63.6143 182.751 60.6376 180.787 56.8938C178.823 53.0886 177.841 48.7311 177.841 43.8211C177.841 38.9112 178.823 34.5844 180.787 30.8405C182.751 27.0353 185.39 24.0587 188.704 21.9106C192.079 19.7011 195.823 18.5964 199.935 18.5964C202.513 18.5964 204.907 19.026 207.116 19.8853C209.387 20.7445 211.351 21.8492 213.008 23.1995C214.665 24.5497 215.954 25.992 216.875 27.5263C217.795 28.9993 218.255 30.4109 218.255 31.7611L215.402 32.0373V4.69519C215.402 3.34496 215.831 2.24023 216.69 1.38099C217.611 0.460382 218.716 7.72989e-05 220.005 7.72989e-05ZM201.224 60.5763C204.17 60.5763 206.717 59.8398 208.865 58.3668C211.075 56.8938 212.793 54.8992 214.021 52.3828C215.248 49.8665 215.862 47.0126 215.862 43.8211C215.862 40.6297 215.248 37.7758 214.021 35.2595C212.793 32.7431 211.075 30.7485 208.865 29.2755C206.656 27.8025 204.109 27.066 201.224 27.066C198.401 27.066 195.885 27.8025 193.675 29.2755C191.527 30.7485 189.809 32.7431 188.52 35.2595C187.292 37.7758 186.679 40.6297 186.679 43.8211C186.679 47.0126 187.292 49.8665 188.52 52.3828C189.809 54.8992 191.527 56.8938 193.675 58.3668C195.885 59.8398 198.401 60.5763 201.224 60.5763ZM273.501 19.3329C274.851 19.3329 275.956 19.7932 276.815 20.7138C277.674 21.5731 278.104 22.6778 278.104 24.028V63.6143C278.104 69.0152 277.06 73.4034 274.974 76.779C272.948 80.1546 270.187 82.6095 266.688 84.1439C263.251 85.7396 259.354 86.5375 254.996 86.5375C252.787 86.5375 250.578 86.3227 248.368 85.8931C246.159 85.5248 244.348 84.9724 242.936 84.236C241.464 83.5608 240.42 82.7323 239.806 81.7503C239.193 80.7683 239.101 79.6943 239.53 78.5282C239.96 77.0552 240.696 76.0425 241.74 75.4902C242.783 74.9992 243.857 74.9685 244.962 75.3981C246.005 75.8277 247.386 76.3801 249.105 77.0552C250.823 77.7303 252.787 78.0679 254.996 78.0679C258.004 78.0679 260.551 77.5769 262.638 76.5949C264.724 75.6129 266.289 74.0785 267.333 71.9918C268.437 69.9051 268.99 67.2047 268.99 63.8905V57.5382L270.463 59.7477C269.481 61.7731 268.192 63.4608 266.596 64.8111C265 66.1613 263.098 67.2047 260.888 67.9411C258.74 68.6776 256.347 69.0459 253.708 69.0459C250.332 69.0459 247.417 68.3094 244.962 66.8364C242.568 65.3021 240.727 63.2153 239.438 60.5763C238.149 57.8758 237.505 54.8071 237.505 51.3702V24.028C237.505 22.6778 237.935 21.5731 238.794 20.7138C239.653 19.7932 240.758 19.3329 242.108 19.3329C243.397 19.3329 244.471 19.7932 245.33 20.7138C246.251 21.5731 246.711 22.6778 246.711 24.028V48.8845C246.711 52.9352 247.601 55.9118 249.381 57.8144C251.161 59.6556 253.8 60.5763 257.298 60.5763C259.63 60.5763 261.656 60.0853 263.374 59.1033C265.093 58.1213 266.443 56.7711 267.425 55.0526C268.407 53.2727 268.898 51.2167 268.898 48.8845V24.028C268.898 22.6778 269.327 21.5731 270.187 20.7138C271.107 19.7932 272.212 19.3329 273.501 19.3329ZM315.975 20.2535H337.61C338.837 20.2535 339.85 20.6831 340.648 21.5424C341.507 22.3402 341.937 23.3529 341.937 24.5804C341.937 25.7465 341.507 26.7285 340.648 27.5263C339.85 28.3242 338.837 28.7231 337.61 28.7231H315.975C314.748 28.7231 313.705 28.3242 312.845 27.5263C312.048 26.6671 311.649 25.6544 311.649 24.4883C311.649 23.2608 312.048 22.2482 312.845 21.4503C313.705 20.6524 314.748 20.2535 315.975 20.2535ZM325.642 8.28557C326.992 8.28557 328.097 8.74588 328.956 9.66649C329.815 10.5257 330.245 11.6305 330.245 12.9807V55.697C330.245 56.8018 330.429 57.6917 330.797 58.3668C331.166 59.0419 331.657 59.5022 332.27 59.7477C332.945 59.9932 333.62 60.116 334.296 60.116C334.971 60.116 335.554 59.9932 336.045 59.7477C336.597 59.5022 337.242 59.3795 337.978 59.3795C338.715 59.3795 339.39 59.717 340.003 60.3921C340.617 61.0673 340.924 61.9879 340.924 63.154C340.924 64.6269 340.126 65.8237 338.53 66.7444C336.935 67.665 335.216 68.1253 333.375 68.1253C332.332 68.1253 331.104 68.0332 329.693 67.8491C328.281 67.665 326.9 67.2047 325.55 66.4682C324.261 65.7317 323.187 64.5656 322.328 62.9698C321.468 61.3127 321.039 59.0112 321.039 56.0653V12.9807C321.039 11.6305 321.468 10.5257 322.328 9.66649C323.248 8.74588 324.353 8.28557 325.642 8.28557ZM398.081 43.9132C398.081 48.8231 397.007 53.1807 394.859 56.9859C392.711 60.7297 389.795 63.6756 386.113 65.8237C382.431 67.9718 378.288 69.0459 373.685 69.0459C369.082 69.0459 364.939 67.9718 361.257 65.8237C357.574 63.6756 354.628 60.7297 352.419 56.9859C350.271 53.1807 349.197 48.8231 349.197 43.9132C349.197 38.9419 350.271 34.5844 352.419 30.8405C354.628 27.0353 357.574 24.0587 361.257 21.9106C364.939 19.7011 369.082 18.5964 373.685 18.5964C378.288 18.5964 382.431 19.7011 386.113 21.9106C389.795 24.0587 392.711 27.0353 394.859 30.8405C397.007 34.5844 398.081 38.9419 398.081 43.9132ZM388.875 43.9132C388.875 40.5376 388.2 37.6224 386.85 35.1674C385.499 32.6511 383.658 30.6871 381.326 29.2755C379.055 27.8025 376.508 27.066 373.685 27.066C370.862 27.066 368.284 27.8025 365.952 29.2755C363.619 30.6871 361.778 32.6511 360.428 35.1674C359.078 37.6224 358.403 40.5376 358.403 43.9132C358.403 47.166 359.078 50.0506 360.428 52.5669C361.778 55.0833 363.619 57.0473 365.952 58.4589C368.284 59.8705 370.862 60.5763 373.685 60.5763C376.508 60.5763 379.055 59.8705 381.326 58.4589C383.658 57.0473 385.499 55.0833 386.85 52.5669C388.2 50.0506 388.875 47.166 388.875 43.9132ZM456.679 69.0459C451.585 69.0459 447.166 68.0025 443.422 65.9158C439.678 63.7677 436.763 60.8524 434.676 57.17C432.651 53.4262 431.638 49.1607 431.638 44.3735C431.638 38.9726 432.712 34.3695 434.86 30.5644C437.07 26.6978 439.923 23.7518 443.422 21.7265C446.92 19.6398 450.633 18.5964 454.561 18.5964C457.568 18.5964 460.422 19.2102 463.123 20.4376C465.823 21.6037 468.217 23.2608 470.304 25.4089C472.452 27.4956 474.139 29.9813 475.367 32.8659C476.594 35.6891 477.239 38.7885 477.3 42.164C477.239 43.3915 476.748 44.4042 475.827 45.2021C474.907 45.9999 473.833 46.3989 472.605 46.3989H436.793L434.584 38.5737H469.199L467.45 40.2308V37.9292C467.327 35.7811 466.621 33.9092 465.332 32.3135C464.043 30.6564 462.448 29.3982 460.545 28.539C458.643 27.6184 456.648 27.1581 454.561 27.1581C452.72 27.1581 450.94 27.465 449.222 28.0787C447.565 28.6311 446.061 29.5517 444.711 30.8405C443.422 32.1294 442.378 33.8479 441.581 35.996C440.844 38.0827 440.476 40.6911 440.476 43.8211C440.476 47.1967 441.182 50.1427 442.593 52.659C444.005 55.1753 445.907 57.1393 448.301 58.5509C450.695 59.9011 453.334 60.5763 456.218 60.5763C458.489 60.5763 460.361 60.3615 461.834 59.9318C463.307 59.4408 464.534 58.8578 465.516 58.1827C466.498 57.5076 467.358 56.8631 468.094 56.2494C469.015 55.697 469.935 55.4208 470.856 55.4208C471.961 55.4208 472.881 55.8198 473.618 56.6176C474.354 57.3541 474.723 58.244 474.723 59.2874C474.723 60.6376 474.047 61.8651 472.697 62.9698C471.04 64.5656 468.739 65.9772 465.793 67.2047C462.908 68.4321 459.87 69.0459 456.679 69.0459ZM487.71 19.425C489.245 19.425 490.503 20.0694 491.485 21.3582L522.878 60.9445C523.553 61.7424 523.89 62.663 523.89 63.7063C523.89 64.9338 523.399 66.0079 522.417 66.9285C521.435 67.8491 520.361 68.3094 519.195 68.3094C517.722 68.3094 516.464 67.665 515.421 66.3761L484.028 26.7898C483.353 25.992 483.015 25.0714 483.015 24.028C483.015 22.7392 483.476 21.6651 484.396 20.8059C485.378 19.8853 486.483 19.425 487.71 19.425ZM487.802 68.3094C486.759 68.3094 485.746 67.9105 484.764 67.1126C483.782 66.3147 483.291 65.3327 483.291 64.1666C483.291 63.1233 483.66 62.172 484.396 61.3127L499.034 43.1767L503.729 50.7257L491.485 66.3761C490.503 67.665 489.275 68.3094 487.802 68.3094ZM519.103 19.425C520.392 19.425 521.435 19.8546 522.233 20.7138C523.092 21.5117 523.522 22.463 523.522 23.5677C523.522 24.0587 523.43 24.5804 523.246 25.1327C523.123 25.6237 522.847 26.084 522.417 26.5137L507.964 44.6497L503.177 37.8372L515.421 21.5424C516.464 20.1308 517.692 19.425 519.103 19.425ZM556.694 18.8726C560.99 18.8726 564.796 19.9466 568.11 22.0947C571.485 24.2428 574.155 27.1888 576.119 30.9326C578.083 34.615 579.065 38.9112 579.065 43.8211C579.065 48.7311 578.083 53.0886 576.119 56.8938C574.155 60.6376 571.516 63.5836 568.202 65.7317C564.888 67.8798 561.144 68.9538 556.97 68.9538C554.638 68.9538 552.429 68.5856 550.342 67.8491C548.255 67.1126 546.414 66.1613 544.818 64.9952C543.223 63.7677 541.903 62.4789 540.86 61.1286C539.878 59.7784 539.264 58.5202 539.019 57.3541L541.504 56.1573V81.8424C541.504 83.1926 541.044 84.2973 540.123 85.1566C539.264 86.0772 538.19 86.5375 536.901 86.5375C535.551 86.5375 534.446 86.0772 533.587 85.1566C532.728 84.2973 532.298 83.1926 532.298 81.8424V24.2121C532.298 22.9233 532.728 21.8185 533.587 20.8979C534.446 19.9773 535.551 19.517 536.901 19.517C538.19 19.517 539.264 19.9773 540.123 20.8979C541.044 21.8185 541.504 22.9233 541.504 24.2121V30.5644L540.031 29.7358C540.215 28.5697 540.798 27.3729 541.78 26.1454C542.762 24.8566 543.99 23.6598 545.463 22.555C546.997 21.4503 548.716 20.5604 550.618 19.8853C552.582 19.2102 554.608 18.8726 556.694 18.8726ZM555.682 27.3422C552.736 27.3422 550.158 28.0787 547.948 29.5517C545.8 30.9633 544.113 32.8966 542.885 35.3515C541.658 37.8065 541.044 40.6297 541.044 43.8211C541.044 46.9512 541.658 49.8051 542.885 52.3828C544.113 54.8992 545.8 56.8938 547.948 58.3668C550.158 59.7784 552.736 60.4842 555.682 60.4842C558.566 60.4842 561.083 59.7784 563.231 58.3668C565.379 56.8938 567.066 54.8992 568.294 52.3828C569.583 49.8051 570.227 46.9512 570.227 43.8211C570.227 40.6911 569.583 37.8985 568.294 35.4436C567.066 32.9273 565.379 30.9633 563.231 29.5517C561.083 28.0787 558.566 27.3422 555.682 27.3422ZM599.419 63.4302C599.419 64.7804 598.959 65.9158 598.038 66.8364C597.179 67.6956 596.105 68.1253 594.816 68.1253C593.527 68.1253 592.423 67.6956 591.502 66.8364C590.643 65.9158 590.213 64.7804 590.213 63.4302V4.69519C590.213 3.34496 590.673 2.24023 591.594 1.38099C592.515 0.460382 593.619 7.72989e-05 594.908 7.72989e-05C596.258 7.72989e-05 597.333 0.460382 598.13 1.38099C598.99 2.24023 599.419 3.34496 599.419 4.69519V63.4302ZM658.621 43.9132C658.621 48.8231 657.547 53.1807 655.399 56.9859C653.251 60.7297 650.335 63.6756 646.653 65.8237C642.971 67.9718 638.828 69.0459 634.225 69.0459C629.622 69.0459 625.479 67.9718 621.797 65.8237C618.114 63.6756 615.168 60.7297 612.959 56.9859C610.811 53.1807 609.737 48.8231 609.737 43.9132C609.737 38.9419 610.811 34.5844 612.959 30.8405C615.168 27.0353 618.114 24.0587 621.797 21.9106C625.479 19.7011 629.622 18.5964 634.225 18.5964C638.828 18.5964 642.971 19.7011 646.653 21.9106C650.335 24.0587 653.251 27.0353 655.399 30.8405C657.547 34.5844 658.621 38.9419 658.621 43.9132ZM649.415 43.9132C649.415 40.5376 648.74 37.6224 647.39 35.1674C646.039 32.6511 644.198 30.6871 641.866 29.2755C639.595 27.8025 637.048 27.066 634.225 27.066C631.402 27.066 628.824 27.8025 626.492 29.2755C624.159 30.6871 622.318 32.6511 620.968 35.1674C619.618 37.6224 618.943 40.5376 618.943 43.9132C618.943 47.166 619.618 50.0506 620.968 52.5669C622.318 55.0833 624.159 57.0473 626.492 58.4589C628.824 59.8705 631.402 60.5763 634.225 60.5763C637.048 60.5763 639.595 59.8705 641.866 58.4589C644.198 57.0473 646.039 55.0833 647.39 52.5669C648.74 50.0506 649.415 47.166 649.415 43.9132ZM673.644 68.1253C672.294 68.1253 671.189 67.6956 670.33 66.8364C669.471 65.9158 669.041 64.7804 669.041 63.4302V24.3963C669.041 23.046 669.471 21.9413 670.33 21.0821C671.189 20.1614 672.294 19.7011 673.644 19.7011C674.933 19.7011 676.007 20.1614 676.866 21.0821C677.787 21.9413 678.247 23.046 678.247 24.3963V34.7071L677.327 30.7485C677.818 29.03 678.554 27.4343 679.536 25.9613C680.579 24.4883 681.807 23.1995 683.219 22.0947C684.63 20.99 686.195 20.1308 687.914 19.517C689.694 18.9033 691.535 18.5964 693.437 18.5964C695.033 18.5964 696.414 19.026 697.58 19.8853C698.746 20.7445 699.329 21.8185 699.329 23.1074C699.329 24.7645 698.9 25.992 698.04 26.7898C697.181 27.5263 696.23 27.8946 695.186 27.8946C694.266 27.8946 693.376 27.7105 692.517 27.3422C691.657 26.9126 690.645 26.6978 689.479 26.6978C688.19 26.6978 686.87 27.0353 685.52 27.7105C684.17 28.3856 682.942 29.3982 681.838 30.7485C680.733 32.0373 679.843 33.5717 679.168 35.3515C678.554 37.1314 678.247 39.126 678.247 41.3355V63.4302C678.247 64.7804 677.787 65.9158 676.866 66.8364C676.007 67.6956 674.933 68.1253 673.644 68.1253ZM728.007 69.0459C722.913 69.0459 718.494 68.0025 714.75 65.9158C711.006 63.7677 708.091 60.8524 706.004 57.17C703.979 53.4262 702.966 49.1607 702.966 44.3735C702.966 38.9726 704.04 34.3695 706.188 30.5644C708.398 26.6978 711.252 23.7518 714.75 21.7265C718.248 19.6398 721.962 18.5964 725.89 18.5964C728.897 18.5964 731.751 19.2102 734.451 20.4376C737.152 21.6037 739.545 23.2608 741.632 25.4089C743.78 27.4956 745.468 29.9813 746.695 32.8659C747.923 35.6891 748.567 38.7885 748.629 42.164C748.567 43.3915 748.076 44.4042 747.156 45.2021C746.235 45.9999 745.161 46.3989 743.934 46.3989H708.122L705.912 38.5737H740.527L738.778 40.2308V37.9292C738.655 35.7811 737.95 33.9092 736.661 32.3135C735.372 30.6564 733.776 29.3982 731.874 28.539C729.971 27.6184 727.976 27.1581 725.89 27.1581C724.048 27.1581 722.268 27.465 720.55 28.0787C718.893 28.6311 717.389 29.5517 716.039 30.8405C714.75 32.1294 713.707 33.8479 712.909 35.996C712.172 38.0827 711.804 40.6911 711.804 43.8211C711.804 47.1967 712.51 50.1427 713.922 52.659C715.333 55.1753 717.236 57.1393 719.629 58.5509C722.023 59.9011 724.662 60.5763 727.547 60.5763C729.818 60.5763 731.689 60.3615 733.162 59.9318C734.635 59.4408 735.863 58.8578 736.845 58.1827C737.827 57.5076 738.686 56.8631 739.423 56.2494C740.343 55.697 741.264 55.4208 742.184 55.4208C743.289 55.4208 744.21 55.8198 744.946 56.6176C745.683 57.3541 746.051 58.244 746.051 59.2874C746.051 60.6376 745.376 61.8651 744.026 62.9698C742.368 64.5656 740.067 65.9772 737.121 67.2047C734.236 68.4321 731.198 69.0459 728.007 69.0459ZM841.09 19.2408C842.256 19.2408 843.269 19.7011 844.128 20.6218C845.049 21.481 845.509 22.6164 845.509 24.028C845.509 24.3349 845.479 24.6418 845.417 24.9486C845.356 25.2555 845.264 25.5317 845.141 25.7772L831.056 65.1793C830.687 66.2227 830.043 67.0205 829.122 67.5729C828.202 68.0639 827.25 68.248 826.268 68.1253C824.489 68.0025 823.169 67.0205 822.31 65.1793L811.907 37.561L814.024 37.7451L804.45 65.1793C803.591 67.0205 802.271 68.0025 800.491 68.1253C799.571 68.248 798.619 68.0639 797.638 67.5729C796.717 67.0205 796.072 66.2227 795.704 65.1793L781.527 25.7772C781.281 25.2248 781.159 24.6418 781.159 24.028C781.159 22.7392 781.558 21.6344 782.355 20.7138C783.215 19.7318 784.35 19.2408 785.762 19.2408C786.744 19.2408 787.603 19.4863 788.339 19.9773C789.137 20.4683 789.69 21.2048 789.996 22.1868L801.78 55.4208L799.663 55.2367L809.237 30.104C810.035 28.2014 811.447 27.2502 813.472 27.2502C814.577 27.2502 815.436 27.4956 816.05 27.9866C816.663 28.4776 817.154 29.1834 817.523 30.104L827.281 55.3288L824.796 55.605L836.671 22.1868C837.285 20.2228 838.758 19.2408 841.09 19.2408ZM879.268 18.8726C883.502 18.8726 886.786 19.7932 889.118 21.6344C891.45 23.4143 893.077 25.8385 893.997 28.9073C894.979 31.976 895.47 35.3515 895.47 39.034V63.4302C895.47 64.7804 895.01 65.9158 894.089 66.8364C893.23 67.6956 892.156 68.1253 890.867 68.1253C889.517 68.1253 888.412 67.6956 887.553 66.8364C886.694 65.9158 886.264 64.7804 886.264 63.4302V39.034C886.264 36.8859 885.957 34.9219 885.344 33.1421C884.791 31.3622 883.779 29.9506 882.306 28.9073C880.894 27.8639 878.899 27.3422 876.322 27.3422C873.928 27.3422 871.78 27.8639 869.877 28.9073C868.036 29.9506 866.594 31.3622 865.551 33.1421C864.569 34.9219 864.078 36.8859 864.078 39.034V63.4302C864.078 64.7804 863.617 65.9158 862.697 66.8364C861.837 67.6956 860.763 68.1253 859.474 68.1253C858.124 68.1253 857.02 67.6956 856.16 66.8364C855.301 65.9158 854.871 64.7804 854.871 63.4302V4.69519C854.871 3.34496 855.301 2.24023 856.16 1.38099C857.02 0.460382 858.124 7.72989e-05 859.474 7.72989e-05C860.763 7.72989e-05 861.837 0.460382 862.697 1.38099C863.617 2.24023 864.078 3.34496 864.078 4.69519V29.8279L862.42 30.7485C862.85 29.3982 863.556 28.0173 864.538 26.6057C865.581 25.1941 866.839 23.9053 868.312 22.7392C869.847 21.5731 871.534 20.6524 873.376 19.9773C875.217 19.2408 877.181 18.8726 879.268 18.8726ZM947.952 18.9647C949.303 18.9647 950.407 19.425 951.267 20.3456C952.126 21.2048 952.555 22.3095 952.555 23.6598V63.4302C952.555 64.7804 952.126 65.9158 951.267 66.8364C950.407 67.6956 949.303 68.1253 947.952 68.1253C946.664 68.1253 945.559 67.6956 944.638 66.8364C943.779 65.9158 943.349 64.7804 943.349 63.4302V56.8018L945.283 57.0779C945.283 58.1827 944.822 59.4102 943.902 60.7604C943.042 62.1106 941.846 63.4302 940.311 64.719C938.777 65.9465 936.966 66.9898 934.88 67.8491C932.793 68.6469 930.553 69.0459 928.159 69.0459C923.924 69.0459 920.119 67.9718 916.744 65.8237C913.368 63.6143 910.698 60.6069 908.734 56.8018C906.77 52.9966 905.788 48.6697 905.788 43.8211C905.788 38.8498 906.77 34.4923 908.734 30.7485C910.698 26.9433 913.337 23.9666 916.652 21.8185C920.027 19.6705 923.771 18.5964 927.883 18.5964C930.522 18.5964 932.946 19.026 935.156 19.8853C937.427 20.7445 939.391 21.8492 941.048 23.1995C942.705 24.5497 943.963 25.992 944.822 27.5263C945.743 28.9993 946.203 30.4109 946.203 31.7611L943.349 32.0373V23.6598C943.349 22.3709 943.779 21.2662 944.638 20.3456C945.559 19.425 946.664 18.9647 947.952 18.9647ZM929.172 60.5763C932.056 60.5763 934.604 59.8398 936.813 58.3668C939.022 56.8938 940.741 54.8992 941.968 52.3828C943.196 49.8051 943.81 46.9512 943.81 43.8211C943.81 40.6297 943.196 37.7758 941.968 35.2595C940.741 32.7431 939.022 30.7485 936.813 29.2755C934.604 27.8025 932.056 27.066 929.172 27.066C926.349 27.066 923.832 27.8025 921.623 29.2755C919.475 30.7485 917.756 32.7431 916.467 35.2595C915.24 37.7758 914.626 40.6297 914.626 43.8211C914.626 46.9512 915.24 49.8051 916.467 52.3828C917.756 54.8992 919.475 56.8938 921.623 58.3668C923.832 59.8398 926.349 60.5763 929.172 60.5763ZM964.808 20.2535H986.443C987.67 20.2535 988.683 20.6831 989.481 21.5424C990.34 22.3402 990.769 23.3529 990.769 24.5804C990.769 25.7465 990.34 26.7285 989.481 27.5263C988.683 28.3242 987.67 28.7231 986.443 28.7231H964.808C963.581 28.7231 962.537 28.3242 961.678 27.5263C960.88 26.6671 960.481 25.6544 960.481 24.4883C960.481 23.2608 960.88 22.2482 961.678 21.4503C962.537 20.6524 963.581 20.2535 964.808 20.2535ZM974.475 8.28557C975.825 8.28557 976.93 8.74588 977.789 9.66649C978.648 10.5257 979.078 11.6305 979.078 12.9807V55.697C979.078 56.8018 979.262 57.6917 979.63 58.3668C979.998 59.0419 980.489 59.5022 981.103 59.7477C981.778 59.9932 982.453 60.116 983.128 60.116C983.803 60.116 984.386 59.9932 984.877 59.7477C985.43 59.5022 986.074 59.3795 986.811 59.3795C987.547 59.3795 988.222 59.717 988.836 60.3921C989.45 61.0673 989.757 61.9879 989.757 63.154C989.757 64.6269 988.959 65.8237 987.363 66.7444C985.767 67.665 984.049 68.1253 982.208 68.1253C981.164 68.1253 979.937 68.0332 978.525 67.8491C977.114 67.665 975.733 67.2047 974.383 66.4682C973.094 65.7317 972.02 64.5656 971.16 62.9698C970.301 61.3127 969.872 59.0112 969.872 56.0653V12.9807C969.872 11.6305 970.301 10.5257 971.16 9.66649C972.081 8.74588 973.186 8.28557 974.475 8.28557ZM999.768 7.45702C1000.01 4.94068 1001.36 3.68252 1003.82 3.68252H1006.76C1008.18 3.68252 1009.13 4.08145 1009.62 4.87931C1010.17 5.67717 1010.23 6.72053 1009.8 8.00939L1003.63 27.5263C1003.02 29.3062 1001.85 30.1961 1000.14 30.1961C998.479 30.1961 997.742 29.0914 997.926 26.8819L999.768 7.45702ZM1017.08 60.5763C1016.53 59.717 1016.28 58.735 1016.34 57.6303C1016.41 56.4642 1017.05 55.4822 1018.28 54.6844C1019.14 54.132 1020.03 53.9172 1020.95 54.0399C1021.93 54.1013 1022.85 54.5616 1023.71 55.4208C1025.43 57.3234 1027.33 58.8271 1029.42 59.9318C1031.56 61.0366 1034.14 61.5889 1037.15 61.5889C1038.38 61.5276 1039.64 61.3434 1040.92 61.0366C1042.21 60.6683 1043.32 60.0546 1044.24 59.1953C1045.16 58.2747 1045.62 56.9552 1045.62 55.2367C1045.62 53.7024 1045.13 52.4749 1044.15 51.5543C1043.16 50.6337 1041.88 49.8972 1040.28 49.3448C1038.68 48.7311 1036.97 48.1787 1035.12 47.6877C1033.16 47.1353 1031.17 46.5216 1029.14 45.8465C1027.18 45.1714 1025.4 44.3121 1023.8 43.2688C1022.2 42.164 1020.89 40.7524 1019.84 39.034C1018.86 37.3155 1018.37 35.1981 1018.37 32.6818C1018.37 29.7972 1019.17 27.3115 1020.76 25.2248C1022.42 23.1381 1024.54 21.5117 1027.11 20.3456C1029.75 19.1795 1032.61 18.5964 1035.68 18.5964C1037.46 18.5964 1039.33 18.8419 1041.29 19.3329C1043.26 19.7625 1045.16 20.4683 1047 21.4503C1048.84 22.4323 1050.44 23.7211 1051.79 25.3169C1052.4 26.1147 1052.74 27.066 1052.8 28.1708C1052.92 29.2755 1052.43 30.2575 1051.33 31.1167C1050.59 31.7305 1049.7 32.0066 1048.66 31.9453C1047.61 31.8839 1046.75 31.5463 1046.08 30.9326C1044.91 29.4596 1043.41 28.3242 1041.57 27.5263C1039.73 26.6671 1037.64 26.2375 1035.31 26.2375C1034.14 26.2375 1032.91 26.4216 1031.63 26.7898C1030.4 27.0967 1029.35 27.6798 1028.5 28.539C1027.64 29.3982 1027.21 30.6564 1027.21 32.3135C1027.21 33.8479 1027.7 35.0753 1028.68 35.996C1029.72 36.9166 1031.07 37.6837 1032.73 38.2975C1034.39 38.9112 1036.2 39.4636 1038.16 39.9546C1040.06 40.4456 1041.94 41.0286 1043.78 41.7037C1045.68 42.3789 1047.37 43.2688 1048.84 44.3735C1050.38 45.4169 1051.6 46.7978 1052.52 48.5163C1053.51 50.1734 1054 52.2908 1054 54.8685C1054 57.8758 1053.11 60.4535 1051.33 62.6016C1049.61 64.6883 1047.4 66.284 1044.7 67.3888C1042.06 68.4935 1039.27 69.0459 1036.32 69.0459C1032.82 69.0459 1029.32 68.4321 1025.83 67.2047C1022.39 65.9158 1019.47 63.7063 1017.08 60.5763ZM1113.92 18.8726C1118.21 18.8726 1122.02 19.9466 1125.33 22.0947C1128.71 24.2428 1131.38 27.1888 1133.34 30.9326C1135.3 34.615 1136.29 38.9112 1136.29 43.8211C1136.29 48.7311 1135.3 53.0886 1133.34 56.8938C1131.38 60.6376 1128.74 63.5836 1125.42 65.7317C1122.11 67.8798 1118.37 68.9538 1114.19 68.9538C1111.86 68.9538 1109.65 68.5856 1107.56 67.8491C1105.48 67.1126 1103.64 66.1613 1102.04 64.9952C1100.44 63.7677 1099.12 62.4789 1098.08 61.1286C1097.1 59.7784 1096.49 58.5202 1096.24 57.3541L1098.73 56.1573V81.8424C1098.73 83.1926 1098.27 84.2973 1097.34 85.1566C1096.49 86.0772 1095.41 86.5375 1094.12 86.5375C1092.77 86.5375 1091.67 86.0772 1090.81 85.1566C1089.95 84.2973 1089.52 83.1926 1089.52 81.8424V24.2121C1089.52 22.9233 1089.95 21.8185 1090.81 20.8979C1091.67 19.9773 1092.77 19.517 1094.12 19.517C1095.41 19.517 1096.49 19.9773 1097.34 20.8979C1098.27 21.8185 1098.73 22.9233 1098.73 24.2121V30.5644L1097.25 29.7358C1097.44 28.5697 1098.02 27.3729 1099 26.1454C1099.98 24.8566 1101.21 23.6598 1102.68 22.555C1104.22 21.4503 1105.94 20.5604 1107.84 19.8853C1109.8 19.2102 1111.83 18.8726 1113.92 18.8726ZM1112.9 27.3422C1109.96 27.3422 1107.38 28.0787 1105.17 29.5517C1103.02 30.9633 1101.33 32.8966 1100.11 35.3515C1098.88 37.8065 1098.27 40.6297 1098.27 43.8211C1098.27 46.9512 1098.88 49.8051 1100.11 52.3828C1101.33 54.8992 1103.02 56.8938 1105.17 58.3668C1107.38 59.7784 1109.96 60.4842 1112.9 60.4842C1115.79 60.4842 1118.3 59.7784 1120.45 58.3668C1122.6 56.8938 1124.29 54.8992 1125.52 52.3828C1126.8 49.8051 1127.45 46.9512 1127.45 43.8211C1127.45 40.6911 1126.8 37.8985 1125.52 35.4436C1124.29 32.9273 1122.6 30.9633 1120.45 29.5517C1118.3 28.0787 1115.79 27.3422 1112.9 27.3422ZM1193.1 43.9132C1193.1 48.8231 1192.02 53.1807 1189.87 56.9859C1187.73 60.7297 1184.81 63.6756 1181.13 65.8237C1177.45 67.9718 1173.3 69.0459 1168.7 69.0459C1164.1 69.0459 1159.95 67.9718 1156.27 65.8237C1152.59 63.6756 1149.64 60.7297 1147.43 56.9859C1145.29 53.1807 1144.21 48.8231 1144.21 43.9132C1144.21 38.9419 1145.29 34.5844 1147.43 30.8405C1149.64 27.0353 1152.59 24.0587 1156.27 21.9106C1159.95 19.7011 1164.1 18.5964 1168.7 18.5964C1173.3 18.5964 1177.45 19.7011 1181.13 21.9106C1184.81 24.0587 1187.73 27.0353 1189.87 30.8405C1192.02 34.5844 1193.1 38.9419 1193.1 43.9132ZM1183.89 43.9132C1183.89 40.5376 1183.22 37.6224 1181.87 35.1674C1180.51 32.6511 1178.67 30.6871 1176.34 29.2755C1174.07 27.8025 1171.52 27.066 1168.7 27.066C1165.88 27.066 1163.3 27.8025 1160.97 29.2755C1158.64 30.6871 1156.79 32.6511 1155.44 35.1674C1154.09 37.6224 1153.42 40.5376 1153.42 43.9132C1153.42 47.166 1154.09 50.0506 1155.44 52.5669C1156.79 55.0833 1158.64 57.0473 1160.97 58.4589C1163.3 59.8705 1165.88 60.5763 1168.7 60.5763C1171.52 60.5763 1174.07 59.8705 1176.34 58.4589C1178.67 57.0473 1180.51 55.0833 1181.87 52.5669C1183.22 50.0506 1183.89 47.166 1183.89 43.9132ZM1200.66 60.5763C1200.11 59.717 1199.87 58.735 1199.93 57.6303C1199.99 56.4642 1200.63 55.4822 1201.86 54.6844C1202.72 54.132 1203.61 53.9172 1204.53 54.0399C1205.51 54.1013 1206.43 54.5616 1207.29 55.4208C1209.01 57.3234 1210.91 58.8271 1213 59.9318C1215.15 61.0366 1217.72 61.5889 1220.73 61.5889C1221.96 61.5276 1223.22 61.3434 1224.51 61.0366C1225.8 60.6683 1226.9 60.0546 1227.82 59.1953C1228.74 58.2747 1229.2 56.9552 1229.2 55.2367C1229.2 53.7024 1228.71 52.4749 1227.73 51.5543C1226.75 50.6337 1225.46 49.8972 1223.86 49.3448C1222.27 48.7311 1220.55 48.1787 1218.71 47.6877C1216.74 47.1353 1214.75 46.5216 1212.72 45.8465C1210.76 45.1714 1208.98 44.3121 1207.38 43.2688C1205.79 42.164 1204.47 40.7524 1203.42 39.034C1202.44 37.3155 1201.95 35.1981 1201.95 32.6818C1201.95 29.7972 1202.75 27.3115 1204.35 25.2248C1206 23.1381 1208.12 21.5117 1210.7 20.3456C1213.34 19.1795 1216.19 18.5964 1219.26 18.5964C1221.04 18.5964 1222.91 18.8419 1224.87 19.3329C1226.84 19.7625 1228.74 20.4683 1230.58 21.4503C1232.42 22.4323 1234.02 23.7211 1235.37 25.3169C1235.98 26.1147 1236.32 27.066 1236.38 28.1708C1236.51 29.2755 1236.01 30.2575 1234.91 31.1167C1234.17 31.7305 1233.28 32.0066 1232.24 31.9453C1231.2 31.8839 1230.34 31.5463 1229.66 30.9326C1228.5 29.4596 1226.99 28.3242 1225.15 27.5263C1223.31 26.6671 1221.22 26.2375 1218.89 26.2375C1217.72 26.2375 1216.5 26.4216 1215.21 26.7898C1213.98 27.0967 1212.94 27.6798 1212.08 28.539C1211.22 29.3982 1210.79 30.6564 1210.79 32.3135C1210.79 33.8479 1211.28 35.0753 1212.26 35.996C1213.31 36.9166 1214.66 37.6837 1216.31 38.2975C1217.97 38.9112 1219.78 39.4636 1221.74 39.9546C1223.65 40.4456 1225.52 41.0286 1227.36 41.7037C1229.26 42.3789 1230.95 43.2688 1232.42 44.3735C1233.96 45.4169 1235.19 46.7978 1236.11 48.5163C1237.09 50.1734 1237.58 52.2908 1237.58 54.8685C1237.58 57.8758 1236.69 60.4535 1234.91 62.6016C1233.19 64.6883 1230.98 66.284 1228.28 67.3888C1225.64 68.4935 1222.85 69.0459 1219.9 69.0459C1216.41 69.0459 1212.91 68.4321 1209.41 67.2047C1205.97 65.9158 1203.06 63.7063 1200.66 60.5763ZM1244.63 60.5763C1244.07 59.717 1243.83 58.735 1243.89 57.6303C1243.95 56.4642 1244.59 55.4822 1245.82 54.6844C1246.68 54.132 1247.57 53.9172 1248.49 54.0399C1249.47 54.1013 1250.39 54.5616 1251.25 55.4208C1252.97 57.3234 1254.88 58.8271 1256.96 59.9318C1259.11 61.0366 1261.69 61.5889 1264.69 61.5889C1265.92 61.5276 1267.18 61.3434 1268.47 61.0366C1269.76 60.6683 1270.86 60.0546 1271.78 59.1953C1272.7 58.2747 1273.16 56.9552 1273.16 55.2367C1273.16 53.7024 1272.67 52.4749 1271.69 51.5543C1270.71 50.6337 1269.42 49.8972 1267.83 49.3448C1266.23 48.7311 1264.51 48.1787 1262.67 47.6877C1260.71 47.1353 1258.71 46.5216 1256.69 45.8465C1254.72 45.1714 1252.94 44.3121 1251.35 43.2688C1249.75 42.164 1248.43 40.7524 1247.39 39.034C1246.41 37.3155 1245.91 35.1981 1245.91 32.6818C1245.91 29.7972 1246.71 27.3115 1248.31 25.2248C1249.97 23.1381 1252.08 21.5117 1254.66 20.3456C1257.3 19.1795 1260.15 18.5964 1263.22 18.5964C1265 18.5964 1266.87 18.8419 1268.84 19.3329C1270.8 19.7625 1272.7 20.4683 1274.55 21.4503C1276.39 22.4323 1277.98 23.7211 1279.33 25.3169C1279.95 26.1147 1280.28 27.066 1280.35 28.1708C1280.47 29.2755 1279.98 30.2575 1278.87 31.1167C1278.14 31.7305 1277.25 32.0066 1276.2 31.9453C1275.16 31.8839 1274.3 31.5463 1273.62 30.9326C1272.46 29.4596 1270.96 28.3242 1269.11 27.5263C1267.27 26.6671 1265.19 26.2375 1262.85 26.2375C1261.69 26.2375 1260.46 26.4216 1259.17 26.7898C1257.94 27.0967 1256.9 27.6798 1256.04 28.539C1255.18 29.3982 1254.75 30.6564 1254.75 32.3135C1254.75 33.8479 1255.24 35.0753 1256.23 35.996C1257.27 36.9166 1258.62 37.6837 1260.28 38.2975C1261.93 38.9112 1263.74 39.4636 1265.71 39.9546C1267.61 40.4456 1269.48 41.0286 1271.32 41.7037C1273.23 42.3789 1274.91 43.2688 1276.39 44.3735C1277.92 45.4169 1279.15 46.7978 1280.07 48.5163C1281.05 50.1734 1281.54 52.2908 1281.54 54.8685C1281.54 57.8758 1280.65 60.4535 1278.87 62.6016C1277.15 64.6883 1274.94 66.284 1272.24 67.3888C1269.6 68.4935 1266.81 69.0459 1263.87 69.0459C1260.37 69.0459 1256.87 68.4321 1253.37 67.2047C1249.93 65.9158 1247.02 63.7063 1244.63 60.5763ZM1300.1 63.4302C1300.1 64.7804 1299.67 65.9158 1298.81 66.8364C1297.95 67.6956 1296.84 68.1253 1295.49 68.1253C1294.2 68.1253 1293.1 67.6956 1292.18 66.8364C1291.32 65.9158 1290.89 64.7804 1290.89 63.4302V24.028C1290.89 22.6778 1291.32 21.5731 1292.18 20.7138C1293.1 19.7932 1294.2 19.3329 1295.49 19.3329C1296.84 19.3329 1297.95 19.7932 1298.81 20.7138C1299.67 21.5731 1300.1 22.6778 1300.1 24.028V63.4302ZM1295.4 13.2569C1293.62 13.2569 1292.33 12.95 1291.53 12.3363C1290.74 11.6611 1290.34 10.5564 1290.34 9.02206V7.54908C1290.34 6.01473 1290.77 4.94069 1291.63 4.32695C1292.49 3.71321 1293.77 3.40634 1295.49 3.40634C1297.33 3.40634 1298.65 3.74389 1299.45 4.41901C1300.25 5.03275 1300.65 6.0761 1300.65 7.54908V9.02206C1300.65 10.6178 1300.22 11.7225 1299.36 12.3363C1298.56 12.95 1297.24 13.2569 1295.4 13.2569ZM1336.88 18.5964C1341.17 18.5964 1344.98 19.6705 1348.29 21.8185C1351.67 23.9666 1354.34 26.9433 1356.3 30.7485C1358.26 34.4923 1359.25 38.8192 1359.25 43.7291C1359.25 48.639 1358.26 52.9966 1356.3 56.8018C1354.34 60.6069 1351.7 63.6143 1348.38 65.8237C1345.07 67.9718 1341.33 69.0459 1337.15 69.0459C1334.82 69.0459 1332.61 68.6776 1330.52 67.9411C1328.44 67.1433 1326.6 66.1613 1325 64.9952C1323.4 63.7677 1322.08 62.4789 1321.04 61.1286C1320.06 59.7784 1319.45 58.5202 1319.2 57.3541L1321.69 56.1573V64.1666C1321.69 65.4555 1321.23 66.5602 1320.3 67.4808C1319.45 68.3401 1318.37 68.7697 1317.08 68.7697C1315.73 68.7697 1314.63 68.3401 1313.77 67.4808C1312.91 66.6216 1312.48 65.5169 1312.48 64.1666V4.69519C1312.48 3.34496 1312.91 2.24023 1313.77 1.38099C1314.63 0.460382 1315.73 7.72989e-05 1317.08 7.72989e-05C1318.37 7.72989e-05 1319.45 0.460382 1320.3 1.38099C1321.23 2.24023 1321.69 3.34496 1321.69 4.69519V30.5644L1320.21 29.7358C1320.4 28.5697 1320.98 27.3729 1321.96 26.1454C1322.94 24.8566 1324.17 23.6291 1325.64 22.463C1327.18 21.2969 1328.9 20.3763 1330.8 19.7011C1332.76 18.9647 1334.79 18.5964 1336.88 18.5964ZM1335.86 27.066C1332.92 27.066 1330.34 27.8025 1328.13 29.2755C1325.98 30.7485 1324.29 32.7431 1323.07 35.2595C1321.84 37.7144 1321.23 40.5376 1321.23 43.7291C1321.23 46.9205 1321.84 49.8051 1323.07 52.3828C1324.29 54.8992 1325.98 56.8938 1328.13 58.3668C1330.34 59.8398 1332.92 60.5763 1335.86 60.5763C1338.75 60.5763 1341.26 59.8398 1343.41 58.3668C1345.56 56.8938 1347.25 54.8685 1348.48 52.2908C1349.76 49.7131 1350.41 46.8592 1350.41 43.7291C1350.41 40.5376 1349.76 37.7144 1348.48 35.2595C1347.25 32.7431 1345.56 30.7485 1343.41 29.2755C1341.26 27.8025 1338.75 27.066 1335.86 27.066ZM1379.6 63.4302C1379.6 64.7804 1379.14 65.9158 1378.22 66.8364C1377.36 67.6956 1376.29 68.1253 1375 68.1253C1373.71 68.1253 1372.6 67.6956 1371.68 66.8364C1370.82 65.9158 1370.39 64.7804 1370.39 63.4302V4.69519C1370.39 3.34496 1370.86 2.24023 1371.78 1.38099C1372.7 0.460382 1373.8 7.72989e-05 1375.09 7.72989e-05C1376.44 7.72989e-05 1377.51 0.460382 1378.31 1.38099C1379.17 2.24023 1379.6 3.34496 1379.6 4.69519V63.4302ZM1414.96 69.0459C1409.86 69.0459 1405.45 68.0025 1401.7 65.9158C1397.96 63.7677 1395.04 60.8524 1392.96 57.17C1390.93 53.4262 1389.92 49.1607 1389.92 44.3735C1389.92 38.9726 1390.99 34.3695 1393.14 30.5644C1395.35 26.6978 1398.2 23.7518 1401.7 21.7265C1405.2 19.6398 1408.91 18.5964 1412.84 18.5964C1415.85 18.5964 1418.7 19.2102 1421.4 20.4376C1424.1 21.6037 1426.5 23.2608 1428.58 25.4089C1430.73 27.4956 1432.42 29.9813 1433.65 32.8659C1434.87 35.6891 1435.52 38.7885 1435.58 42.164C1435.52 43.3915 1435.03 44.4042 1434.11 45.2021C1433.19 45.9999 1432.11 46.3989 1430.89 46.3989H1395.07L1392.86 38.5737H1427.48L1425.73 40.2308V37.9292C1425.61 35.7811 1424.9 33.9092 1423.61 32.3135C1422.32 30.6564 1420.73 29.3982 1418.83 28.539C1416.92 27.6184 1414.93 27.1581 1412.84 27.1581C1411 27.1581 1409.22 27.465 1407.5 28.0787C1405.84 28.6311 1404.34 29.5517 1402.99 30.8405C1401.7 32.1294 1400.66 33.8479 1399.86 35.996C1399.12 38.0827 1398.76 40.6911 1398.76 43.8211C1398.76 47.1967 1399.46 50.1427 1400.87 52.659C1402.28 55.1753 1404.19 57.1393 1406.58 58.5509C1408.97 59.9011 1411.61 60.5763 1414.5 60.5763C1416.77 60.5763 1418.64 60.3615 1420.11 59.9318C1421.59 59.4408 1422.81 58.8578 1423.8 58.1827C1424.78 57.5076 1425.64 56.8631 1426.37 56.2494C1427.29 55.697 1428.22 55.4208 1429.14 55.4208C1430.24 55.4208 1431.16 55.8198 1431.9 56.6176C1432.63 57.3541 1433 58.244 1433 59.2874C1433 60.6376 1432.33 61.8651 1430.98 62.9698C1429.32 64.5656 1427.02 65.9772 1424.07 67.2047C1421.19 68.4321 1418.15 69.0459 1414.96 69.0459ZM1455.28 38.3895C1455.28 37.1007 1455.71 35.996 1456.57 35.0753C1457.49 34.1547 1458.6 33.6944 1459.89 33.6944C1462.53 33.6331 1464.89 33.1421 1466.98 32.2214C1469.06 31.3008 1470.72 29.9199 1471.95 28.0787C1473.17 26.2375 1473.79 23.936 1473.79 21.1741C1473.79 18.7805 1473.24 16.7245 1472.13 15.006C1471.09 13.2262 1469.65 11.8453 1467.8 10.8633C1465.96 9.81992 1463.88 9.29824 1461.54 9.29824C1459.52 9.29824 1457.65 9.69717 1455.93 10.495C1454.21 11.2929 1452.68 12.3363 1451.33 13.6251C1450.53 14.3616 1449.55 14.914 1448.38 15.2822C1447.28 15.5891 1446.14 15.3129 1444.97 14.4537C1443.75 13.5944 1443.07 12.5204 1442.95 11.2315C1442.83 9.94267 1443.29 8.74588 1444.33 7.64115C1446.42 5.30893 1448.96 3.46771 1451.97 2.11748C1454.98 0.767252 1458.17 0.0921372 1461.54 0.0921372C1465.53 0.0921372 1469.15 1.01275 1472.41 2.85397C1475.66 4.69519 1478.24 7.18084 1480.14 10.3109C1482.04 13.441 1482.99 17.0621 1482.99 21.1741C1482.99 23.9973 1482.53 26.575 1481.61 28.9073C1480.69 31.2395 1479.37 33.2648 1477.66 34.9833C1475.94 36.7018 1473.94 38.0827 1471.67 39.126C1469.46 40.1694 1467.04 40.8445 1464.4 41.1514C1464.28 41.2127 1464.21 41.2434 1464.21 41.2434C1464.28 41.2434 1464.37 41.2434 1464.49 41.2434V46.7671C1464.49 48.056 1464.03 49.1607 1463.11 50.0813C1462.25 50.9405 1461.18 51.3702 1459.89 51.3702C1458.54 51.3702 1457.43 50.9405 1456.57 50.0813C1455.71 49.1607 1455.28 48.056 1455.28 46.7671V38.3895ZM1459.61 68.1253C1458.08 68.1253 1456.88 67.6956 1456.02 66.8364C1455.22 65.9772 1454.82 64.7804 1454.82 63.246V61.5889C1454.82 59.9932 1455.22 58.7964 1456.02 57.9985C1456.88 57.1393 1458.08 56.7097 1459.61 56.7097H1460.53C1462.13 56.7097 1463.32 57.1393 1464.12 57.9985C1464.92 58.7964 1465.32 59.9932 1465.32 61.5889V63.246C1465.32 64.7804 1464.92 65.9772 1464.12 66.8364C1463.32 67.6956 1462.13 68.1253 1460.53 68.1253H1459.61Z" fill="white"/>
</g>
<defs>
<filter id="filter0_d_8_82" x="0" y="0" width="1491" height="102.548" filterUnits="userSpaceOnUse" color-interpolation-filters="sRGB">
<feFlood flood-opacity="0" result="BackgroundImageFix"/>
<feColorMatrix in="SourceAlpha" type="matrix" values="0 0 0 0 0 0 0 0 0 0 0 0 0 0 0 0 0 0 127 0" result="hardAlpha"/>
<feOffset dy="4"/>
<feGaussianBlur stdDeviation="2"/>
<feComposite in2="hardAlpha" operator="out"/>
<feColorMatrix type="matrix" values="0 0 0 0 0 0 0 0 0 0 0 0 0 0 0 0 0 0 0.25 0"/>
<feBlend mode="normal" in2="BackgroundImageFix" result="effect1_dropShadow_8_82"/>
<feBlend mode="normal" in="SourceGraphic" in2="effect1_dropShadow_8_82" result="shape"/>
</filter>
</defs>
</svg>
