<svg width="376" height="34" viewBox="0 0 376 34" fill="none" xmlns="http://www.w3.org/2000/svg">
<path d="M13.965 24.5742C14.2536 24.5742 14.5062 24.6825 14.7228 24.899C14.9393 25.0914 15.0475 25.332 15.0475 25.6207C15.0475 25.9334 14.9393 26.198 14.7228 26.4146C14.5062 26.607 14.2536 26.7032 13.965 26.7032H1.08252C0.769786 26.7032 0.505161 26.595 0.288649 26.3785C0.0961943 26.162 -3.31291e-05 25.9094 -3.31291e-05 25.6207V2.5261C-3.31291e-05 2.23742 0.108223 1.98483 0.324734 1.76831C0.541246 1.5518 0.817899 1.44355 1.1547 1.44355C1.44338 1.44355 1.69597 1.5518 1.91249 1.76831C2.15305 1.98483 2.27334 2.23742 2.27334 2.5261V25.1877L1.58772 24.5742H13.965ZM26.9999 27.0641C25.1475 27.0641 23.5117 26.6671 22.0923 25.8733C20.673 25.0794 19.5664 23.9728 18.7725 22.5534C17.9786 21.1341 17.5817 19.4742 17.5817 17.5737C17.5817 15.5288 17.9786 13.7847 18.7725 12.3413C19.5904 10.8979 20.6369 9.79127 21.9119 9.02145C23.211 8.22758 24.5822 7.83064 26.0256 7.83064C27.0841 7.83064 28.1065 8.02309 29.0929 8.408C30.1033 8.76886 30.9934 9.32216 31.7632 10.0679C32.5571 10.7896 33.1825 11.6797 33.6396 12.7382C34.1207 13.7967 34.3854 15.0236 34.4335 16.4189C34.4094 16.7076 34.2891 16.9602 34.0726 17.1767C33.8561 17.3692 33.6035 17.4654 33.3148 17.4654H18.8447L18.4116 15.5168H32.6292L32.1601 15.9498V15.2281C32.0639 14.0974 31.703 13.1352 31.0776 12.3413C30.4521 11.5474 29.6943 10.946 28.8042 10.537C27.9141 10.1281 26.9879 9.92358 26.0256 9.92358C25.3039 9.92358 24.5582 10.0679 23.7883 10.3566C23.0426 10.6453 22.3569 11.1024 21.7315 11.7278C21.1301 12.3293 20.6369 13.1111 20.252 14.0734C19.8671 15.0116 19.6746 16.1302 19.6746 17.4293C19.6746 18.8487 19.9633 20.1357 20.5407 21.2904C21.118 22.4452 21.948 23.3593 23.0305 24.0329C24.1372 24.7065 25.4483 25.0433 26.9638 25.0433C27.8058 25.0433 28.5636 24.923 29.2372 24.6825C29.9108 24.4419 30.5002 24.1292 31.0054 23.7442C31.5106 23.3353 31.9316 22.9143 32.2684 22.4813C32.533 22.2647 32.7976 22.1565 33.0622 22.1565C33.3028 22.1565 33.5073 22.2527 33.6757 22.4452C33.8681 22.6376 33.9644 22.8541 33.9644 23.0947C33.9644 23.3834 33.8441 23.636 33.6035 23.8525C32.8818 24.7185 31.9436 25.4763 30.7889 26.1259C29.6341 26.7513 28.3712 27.0641 26.9999 27.0641ZM37.8771 8.33583H46.285C46.5736 8.33583 46.8142 8.44409 47.0067 8.6606C47.1991 8.85305 47.2953 9.09362 47.2953 9.3823C47.2953 9.64693 47.1991 9.87547 47.0067 10.0679C46.8142 10.2604 46.5736 10.3566 46.285 10.3566H37.8771C37.5884 10.3566 37.3358 10.2604 37.1193 10.0679C36.9268 9.85141 36.8306 9.61084 36.8306 9.34622C36.8306 9.05754 36.9268 8.81697 37.1193 8.62451C37.3358 8.43206 37.5884 8.33583 37.8771 8.33583ZM41.5939 3.24781C41.9066 3.24781 42.1592 3.35607 42.3517 3.57258C42.5682 3.78909 42.6764 4.04169 42.6764 4.33037V22.4452C42.6764 23.1188 42.7606 23.624 42.929 23.9608C43.1215 24.2975 43.362 24.5261 43.6507 24.6464C43.9394 24.7426 44.2281 24.7907 44.5168 24.7907C44.7092 24.7907 44.8776 24.7667 45.022 24.7185C45.1904 24.6464 45.3708 24.6103 45.5633 24.6103C45.7798 24.6103 45.9602 24.6945 46.1045 24.8629C46.2729 25.0313 46.3571 25.2478 46.3571 25.5124C46.3571 25.8492 46.1647 26.1379 45.7798 26.3785C45.3949 26.595 44.9378 26.7032 44.4085 26.7032C44.192 26.7032 43.8672 26.6912 43.4342 26.6671C43.0012 26.619 42.5561 26.4867 42.0991 26.2702C41.642 26.0296 41.2571 25.6207 40.9443 25.0433C40.6557 24.4659 40.5113 23.636 40.5113 22.5534V4.33037C40.5113 4.04169 40.6075 3.78909 40.8 3.57258C41.0165 3.35607 41.2811 3.24781 41.5939 3.24781ZM50.9712 2.38176C51.0434 1.75629 51.3922 1.44355 52.0177 1.44355H53.2085C53.5213 1.4676 53.7137 1.57586 53.7859 1.76831C53.8821 1.93671 53.8942 2.16525 53.822 2.45393L51.5125 10.2484C51.3682 10.7535 51.0314 11.0061 50.5021 11.0061C50.1172 11.0061 49.9609 10.6934 50.033 10.0679L50.9712 2.38176ZM57.227 23.7803C57.0345 23.4916 56.9383 23.215 56.9383 22.9504C56.9623 22.6617 57.1187 22.4331 57.4074 22.2647C57.5998 22.0963 57.8164 22.0242 58.0569 22.0482C58.3216 22.0723 58.5621 22.1926 58.7786 22.4091C59.4282 23.2511 60.21 23.9367 61.1242 24.4659C62.0624 24.9711 63.169 25.2237 64.444 25.2237C65.1176 25.2237 65.7792 25.1155 66.4287 24.899C67.1023 24.6584 67.6556 24.3096 68.0886 23.8525C68.5217 23.3714 68.7382 22.7699 68.7382 22.0482C68.7382 21.3025 68.5217 20.701 68.0886 20.244C67.6556 19.7869 67.0903 19.426 66.3926 19.1614C65.719 18.8968 64.9973 18.6682 64.2275 18.4758C63.4096 18.2593 62.6157 18.0187 61.8459 17.7541C61.0761 17.4654 60.3904 17.1166 59.789 16.7076C59.2117 16.2746 58.7425 15.7574 58.3817 15.1559C58.0208 14.5545 57.8404 13.8208 57.8404 12.9547C57.8404 11.9444 58.1171 11.0543 58.6704 10.2844C59.2237 9.51462 59.9694 8.9132 60.9077 8.48017C61.8699 8.04715 62.9525 7.83064 64.1553 7.83064C64.7568 7.83064 65.4063 7.91484 66.1039 8.08323C66.8016 8.22758 67.4872 8.48017 68.1608 8.84103C68.8344 9.20188 69.4358 9.69504 69.9651 10.3205C70.1816 10.537 70.2898 10.7896 70.2898 11.0783C70.2898 11.3429 70.1695 11.5835 69.929 11.8C69.7365 11.9444 69.508 12.0165 69.2434 12.0165C69.0028 12.0165 68.7983 11.9203 68.6299 11.7278C68.0525 11.0783 67.3669 10.5851 66.5731 10.2484C65.7792 9.91156 64.9252 9.74316 64.011 9.74316C63.3133 9.74316 62.6518 9.86344 62.0263 10.104C61.4249 10.3205 60.9197 10.6573 60.5107 11.1144C60.1018 11.5715 59.8973 12.1729 59.8973 12.9187C59.9454 13.6163 60.186 14.1816 60.619 14.6147C61.0761 15.0477 61.6655 15.4085 62.3872 15.6972C63.1329 15.9859 63.9629 16.2505 64.877 16.4911C65.6469 16.6836 66.3806 16.9121 67.0782 17.1767C67.7999 17.4413 68.4254 17.7781 68.9547 18.1871C69.508 18.572 69.941 19.0652 70.2537 19.6666C70.5905 20.268 70.7589 21.0258 70.7589 21.94C70.7589 22.9985 70.4582 23.9126 69.8568 24.6825C69.2794 25.4523 68.4976 26.0417 67.5113 26.4506C66.5249 26.8596 65.4303 27.0641 64.2275 27.0641C62.9284 27.0641 61.6655 26.8115 60.4386 26.3063C59.2357 25.8011 58.1652 24.9591 57.227 23.7803ZM100.175 0.000136698C100.488 0.000136698 100.741 0.108393 100.933 0.324904C101.149 0.517358 101.258 0.769954 101.258 1.08269V25.6207C101.258 25.9094 101.149 26.162 100.933 26.3785C100.716 26.595 100.464 26.7032 100.175 26.7032C99.8625 26.7032 99.5978 26.595 99.3813 26.3785C99.1889 26.162 99.0926 25.9094 99.0926 25.6207V21.3265L99.7061 20.8213C99.7061 21.4949 99.5257 22.2046 99.1648 22.9504C98.804 23.6721 98.2867 24.3457 97.6131 24.9711C96.9636 25.5966 96.1938 26.1018 95.3037 26.4867C94.4376 26.8716 93.4994 27.0641 92.489 27.0641C90.8772 27.0641 89.4218 26.6431 88.1227 25.8011C86.8477 24.9591 85.8373 23.8164 85.0916 22.373C84.3458 20.9296 83.9729 19.2817 83.9729 17.4293C83.9729 15.601 84.3458 13.9651 85.0916 12.5217C85.8373 11.0543 86.8477 9.91156 88.1227 9.09362C89.3977 8.25163 90.8411 7.83064 92.4529 7.83064C93.4393 7.83064 94.3775 8.01107 95.2676 8.37192C96.1577 8.73277 96.9396 9.22594 97.6131 9.85141C98.3108 10.4769 98.8521 11.1986 99.237 12.0165C99.6459 12.8104 99.8504 13.6404 99.8504 14.5064L99.0926 13.9651V1.08269C99.0926 0.794011 99.1889 0.541414 99.3813 0.324904C99.5978 0.108393 99.8625 0.000136698 100.175 0.000136698ZM92.6695 25.0433C93.9685 25.0433 95.0992 24.7185 96.0615 24.069C97.0478 23.3954 97.8176 22.4933 98.3709 21.3626C98.9483 20.2079 99.237 18.8968 99.237 17.4293C99.237 15.9859 98.9483 14.6989 98.3709 13.5682C97.8176 12.4135 97.0478 11.5113 96.0615 10.8618C95.0751 10.1882 93.9445 9.85141 92.6695 9.85141C91.4185 9.85141 90.2878 10.1882 89.2774 10.8618C88.2911 11.5113 87.5093 12.4135 86.9319 13.5682C86.3786 14.6989 86.1019 15.9859 86.1019 17.4293C86.1019 18.8727 86.3786 20.1718 86.9319 21.3265C87.5093 22.4813 88.2911 23.3954 89.2774 24.069C90.2878 24.7185 91.4185 25.0433 92.6695 25.0433ZM109.032 25.6207C109.032 25.9094 108.924 26.162 108.707 26.3785C108.491 26.595 108.238 26.7032 107.95 26.7032C107.637 26.7032 107.372 26.595 107.156 26.3785C106.963 26.162 106.867 25.9094 106.867 25.6207V9.02145C106.867 8.73277 106.963 8.48017 107.156 8.26366C107.372 8.04715 107.637 7.93889 107.95 7.93889C108.262 7.93889 108.515 8.04715 108.707 8.26366C108.924 8.48017 109.032 8.73277 109.032 9.02145V25.6207ZM107.95 5.52118C107.444 5.52118 107.059 5.41293 106.795 5.19641C106.554 4.95585 106.434 4.61905 106.434 4.18603V3.82517C106.434 3.39215 106.566 3.06738 106.831 2.85087C107.12 2.6103 107.505 2.49002 107.986 2.49002C108.443 2.49002 108.792 2.6103 109.032 2.85087C109.297 3.06738 109.429 3.39215 109.429 3.82517V4.18603C109.429 4.61905 109.297 4.95585 109.032 5.19641C108.792 5.41293 108.431 5.52118 107.95 5.52118ZM113.61 23.7803C113.418 23.4916 113.322 23.215 113.322 22.9504C113.346 22.6617 113.502 22.4331 113.791 22.2647C113.983 22.0963 114.2 22.0242 114.44 22.0482C114.705 22.0723 114.945 22.1926 115.162 22.4091C115.811 23.2511 116.593 23.9367 117.507 24.4659C118.446 24.9711 119.552 25.2237 120.827 25.2237C121.501 25.2237 122.162 25.1155 122.812 24.899C123.486 24.6584 124.039 24.3096 124.472 23.8525C124.905 23.3714 125.121 22.7699 125.121 22.0482C125.121 21.3025 124.905 20.701 124.472 20.244C124.039 19.7869 123.473 19.426 122.776 19.1614C122.102 18.8968 121.381 18.6682 120.611 18.4758C119.793 18.2593 118.999 18.0187 118.229 17.7541C117.459 17.4654 116.774 17.1166 116.172 16.7076C115.595 16.2746 115.126 15.7574 114.765 15.1559C114.404 14.5545 114.224 13.8208 114.224 12.9547C114.224 11.9444 114.5 11.0543 115.054 10.2844C115.607 9.51462 116.353 8.9132 117.291 8.48017C118.253 8.04715 119.336 7.83064 120.539 7.83064C121.14 7.83064 121.79 7.91484 122.487 8.08323C123.185 8.22758 123.87 8.48017 124.544 8.84103C125.218 9.20188 125.819 9.69504 126.348 10.3205C126.565 10.537 126.673 10.7896 126.673 11.0783C126.673 11.3429 126.553 11.5835 126.312 11.8C126.12 11.9444 125.891 12.0165 125.627 12.0165C125.386 12.0165 125.182 11.9203 125.013 11.7278C124.436 11.0783 123.75 10.5851 122.956 10.2484C122.162 9.91156 121.308 9.74316 120.394 9.74316C119.697 9.74316 119.035 9.86344 118.41 10.104C117.808 10.3205 117.303 10.6573 116.894 11.1144C116.485 11.5715 116.281 12.1729 116.281 12.9187C116.329 13.6163 116.569 14.1816 117.002 14.6147C117.459 15.0477 118.049 15.4085 118.77 15.6972C119.516 15.9859 120.346 16.2505 121.26 16.4911C122.03 16.6836 122.764 16.9121 123.461 17.1767C124.183 17.4413 124.809 17.7781 125.338 18.1871C125.891 18.572 126.324 19.0652 126.637 19.6666C126.974 20.268 127.142 21.0258 127.142 21.94C127.142 22.9985 126.841 23.9126 126.24 24.6825C125.663 25.4523 124.881 26.0417 123.894 26.4506C122.908 26.8596 121.814 27.0641 120.611 27.0641C119.312 27.0641 118.049 26.8115 116.822 26.3063C115.619 25.8011 114.548 24.9591 113.61 23.7803ZM139.691 7.83064C140.846 7.83064 141.904 7.96295 142.866 8.22758C143.829 8.46814 144.598 8.80494 145.176 9.23796C145.777 9.67099 146.078 10.1401 146.078 10.6453C146.078 10.8859 145.994 11.1264 145.825 11.367C145.657 11.5835 145.428 11.6918 145.14 11.6918C144.851 11.6918 144.61 11.6196 144.418 11.4753C144.25 11.3309 144.069 11.1625 143.877 10.9701C143.708 10.7776 143.456 10.5972 143.119 10.4288C142.806 10.2844 142.361 10.1521 141.784 10.0318C141.206 9.91156 140.545 9.85141 139.799 9.85141C138.452 9.85141 137.237 10.1882 136.154 10.8618C135.072 11.5354 134.218 12.4496 133.592 13.6043C132.967 14.735 132.654 16.01 132.654 17.4293C132.654 18.8727 132.955 20.1718 133.556 21.3265C134.158 22.4813 134.988 23.3954 136.046 24.069C137.105 24.7185 138.344 25.0433 139.763 25.0433C140.725 25.0433 141.471 24.9591 142 24.7907C142.53 24.6223 142.987 24.4299 143.372 24.2133C143.829 23.9487 144.153 23.6961 144.346 23.4556C144.562 23.1909 144.839 23.0586 145.176 23.0586C145.489 23.0586 145.717 23.1548 145.861 23.3473C146.03 23.5157 146.114 23.7442 146.114 24.0329C146.114 24.4178 145.825 24.8509 145.248 25.332C144.695 25.7891 143.925 26.198 142.938 26.5589C141.952 26.8957 140.821 27.0641 139.546 27.0641C137.742 27.0641 136.154 26.6431 134.783 25.8011C133.436 24.9591 132.378 23.8164 131.608 22.373C130.862 20.9055 130.489 19.2576 130.489 17.4293C130.489 15.6732 130.874 14.0734 131.644 12.63C132.414 11.1866 133.484 10.0318 134.855 9.16579C136.251 8.27569 137.862 7.83064 139.691 7.83064ZM167.425 17.4654C167.425 19.2937 167.028 20.9416 166.234 22.4091C165.44 23.8525 164.358 24.9952 162.987 25.8372C161.615 26.6551 160.052 27.0641 158.296 27.0641C156.588 27.0641 155.036 26.6551 153.641 25.8372C152.269 24.9952 151.175 23.8525 150.357 22.4091C149.563 20.9416 149.166 19.2937 149.166 17.4654C149.166 15.613 149.563 13.9651 150.357 12.5217C151.175 11.0783 152.269 9.93561 153.641 9.09362C155.036 8.25163 156.588 7.83064 158.296 7.83064C160.052 7.83064 161.615 8.25163 162.987 9.09362C164.358 9.93561 165.44 11.0783 166.234 12.5217C167.028 13.9651 167.425 15.613 167.425 17.4654ZM165.26 17.4654C165.26 15.9979 164.959 14.6989 164.358 13.5682C163.756 12.4135 162.927 11.5113 161.868 10.8618C160.834 10.1882 159.643 9.85141 158.296 9.85141C156.997 9.85141 155.818 10.1882 154.759 10.8618C153.701 11.5113 152.859 12.4135 152.233 13.5682C151.632 14.6989 151.331 15.9979 151.331 17.4654C151.331 18.9329 151.632 20.2319 152.233 21.3626C152.859 22.4933 153.701 23.3954 154.759 24.069C155.818 24.7185 156.997 25.0433 158.296 25.0433C159.643 25.0433 160.834 24.7185 161.868 24.069C162.927 23.3954 163.756 22.4933 164.358 21.3626C164.959 20.2319 165.26 18.9329 165.26 17.4654ZM171.417 7.86672C171.61 7.86672 171.802 7.92687 171.995 8.04715C172.187 8.16743 172.332 8.34786 172.428 8.58843L178.743 23.5999L178.274 23.8886L184.733 8.58843C184.925 8.10729 185.274 7.87875 185.779 7.90281C186.02 7.90281 186.248 7.98701 186.465 8.15541C186.681 8.29975 186.79 8.51626 186.79 8.80494C186.79 8.94928 186.766 9.06957 186.718 9.16579C186.693 9.23796 186.669 9.32216 186.645 9.41839L179.573 26.0176C179.38 26.4506 179.055 26.6792 178.598 26.7032C178.382 26.7273 178.165 26.6792 177.949 26.5589C177.756 26.4146 177.612 26.2341 177.516 26.0176L170.407 9.41839C170.383 9.37028 170.359 9.29811 170.335 9.20188C170.311 9.10565 170.299 9.00942 170.299 8.9132C170.299 8.64857 170.395 8.408 170.587 8.19149C170.78 7.97498 171.057 7.86672 171.417 7.86672ZM199.11 27.0641C197.257 27.0641 195.621 26.6671 194.202 25.8733C192.783 25.0794 191.676 23.9728 190.882 22.5534C190.088 21.1341 189.691 19.4742 189.691 17.5737C189.691 15.5288 190.088 13.7847 190.882 12.3413C191.7 10.8979 192.747 9.79127 194.022 9.02145C195.321 8.22758 196.692 7.83064 198.135 7.83064C199.194 7.83064 200.216 8.02309 201.203 8.408C202.213 8.76886 203.103 9.32216 203.873 10.0679C204.667 10.7896 205.292 11.6797 205.749 12.7382C206.231 13.7967 206.495 15.0236 206.543 16.4189C206.519 16.7076 206.399 16.9602 206.182 17.1767C205.966 17.3692 205.713 17.4654 205.425 17.4654H190.954L190.521 15.5168H204.739L204.27 15.9498V15.2281C204.174 14.0974 203.813 13.1352 203.187 12.3413C202.562 11.5474 201.804 10.946 200.914 10.537C200.024 10.1281 199.098 9.92358 198.135 9.92358C197.414 9.92358 196.668 10.0679 195.898 10.3566C195.152 10.6453 194.467 11.1024 193.841 11.7278C193.24 12.3293 192.747 13.1111 192.362 14.0734C191.977 15.0116 191.784 16.1302 191.784 17.4293C191.784 18.8487 192.073 20.1357 192.65 21.2904C193.228 22.4452 194.058 23.3593 195.14 24.0329C196.247 24.7065 197.558 25.0433 199.074 25.0433C199.916 25.0433 200.673 24.923 201.347 24.6825C202.021 24.4419 202.61 24.1292 203.115 23.7442C203.62 23.3353 204.041 22.9143 204.378 22.4813C204.643 22.2647 204.907 22.1565 205.172 22.1565C205.413 22.1565 205.617 22.2527 205.785 22.4452C205.978 22.6376 206.074 22.8541 206.074 23.0947C206.074 23.3834 205.954 23.636 205.713 23.8525C204.992 24.7185 204.053 25.4763 202.899 26.1259C201.744 26.7513 200.481 27.0641 199.11 27.0641ZM212.26 26.7032C211.923 26.7032 211.659 26.595 211.466 26.3785C211.274 26.162 211.178 25.9094 211.178 25.6207V9.45448C211.178 9.16579 211.274 8.9132 211.466 8.69669C211.683 8.48017 211.948 8.37192 212.26 8.37192C212.573 8.37192 212.826 8.48017 213.018 8.69669C213.235 8.9132 213.343 9.16579 213.343 9.45448V14.8673L212.802 14.9755C212.874 14.1335 213.078 13.3036 213.415 12.4856C213.776 11.6436 214.257 10.8738 214.858 10.1762C215.46 9.47853 216.169 8.9132 216.987 8.48017C217.829 8.04715 218.768 7.83064 219.802 7.83064C220.235 7.83064 220.656 7.92687 221.065 8.11932C221.474 8.28772 221.679 8.5764 221.679 8.98537C221.679 9.34622 221.582 9.62287 221.39 9.81533C221.197 10.0078 220.969 10.104 220.704 10.104C220.488 10.104 220.247 10.0439 219.983 9.92358C219.742 9.8033 219.417 9.74316 219.008 9.74316C218.335 9.74316 217.661 9.94764 216.987 10.3566C216.314 10.7415 215.7 11.2708 215.147 11.9444C214.594 12.618 214.149 13.3757 213.812 14.2177C213.499 15.0357 213.343 15.8656 213.343 16.7076V25.6207C213.343 25.9094 213.235 26.162 213.018 26.3785C212.802 26.595 212.549 26.7032 212.26 26.7032ZM233.738 8.33583H242.146C242.435 8.33583 242.675 8.44409 242.868 8.6606C243.06 8.85305 243.157 9.09362 243.157 9.3823C243.157 9.64693 243.06 9.87547 242.868 10.0679C242.675 10.2604 242.435 10.3566 242.146 10.3566H233.738C233.45 10.3566 233.197 10.2604 232.981 10.0679C232.788 9.85141 232.692 9.61084 232.692 9.34622C232.692 9.05754 232.788 8.81697 232.981 8.62451C233.197 8.43206 233.45 8.33583 233.738 8.33583ZM237.455 3.24781C237.768 3.24781 238.02 3.35607 238.213 3.57258C238.429 3.78909 238.538 4.04169 238.538 4.33037V22.4452C238.538 23.1188 238.622 23.624 238.79 23.9608C238.983 24.2975 239.223 24.5261 239.512 24.6464C239.801 24.7426 240.089 24.7907 240.378 24.7907C240.57 24.7907 240.739 24.7667 240.883 24.7185C241.052 24.6464 241.232 24.6103 241.424 24.6103C241.641 24.6103 241.821 24.6945 241.966 24.8629C242.134 25.0313 242.218 25.2478 242.218 25.5124C242.218 25.8492 242.026 26.1379 241.641 26.3785C241.256 26.595 240.799 26.7032 240.27 26.7032C240.053 26.7032 239.728 26.6912 239.295 26.6671C238.862 26.619 238.417 26.4867 237.96 26.2702C237.503 26.0296 237.118 25.6207 236.806 25.0433C236.517 24.4659 236.373 23.636 236.373 22.5534V4.33037C236.373 4.04169 236.469 3.78909 236.661 3.57258C236.878 3.35607 237.142 3.24781 237.455 3.24781ZM264.158 17.4654C264.158 19.2937 263.761 20.9416 262.967 22.4091C262.173 23.8525 261.09 24.9952 259.719 25.8372C258.348 26.6551 256.784 27.0641 255.028 27.0641C253.32 27.0641 251.768 26.6551 250.373 25.8372C249.002 24.9952 247.907 23.8525 247.089 22.4091C246.295 20.9416 245.898 19.2937 245.898 17.4654C245.898 15.613 246.295 13.9651 247.089 12.5217C247.907 11.0783 249.002 9.93561 250.373 9.09362C251.768 8.25163 253.32 7.83064 255.028 7.83064C256.784 7.83064 258.348 8.25163 259.719 9.09362C261.09 9.93561 262.173 11.0783 262.967 12.5217C263.761 13.9651 264.158 15.613 264.158 17.4654ZM261.993 17.4654C261.993 15.9979 261.692 14.6989 261.09 13.5682C260.489 12.4135 259.659 11.5113 258.6 10.8618C257.566 10.1882 256.375 9.85141 255.028 9.85141C253.729 9.85141 252.55 10.1882 251.492 10.8618C250.433 11.5113 249.591 12.4135 248.966 13.5682C248.364 14.6989 248.064 15.9979 248.064 17.4654C248.064 18.9329 248.364 20.2319 248.966 21.3626C249.591 22.4933 250.433 23.3954 251.492 24.069C252.55 24.7185 253.729 25.0433 255.028 25.0433C256.375 25.0433 257.566 24.7185 258.6 24.069C259.659 23.3954 260.489 22.4933 261.09 21.3626C261.692 20.2319 261.993 18.9329 261.993 17.4654ZM276.445 7.83064C277.528 7.83064 278.526 8.02309 279.44 8.408C280.354 8.76886 281.148 9.24999 281.822 9.85141C282.52 10.4288 283.061 11.0543 283.446 11.7278C283.831 12.3774 284.023 13.0029 284.023 13.6043L283.41 12.7382V9.3823C283.41 9.06957 283.506 8.80494 283.698 8.58843C283.915 8.37192 284.18 8.26366 284.492 8.26366C284.829 8.26366 285.094 8.37192 285.286 8.58843C285.479 8.80494 285.575 9.06957 285.575 9.3823V25.0072C285.575 26.9318 285.178 28.5556 284.384 29.8787C283.59 31.2019 282.508 32.2002 281.136 32.8738C279.789 33.5715 278.249 33.9203 276.517 33.9203C275.675 33.9203 274.785 33.812 273.847 33.5955C272.933 33.379 272.139 33.1024 271.465 32.7656C270.816 32.4288 270.455 32.0799 270.383 31.7191C270.19 31.5026 270.094 31.2861 270.094 31.0695C270.118 30.8771 270.227 30.7087 270.419 30.5644C270.66 30.396 270.912 30.3719 271.177 30.4922C271.441 30.6365 271.838 30.817 272.368 31.0335C272.608 31.1056 272.933 31.2139 273.342 31.3582C273.751 31.5026 274.232 31.6229 274.785 31.7191C275.363 31.8394 275.964 31.8995 276.59 31.8995C278.755 31.8995 280.427 31.274 281.605 30.0231C282.808 28.7962 283.41 27.1723 283.41 25.1516V21.6874L283.807 21.7956C283.59 22.6617 283.229 23.4195 282.724 24.069C282.243 24.7185 281.666 25.2718 280.992 25.7289C280.318 26.162 279.585 26.4867 278.791 26.7032C278.021 26.9438 277.251 27.0641 276.481 27.0641C274.821 27.0641 273.33 26.6431 272.007 25.8011C270.684 24.9591 269.625 23.8164 268.831 22.373C268.061 20.9296 267.677 19.2817 267.677 17.4293C267.677 15.601 268.061 13.9651 268.831 12.5217C269.625 11.0543 270.672 9.91156 271.971 9.09362C273.294 8.25163 274.785 7.83064 276.445 7.83064ZM276.698 9.85141C275.375 9.85141 274.184 10.1882 273.125 10.8618C272.091 11.5113 271.273 12.4135 270.672 13.5682C270.094 14.6989 269.806 15.9859 269.806 17.4293C269.806 18.8727 270.094 20.1718 270.672 21.3265C271.273 22.4813 272.091 23.3954 273.125 24.069C274.184 24.7185 275.375 25.0433 276.698 25.0433C278.021 25.0433 279.2 24.7185 280.234 24.069C281.269 23.4195 282.087 22.5294 282.688 21.3987C283.289 20.244 283.59 18.9208 283.59 17.4293C283.59 15.9378 283.289 14.6267 282.688 13.496C282.087 12.3413 281.269 11.4512 280.234 10.8257C279.2 10.1762 278.021 9.85141 276.698 9.85141ZM298.908 27.0641C297.056 27.0641 295.42 26.6671 294 25.8733C292.581 25.0794 291.474 23.9728 290.681 22.5534C289.887 21.1341 289.49 19.4742 289.49 17.5737C289.49 15.5288 289.887 13.7847 290.681 12.3413C291.499 10.8979 292.545 9.79127 293.82 9.02145C295.119 8.22758 296.49 7.83064 297.934 7.83064C298.992 7.83064 300.015 8.02309 301.001 8.408C302.011 8.76886 302.901 9.32216 303.671 10.0679C304.465 10.7896 305.091 11.6797 305.548 12.7382C306.029 13.7967 306.293 15.0236 306.342 16.4189C306.318 16.7076 306.197 16.9602 305.981 17.1767C305.764 17.3692 305.512 17.4654 305.223 17.4654H290.753L290.32 15.5168H304.537L304.068 15.9498V15.2281C303.972 14.0974 303.611 13.1352 302.986 12.3413C302.36 11.5474 301.602 10.946 300.712 10.537C299.822 10.1281 298.896 9.92358 297.934 9.92358C297.212 9.92358 296.466 10.0679 295.696 10.3566C294.951 10.6453 294.265 11.1024 293.64 11.7278C293.038 12.3293 292.545 13.1111 292.16 14.0734C291.775 15.0116 291.583 16.1302 291.583 17.4293C291.583 18.8487 291.871 20.1357 292.449 21.2904C293.026 22.4452 293.856 23.3593 294.939 24.0329C296.045 24.7065 297.356 25.0433 298.872 25.0433C299.714 25.0433 300.472 24.923 301.145 24.6825C301.819 24.4419 302.408 24.1292 302.913 23.7442C303.419 23.3353 303.84 22.9143 304.176 22.4813C304.441 22.2647 304.706 22.1565 304.97 22.1565C305.211 22.1565 305.415 22.2527 305.584 22.4452C305.776 22.6376 305.872 22.8541 305.872 23.0947C305.872 23.3834 305.752 23.636 305.512 23.8525C304.79 24.7185 303.852 25.4763 302.697 26.1259C301.542 26.7513 300.279 27.0641 298.908 27.0641ZM309.785 8.33583H318.193C318.482 8.33583 318.722 8.44409 318.915 8.6606C319.107 8.85305 319.203 9.09362 319.203 9.3823C319.203 9.64693 319.107 9.87547 318.915 10.0679C318.722 10.2604 318.482 10.3566 318.193 10.3566H309.785C309.497 10.3566 309.244 10.2604 309.027 10.0679C308.835 9.85141 308.739 9.61084 308.739 9.34622C308.739 9.05754 308.835 8.81697 309.027 8.62451C309.244 8.43206 309.497 8.33583 309.785 8.33583ZM313.502 3.24781C313.815 3.24781 314.067 3.35607 314.26 3.57258C314.476 3.78909 314.585 4.04169 314.585 4.33037V22.4452C314.585 23.1188 314.669 23.624 314.837 23.9608C315.03 24.2975 315.27 24.5261 315.559 24.6464C315.848 24.7426 316.136 24.7907 316.425 24.7907C316.617 24.7907 316.786 24.7667 316.93 24.7185C317.098 24.6464 317.279 24.6103 317.471 24.6103C317.688 24.6103 317.868 24.6945 318.013 24.8629C318.181 25.0313 318.265 25.2478 318.265 25.5124C318.265 25.8492 318.073 26.1379 317.688 26.3785C317.303 26.595 316.846 26.7032 316.317 26.7032C316.1 26.7032 315.775 26.6912 315.342 26.6671C314.909 26.619 314.464 26.4867 314.007 26.2702C313.55 26.0296 313.165 25.6207 312.852 25.0433C312.564 24.4659 312.419 23.636 312.419 22.5534V4.33037C312.419 4.04169 312.516 3.78909 312.708 3.57258C312.925 3.35607 313.189 3.24781 313.502 3.24781ZM331.612 8.11932C333.128 8.11932 334.354 8.44409 335.293 9.09362C336.231 9.74316 336.917 10.6212 337.35 11.7278C337.807 12.8345 338.035 14.0614 338.035 15.4085V25.6207C338.035 25.9094 337.927 26.162 337.71 26.3785C337.494 26.595 337.241 26.7032 336.953 26.7032C336.616 26.7032 336.351 26.595 336.159 26.3785C335.966 26.162 335.87 25.9094 335.87 25.6207V15.4085C335.87 14.4222 335.714 13.5321 335.401 12.7382C335.112 11.9444 334.631 11.3189 333.958 10.8618C333.284 10.3807 332.382 10.1401 331.251 10.1401C330.241 10.1401 329.278 10.3807 328.364 10.8618C327.474 11.3189 326.752 11.9444 326.199 12.7382C325.646 13.5321 325.369 14.4222 325.369 15.4085V25.6207C325.369 25.9094 325.261 26.162 325.044 26.3785C324.828 26.595 324.575 26.7032 324.287 26.7032C323.95 26.7032 323.685 26.595 323.493 26.3785C323.3 26.162 323.204 25.9094 323.204 25.6207V1.08269C323.204 0.794011 323.3 0.541414 323.493 0.324904C323.709 0.108393 323.974 0.000136698 324.287 0.000136698C324.599 0.000136698 324.852 0.108393 325.044 0.324904C325.261 0.541414 325.369 0.794011 325.369 1.08269V12.7743L324.539 14.0373C324.587 13.2915 324.816 12.5698 325.225 11.8722C325.658 11.1505 326.211 10.513 326.885 9.95967C327.558 9.3823 328.304 8.93725 329.122 8.62451C329.94 8.28772 330.77 8.11932 331.612 8.11932ZM352.049 27.0641C350.197 27.0641 348.561 26.6671 347.142 25.8733C345.722 25.0794 344.616 23.9728 343.822 22.5534C343.028 21.1341 342.631 19.4742 342.631 17.5737C342.631 15.5288 343.028 13.7847 343.822 12.3413C344.64 10.8979 345.686 9.79127 346.961 9.02145C348.26 8.22758 349.631 7.83064 351.075 7.83064C352.133 7.83064 353.156 8.02309 354.142 8.408C355.153 8.76886 356.043 9.32216 356.812 10.0679C357.606 10.7896 358.232 11.6797 358.689 12.7382C359.17 13.7967 359.435 15.0236 359.483 16.4189C359.459 16.7076 359.338 16.9602 359.122 17.1767C358.905 17.3692 358.653 17.4654 358.364 17.4654H343.894L343.461 15.5168H357.679L357.209 15.9498V15.2281C357.113 14.0974 356.752 13.1352 356.127 12.3413C355.501 11.5474 354.744 10.946 353.853 10.537C352.963 10.1281 352.037 9.92358 351.075 9.92358C350.353 9.92358 349.607 10.0679 348.838 10.3566C348.092 10.6453 347.406 11.1024 346.781 11.7278C346.179 12.3293 345.686 13.1111 345.301 14.0734C344.916 15.0116 344.724 16.1302 344.724 17.4293C344.724 18.8487 345.013 20.1357 345.59 21.2904C346.167 22.4452 346.997 23.3593 348.08 24.0329C349.186 24.7065 350.498 25.0433 352.013 25.0433C352.855 25.0433 353.613 24.923 354.286 24.6825C354.96 24.4419 355.549 24.1292 356.055 23.7442C356.56 23.3353 356.981 22.9143 357.318 22.4813C357.582 22.2647 357.847 22.1565 358.112 22.1565C358.352 22.1565 358.557 22.2527 358.725 22.4452C358.917 22.6376 359.014 22.8541 359.014 23.0947C359.014 23.3834 358.893 23.636 358.653 23.8525C357.931 24.7185 356.993 25.4763 355.838 26.1259C354.683 26.7513 353.42 27.0641 352.049 27.0641ZM365.2 26.7032C364.863 26.7032 364.598 26.595 364.406 26.3785C364.213 26.162 364.117 25.9094 364.117 25.6207V9.45448C364.117 9.16579 364.213 8.9132 364.406 8.69669C364.622 8.48017 364.887 8.37192 365.2 8.37192C365.512 8.37192 365.765 8.48017 365.958 8.69669C366.174 8.9132 366.282 9.16579 366.282 9.45448V14.8673L365.741 14.9755C365.813 14.1335 366.018 13.3036 366.354 12.4856C366.715 11.6436 367.196 10.8738 367.798 10.1762C368.399 9.47853 369.109 8.9132 369.927 8.48017C370.769 8.04715 371.707 7.83064 372.742 7.83064C373.175 7.83064 373.596 7.92687 374.005 8.11932C374.414 8.28772 374.618 8.5764 374.618 8.98537C374.618 9.34622 374.522 9.62287 374.329 9.81533C374.137 10.0078 373.908 10.104 373.644 10.104C373.427 10.104 373.187 10.0439 372.922 9.92358C372.681 9.8033 372.357 9.74316 371.948 9.74316C371.274 9.74316 370.601 9.94764 369.927 10.3566C369.253 10.7415 368.64 11.2708 368.087 11.9444C367.533 12.618 367.088 13.3757 366.751 14.2177C366.439 15.0357 366.282 15.8656 366.282 16.7076V25.6207C366.282 25.9094 366.174 26.162 365.958 26.3785C365.741 26.595 365.488 26.7032 365.2 26.7032ZM374.484 26.7032C374.075 26.7032 373.763 26.5709 373.546 26.3063C373.33 26.0417 373.221 25.7049 373.221 25.2959V24.5381C373.221 24.1051 373.33 23.7683 373.546 23.5277C373.763 23.2872 374.075 23.1669 374.484 23.1669H374.737C375.146 23.1669 375.459 23.2872 375.675 23.5277C375.892 23.7683 376 24.1051 376 24.5381V25.2959C376 25.7049 375.892 26.0417 375.675 26.3063C375.459 26.5709 375.146 26.7032 374.737 26.7032H374.484Z" fill="white"/>
</svg>
