<svg width="150" height="27" viewBox="0 0 150 27" fill="none" xmlns="http://www.w3.org/2000/svg">
<path d="M10.8145 4.1816L2.05475 25.9547C1.95863 26.1951 1.82645 26.3753 1.65822 26.4955C1.49 26.6156 1.29774 26.6757 1.08145 26.6757C0.745002 26.6757 0.492664 26.5916 0.324439 26.4234C0.156213 26.2311 0.0600848 26.0028 0.0360527 25.7384C0.0120205 25.6183 0.0240366 25.4741 0.0721009 25.3059L9.58884 2.0187C9.709 1.75435 9.85319 1.57411 10.0214 1.47798C10.2137 1.35782 10.43 1.29774 10.6703 1.29774C10.9106 1.29774 11.1149 1.36984 11.2831 1.51403C11.4754 1.63419 11.6196 1.80241 11.7157 2.0187L21.1964 25.1977C21.2444 25.3419 21.2685 25.4861 21.2685 25.6303C21.2685 25.9668 21.1603 26.2311 20.944 26.4234C20.7277 26.5916 20.4754 26.6757 20.187 26.6757C19.9467 26.6757 19.7304 26.6156 19.5382 26.4955C19.3699 26.3513 19.2378 26.171 19.1416 25.9547L10.1656 4.03741L10.8145 4.1816ZM4.14555 19.3579L5.04676 17.2311H16.2217L16.6543 19.3579H4.14555ZM33.938 7.78642C35.5722 7.78642 37.0141 8.19497 38.2638 9.01206C39.5375 9.82916 40.5469 10.9587 41.2919 12.4006C42.0369 13.8185 42.4094 15.4647 42.4094 17.3392C42.4094 19.1657 42.0369 20.8119 41.2919 22.2778C40.5469 23.7438 39.5375 24.8973 38.2638 25.7384C36.9901 26.5796 35.5602 27.0001 33.9741 27.0001C33.1329 27.0001 32.3279 26.868 31.5588 26.6036C30.8138 26.3393 30.1289 25.9908 29.5041 25.5582C28.8792 25.1016 28.3265 24.5729 27.8459 23.9721C27.3652 23.3713 26.9807 22.7224 26.6923 22.0255L27.3412 21.5569V25.6303C27.3412 25.9427 27.233 26.2071 27.0168 26.4234C26.8245 26.6156 26.5722 26.7118 26.2597 26.7118C25.9473 26.7118 25.683 26.6156 25.4667 26.4234C25.2744 26.2071 25.1783 25.9427 25.1783 25.6303V1.08145C25.1783 0.769031 25.2744 0.516694 25.4667 0.324437C25.6589 0.108148 25.9233 3.10359e-06 26.2597 3.10359e-06C26.5722 3.10359e-06 26.8245 0.108148 27.0168 0.324437C27.233 0.516694 27.3412 0.769031 27.3412 1.08145V13.1576L26.8365 12.8692C27.0768 12.1242 27.4253 11.4513 27.8819 10.8505C28.3626 10.2257 28.9153 9.68496 29.5401 9.22835C30.165 8.77174 30.8499 8.42328 31.5949 8.18295C32.3399 7.9186 33.1209 7.78642 33.938 7.78642ZM33.7578 9.80513C32.46 9.80513 31.3185 10.1296 30.3332 10.7784C29.3479 11.4273 28.5668 12.3165 27.9901 13.446C27.4373 14.5755 27.1609 15.8732 27.1609 17.3392C27.1609 18.7811 27.4373 20.0909 27.9901 21.2685C28.5668 22.422 29.3479 23.3352 30.3332 24.0081C31.3185 24.657 32.46 24.9814 33.7578 24.9814C35.0315 24.9814 36.149 24.645 37.1103 23.9721C38.0956 23.2992 38.8766 22.386 39.4534 21.2324C40.0302 20.0548 40.3186 18.7571 40.3186 17.3392C40.3186 15.8732 40.0302 14.5755 39.4534 13.446C38.8766 12.3165 38.0956 11.4273 37.1103 10.7784C36.149 10.1296 35.0315 9.80513 33.7578 9.80513ZM64.1985 17.4113C64.1985 19.2377 63.802 20.884 63.009 22.3499C62.2159 23.7918 61.1344 24.9334 59.7646 25.7745C58.3948 26.5916 56.8327 27.0001 55.0783 27.0001C53.3721 27.0001 51.822 26.5916 50.4281 25.7745C49.0583 24.9334 47.9648 23.7918 47.1477 22.3499C46.3547 20.884 45.9581 19.2377 45.9581 17.4113C45.9581 15.5608 46.3547 13.9146 47.1477 12.4727C47.9648 11.0308 49.0583 9.88924 50.4281 9.04811C51.822 8.20699 53.3721 7.78642 55.0783 7.78642C56.8327 7.78642 58.3948 8.20699 59.7646 9.04811C61.1344 9.88924 62.2159 11.0308 63.009 12.4727C63.802 13.9146 64.1985 15.5608 64.1985 17.4113ZM62.0356 17.4113C62.0356 15.9453 61.7352 14.6476 61.1344 13.5181C60.5336 12.3645 59.7045 11.4633 58.6471 10.8145C57.6137 10.1416 56.4241 9.80513 55.0783 9.80513C53.7806 9.80513 52.603 10.1416 51.5456 10.8145C50.4882 11.4633 49.6471 12.3645 49.0222 13.5181C48.4214 14.6476 48.121 15.9453 48.121 17.4113C48.121 18.8773 48.4214 20.175 49.0222 21.3045C49.6471 22.434 50.4882 23.3352 51.5456 24.0081C52.603 24.657 53.7806 24.9814 55.0783 24.9814C56.4241 24.9814 57.6137 24.657 58.6471 24.0081C59.7045 23.3352 60.5336 22.434 61.1344 21.3045C61.7352 20.175 62.0356 18.8773 62.0356 17.4113ZM82.5657 8.32715C82.8781 8.32715 83.1304 8.43529 83.3227 8.65158C83.539 8.86787 83.6471 9.12021 83.6471 9.40859V19.5742C83.6471 21.9534 82.9742 23.7678 81.6284 25.0175C80.2826 26.2672 78.4682 26.892 76.1851 26.892C73.9261 26.892 72.1237 26.2672 70.7779 25.0175C69.4561 23.7678 68.7953 21.9534 68.7953 19.5742V9.40859C68.7953 9.12021 68.8914 8.86787 69.0836 8.65158C69.2999 8.43529 69.5643 8.32715 69.8767 8.32715C70.1891 8.32715 70.4415 8.43529 70.6337 8.65158C70.85 8.86787 70.9582 9.12021 70.9582 9.40859V19.5742C70.9582 21.3045 71.4148 22.6263 72.328 23.5395C73.2652 24.4287 74.551 24.8733 76.1851 24.8733C77.8434 24.8733 79.1411 24.4287 80.0784 23.5395C81.0156 22.6263 81.4842 21.3045 81.4842 19.5742V9.40859C81.4842 9.12021 81.5804 8.86787 81.7726 8.65158C81.9649 8.43529 82.2292 8.32715 82.5657 8.32715ZM88.1292 8.2911H96.5285C96.8169 8.2911 97.0572 8.39924 97.2494 8.61553C97.4417 8.80779 97.5378 9.04811 97.5378 9.3365C97.5378 9.60085 97.4417 9.82916 97.2494 10.0214C97.0572 10.2137 96.8169 10.3098 96.5285 10.3098H88.1292C87.8408 10.3098 87.5885 10.2137 87.3722 10.0214C87.18 9.80512 87.0838 9.5648 87.0838 9.30045C87.0838 9.01206 87.18 8.77174 87.3722 8.57948C87.5885 8.38723 87.8408 8.2911 88.1292 8.2911ZM91.8422 3.2083C92.1546 3.2083 92.4069 3.31644 92.5992 3.53273C92.8155 3.74902 92.9236 4.00136 92.9236 4.28974V22.386C92.9236 23.0589 93.0078 23.5635 93.176 23.9C93.3682 24.2364 93.6086 24.4647 93.8969 24.5849C94.1853 24.681 94.4737 24.7291 94.7621 24.7291C94.9544 24.7291 95.1226 24.7051 95.2668 24.657C95.435 24.5849 95.6152 24.5489 95.8075 24.5489C96.0238 24.5489 96.204 24.633 96.3482 24.8012C96.5164 24.9694 96.6006 25.1857 96.6006 25.4501C96.6006 25.7865 96.4083 26.0749 96.0238 26.3152C95.6393 26.5315 95.1827 26.6397 94.654 26.6397C94.4377 26.6397 94.1132 26.6276 93.6807 26.6036C93.2481 26.5555 92.8035 26.4234 92.3469 26.2071C91.8903 25.9668 91.5057 25.5582 91.1933 24.9814C90.9049 24.4047 90.7607 23.5756 90.7607 22.4941V4.28974C90.7607 4.00136 90.8569 3.74902 91.0491 3.53273C91.2654 3.31644 91.5298 3.2083 91.8422 3.2083ZM129.776 1.40588C130.112 1.40588 130.377 1.51403 130.569 1.73032C130.761 1.92258 130.857 2.17491 130.857 2.48733V17.4113C130.857 19.1897 130.437 20.7998 129.596 22.2418C128.755 23.6837 127.625 24.8372 126.207 25.7024C124.789 26.5435 123.191 26.9641 121.413 26.9641C119.634 26.9641 118.024 26.5435 116.582 25.7024C115.164 24.8372 114.035 23.6837 113.194 22.2418C112.353 20.7998 111.932 19.1897 111.932 17.4113V2.48733C111.932 2.17491 112.028 1.92258 112.22 1.73032C112.437 1.51403 112.725 1.40588 113.086 1.40588C113.374 1.40588 113.626 1.51403 113.843 1.73032C114.059 1.92258 114.167 2.17491 114.167 2.48733V17.4113C114.167 18.8052 114.491 20.0548 115.14 21.1603C115.813 22.2658 116.702 23.155 117.808 23.8279C118.913 24.4768 120.115 24.8012 121.413 24.8012C122.759 24.8012 123.984 24.4768 125.09 23.8279C126.195 23.155 127.072 22.2658 127.721 21.1603C128.394 20.0548 128.731 18.8052 128.731 17.4113V2.48733C128.731 2.17491 128.827 1.92258 129.019 1.73032C129.211 1.51403 129.464 1.40588 129.776 1.40588ZM136.044 23.7197C135.852 23.4314 135.756 23.155 135.756 22.8906C135.78 22.6023 135.936 22.3739 136.225 22.2057C136.417 22.0375 136.633 21.9654 136.873 21.9894C137.138 22.0135 137.378 22.1336 137.594 22.3499C138.243 23.191 139.024 23.876 139.938 24.4047C140.875 24.9093 141.98 25.1617 143.254 25.1617C143.927 25.1617 144.588 25.0535 145.237 24.8372C145.91 24.5969 146.462 24.2485 146.895 23.7918C147.327 23.3112 147.544 22.7104 147.544 21.9894C147.544 21.2444 147.327 20.6436 146.895 20.187C146.462 19.7304 145.898 19.3699 145.201 19.1056C144.528 18.8412 143.807 18.6129 143.038 18.4207C142.221 18.2044 141.428 17.964 140.659 17.6997C139.89 17.4113 139.205 17.0628 138.604 16.6543C138.027 16.2217 137.558 15.705 137.198 15.1042C136.837 14.5034 136.657 13.7704 136.657 12.9053C136.657 11.8959 136.934 11.0067 137.486 10.2377C138.039 9.46867 138.784 8.86787 139.721 8.43529C140.683 8.00271 141.764 7.78642 142.966 7.78642C143.566 7.78642 144.215 7.87054 144.912 8.03876C145.609 8.18295 146.294 8.43529 146.967 8.79577C147.64 9.15626 148.241 9.64892 148.769 10.2738C148.986 10.49 149.094 10.7424 149.094 11.0308C149.094 11.2951 148.974 11.5354 148.733 11.7517C148.541 11.8959 148.313 11.968 148.048 11.968C147.808 11.968 147.604 11.8719 147.436 11.6796C146.859 11.0308 146.174 10.5381 145.381 10.2017C144.588 9.8652 143.735 9.69698 142.821 9.69698C142.125 9.69698 141.464 9.81714 140.839 10.0575C140.238 10.2738 139.733 10.6102 139.325 11.0668C138.916 11.5234 138.712 12.1242 138.712 12.8692C138.76 13.5662 139 14.1309 139.433 14.5635C139.89 14.9961 140.478 15.3566 141.199 15.6449C141.944 15.9333 142.773 16.1977 143.687 16.438C144.456 16.6303 145.189 16.8586 145.886 17.1229C146.607 17.3873 147.231 17.7237 147.76 18.1323C148.313 18.5168 148.745 19.0094 149.058 19.6102C149.394 20.2111 149.562 20.9681 149.562 21.8813C149.562 22.9387 149.262 23.8519 148.661 24.621C148.084 25.39 147.303 25.9788 146.318 26.3873C145.333 26.7959 144.239 27.0001 143.038 27.0001C141.74 27.0001 140.478 26.7478 139.253 26.2431C138.051 25.7384 136.982 24.8973 136.044 23.7197Z" fill="white"/>
</svg>
