<svg width="493" height="80" viewBox="0 0 493 80" fill="none" xmlns="http://www.w3.org/2000/svg">
<path d="M11.0526 1.43997C13.2607 1.43997 14.9288 1.98 16.0569 3.06006C17.209 4.14012 17.785 5.71221 17.785 7.77632C17.785 8.85638 17.521 9.84043 16.9929 10.7285C16.4889 11.5925 15.7329 12.2766 14.7248 12.7806C13.7408 13.2846 12.5047 13.5486 11.0166 13.5726L11.0886 12.2406C11.8807 12.2406 12.7327 12.3486 13.6448 12.5646C14.5808 12.7806 15.4569 13.1526 16.2729 13.6806C17.0889 14.2087 17.761 14.9287 18.289 15.8408C18.817 16.7288 19.0811 17.8449 19.0811 19.189C19.0811 20.653 18.841 21.8771 18.361 22.8612C17.881 23.8212 17.245 24.5772 16.4529 25.1293C15.6609 25.6813 14.7848 26.0773 13.8248 26.3173C12.8887 26.5334 11.9647 26.6414 11.0526 26.6414H1.8361C1.33207 26.6414 0.90005 26.4734 0.540029 26.1373C0.18001 25.7773 -3.57648e-07 25.3333 -3.57648e-07 24.8053V3.27607C-3.57648e-07 2.74804 0.18001 2.31602 0.540029 1.98C0.90005 1.61998 1.33207 1.43997 1.8361 1.43997H11.0526ZM10.5486 4.96816H3.45619L3.88821 4.39213V12.1326L3.49219 11.7365H10.6206C11.4846 11.7125 12.2407 11.4245 12.8887 10.8725C13.5607 10.2965 13.8968 9.45641 13.8968 8.35235C13.8968 7.22429 13.5968 6.38424 12.9967 5.83221C12.3967 5.25618 11.5806 4.96816 10.5486 4.96816ZM10.8006 15.2647H3.6362L3.88821 15.0127V23.5092L3.6002 23.1852H11.0166C12.2647 23.1852 13.2727 22.8612 14.0408 22.2131C14.8088 21.5411 15.1928 20.533 15.1928 19.189C15.1928 18.0609 14.9648 17.2208 14.5088 16.6688C14.0528 16.1168 13.4887 15.7448 12.8167 15.5528C12.1447 15.3607 11.4726 15.2647 10.8006 15.2647ZM24.9601 26.6414C24.432 26.6414 24 26.4734 23.664 26.1373C23.328 25.7773 23.16 25.3333 23.16 24.8053V9.54042C23.16 9.01239 23.328 8.58037 23.664 8.24435C24 7.88433 24.432 7.70432 24.9601 7.70432C25.4641 7.70432 25.8841 7.88433 26.2201 8.24435C26.5802 8.58037 26.7602 9.01239 26.7602 9.54042V13.5726L26.4001 12.0246C26.5922 11.3525 26.8802 10.7285 27.2642 10.1525C27.6722 9.57642 28.1522 9.07239 28.7043 8.64037C29.2563 8.20835 29.8683 7.87233 30.5404 7.63231C31.2364 7.3923 31.9565 7.27229 32.7005 7.27229C33.3245 7.27229 33.8646 7.4403 34.3206 7.77632C34.7766 8.11234 35.0046 8.53236 35.0046 9.03639C35.0046 9.68443 34.8366 10.1645 34.5006 10.4765C34.1646 10.7645 33.7926 10.9085 33.3845 10.9085C33.0245 10.9085 32.6765 10.8365 32.3405 10.6925C32.0045 10.5245 31.6084 10.4405 31.1524 10.4405C30.6484 10.4405 30.1324 10.5725 29.6043 10.8365C29.0763 11.1005 28.5963 11.4965 28.1642 12.0246C27.7322 12.5286 27.3842 13.1286 27.1202 13.8247C26.8802 14.5207 26.7602 15.3007 26.7602 16.1648V24.8053C26.7602 25.3333 26.5802 25.7773 26.2201 26.1373C25.8841 26.4734 25.4641 26.6414 24.9601 26.6414ZM53.3026 7.4163C53.8307 7.4163 54.2627 7.59631 54.5987 7.95633C54.9347 8.29235 55.1027 8.72437 55.1027 9.2524V24.8053C55.1027 25.3333 54.9347 25.7773 54.5987 26.1373C54.2627 26.4734 53.8307 26.6414 53.3026 26.6414C52.7986 26.6414 52.3666 26.4734 52.0066 26.1373C51.6705 25.7773 51.5025 25.3333 51.5025 24.8053V22.2131L52.2586 22.3211C52.2586 22.7531 52.0786 23.2332 51.7185 23.7612C51.3825 24.2892 50.9145 24.8053 50.3145 25.3093C49.7144 25.7893 49.0064 26.1973 48.1903 26.5334C47.3743 26.8454 46.4983 27.0014 45.5622 27.0014C43.9061 27.0014 42.418 26.5814 41.098 25.7413C39.7779 24.8773 38.7338 23.7012 37.9658 22.2131C37.1977 20.725 36.8137 19.0329 36.8137 17.1368C36.8137 15.1927 37.1977 13.4886 37.9658 12.0246C38.7338 10.5365 39.7659 9.37241 41.062 8.53236C42.382 7.69232 43.8461 7.27229 45.4542 7.27229C46.4863 7.27229 47.4343 7.4403 48.2984 7.77632C49.1864 8.11234 49.9544 8.54436 50.6025 9.07239C51.2505 9.60042 51.7425 10.1645 52.0786 10.7645C52.4386 11.3405 52.6186 11.8925 52.6186 12.4206L51.5025 12.5286V9.2524C51.5025 8.74838 51.6705 8.31635 52.0066 7.95633C52.3666 7.59631 52.7986 7.4163 53.3026 7.4163ZM45.9582 23.6892C47.0863 23.6892 48.0823 23.4012 48.9464 22.8252C49.8104 22.2491 50.4825 21.4691 50.9625 20.485C51.4425 19.477 51.6825 18.3609 51.6825 17.1368C51.6825 15.8888 51.4425 14.7727 50.9625 13.7887C50.4825 12.8046 49.8104 12.0246 48.9464 11.4485C48.0823 10.8725 47.0863 10.5845 45.9582 10.5845C44.8542 10.5845 43.8701 10.8725 43.0061 11.4485C42.166 12.0246 41.494 12.8046 40.99 13.7887C40.5099 14.7727 40.2699 15.8888 40.2699 17.1368C40.2699 18.3609 40.5099 19.477 40.99 20.485C41.494 21.4691 42.166 22.2491 43.0061 22.8252C43.8701 23.4012 44.8542 23.6892 45.9582 23.6892ZM69.9029 7.27229C71.607 7.27229 72.9271 7.63231 73.8631 8.35235C74.7992 9.04839 75.4472 9.99644 75.8072 11.1965C76.1913 12.3726 76.3833 13.6926 76.3833 15.1567V24.8053C76.3833 25.3333 76.2033 25.7773 75.8433 26.1373C75.5072 26.4734 75.0872 26.6414 74.5832 26.6414C74.0552 26.6414 73.6231 26.4734 73.2871 26.1373C72.9511 25.7773 72.7831 25.3333 72.7831 24.8053V15.1927C72.7831 14.3287 72.6631 13.5606 72.4231 12.8886C72.183 12.1926 71.763 11.6405 71.163 11.2325C70.587 10.8005 69.7709 10.5845 68.7149 10.5845C67.7308 10.5845 66.8668 10.8005 66.1227 11.2325C65.3787 11.6405 64.7906 12.1926 64.3586 12.8886C63.9506 13.5606 63.7466 14.3287 63.7466 15.1927V24.8053C63.7466 25.3333 63.5666 25.7773 63.2066 26.1373C62.8705 26.4734 62.4505 26.6414 61.9465 26.6414C61.4185 26.6414 60.9864 26.4734 60.6504 26.1373C60.3144 25.7773 60.1464 25.3333 60.1464 24.8053V9.54042C60.1464 9.01239 60.3144 8.58037 60.6504 8.24435C60.9864 7.88433 61.4185 7.70432 61.9465 7.70432C62.4505 7.70432 62.8705 7.88433 63.2066 8.24435C63.5666 8.58037 63.7466 9.01239 63.7466 9.54042V11.5565L63.0985 11.9166C63.2666 11.3885 63.5546 10.8605 63.9626 10.3325C64.3946 9.78043 64.9106 9.2764 65.5107 8.82038C66.1107 8.34035 66.7828 7.96833 67.5268 7.70432C68.2708 7.4163 69.0629 7.27229 69.9029 7.27229ZM96.8988 -0.000107771C97.4268 -0.000107771 97.8588 0.167901 98.1949 0.50392C98.5309 0.839939 98.6989 1.28396 98.6989 1.83599V24.8053C98.6989 25.3333 98.5309 25.7773 98.1949 26.1373C97.8588 26.4734 97.4268 26.6414 96.8988 26.6414C96.3948 26.6414 95.9627 26.4734 95.6027 26.1373C95.2667 25.7773 95.0987 25.3333 95.0987 24.8053V22.2131L95.8547 22.2491C95.8547 22.6811 95.6747 23.1732 95.3147 23.7252C94.9787 24.2532 94.5107 24.7693 93.9106 25.2733C93.3106 25.7773 92.6026 26.1973 91.7865 26.5334C90.9705 26.8454 90.0944 27.0014 89.1584 27.0014C87.5023 27.0014 86.0142 26.5814 84.6941 25.7413C83.374 24.8773 82.33 23.7132 81.5619 22.2491C80.7939 20.761 80.4099 19.0569 80.4099 17.1368C80.4099 15.2167 80.7939 13.5246 81.5619 12.0606C82.33 10.5725 83.362 9.40841 84.6581 8.56836C85.9782 7.70432 87.4423 7.27229 89.0504 7.27229C90.0584 7.27229 90.9945 7.4403 91.8585 7.77632C92.7466 8.11234 93.5146 8.54436 94.1626 9.07239C94.8107 9.60042 95.3147 10.1645 95.6747 10.7645C96.0347 11.3405 96.2148 11.8925 96.2148 12.4206L95.0987 12.5286V1.83599C95.0987 1.30796 95.2667 0.87594 95.6027 0.539922C95.9627 0.179902 96.3948 -0.000107771 96.8988 -0.000107771ZM89.5544 23.6892C90.7064 23.6892 91.7025 23.4012 92.5425 22.8252C93.4066 22.2491 94.0786 21.4691 94.5587 20.485C95.0387 19.501 95.2787 18.3849 95.2787 17.1368C95.2787 15.8888 95.0387 14.7727 94.5587 13.7887C94.0786 12.8046 93.4066 12.0246 92.5425 11.4485C91.6785 10.8725 90.6824 10.5845 89.5544 10.5845C88.4503 10.5845 87.4663 10.8725 86.6022 11.4485C85.7622 12.0246 85.0901 12.8046 84.5861 13.7887C84.1061 14.7727 83.8661 15.8888 83.8661 17.1368C83.8661 18.3849 84.1061 19.501 84.5861 20.485C85.0901 21.4691 85.7622 22.2491 86.6022 22.8252C87.4663 23.4012 88.4503 23.6892 89.5544 23.6892ZM104.931 17.3168C104.427 17.3168 103.995 17.1488 103.635 16.8128C103.299 16.4528 103.131 16.0208 103.131 15.5167C103.131 14.9887 103.299 14.5687 103.635 14.2567C103.995 13.9207 104.427 13.7527 104.931 13.7527H111.699C112.203 13.7527 112.635 13.9327 112.995 14.2927C113.355 14.6287 113.535 15.0607 113.535 15.5888C113.535 16.0688 113.355 16.4768 112.995 16.8128C112.635 17.1488 112.203 17.3168 111.699 17.3168H104.931ZM136.2 2.88005C136.728 3.14406 137.028 3.55209 137.1 4.10412C137.196 4.65615 137.064 5.16018 136.704 5.6162C136.44 5.97622 136.092 6.18023 135.66 6.22824C135.252 6.27624 134.844 6.19223 134.436 5.97622C133.74 5.6162 133.008 5.32819 132.24 5.11217C131.472 4.89616 130.656 4.78816 129.792 4.78816C128.424 4.78816 127.188 5.01617 126.084 5.47219C125.004 5.90422 124.068 6.54025 123.276 7.3803C122.484 8.19634 121.872 9.1684 121.439 10.2965C121.031 11.4245 120.827 12.6726 120.827 14.0407C120.827 15.5528 121.055 16.8968 121.511 18.0729C121.968 19.225 122.592 20.209 123.384 21.0251C124.2 21.8171 125.148 22.4171 126.228 22.8252C127.332 23.2092 128.52 23.4012 129.792 23.4012C130.608 23.4012 131.4 23.3052 132.168 23.1132C132.96 22.9212 133.704 22.6331 134.4 22.2491C134.832 22.0331 135.252 21.9611 135.66 22.0331C136.092 22.0811 136.44 22.2851 136.704 22.6451C137.112 23.1492 137.256 23.6652 137.136 24.1932C137.04 24.6973 136.74 25.0813 136.236 25.3453C135.636 25.6813 134.976 25.9693 134.256 26.2093C133.536 26.4494 132.804 26.6414 132.06 26.7854C131.316 26.9294 130.56 27.0014 129.792 27.0014C128.064 27.0014 126.432 26.7134 124.896 26.1373C123.36 25.5613 121.992 24.7213 120.791 23.6172C119.591 22.5131 118.643 21.1571 117.947 19.549C117.275 17.9409 116.939 16.1048 116.939 14.0407C116.939 12.1926 117.251 10.4885 117.875 8.92839C118.523 7.3443 119.423 5.98822 120.575 4.86016C121.752 3.7081 123.12 2.82005 124.68 2.19601C126.24 1.54798 127.944 1.22396 129.792 1.22396C130.944 1.22396 132.06 1.36797 133.14 1.65598C134.244 1.944 135.264 2.35202 136.2 2.88005ZM158.944 17.1728C158.944 19.0929 158.524 20.797 157.684 22.2851C156.844 23.7492 155.704 24.9013 154.264 25.7413C152.824 26.5814 151.204 27.0014 149.404 27.0014C147.604 27.0014 145.984 26.5814 144.543 25.7413C143.103 24.9013 141.951 23.7492 141.087 22.2851C140.247 20.797 139.827 19.0929 139.827 17.1728C139.827 15.2287 140.247 13.5246 141.087 12.0606C141.951 10.5725 143.103 9.40841 144.543 8.56836C145.984 7.70432 147.604 7.27229 149.404 7.27229C151.204 7.27229 152.824 7.70432 154.264 8.56836C155.704 9.40841 156.844 10.5725 157.684 12.0606C158.524 13.5246 158.944 15.2287 158.944 17.1728ZM155.344 17.1728C155.344 15.8528 155.08 14.7127 154.552 13.7527C154.024 12.7686 153.304 12.0006 152.392 11.4485C151.504 10.8725 150.508 10.5845 149.404 10.5845C148.3 10.5845 147.292 10.8725 146.38 11.4485C145.468 12.0006 144.747 12.7686 144.219 13.7527C143.691 14.7127 143.427 15.8528 143.427 17.1728C143.427 18.4449 143.691 19.573 144.219 20.557C144.747 21.5411 145.468 22.3091 146.38 22.8612C147.292 23.4132 148.3 23.6892 149.404 23.6892C150.508 23.6892 151.504 23.4132 152.392 22.8612C153.304 22.3091 154.024 21.5411 154.552 20.557C155.08 19.573 155.344 18.4449 155.344 17.1728ZM172.776 7.27229C174.48 7.27229 175.8 7.63231 176.736 8.35235C177.672 9.04839 178.32 9.99644 178.68 11.1965C179.064 12.3726 179.256 13.6926 179.256 15.1567V24.8053C179.256 25.3333 179.076 25.7773 178.716 26.1373C178.38 26.4734 177.96 26.6414 177.456 26.6414C176.928 26.6414 176.496 26.4734 176.16 26.1373C175.824 25.7773 175.656 25.3333 175.656 24.8053V15.1927C175.656 14.3287 175.536 13.5606 175.296 12.8886C175.056 12.1926 174.636 11.6405 174.036 11.2325C173.46 10.8005 172.644 10.5845 171.588 10.5845C170.604 10.5845 169.74 10.8005 168.996 11.2325C168.252 11.6405 167.664 12.1926 167.231 12.8886C166.823 13.5606 166.619 14.3287 166.619 15.1927V24.8053C166.619 25.3333 166.439 25.7773 166.079 26.1373C165.743 26.4734 165.323 26.6414 164.819 26.6414C164.291 26.6414 163.859 26.4734 163.523 26.1373C163.187 25.7773 163.019 25.3333 163.019 24.8053V9.54042C163.019 9.01239 163.187 8.58037 163.523 8.24435C163.859 7.88433 164.291 7.70432 164.819 7.70432C165.323 7.70432 165.743 7.88433 166.079 8.24435C166.439 8.58037 166.619 9.01239 166.619 9.54042V11.5565L165.971 11.9166C166.139 11.3885 166.427 10.8605 166.835 10.3325C167.267 9.78043 167.784 9.2764 168.384 8.82038C168.984 8.34035 169.656 7.96833 170.4 7.70432C171.144 7.4163 171.936 7.27229 172.776 7.27229ZM183.139 23.6892C182.923 23.3532 182.827 22.9692 182.851 22.5371C182.875 22.0811 183.127 21.6971 183.607 21.3851C183.943 21.1691 184.291 21.0851 184.651 21.1331C185.035 21.1571 185.395 21.3371 185.731 21.6731C186.403 22.4171 187.147 23.0052 187.963 23.4372C188.803 23.8692 189.811 24.0852 190.987 24.0852C191.467 24.0612 191.959 23.9892 192.463 23.8692C192.967 23.7252 193.399 23.4852 193.759 23.1492C194.119 22.7892 194.299 22.2731 194.299 21.6011C194.299 21.0011 194.107 20.521 193.723 20.161C193.339 19.801 192.835 19.513 192.211 19.297C191.587 19.0569 190.915 18.8409 190.195 18.6489C189.427 18.4329 188.647 18.1929 187.855 17.9289C187.087 17.6649 186.391 17.3288 185.767 16.9208C185.143 16.4888 184.627 15.9368 184.219 15.2647C183.835 14.5927 183.643 13.7647 183.643 12.7806C183.643 11.6525 183.955 10.6805 184.579 9.86444C185.227 9.04839 186.055 8.41236 187.063 7.95633C188.095 7.5003 189.211 7.27229 190.411 7.27229C191.107 7.27229 191.839 7.3683 192.607 7.56031C193.375 7.72832 194.119 8.00433 194.839 8.38835C195.559 8.77238 196.183 9.2764 196.711 9.90044C196.952 10.2125 197.084 10.5845 197.108 11.0165C197.156 11.4485 196.964 11.8325 196.531 12.1686C196.243 12.4086 195.895 12.5166 195.487 12.4926C195.079 12.4686 194.743 12.3366 194.479 12.0966C194.023 11.5205 193.435 11.0765 192.715 10.7645C191.995 10.4285 191.179 10.2605 190.267 10.2605C189.811 10.2605 189.331 10.3325 188.827 10.4765C188.347 10.5965 187.939 10.8245 187.603 11.1605C187.267 11.4965 187.099 11.9886 187.099 12.6366C187.099 13.2366 187.291 13.7166 187.675 14.0767C188.083 14.4367 188.611 14.7367 189.259 14.9767C189.907 15.2167 190.615 15.4327 191.383 15.6248C192.127 15.8168 192.859 16.0448 193.579 16.3088C194.323 16.5728 194.983 16.9208 195.559 17.3529C196.159 17.7609 196.639 18.3009 197 18.9729C197.384 19.621 197.576 20.449 197.576 21.4571C197.576 22.6331 197.228 23.6412 196.531 24.4812C195.859 25.2973 194.995 25.9213 193.939 26.3533C192.907 26.7854 191.815 27.0014 190.663 27.0014C189.295 27.0014 187.927 26.7614 186.559 26.2813C185.215 25.7773 184.075 24.9133 183.139 23.6892ZM204.831 24.8053C204.831 25.3333 204.663 25.7773 204.327 26.1373C203.991 26.4734 203.559 26.6414 203.031 26.6414C202.527 26.6414 202.095 26.4734 201.735 26.1373C201.399 25.7773 201.231 25.3333 201.231 24.8053V9.39641C201.231 8.86838 201.399 8.43636 201.735 8.10034C202.095 7.74032 202.527 7.56031 203.031 7.56031C203.559 7.56031 203.991 7.74032 204.327 8.10034C204.663 8.43636 204.831 8.86838 204.831 9.39641V24.8053ZM202.995 5.18418C202.299 5.18418 201.795 5.06417 201.483 4.82416C201.171 4.56014 201.015 4.12812 201.015 3.52809V2.95205C201.015 2.35202 201.183 1.932 201.519 1.69199C201.855 1.45197 202.359 1.33197 203.031 1.33197C203.751 1.33197 204.267 1.46397 204.579 1.72799C204.891 1.968 205.047 2.37602 205.047 2.95205V3.52809C205.047 4.15212 204.879 4.58414 204.543 4.82416C204.231 5.06417 203.715 5.18418 202.995 5.18418ZM208.558 23.6892C208.342 23.3532 208.246 22.9692 208.27 22.5371C208.294 22.0811 208.546 21.6971 209.026 21.3851C209.362 21.1691 209.71 21.0851 210.07 21.1331C210.454 21.1571 210.814 21.3371 211.15 21.6731C211.822 22.4171 212.566 23.0052 213.382 23.4372C214.222 23.8692 215.23 24.0852 216.407 24.0852C216.887 24.0612 217.379 23.9892 217.883 23.8692C218.387 23.7252 218.819 23.4852 219.179 23.1492C219.539 22.7892 219.719 22.2731 219.719 21.6011C219.719 21.0011 219.527 20.521 219.143 20.161C218.759 19.801 218.255 19.513 217.631 19.297C217.007 19.0569 216.335 18.8409 215.614 18.6489C214.846 18.4329 214.066 18.1929 213.274 17.9289C212.506 17.6649 211.81 17.3288 211.186 16.9208C210.562 16.4888 210.046 15.9368 209.638 15.2647C209.254 14.5927 209.062 13.7647 209.062 12.7806C209.062 11.6525 209.374 10.6805 209.998 9.86444C210.646 9.04839 211.474 8.41236 212.482 7.95633C213.514 7.5003 214.63 7.27229 215.831 7.27229C216.527 7.27229 217.259 7.3683 218.027 7.56031C218.795 7.72832 219.539 8.00433 220.259 8.38835C220.979 8.77238 221.603 9.2764 222.131 9.90044C222.371 10.2125 222.503 10.5845 222.527 11.0165C222.575 11.4485 222.383 11.8325 221.951 12.1686C221.663 12.4086 221.315 12.5166 220.907 12.4926C220.499 12.4686 220.163 12.3366 219.899 12.0966C219.443 11.5205 218.855 11.0765 218.135 10.7645C217.415 10.4285 216.599 10.2605 215.687 10.2605C215.23 10.2605 214.75 10.3325 214.246 10.4765C213.766 10.5965 213.358 10.8245 213.022 11.1605C212.686 11.4965 212.518 11.9886 212.518 12.6366C212.518 13.2366 212.71 13.7166 213.094 14.0767C213.502 14.4367 214.03 14.7367 214.678 14.9767C215.326 15.2167 216.035 15.4327 216.803 15.6248C217.547 15.8168 218.279 16.0448 218.999 16.3088C219.743 16.5728 220.403 16.9208 220.979 17.3529C221.579 17.7609 222.059 18.3009 222.419 18.9729C222.803 19.621 222.995 20.449 222.995 21.4571C222.995 22.6331 222.647 23.6412 221.951 24.4812C221.279 25.2973 220.415 25.9213 219.359 26.3533C218.327 26.7854 217.235 27.0014 216.083 27.0014C214.714 27.0014 213.346 26.7614 211.978 26.2813C210.634 25.7773 209.494 24.9133 208.558 23.6892ZM226.615 7.92033H235.075C235.555 7.92033 235.951 8.08834 236.263 8.42436C236.599 8.73637 236.767 9.1324 236.767 9.61242C236.767 10.0684 236.599 10.4525 236.263 10.7645C235.951 11.0765 235.555 11.2325 235.075 11.2325H226.615C226.134 11.2325 225.726 11.0765 225.39 10.7645C225.078 10.4285 224.922 10.0324 224.922 9.57642C224.922 9.09639 225.078 8.70037 225.39 8.38835C225.726 8.07634 226.134 7.92033 226.615 7.92033ZM230.395 3.24007C230.923 3.24007 231.355 3.42008 231.691 3.7801C232.027 4.11612 232.195 4.54814 232.195 5.07617V21.7811C232.195 22.2131 232.267 22.5611 232.411 22.8252C232.555 23.0892 232.747 23.2692 232.987 23.3652C233.251 23.4612 233.515 23.5092 233.779 23.5092C234.043 23.5092 234.271 23.4612 234.463 23.3652C234.679 23.2692 234.931 23.2212 235.219 23.2212C235.507 23.2212 235.771 23.3532 236.011 23.6172C236.251 23.8812 236.371 24.2412 236.371 24.6973C236.371 25.2733 236.059 25.7413 235.435 26.1013C234.811 26.4614 234.139 26.6414 233.419 26.6414C233.011 26.6414 232.531 26.6054 231.979 26.5334C231.427 26.4614 230.887 26.2813 230.359 25.9933C229.855 25.7053 229.435 25.2493 229.099 24.6253C228.763 23.9772 228.595 23.0772 228.595 21.9251V5.07617C228.595 4.54814 228.763 4.11612 229.099 3.7801C229.459 3.42008 229.891 3.24007 230.395 3.24007ZM249.399 27.0014C247.407 27.0014 245.679 26.5934 244.214 25.7773C242.75 24.9373 241.61 23.7972 240.794 22.3571C240.002 20.893 239.606 19.225 239.606 17.3529C239.606 15.2407 240.026 13.4406 240.866 11.9526C241.73 10.4405 242.846 9.2884 244.214 8.49636C245.582 7.68032 247.035 7.27229 248.571 7.27229C249.747 7.27229 250.863 7.51231 251.919 7.99233C252.975 8.44836 253.911 9.09639 254.727 9.93644C255.567 10.7525 256.227 11.7245 256.707 12.8526C257.187 13.9567 257.439 15.1687 257.463 16.4888C257.439 16.9688 257.247 17.3649 256.887 17.6769C256.527 17.9889 256.107 18.1449 255.627 18.1449H241.622L240.758 15.0847H254.295L253.611 15.7328V14.8327C253.563 13.9927 253.287 13.2606 252.783 12.6366C252.279 11.9886 251.655 11.4965 250.911 11.1605C250.167 10.8005 249.387 10.6205 248.571 10.6205C247.851 10.6205 247.155 10.7405 246.483 10.9805C245.835 11.1965 245.246 11.5565 244.718 12.0606C244.214 12.5646 243.806 13.2366 243.494 14.0767C243.206 14.8927 243.062 15.9128 243.062 17.1368C243.062 18.4569 243.338 19.609 243.89 20.593C244.442 21.5771 245.186 22.3451 246.123 22.8972C247.059 23.4252 248.091 23.6892 249.219 23.6892C250.107 23.6892 250.839 23.6052 251.415 23.4372C251.991 23.2452 252.471 23.0172 252.855 22.7531C253.239 22.4891 253.575 22.2371 253.863 21.9971C254.223 21.7811 254.583 21.6731 254.943 21.6731C255.375 21.6731 255.735 21.8291 256.023 22.1411C256.311 22.4291 256.455 22.7772 256.455 23.1852C256.455 23.7132 256.191 24.1932 255.663 24.6253C255.015 25.2493 254.115 25.8013 252.963 26.2813C251.835 26.7614 250.647 27.0014 249.399 27.0014ZM271.289 7.27229C272.993 7.27229 274.313 7.63231 275.249 8.35235C276.185 9.04839 276.833 9.99644 277.193 11.1965C277.577 12.3726 277.769 13.6926 277.769 15.1567V24.8053C277.769 25.3333 277.589 25.7773 277.229 26.1373C276.893 26.4734 276.473 26.6414 275.969 26.6414C275.441 26.6414 275.009 26.4734 274.673 26.1373C274.337 25.7773 274.169 25.3333 274.169 24.8053V15.1927C274.169 14.3287 274.049 13.5606 273.809 12.8886C273.569 12.1926 273.149 11.6405 272.549 11.2325C271.973 10.8005 271.157 10.5845 270.101 10.5845C269.117 10.5845 268.253 10.8005 267.509 11.2325C266.765 11.6405 266.177 12.1926 265.745 12.8886C265.337 13.5606 265.133 14.3287 265.133 15.1927V24.8053C265.133 25.3333 264.953 25.7773 264.593 26.1373C264.257 26.4734 263.837 26.6414 263.333 26.6414C262.805 26.6414 262.373 26.4734 262.037 26.1373C261.701 25.7773 261.533 25.3333 261.533 24.8053V9.54042C261.533 9.01239 261.701 8.58037 262.037 8.24435C262.373 7.88433 262.805 7.70432 263.333 7.70432C263.837 7.70432 264.257 7.88433 264.593 8.24435C264.953 8.58037 265.133 9.01239 265.133 9.54042V11.5565L264.485 11.9166C264.653 11.3885 264.941 10.8605 265.349 10.3325C265.781 9.78043 266.297 9.2764 266.897 8.82038C267.497 8.34035 268.169 7.96833 268.913 7.70432C269.657 7.4163 270.449 7.27229 271.289 7.27229ZM282.516 7.92033H290.977C291.457 7.92033 291.853 8.08834 292.165 8.42436C292.501 8.73637 292.669 9.1324 292.669 9.61242C292.669 10.0684 292.501 10.4525 292.165 10.7645C291.853 11.0765 291.457 11.2325 290.977 11.2325H282.516C282.036 11.2325 281.628 11.0765 281.292 10.7645C280.98 10.4285 280.824 10.0324 280.824 9.57642C280.824 9.09639 280.98 8.70037 281.292 8.38835C281.628 8.07634 282.036 7.92033 282.516 7.92033ZM286.296 3.24007C286.824 3.24007 287.256 3.42008 287.592 3.7801C287.928 4.11612 288.096 4.54814 288.096 5.07617V21.7811C288.096 22.2131 288.168 22.5611 288.312 22.8252C288.456 23.0892 288.648 23.2692 288.888 23.3652C289.152 23.4612 289.416 23.5092 289.68 23.5092C289.944 23.5092 290.172 23.4612 290.364 23.3652C290.58 23.2692 290.832 23.2212 291.121 23.2212C291.409 23.2212 291.673 23.3532 291.913 23.6172C292.153 23.8812 292.273 24.2412 292.273 24.6973C292.273 25.2733 291.961 25.7413 291.337 26.1013C290.712 26.4614 290.04 26.6414 289.32 26.6414C288.912 26.6414 288.432 26.6054 287.88 26.5334C287.328 26.4614 286.788 26.2813 286.26 25.9933C285.756 25.7053 285.336 25.2493 285 24.6253C284.664 23.9772 284.496 23.0772 284.496 21.9251V5.07617C284.496 4.54814 284.664 4.11612 285 3.7801C285.36 3.42008 285.792 3.24007 286.296 3.24007ZM310.852 24.8053C310.828 25.3333 310.624 25.7773 310.24 26.1373C309.88 26.4734 309.448 26.6414 308.944 26.6414C308.392 26.6414 307.936 26.4734 307.576 26.1373C307.24 25.7773 307.072 25.3333 307.072 24.8053V3.27607C307.072 2.74804 307.252 2.31602 307.612 1.98C307.972 1.61998 308.44 1.43997 309.016 1.43997C309.496 1.43997 309.916 1.61998 310.276 1.98C310.66 2.31602 310.852 2.74804 310.852 3.27607V24.8053ZM325.778 7.3803C327.554 7.3803 328.923 7.82432 329.883 8.71237C330.843 9.57642 331.479 10.7525 331.791 12.2406L331.215 12.0606L331.467 11.4845C331.779 10.8605 332.247 10.2365 332.871 9.61242C333.519 8.96439 334.287 8.43636 335.175 8.02834C336.063 7.59631 337.011 7.3803 338.019 7.3803C339.675 7.3803 340.959 7.74032 341.871 8.46036C342.783 9.1564 343.419 10.1044 343.779 11.3045C344.139 12.4806 344.319 13.8007 344.319 15.2647V24.8053C344.319 25.3333 344.151 25.7773 343.815 26.1373C343.479 26.4734 343.047 26.6414 342.519 26.6414C342.015 26.6414 341.583 26.4734 341.223 26.1373C340.887 25.7773 340.719 25.3333 340.719 24.8053V15.3007C340.719 14.4607 340.599 13.6926 340.359 12.9966C340.143 12.3006 339.747 11.7485 339.171 11.3405C338.619 10.9085 337.851 10.6925 336.867 10.6925C335.931 10.6925 335.091 10.9085 334.347 11.3405C333.627 11.7485 333.063 12.3006 332.655 12.9966C332.247 13.6926 332.043 14.4607 332.043 15.3007V24.8053C332.043 25.3333 331.875 25.7773 331.539 26.1373C331.203 26.4734 330.771 26.6414 330.243 26.6414C329.715 26.6414 329.283 26.4734 328.947 26.1373C328.61 25.7773 328.442 25.3333 328.442 24.8053V15.2647C328.442 14.4247 328.322 13.6566 328.082 12.9606C327.866 12.2646 327.482 11.7125 326.93 11.3045C326.378 10.8965 325.61 10.6925 324.626 10.6925C323.69 10.6925 322.862 10.8965 322.142 11.3045C321.422 11.7125 320.858 12.2646 320.45 12.9606C320.066 13.6566 319.874 14.4247 319.874 15.2647V24.8053C319.874 25.3333 319.694 25.7773 319.334 26.1373C318.998 26.4734 318.578 26.6414 318.074 26.6414C317.546 26.6414 317.114 26.4734 316.778 26.1373C316.442 25.7773 316.274 25.3333 316.274 24.8053V9.54042C316.274 9.01239 316.442 8.58037 316.778 8.24435C317.114 7.88433 317.546 7.70432 318.074 7.70432C318.578 7.70432 318.998 7.88433 319.334 8.24435C319.694 8.58037 319.874 9.01239 319.874 9.54042V11.6645L319.19 12.0606C319.358 11.5325 319.634 10.9925 320.018 10.4405C320.402 9.88844 320.882 9.38441 321.458 8.92839C322.058 8.47236 322.718 8.10034 323.438 7.81232C324.158 7.52431 324.938 7.3803 325.778 7.3803ZM364.875 7.4163C365.403 7.4163 365.835 7.59631 366.171 7.95633C366.507 8.29235 366.675 8.72437 366.675 9.2524V24.8053C366.675 25.3333 366.507 25.7773 366.171 26.1373C365.835 26.4734 365.403 26.6414 364.875 26.6414C364.37 26.6414 363.938 26.4734 363.578 26.1373C363.242 25.7773 363.074 25.3333 363.074 24.8053V22.2131L363.83 22.3211C363.83 22.7531 363.65 23.2332 363.29 23.7612C362.954 24.2892 362.486 24.8053 361.886 25.3093C361.286 25.7893 360.578 26.1973 359.762 26.5334C358.946 26.8454 358.07 27.0014 357.134 27.0014C355.478 27.0014 353.99 26.5814 352.67 25.7413C351.35 24.8773 350.306 23.7012 349.538 22.2131C348.77 20.725 348.386 19.0329 348.386 17.1368C348.386 15.1927 348.77 13.4886 349.538 12.0246C350.306 10.5365 351.338 9.37241 352.634 8.53236C353.954 7.69232 355.418 7.27229 357.026 7.27229C358.058 7.27229 359.006 7.4403 359.87 7.77632C360.758 8.11234 361.526 8.54436 362.174 9.07239C362.822 9.60042 363.314 10.1645 363.65 10.7645C364.01 11.3405 364.19 11.8925 364.19 12.4206L363.074 12.5286V9.2524C363.074 8.74838 363.242 8.31635 363.578 7.95633C363.938 7.59631 364.37 7.4163 364.875 7.4163ZM357.53 23.6892C358.658 23.6892 359.654 23.4012 360.518 22.8252C361.382 22.2491 362.054 21.4691 362.534 20.485C363.014 19.477 363.254 18.3609 363.254 17.1368C363.254 15.8888 363.014 14.7727 362.534 13.7887C362.054 12.8046 361.382 12.0246 360.518 11.4485C359.654 10.8725 358.658 10.5845 357.53 10.5845C356.426 10.5845 355.442 10.8725 354.578 11.4485C353.738 12.0246 353.066 12.8046 352.562 13.7887C352.082 14.7727 351.842 15.8888 351.842 17.1368C351.842 18.3609 352.082 19.477 352.562 20.485C353.066 21.4691 353.738 22.2491 354.578 22.8252C355.442 23.4012 356.426 23.6892 357.53 23.6892ZM379.603 7.27229C380.635 7.27229 381.583 7.4403 382.447 7.77632C383.311 8.11234 384.055 8.54436 384.679 9.07239C385.327 9.57642 385.831 10.1044 386.191 10.6565C386.551 11.2085 386.731 11.6885 386.731 12.0966L385.903 12.1326V9.2524C385.903 8.74838 386.071 8.31635 386.407 7.95633C386.743 7.59631 387.175 7.4163 387.703 7.4163C388.231 7.4163 388.663 7.59631 388.999 7.95633C389.335 8.29235 389.503 8.72437 389.503 9.2524V25.1293C389.503 27.1694 389.071 28.8255 388.207 30.0976C387.343 31.3936 386.191 32.3417 384.751 32.9417C383.335 33.5417 381.775 33.8418 380.071 33.8418C379.471 33.8418 378.763 33.7578 377.947 33.5897C377.131 33.4457 376.375 33.2657 375.678 33.0497C375.006 32.8337 374.538 32.6177 374.274 32.4017C373.722 32.1137 373.35 31.7776 373.158 31.3936C372.99 31.0096 372.99 30.6256 373.158 30.2416C373.398 29.7135 373.722 29.3895 374.13 29.2695C374.538 29.1495 375.006 29.1855 375.534 29.3775C375.774 29.4495 376.147 29.5815 376.651 29.7735C377.155 29.9655 377.719 30.1336 378.343 30.2776C378.967 30.4456 379.555 30.5296 380.107 30.5296C382.027 30.5296 383.467 30.0856 384.427 29.1975C385.411 28.3095 385.903 27.0974 385.903 25.5613V22.3211L386.299 22.5731C386.227 23.0772 385.999 23.5932 385.615 24.1212C385.255 24.6253 384.775 25.0933 384.175 25.5253C383.575 25.9573 382.879 26.3173 382.087 26.6054C381.319 26.8694 380.527 27.0014 379.711 27.0014C378.007 27.0014 376.483 26.5814 375.138 25.7413C373.794 24.8773 372.726 23.7132 371.934 22.2491C371.142 20.761 370.746 19.0569 370.746 17.1368C370.746 15.2167 371.142 13.5246 371.934 12.0606C372.726 10.5725 373.782 9.40841 375.102 8.56836C376.447 7.70432 377.947 7.27229 379.603 7.27229ZM380.143 10.5845C378.967 10.5845 377.935 10.8725 377.047 11.4485C376.159 12.0246 375.462 12.8046 374.958 13.7887C374.454 14.7727 374.202 15.8888 374.202 17.1368C374.202 18.3849 374.454 19.501 374.958 20.485C375.462 21.4691 376.159 22.2491 377.047 22.8252C377.935 23.4012 378.967 23.6892 380.143 23.6892C381.319 23.6892 382.351 23.4132 383.239 22.8612C384.127 22.2851 384.823 21.5051 385.327 20.521C385.831 19.513 386.083 18.3849 386.083 17.1368C386.083 15.8888 385.831 14.7727 385.327 13.7887C384.823 12.7806 384.127 12.0006 383.239 11.4485C382.351 10.8725 381.319 10.5845 380.143 10.5845ZM402.618 27.0014C400.626 27.0014 398.898 26.5934 397.434 25.7773C395.97 24.9373 394.83 23.7972 394.014 22.3571C393.222 20.893 392.826 19.225 392.826 17.3529C392.826 15.2407 393.246 13.4406 394.086 11.9526C394.95 10.4405 396.066 9.2884 397.434 8.49636C398.802 7.68032 400.254 7.27229 401.79 7.27229C402.966 7.27229 404.082 7.51231 405.138 7.99233C406.194 8.44836 407.13 9.09639 407.946 9.93644C408.786 10.7525 409.446 11.7245 409.927 12.8526C410.407 13.9567 410.659 15.1687 410.683 16.4888C410.659 16.9688 410.467 17.3649 410.107 17.6769C409.746 17.9889 409.326 18.1449 408.846 18.1449H394.842L393.978 15.0847H407.514L406.83 15.7328V14.8327C406.782 13.9927 406.506 13.2606 406.002 12.6366C405.498 11.9886 404.874 11.4965 404.13 11.1605C403.386 10.8005 402.606 10.6205 401.79 10.6205C401.07 10.6205 400.374 10.7405 399.702 10.9805C399.054 11.1965 398.466 11.5565 397.938 12.0606C397.434 12.5646 397.026 13.2366 396.714 14.0767C396.426 14.8927 396.282 15.9128 396.282 17.1368C396.282 18.4569 396.558 19.609 397.11 20.593C397.662 21.5771 398.406 22.3451 399.342 22.8972C400.278 23.4252 401.31 23.6892 402.438 23.6892C403.326 23.6892 404.058 23.6052 404.634 23.4372C405.21 23.2452 405.69 23.0172 406.074 22.7531C406.458 22.4891 406.794 22.2371 407.082 21.9971C407.442 21.7811 407.802 21.6731 408.162 21.6731C408.594 21.6731 408.954 21.8291 409.242 22.1411C409.53 22.4291 409.674 22.7772 409.674 23.1852C409.674 23.7132 409.41 24.1932 408.882 24.6253C408.234 25.2493 407.334 25.8013 406.182 26.2813C405.054 26.7614 403.866 27.0014 402.618 27.0014ZM416.552 26.6414C416.024 26.6414 415.592 26.4734 415.256 26.1373C414.92 25.7773 414.752 25.3333 414.752 24.8053V9.54042C414.752 9.01239 414.92 8.58037 415.256 8.24435C415.592 7.88433 416.024 7.70432 416.552 7.70432C417.056 7.70432 417.476 7.88433 417.812 8.24435C418.172 8.58037 418.352 9.01239 418.352 9.54042V13.5726L417.992 12.0246C418.184 11.3525 418.472 10.7285 418.856 10.1525C419.264 9.57642 419.744 9.07239 420.296 8.64037C420.848 8.20835 421.46 7.87233 422.132 7.63231C422.828 7.3923 423.548 7.27229 424.292 7.27229C424.916 7.27229 425.456 7.4403 425.913 7.77632C426.369 8.11234 426.597 8.53236 426.597 9.03639C426.597 9.68443 426.429 10.1645 426.093 10.4765C425.757 10.7645 425.384 10.9085 424.976 10.9085C424.616 10.9085 424.268 10.8365 423.932 10.6925C423.596 10.5245 423.2 10.4405 422.744 10.4405C422.24 10.4405 421.724 10.5725 421.196 10.8365C420.668 11.1005 420.188 11.4965 419.756 12.0246C419.324 12.5286 418.976 13.1286 418.712 13.8247C418.472 14.5207 418.352 15.3007 418.352 16.1648V24.8053C418.352 25.3333 418.172 25.7773 417.812 26.1373C417.476 26.4734 417.056 26.6414 416.552 26.6414ZM443.876 7.56031C444.404 7.56031 444.836 7.74032 445.172 8.10034C445.508 8.43636 445.676 8.86838 445.676 9.39641V24.8773C445.676 26.9894 445.268 28.7055 444.452 30.0256C443.66 31.3456 442.58 32.3057 441.212 32.9057C439.868 33.5297 438.344 33.8418 436.64 33.8418C435.776 33.8418 434.912 33.7578 434.048 33.5897C433.184 33.4457 432.476 33.2297 431.924 32.9417C431.348 32.6777 430.94 32.3537 430.7 31.9697C430.46 31.5856 430.424 31.1656 430.592 30.7096C430.76 30.1336 431.048 29.7375 431.456 29.5215C431.864 29.3295 432.284 29.3175 432.716 29.4855C433.124 29.6535 433.664 29.8695 434.336 30.1336C435.008 30.3976 435.776 30.5296 436.64 30.5296C437.816 30.5296 438.812 30.3376 439.628 29.9535C440.444 29.5695 441.056 28.9695 441.464 28.1534C441.896 27.3374 442.112 26.2813 442.112 24.9853V22.5011L442.688 23.3652C442.304 24.1572 441.8 24.8173 441.176 25.3453C440.552 25.8733 439.808 26.2813 438.944 26.5694C438.104 26.8574 437.168 27.0014 436.136 27.0014C434.816 27.0014 433.676 26.7134 432.716 26.1373C431.78 25.5373 431.06 24.7213 430.556 23.6892C430.052 22.6331 429.8 21.4331 429.8 20.089V9.39641C429.8 8.86838 429.968 8.43636 430.304 8.10034C430.64 7.74032 431.072 7.56031 431.6 7.56031C432.104 7.56031 432.524 7.74032 432.86 8.10034C433.22 8.43636 433.4 8.86838 433.4 9.39641V19.1169C433.4 20.701 433.748 21.8651 434.444 22.6091C435.14 23.3292 436.172 23.6892 437.54 23.6892C438.452 23.6892 439.244 23.4972 439.916 23.1132C440.588 22.7291 441.116 22.2011 441.5 21.5291C441.884 20.833 442.076 20.029 442.076 19.1169V9.39641C442.076 8.86838 442.244 8.43636 442.58 8.10034C442.94 7.74032 443.372 7.56031 443.876 7.56031ZM476.256 7.4163C476.784 7.4163 477.216 7.59631 477.552 7.95633C477.888 8.29235 478.056 8.72437 478.056 9.2524V24.8053C478.056 25.3333 477.888 25.7773 477.552 26.1373C477.216 26.4734 476.784 26.6414 476.256 26.6414C475.752 26.6414 475.32 26.4734 474.96 26.1373C474.624 25.7773 474.456 25.3333 474.456 24.8053V22.2131L475.212 22.3211C475.212 22.7531 475.032 23.2332 474.672 23.7612C474.336 24.2892 473.868 24.8053 473.268 25.3093C472.667 25.7893 471.959 26.1973 471.143 26.5334C470.327 26.8454 469.451 27.0014 468.515 27.0014C466.859 27.0014 465.371 26.5814 464.051 25.7413C462.731 24.8773 461.687 23.7012 460.919 22.2131C460.151 20.725 459.767 19.0329 459.767 17.1368C459.767 15.1927 460.151 13.4886 460.919 12.0246C461.687 10.5365 462.719 9.37241 464.015 8.53236C465.335 7.69232 466.799 7.27229 468.407 7.27229C469.439 7.27229 470.387 7.4403 471.251 7.77632C472.139 8.11234 472.907 8.54436 473.556 9.07239C474.204 9.60042 474.696 10.1645 475.032 10.7645C475.392 11.3405 475.572 11.8925 475.572 12.4206L474.456 12.5286V9.2524C474.456 8.74838 474.624 8.31635 474.96 7.95633C475.32 7.59631 475.752 7.4163 476.256 7.4163ZM468.911 23.6892C470.039 23.6892 471.035 23.4012 471.899 22.8252C472.763 22.2491 473.436 21.4691 473.916 20.485C474.396 19.477 474.636 18.3609 474.636 17.1368C474.636 15.8888 474.396 14.7727 473.916 13.7887C473.436 12.8046 472.763 12.0246 471.899 11.4485C471.035 10.8725 470.039 10.5845 468.911 10.5845C467.807 10.5845 466.823 10.8725 465.959 11.4485C465.119 12.0246 464.447 12.8046 463.943 13.7887C463.463 14.7727 463.223 15.8888 463.223 17.1368C463.223 18.3609 463.463 19.477 463.943 20.485C464.447 21.4691 465.119 22.2491 465.959 22.8252C466.823 23.4012 467.807 23.6892 468.911 23.6892ZM482.847 7.92033H491.308C491.788 7.92033 492.184 8.08834 492.496 8.42436C492.832 8.73637 493 9.1324 493 9.61242C493 10.0684 492.832 10.4525 492.496 10.7645C492.184 11.0765 491.788 11.2325 491.308 11.2325H482.847C482.367 11.2325 481.959 11.0765 481.623 10.7645C481.311 10.4285 481.155 10.0324 481.155 9.57642C481.155 9.09639 481.311 8.70037 481.623 8.38835C481.959 8.07634 482.367 7.92033 482.847 7.92033ZM486.628 3.24007C487.156 3.24007 487.588 3.42008 487.924 3.7801C488.26 4.11612 488.428 4.54814 488.428 5.07617V21.7811C488.428 22.2131 488.5 22.5611 488.644 22.8252C488.788 23.0892 488.98 23.2692 489.22 23.3652C489.484 23.4612 489.748 23.5092 490.012 23.5092C490.276 23.5092 490.504 23.4612 490.696 23.3652C490.912 23.2692 491.164 23.2212 491.452 23.2212C491.74 23.2212 492.004 23.3532 492.244 23.6172C492.484 23.8812 492.604 24.2412 492.604 24.6973C492.604 25.2733 492.292 25.7413 491.668 26.1013C491.044 26.4614 490.372 26.6414 489.652 26.6414C489.244 26.6414 488.764 26.6054 488.212 26.5334C487.66 26.4614 487.12 26.2813 486.592 25.9933C486.088 25.7053 485.668 25.2493 485.332 24.6253C484.996 23.9772 484.828 23.0772 484.828 21.9251V5.07617C484.828 4.54814 484.996 4.11612 485.332 3.7801C485.692 3.42008 486.124 3.24007 486.628 3.24007ZM3.78021 70.8078C3.75621 71.3358 3.5522 71.7799 3.16818 72.1399C2.80816 72.4759 2.37613 72.6439 1.8721 72.6439C1.32007 72.6439 0.864048 72.4759 0.504028 72.1399C0.168009 71.7799 -3.57648e-07 71.3358 -3.57648e-07 70.8078V49.2786C-3.57648e-07 48.7506 0.18001 48.3186 0.540029 47.9825C0.90005 47.6225 1.36808 47.4425 1.94411 47.4425C2.42413 47.4425 2.84416 47.6225 3.20418 47.9825C3.5882 48.3186 3.78021 48.7506 3.78021 49.2786V70.8078ZM18.9587 53.2748C20.6628 53.2748 21.9829 53.6349 22.9189 54.3549C23.855 55.0509 24.503 55.999 24.863 57.1991C25.2471 58.3751 25.4391 59.6952 25.4391 61.1593V70.8078C25.4391 71.3358 25.2591 71.7799 24.899 72.1399C24.563 72.4759 24.143 72.6439 23.639 72.6439C23.1109 72.6439 22.6789 72.4759 22.3429 72.1399C22.0069 71.7799 21.8389 71.3358 21.8389 70.8078V61.1953C21.8389 60.3312 21.7189 59.5632 21.4788 58.8911C21.2388 58.1951 20.8188 57.6431 20.2188 57.2351C19.6427 56.803 18.8267 56.587 17.7706 56.587C16.7866 56.587 15.9225 56.803 15.1785 57.2351C14.4345 57.6431 13.8464 58.1951 13.4144 58.8911C13.0064 59.5632 12.8024 60.3312 12.8024 61.1953V70.8078C12.8024 71.3358 12.6224 71.7799 12.2623 72.1399C11.9263 72.4759 11.5063 72.6439 11.0023 72.6439C10.4742 72.6439 10.0422 72.4759 9.70619 72.1399C9.37017 71.7799 9.20216 71.3358 9.20216 70.8078V55.543C9.20216 55.0149 9.37017 54.5829 9.70619 54.2469C10.0422 53.8869 10.4742 53.7069 11.0023 53.7069C11.5063 53.7069 11.9263 53.8869 12.2623 54.2469C12.6224 54.5829 12.8024 55.0149 12.8024 55.543V57.5591L12.1543 57.9191C12.3223 57.3911 12.6104 56.863 13.0184 56.335C13.4504 55.783 13.9664 55.2789 14.5665 54.8229C15.1665 54.3429 15.8385 53.9709 16.5826 53.7069C17.3266 53.4188 18.1187 53.2748 18.9587 53.2748ZM39.9782 53.3828C41.6343 53.3828 42.9184 53.7429 43.8305 54.4629C44.7425 55.1589 45.3785 56.107 45.7386 57.3071C46.1226 58.5071 46.3146 59.8272 46.3146 61.2673V70.8078C46.3146 71.3358 46.1346 71.7799 45.7746 72.1399C45.4385 72.4759 45.0185 72.6439 44.5145 72.6439C43.9865 72.6439 43.5544 72.4759 43.2184 72.1399C42.8824 71.7799 42.7144 71.3358 42.7144 70.8078V61.2673C42.7144 60.4272 42.5944 59.6592 42.3544 58.9631C42.1384 58.2671 41.7423 57.7151 41.1663 57.3071C40.6143 56.899 39.8342 56.695 38.8262 56.695C37.8901 56.695 37.0501 56.899 36.306 57.3071C35.586 57.7151 35.022 58.2671 34.6139 58.9631C34.2299 59.6592 34.0379 60.4272 34.0379 61.2673V70.8078C34.0379 71.3358 33.8579 71.7799 33.4979 72.1399C33.1619 72.4759 32.7418 72.6439 32.2378 72.6439C31.7098 72.6439 31.2778 72.4759 30.9417 72.1399C30.6057 71.7799 30.4377 71.3358 30.4377 70.8078V47.8385C30.4377 47.3105 30.6057 46.8785 30.9417 46.5425C31.2778 46.1824 31.7098 46.0024 32.2378 46.0024C32.7418 46.0024 33.1619 46.1824 33.4979 46.5425C33.8579 46.8785 34.0379 47.3105 34.0379 47.8385V57.6671L33.3899 58.0271C33.5579 57.4991 33.8339 56.959 34.2179 56.407C34.6259 55.855 35.118 55.3509 35.694 54.8949C36.294 54.4389 36.9541 54.0789 37.6741 53.8149C38.3942 53.5268 39.1622 53.3828 39.9782 53.3828ZM65.4345 53.7069C65.9385 53.7069 66.3585 53.8869 66.6945 54.2469C67.0545 54.5829 67.2346 55.0149 67.2346 55.543V65.0115C67.2346 67.5076 66.5385 69.4637 65.1464 70.8798C63.7544 72.2719 61.7863 72.9679 59.2421 72.9679C56.722 72.9679 54.7659 72.2719 53.3738 70.8798C52.0057 69.4637 51.3217 67.5076 51.3217 65.0115V55.543C51.3217 55.0149 51.4897 54.5829 51.8257 54.2469C52.1617 53.8869 52.5937 53.7069 53.1218 53.7069C53.6258 53.7069 54.0458 53.8869 54.3818 54.2469C54.7419 54.5829 54.9219 55.0149 54.9219 55.543V65.0115C54.9219 66.5716 55.2819 67.7356 56.0019 68.5037C56.746 69.2717 57.826 69.6557 59.2421 69.6557C60.6822 69.6557 61.7743 69.2717 62.5183 68.5037C63.2623 67.7356 63.6344 66.5716 63.6344 65.0115V55.543C63.6344 55.0149 63.8024 54.5829 64.1384 54.2469C64.4744 53.8869 64.9064 53.7069 65.4345 53.7069ZM81.7453 53.3828C83.5214 53.3828 84.8895 53.8269 85.8496 54.7149C86.8096 55.579 87.4456 56.755 87.7577 58.2431L87.1816 58.0631L87.4336 57.4871C87.7457 56.863 88.2137 56.239 88.8377 55.615C89.4858 54.9669 90.2538 54.4389 91.1418 54.0309C92.0299 53.5989 92.9779 53.3828 93.986 53.3828C95.6421 53.3828 96.9262 53.7429 97.8382 54.4629C98.7503 55.1589 99.3863 56.107 99.7463 57.3071C100.106 58.4831 100.286 59.8032 100.286 61.2673V70.8078C100.286 71.3358 100.118 71.7799 99.7823 72.1399C99.4463 72.4759 99.0143 72.6439 98.4863 72.6439C97.9822 72.6439 97.5502 72.4759 97.1902 72.1399C96.8542 71.7799 96.6862 71.3358 96.6862 70.8078V61.3033C96.6862 60.4632 96.5661 59.6952 96.3261 58.9992C96.1101 58.3031 95.7141 57.7511 95.1381 57.3431C94.586 56.911 93.818 56.695 92.8339 56.695C91.8979 56.695 91.0578 56.911 90.3138 57.3431C89.5938 57.7511 89.0297 58.3031 88.6217 58.9992C88.2137 59.6952 88.0097 60.4632 88.0097 61.3033V70.8078C88.0097 71.3358 87.8417 71.7799 87.5056 72.1399C87.1696 72.4759 86.7376 72.6439 86.2096 72.6439C85.6815 72.6439 85.2495 72.4759 84.9135 72.1399C84.5775 71.7799 84.4095 71.3358 84.4095 70.8078V61.2673C84.4095 60.4272 84.2895 59.6592 84.0495 58.9631C83.8334 58.2671 83.4494 57.7151 82.8974 57.3071C82.3454 56.899 81.5773 56.695 80.5933 56.695C79.6572 56.695 78.8292 56.899 78.1091 57.3071C77.3891 57.7151 76.8251 58.2671 76.417 58.9631C76.033 59.6592 75.841 60.4272 75.841 61.2673V70.8078C75.841 71.3358 75.661 71.7799 75.301 72.1399C74.965 72.4759 74.5449 72.6439 74.0409 72.6439C73.5129 72.6439 73.0808 72.4759 72.7448 72.1399C72.4088 71.7799 72.2408 71.3358 72.2408 70.8078V55.543C72.2408 55.0149 72.4088 54.5829 72.7448 54.2469C73.0808 53.8869 73.5129 53.7069 74.0409 53.7069C74.5449 53.7069 74.965 53.8869 75.301 54.2469C75.661 54.5829 75.841 55.0149 75.841 55.543V57.6671L75.157 58.0631C75.325 57.5351 75.601 56.995 75.985 56.443C76.369 55.891 76.8491 55.387 77.4251 54.9309C78.0251 54.4749 78.6852 54.1029 79.4052 53.8149C80.1252 53.5268 80.9053 53.3828 81.7453 53.3828ZM120.842 53.4188C121.37 53.4188 121.802 53.5989 122.138 53.9589C122.474 54.2949 122.642 54.7269 122.642 55.2549V70.8078C122.642 71.3358 122.474 71.7799 122.138 72.1399C121.802 72.4759 121.37 72.6439 120.842 72.6439C120.337 72.6439 119.905 72.4759 119.545 72.1399C119.209 71.7799 119.041 71.3358 119.041 70.8078V68.2157L119.797 68.3237C119.797 68.7557 119.617 69.2357 119.257 69.7637C118.921 70.2918 118.453 70.8078 117.853 71.3118C117.253 71.7919 116.545 72.1999 115.729 72.5359C114.913 72.8479 114.037 73.0039 113.101 73.0039C111.445 73.0039 109.957 72.5839 108.637 71.7439C107.317 70.8798 106.273 69.7037 105.505 68.2157C104.737 66.7276 104.353 65.0355 104.353 63.1394C104.353 61.1953 104.737 59.4912 105.505 58.0271C106.273 56.539 107.305 55.3749 108.601 54.5349C109.921 53.6949 111.385 53.2748 112.993 53.2748C114.025 53.2748 114.973 53.4428 115.837 53.7789C116.725 54.1149 117.493 54.5469 118.141 55.0749C118.789 55.603 119.281 56.167 119.617 56.767C119.977 57.3431 120.157 57.8951 120.157 58.4231L119.041 58.5311V55.2549C119.041 54.7509 119.209 54.3189 119.545 53.9589C119.905 53.5989 120.337 53.4188 120.842 53.4188ZM113.497 69.6917C114.625 69.6917 115.621 69.4037 116.485 68.8277C117.349 68.2517 118.021 67.4716 118.501 66.4876C118.981 65.4795 119.221 64.3634 119.221 63.1394C119.221 61.8913 118.981 60.7752 118.501 59.7912C118.021 58.8071 117.349 58.0271 116.485 57.4511C115.621 56.875 114.625 56.587 113.497 56.587C112.393 56.587 111.409 56.875 110.545 57.4511C109.705 58.0271 109.033 58.8071 108.529 59.7912C108.049 60.7752 107.809 61.8913 107.809 63.1394C107.809 64.3634 108.049 65.4795 108.529 66.4876C109.033 67.4716 109.705 68.2517 110.545 68.8277C111.409 69.4037 112.393 69.6917 113.497 69.6917ZM137.442 53.2748C139.146 53.2748 140.466 53.6349 141.402 54.3549C142.338 55.0509 142.986 55.999 143.346 57.1991C143.73 58.3751 143.922 59.6952 143.922 61.1593V70.8078C143.922 71.3358 143.742 71.7799 143.382 72.1399C143.046 72.4759 142.626 72.6439 142.122 72.6439C141.594 72.6439 141.162 72.4759 140.826 72.1399C140.49 71.7799 140.322 71.3358 140.322 70.8078V61.1953C140.322 60.3312 140.202 59.5632 139.962 58.8911C139.722 58.1951 139.302 57.6431 138.702 57.2351C138.126 56.803 137.31 56.587 136.254 56.587C135.27 56.587 134.406 56.803 133.662 57.2351C132.918 57.6431 132.33 58.1951 131.898 58.8911C131.489 59.5632 131.285 60.3312 131.285 61.1953V70.8078C131.285 71.3358 131.105 71.7799 130.745 72.1399C130.409 72.4759 129.989 72.6439 129.485 72.6439C128.957 72.6439 128.525 72.4759 128.189 72.1399C127.853 71.7799 127.685 71.3358 127.685 70.8078V55.543C127.685 55.0149 127.853 54.5829 128.189 54.2469C128.525 53.8869 128.957 53.7069 129.485 53.7069C129.989 53.7069 130.409 53.8869 130.745 54.2469C131.105 54.5829 131.285 55.0149 131.285 55.543V57.5591L130.637 57.9191C130.805 57.3911 131.093 56.863 131.501 56.335C131.934 55.783 132.45 55.2789 133.05 54.8229C133.65 54.3429 134.322 53.9709 135.066 53.7069C135.81 53.4188 136.602 53.2748 137.442 53.2748ZM167.077 73.0039C165.349 73.0039 163.813 72.7639 162.469 72.2839C161.125 71.8039 159.841 71.0118 158.617 69.9078C158.353 69.7157 158.149 69.4877 158.005 69.2237C157.885 68.9357 157.825 68.6477 157.825 68.3597C157.825 67.9036 157.993 67.4956 158.329 67.1356C158.665 66.7756 159.085 66.5956 159.589 66.5956C159.973 66.5956 160.333 66.7276 160.669 66.9916C161.581 67.8316 162.529 68.4677 163.513 68.8997C164.521 69.3317 165.697 69.5477 167.041 69.5477C168.001 69.5477 168.877 69.3917 169.669 69.0797C170.486 68.7677 171.134 68.3477 171.614 67.8196C172.094 67.2916 172.334 66.6796 172.334 65.9835C172.334 65.1195 172.082 64.4114 171.578 63.8594C171.098 63.2834 170.39 62.8154 169.453 62.4553C168.541 62.0713 167.437 61.7473 166.141 61.4833C164.941 61.2673 163.861 60.9673 162.901 60.5832C161.965 60.1992 161.161 59.7192 160.489 59.1432C159.817 58.5431 159.301 57.8351 158.941 57.019C158.581 56.203 158.401 55.2549 158.401 54.1749C158.401 52.7108 158.785 51.4507 159.553 50.3947C160.321 49.3386 161.365 48.5226 162.685 47.9465C164.005 47.3705 165.493 47.0825 167.149 47.0825C168.661 47.0825 170.078 47.3225 171.398 47.8025C172.718 48.2586 173.786 48.8826 174.602 49.6746C175.178 50.1787 175.466 50.7187 175.466 51.2947C175.466 51.7267 175.286 52.1348 174.926 52.5188C174.59 52.8788 174.194 53.0588 173.738 53.0588C173.402 53.0588 173.114 52.9628 172.874 52.7708C172.49 52.3628 171.974 52.0028 171.326 51.6907C170.678 51.3547 169.982 51.0787 169.237 50.8627C168.517 50.6467 167.821 50.5387 167.149 50.5387C166.069 50.5387 165.145 50.6947 164.377 51.0067C163.609 51.2947 163.021 51.7027 162.613 52.2308C162.205 52.7348 162.001 53.3348 162.001 54.0309C162.001 54.8469 162.229 55.519 162.685 56.047C163.165 56.575 163.825 57.007 164.665 57.3431C165.505 57.6551 166.465 57.9431 167.545 58.2071C168.865 58.4951 170.042 58.8191 171.074 59.1792C172.13 59.5392 173.018 60.0072 173.738 60.5832C174.458 61.1353 175.01 61.8313 175.394 62.6714C175.778 63.5114 175.97 64.5555 175.97 65.8035C175.97 67.2436 175.562 68.5037 174.746 69.5837C173.93 70.6638 172.85 71.5038 171.506 72.1039C170.186 72.7039 168.709 73.0039 167.077 73.0039ZM189.541 53.3828C191.221 53.3828 192.709 53.8029 194.005 54.6429C195.326 55.483 196.37 56.635 197.138 58.0991C197.906 59.5392 198.29 61.2193 198.29 63.1394C198.29 65.0595 197.906 66.7636 197.138 68.2517C196.37 69.7157 195.338 70.8678 194.041 71.7079C192.745 72.5479 191.281 72.9679 189.649 72.9679C188.737 72.9679 187.873 72.8239 187.057 72.5359C186.241 72.2479 185.521 71.8759 184.897 71.4198C184.273 70.9398 183.757 70.4358 183.349 69.9078C182.965 69.3797 182.725 68.8877 182.629 68.4317L183.601 67.9636V78.0082C183.601 78.5362 183.421 78.9683 183.061 79.3043C182.725 79.6643 182.305 79.8443 181.801 79.8443C181.273 79.8443 180.841 79.6643 180.505 79.3043C180.169 78.9683 180.001 78.5362 180.001 78.0082V55.471C180.001 54.9669 180.169 54.5349 180.505 54.1749C180.841 53.8149 181.273 53.6349 181.801 53.6349C182.305 53.6349 182.725 53.8149 183.061 54.1749C183.421 54.5349 183.601 54.9669 183.601 55.471V57.9551L183.025 57.6311C183.097 57.175 183.325 56.707 183.709 56.227C184.093 55.723 184.573 55.2549 185.149 54.8229C185.749 54.3909 186.421 54.0429 187.165 53.7789C187.933 53.5148 188.725 53.3828 189.541 53.3828ZM189.145 56.695C187.993 56.695 186.985 56.983 186.121 57.5591C185.281 58.1111 184.621 58.8671 184.141 59.8272C183.661 60.7872 183.421 61.8913 183.421 63.1394C183.421 64.3634 183.661 65.4795 184.141 66.4876C184.621 67.4716 185.281 68.2517 186.121 68.8277C186.985 69.3797 187.993 69.6557 189.145 69.6557C190.273 69.6557 191.257 69.3797 192.097 68.8277C192.937 68.2517 193.597 67.4716 194.077 66.4876C194.581 65.4795 194.833 64.3634 194.833 63.1394C194.833 61.9153 194.581 60.8233 194.077 59.8632C193.597 58.8791 192.937 58.1111 192.097 57.5591C191.257 56.983 190.273 56.695 189.145 56.695ZM211.182 73.0039C209.19 73.0039 207.462 72.5959 205.997 71.7799C204.533 70.9398 203.393 69.7997 202.577 68.3597C201.785 66.8956 201.389 65.2275 201.389 63.3554C201.389 61.2433 201.809 59.4432 202.649 57.9551C203.513 56.443 204.629 55.2909 205.997 54.4989C207.366 53.6829 208.818 53.2748 210.354 53.2748C211.53 53.2748 212.646 53.5148 213.702 53.9949C214.758 54.4509 215.694 55.0989 216.51 55.939C217.35 56.755 218.01 57.7271 218.49 58.8551C218.97 59.9592 219.222 61.1713 219.246 62.4913C219.222 62.9714 219.03 63.3674 218.67 63.6794C218.31 63.9914 217.89 64.1474 217.41 64.1474H203.405L202.541 61.0873H216.078L215.394 61.7353V60.8353C215.346 59.9952 215.07 59.2632 214.566 58.6391C214.062 57.9911 213.438 57.4991 212.694 57.163C211.95 56.803 211.17 56.623 210.354 56.623C209.634 56.623 208.938 56.743 208.266 56.983C207.618 57.199 207.03 57.5591 206.501 58.0631C205.997 58.5671 205.589 59.2392 205.277 60.0792C204.989 60.8953 204.845 61.9153 204.845 63.1394C204.845 64.4595 205.121 65.6115 205.673 66.5956C206.225 67.5796 206.97 68.3477 207.906 68.8997C208.842 69.4277 209.874 69.6917 211.002 69.6917C211.89 69.6917 212.622 69.6077 213.198 69.4397C213.774 69.2477 214.254 69.0197 214.638 68.7557C215.022 68.4917 215.358 68.2397 215.646 67.9996C216.006 67.7836 216.366 67.6756 216.726 67.6756C217.158 67.6756 217.518 67.8316 217.806 68.1437C218.094 68.4317 218.238 68.7797 218.238 69.1877C218.238 69.7157 217.974 70.1958 217.446 70.6278C216.798 71.2518 215.898 71.8039 214.746 72.2839C213.618 72.7639 212.43 73.0039 211.182 73.0039ZM232.136 73.0039C230.144 73.0039 228.416 72.5959 226.952 71.7799C225.488 70.9398 224.348 69.7997 223.532 68.3597C222.74 66.8956 222.343 65.2275 222.343 63.3554C222.343 61.2433 222.764 59.4432 223.604 57.9551C224.468 56.443 225.584 55.2909 226.952 54.4989C228.32 53.6829 229.772 53.2748 231.308 53.2748C232.484 53.2748 233.6 53.5148 234.656 53.9949C235.712 54.4509 236.648 55.0989 237.464 55.939C238.304 56.755 238.964 57.7271 239.444 58.8551C239.924 59.9592 240.176 61.1713 240.2 62.4913C240.176 62.9714 239.984 63.3674 239.624 63.6794C239.264 63.9914 238.844 64.1474 238.364 64.1474H224.36L223.496 61.0873H237.032L236.348 61.7353V60.8353C236.3 59.9952 236.024 59.2632 235.52 58.6391C235.016 57.9911 234.392 57.4991 233.648 57.163C232.904 56.803 232.124 56.623 231.308 56.623C230.588 56.623 229.892 56.743 229.22 56.983C228.572 57.199 227.984 57.5591 227.456 58.0631C226.952 58.5671 226.544 59.2392 226.232 60.0792C225.944 60.8953 225.8 61.9153 225.8 63.1394C225.8 64.4595 226.076 65.6115 226.628 66.5956C227.18 67.5796 227.924 68.3477 228.86 68.8997C229.796 69.4277 230.828 69.6917 231.956 69.6917C232.844 69.6917 233.576 69.6077 234.152 69.4397C234.728 69.2477 235.208 69.0197 235.592 68.7557C235.976 68.4917 236.312 68.2397 236.6 67.9996C236.96 67.7836 237.32 67.6756 237.68 67.6756C238.112 67.6756 238.472 67.8316 238.76 68.1437C239.048 68.4317 239.192 68.7797 239.192 69.1877C239.192 69.7157 238.928 70.1958 238.4 70.6278C237.752 71.2518 236.852 71.8039 235.7 72.2839C234.572 72.7639 233.384 73.0039 232.136 73.0039ZM259.787 46.0024C260.315 46.0024 260.747 46.1704 261.083 46.5065C261.419 46.8425 261.587 47.2865 261.587 47.8385V70.8078C261.587 71.3358 261.419 71.7799 261.083 72.1399C260.747 72.4759 260.315 72.6439 259.787 72.6439C259.283 72.6439 258.851 72.4759 258.491 72.1399C258.155 71.7799 257.987 71.3358 257.987 70.8078V68.2157L258.743 68.2517C258.743 68.6837 258.563 69.1757 258.203 69.7277C257.867 70.2558 257.399 70.7718 256.799 71.2758C256.198 71.7799 255.49 72.1999 254.674 72.5359C253.858 72.8479 252.982 73.0039 252.046 73.0039C250.39 73.0039 248.902 72.5839 247.582 71.7439C246.262 70.8798 245.218 69.7157 244.45 68.2517C243.682 66.7636 243.298 65.0595 243.298 63.1394C243.298 61.2193 243.682 59.5272 244.45 58.0631C245.218 56.575 246.25 55.411 247.546 54.5709C248.866 53.7069 250.33 53.2748 251.938 53.2748C252.946 53.2748 253.882 53.4428 254.746 53.7789C255.634 54.1149 256.403 54.5469 257.051 55.0749C257.699 55.603 258.203 56.167 258.563 56.767C258.923 57.3431 259.103 57.8951 259.103 58.4231L257.987 58.5311V47.8385C257.987 47.3105 258.155 46.8785 258.491 46.5425C258.851 46.1824 259.283 46.0024 259.787 46.0024ZM252.442 69.6917C253.594 69.6917 254.59 69.4037 255.43 68.8277C256.294 68.2517 256.967 67.4716 257.447 66.4876C257.927 65.5035 258.167 64.3874 258.167 63.1394C258.167 61.8913 257.927 60.7752 257.447 59.7912C256.967 58.8071 256.294 58.0271 255.43 57.4511C254.566 56.875 253.57 56.587 252.442 56.587C251.338 56.587 250.354 56.875 249.49 57.4511C248.65 58.0271 247.978 58.8071 247.474 59.7912C246.994 60.7752 246.754 61.8913 246.754 63.1394C246.754 64.3874 246.994 65.5035 247.474 66.4876C247.978 67.4716 248.65 68.2517 249.49 68.8277C250.354 69.4037 251.338 69.6917 252.442 69.6917Z" fill="black"/>
</svg>
