<svg width="344" height="34" viewBox="0 0 344 34" fill="none" xmlns="http://www.w3.org/2000/svg">
<path d="M9.4105 27.0417C7.55965 27.0417 5.92514 26.6451 4.50695 25.8519C3.08877 25.0587 1.98307 23.953 1.18985 22.5348C0.396633 21.1166 2.30727e-05 19.4581 2.30727e-05 17.5591C2.30727e-05 15.516 0.396633 13.7733 1.18985 12.3311C2.00711 10.8889 3.05272 9.78318 4.32668 9.014C5.62467 8.22078 6.99478 7.82417 8.437 7.82417C9.49463 7.82417 10.5162 8.01647 11.5017 8.40106C12.5113 8.76161 13.4006 9.31446 14.1698 10.0596C14.963 10.7807 15.588 11.6701 16.0447 12.7277C16.5254 13.7853 16.7898 15.0112 16.8379 16.4054C16.8139 16.6938 16.6937 16.9462 16.4774 17.1625C16.261 17.3548 16.0086 17.451 15.7202 17.451H1.26196L0.829299 15.504H15.0351L14.5664 15.9366V15.2155C14.4703 14.0858 14.1097 13.1243 13.4848 12.3311C12.8598 11.5379 12.1026 10.937 11.2133 10.5283C10.3239 10.1197 9.39848 9.91538 8.437 9.91538C7.71589 9.91538 6.97074 10.0596 6.20156 10.3481C5.45642 10.6365 4.77136 11.0932 4.1464 11.7182C3.54548 12.3191 3.05272 13.1003 2.66813 14.0618C2.28354 14.9992 2.09124 16.1169 2.09124 17.4149C2.09124 18.8331 2.37968 20.1191 2.95657 21.2729C3.53346 22.4266 4.36273 23.34 5.4444 24.0131C6.5501 24.6861 7.86011 25.0226 9.37444 25.0226C10.2157 25.0226 10.9729 24.9024 11.6459 24.6621C12.319 24.4217 12.9079 24.1092 13.4127 23.7246C13.9174 23.316 14.3381 22.8953 14.6746 22.4627C14.939 22.2464 15.2034 22.1382 15.4678 22.1382C15.7082 22.1382 15.9125 22.2343 16.0808 22.4266C16.2731 22.6189 16.3692 22.8353 16.3692 23.0756C16.3692 23.3641 16.249 23.6165 16.0086 23.8328C15.2875 24.6981 14.3501 25.4553 13.1963 26.1043C12.0425 26.7292 10.7806 27.0417 9.4105 27.0417ZM20.7173 8.07656C21.0778 8.07656 21.3663 8.2328 21.5826 8.54528L34.3462 25.0587C34.5145 25.251 34.5986 25.4673 34.5986 25.7077C34.5986 25.9961 34.4904 26.2485 34.2741 26.4648C34.0578 26.6812 33.8054 26.7893 33.5169 26.7893C33.1804 26.7893 32.88 26.6331 32.6156 26.3206L19.8159 9.80722C19.6717 9.63896 19.5995 9.42263 19.5995 9.15822C19.5995 8.84574 19.7077 8.59335 19.924 8.40106C20.1644 8.18472 20.4288 8.07656 20.7173 8.07656ZM20.7173 26.7893C20.4769 26.7893 20.2365 26.7052 19.9962 26.5369C19.7798 26.3687 19.6717 26.1283 19.6717 25.8158C19.6717 25.5514 19.7558 25.3231 19.924 25.1308L26.0174 17.3068L27.2072 19.0374L21.5826 26.3567C21.3663 26.6451 21.0778 26.7893 20.7173 26.7893ZM33.5169 8.07656C33.8294 8.07656 34.0698 8.1727 34.2381 8.365C34.4304 8.53326 34.5265 8.74959 34.5265 9.014C34.5265 9.13418 34.5025 9.25437 34.4544 9.37455C34.4304 9.49474 34.3703 9.6029 34.2741 9.69905L28.1807 17.7034L27.063 15.9727L32.6156 8.54528C32.88 8.2328 33.1804 8.07656 33.5169 8.07656ZM53.7936 8.25683C54.1061 8.25683 54.3585 8.365 54.5508 8.58133C54.7671 8.79767 54.8753 9.06207 54.8753 9.37455V25.5995C54.8753 25.888 54.7671 26.1403 54.5508 26.3567C54.3345 26.573 54.0821 26.6812 53.7936 26.6812C53.4811 26.6812 53.2167 26.573 53.0004 26.3567C52.8081 26.1403 52.712 25.888 52.712 25.5995V21.3089L53.3249 21.0205C53.3249 21.6935 53.1326 22.3786 52.748 23.0756C52.3875 23.7727 51.8827 24.4217 51.2337 25.0226C50.5847 25.6235 49.8155 26.1163 48.9261 26.5009C48.0608 26.8614 47.1234 27.0417 46.1138 27.0417C44.4793 27.0417 43.013 26.6211 41.7151 25.7798C40.4411 24.9385 39.4315 23.7847 38.6864 22.3185C37.9653 20.8522 37.6047 19.2057 37.6047 17.3789C37.6047 15.504 37.9773 13.8574 38.7225 12.4393C39.4676 10.997 40.4771 9.86731 41.7511 9.05005C43.0251 8.2328 44.4673 7.82417 46.0778 7.82417C47.1114 7.82417 48.0728 8.00445 48.9622 8.365C49.8756 8.72556 50.6688 9.21831 51.3419 9.84327C52.0149 10.4682 52.5317 11.1893 52.8922 12.0066C53.2768 12.7998 53.4691 13.6291 53.4691 14.4944L52.712 13.9536V9.37455C52.712 9.06207 52.8081 8.79767 53.0004 8.58133C53.2167 8.365 53.4811 8.25683 53.7936 8.25683ZM46.2941 25.0226C47.5681 25.0226 48.6978 24.6981 49.6833 24.0491C50.6688 23.3761 51.438 22.4627 51.9909 21.3089C52.5677 20.1311 52.8562 18.8211 52.8562 17.3789C52.8562 15.9607 52.5677 14.6867 51.9909 13.557C51.438 12.4272 50.6688 11.5259 49.6833 10.8528C48.6978 10.1798 47.5681 9.84327 46.2941 9.84327C45.0442 9.84327 43.9144 10.1678 42.9049 10.8168C41.9194 11.4658 41.1382 12.3551 40.5613 13.4849C40.0084 14.6146 39.732 15.9126 39.732 17.3789C39.732 18.8211 40.0084 20.1311 40.5613 21.3089C41.1382 22.4627 41.9194 23.3761 42.9049 24.0491C43.8904 24.6981 45.0201 25.0226 46.2941 25.0226ZM68.8448 8.11261C70.3351 8.11261 71.6091 8.50922 72.6667 9.30244C73.7243 10.0716 74.4454 11.2254 74.83 12.7638L74.3252 12.908L74.5416 12.259C74.8541 11.5379 75.3708 10.8648 76.092 10.2399C76.8371 9.59089 77.6784 9.07409 78.6158 8.6895C79.5533 8.30491 80.5027 8.11261 81.4642 8.11261C82.9785 8.11261 84.1924 8.43711 85.1058 9.08611C86.0433 9.73511 86.7163 10.6125 87.1249 11.7182C87.5576 12.7998 87.7739 14.0257 87.7739 15.3958V25.5995C87.7739 25.888 87.6658 26.1403 87.4494 26.3567C87.2571 26.573 87.0047 26.6812 86.6923 26.6812C86.3798 26.6812 86.1154 26.573 85.899 26.3567C85.7067 26.1403 85.6106 25.888 85.6106 25.5995V15.504C85.6106 14.5185 85.4544 13.6171 85.1419 12.7998C84.8294 11.9826 84.3366 11.3336 83.6636 10.8528C82.9906 10.3721 82.0892 10.1317 80.9594 10.1317C79.9739 10.1317 79.0245 10.3721 78.1111 10.8528C77.2217 11.3336 76.4886 11.9826 75.9117 12.7998C75.3588 13.6171 75.0824 14.5185 75.0824 15.504V25.5995C75.0824 25.888 74.9742 26.1403 74.7579 26.3567C74.5656 26.573 74.3132 26.6812 74.0007 26.6812C73.6883 26.6812 73.4239 26.573 73.2075 26.3567C73.0152 26.1403 72.9191 25.888 72.9191 25.5995V15.3958C72.9191 14.4103 72.7749 13.5209 72.4864 12.7277C72.198 11.9345 71.7292 11.3095 71.0802 10.8528C70.4312 10.3721 69.5539 10.1317 68.4482 10.1317C67.4627 10.1317 66.5252 10.3721 65.6359 10.8528C64.7705 11.3095 64.0615 11.9345 63.5086 12.7277C62.9798 13.5209 62.7154 14.4103 62.7154 15.3958V25.5995C62.7154 25.888 62.6072 26.1403 62.3909 26.3567C62.1746 26.573 61.9222 26.6812 61.6337 26.6812C61.2972 26.6812 61.0328 26.573 60.8405 26.3567C60.6482 26.1403 60.5521 25.888 60.5521 25.5995V9.44666C60.5521 9.15822 60.6482 8.90583 60.8405 8.6895C61.0568 8.47317 61.3212 8.365 61.6337 8.365C61.9462 8.365 62.1986 8.47317 62.3909 8.6895C62.6072 8.90583 62.7154 9.15822 62.7154 9.44666V12.7998L61.7419 14.1339C61.814 13.4128 62.0423 12.6917 62.4269 11.9705C62.8356 11.2494 63.3644 10.6004 64.0134 10.0236C64.6624 9.44666 65.3955 8.98996 66.2128 8.65345C67.0541 8.29289 67.9314 8.11261 68.8448 8.11261ZM102.2 8.11261C103.835 8.11261 105.277 8.52124 106.527 9.3385C107.801 10.1317 108.81 11.2374 109.555 12.6556C110.301 14.0497 110.673 15.6602 110.673 17.487C110.673 19.3138 110.301 20.9363 109.555 22.3545C108.81 23.7727 107.801 24.8904 106.527 25.7077C105.253 26.5249 103.823 26.9336 102.236 26.9336C101.395 26.9336 100.59 26.8134 99.8204 26.573C99.0752 26.3086 98.3902 25.9601 97.7652 25.5274C97.1403 25.0947 96.5874 24.59 96.1067 24.0131C95.6259 23.4121 95.2413 22.7631 94.9529 22.0661L95.6019 21.5974V32.8106C95.6019 33.099 95.4937 33.3514 95.2774 33.5678C95.0851 33.7841 94.8327 33.8923 94.5202 33.8923C94.2078 33.8923 93.9433 33.7841 93.727 33.5678C93.5347 33.3514 93.4386 33.099 93.4386 32.8106V9.30244C93.4386 8.98996 93.5347 8.72556 93.727 8.50922C93.9193 8.29289 94.1837 8.18472 94.5202 8.18472C94.8327 8.18472 95.0851 8.29289 95.2774 8.50922C95.4937 8.72556 95.6019 8.98996 95.6019 9.30244V13.1964L95.0971 12.908C95.3375 12.1628 95.686 11.5018 96.1427 10.9249C96.6235 10.324 97.1763 9.81924 97.8013 9.41061C98.4262 8.97794 99.1113 8.65344 99.8564 8.43711C100.602 8.22078 101.383 8.11261 102.2 8.11261ZM102.02 10.1317C100.722 10.1317 99.58 10.4562 98.5945 11.1052C97.609 11.7302 96.8278 12.5955 96.2509 13.7012C95.698 14.7829 95.4216 16.0448 95.4216 17.487C95.4216 18.9052 95.698 20.1792 96.2509 21.3089C96.8278 22.4386 97.609 23.328 98.5945 23.977C99.58 24.602 100.722 24.9145 102.02 24.9145C103.294 24.9145 104.411 24.602 105.373 23.977C106.358 23.328 107.14 22.4386 107.717 21.3089C108.293 20.1792 108.582 18.9052 108.582 17.487C108.582 16.0688 108.293 14.8069 107.717 13.7012C107.14 12.5955 106.358 11.7302 105.373 11.1052C104.411 10.4562 103.294 10.1317 102.02 10.1317ZM117.684 25.5995C117.684 25.888 117.576 26.1403 117.359 26.3567C117.143 26.573 116.891 26.6812 116.602 26.6812C116.29 26.6812 116.025 26.573 115.809 26.3567C115.617 26.1403 115.521 25.888 115.521 25.5995V1.0818C115.521 0.793355 115.629 0.540967 115.845 0.324636C116.061 0.108303 116.314 0.000136585 116.602 0.000136585C116.915 0.000136585 117.167 0.108303 117.359 0.324636C117.576 0.540967 117.684 0.793355 117.684 1.0818V25.5995ZM131.591 27.0417C129.74 27.0417 128.105 26.6451 126.687 25.8519C125.269 25.0587 124.163 23.953 123.37 22.5348C122.577 21.1166 122.18 19.4581 122.18 17.5591C122.18 15.516 122.577 13.7733 123.37 12.3311C124.187 10.8889 125.233 9.78318 126.507 9.014C127.805 8.22078 129.175 7.82417 130.617 7.82417C131.675 7.82417 132.696 8.01647 133.682 8.40106C134.691 8.76161 135.581 9.31446 136.35 10.0596C137.143 10.7807 137.768 11.6701 138.225 12.7277C138.706 13.7853 138.97 15.0112 139.018 16.4054C138.994 16.6938 138.874 16.9462 138.657 17.1625C138.441 17.3548 138.189 17.451 137.9 17.451H123.442L123.009 15.504H137.215L136.747 15.9366V15.2155C136.65 14.0858 136.29 13.1243 135.665 12.3311C135.04 11.5379 134.283 10.937 133.393 10.5283C132.504 10.1197 131.579 9.91538 130.617 9.91538C129.896 9.91538 129.151 10.0596 128.382 10.3481C127.637 10.6365 126.951 11.0932 126.326 11.7182C125.726 12.3191 125.233 13.1003 124.848 14.0618C124.464 14.9992 124.271 16.1169 124.271 17.4149C124.271 18.8331 124.56 20.1191 125.137 21.2729C125.714 22.4266 126.543 23.34 127.624 24.0131C128.73 24.6861 130.04 25.0226 131.555 25.0226C132.396 25.0226 133.153 24.9024 133.826 24.6621C134.499 24.4217 135.088 24.1092 135.593 23.7246C136.098 23.316 136.518 22.8953 136.855 22.4627C137.119 22.2464 137.383 22.1382 137.648 22.1382C137.888 22.1382 138.093 22.2343 138.261 22.4266C138.453 22.6189 138.549 22.8353 138.549 23.0756C138.549 23.3641 138.429 23.6165 138.189 23.8328C137.468 24.6981 136.53 25.4553 135.376 26.1043C134.223 26.7292 132.961 27.0417 131.591 27.0417ZM165.642 24.6981C164.921 24.6981 164.284 24.5539 163.731 24.2655C163.179 23.977 162.758 23.5684 162.47 23.0396C162.205 22.4867 162.121 21.8618 162.217 21.1647L162.542 18.6769L163.046 18.749C162.542 20.047 161.881 21.1406 161.063 22.03C160.27 22.9194 159.381 23.5924 158.395 24.0491C157.434 24.4818 156.472 24.6981 155.511 24.6981C154.477 24.6981 153.564 24.4337 152.771 23.9049C151.977 23.3521 151.352 22.6309 150.896 21.7416C150.439 20.8522 150.211 19.8547 150.211 18.749C150.211 17.6192 150.427 16.4534 150.86 15.2516C151.292 14.0257 151.893 12.884 152.662 11.8263C153.456 10.7687 154.381 9.91539 155.439 9.26639C156.496 8.61739 157.65 8.29289 158.9 8.29289C160.342 8.29289 161.496 8.74959 162.361 9.663C163.251 10.5524 163.792 11.646 163.984 12.944L163.299 14.7468L164.092 9.55483C164.14 9.29042 164.248 9.06207 164.417 8.86978C164.585 8.67748 164.849 8.58133 165.21 8.58133C165.618 8.58133 165.895 8.6895 166.039 8.90583C166.183 9.12217 166.219 9.44666 166.147 9.87933L164.453 20.696C164.332 21.5132 164.453 22.1021 164.813 22.4627C165.174 22.8232 165.582 23.0035 166.039 23.0035C166.904 23.0035 167.71 22.7031 168.455 22.1021C169.224 21.4772 169.897 20.6599 170.474 19.6504C171.075 18.6168 171.531 17.475 171.844 16.2251C172.18 14.9511 172.349 13.6772 172.349 12.4032C172.349 10.5043 171.904 8.83372 171.015 7.3915C170.149 5.94929 168.899 4.83157 167.265 4.03835C165.654 3.22109 163.756 2.81246 161.568 2.81246C159.092 2.81246 156.797 3.18503 154.682 3.93018C152.566 4.65129 150.715 5.73295 149.129 7.17517C147.543 8.59335 146.293 10.312 145.379 12.3311C144.49 14.3502 144.045 16.6578 144.045 19.2537C144.045 20.6719 144.262 22.0661 144.694 23.4362C145.151 24.8063 145.836 26.0442 146.749 27.1499C147.687 28.2796 148.901 29.169 150.391 29.818C151.881 30.467 153.66 30.7915 155.727 30.7915C157.049 30.7915 158.167 30.6833 159.08 30.467C160.018 30.2747 160.859 30.0103 161.604 29.6738C162.349 29.3613 163.095 29.0248 163.84 28.6642C164.032 28.5681 164.224 28.532 164.417 28.5561C164.633 28.6041 164.801 28.7724 164.921 29.0608C165.114 29.5416 164.921 29.9262 164.344 30.2146C163.311 30.7194 162.121 31.2242 160.775 31.7289C159.429 32.2577 157.746 32.5222 155.727 32.5222C153.299 32.5222 151.232 32.1376 149.526 31.3684C147.819 30.6232 146.425 29.6137 145.343 28.3397C144.286 27.0658 143.504 25.6476 143 24.0852C142.495 22.4987 142.242 20.8883 142.242 19.2537C142.242 16.4414 142.735 13.9175 143.721 11.6821C144.73 9.44666 146.112 7.53573 147.867 5.94928C149.646 4.36285 151.701 3.161 154.033 2.34374C156.364 1.50245 158.876 1.0818 161.568 1.0818C164.308 1.0818 166.616 1.59859 168.491 2.63218C170.366 3.64174 171.772 5.01184 172.709 6.74251C173.671 8.44913 174.152 10.336 174.152 12.4032C174.152 13.8695 173.935 15.3357 173.503 16.802C173.094 18.2442 172.505 19.5662 171.736 20.7681C170.991 21.9459 170.089 22.8953 169.032 23.6165C167.998 24.3376 166.868 24.6981 165.642 24.6981ZM155.835 22.8593C156.677 22.8593 157.518 22.643 158.359 22.2103C159.201 21.7536 159.97 21.1527 160.667 20.4075C161.364 19.6383 161.929 18.797 162.361 17.8836C162.818 16.9462 163.058 15.9967 163.082 15.0353C163.203 14.0497 163.107 13.1964 162.794 12.4753C162.482 11.7302 161.989 11.1533 161.316 10.7447C160.667 10.336 159.886 10.1317 158.972 10.1317C157.939 10.1317 157.013 10.4081 156.196 10.961C155.379 11.4898 154.682 12.1989 154.105 13.0883C153.528 13.9536 153.095 14.891 152.807 15.9006C152.518 16.8861 152.374 17.8115 152.374 18.6769C152.374 19.9989 152.711 21.0325 153.384 21.7776C154.081 22.4987 154.898 22.8593 155.835 22.8593ZM187.012 27.0417C185.161 27.0417 183.526 26.6451 182.108 25.8519C180.69 25.0587 179.584 23.953 178.791 22.5348C177.998 21.1166 177.601 19.4581 177.601 17.5591C177.601 15.516 177.998 13.7733 178.791 12.3311C179.608 10.8889 180.654 9.78318 181.928 9.014C183.226 8.22078 184.596 7.82417 186.038 7.82417C187.096 7.82417 188.117 8.01647 189.103 8.40106C190.113 8.76161 191.002 9.31446 191.771 10.0596C192.564 10.7807 193.189 11.6701 193.646 12.7277C194.127 13.7853 194.391 15.0112 194.439 16.4054C194.415 16.6938 194.295 16.9462 194.079 17.1625C193.862 17.3548 193.61 17.451 193.321 17.451H178.863L178.431 15.504H192.636L192.168 15.9366V15.2155C192.072 14.0858 191.711 13.1243 191.086 12.3311C190.461 11.5379 189.704 10.937 188.815 10.5283C187.925 10.1197 187 9.91538 186.038 9.91538C185.317 9.91538 184.572 10.0596 183.803 10.3481C183.058 10.6365 182.373 11.0932 181.748 11.7182C181.147 12.3191 180.654 13.1003 180.269 14.0618C179.885 14.9992 179.693 16.1169 179.693 17.4149C179.693 18.8331 179.981 20.1191 180.558 21.2729C181.135 22.4266 181.964 23.34 183.046 24.0131C184.151 24.6861 185.461 25.0226 186.976 25.0226C187.817 25.0226 188.574 24.9024 189.247 24.6621C189.92 24.4217 190.509 24.1092 191.014 23.7246C191.519 23.316 191.939 22.8953 192.276 22.4627C192.54 22.2464 192.805 22.1382 193.069 22.1382C193.309 22.1382 193.514 22.2343 193.682 22.4266C193.874 22.6189 193.97 22.8353 193.97 23.0756C193.97 23.3641 193.85 23.6165 193.61 23.8328C192.889 24.6981 191.951 25.4553 190.798 26.1043C189.644 26.7292 188.382 27.0417 187.012 27.0417ZM207.363 8.11261C208.853 8.11261 210.127 8.50922 211.184 9.30244C212.242 10.0716 212.963 11.2254 213.348 12.7638L212.843 12.908L213.059 12.259C213.372 11.5379 213.889 10.8648 214.61 10.2399C215.355 9.59089 216.196 9.07409 217.134 8.6895C218.071 8.30491 219.02 8.11261 219.982 8.11261C221.496 8.11261 222.71 8.43711 223.624 9.08611C224.561 9.73511 225.234 10.6125 225.643 11.7182C226.075 12.7998 226.292 14.0257 226.292 15.3958V25.5995C226.292 25.888 226.183 26.1403 225.967 26.3567C225.775 26.573 225.522 26.6812 225.21 26.6812C224.897 26.6812 224.633 26.573 224.417 26.3567C224.224 26.1403 224.128 25.888 224.128 25.5995V15.504C224.128 14.5185 223.972 13.6171 223.66 12.7998C223.347 11.9826 222.854 11.3336 222.181 10.8528C221.508 10.3721 220.607 10.1317 219.477 10.1317C218.492 10.1317 217.542 10.3721 216.629 10.8528C215.739 11.3336 215.006 11.9826 214.429 12.7998C213.877 13.6171 213.6 14.5185 213.6 15.504V25.5995C213.6 25.888 213.492 26.1403 213.276 26.3567C213.083 26.573 212.831 26.6812 212.518 26.6812C212.206 26.6812 211.942 26.573 211.725 26.3567C211.533 26.1403 211.437 25.888 211.437 25.5995V15.3958C211.437 14.4103 211.293 13.5209 211.004 12.7277C210.716 11.9345 210.247 11.3095 209.598 10.8528C208.949 10.3721 208.072 10.1317 206.966 10.1317C205.98 10.1317 205.043 10.3721 204.154 10.8528C203.288 11.3095 202.579 11.9345 202.026 12.7277C201.498 13.5209 201.233 14.4103 201.233 15.3958V25.5995C201.233 25.888 201.125 26.1403 200.909 26.3567C200.692 26.573 200.44 26.6812 200.151 26.6812C199.815 26.6812 199.551 26.573 199.358 26.3567C199.166 26.1403 199.07 25.888 199.07 25.5995V9.44666C199.07 9.15822 199.166 8.90583 199.358 8.6895C199.575 8.47317 199.839 8.365 200.151 8.365C200.464 8.365 200.716 8.47317 200.909 8.6895C201.125 8.90583 201.233 9.15822 201.233 9.44666V12.7998L200.26 14.1339C200.332 13.4128 200.56 12.6917 200.945 11.9705C201.353 11.2494 201.882 10.6004 202.531 10.0236C203.18 9.44666 203.913 8.98996 204.73 8.65345C205.572 8.29289 206.449 8.11261 207.363 8.11261ZM247.064 8.25683C247.376 8.25683 247.628 8.365 247.821 8.58133C248.037 8.79767 248.145 9.06207 248.145 9.37455V25.5995C248.145 25.888 248.037 26.1403 247.821 26.3567C247.604 26.573 247.352 26.6812 247.064 26.6812C246.751 26.6812 246.487 26.573 246.27 26.3567C246.078 26.1403 245.982 25.888 245.982 25.5995V21.3089L246.595 21.0205C246.595 21.6935 246.403 22.3786 246.018 23.0756C245.657 23.7727 245.153 24.4217 244.504 25.0226C243.855 25.6235 243.085 26.1163 242.196 26.5009C241.331 26.8614 240.393 27.0417 239.384 27.0417C237.749 27.0417 236.283 26.6211 234.985 25.7798C233.711 24.9385 232.701 23.7847 231.956 22.3185C231.235 20.8522 230.875 19.2057 230.875 17.3789C230.875 15.504 231.247 13.8574 231.992 12.4393C232.737 10.997 233.747 9.86731 235.021 9.05005C236.295 8.2328 237.737 7.82417 239.348 7.82417C240.381 7.82417 241.343 8.00445 242.232 8.365C243.145 8.72556 243.939 9.21831 244.612 9.84327C245.285 10.4682 245.802 11.1893 246.162 12.0066C246.547 12.7998 246.739 13.6291 246.739 14.4944L245.982 13.9536V9.37455C245.982 9.06207 246.078 8.79767 246.27 8.58133C246.487 8.365 246.751 8.25683 247.064 8.25683ZM239.564 25.0226C240.838 25.0226 241.968 24.6981 242.953 24.0491C243.939 23.3761 244.708 22.4627 245.261 21.3089C245.838 20.1311 246.126 18.8211 246.126 17.3789C246.126 15.9607 245.838 14.6867 245.261 13.557C244.708 12.4272 243.939 11.5259 242.953 10.8528C241.968 10.1798 240.838 9.84327 239.564 9.84327C238.314 9.84327 237.184 10.1678 236.175 10.8168C235.189 11.4658 234.408 12.3551 233.831 13.4849C233.278 14.6146 233.002 15.9126 233.002 17.3789C233.002 18.8211 233.278 20.1311 233.831 21.3089C234.408 22.4627 235.189 23.3761 236.175 24.0491C237.16 24.6981 238.29 25.0226 239.564 25.0226ZM255.913 25.5995C255.913 25.888 255.805 26.1403 255.589 26.3567C255.372 26.573 255.12 26.6812 254.832 26.6812C254.519 26.6812 254.255 26.573 254.038 26.3567C253.846 26.1403 253.75 25.888 253.75 25.5995V9.014C253.75 8.72556 253.846 8.47317 254.038 8.25683C254.255 8.0405 254.519 7.93233 254.832 7.93233C255.144 7.93233 255.396 8.0405 255.589 8.25683C255.805 8.47317 255.913 8.72556 255.913 9.014V25.5995ZM254.832 5.51662C254.327 5.51662 253.942 5.40845 253.678 5.19212C253.437 4.95175 253.317 4.61523 253.317 4.18257V3.82201C253.317 3.38935 253.449 3.06485 253.714 2.84852C254.002 2.60815 254.387 2.48796 254.868 2.48796C255.324 2.48796 255.673 2.60815 255.913 2.84852C256.178 3.06485 256.31 3.38935 256.31 3.82201V4.18257C256.31 4.61523 256.178 4.95175 255.913 5.19212C255.673 5.40845 255.312 5.51662 254.832 5.51662ZM263.913 25.5995C263.913 25.888 263.805 26.1403 263.588 26.3567C263.372 26.573 263.119 26.6812 262.831 26.6812C262.519 26.6812 262.254 26.573 262.038 26.3567C261.846 26.1403 261.749 25.888 261.749 25.5995V1.0818C261.749 0.793355 261.858 0.540967 262.074 0.324636C262.29 0.108303 262.543 0.000136585 262.831 0.000136585C263.144 0.000136585 263.396 0.108303 263.588 0.324636C263.805 0.540967 263.913 0.793355 263.913 1.0818V25.5995ZM270.131 26.6812C269.722 26.6812 269.41 26.549 269.194 26.2846C268.977 26.0202 268.869 25.6836 268.869 25.275V24.5178C268.869 24.0852 268.977 23.7487 269.194 23.5083C269.41 23.2679 269.722 23.1477 270.131 23.1477H270.384C270.792 23.1477 271.105 23.2679 271.321 23.5083C271.537 23.7487 271.645 24.0852 271.645 24.5178V25.275C271.645 25.6836 271.537 26.0202 271.321 26.2846C271.105 26.549 270.792 26.6812 270.384 26.6812H270.131ZM284.469 7.82417C285.623 7.82417 286.68 7.95637 287.642 8.22078C288.603 8.46115 289.373 8.79767 289.95 9.23033C290.55 9.663 290.851 10.1317 290.851 10.6365C290.851 10.8769 290.767 11.1172 290.599 11.3576C290.43 11.5739 290.202 11.6821 289.913 11.6821C289.625 11.6821 289.385 11.61 289.192 11.4658C289.024 11.3215 288.844 11.1533 288.652 10.961C288.483 10.7687 288.231 10.5884 287.894 10.4202C287.582 10.2759 287.137 10.1437 286.56 10.0236C285.983 9.90337 285.322 9.84327 284.577 9.84327C283.231 9.84327 282.017 10.1798 280.936 10.8528C279.854 11.5259 279.001 12.4393 278.376 13.593C277.751 14.7228 277.438 15.9967 277.438 17.4149C277.438 18.8571 277.739 20.1551 278.34 21.3089C278.941 22.4627 279.77 23.3761 280.827 24.0491C281.885 24.6981 283.123 25.0226 284.541 25.0226C285.503 25.0226 286.248 24.9385 286.777 24.7702C287.305 24.602 287.762 24.4097 288.147 24.1933C288.603 23.9289 288.928 23.6765 289.12 23.4362C289.337 23.1718 289.613 23.0396 289.95 23.0396C290.262 23.0396 290.49 23.1357 290.635 23.328C290.803 23.4963 290.887 23.7246 290.887 24.0131C290.887 24.3977 290.599 24.8303 290.022 25.3111C289.469 25.7678 288.7 26.1764 287.714 26.5369C286.729 26.8735 285.599 27.0417 284.325 27.0417C282.522 27.0417 280.936 26.6211 279.566 25.7798C278.219 24.9385 277.162 23.7967 276.393 22.3545C275.648 20.8883 275.275 19.2417 275.275 17.4149C275.275 15.6602 275.66 14.0618 276.429 12.6195C277.198 11.1773 278.268 10.0236 279.638 9.15822C281.032 8.26885 282.642 7.82417 284.469 7.82417ZM312.181 17.451C312.181 19.2778 311.784 20.9243 310.991 22.3906C310.197 23.8328 309.116 24.9745 307.746 25.8158C306.376 26.6331 304.813 27.0417 303.058 27.0417C301.352 27.0417 299.801 26.6331 298.407 25.8158C297.037 24.9745 295.944 23.8328 295.126 22.3906C294.333 20.9243 293.936 19.2778 293.936 17.451C293.936 15.6001 294.333 13.9536 295.126 12.5114C295.944 11.0692 297.037 9.9274 298.407 9.08611C299.801 8.24482 301.352 7.82417 303.058 7.82417C304.813 7.82417 306.376 8.24482 307.746 9.08611C309.116 9.9274 310.197 11.0692 310.991 12.5114C311.784 13.9536 312.181 15.6001 312.181 17.451ZM310.017 17.451C310.017 15.9847 309.717 14.6867 309.116 13.557C308.515 12.4032 307.686 11.5018 306.628 10.8528C305.594 10.1798 304.405 9.84327 303.058 9.84327C301.76 9.84327 300.583 10.1798 299.525 10.8528C298.467 11.5018 297.626 12.4032 297.001 13.557C296.4 14.6867 296.1 15.9847 296.1 17.451C296.1 18.9172 296.4 20.2152 297.001 21.345C297.626 22.4747 298.467 23.3761 299.525 24.0491C300.583 24.6981 301.76 25.0226 303.058 25.0226C304.405 25.0226 305.594 24.6981 306.628 24.0491C307.686 23.3761 308.515 22.4747 309.116 21.345C309.717 20.2152 310.017 18.9172 310.017 17.451ZM325.071 8.11261C326.561 8.11261 327.835 8.50922 328.893 9.30244C329.95 10.0716 330.672 11.2254 331.056 12.7638L330.551 12.908L330.768 12.259C331.08 11.5379 331.597 10.8648 332.318 10.2399C333.063 9.59089 333.904 9.07409 334.842 8.6895C335.779 8.30491 336.729 8.11261 337.69 8.11261C339.205 8.11261 340.419 8.43711 341.332 9.08611C342.269 9.73511 342.942 10.6125 343.351 11.7182C343.784 12.7998 344 14.0257 344 15.3958V25.5995C344 25.888 343.892 26.1403 343.676 26.3567C343.483 26.573 343.231 26.6812 342.918 26.6812C342.606 26.6812 342.341 26.573 342.125 26.3567C341.933 26.1403 341.837 25.888 341.837 25.5995V15.504C341.837 14.5185 341.68 13.6171 341.368 12.7998C341.055 11.9826 340.563 11.3336 339.89 10.8528C339.217 10.3721 338.315 10.1317 337.186 10.1317C336.2 10.1317 335.251 10.3721 334.337 10.8528C333.448 11.3336 332.715 11.9826 332.138 12.7998C331.585 13.6171 331.308 14.5185 331.308 15.504V25.5995C331.308 25.888 331.2 26.1403 330.984 26.3567C330.792 26.573 330.539 26.6812 330.227 26.6812C329.914 26.6812 329.65 26.573 329.434 26.3567C329.241 26.1403 329.145 25.888 329.145 25.5995V15.3958C329.145 14.4103 329.001 13.5209 328.713 12.7277C328.424 11.9345 327.955 11.3095 327.306 10.8528C326.657 10.3721 325.78 10.1317 324.674 10.1317C323.689 10.1317 322.751 10.3721 321.862 10.8528C320.997 11.3095 320.288 11.9345 319.735 12.7277C319.206 13.5209 318.941 14.4103 318.941 15.3958V25.5995C318.941 25.888 318.833 26.1403 318.617 26.3567C318.401 26.573 318.148 26.6812 317.86 26.6812C317.523 26.6812 317.259 26.573 317.067 26.3567C316.874 26.1403 316.778 25.888 316.778 25.5995V9.44666C316.778 9.15822 316.874 8.90583 317.067 8.6895C317.283 8.47317 317.547 8.365 317.86 8.365C318.172 8.365 318.425 8.47317 318.617 8.6895C318.833 8.90583 318.941 9.15822 318.941 9.44666V12.7998L317.968 14.1339C318.04 13.4128 318.268 12.6917 318.653 11.9705C319.062 11.2494 319.59 10.6004 320.239 10.0236C320.888 9.44666 321.622 8.98996 322.439 8.65345C323.28 8.29289 324.157 8.11261 325.071 8.11261Z" fill="white"/>
</svg>
