<svg width="2216" height="298" viewBox="0 0 2216 298" fill="none" xmlns="http://www.w3.org/2000/svg">
<path d="M15.9468 12.3638C18.4001 12.3638 20.9558 12.9979 23.6135 14.2659C26.2713 15.534 28.3159 17.3305 29.7468 19.6553L107.641 142.343L94.454 141.709L173.881 19.6553C177.152 14.7943 181.344 12.3638 186.455 12.3638C190.544 12.3638 194.121 13.9489 197.188 17.1191C200.459 20.078 202.094 23.8822 202.094 28.5319V218.428C202.094 223.078 200.664 226.987 197.801 230.157C194.939 233.116 191.157 234.596 186.455 234.596C181.548 234.596 177.561 233.116 174.495 230.157C171.632 226.987 170.201 223.078 170.201 218.428V57.6979L180.015 59.917L112.547 166.119C111.116 168.021 109.276 169.712 107.027 171.191C104.779 172.46 102.427 172.988 99.9741 172.777C97.7252 172.988 95.374 172.46 92.9207 171.191C90.6718 169.712 88.8318 168.021 87.4006 166.119L22.3868 61.5021L29.7468 48.8213V218.428C29.7468 223.078 28.3159 226.987 25.4535 230.157C22.7958 233.116 19.2179 234.596 14.7201 234.596C10.4267 234.596 6.84895 233.116 3.98669 230.157C1.32891 226.987 0 223.078 0 218.428V28.5319C0 24.0936 1.53334 20.2894 4.60003 17.1191C7.87117 13.9489 11.6534 12.3638 15.9468 12.3638ZM277.616 218.428C277.616 223.078 276.186 226.987 273.323 230.157C270.461 233.116 266.781 234.596 262.283 234.596C257.989 234.596 254.309 233.116 251.243 230.157C248.381 226.987 246.949 223.078 246.949 218.428V82.7426C246.949 78.0928 248.381 74.2886 251.243 71.3298C254.309 68.1596 257.989 66.5745 262.283 66.5745C266.781 66.5745 270.461 68.1596 273.323 71.3298C276.186 74.2886 277.616 78.0928 277.616 82.7426V218.428ZM261.976 45.6511C256.048 45.6511 251.754 44.5944 249.096 42.4809C246.44 40.1561 245.109 36.3518 245.109 31.0681V25.9957C245.109 20.712 246.541 17.0135 249.403 14.9C252.266 12.7865 256.56 11.7298 262.283 11.7298C268.416 11.7298 272.813 12.8922 275.47 15.217C278.128 17.3305 279.456 20.9234 279.456 25.9957V31.0681C279.456 36.5631 278.026 40.3673 275.163 42.4809C272.506 44.5944 268.109 45.6511 261.976 45.6511ZM401.976 64.0383C416.493 64.0383 427.736 67.2085 435.709 73.5489C443.683 79.6779 449.203 88.0263 452.269 98.5936C455.541 108.95 457.176 120.574 457.176 133.466V218.428C457.176 223.078 455.643 226.987 452.576 230.157C449.714 233.116 446.136 234.596 441.843 234.596C437.346 234.596 433.666 233.116 430.802 230.157C427.941 226.987 426.509 223.078 426.509 218.428V133.783C426.509 126.174 425.488 119.411 423.442 113.494C421.399 107.365 417.821 102.503 412.709 98.9107C407.802 95.1064 400.852 93.2043 391.855 93.2043C383.474 93.2043 376.114 95.1064 369.775 98.9107C363.439 102.503 358.429 107.365 354.749 113.494C351.274 119.411 349.535 126.174 349.535 133.783V218.428C349.535 223.078 348.002 226.987 344.935 230.157C342.074 233.116 338.495 234.596 334.202 234.596C329.705 234.596 326.025 233.116 323.162 230.157C320.3 226.987 318.868 223.078 318.868 218.428V84.0107C318.868 79.3609 320.3 75.5567 323.162 72.5979C326.025 69.4277 329.705 67.8426 334.202 67.8426C338.495 67.8426 342.074 69.4277 344.935 72.5979C348.002 75.5567 349.535 79.3609 349.535 84.0107V101.764L344.015 104.934C345.447 100.284 347.9 95.6348 351.375 90.9851C355.055 86.1242 359.452 81.6859 364.562 77.6702C369.674 73.4433 375.399 70.1673 381.735 67.8426C388.074 65.3064 394.821 64.0383 401.976 64.0383ZM631.931 0C636.427 0 640.107 1.47943 642.971 4.4383C645.832 7.39716 647.264 11.3071 647.264 16.1681V218.428C647.264 223.078 645.832 226.987 642.971 230.157C640.107 233.116 636.427 234.596 631.931 234.596C627.637 234.596 623.957 233.116 620.891 230.157C618.027 226.987 616.597 223.078 616.597 218.428V195.602L623.037 195.919C623.037 199.723 621.504 204.056 618.437 208.917C615.574 213.567 611.587 218.111 606.477 222.549C601.365 226.987 595.333 230.687 588.384 233.645C581.432 236.393 573.97 237.766 565.997 237.766C551.89 237.766 539.213 234.067 527.97 226.67C516.725 219.062 507.831 208.811 501.29 195.919C494.746 182.816 491.476 167.81 491.476 150.902C491.476 133.994 494.746 119.094 501.29 106.202C507.831 93.0987 516.623 82.8482 527.663 75.4511C538.906 67.8426 551.378 64.0383 565.077 64.0383C573.664 64.0383 581.637 65.5178 588.997 68.4766C596.56 71.4354 603.104 75.2397 608.624 79.8894C614.144 84.5391 618.437 89.5056 621.504 94.7894C624.571 99.8617 626.104 104.723 626.104 109.372L616.597 110.323V16.1681C616.597 11.5184 618.027 7.71418 620.891 4.75532C623.957 1.58511 627.637 0 631.931 0ZM569.37 208.6C579.184 208.6 587.667 206.064 594.824 200.992C602.184 195.919 607.907 189.05 611.997 180.385C616.085 171.72 618.131 161.892 618.131 150.902C618.131 139.912 616.085 130.084 611.997 121.419C607.907 112.754 602.184 105.885 594.824 100.813C587.464 95.7404 578.978 93.2043 569.37 93.2043C559.965 93.2043 551.583 95.7404 544.223 100.813C537.066 105.885 531.343 112.754 527.05 121.419C522.96 130.084 520.917 139.912 520.917 150.902C520.917 161.892 522.96 171.72 527.05 180.385C531.343 189.05 537.066 195.919 544.223 200.992C551.583 206.064 559.965 208.6 569.37 208.6ZM680.719 208.6C678.879 205.641 678.061 202.26 678.266 198.455C678.469 194.44 680.616 191.058 684.706 188.311C687.568 186.409 690.533 185.669 693.599 186.091C696.869 186.303 699.936 187.888 702.8 190.847C708.523 197.399 714.861 202.577 721.813 206.381C728.968 210.185 737.555 212.087 747.573 212.087C751.662 211.875 755.853 211.241 760.147 210.185C764.44 208.917 768.12 206.803 771.187 203.845C774.253 200.674 775.787 196.131 775.787 190.213C775.787 184.929 774.15 180.702 770.88 177.532C767.608 174.362 763.315 171.826 758 169.923C752.683 167.81 746.96 165.908 740.827 164.217C734.283 162.315 727.64 160.201 720.893 157.877C714.349 155.552 708.421 152.593 703.106 149C697.789 145.196 693.394 140.335 689.919 134.417C686.648 128.499 685.013 121.208 685.013 112.543C685.013 102.609 687.669 94.0497 692.986 86.8638C698.506 79.6779 705.56 74.0774 714.146 70.0617C722.936 66.046 732.443 64.0383 742.667 64.0383C748.595 64.0383 754.83 64.8838 761.373 66.5745C767.915 68.054 774.253 70.4843 780.387 73.866C786.52 77.2476 791.835 81.6859 796.334 87.1809C798.377 89.9284 799.502 93.2043 799.707 97.0085C800.115 100.813 798.48 104.194 794.8 107.153C792.347 109.267 789.382 110.218 785.907 110.006C782.43 109.795 779.568 108.633 777.32 106.519C773.435 101.447 768.427 97.537 762.293 94.7894C756.16 91.8306 749.208 90.3511 741.44 90.3511C737.555 90.3511 733.467 90.9851 729.173 92.2532C725.083 93.3099 721.608 95.3178 718.746 98.2766C715.883 101.235 714.453 105.568 714.453 111.274C714.453 116.558 716.088 120.785 719.36 123.955C722.835 127.126 727.333 129.767 732.853 131.881C738.373 133.994 744.403 135.897 750.947 137.587C757.283 139.278 763.52 141.286 769.654 143.611C775.99 145.935 781.614 149 786.52 152.804C791.63 156.397 795.72 161.152 798.787 167.07C802.057 172.777 803.694 180.068 803.694 188.945C803.694 199.301 800.729 208.177 794.8 215.574C789.075 222.761 781.715 228.255 772.72 232.06C763.928 235.864 754.627 237.766 744.813 237.766C733.16 237.766 721.506 235.652 709.853 231.426C698.403 226.987 688.693 219.379 680.719 208.6ZM917.939 64.9894C932.046 64.9894 942.984 68.1596 950.753 74.5C958.521 80.629 963.939 88.9774 967.006 99.5447C970.278 110.112 971.913 121.736 971.913 134.417V218.428C971.913 223.078 970.379 226.987 967.313 230.157C964.451 233.116 960.873 234.596 956.579 234.596C952.081 234.596 948.401 233.116 945.539 230.157C942.678 226.987 941.246 223.078 941.246 218.428V134.417C941.246 127.02 940.224 120.257 938.179 114.128C936.339 107.999 932.966 103.138 928.059 99.5447C923.358 95.9519 916.712 94.1553 908.126 94.1553C900.152 94.1553 892.997 95.9519 886.659 99.5447C880.526 103.138 875.72 107.999 872.245 114.128C868.974 120.257 867.339 127.02 867.339 134.417V218.428C867.339 223.078 865.805 226.987 862.739 230.157C859.877 233.116 856.299 234.596 852.005 234.596C847.507 234.596 843.827 233.116 840.965 230.157C838.104 226.987 836.672 223.078 836.672 218.428V16.1681C836.672 11.5184 838.104 7.71418 840.965 4.75532C843.827 1.58511 847.507 0 852.005 0C856.299 0 859.877 1.58511 862.739 4.75532C865.805 7.71418 867.339 11.5184 867.339 16.1681V102.715L861.819 105.885C863.25 101.235 865.6 96.4801 868.872 91.6191C872.347 86.7582 876.539 82.3199 881.445 78.3043C886.557 74.2886 892.179 71.1184 898.312 68.7936C904.446 66.2575 910.987 64.9894 917.939 64.9894ZM1089.7 237.766C1072.73 237.766 1058.01 234.174 1045.54 226.987C1033.07 219.591 1023.36 209.551 1016.4 196.87C1009.66 183.978 1006.28 169.289 1006.28 152.804C1006.28 134.206 1009.86 118.355 1017.02 105.251C1024.38 91.9362 1033.88 81.7915 1045.54 74.817C1057.19 67.6311 1069.56 64.0383 1082.64 64.0383C1092.66 64.0383 1102.17 66.1519 1111.16 70.3787C1120.16 74.3944 1128.13 80.1008 1135.08 87.4979C1142.24 94.6838 1147.86 103.243 1151.95 113.177C1156.04 122.899 1158.19 133.572 1158.39 145.196C1158.19 149.423 1156.55 152.91 1153.49 155.657C1150.42 158.405 1146.84 159.779 1142.75 159.779H1023.46L1016.1 132.832H1131.41L1125.58 138.538V130.613C1125.17 123.216 1122.82 116.769 1118.52 111.274C1114.23 105.568 1108.92 101.235 1102.58 98.2766C1096.24 95.1064 1089.6 93.5213 1082.64 93.5213C1076.51 93.5213 1070.58 94.5779 1064.86 96.6915C1059.34 98.5936 1054.33 101.764 1049.83 106.202C1045.54 110.64 1042.06 116.558 1039.4 123.955C1036.95 131.141 1035.72 140.123 1035.72 150.902C1035.72 162.526 1038.08 172.671 1042.78 181.336C1047.48 190.001 1053.82 196.765 1061.79 201.626C1069.76 206.275 1078.56 208.6 1088.16 208.6C1095.73 208.6 1101.96 207.86 1106.87 206.381C1111.78 204.69 1115.87 202.682 1119.14 200.357C1122.41 198.033 1125.27 195.814 1127.72 193.7C1130.79 191.798 1133.86 190.847 1136.93 190.847C1140.61 190.847 1143.67 192.221 1146.13 194.968C1148.58 197.504 1149.81 200.569 1149.81 204.162C1149.81 208.811 1147.56 213.038 1143.06 216.843C1137.54 222.337 1129.87 227.199 1120.06 231.426C1110.45 235.652 1100.33 237.766 1089.7 237.766ZM1268.19 237.766C1251.22 237.766 1236.5 234.174 1224.03 226.987C1211.56 219.591 1201.85 209.551 1194.9 196.87C1188.15 183.978 1184.78 169.289 1184.78 152.804C1184.78 134.206 1188.35 118.355 1195.51 105.251C1202.87 91.9362 1212.38 81.7915 1224.03 74.817C1235.68 67.6311 1248.05 64.0383 1261.14 64.0383C1271.15 64.0383 1280.66 66.1519 1289.66 70.3787C1298.65 74.3944 1306.62 80.1008 1313.58 87.4979C1320.73 94.6838 1326.35 103.243 1330.44 113.177C1334.53 122.899 1336.68 133.572 1336.88 145.196C1336.68 149.423 1335.04 152.91 1331.98 155.657C1328.91 158.405 1325.33 159.779 1321.24 159.779H1201.95L1194.59 132.832H1309.9L1304.07 138.538V130.613C1303.66 123.216 1301.31 116.769 1297.02 111.274C1292.72 105.568 1287.41 101.235 1281.07 98.2766C1274.73 95.1064 1268.09 93.5213 1261.14 93.5213C1255 93.5213 1249.07 94.5779 1243.35 96.6915C1237.83 98.5936 1232.82 101.764 1228.32 106.202C1224.03 110.64 1220.55 116.558 1217.9 123.955C1215.44 131.141 1214.22 140.123 1214.22 150.902C1214.22 162.526 1216.57 172.671 1221.27 181.336C1225.97 190.001 1232.31 196.765 1240.28 201.626C1248.26 206.275 1257.05 208.6 1266.66 208.6C1274.22 208.6 1280.46 207.86 1285.36 206.381C1290.27 204.69 1294.36 202.682 1297.63 200.357C1300.9 198.033 1303.76 195.814 1306.22 193.7C1309.28 191.798 1312.35 190.847 1315.42 190.847C1319.1 190.847 1322.16 192.221 1324.62 194.968C1327.07 197.504 1328.3 200.569 1328.3 204.162C1328.3 208.811 1326.05 213.038 1321.55 216.843C1316.03 222.337 1308.36 227.199 1298.55 231.426C1288.94 235.652 1278.82 237.766 1268.19 237.766ZM1452.81 64.9894C1467.12 64.9894 1479.8 68.688 1490.84 76.0851C1502.08 83.4822 1510.98 93.6269 1517.52 106.519C1524.06 119.2 1527.33 133.994 1527.33 150.902C1527.33 167.81 1524.06 182.816 1517.52 195.919C1510.98 208.811 1502.19 218.957 1491.15 226.353C1480.11 233.75 1467.64 237.449 1453.73 237.449C1445.96 237.449 1438.6 236.181 1431.65 233.645C1424.7 231.109 1418.57 227.833 1413.25 223.817C1407.94 219.591 1403.54 215.152 1400.07 210.502C1396.8 205.852 1394.75 201.52 1393.93 197.504L1402.21 193.383V281.832C1402.21 286.482 1400.68 290.287 1397.61 293.245C1394.75 296.415 1391.17 298 1386.88 298C1382.38 298 1378.7 296.415 1375.84 293.245C1372.98 290.287 1371.55 286.482 1371.55 281.832V83.3766C1371.55 78.9383 1372.98 75.134 1375.84 71.9638C1378.7 68.7936 1382.38 67.2085 1386.88 67.2085C1391.17 67.2085 1394.75 68.7936 1397.61 71.9638C1400.68 75.134 1402.21 78.9383 1402.21 83.3766V105.251L1397.31 102.398C1397.92 98.3822 1399.86 94.2609 1403.13 90.034C1406.4 85.5958 1410.49 81.4745 1415.4 77.6702C1420.51 73.866 1426.24 70.8014 1432.57 68.4766C1439.12 66.1518 1445.86 64.9894 1452.81 64.9894ZM1449.44 94.1553C1439.63 94.1553 1431.04 96.6915 1423.68 101.764C1416.52 106.625 1410.9 113.282 1406.81 121.736C1402.72 130.19 1400.68 139.912 1400.68 150.902C1400.68 161.681 1402.72 171.509 1406.81 180.385C1410.9 189.05 1416.52 195.919 1423.68 200.992C1431.04 205.852 1439.63 208.283 1449.44 208.283C1459.05 208.283 1467.43 205.852 1474.59 200.992C1481.74 195.919 1487.36 189.05 1491.45 180.385C1495.75 171.509 1497.89 161.681 1497.89 150.902C1497.89 140.123 1495.75 130.507 1491.45 122.053C1487.36 113.388 1481.74 106.625 1474.59 101.764C1467.43 96.6915 1459.05 94.1553 1449.44 94.1553ZM1685.91 209.551C1689.39 209.551 1692.35 210.819 1694.8 213.355C1697.26 215.679 1698.48 218.64 1698.48 222.232C1698.48 225.824 1697.26 228.784 1694.8 231.109C1692.35 233.433 1689.39 234.596 1685.91 234.596H1579.8C1576.33 234.596 1573.36 233.328 1570.91 230.792C1568.66 228.255 1567.54 225.19 1567.54 221.598V25.3617C1567.54 21.7689 1568.76 18.8099 1571.22 16.4851C1573.67 13.9489 1576.74 12.6808 1580.42 12.6808C1583.89 12.6808 1586.86 13.9489 1589.31 16.4851C1591.76 18.8099 1592.99 21.7689 1592.99 25.3617V215.257L1586.86 209.551H1685.91ZM1860.1 69.1106C1863.57 69.1106 1866.43 70.3787 1868.68 72.9149C1871.14 75.2397 1872.36 78.1987 1872.36 81.7915V221.598C1872.36 225.19 1871.14 228.255 1868.68 230.792C1866.43 233.328 1863.57 234.596 1860.1 234.596C1856.42 234.596 1853.45 233.328 1851.2 230.792C1848.95 228.255 1847.83 225.19 1847.83 221.598V191.481L1853.66 190.847C1853.66 195.497 1852.12 200.569 1849.06 206.064C1845.99 211.558 1841.8 216.738 1836.48 221.598C1831.17 226.248 1824.83 230.157 1817.47 233.328C1810.31 236.286 1802.54 237.766 1794.16 237.766C1780.26 237.766 1767.79 234.067 1756.75 226.67C1745.71 219.062 1736.92 208.811 1730.37 195.919C1724.04 183.027 1720.87 168.338 1720.87 151.853C1720.87 135.157 1724.04 120.468 1730.37 107.787C1736.92 94.895 1745.71 84.8561 1756.75 77.6702C1767.79 70.2731 1780.05 66.5745 1793.55 66.5745C1802.34 66.5745 1810.52 68.054 1818.08 71.0128C1825.65 73.9716 1832.19 77.9872 1837.71 83.0596C1843.43 88.1319 1847.83 93.7327 1850.9 99.8617C1854.17 105.991 1855.8 112.12 1855.8 118.249L1847.83 116.347V81.7915C1847.83 78.1987 1848.95 75.2397 1851.2 72.9149C1853.45 70.3787 1856.42 69.1106 1860.1 69.1106ZM1796.92 214.306C1807.15 214.306 1816.14 211.558 1823.91 206.064C1831.88 200.569 1838.02 193.172 1842.31 183.872C1846.81 174.362 1849.06 163.689 1849.06 151.853C1849.06 140.229 1846.81 129.767 1842.31 120.468C1838.02 110.957 1831.88 103.56 1823.91 98.2766C1816.14 92.7816 1807.15 90.034 1796.92 90.034C1786.9 90.034 1777.91 92.6758 1769.93 97.9596C1762.17 103.243 1756.03 110.535 1751.53 119.834C1747.04 129.133 1744.79 139.806 1744.79 151.853C1744.79 163.689 1746.93 174.362 1751.23 183.872C1755.73 193.172 1761.86 200.569 1769.63 206.064C1777.6 211.558 1786.7 214.306 1796.92 214.306ZM1996.03 66.5745C2009.93 66.5745 2022.4 70.2731 2033.44 77.6702C2044.49 84.8561 2053.18 94.7894 2059.52 107.47C2066.06 120.151 2069.33 134.84 2069.33 151.536C2069.33 168.233 2066.06 183.027 2059.52 195.919C2053.18 208.811 2044.49 219.062 2033.44 226.67C2022.61 234.067 2010.34 237.766 1996.64 237.766C1989.08 237.766 1981.92 236.603 1975.18 234.279C1968.63 231.743 1962.6 228.467 1957.08 224.451C1951.77 220.225 1947.27 215.679 1943.59 210.819C1939.91 205.747 1937.25 200.78 1935.61 195.919L1942.36 191.481V223.183C1942.36 226.775 1941.24 229.84 1938.99 232.377C1936.74 234.913 1933.77 236.181 1930.09 236.181C1926.62 236.181 1923.65 235.018 1921.2 232.694C1918.95 230.157 1917.83 226.987 1917.83 223.183V12.9979C1917.83 9.40495 1918.95 6.34043 1921.2 3.80424C1923.65 1.26808 1926.62 0 1930.09 0C1933.77 0 1936.74 1.26808 1938.99 3.80424C1941.24 6.34043 1942.36 9.40495 1942.36 12.9979V110.64L1937.76 108.104C1939.19 102.821 1941.65 97.7482 1945.12 92.8872C1948.8 87.8149 1953.2 83.3766 1958.31 79.5723C1963.63 75.5567 1969.45 72.3865 1975.79 70.0617C1982.33 67.737 1989.08 66.5745 1996.03 66.5745ZM1993.27 90.034C1983.05 90.034 1973.95 92.6758 1965.98 97.9596C1958.21 103.243 1952.07 110.535 1947.58 119.834C1943.28 129.133 1941.14 139.701 1941.14 151.536C1941.14 163.372 1943.28 174.045 1947.58 183.555C1952.07 193.066 1958.21 200.569 1965.98 206.064C1973.95 211.558 1983.05 214.306 1993.27 214.306C2003.49 214.306 2012.49 211.558 2020.26 206.064C2028.03 200.569 2034.15 193.066 2038.66 183.555C2043.15 174.045 2045.4 163.372 2045.4 151.536C2045.4 139.701 2043.15 129.133 2038.66 119.834C2034.15 110.535 2028.03 103.243 2020.26 97.9596C2012.49 92.6758 2003.49 90.034 1993.27 90.034ZM2097.31 208.6C2095.46 205.852 2094.65 202.999 2094.86 200.04C2095.06 196.87 2096.81 194.123 2100.07 191.798C2102.11 190.318 2104.46 189.684 2107.12 189.896C2109.99 190.107 2112.54 191.481 2114.8 194.017C2120.51 200.991 2127.07 206.592 2134.42 210.819C2141.77 214.835 2150.77 216.843 2161.41 216.843C2166.3 216.631 2171.22 215.787 2176.13 214.306C2181.03 212.826 2185.11 210.29 2188.4 206.698C2191.87 202.894 2193.6 197.927 2193.6 191.798C2193.6 185.88 2191.87 181.231 2188.4 177.849C2184.91 174.256 2180.42 171.403 2174.89 169.289C2169.37 166.965 2163.34 164.957 2156.8 163.266C2150.06 161.364 2143.41 159.25 2136.88 156.926C2130.34 154.389 2124.41 151.325 2119.08 147.732C2113.97 143.928 2109.78 139.278 2106.51 133.783C2103.45 128.077 2101.9 121.208 2101.9 113.177C2101.9 103.666 2104.36 95.4234 2109.28 88.4489C2114.37 81.4745 2121.14 76.0851 2129.5 72.2809C2138.09 68.4766 2147.4 66.5745 2157.41 66.5745C2163.14 66.5745 2169.07 67.3141 2175.2 68.7936C2181.54 70.0617 2187.67 72.3865 2193.6 75.7681C2199.53 78.9383 2204.75 83.3766 2209.24 89.083C2211.08 91.1965 2212.1 93.8383 2212.3 97.0085C2212.51 100.179 2211.19 103.032 2208.32 105.568C2206.07 107.259 2203.51 107.999 2200.67 107.787C2198.01 107.576 2195.75 106.519 2193.9 104.617C2189.62 99.3333 2184.2 95.3178 2177.66 92.5702C2171.32 89.6114 2164.27 88.1319 2156.49 88.1319C2151.6 88.1319 2146.79 88.8716 2142.07 90.3511C2137.38 91.8306 2133.4 94.3667 2130.13 97.9596C2127.07 101.341 2125.52 106.097 2125.52 112.226C2125.73 117.932 2127.57 122.582 2131.05 126.174C2134.52 129.767 2139.21 132.726 2145.14 135.051C2151.07 137.165 2157.61 139.278 2164.78 141.391C2171.32 143.082 2177.55 145.09 2183.48 147.415C2189.62 149.528 2195.14 152.382 2200.04 155.974C2204.95 159.567 2208.83 164.217 2211.69 169.923C2214.56 175.418 2216 182.393 2216 190.847C2216 200.569 2213.34 209.023 2208.02 216.209C2202.7 223.183 2195.65 228.572 2186.86 232.377C2178.27 235.969 2168.96 237.766 2158.95 237.766C2147.7 237.766 2136.57 235.547 2125.52 231.109C2114.68 226.67 2105.27 219.167 2097.31 208.6Z" fill="#252525"/>
</svg>
