<svg width="102" height="46" viewBox="0 0 102 46" fill="none" xmlns="http://www.w3.org/2000/svg">
<path d="M5.12194 10.8C5.40994 10.8 5.66194 10.908 5.87794 11.124C6.11794 11.34 6.23794 11.604 6.23794 11.916V34.884C6.21394 35.196 6.08194 35.46 5.84194 35.676C5.62594 35.892 5.37394 36 5.08594 36C4.74994 36 4.47394 35.892 4.25794 35.676C4.06594 35.46 3.96994 35.196 3.96994 34.884V11.916C3.96994 11.604 4.07794 11.34 4.29394 11.124C4.50994 10.908 4.78594 10.8 5.12194 10.8ZM22.0059 10.8C22.3419 10.8 22.6059 10.908 22.7979 11.124C23.0139 11.34 23.1219 11.604 23.1219 11.916V34.884C23.0979 35.196 22.9779 35.46 22.7619 35.676C22.5699 35.892 22.3059 36 21.9699 36C21.6579 36 21.3939 35.892 21.1779 35.676C20.9619 35.46 20.8539 35.196 20.8539 34.884V11.916C20.8539 11.604 20.9619 11.34 21.1779 11.124C21.4179 10.908 21.6939 10.8 22.0059 10.8ZM4.94194 22.068H22.0419L22.0059 24.156H4.79794L4.94194 22.068ZM46.4761 26.784C46.4761 28.608 46.0801 30.252 45.2881 31.716C44.4961 33.156 43.4161 34.296 42.0481 35.136C40.6801 35.952 39.1201 36.36 37.3681 36.36C35.6641 36.36 34.1161 35.952 32.7241 35.136C31.3561 34.296 30.2641 33.156 29.4481 31.716C28.6561 30.252 28.2601 28.608 28.2601 26.784C28.2601 24.936 28.6561 23.292 29.4481 21.852C30.2641 20.412 31.3561 19.272 32.7241 18.432C34.1161 17.592 35.6641 17.172 37.3681 17.172C39.1201 17.172 40.6801 17.592 42.0481 18.432C43.4161 19.272 44.4961 20.412 45.2881 21.852C46.0801 23.292 46.4761 24.936 46.4761 26.784ZM44.3161 26.784C44.3161 25.32 44.0161 24.024 43.4161 22.896C42.8161 21.744 41.9881 20.844 40.9321 20.196C39.9001 19.524 38.7121 19.188 37.3681 19.188C36.0721 19.188 34.8961 19.524 33.8401 20.196C32.7841 20.844 31.9441 21.744 31.3201 22.896C30.7201 24.024 30.4201 25.32 30.4201 26.784C30.4201 28.248 30.7201 29.544 31.3201 30.672C31.9441 31.8 32.7841 32.7 33.8401 33.372C34.8961 34.02 36.0721 34.344 37.3681 34.344C38.7121 34.344 39.9001 34.02 40.9321 33.372C41.9881 32.7 42.8161 31.8 43.4161 30.672C44.0161 29.544 44.3161 28.248 44.3161 26.784ZM59.3467 17.46C60.8347 17.46 62.1067 17.856 63.1627 18.648C64.2187 19.416 64.9387 20.568 65.3227 22.104L64.8187 22.248L65.0347 21.6C65.3467 20.88 65.8627 20.208 66.5827 19.584C67.3267 18.936 68.1667 18.42 69.1027 18.036C70.0387 17.652 70.9867 17.46 71.9467 17.46C73.4587 17.46 74.6707 17.784 75.5827 18.432C76.5187 19.08 77.1907 19.956 77.5987 21.06C78.0307 22.14 78.2467 23.364 78.2467 24.732V34.92C78.2467 35.208 78.1387 35.46 77.9227 35.676C77.7307 35.892 77.4787 36 77.1667 36C76.8547 36 76.5907 35.892 76.3747 35.676C76.1827 35.46 76.0867 35.208 76.0867 34.92V24.84C76.0867 23.856 75.9307 22.956 75.6187 22.14C75.3067 21.324 74.8147 20.676 74.1427 20.196C73.4707 19.716 72.5707 19.476 71.4427 19.476C70.4587 19.476 69.5107 19.716 68.5987 20.196C67.7107 20.676 66.9787 21.324 66.4027 22.14C65.8507 22.956 65.5747 23.856 65.5747 24.84V34.92C65.5747 35.208 65.4667 35.46 65.2507 35.676C65.0587 35.892 64.8067 36 64.4947 36C64.1827 36 63.9187 35.892 63.7027 35.676C63.5107 35.46 63.4147 35.208 63.4147 34.92V24.732C63.4147 23.748 63.2707 22.86 62.9827 22.068C62.6947 21.276 62.2267 20.652 61.5787 20.196C60.9307 19.716 60.0547 19.476 58.9507 19.476C57.9667 19.476 57.0307 19.716 56.1427 20.196C55.2787 20.652 54.5707 21.276 54.0187 22.068C53.4907 22.86 53.2267 23.748 53.2267 24.732V34.92C53.2267 35.208 53.1187 35.46 52.9027 35.676C52.6867 35.892 52.4347 36 52.1467 36C51.8107 36 51.5467 35.892 51.3547 35.676C51.1627 35.46 51.0667 35.208 51.0667 34.92V18.792C51.0667 18.504 51.1627 18.252 51.3547 18.036C51.5707 17.82 51.8347 17.712 52.1467 17.712C52.4587 17.712 52.7107 17.82 52.9027 18.036C53.1187 18.252 53.2267 18.504 53.2267 18.792V22.14L52.2547 23.472C52.3267 22.752 52.5547 22.032 52.9387 21.312C53.3467 20.592 53.8747 19.944 54.5227 19.368C55.1707 18.792 55.9027 18.336 56.7187 18C57.5587 17.64 58.4347 17.46 59.3467 17.46ZM92.2186 36.36C90.3706 36.36 88.7386 35.964 87.3226 35.172C85.9066 34.38 84.8026 33.276 84.0106 31.86C83.2186 30.444 82.8226 28.788 82.8226 26.892C82.8226 24.852 83.2186 23.112 84.0106 21.672C84.8266 20.232 85.8706 19.128 87.1426 18.36C88.4386 17.568 89.8066 17.172 91.2466 17.172C92.3026 17.172 93.3226 17.364 94.3066 17.748C95.3146 18.108 96.2026 18.66 96.9706 19.404C97.7626 20.124 98.3866 21.012 98.8426 22.068C99.3226 23.124 99.5866 24.348 99.6346 25.74C99.6106 26.028 99.4906 26.28 99.2746 26.496C99.0586 26.688 98.8066 26.784 98.5186 26.784H84.0826L83.6506 24.84H97.8346L97.3666 25.272V24.552C97.2706 23.424 96.9106 22.464 96.2866 21.672C95.6626 20.88 94.9066 20.28 94.0186 19.872C93.1306 19.464 92.2066 19.26 91.2466 19.26C90.5266 19.26 89.7826 19.404 89.0146 19.692C88.2706 19.98 87.5866 20.436 86.9626 21.06C86.3626 21.66 85.8706 22.44 85.4866 23.4C85.1026 24.336 84.9106 25.452 84.9106 26.748C84.9106 28.164 85.1986 29.448 85.7746 30.6C86.3506 31.752 87.1786 32.664 88.2586 33.336C89.3626 34.008 90.6706 34.344 92.1826 34.344C93.0226 34.344 93.7786 34.224 94.4506 33.984C95.1226 33.744 95.7106 33.432 96.2146 33.048C96.7186 32.64 97.1386 32.22 97.4746 31.788C97.7386 31.572 98.0026 31.464 98.2666 31.464C98.5066 31.464 98.7106 31.56 98.8786 31.752C99.0706 31.944 99.1666 32.16 99.1666 32.4C99.1666 32.688 99.0466 32.94 98.8066 33.156C98.0866 34.02 97.1506 34.776 95.9986 35.424C94.8466 36.048 93.5866 36.36 92.2186 36.36Z" fill="white"/>
</svg>
