<svg width="382" height="46" viewBox="0 0 382 46" fill="none" xmlns="http://www.w3.org/2000/svg">
<path d="M18.1383 33.876C18.4263 33.876 18.6783 33.984 18.8943 34.2C19.1103 34.392 19.2183 34.632 19.2183 34.92C19.2183 35.232 19.1103 35.496 18.8943 35.712C18.6783 35.904 18.4263 36 18.1383 36H5.28627C4.97427 36 4.71027 35.892 4.49427 35.676C4.30227 35.46 4.20627 35.208 4.20627 34.92V11.88C4.20627 11.592 4.31427 11.34 4.53027 11.124C4.74627 10.908 5.02227 10.8 5.35827 10.8C5.64627 10.8 5.89827 10.908 6.11427 11.124C6.35427 11.34 6.47427 11.592 6.47427 11.88V34.488L5.79027 33.876H18.1383ZM31.1424 36.36C29.2944 36.36 27.6624 35.964 26.2464 35.172C24.8304 34.38 23.7264 33.276 22.9344 31.86C22.1424 30.444 21.7464 28.788 21.7464 26.892C21.7464 24.852 22.1424 23.112 22.9344 21.672C23.7504 20.232 24.7944 19.128 26.0664 18.36C27.3624 17.568 28.7304 17.172 30.1704 17.172C31.2264 17.172 32.2464 17.364 33.2304 17.748C34.2384 18.108 35.1264 18.66 35.8944 19.404C36.6864 20.124 37.3104 21.012 37.7664 22.068C38.2464 23.124 38.5104 24.348 38.5584 25.74C38.5344 26.028 38.4144 26.28 38.1984 26.496C37.9824 26.688 37.7304 26.784 37.4424 26.784H23.0064L22.5744 24.84H36.7584L36.2904 25.272V24.552C36.1944 23.424 35.8344 22.464 35.2104 21.672C34.5864 20.88 33.8304 20.28 32.9424 19.872C32.0544 19.464 31.1304 19.26 30.1704 19.26C29.4504 19.26 28.7064 19.404 27.9384 19.692C27.1944 19.98 26.5104 20.436 25.8864 21.06C25.2864 21.66 24.7944 22.44 24.4104 23.4C24.0264 24.336 23.8344 25.452 23.8344 26.748C23.8344 28.164 24.1224 29.448 24.6984 30.6C25.2744 31.752 26.1024 32.664 27.1824 33.336C28.2864 34.008 29.5944 34.344 31.1064 34.344C31.9464 34.344 32.7024 34.224 33.3744 33.984C34.0464 33.744 34.6344 33.432 35.1384 33.048C35.6424 32.64 36.0624 32.22 36.3984 31.788C36.6624 31.572 36.9264 31.464 37.1904 31.464C37.4304 31.464 37.6344 31.56 37.8024 31.752C37.9944 31.944 38.0904 32.16 38.0904 32.4C38.0904 32.688 37.9704 32.94 37.7304 33.156C37.0104 34.02 36.0744 34.776 34.9224 35.424C33.7704 36.048 32.5104 36.36 31.1424 36.36ZM41.9939 17.676H50.3819C50.6699 17.676 50.9099 17.784 51.1019 18C51.2939 18.192 51.3899 18.432 51.3899 18.72C51.3899 18.984 51.2939 19.212 51.1019 19.404C50.9099 19.596 50.6699 19.692 50.3819 19.692H41.9939C41.7059 19.692 41.4539 19.596 41.2379 19.404C41.0459 19.188 40.9499 18.948 40.9499 18.684C40.9499 18.396 41.0459 18.156 41.2379 17.964C41.4539 17.772 41.7059 17.676 41.9939 17.676ZM45.7019 12.6C46.0139 12.6 46.2659 12.708 46.4579 12.924C46.6739 13.14 46.7819 13.392 46.7819 13.68V31.752C46.7819 32.424 46.8659 32.928 47.0339 33.264C47.2259 33.6 47.4659 33.828 47.7539 33.948C48.0419 34.044 48.3299 34.092 48.6179 34.092C48.8099 34.092 48.9779 34.068 49.1219 34.02C49.2899 33.948 49.4699 33.912 49.6619 33.912C49.8779 33.912 50.0579 33.996 50.2019 34.164C50.3699 34.332 50.4539 34.548 50.4539 34.812C50.4539 35.148 50.2619 35.436 49.8779 35.676C49.4939 35.892 49.0379 36 48.5099 36C48.2939 36 47.9699 35.988 47.5379 35.964C47.1059 35.916 46.6619 35.784 46.2059 35.568C45.7499 35.328 45.3659 34.92 45.0539 34.344C44.7659 33.768 44.6219 32.94 44.6219 31.86V13.68C44.6219 13.392 44.7179 13.14 44.9099 12.924C45.1259 12.708 45.3899 12.6 45.7019 12.6ZM55.0571 11.736C55.1291 11.112 55.4771 10.8 56.1011 10.8H57.2891C57.6011 10.824 57.7931 10.932 57.8651 11.124C57.9611 11.292 57.9731 11.52 57.9011 11.808L55.5971 19.584C55.4531 20.088 55.1171 20.34 54.5891 20.34C54.2051 20.34 54.0491 20.028 54.1211 19.404L55.0571 11.736ZM61.298 33.084C61.106 32.796 61.01 32.52 61.01 32.256C61.034 31.968 61.19 31.74 61.478 31.572C61.67 31.404 61.886 31.332 62.126 31.356C62.39 31.38 62.63 31.5 62.846 31.716C63.494 32.556 64.274 33.24 65.186 33.768C66.122 34.272 67.226 34.524 68.498 34.524C69.17 34.524 69.83 34.416 70.478 34.2C71.15 33.96 71.702 33.612 72.134 33.156C72.566 32.676 72.782 32.076 72.782 31.356C72.782 30.612 72.566 30.012 72.134 29.556C71.702 29.1 71.138 28.74 70.442 28.476C69.77 28.212 69.05 27.984 68.282 27.792C67.466 27.576 66.674 27.336 65.906 27.072C65.138 26.784 64.454 26.436 63.854 26.028C63.278 25.596 62.81 25.08 62.45 24.48C62.09 23.88 61.91 23.148 61.91 22.284C61.91 21.276 62.186 20.388 62.738 19.62C63.29 18.852 64.034 18.252 64.97 17.82C65.93 17.388 67.01 17.172 68.21 17.172C68.81 17.172 69.458 17.256 70.154 17.424C70.85 17.568 71.534 17.82 72.206 18.18C72.878 18.54 73.478 19.032 74.006 19.656C74.222 19.872 74.33 20.124 74.33 20.412C74.33 20.676 74.21 20.916 73.97 21.132C73.778 21.276 73.55 21.348 73.286 21.348C73.046 21.348 72.842 21.252 72.674 21.06C72.098 20.412 71.414 19.92 70.622 19.584C69.83 19.248 68.978 19.08 68.066 19.08C67.37 19.08 66.71 19.2 66.086 19.44C65.486 19.656 64.982 19.992 64.574 20.448C64.166 20.904 63.962 21.504 63.962 22.248C64.01 22.944 64.25 23.508 64.682 23.94C65.138 24.372 65.726 24.732 66.446 25.02C67.19 25.308 68.018 25.572 68.93 25.812C69.698 26.004 70.43 26.232 71.126 26.496C71.846 26.76 72.47 27.096 72.998 27.504C73.55 27.888 73.982 28.38 74.294 28.98C74.63 29.58 74.798 30.336 74.798 31.248C74.798 32.304 74.498 33.216 73.898 33.984C73.322 34.752 72.542 35.34 71.558 35.748C70.574 36.156 69.482 36.36 68.282 36.36C66.986 36.36 65.726 36.108 64.502 35.604C63.302 35.1 62.234 34.26 61.298 33.084ZM104.145 9.36C104.457 9.36 104.709 9.468 104.901 9.684C105.117 9.876 105.225 10.128 105.225 10.44V34.92C105.225 35.208 105.117 35.46 104.901 35.676C104.685 35.892 104.433 36 104.145 36C103.833 36 103.569 35.892 103.353 35.676C103.161 35.46 103.065 35.208 103.065 34.92V30.636L103.677 30.132C103.677 30.804 103.497 31.512 103.137 32.256C102.777 32.976 102.261 33.648 101.589 34.272C100.941 34.896 100.173 35.4 99.2848 35.784C98.4208 36.168 97.4848 36.36 96.4768 36.36C94.8688 36.36 93.4168 35.94 92.1208 35.1C90.8488 34.26 89.8408 33.12 89.0968 31.68C88.3528 30.24 87.9808 28.596 87.9808 26.748C87.9808 24.924 88.3528 23.292 89.0968 21.852C89.8408 20.388 90.8488 19.248 92.1208 18.432C93.3928 17.592 94.8328 17.172 96.4408 17.172C97.4248 17.172 98.3608 17.352 99.2488 17.712C100.137 18.072 100.917 18.564 101.589 19.188C102.285 19.812 102.825 20.532 103.209 21.348C103.617 22.14 103.821 22.968 103.821 23.832L103.065 23.292V10.44C103.065 10.152 103.161 9.9 103.353 9.684C103.569 9.468 103.833 9.36 104.145 9.36ZM96.6568 34.344C97.9528 34.344 99.0808 34.02 100.041 33.372C101.025 32.7 101.793 31.8 102.345 30.672C102.921 29.52 103.209 28.212 103.209 26.748C103.209 25.308 102.921 24.024 102.345 22.896C101.793 21.744 101.025 20.844 100.041 20.196C99.0568 19.524 97.9288 19.188 96.6568 19.188C95.4088 19.188 94.2808 19.524 93.2728 20.196C92.2888 20.844 91.5088 21.744 90.9328 22.896C90.3808 24.024 90.1048 25.308 90.1048 26.748C90.1048 28.188 90.3808 29.484 90.9328 30.636C91.5088 31.788 92.2888 32.7 93.2728 33.372C94.2808 34.02 95.4088 34.344 96.6568 34.344ZM112.981 34.92C112.981 35.208 112.873 35.46 112.657 35.676C112.441 35.892 112.189 36 111.901 36C111.589 36 111.325 35.892 111.109 35.676C110.917 35.46 110.821 35.208 110.821 34.92V18.36C110.821 18.072 110.917 17.82 111.109 17.604C111.325 17.388 111.589 17.28 111.901 17.28C112.213 17.28 112.465 17.388 112.657 17.604C112.873 17.82 112.981 18.072 112.981 18.36V34.92ZM111.901 14.868C111.397 14.868 111.013 14.76 110.749 14.544C110.509 14.304 110.389 13.968 110.389 13.536V13.176C110.389 12.744 110.521 12.42 110.785 12.204C111.073 11.964 111.457 11.844 111.937 11.844C112.393 11.844 112.741 11.964 112.981 12.204C113.245 12.42 113.377 12.744 113.377 13.176V13.536C113.377 13.968 113.245 14.304 112.981 14.544C112.741 14.76 112.381 14.868 111.901 14.868ZM117.548 33.084C117.356 32.796 117.26 32.52 117.26 32.256C117.284 31.968 117.44 31.74 117.728 31.572C117.92 31.404 118.136 31.332 118.376 31.356C118.64 31.38 118.88 31.5 119.096 31.716C119.744 32.556 120.524 33.24 121.436 33.768C122.372 34.272 123.476 34.524 124.748 34.524C125.42 34.524 126.08 34.416 126.728 34.2C127.4 33.96 127.952 33.612 128.384 33.156C128.816 32.676 129.032 32.076 129.032 31.356C129.032 30.612 128.816 30.012 128.384 29.556C127.952 29.1 127.388 28.74 126.692 28.476C126.02 28.212 125.3 27.984 124.532 27.792C123.716 27.576 122.924 27.336 122.156 27.072C121.388 26.784 120.704 26.436 120.104 26.028C119.528 25.596 119.06 25.08 118.7 24.48C118.34 23.88 118.16 23.148 118.16 22.284C118.16 21.276 118.436 20.388 118.988 19.62C119.54 18.852 120.284 18.252 121.22 17.82C122.18 17.388 123.26 17.172 124.46 17.172C125.06 17.172 125.708 17.256 126.404 17.424C127.1 17.568 127.784 17.82 128.456 18.18C129.128 18.54 129.728 19.032 130.256 19.656C130.472 19.872 130.58 20.124 130.58 20.412C130.58 20.676 130.46 20.916 130.22 21.132C130.028 21.276 129.8 21.348 129.536 21.348C129.296 21.348 129.092 21.252 128.924 21.06C128.348 20.412 127.664 19.92 126.872 19.584C126.08 19.248 125.228 19.08 124.316 19.08C123.62 19.08 122.96 19.2 122.336 19.44C121.736 19.656 121.232 19.992 120.824 20.448C120.416 20.904 120.212 21.504 120.212 22.248C120.26 22.944 120.5 23.508 120.932 23.94C121.388 24.372 121.976 24.732 122.696 25.02C123.44 25.308 124.268 25.572 125.18 25.812C125.948 26.004 126.68 26.232 127.376 26.496C128.096 26.76 128.72 27.096 129.248 27.504C129.8 27.888 130.232 28.38 130.544 28.98C130.88 29.58 131.048 30.336 131.048 31.248C131.048 32.304 130.748 33.216 130.148 33.984C129.572 34.752 128.792 35.34 127.808 35.748C126.824 36.156 125.732 36.36 124.532 36.36C123.236 36.36 121.976 36.108 120.752 35.604C119.552 35.1 118.484 34.26 117.548 33.084ZM143.567 17.172C144.719 17.172 145.775 17.304 146.735 17.568C147.695 17.808 148.463 18.144 149.039 18.576C149.639 19.008 149.939 19.476 149.939 19.98C149.939 20.22 149.855 20.46 149.687 20.7C149.519 20.916 149.291 21.024 149.003 21.024C148.715 21.024 148.475 20.952 148.283 20.808C148.115 20.664 147.935 20.496 147.743 20.304C147.575 20.112 147.323 19.932 146.987 19.764C146.675 19.62 146.231 19.488 145.655 19.368C145.079 19.248 144.419 19.188 143.675 19.188C142.331 19.188 141.119 19.524 140.039 20.196C138.959 20.868 138.107 21.78 137.483 22.932C136.859 24.06 136.547 25.332 136.547 26.748C136.547 28.188 136.847 29.484 137.447 30.636C138.047 31.788 138.875 32.7 139.931 33.372C140.987 34.02 142.223 34.344 143.639 34.344C144.599 34.344 145.343 34.26 145.871 34.092C146.399 33.924 146.855 33.732 147.239 33.516C147.695 33.252 148.019 33 148.211 32.76C148.427 32.496 148.703 32.364 149.039 32.364C149.351 32.364 149.579 32.46 149.723 32.652C149.891 32.82 149.975 33.048 149.975 33.336C149.975 33.72 149.687 34.152 149.111 34.632C148.559 35.088 147.791 35.496 146.807 35.856C145.823 36.192 144.695 36.36 143.423 36.36C141.623 36.36 140.039 35.94 138.671 35.1C137.327 34.26 136.271 33.12 135.503 31.68C134.759 30.216 134.387 28.572 134.387 26.748C134.387 24.996 134.771 23.4 135.539 21.96C136.307 20.52 137.375 19.368 138.743 18.504C140.135 17.616 141.743 17.172 143.567 17.172ZM171.236 26.784C171.236 28.608 170.84 30.252 170.048 31.716C169.256 33.156 168.176 34.296 166.808 35.136C165.44 35.952 163.88 36.36 162.128 36.36C160.424 36.36 158.876 35.952 157.484 35.136C156.116 34.296 155.024 33.156 154.208 31.716C153.416 30.252 153.02 28.608 153.02 26.784C153.02 24.936 153.416 23.292 154.208 21.852C155.024 20.412 156.116 19.272 157.484 18.432C158.876 17.592 160.424 17.172 162.128 17.172C163.88 17.172 165.44 17.592 166.808 18.432C168.176 19.272 169.256 20.412 170.048 21.852C170.84 23.292 171.236 24.936 171.236 26.784ZM169.076 26.784C169.076 25.32 168.776 24.024 168.176 22.896C167.576 21.744 166.748 20.844 165.692 20.196C164.66 19.524 163.472 19.188 162.128 19.188C160.832 19.188 159.656 19.524 158.6 20.196C157.544 20.844 156.704 21.744 156.08 22.896C155.48 24.024 155.18 25.32 155.18 26.784C155.18 28.248 155.48 29.544 156.08 30.672C156.704 31.8 157.544 32.7 158.6 33.372C159.656 34.02 160.832 34.344 162.128 34.344C163.472 34.344 164.66 34.02 165.692 33.372C166.748 32.7 167.576 31.8 168.176 30.672C168.776 29.544 169.076 28.248 169.076 26.784ZM175.219 17.208C175.411 17.208 175.603 17.268 175.795 17.388C175.987 17.508 176.131 17.688 176.227 17.928L182.527 32.904L182.059 33.192L188.503 17.928C188.695 17.448 189.043 17.22 189.547 17.244C189.787 17.244 190.015 17.328 190.231 17.496C190.447 17.64 190.555 17.856 190.555 18.144C190.555 18.288 190.531 18.408 190.483 18.504C190.459 18.576 190.435 18.66 190.411 18.756L183.355 35.316C183.163 35.748 182.839 35.976 182.383 36C182.167 36.024 181.951 35.976 181.735 35.856C181.543 35.712 181.399 35.532 181.303 35.316L174.211 18.756C174.187 18.708 174.163 18.636 174.139 18.54C174.115 18.444 174.103 18.348 174.103 18.252C174.103 17.988 174.199 17.748 174.391 17.532C174.583 17.316 174.859 17.208 175.219 17.208ZM202.846 36.36C200.998 36.36 199.366 35.964 197.95 35.172C196.534 34.38 195.43 33.276 194.638 31.86C193.846 30.444 193.45 28.788 193.45 26.892C193.45 24.852 193.846 23.112 194.638 21.672C195.454 20.232 196.498 19.128 197.77 18.36C199.066 17.568 200.434 17.172 201.874 17.172C202.93 17.172 203.95 17.364 204.934 17.748C205.942 18.108 206.83 18.66 207.598 19.404C208.39 20.124 209.014 21.012 209.47 22.068C209.95 23.124 210.214 24.348 210.262 25.74C210.238 26.028 210.118 26.28 209.902 26.496C209.686 26.688 209.434 26.784 209.146 26.784H194.71L194.278 24.84H208.462L207.994 25.272V24.552C207.898 23.424 207.538 22.464 206.914 21.672C206.29 20.88 205.534 20.28 204.646 19.872C203.758 19.464 202.834 19.26 201.874 19.26C201.154 19.26 200.41 19.404 199.642 19.692C198.898 19.98 198.214 20.436 197.59 21.06C196.99 21.66 196.498 22.44 196.114 23.4C195.73 24.336 195.538 25.452 195.538 26.748C195.538 28.164 195.826 29.448 196.402 30.6C196.978 31.752 197.806 32.664 198.886 33.336C199.99 34.008 201.298 34.344 202.81 34.344C203.65 34.344 204.406 34.224 205.078 33.984C205.75 33.744 206.338 33.432 206.842 33.048C207.346 32.64 207.766 32.22 208.102 31.788C208.366 31.572 208.63 31.464 208.894 31.464C209.134 31.464 209.338 31.56 209.506 31.752C209.698 31.944 209.794 32.16 209.794 32.4C209.794 32.688 209.674 32.94 209.434 33.156C208.714 34.02 207.778 34.776 206.626 35.424C205.474 36.048 204.214 36.36 202.846 36.36ZM215.965 36C215.629 36 215.365 35.892 215.173 35.676C214.981 35.46 214.885 35.208 214.885 34.92V18.792C214.885 18.504 214.981 18.252 215.173 18.036C215.389 17.82 215.653 17.712 215.965 17.712C216.277 17.712 216.529 17.82 216.721 18.036C216.937 18.252 217.045 18.504 217.045 18.792V24.192L216.505 24.3C216.577 23.46 216.781 22.632 217.117 21.816C217.477 20.976 217.957 20.208 218.557 19.512C219.157 18.816 219.865 18.252 220.681 17.82C221.521 17.388 222.457 17.172 223.489 17.172C223.921 17.172 224.341 17.268 224.749 17.46C225.157 17.628 225.361 17.916 225.361 18.324C225.361 18.684 225.265 18.96 225.073 19.152C224.881 19.344 224.653 19.44 224.389 19.44C224.173 19.44 223.933 19.38 223.669 19.26C223.429 19.14 223.105 19.08 222.697 19.08C222.025 19.08 221.353 19.284 220.681 19.692C220.009 20.076 219.397 20.604 218.845 21.276C218.293 21.948 217.849 22.704 217.513 23.544C217.201 24.36 217.045 25.188 217.045 26.028V34.92C217.045 35.208 216.937 35.46 216.721 35.676C216.505 35.892 216.253 36 215.965 36ZM237.392 17.676H245.78C246.068 17.676 246.308 17.784 246.5 18C246.692 18.192 246.788 18.432 246.788 18.72C246.788 18.984 246.692 19.212 246.5 19.404C246.308 19.596 246.068 19.692 245.78 19.692H237.392C237.104 19.692 236.852 19.596 236.636 19.404C236.444 19.188 236.348 18.948 236.348 18.684C236.348 18.396 236.444 18.156 236.636 17.964C236.852 17.772 237.104 17.676 237.392 17.676ZM241.1 12.6C241.412 12.6 241.664 12.708 241.856 12.924C242.072 13.14 242.18 13.392 242.18 13.68V31.752C242.18 32.424 242.264 32.928 242.432 33.264C242.624 33.6 242.864 33.828 243.152 33.948C243.44 34.044 243.728 34.092 244.016 34.092C244.208 34.092 244.376 34.068 244.52 34.02C244.688 33.948 244.868 33.912 245.06 33.912C245.276 33.912 245.456 33.996 245.6 34.164C245.768 34.332 245.852 34.548 245.852 34.812C245.852 35.148 245.66 35.436 245.276 35.676C244.892 35.892 244.436 36 243.908 36C243.692 36 243.368 35.988 242.936 35.964C242.504 35.916 242.06 35.784 241.604 35.568C241.148 35.328 240.764 34.92 240.452 34.344C240.164 33.768 240.02 32.94 240.02 31.86V13.68C240.02 13.392 240.116 13.14 240.308 12.924C240.524 12.708 240.788 12.6 241.1 12.6ZM267.74 26.784C267.74 28.608 267.344 30.252 266.552 31.716C265.76 33.156 264.68 34.296 263.312 35.136C261.944 35.952 260.384 36.36 258.632 36.36C256.928 36.36 255.38 35.952 253.988 35.136C252.62 34.296 251.528 33.156 250.712 31.716C249.92 30.252 249.524 28.608 249.524 26.784C249.524 24.936 249.92 23.292 250.712 21.852C251.528 20.412 252.62 19.272 253.988 18.432C255.38 17.592 256.928 17.172 258.632 17.172C260.384 17.172 261.944 17.592 263.312 18.432C264.68 19.272 265.76 20.412 266.552 21.852C267.344 23.292 267.74 24.936 267.74 26.784ZM265.58 26.784C265.58 25.32 265.28 24.024 264.68 22.896C264.08 21.744 263.252 20.844 262.196 20.196C261.164 19.524 259.976 19.188 258.632 19.188C257.336 19.188 256.16 19.524 255.104 20.196C254.048 20.844 253.208 21.744 252.584 22.896C251.984 24.024 251.684 25.32 251.684 26.784C251.684 28.248 251.984 29.544 252.584 30.672C253.208 31.8 254.048 32.7 255.104 33.372C256.16 34.02 257.336 34.344 258.632 34.344C259.976 34.344 261.164 34.02 262.196 33.372C263.252 32.7 264.08 31.8 264.68 30.672C265.28 29.544 265.58 28.248 265.58 26.784ZM279.998 17.172C281.078 17.172 282.074 17.364 282.986 17.748C283.898 18.108 284.69 18.588 285.362 19.188C286.058 19.764 286.598 20.388 286.982 21.06C287.366 21.708 287.558 22.332 287.558 22.932L286.946 22.068V18.72C286.946 18.408 287.042 18.144 287.234 17.928C287.45 17.712 287.714 17.604 288.026 17.604C288.362 17.604 288.626 17.712 288.818 17.928C289.01 18.144 289.106 18.408 289.106 18.72V34.308C289.106 36.228 288.71 37.848 287.918 39.168C287.126 40.488 286.046 41.484 284.678 42.156C283.334 42.852 281.798 43.2 280.07 43.2C279.23 43.2 278.342 43.092 277.406 42.876C276.494 42.66 275.702 42.384 275.03 42.048C274.382 41.712 274.022 41.364 273.95 41.004C273.758 40.788 273.662 40.572 273.662 40.356C273.686 40.164 273.794 39.996 273.986 39.852C274.226 39.684 274.478 39.66 274.742 39.78C275.006 39.924 275.402 40.104 275.93 40.32C276.17 40.392 276.494 40.5 276.902 40.644C277.31 40.788 277.79 40.908 278.342 41.004C278.918 41.124 279.518 41.184 280.142 41.184C282.302 41.184 283.97 40.56 285.146 39.312C286.346 38.088 286.946 36.468 286.946 34.452V30.996L287.342 31.104C287.126 31.968 286.766 32.724 286.262 33.372C285.782 34.02 285.206 34.572 284.534 35.028C283.862 35.46 283.13 35.784 282.338 36C281.57 36.24 280.802 36.36 280.034 36.36C278.378 36.36 276.89 35.94 275.57 35.1C274.25 34.26 273.194 33.12 272.402 31.68C271.634 30.24 271.25 28.596 271.25 26.748C271.25 24.924 271.634 23.292 272.402 21.852C273.194 20.388 274.238 19.248 275.534 18.432C276.854 17.592 278.342 17.172 279.998 17.172ZM280.25 19.188C278.93 19.188 277.742 19.524 276.686 20.196C275.654 20.844 274.838 21.744 274.238 22.896C273.662 24.024 273.374 25.308 273.374 26.748C273.374 28.188 273.662 29.484 274.238 30.636C274.838 31.788 275.654 32.7 276.686 33.372C277.742 34.02 278.93 34.344 280.25 34.344C281.57 34.344 282.746 34.02 283.778 33.372C284.81 32.724 285.626 31.836 286.226 30.708C286.826 29.556 287.126 28.236 287.126 26.748C287.126 25.26 286.826 23.952 286.226 22.824C285.626 21.672 284.81 20.784 283.778 20.16C282.746 19.512 281.57 19.188 280.25 19.188ZM302.408 36.36C300.56 36.36 298.928 35.964 297.512 35.172C296.096 34.38 294.992 33.276 294.2 31.86C293.408 30.444 293.012 28.788 293.012 26.892C293.012 24.852 293.408 23.112 294.2 21.672C295.016 20.232 296.06 19.128 297.332 18.36C298.628 17.568 299.996 17.172 301.436 17.172C302.492 17.172 303.512 17.364 304.496 17.748C305.504 18.108 306.392 18.66 307.16 19.404C307.952 20.124 308.576 21.012 309.032 22.068C309.512 23.124 309.776 24.348 309.824 25.74C309.8 26.028 309.68 26.28 309.464 26.496C309.248 26.688 308.996 26.784 308.708 26.784H294.272L293.84 24.84H308.024L307.556 25.272V24.552C307.46 23.424 307.1 22.464 306.476 21.672C305.852 20.88 305.096 20.28 304.208 19.872C303.32 19.464 302.396 19.26 301.436 19.26C300.716 19.26 299.972 19.404 299.204 19.692C298.46 19.98 297.776 20.436 297.152 21.06C296.552 21.66 296.06 22.44 295.676 23.4C295.292 24.336 295.1 25.452 295.1 26.748C295.1 28.164 295.388 29.448 295.964 30.6C296.54 31.752 297.368 32.664 298.448 33.336C299.552 34.008 300.86 34.344 302.372 34.344C303.212 34.344 303.968 34.224 304.64 33.984C305.312 33.744 305.9 33.432 306.404 33.048C306.908 32.64 307.328 32.22 307.664 31.788C307.928 31.572 308.192 31.464 308.456 31.464C308.696 31.464 308.9 31.56 309.068 31.752C309.26 31.944 309.356 32.16 309.356 32.4C309.356 32.688 309.236 32.94 308.996 33.156C308.276 34.02 307.34 34.776 306.188 35.424C305.036 36.048 303.776 36.36 302.408 36.36ZM313.26 17.676H321.648C321.936 17.676 322.176 17.784 322.368 18C322.56 18.192 322.656 18.432 322.656 18.72C322.656 18.984 322.56 19.212 322.368 19.404C322.176 19.596 321.936 19.692 321.648 19.692H313.26C312.972 19.692 312.72 19.596 312.504 19.404C312.312 19.188 312.216 18.948 312.216 18.684C312.216 18.396 312.312 18.156 312.504 17.964C312.72 17.772 312.972 17.676 313.26 17.676ZM316.968 12.6C317.28 12.6 317.532 12.708 317.724 12.924C317.94 13.14 318.048 13.392 318.048 13.68V31.752C318.048 32.424 318.132 32.928 318.3 33.264C318.492 33.6 318.732 33.828 319.02 33.948C319.308 34.044 319.596 34.092 319.884 34.092C320.076 34.092 320.244 34.068 320.388 34.02C320.556 33.948 320.736 33.912 320.928 33.912C321.144 33.912 321.324 33.996 321.468 34.164C321.636 34.332 321.72 34.548 321.72 34.812C321.72 35.148 321.528 35.436 321.144 35.676C320.76 35.892 320.304 36 319.776 36C319.56 36 319.236 35.988 318.804 35.964C318.372 35.916 317.928 35.784 317.472 35.568C317.016 35.328 316.632 34.92 316.32 34.344C316.032 33.768 315.888 32.94 315.888 31.86V13.68C315.888 13.392 315.984 13.14 316.176 12.924C316.392 12.708 316.656 12.6 316.968 12.6ZM335.035 17.46C336.547 17.46 337.771 17.784 338.707 18.432C339.643 19.08 340.327 19.956 340.759 21.06C341.215 22.164 341.443 23.388 341.443 24.732V34.92C341.443 35.208 341.335 35.46 341.119 35.676C340.903 35.892 340.651 36 340.363 36C340.027 36 339.763 35.892 339.571 35.676C339.379 35.46 339.283 35.208 339.283 34.92V24.732C339.283 23.748 339.127 22.86 338.815 22.068C338.527 21.276 338.047 20.652 337.375 20.196C336.703 19.716 335.803 19.476 334.675 19.476C333.667 19.476 332.707 19.716 331.795 20.196C330.907 20.652 330.187 21.276 329.635 22.068C329.083 22.86 328.807 23.748 328.807 24.732V34.92C328.807 35.208 328.699 35.46 328.483 35.676C328.267 35.892 328.015 36 327.727 36C327.391 36 327.127 35.892 326.935 35.676C326.743 35.46 326.647 35.208 326.647 34.92V10.44C326.647 10.152 326.743 9.9 326.935 9.684C327.151 9.468 327.415 9.36 327.727 9.36C328.039 9.36 328.291 9.468 328.483 9.684C328.699 9.9 328.807 10.152 328.807 10.44V22.104L327.979 23.364C328.027 22.62 328.255 21.9 328.663 21.204C329.095 20.484 329.647 19.848 330.319 19.296C330.991 18.72 331.735 18.276 332.551 17.964C333.367 17.628 334.195 17.46 335.035 17.46ZM355.424 36.36C353.576 36.36 351.944 35.964 350.528 35.172C349.112 34.38 348.008 33.276 347.216 31.86C346.424 30.444 346.028 28.788 346.028 26.892C346.028 24.852 346.424 23.112 347.216 21.672C348.032 20.232 349.076 19.128 350.348 18.36C351.644 17.568 353.012 17.172 354.452 17.172C355.508 17.172 356.528 17.364 357.512 17.748C358.52 18.108 359.408 18.66 360.176 19.404C360.968 20.124 361.592 21.012 362.048 22.068C362.528 23.124 362.792 24.348 362.84 25.74C362.816 26.028 362.696 26.28 362.48 26.496C362.264 26.688 362.012 26.784 361.724 26.784H347.288L346.856 24.84H361.04L360.572 25.272V24.552C360.476 23.424 360.116 22.464 359.492 21.672C358.868 20.88 358.112 20.28 357.224 19.872C356.336 19.464 355.412 19.26 354.452 19.26C353.732 19.26 352.988 19.404 352.22 19.692C351.476 19.98 350.792 20.436 350.168 21.06C349.568 21.66 349.076 22.44 348.692 23.4C348.308 24.336 348.116 25.452 348.116 26.748C348.116 28.164 348.404 29.448 348.98 30.6C349.556 31.752 350.384 32.664 351.464 33.336C352.568 34.008 353.876 34.344 355.388 34.344C356.228 34.344 356.984 34.224 357.656 33.984C358.328 33.744 358.916 33.432 359.42 33.048C359.924 32.64 360.344 32.22 360.68 31.788C360.944 31.572 361.208 31.464 361.472 31.464C361.712 31.464 361.916 31.56 362.084 31.752C362.276 31.944 362.372 32.16 362.372 32.4C362.372 32.688 362.252 32.94 362.012 33.156C361.292 34.02 360.356 34.776 359.204 35.424C358.052 36.048 356.792 36.36 355.424 36.36ZM368.543 36C368.207 36 367.943 35.892 367.751 35.676C367.559 35.46 367.463 35.208 367.463 34.92V18.792C367.463 18.504 367.559 18.252 367.751 18.036C367.967 17.82 368.231 17.712 368.543 17.712C368.855 17.712 369.107 17.82 369.299 18.036C369.515 18.252 369.623 18.504 369.623 18.792V24.192L369.083 24.3C369.155 23.46 369.359 22.632 369.695 21.816C370.055 20.976 370.535 20.208 371.135 19.512C371.735 18.816 372.443 18.252 373.259 17.82C374.099 17.388 375.035 17.172 376.067 17.172C376.499 17.172 376.919 17.268 377.327 17.46C377.735 17.628 377.939 17.916 377.939 18.324C377.939 18.684 377.843 18.96 377.651 19.152C377.459 19.344 377.231 19.44 376.967 19.44C376.751 19.44 376.511 19.38 376.247 19.26C376.007 19.14 375.683 19.08 375.275 19.08C374.603 19.08 373.931 19.284 373.259 19.692C372.587 20.076 371.975 20.604 371.423 21.276C370.871 21.948 370.427 22.704 370.091 23.544C369.779 24.36 369.623 25.188 369.623 26.028V34.92C369.623 35.208 369.515 35.46 369.299 35.676C369.083 35.892 368.831 36 368.543 36ZM377.806 36C377.398 36 377.086 35.868 376.87 35.604C376.654 35.34 376.546 35.004 376.546 34.596V33.84C376.546 33.408 376.654 33.072 376.87 32.832C377.086 32.592 377.398 32.472 377.806 32.472H378.058C378.466 32.472 378.778 32.592 378.994 32.832C379.21 33.072 379.318 33.408 379.318 33.84V34.596C379.318 35.004 379.21 35.34 378.994 35.604C378.778 35.868 378.466 36 378.058 36H377.806Z" fill="white"/>
</svg>
