<svg width="136" height="46" viewBox="0 0 136 46" fill="none" xmlns="http://www.w3.org/2000/svg">
<path d="M14.3282 10.8C16.3442 10.8 17.9162 11.352 19.0442 12.456C20.1962 13.536 20.7722 15.048 20.7722 16.992C20.7722 18 20.5562 18.96 20.1242 19.872C19.6922 20.784 19.0562 21.528 18.2162 22.104C17.3762 22.656 16.3322 22.968 15.0842 23.04L14.9402 22.32C15.8282 22.32 16.6922 22.452 17.5322 22.716C18.3962 22.956 19.1642 23.352 19.8362 23.904C20.5082 24.456 21.0482 25.152 21.4562 25.992C21.8642 26.808 22.0682 27.804 22.0682 28.98C22.0682 30.228 21.8522 31.308 21.4202 32.22C21.0122 33.108 20.4482 33.828 19.7282 34.38C19.0322 34.932 18.2282 35.34 17.3162 35.604C16.4042 35.868 15.4562 36 14.4722 36H4.78822C4.50022 36 4.24822 35.892 4.03222 35.676C3.81622 35.46 3.70822 35.208 3.70822 34.92V11.88C3.70822 11.592 3.81622 11.34 4.03222 11.124C4.24822 10.908 4.50022 10.8 4.78822 10.8H14.3282ZM14.0402 12.924H5.58022L6.01222 12.276V22.464L5.61622 21.924H14.0402C15.2882 21.9 16.3322 21.492 17.1722 20.7C18.0362 19.908 18.4682 18.732 18.4682 17.172C18.4682 15.852 18.0842 14.82 17.3162 14.076C16.5482 13.308 15.4562 12.924 14.0402 12.924ZM14.2922 24.084H5.83222L6.01222 23.868V34.2L5.79622 33.876H14.3642C15.9002 33.876 17.1842 33.492 18.2162 32.724C19.2482 31.932 19.7642 30.684 19.7642 28.98C19.7642 27.78 19.5122 26.82 19.0082 26.1C18.5042 25.38 17.8322 24.864 16.9922 24.552C16.1522 24.24 15.2522 24.084 14.2922 24.084ZM34.8983 36.36C33.0503 36.36 31.4183 35.964 30.0023 35.172C28.5863 34.38 27.4823 33.276 26.6903 31.86C25.8983 30.444 25.5023 28.788 25.5023 26.892C25.5023 24.852 25.8983 23.112 26.6903 21.672C27.5063 20.232 28.5503 19.128 29.8223 18.36C31.1183 17.568 32.4863 17.172 33.9263 17.172C34.9823 17.172 36.0023 17.364 36.9863 17.748C37.9943 18.108 38.8823 18.66 39.6503 19.404C40.4423 20.124 41.0663 21.012 41.5223 22.068C42.0023 23.124 42.2663 24.348 42.3143 25.74C42.2903 26.028 42.1703 26.28 41.9543 26.496C41.7383 26.688 41.4863 26.784 41.1983 26.784H26.7623L26.3303 24.84H40.5143L40.0463 25.272V24.552C39.9503 23.424 39.5903 22.464 38.9663 21.672C38.3423 20.88 37.5863 20.28 36.6983 19.872C35.8103 19.464 34.8863 19.26 33.9263 19.26C33.2063 19.26 32.4623 19.404 31.6943 19.692C30.9503 19.98 30.2663 20.436 29.6423 21.06C29.0423 21.66 28.5503 22.44 28.1663 23.4C27.7823 24.336 27.5903 25.452 27.5903 26.748C27.5903 28.164 27.8783 29.448 28.4543 30.6C29.0303 31.752 29.8583 32.664 30.9383 33.336C32.0423 34.008 33.3503 34.344 34.8623 34.344C35.7023 34.344 36.4583 34.224 37.1303 33.984C37.8023 33.744 38.3903 33.432 38.8943 33.048C39.3983 32.64 39.8183 32.22 40.1543 31.788C40.4183 31.572 40.6823 31.464 40.9463 31.464C41.1863 31.464 41.3903 31.56 41.5583 31.752C41.7503 31.944 41.8463 32.16 41.8463 32.4C41.8463 32.688 41.7263 32.94 41.4863 33.156C40.7663 34.02 39.8303 34.776 38.6783 35.424C37.5263 36.048 36.2663 36.36 34.8983 36.36ZM55.6138 17.172C57.1978 17.172 58.4578 17.496 59.3938 18.144C60.3538 18.768 61.0378 19.632 61.4458 20.736C61.8778 21.816 62.0938 23.016 62.0938 24.336V34.92C62.0938 35.208 61.9858 35.46 61.7698 35.676C61.5538 35.892 61.3018 36 61.0138 36C60.6778 36 60.4138 35.892 60.2218 35.676C60.0298 35.46 59.9338 35.208 59.9338 34.92V24.444C59.9338 23.484 59.7778 22.608 59.4658 21.816C59.1538 21.024 58.6378 20.388 57.9178 19.908C57.2218 19.428 56.2978 19.188 55.1458 19.188C54.1138 19.188 53.1298 19.428 52.1938 19.908C51.2818 20.388 50.5378 21.024 49.9618 21.816C49.3858 22.608 49.0978 23.484 49.0978 24.444V34.92C49.0978 35.208 48.9898 35.46 48.7738 35.676C48.5578 35.892 48.3058 36 48.0178 36C47.6818 36 47.4178 35.892 47.2258 35.676C47.0338 35.46 46.9378 35.208 46.9378 34.92V18.792C46.9378 18.504 47.0338 18.252 47.2258 18.036C47.4418 17.82 47.7058 17.712 48.0178 17.712C48.3298 17.712 48.5818 17.82 48.7738 18.036C48.9898 18.252 49.0978 18.504 49.0978 18.792V21.816L48.2698 23.112C48.3178 22.344 48.5578 21.612 48.9898 20.916C49.4458 20.196 50.0218 19.56 50.7178 19.008C51.4138 18.432 52.1818 17.988 53.0218 17.676C53.8858 17.34 54.7498 17.172 55.6138 17.172ZM76.0663 36.36C74.2183 36.36 72.5863 35.964 71.1703 35.172C69.7543 34.38 68.6503 33.276 67.8583 31.86C67.0663 30.444 66.6703 28.788 66.6703 26.892C66.6703 24.852 67.0663 23.112 67.8583 21.672C68.6743 20.232 69.7183 19.128 70.9903 18.36C72.2863 17.568 73.6543 17.172 75.0943 17.172C76.1503 17.172 77.1703 17.364 78.1543 17.748C79.1623 18.108 80.0503 18.66 80.8183 19.404C81.6103 20.124 82.2343 21.012 82.6903 22.068C83.1703 23.124 83.4343 24.348 83.4823 25.74C83.4583 26.028 83.3383 26.28 83.1223 26.496C82.9063 26.688 82.6543 26.784 82.3663 26.784H67.9303L67.4983 24.84H81.6823L81.2143 25.272V24.552C81.1183 23.424 80.7583 22.464 80.1343 21.672C79.5103 20.88 78.7543 20.28 77.8663 19.872C76.9783 19.464 76.0543 19.26 75.0943 19.26C74.3743 19.26 73.6303 19.404 72.8623 19.692C72.1183 19.98 71.4343 20.436 70.8103 21.06C70.2103 21.66 69.7183 22.44 69.3343 23.4C68.9503 24.336 68.7583 25.452 68.7583 26.748C68.7583 28.164 69.0463 29.448 69.6223 30.6C70.1983 31.752 71.0263 32.664 72.1063 33.336C73.2103 34.008 74.5183 34.344 76.0303 34.344C76.8703 34.344 77.6263 34.224 78.2983 33.984C78.9703 33.744 79.5583 33.432 80.0623 33.048C80.5663 32.64 80.9863 32.22 81.3223 31.788C81.5863 31.572 81.8503 31.464 82.1143 31.464C82.3543 31.464 82.5583 31.56 82.7263 31.752C82.9183 31.944 83.0143 32.16 83.0143 32.4C83.0143 32.688 82.8943 32.94 82.6543 33.156C81.9343 34.02 80.9983 34.776 79.8463 35.424C78.6943 36.048 77.4343 36.36 76.0663 36.36ZM94.7657 9.504C95.1257 9.504 95.5097 9.54 95.9177 9.612C96.3497 9.684 96.7217 9.816 97.0337 10.008C97.3457 10.176 97.5017 10.44 97.5017 10.8C97.5017 11.064 97.4057 11.304 97.2137 11.52C97.0217 11.712 96.8057 11.808 96.5657 11.808C96.3257 11.808 96.0257 11.748 95.6657 11.628C95.3057 11.484 94.9217 11.412 94.5137 11.412C94.0097 11.412 93.5777 11.532 93.2177 11.772C92.8577 11.988 92.5817 12.312 92.3897 12.744C92.1977 13.152 92.1017 13.656 92.1017 14.256V34.92C92.1017 35.208 91.9937 35.46 91.7777 35.676C91.5857 35.892 91.3337 36 91.0217 36C90.7097 36 90.4457 35.892 90.2297 35.676C90.0377 35.46 89.9417 35.208 89.9417 34.92V14.256C89.9417 12.72 90.3857 11.544 91.2737 10.728C92.1857 9.912 93.3497 9.504 94.7657 9.504ZM96.1337 17.964C96.4217 17.964 96.6617 18.06 96.8537 18.252C97.0457 18.444 97.1417 18.684 97.1417 18.972C97.1417 19.26 97.0457 19.5 96.8537 19.692C96.6617 19.884 96.4217 19.98 96.1337 19.98H87.3137C87.0497 19.98 86.8097 19.884 86.5937 19.692C86.4017 19.476 86.3057 19.236 86.3057 18.972C86.3057 18.66 86.4017 18.42 86.5937 18.252C86.8097 18.06 87.0497 17.964 87.3137 17.964H96.1337ZM103.154 34.92C103.154 35.208 103.046 35.46 102.83 35.676C102.614 35.892 102.362 36 102.074 36C101.762 36 101.498 35.892 101.282 35.676C101.09 35.46 100.994 35.208 100.994 34.92V18.36C100.994 18.072 101.09 17.82 101.282 17.604C101.498 17.388 101.762 17.28 102.074 17.28C102.386 17.28 102.638 17.388 102.83 17.604C103.046 17.82 103.154 18.072 103.154 18.36V34.92ZM102.074 14.868C101.57 14.868 101.186 14.76 100.922 14.544C100.682 14.304 100.562 13.968 100.562 13.536V13.176C100.562 12.744 100.694 12.42 100.958 12.204C101.246 11.964 101.63 11.844 102.11 11.844C102.566 11.844 102.914 11.964 103.154 12.204C103.418 12.42 103.55 12.744 103.55 13.176V13.536C103.55 13.968 103.418 14.304 103.154 14.544C102.914 14.76 102.554 14.868 102.074 14.868ZM107.554 17.676H115.942C116.23 17.676 116.47 17.784 116.662 18C116.854 18.192 116.95 18.432 116.95 18.72C116.95 18.984 116.854 19.212 116.662 19.404C116.47 19.596 116.23 19.692 115.942 19.692H107.554C107.266 19.692 107.014 19.596 106.798 19.404C106.606 19.188 106.51 18.948 106.51 18.684C106.51 18.396 106.606 18.156 106.798 17.964C107.014 17.772 107.266 17.676 107.554 17.676ZM111.262 12.6C111.574 12.6 111.826 12.708 112.018 12.924C112.234 13.14 112.342 13.392 112.342 13.68V31.752C112.342 32.424 112.426 32.928 112.594 33.264C112.786 33.6 113.026 33.828 113.314 33.948C113.602 34.044 113.89 34.092 114.178 34.092C114.37 34.092 114.538 34.068 114.682 34.02C114.85 33.948 115.03 33.912 115.222 33.912C115.438 33.912 115.618 33.996 115.762 34.164C115.93 34.332 116.014 34.548 116.014 34.812C116.014 35.148 115.822 35.436 115.438 35.676C115.054 35.892 114.598 36 114.07 36C113.854 36 113.53 35.988 113.098 35.964C112.666 35.916 112.222 35.784 111.766 35.568C111.31 35.328 110.926 34.92 110.614 34.344C110.326 33.768 110.182 32.94 110.182 31.86V13.68C110.182 13.392 110.278 13.14 110.47 12.924C110.686 12.708 110.95 12.6 111.262 12.6ZM120.601 33.084C120.409 32.796 120.313 32.52 120.313 32.256C120.337 31.968 120.493 31.74 120.781 31.572C120.973 31.404 121.189 31.332 121.429 31.356C121.693 31.38 121.933 31.5 122.149 31.716C122.797 32.556 123.577 33.24 124.489 33.768C125.425 34.272 126.529 34.524 127.801 34.524C128.473 34.524 129.133 34.416 129.781 34.2C130.453 33.96 131.005 33.612 131.437 33.156C131.869 32.676 132.085 32.076 132.085 31.356C132.085 30.612 131.869 30.012 131.437 29.556C131.005 29.1 130.441 28.74 129.745 28.476C129.073 28.212 128.353 27.984 127.585 27.792C126.769 27.576 125.977 27.336 125.209 27.072C124.441 26.784 123.757 26.436 123.157 26.028C122.581 25.596 122.113 25.08 121.753 24.48C121.393 23.88 121.213 23.148 121.213 22.284C121.213 21.276 121.489 20.388 122.041 19.62C122.593 18.852 123.337 18.252 124.273 17.82C125.233 17.388 126.313 17.172 127.513 17.172C128.113 17.172 128.761 17.256 129.457 17.424C130.153 17.568 130.837 17.82 131.509 18.18C132.181 18.54 132.781 19.032 133.309 19.656C133.525 19.872 133.633 20.124 133.633 20.412C133.633 20.676 133.513 20.916 133.273 21.132C133.081 21.276 132.853 21.348 132.589 21.348C132.349 21.348 132.145 21.252 131.977 21.06C131.401 20.412 130.717 19.92 129.925 19.584C129.133 19.248 128.281 19.08 127.369 19.08C126.673 19.08 126.013 19.2 125.389 19.44C124.789 19.656 124.285 19.992 123.877 20.448C123.469 20.904 123.265 21.504 123.265 22.248C123.313 22.944 123.553 23.508 123.985 23.94C124.441 24.372 125.029 24.732 125.749 25.02C126.493 25.308 127.321 25.572 128.233 25.812C129.001 26.004 129.733 26.232 130.429 26.496C131.149 26.76 131.773 27.096 132.301 27.504C132.853 27.888 133.285 28.38 133.597 28.98C133.933 29.58 134.101 30.336 134.101 31.248C134.101 32.304 133.801 33.216 133.201 33.984C132.625 34.752 131.845 35.34 130.861 35.748C129.877 36.156 128.785 36.36 127.585 36.36C126.289 36.36 125.029 36.108 123.805 35.604C122.605 35.1 121.537 34.26 120.601 33.084Z" fill="white"/>
</svg>
