<svg width="96" height="26" viewBox="0 0 96 26" fill="none" xmlns="http://www.w3.org/2000/svg">
<path d="M1.15607 -4.78509e-06C1.44508 -4.78509e-06 1.69796 0.108374 1.91472 0.325131C2.15556 0.541888 2.27598 0.806814 2.27598 1.11991V24.1684C2.25189 24.4815 2.11943 24.7464 1.87859 24.9632C1.66183 25.18 1.40895 25.2883 1.11994 25.2883C0.782762 25.2883 0.505795 25.18 0.289038 24.9632C0.0963646 24.7464 2.80825e-05 24.4815 2.80825e-05 24.1684V1.11991C2.80825e-05 0.806814 0.108407 0.541888 0.325164 0.325131C0.541921 0.108374 0.818888 -4.78509e-06 1.15607 -4.78509e-06ZM18.0992 -4.78509e-06C18.4364 -4.78509e-06 18.7014 0.108374 18.894 0.325131C19.1108 0.541888 19.2192 0.806814 19.2192 1.11991V24.1684C19.1951 24.4815 19.0747 24.7464 18.8579 24.9632C18.6652 25.18 18.4003 25.2883 18.0631 25.2883C17.75 25.2883 17.4851 25.18 17.2683 24.9632C17.0516 24.7464 16.9432 24.4815 16.9432 24.1684V1.11991C16.9432 0.806814 17.0516 0.541888 17.2683 0.325131C17.5092 0.108374 17.7862 -4.78509e-06 18.0992 -4.78509e-06ZM0.975435 11.3075H18.1354L18.0992 13.4028H0.83093L0.975435 11.3075ZM42.6552 16.04C42.6552 17.8704 42.2578 19.5202 41.463 20.9893C40.6682 22.4344 39.5845 23.5784 38.2117 24.4213C36.8389 25.2402 35.2734 25.6496 33.5153 25.6496C31.8053 25.6496 30.2519 25.2402 28.855 24.4213C27.4822 23.5784 26.3864 22.4344 25.5675 20.9893C24.7727 19.5202 24.3753 17.8704 24.3753 16.04C24.3753 14.1855 24.7727 12.5358 25.5675 11.0907C26.3864 9.64569 27.4822 8.50169 28.855 7.65875C30.2519 6.8158 31.8053 6.39433 33.5153 6.39433C35.2734 6.39433 36.8389 6.8158 38.2117 7.65875C39.5845 8.50169 40.6682 9.64569 41.463 11.0907C42.2578 12.5358 42.6552 14.1855 42.6552 16.04ZM40.4876 16.04C40.4876 14.5709 40.1866 13.2703 39.5845 12.1384C38.9823 10.9824 38.1514 10.0792 37.0917 9.42893C36.0561 8.75458 34.864 8.4174 33.5153 8.4174C32.2147 8.4174 31.0346 8.75458 29.9749 9.42893C28.9152 10.0792 28.0722 10.9824 27.4461 12.1384C26.8439 13.2703 26.5429 14.5709 26.5429 16.04C26.5429 17.5092 26.8439 18.8097 27.4461 19.9417C28.0722 21.0736 28.9152 21.9768 29.9749 22.6511C31.0346 23.3014 32.2147 23.6265 33.5153 23.6265C34.864 23.6265 36.0561 23.3014 37.0917 22.6511C38.1514 21.9768 38.9823 21.0736 39.5845 19.9417C40.1866 18.8097 40.4876 17.5092 40.4876 16.04ZM55.5709 6.68334C57.0641 6.68334 58.3405 7.08073 59.4002 7.87551C60.4599 8.6462 61.1825 9.80224 61.5678 11.3436L61.062 11.4881L61.2788 10.8379C61.5919 10.1153 62.1097 9.44097 62.8322 8.81479C63.5788 8.16451 64.4218 7.64671 65.3611 7.26136C66.3003 6.87601 67.2517 6.68334 68.215 6.68334C69.7323 6.68334 70.9486 7.00848 71.8638 7.65875C72.803 8.30902 73.4774 9.18809 73.8868 10.296C74.3203 11.3797 74.5371 12.608 74.5371 13.9808V24.2045C74.5371 24.4936 74.4287 24.7464 74.212 24.9632C74.0193 25.18 73.7664 25.2883 73.4533 25.2883C73.1402 25.2883 72.8753 25.18 72.6585 24.9632C72.4659 24.7464 72.3695 24.4936 72.3695 24.2045V14.0892C72.3695 13.1018 72.213 12.1986 71.8999 11.3797C71.5868 10.5609 71.0931 9.91061 70.4187 9.42893C69.7444 8.94725 68.8412 8.70641 67.7093 8.70641C66.7218 8.70641 65.7705 8.94725 64.8553 9.42893C63.9642 9.91061 63.2296 10.5609 62.6516 11.3797C62.0977 12.1986 61.8207 13.1018 61.8207 14.0892V24.2045C61.8207 24.4936 61.7123 24.7464 61.4956 24.9632C61.3029 25.18 61.05 25.2883 60.7369 25.2883C60.4238 25.2883 60.1589 25.18 59.9421 24.9632C59.7495 24.7464 59.6531 24.4936 59.6531 24.2045V13.9808C59.6531 12.9934 59.5086 12.1023 59.2196 11.3075C58.9306 10.5127 58.461 9.88653 57.8107 9.42893C57.1604 8.94725 56.2813 8.70641 55.1735 8.70641C54.186 8.70641 53.2467 8.94725 52.3556 9.42893C51.4886 9.88653 50.7781 10.5127 50.2242 11.3075C49.6943 12.1023 49.4294 12.9934 49.4294 13.9808V24.2045C49.4294 24.4936 49.321 24.7464 49.1043 24.9632C48.8875 25.18 48.6346 25.2883 48.3456 25.2883C48.0084 25.2883 47.7435 25.18 47.5508 24.9632C47.3582 24.7464 47.2618 24.4936 47.2618 24.2045V8.02001C47.2618 7.731 47.3582 7.47812 47.5508 7.26136C47.7676 7.0446 48.0325 6.93622 48.3456 6.93622C48.6587 6.93622 48.9116 7.0446 49.1043 7.26136C49.321 7.47812 49.4294 7.731 49.4294 8.02001V11.3797L48.454 12.7164C48.5262 11.9939 48.755 11.2714 49.1404 10.5488C49.5498 9.82632 50.0797 9.17605 50.7299 8.59803C51.3802 8.02001 52.1148 7.56241 52.9336 7.22523C53.7766 6.86397 54.6557 6.68334 55.5709 6.68334ZM88.558 25.6496C86.7035 25.6496 85.0658 25.2522 83.6449 24.4574C82.2239 23.6627 81.116 22.5548 80.3212 21.1338C79.5265 19.7129 79.1291 18.051 79.1291 16.1484C79.1291 14.1013 79.5265 12.3552 80.3212 10.9101C81.1401 9.46506 82.1878 8.35719 83.4642 7.5865C84.7648 6.79172 86.1376 6.39433 87.5826 6.39433C88.6423 6.39433 89.6659 6.587 90.6533 6.97235C91.6649 7.33361 92.556 7.88755 93.3267 8.63416C94.1215 9.35668 94.7476 10.2478 95.2052 11.3075C95.6869 12.3672 95.9518 13.5955 96 14.9924C95.9759 15.2814 95.8555 15.5343 95.6388 15.751C95.422 15.9437 95.1691 16.04 94.8801 16.04H80.3935L79.96 14.0892H94.1937L93.7241 14.5227V13.8002C93.6277 12.6682 93.2665 11.7049 92.6403 10.9101C92.0141 10.1153 91.2554 9.51323 90.3643 9.1038C89.4732 8.69437 88.546 8.48965 87.5826 8.48965C86.8601 8.48965 86.1135 8.63416 85.3428 8.92317C84.5962 9.21217 83.9098 9.66977 83.2836 10.296C82.6815 10.8981 82.1878 11.6808 81.8024 12.6442C81.4171 13.5834 81.2244 14.7034 81.2244 16.0039C81.2244 17.4249 81.5134 18.7134 82.0914 19.8694C82.6694 21.0254 83.5004 21.9406 84.5841 22.615C85.692 23.2893 87.0046 23.6265 88.5219 23.6265C89.3648 23.6265 90.1235 23.5061 90.7978 23.2653C91.4722 23.0244 92.0623 22.7113 92.568 22.326C93.0738 21.9166 93.4953 21.4951 93.8324 21.0616C94.0974 20.8448 94.3623 20.7364 94.6272 20.7364C94.8681 20.7364 95.0728 20.8328 95.2414 21.0254C95.434 21.2181 95.5304 21.4349 95.5304 21.6757C95.5304 21.9647 95.41 22.2176 95.1691 22.4344C94.4466 23.3014 93.5073 24.06 92.3513 24.7103C91.1952 25.3365 89.9308 25.6496 88.558 25.6496Z" fill="white"/>
</svg>
