<svg width="259" height="26" viewBox="0 0 259 26" fill="none" xmlns="http://www.w3.org/2000/svg">
<path d="M1.08333 0.361169C1.25185 0.361169 1.42037 0.397281 1.58889 0.469504C1.78148 0.541727 1.93797 0.662097 2.05834 0.830616L12.025 15.7807L11.05 15.7445L21.0528 0.830616C21.3177 0.469504 21.6427 0.313022 22.0278 0.361169C22.3167 0.361169 22.5575 0.469503 22.7501 0.68617C22.9667 0.878764 23.0751 1.13154 23.0751 1.44451V24.5557C23.0751 24.8446 22.9667 25.0974 22.7501 25.314C22.5334 25.5307 22.2686 25.639 21.9556 25.639C21.6186 25.639 21.3417 25.5307 21.1251 25.314C20.9084 25.0974 20.8001 24.8446 20.8001 24.5557V3.64729L21.4501 3.71951L12.3139 17.5501C12.2417 17.6946 12.1334 17.8149 11.9889 17.9112C11.8445 17.9834 11.676 18.0075 11.4834 17.9834C11.3148 18.0075 11.1463 17.9834 10.9778 17.9112C10.8334 17.8149 10.713 17.6946 10.6167 17.5501L1.44445 3.57507L2.13056 3.10562V24.5557C2.13056 24.8446 2.02223 25.0974 1.80556 25.314C1.61297 25.5307 1.36019 25.639 1.04722 25.639C0.734259 25.639 0.48148 25.5307 0.288887 25.314C0.0962941 25.0974 -2.54102e-06 24.8446 -2.54102e-06 24.5557V1.44451C-2.54102e-06 1.15562 0.0962941 0.902838 0.288887 0.68617C0.505555 0.469503 0.77037 0.361169 1.08333 0.361169ZM31.4221 24.5557C31.4221 24.8446 31.3138 25.0974 31.0971 25.314C30.8805 25.5307 30.6277 25.639 30.3388 25.639C30.0258 25.639 29.761 25.5307 29.5443 25.314C29.3517 25.0974 29.2554 24.8446 29.2554 24.5557V7.94453C29.2554 7.65564 29.3517 7.40286 29.5443 7.18619C29.761 6.96952 30.0258 6.86119 30.3388 6.86119C30.6517 6.86119 30.9045 6.96952 31.0971 7.18619C31.3138 7.40286 31.4221 7.65564 31.4221 7.94453V24.5557ZM30.3388 4.44174C29.8332 4.44174 29.448 4.3334 29.1832 4.11674C28.9425 3.876 28.8221 3.53896 28.8221 3.10562V2.74451C28.8221 2.31118 28.9545 1.98618 29.2193 1.76951C29.5082 1.52877 29.8934 1.4084 30.3749 1.4084C30.8323 1.4084 31.1814 1.52877 31.4221 1.76951C31.6869 1.98618 31.8193 2.31118 31.8193 2.74451V3.10562C31.8193 3.53896 31.6869 3.876 31.4221 4.11674C31.1814 4.3334 30.8203 4.44174 30.3388 4.44174ZM36.0034 22.714C35.8109 22.4251 35.7146 22.1483 35.7146 21.8835C35.7386 21.5946 35.8951 21.3659 36.184 21.1973C36.3766 21.0288 36.5933 20.9566 36.834 20.9807C37.0988 21.0048 37.3396 21.1251 37.5562 21.3418C38.2062 22.1844 38.9886 22.8705 39.9035 23.4001C40.8424 23.9057 41.9498 24.1585 43.2257 24.1585C43.8998 24.1585 44.5618 24.0501 45.2118 23.8335C45.8859 23.5927 46.4396 23.2436 46.8729 22.7862C47.3063 22.3048 47.5229 21.7029 47.5229 20.9807C47.5229 20.2344 47.3063 19.6325 46.8729 19.1751C46.4396 18.7177 45.8738 18.3566 45.1757 18.0918C44.5016 17.827 43.7794 17.5983 43.009 17.4057C42.1905 17.189 41.3961 16.9483 40.6257 16.6834C39.8553 16.3946 39.1692 16.0455 38.5673 15.6362C37.9896 15.2029 37.5201 14.6853 37.159 14.0834C36.7979 13.4816 36.6173 12.7473 36.6173 11.8806C36.6173 10.8695 36.8942 9.97879 37.4479 9.20842C38.0016 8.43805 38.7479 7.83619 39.6868 7.40286C40.6498 6.96952 41.7331 6.75286 42.9368 6.75286C43.5387 6.75286 44.1887 6.83712 44.8868 7.00563C45.585 7.15008 46.2711 7.40286 46.9451 7.76397C47.6192 8.12508 48.2211 8.6186 48.7507 9.24453C48.9674 9.4612 49.0757 9.71398 49.0757 10.0029C49.0757 10.2677 48.9553 10.5084 48.7146 10.7251C48.522 10.8695 48.2933 10.9418 48.0285 10.9418C47.7877 10.9418 47.5831 10.8455 47.4146 10.6529C46.8368 10.0029 46.1507 9.50935 45.3563 9.17231C44.5618 8.83527 43.7072 8.66675 42.7924 8.66675C42.0942 8.66675 41.4322 8.78712 40.8062 9.02786C40.2044 9.24453 39.6988 9.58157 39.2896 10.039C38.8803 10.4964 38.6757 11.0982 38.6757 11.8445C38.7238 12.5427 38.9646 13.1084 39.3979 13.5418C39.8553 13.9751 40.4451 14.3362 41.1674 14.6251C41.9137 14.914 42.7442 15.1788 43.659 15.4195C44.4294 15.6121 45.1637 15.8408 45.8618 16.1057C46.584 16.3705 47.21 16.7075 47.7396 17.1168C48.2933 17.502 48.7266 17.9955 49.0396 18.5973C49.3766 19.1992 49.5452 19.9575 49.5452 20.8723C49.5452 21.9316 49.2442 22.8464 48.6424 23.6168C48.0646 24.3872 47.2822 24.977 46.2951 25.3862C45.3081 25.7955 44.2127 26.0001 43.009 26.0001C41.709 26.0001 40.4451 25.7474 39.2173 25.2418C38.0136 24.7362 36.9423 23.8936 36.0034 22.714ZM52.9306 22.714C52.738 22.4251 52.6417 22.1483 52.6417 21.8835C52.6658 21.5946 52.8222 21.3659 53.1111 21.1973C53.3037 21.0288 53.5204 20.9566 53.7611 20.9807C54.026 21.0048 54.2667 21.1251 54.4834 21.3418C55.1334 22.1844 55.9158 22.8705 56.8306 23.4001C57.7695 23.9057 58.8769 24.1585 60.1528 24.1585C60.8269 24.1585 61.4889 24.0501 62.1389 23.8335C62.813 23.5927 63.3667 23.2436 63.8001 22.7862C64.2334 22.3048 64.4501 21.7029 64.4501 20.9807C64.4501 20.2344 64.2334 19.6325 63.8001 19.1751C63.3667 18.7177 62.801 18.3566 62.1028 18.0918C61.4288 17.827 60.7065 17.5983 59.9362 17.4057C59.1176 17.189 58.3232 16.9483 57.5528 16.6834C56.7824 16.3946 56.0963 16.0455 55.4945 15.6362C54.9167 15.2029 54.4473 14.6853 54.0861 14.0834C53.725 13.4816 53.5445 12.7473 53.5445 11.8806C53.5445 10.8695 53.8213 9.97879 54.375 9.20842C54.9287 8.43805 55.675 7.83619 56.6139 7.40286C57.5769 6.96952 58.6602 6.75286 59.8639 6.75286C60.4658 6.75286 61.1158 6.83712 61.8139 7.00563C62.5121 7.15008 63.1982 7.40286 63.8723 7.76397C64.5464 8.12508 65.1482 8.6186 65.6778 9.24453C65.8945 9.4612 66.0028 9.71398 66.0028 10.0029C66.0028 10.2677 65.8825 10.5084 65.6417 10.7251C65.4491 10.8695 65.2204 10.9418 64.9556 10.9418C64.7149 10.9418 64.5102 10.8455 64.3417 10.6529C63.7639 10.0029 63.0778 9.50935 62.2834 9.17231C61.4889 8.83527 60.6343 8.66675 59.7195 8.66675C59.0213 8.66675 58.3593 8.78712 57.7334 9.02786C57.1315 9.24453 56.626 9.58157 56.2167 10.039C55.8074 10.4964 55.6028 11.0982 55.6028 11.8445C55.651 12.5427 55.8917 13.1084 56.325 13.5418C56.7824 13.9751 57.3723 14.3362 58.0945 14.6251C58.8408 14.914 59.6713 15.1788 60.5862 15.4195C61.3565 15.6121 62.0908 15.8408 62.7889 16.1057C63.5112 16.3705 64.1371 16.7075 64.6667 17.1168C65.2204 17.502 65.6538 17.9955 65.9667 18.5973C66.3038 19.1992 66.4723 19.9575 66.4723 20.8723C66.4723 21.9316 66.1714 22.8464 65.5695 23.6168C64.9917 24.3872 64.2093 24.977 63.2223 25.3862C62.2352 25.7955 61.1399 26.0001 59.9362 26.0001C58.6362 26.0001 57.3723 25.7474 56.1445 25.2418C54.9408 24.7362 53.8695 23.8936 52.9306 22.714ZM72.9994 24.5557C72.9994 24.8446 72.8911 25.0974 72.6744 25.314C72.4577 25.5307 72.2049 25.639 71.9161 25.639C71.6031 25.639 71.3383 25.5307 71.1216 25.314C70.929 25.0974 70.8327 24.8446 70.8327 24.5557V7.94453C70.8327 7.65564 70.929 7.40286 71.1216 7.18619C71.3383 6.96952 71.6031 6.86119 71.9161 6.86119C72.229 6.86119 72.4818 6.96952 72.6744 7.18619C72.8911 7.40286 72.9994 7.65564 72.9994 7.94453V24.5557ZM71.9161 4.44174C71.4105 4.44174 71.0253 4.3334 70.7605 4.11674C70.5198 3.876 70.3994 3.53896 70.3994 3.10562V2.74451C70.3994 2.31118 70.5318 1.98618 70.7966 1.76951C71.0855 1.52877 71.4707 1.4084 71.9522 1.4084C72.4096 1.4084 72.7587 1.52877 72.9994 1.76951C73.2642 1.98618 73.3966 2.31118 73.3966 2.74451V3.10562C73.3966 3.53896 73.2642 3.876 72.9994 4.11674C72.7587 4.3334 72.3975 4.44174 71.9161 4.44174ZM95.8169 16.3946C95.8169 18.2242 95.4197 19.8733 94.6252 21.3418C93.8308 22.7862 92.7474 23.9298 91.3752 24.7724C90.003 25.5909 88.4382 26.0001 86.6807 26.0001C84.9715 26.0001 83.4187 25.5909 82.0224 24.7724C80.6502 23.9298 79.5548 22.7862 78.7363 21.3418C77.9418 19.8733 77.5446 18.2242 77.5446 16.3946C77.5446 14.5408 77.9418 12.8918 78.7363 11.4473C79.5548 10.0029 80.6502 8.85934 82.0224 8.01675C83.4187 7.17415 84.9715 6.75286 86.6807 6.75286C88.4382 6.75286 90.003 7.17415 91.3752 8.01675C92.7474 8.85934 93.8308 10.0029 94.6252 11.4473C95.4197 12.8918 95.8169 14.5408 95.8169 16.3946ZM93.6502 16.3946C93.6502 14.926 93.3493 13.626 92.7474 12.4945C92.1456 11.339 91.315 10.4362 90.2558 9.7862C89.2206 9.11212 88.0289 8.77508 86.6807 8.77508C85.3807 8.77508 84.2011 9.11212 83.1418 9.7862C82.0826 10.4362 81.24 11.339 80.6141 12.4945C80.0122 13.626 79.7113 14.926 79.7113 16.3946C79.7113 17.8631 80.0122 19.1631 80.6141 20.2946C81.24 21.426 82.0826 22.3288 83.1418 23.0029C84.2011 23.6529 85.3807 23.9779 86.6807 23.9779C88.0289 23.9779 89.2206 23.6529 90.2558 23.0029C91.315 22.3288 92.1456 21.426 92.7474 20.2946C93.3493 19.1631 93.6502 17.8631 93.6502 16.3946ZM109.124 6.75286C110.713 6.75286 111.977 7.07786 112.916 7.72786C113.879 8.35379 114.565 9.22046 114.974 10.3279C115.408 11.4112 115.624 12.6149 115.624 13.939V24.5557C115.624 24.8446 115.516 25.0974 115.299 25.314C115.083 25.5307 114.83 25.639 114.541 25.639C114.204 25.639 113.939 25.5307 113.747 25.314C113.554 25.0974 113.458 24.8446 113.458 24.5557V14.0473C113.458 13.0844 113.301 12.2057 112.988 11.4112C112.675 10.6168 112.158 9.97879 111.436 9.49731C110.737 9.01583 109.811 8.77508 108.655 8.77508C107.62 8.77508 106.633 9.01583 105.694 9.49731C104.779 9.97879 104.033 10.6168 103.455 11.4112C102.877 12.2057 102.588 13.0844 102.588 14.0473V24.5557C102.588 24.8446 102.48 25.0974 102.263 25.314C102.047 25.5307 101.794 25.639 101.505 25.639C101.168 25.639 100.903 25.5307 100.711 25.314C100.518 25.0974 100.422 24.8446 100.422 24.5557V8.37786C100.422 8.08897 100.518 7.83619 100.711 7.61953C100.927 7.40286 101.192 7.29452 101.505 7.29452C101.818 7.29452 102.071 7.40286 102.263 7.61953C102.48 7.83619 102.588 8.08897 102.588 8.37786V11.4112L101.758 12.7112C101.806 11.9408 102.047 11.2066 102.48 10.5084C102.937 9.7862 103.515 9.14823 104.213 8.59453C104.911 8.01675 105.682 7.57138 106.524 7.25841C107.391 6.92138 108.258 6.75286 109.124 6.75286ZM138.142 26.0001C136.433 26.0001 134.916 25.6029 133.592 24.8085C132.268 24.014 131.233 22.9909 130.486 21.739C129.764 20.4872 129.403 19.1631 129.403 17.7668C129.403 16.7075 129.608 15.6844 130.017 14.6973C130.45 13.7103 131.088 12.8316 131.931 12.0612C132.798 11.2668 133.893 10.6408 135.217 10.1834L136.77 11.7362C134.892 12.1695 133.568 12.9158 132.798 13.9751C132.027 15.0344 131.642 16.202 131.642 17.4779C131.642 18.5612 131.895 19.5964 132.4 20.5835C132.906 21.5464 133.664 22.3409 134.675 22.9668C135.686 23.5927 136.926 23.9057 138.395 23.9057C139.96 23.9057 141.296 23.6529 142.403 23.1474C143.535 22.6177 144.486 21.9316 145.256 21.089C146.026 20.2223 146.64 19.2594 147.098 18.2001C147.555 17.1168 147.892 16.0214 148.109 14.914C148.157 14.6733 148.253 14.4927 148.398 14.3723C148.566 14.2279 148.795 14.1557 149.084 14.1557C149.421 14.1557 149.686 14.276 149.878 14.5168C150.071 14.7575 150.143 15.0584 150.095 15.4195C149.878 16.7196 149.481 17.9955 148.903 19.2473C148.325 20.4992 147.543 21.6427 146.556 22.6779C145.569 23.689 144.377 24.4955 142.981 25.0974C141.585 25.6992 139.972 26.0001 138.142 26.0001ZM150.962 25.5307C150.841 25.5307 150.721 25.5187 150.6 25.4946C150.504 25.4464 150.408 25.3983 150.312 25.3501C148.843 24.1946 147.423 23.0872 146.05 22.0279C144.702 20.9446 143.354 19.777 142.006 18.5251C140.682 17.2733 139.286 15.8288 137.817 14.1918C136.974 13.2288 136.216 12.2899 135.542 11.3751C134.868 10.4362 134.326 9.52138 133.917 8.63064C133.508 7.71582 133.303 6.81304 133.303 5.9223C133.303 4.81489 133.58 3.81581 134.134 2.92507C134.687 2.01025 135.47 1.30006 136.481 0.794505C137.492 0.264873 138.696 5.73972e-05 140.092 5.73972e-05C141.825 5.73972e-05 143.258 0.325058 144.389 0.975061C145.521 1.62506 146.315 2.39544 146.773 3.28618C146.797 3.31025 146.833 3.39451 146.881 3.53896C146.929 3.65933 146.953 3.80377 146.953 3.97229C146.953 4.18896 146.857 4.39359 146.664 4.58618C146.496 4.77878 146.255 4.87507 145.942 4.87507C145.749 4.87507 145.581 4.83896 145.437 4.76674C145.316 4.69452 145.22 4.59822 145.148 4.47785C144.666 3.75562 144.028 3.16581 143.234 2.7084C142.463 2.22692 141.416 1.98617 140.092 1.98617C138.624 1.98617 137.504 2.35932 136.734 3.10562C135.963 3.82785 135.578 4.76674 135.578 5.9223C135.578 6.6686 135.783 7.46304 136.192 8.30564C136.601 9.12416 137.119 9.95472 137.745 10.7973C138.395 11.6399 139.069 12.4584 139.767 13.2529C140.73 14.3362 141.741 15.3955 142.8 16.4307C143.884 17.4418 144.943 18.3927 145.978 19.2834C147.037 20.1742 148.037 20.9807 148.975 21.7029C149.914 22.4251 150.745 23.0631 151.467 23.6168C151.636 23.7372 151.756 23.8696 151.828 24.014C151.9 24.1585 151.937 24.327 151.937 24.5196C151.937 24.7122 151.852 24.9288 151.684 25.1696C151.515 25.4103 151.275 25.5307 150.962 25.5307ZM184.37 0.325058C184.707 0.325058 184.972 0.421355 185.164 0.613949C185.381 0.806541 185.489 1.04728 185.489 1.33617C185.489 1.50469 185.453 1.68525 185.381 1.87784L175.739 24.9168C175.619 25.1575 175.462 25.3381 175.27 25.4585C175.077 25.5788 174.885 25.639 174.692 25.639C174.475 25.639 174.271 25.5788 174.078 25.4585C173.885 25.3381 173.753 25.1696 173.681 24.9529L164.075 1.95006C164.051 1.87784 164.027 1.79358 164.003 1.69728C163.979 1.60099 163.967 1.49265 163.967 1.37228C163.967 1.05932 164.075 0.806541 164.292 0.613949C164.533 0.421355 164.773 0.325058 165.014 0.325058C165.52 0.325058 165.881 0.589874 166.098 1.11951L175.125 22.714H174.475L183.359 1.04728C183.599 0.5658 183.936 0.325058 184.37 0.325058ZM191.666 24.5557C191.666 24.8446 191.557 25.0974 191.341 25.314C191.124 25.5307 190.871 25.639 190.582 25.639C190.269 25.639 190.005 25.5307 189.788 25.314C189.595 25.0974 189.499 24.8446 189.499 24.5557V7.94453C189.499 7.65564 189.595 7.40286 189.788 7.18619C190.005 6.96952 190.269 6.86119 190.582 6.86119C190.895 6.86119 191.148 6.96952 191.341 7.18619C191.557 7.40286 191.666 7.65564 191.666 7.94453V24.5557ZM190.582 4.44174C190.077 4.44174 189.692 4.3334 189.427 4.11674C189.186 3.876 189.066 3.53896 189.066 3.10562V2.74451C189.066 2.31118 189.198 1.98618 189.463 1.76951C189.752 1.52877 190.137 1.4084 190.618 1.4084C191.076 1.4084 191.425 1.52877 191.666 1.76951C191.93 1.98618 192.063 2.31118 192.063 2.74451V3.10562C192.063 3.53896 191.93 3.876 191.666 4.11674C191.425 4.3334 191.064 4.44174 190.582 4.44174ZM196.247 22.714C196.054 22.4251 195.958 22.1483 195.958 21.8835C195.982 21.5946 196.139 21.3659 196.428 21.1973C196.62 21.0288 196.837 20.9566 197.078 20.9807C197.342 21.0048 197.583 21.1251 197.8 21.3418C198.45 22.1844 199.232 22.8705 200.147 23.4001C201.086 23.9057 202.193 24.1585 203.469 24.1585C204.143 24.1585 204.805 24.0501 205.455 23.8335C206.129 23.5927 206.683 23.2436 207.116 22.7862C207.55 22.3048 207.766 21.7029 207.766 20.9807C207.766 20.2344 207.55 19.6325 207.116 19.1751C206.683 18.7177 206.117 18.3566 205.419 18.0918C204.745 17.827 204.023 17.5983 203.253 17.4057C202.434 17.189 201.64 16.9483 200.869 16.6834C200.099 16.3946 199.413 16.0455 198.811 15.6362C198.233 15.2029 197.764 14.6853 197.403 14.0834C197.041 13.4816 196.861 12.7473 196.861 11.8806C196.861 10.8695 197.138 9.97879 197.691 9.20842C198.245 8.43805 198.991 7.83619 199.93 7.40286C200.893 6.96952 201.977 6.75286 203.18 6.75286C203.782 6.75286 204.432 6.83712 205.13 7.00563C205.828 7.15008 206.515 7.40286 207.189 7.76397C207.863 8.12508 208.465 8.6186 208.994 9.24453C209.211 9.4612 209.319 9.71398 209.319 10.0029C209.319 10.2677 209.199 10.5084 208.958 10.7251C208.766 10.8695 208.537 10.9418 208.272 10.9418C208.031 10.9418 207.827 10.8455 207.658 10.6529C207.08 10.0029 206.394 9.50935 205.6 9.17231C204.805 8.83527 203.951 8.66675 203.036 8.66675C202.338 8.66675 201.676 8.78712 201.05 9.02786C200.448 9.24453 199.942 9.58157 199.533 10.039C199.124 10.4964 198.919 11.0982 198.919 11.8445C198.967 12.5427 199.208 13.1084 199.641 13.5418C200.099 13.9751 200.689 14.3362 201.411 14.6251C202.157 14.914 202.988 15.1788 203.903 15.4195C204.673 15.6121 205.407 15.8408 206.105 16.1057C206.828 16.3705 207.454 16.7075 207.983 17.1168C208.537 17.502 208.97 17.9955 209.283 18.5973C209.62 19.1992 209.789 19.9575 209.789 20.8723C209.789 21.9316 209.488 22.8464 208.886 23.6168C208.308 24.3872 207.526 24.977 206.539 25.3862C205.552 25.7955 204.456 26.0001 203.253 26.0001C201.953 26.0001 200.689 25.7474 199.461 25.2418C198.257 24.7362 197.186 23.8936 196.247 22.714ZM216.316 24.5557C216.316 24.8446 216.207 25.0974 215.991 25.314C215.774 25.5307 215.521 25.639 215.232 25.639C214.919 25.639 214.655 25.5307 214.438 25.314C214.245 25.0974 214.149 24.8446 214.149 24.5557V7.94453C214.149 7.65564 214.245 7.40286 214.438 7.18619C214.655 6.96952 214.919 6.86119 215.232 6.86119C215.545 6.86119 215.798 6.96952 215.991 7.18619C216.207 7.40286 216.316 7.65564 216.316 7.94453V24.5557ZM215.232 4.44174C214.727 4.44174 214.342 4.3334 214.077 4.11674C213.836 3.876 213.716 3.53896 213.716 3.10562V2.74451C213.716 2.31118 213.848 1.98618 214.113 1.76951C214.402 1.52877 214.787 1.4084 215.269 1.4084C215.726 1.4084 216.075 1.52877 216.316 1.76951C216.581 1.98618 216.713 2.31118 216.713 2.74451V3.10562C216.713 3.53896 216.581 3.876 216.316 4.11674C216.075 4.3334 215.714 4.44174 215.232 4.44174ZM239.133 16.3946C239.133 18.2242 238.736 19.8733 237.942 21.3418C237.147 22.7862 236.064 23.9298 234.692 24.7724C233.319 25.5909 231.755 26.0001 229.997 26.0001C228.288 26.0001 226.735 25.5909 225.339 24.7724C223.967 23.9298 222.871 22.7862 222.053 21.3418C221.258 19.8733 220.861 18.2242 220.861 16.3946C220.861 14.5408 221.258 12.8918 222.053 11.4473C222.871 10.0029 223.967 8.85934 225.339 8.01675C226.735 7.17415 228.288 6.75286 229.997 6.75286C231.755 6.75286 233.319 7.17415 234.692 8.01675C236.064 8.85934 237.147 10.0029 237.942 11.4473C238.736 12.8918 239.133 14.5408 239.133 16.3946ZM236.967 16.3946C236.967 14.926 236.666 13.626 236.064 12.4945C235.462 11.339 234.631 10.4362 233.572 9.7862C232.537 9.11212 231.345 8.77508 229.997 8.77508C228.697 8.77508 227.518 9.11212 226.458 9.7862C225.399 10.4362 224.556 11.339 223.93 12.4945C223.329 13.626 223.028 14.926 223.028 16.3946C223.028 17.8631 223.329 19.1631 223.93 20.2946C224.556 21.426 225.399 22.3288 226.458 23.0029C227.518 23.6529 228.697 23.9779 229.997 23.9779C231.345 23.9779 232.537 23.6529 233.572 23.0029C234.631 22.3288 235.462 21.426 236.064 20.2946C236.666 19.1631 236.967 17.8631 236.967 16.3946ZM252.441 6.75286C254.03 6.75286 255.294 7.07786 256.233 7.72786C257.195 8.35379 257.882 9.22046 258.291 10.3279C258.724 11.4112 258.941 12.6149 258.941 13.939V24.5557C258.941 24.8446 258.833 25.0974 258.616 25.314C258.399 25.5307 258.146 25.639 257.858 25.639C257.52 25.639 257.256 25.5307 257.063 25.314C256.87 25.0974 256.774 24.8446 256.774 24.5557V14.0473C256.774 13.0844 256.618 12.2057 256.305 11.4112C255.992 10.6168 255.474 9.97879 254.752 9.49731C254.054 9.01583 253.127 8.77508 251.971 8.77508C250.936 8.77508 249.949 9.01583 249.01 9.49731C248.095 9.97879 247.349 10.6168 246.771 11.4112C246.194 12.2057 245.905 13.0844 245.905 14.0473V24.5557C245.905 24.8446 245.796 25.0974 245.58 25.314C245.363 25.5307 245.11 25.639 244.821 25.639C244.484 25.639 244.22 25.5307 244.027 25.314C243.834 25.0974 243.738 24.8446 243.738 24.5557V8.37786C243.738 8.08897 243.834 7.83619 244.027 7.61953C244.244 7.40286 244.508 7.29452 244.821 7.29452C245.134 7.29452 245.387 7.40286 245.58 7.61953C245.796 7.83619 245.905 8.08897 245.905 8.37786V11.4112L245.074 12.7112C245.122 11.9408 245.363 11.2066 245.796 10.5084C246.254 9.7862 246.832 9.14823 247.53 8.59453C248.228 8.01675 248.998 7.57138 249.841 7.25841C250.708 6.92138 251.574 6.75286 252.441 6.75286Z" fill="white"/>
</svg>
