<svg width="1714" height="68" viewBox="0 0 1714 68" fill="none" xmlns="http://www.w3.org/2000/svg">
<path d="M3.88876 2.88059C4.84894 2.88059 5.68911 3.24066 6.40925 3.9608C7.1774 4.63293 7.56147 5.4971 7.56147 6.5533V49.6177C7.51346 50.6739 7.10539 51.5621 6.33724 52.2822C5.6171 52.9544 4.75293 53.2904 3.74473 53.2904C2.64051 53.2904 1.72834 52.9544 1.0082 52.2822C0.336065 51.5621 -7.15395e-07 50.6739 -7.15395e-07 49.6177V6.5533C-7.15395e-07 5.4971 0.36007 4.63293 1.08021 3.9608C1.80035 3.24066 2.73653 2.88059 3.88876 2.88059ZM36.3671 2.88059C37.5193 2.88059 38.4315 3.24066 39.1036 3.9608C39.7758 4.63293 40.1118 5.4971 40.1118 6.5533V49.6177C40.1118 50.6739 39.7518 51.5621 39.0316 52.2822C38.3595 52.9544 37.4473 53.2904 36.2951 53.2904C35.2869 53.2904 34.4227 52.9544 33.7026 52.2822C32.9824 51.5621 32.6224 50.6739 32.6224 49.6177V6.5533C32.6224 5.4971 32.9824 4.63293 33.7026 3.9608C34.4707 3.24066 35.3589 2.88059 36.3671 2.88059ZM3.6007 24.3408H36.4391L36.3671 31.2541H3.52869L3.6007 24.3408ZM68.6114 54.0106C64.6266 54.0106 61.1699 53.1944 58.2414 51.5621C55.3128 49.8818 53.0323 47.6013 51.4 44.7207C49.8157 41.7922 49.0236 38.4555 49.0236 34.7108C49.0236 30.486 49.8637 26.8853 51.5441 23.9087C53.2724 20.8841 55.5048 18.5797 58.2414 16.9953C60.9779 15.363 63.8825 14.5469 66.9551 14.5469C69.3075 14.5469 71.54 15.027 73.6524 15.9871C75.7648 16.8993 77.6371 18.1956 79.2695 19.8759C80.9498 21.5082 82.27 23.4526 83.2302 25.709C84.1904 27.9175 84.6945 30.3419 84.7425 32.9825C84.6945 33.9426 84.3104 34.7348 83.5903 35.3589C82.8702 35.983 82.03 36.2951 81.0698 36.2951H53.0563L51.328 30.1739H78.4053L77.037 31.4702V29.6698C76.941 27.9895 76.3889 26.5252 75.3807 25.277C74.3725 23.9807 73.1243 22.9965 71.636 22.3244C70.1477 21.6042 68.5874 21.2442 66.9551 21.2442C65.5148 21.2442 64.1225 21.4842 62.7782 21.9643C61.482 22.3964 60.3058 23.1165 59.2496 24.1247C58.2414 25.1329 57.4252 26.4772 56.8011 28.1575C56.225 29.7898 55.9369 31.8302 55.9369 34.2787C55.9369 36.9192 56.489 39.2237 57.5932 41.1921C58.6974 43.1604 60.1857 44.6967 62.0581 45.801C63.9305 46.8572 65.9949 47.3853 68.2513 47.3853C70.0277 47.3853 71.4919 47.2172 72.6442 46.8812C73.7964 46.4971 74.7566 46.041 75.5247 45.5129C76.2929 44.9848 76.965 44.4807 77.5411 44.0006C78.2613 43.5685 78.9814 43.3525 79.7015 43.3525C80.5657 43.3525 81.2859 43.6645 81.862 44.2887C82.4381 44.8648 82.7261 45.5609 82.7261 46.3771C82.7261 47.4333 82.198 48.3935 81.1418 49.2576C79.8456 50.5059 78.0452 51.6101 75.7408 52.5703C73.4843 53.5305 71.1079 54.0106 68.6114 54.0106ZM96.4831 53.2904C95.4269 53.2904 94.5627 52.9544 93.8906 52.2822C93.2184 51.5621 92.8824 50.6739 92.8824 49.6177V19.0837C92.8824 18.0275 93.2184 17.1634 93.8906 16.4912C94.5627 15.7711 95.4269 15.411 96.4831 15.411C97.4913 15.411 98.3314 15.7711 99.0036 16.4912C99.7237 17.1634 100.084 18.0275 100.084 19.0837V27.1493L99.3636 24.0527C99.7477 22.7085 100.324 21.4602 101.092 20.308C101.908 19.1558 102.868 18.1476 103.973 17.2834C105.077 16.4192 106.301 15.7471 107.645 15.267C109.038 14.7869 110.478 14.5469 111.966 14.5469C113.214 14.5469 114.295 14.8829 115.207 15.5551C116.119 16.2272 116.575 17.0674 116.575 18.0756C116.575 19.3718 116.239 20.332 115.567 20.9561C114.895 21.5322 114.151 21.8203 113.334 21.8203C112.614 21.8203 111.918 21.6763 111.246 21.3882C110.574 21.0521 109.782 20.8841 108.869 20.8841C107.861 20.8841 106.829 21.1482 105.773 21.6763C104.717 22.2044 103.756 22.9965 102.892 24.0527C102.028 25.0609 101.332 26.2611 100.804 27.6534C100.324 29.0457 100.084 30.606 100.084 32.3343V49.6177C100.084 50.6739 99.7237 51.5621 99.0036 52.2822C98.3314 52.9544 97.4913 53.2904 96.4831 53.2904ZM139.008 54.0106C135.023 54.0106 131.566 53.1944 128.638 51.5621C125.709 49.8818 123.429 47.6013 121.797 44.7207C120.212 41.7922 119.42 38.4555 119.42 34.7108C119.42 30.486 120.26 26.8853 121.941 23.9087C123.669 20.8841 125.901 18.5797 128.638 16.9953C131.374 15.363 134.279 14.5469 137.352 14.5469C139.704 14.5469 141.936 15.027 144.049 15.9871C146.161 16.8993 148.034 18.1956 149.666 19.8759C151.346 21.5082 152.667 23.4526 153.627 25.709C154.587 27.9175 155.091 30.3419 155.139 32.9825C155.091 33.9426 154.707 34.7348 153.987 35.3589C153.267 35.983 152.427 36.2951 151.466 36.2951H123.453L121.725 30.1739H148.802L147.434 31.4702V29.6698C147.338 27.9895 146.785 26.5252 145.777 25.277C144.769 23.9807 143.521 22.9965 142.033 22.3244C140.544 21.6042 138.984 21.2442 137.352 21.2442C135.911 21.2442 134.519 21.4842 133.175 21.9643C131.879 22.3964 130.702 23.1165 129.646 24.1247C128.638 25.1329 127.822 26.4772 127.198 28.1575C126.622 29.7898 126.333 31.8302 126.333 34.2787C126.333 36.9192 126.886 39.2237 127.99 41.1921C129.094 43.1604 130.582 44.6967 132.455 45.801C134.327 46.8572 136.391 47.3853 138.648 47.3853C140.424 47.3853 141.888 47.2172 143.041 46.8812C144.193 46.4971 145.153 46.041 145.921 45.5129C146.689 44.9848 147.362 44.4807 147.938 44.0006C148.658 43.5685 149.378 43.3525 150.098 43.3525C150.962 43.3525 151.682 43.6645 152.259 44.2887C152.835 44.8648 153.123 45.5609 153.123 46.3771C153.123 47.4333 152.595 48.3935 151.538 49.2576C150.242 50.5059 148.442 51.6101 146.137 52.5703C143.881 53.5305 141.504 54.0106 139.008 54.0106ZM162.343 5.83316C162.535 3.86478 163.591 2.88059 165.511 2.88059H167.816C168.92 2.88059 169.664 3.19265 170.048 3.81677C170.48 4.44089 170.528 5.25705 170.192 6.26525L165.367 21.5322C164.887 22.9245 163.975 23.6206 162.631 23.6206C161.335 23.6206 160.758 22.7565 160.902 21.0281L162.343 5.83316ZM175.885 47.3853C175.453 46.7131 175.261 45.945 175.309 45.0808C175.357 44.1686 175.861 43.4005 176.821 42.7764C177.494 42.3443 178.19 42.1763 178.91 42.2723C179.678 42.3203 180.398 42.6804 181.07 43.3525C182.415 44.8408 183.903 46.017 185.535 46.8812C187.216 47.7453 189.232 48.1774 191.584 48.1774C192.545 48.1294 193.529 47.9854 194.537 47.7453C195.545 47.4573 196.409 46.9772 197.129 46.3051C197.85 45.5849 198.21 44.5527 198.21 43.2085C198.21 42.0082 197.826 41.048 197.057 40.3279C196.289 39.6078 195.281 39.0316 194.033 38.5996C192.785 38.1195 191.44 37.6874 190 37.3033C188.464 36.8712 186.903 36.3911 185.319 35.863C183.783 35.3349 182.391 34.6628 181.142 33.8466C179.894 32.9825 178.862 31.8782 178.046 30.534C177.278 29.1897 176.893 27.5334 176.893 25.565C176.893 23.3086 177.518 21.3642 178.766 19.7319C180.062 18.0996 181.718 16.8273 183.735 15.9151C185.799 15.003 188.032 14.5469 190.432 14.5469C191.824 14.5469 193.289 14.7389 194.825 15.123C196.361 15.459 197.85 16.0112 199.29 16.7793C200.73 17.5474 201.978 18.5556 203.035 19.8039C203.515 20.428 203.779 21.1722 203.827 22.0363C203.923 22.9005 203.539 23.6686 202.675 24.3408C202.098 24.8209 201.402 25.0369 200.586 24.9889C199.77 24.9409 199.098 24.6768 198.57 24.1967C197.658 23.0445 196.481 22.1563 195.041 21.5322C193.601 20.8601 191.968 20.524 190.144 20.524C189.232 20.524 188.272 20.6681 187.264 20.9561C186.303 21.1962 185.487 21.6522 184.815 22.3244C184.143 22.9965 183.807 23.9807 183.807 25.277C183.807 26.4772 184.191 27.4374 184.959 28.1575C185.775 28.8777 186.831 29.4778 188.128 29.9579C189.424 30.438 190.84 30.87 192.377 31.2541C193.865 31.6382 195.329 32.0943 196.769 32.6224C198.258 33.1505 199.578 33.8466 200.73 34.7108C201.93 35.527 202.891 36.6072 203.611 37.9514C204.379 39.2477 204.763 40.904 204.763 42.9204C204.763 45.2729 204.067 47.2893 202.675 48.9696C201.33 50.6019 199.602 51.8501 197.49 52.7143C195.425 53.5785 193.241 54.0106 190.936 54.0106C188.2 54.0106 185.463 53.5305 182.727 52.5703C180.038 51.5621 177.758 49.8337 175.885 47.3853ZM276.695 15.051C277.607 15.051 278.399 15.411 279.071 16.1312C279.791 16.8033 280.152 17.6915 280.152 18.7957C280.152 19.0357 280.127 19.2758 280.079 19.5158C280.031 19.7559 279.959 19.9719 279.863 20.164L268.845 50.986C268.557 51.8021 268.053 52.4263 267.333 52.8583C266.613 53.2424 265.869 53.3864 265.101 53.2904C263.708 53.1944 262.676 52.4263 262.004 50.986L253.866 29.3818L255.523 29.5258L248.033 50.986C247.361 52.4263 246.329 53.1944 244.937 53.2904C244.216 53.3864 243.472 53.2424 242.704 52.8583C241.984 52.4263 241.48 51.8021 241.192 50.986L230.102 20.164C229.91 19.7319 229.814 19.2758 229.814 18.7957C229.814 17.7875 230.126 16.9233 230.75 16.2032C231.422 15.435 232.31 15.051 233.414 15.051C234.183 15.051 234.855 15.243 235.431 15.6271C236.055 16.0111 236.487 16.5873 236.727 17.3554L245.945 43.3525L244.289 43.2085L251.778 23.5486C252.402 22.0603 253.506 21.3162 255.091 21.3162C255.955 21.3162 256.627 21.5082 257.107 21.8923C257.587 22.2764 257.971 22.8285 258.259 23.5486L265.893 43.2805L263.948 43.4965L273.238 17.3554C273.718 15.8191 274.87 15.051 276.695 15.051ZM306.559 14.7629C309.871 14.7629 312.44 15.483 314.264 16.9233C316.089 18.3156 317.361 20.212 318.081 22.6124C318.849 25.0129 319.233 27.6534 319.233 30.534V49.6177C319.233 50.6739 318.873 51.5621 318.153 52.2822C317.481 52.9544 316.641 53.2904 315.632 53.2904C314.576 53.2904 313.712 52.9544 313.04 52.2822C312.368 51.5621 312.032 50.6739 312.032 49.6177V30.534C312.032 28.8537 311.792 27.3174 311.312 25.9251C310.88 24.5328 310.087 23.4286 308.935 22.6124C307.831 21.7963 306.271 21.3882 304.254 21.3882C302.382 21.3882 300.702 21.7963 299.213 22.6124C297.773 23.4286 296.645 24.5328 295.829 25.9251C295.06 27.3174 294.676 28.8537 294.676 30.534V49.6177C294.676 50.6739 294.316 51.5621 293.596 52.2822C292.924 52.9544 292.084 53.2904 291.076 53.2904C290.019 53.2904 289.155 52.9544 288.483 52.2822C287.811 51.5621 287.475 50.6739 287.475 49.6177V3.67274C287.475 2.61654 287.811 1.75237 288.483 1.08024C289.155 0.360098 290.019 2.86158e-05 291.076 2.86158e-05C292.084 2.86158e-05 292.924 0.360098 293.596 1.08024C294.316 1.75237 294.676 2.61654 294.676 3.67274V23.3326L293.38 24.0527C293.716 22.9965 294.268 21.9163 295.036 20.8121C295.853 19.7079 296.837 18.6997 297.989 17.7875C299.189 16.8753 300.51 16.1552 301.95 15.6271C303.39 15.051 304.926 14.7629 306.559 14.7629ZM360.287 14.8349C361.343 14.8349 362.207 15.195 362.879 15.9151C363.551 16.5873 363.888 17.4514 363.888 18.5076V49.6177C363.888 50.6739 363.551 51.5621 362.879 52.2822C362.207 52.9544 361.343 53.2904 360.287 53.2904C359.279 53.2904 358.414 52.9544 357.694 52.2822C357.022 51.5621 356.686 50.6739 356.686 49.6177V44.4327L358.198 44.6487C358.198 45.5129 357.838 46.4731 357.118 47.5293C356.446 48.5855 355.51 49.6177 354.31 50.6259C353.109 51.5861 351.693 52.4022 350.061 53.0744C348.429 53.6985 346.676 54.0106 344.804 54.0106C341.491 54.0106 338.515 53.1704 335.874 51.4901C333.234 49.7617 331.145 47.4093 329.609 44.4327C328.073 41.4561 327.304 38.0715 327.304 34.2787C327.304 30.39 328.073 26.9813 329.609 24.0527C331.145 21.0761 333.21 18.7477 335.802 17.0674C338.443 15.387 341.371 14.5469 344.588 14.5469C346.652 14.5469 348.549 14.8829 350.277 15.5551C352.053 16.2272 353.59 17.0914 354.886 18.1476C356.182 19.2038 357.166 20.332 357.838 21.5322C358.558 22.6845 358.919 23.7887 358.919 24.8449L356.686 25.0609V18.5076C356.686 17.4994 357.022 16.6353 357.694 15.9151C358.414 15.195 359.279 14.8349 360.287 14.8349ZM345.596 47.3853C347.852 47.3853 349.845 46.8092 351.573 45.6569C353.301 44.5047 354.646 42.9444 355.606 40.976C356.566 38.9596 357.046 36.7272 357.046 34.2787C357.046 31.7822 356.566 29.5498 355.606 27.5814C354.646 25.613 353.301 24.0527 351.573 22.9005C349.845 21.7483 347.852 21.1722 345.596 21.1722C343.388 21.1722 341.419 21.7483 339.691 22.9005C338.01 24.0527 336.666 25.613 335.658 27.5814C334.698 29.5498 334.218 31.7822 334.218 34.2787C334.218 36.7272 334.698 38.9596 335.658 40.976C336.666 42.9444 338.01 44.5047 339.691 45.6569C341.419 46.8092 343.388 47.3853 345.596 47.3853ZM373.472 15.8431H390.395C391.356 15.8431 392.148 16.1792 392.772 16.8513C393.444 17.4754 393.78 18.2676 393.78 19.2278C393.78 20.14 393.444 20.9081 392.772 21.5322C392.148 22.1563 391.356 22.4684 390.395 22.4684H373.472C372.512 22.4684 371.696 22.1563 371.024 21.5322C370.4 20.8601 370.087 20.0679 370.087 19.1558C370.087 18.1956 370.4 17.4034 371.024 16.7793C371.696 16.1552 372.512 15.8431 373.472 15.8431ZM381.034 6.48129C382.09 6.48129 382.954 6.84136 383.626 7.5615C384.298 8.23363 384.634 9.0978 384.634 10.154V43.5685C384.634 44.4327 384.778 45.1288 385.066 45.6569C385.354 46.185 385.739 46.5451 386.219 46.7371C386.747 46.9292 387.275 47.0252 387.803 47.0252C388.331 47.0252 388.787 46.9292 389.171 46.7371C389.603 46.5451 390.107 46.4491 390.683 46.4491C391.26 46.4491 391.788 46.7131 392.268 47.2412C392.748 47.7693 392.988 48.4895 392.988 49.4017C392.988 50.5539 392.364 51.4901 391.116 52.2102C389.867 52.9304 388.523 53.2904 387.083 53.2904C386.267 53.2904 385.306 53.2184 384.202 53.0744C383.098 52.9304 382.018 52.5703 380.962 51.9942C379.953 51.4181 379.113 50.5059 378.441 49.2576C377.769 47.9614 377.433 46.161 377.433 43.8566V10.154C377.433 9.0978 377.769 8.23363 378.441 7.5615C379.161 6.84136 380.025 6.48129 381.034 6.48129ZM400.819 5.83316C401.011 3.86478 402.067 2.88059 403.988 2.88059H406.292C407.396 2.88059 408.14 3.19265 408.524 3.81677C408.956 4.44089 409.005 5.25705 408.668 6.26525L403.843 21.5322C403.363 22.9245 402.451 23.6206 401.107 23.6206C399.811 23.6206 399.235 22.7565 399.379 21.0281L400.819 5.83316ZM414.361 47.3853C413.929 46.7131 413.737 45.945 413.785 45.0808C413.833 44.1686 414.337 43.4005 415.298 42.7764C415.97 42.3443 416.666 42.1763 417.386 42.2723C418.154 42.3203 418.874 42.6804 419.546 43.3525C420.891 44.8408 422.379 46.017 424.011 46.8812C425.692 47.7453 427.708 48.1774 430.061 48.1774C431.021 48.1294 432.005 47.9854 433.013 47.7453C434.021 47.4573 434.885 46.9772 435.606 46.3051C436.326 45.5849 436.686 44.5527 436.686 43.2085C436.686 42.0082 436.302 41.048 435.534 40.3279C434.765 39.6078 433.757 39.0316 432.509 38.5996C431.261 38.1195 429.917 37.6874 428.476 37.3033C426.94 36.8712 425.38 36.3911 423.795 35.863C422.259 35.3349 420.867 34.6628 419.619 33.8466C418.37 32.9825 417.338 31.8782 416.522 30.534C415.754 29.1897 415.37 27.5334 415.37 25.565C415.37 23.3086 415.994 21.3642 417.242 19.7319C418.538 18.0996 420.195 16.8273 422.211 15.9151C424.275 15.003 426.508 14.5469 428.908 14.5469C430.301 14.5469 431.765 14.7389 433.301 15.123C434.837 15.459 436.326 16.0112 437.766 16.7793C439.206 17.5474 440.455 18.5556 441.511 19.8039C441.991 20.428 442.255 21.1722 442.303 22.0363C442.399 22.9005 442.015 23.6686 441.151 24.3408C440.575 24.8209 439.878 25.0369 439.062 24.9889C438.246 24.9409 437.574 24.6768 437.046 24.1967C436.134 23.0445 434.958 22.1563 433.517 21.5322C432.077 20.8601 430.445 20.524 428.62 20.524C427.708 20.524 426.748 20.6681 425.74 20.9561C424.78 21.1962 423.963 21.6522 423.291 22.3244C422.619 22.9965 422.283 23.9807 422.283 25.277C422.283 26.4772 422.667 27.4374 423.435 28.1575C424.251 28.8777 425.308 29.4778 426.604 29.9579C427.9 30.438 429.316 30.87 430.853 31.2541C432.341 31.6382 433.805 32.0943 435.246 32.6224C436.734 33.1505 438.054 33.8466 439.206 34.7108C440.407 35.527 441.367 36.6072 442.087 37.9514C442.855 39.2477 443.239 40.904 443.239 42.9204C443.239 45.2729 442.543 47.2893 441.151 48.9696C439.806 50.6019 438.078 51.8501 435.966 52.7143C433.901 53.5785 431.717 54.0106 429.412 54.0106C426.676 54.0106 423.939 53.5305 421.203 52.5703C418.514 51.5621 416.234 49.8337 414.361 47.3853ZM475.203 53.2904C474.195 53.2904 473.331 52.9544 472.611 52.2822C471.939 51.5621 471.603 50.6739 471.603 49.6177V3.67274C471.603 2.61654 471.939 1.75237 472.611 1.08024C473.331 0.360098 474.195 2.86158e-05 475.203 2.86158e-05C476.259 2.86158e-05 477.124 0.360098 477.796 1.08024C478.468 1.75237 478.804 2.61654 478.804 3.67274V49.6177C478.804 50.6739 478.468 51.5621 477.796 52.2822C477.124 52.9544 476.259 53.2904 475.203 53.2904ZM498.68 15.267C499.592 15.267 500.384 15.6511 501.056 16.4192C501.728 17.1874 502.064 17.9555 502.064 18.7237C502.064 19.6839 501.608 20.572 500.696 21.3882L478.156 41.5521L477.868 33.2705L496.015 16.4192C496.783 15.6511 497.672 15.267 498.68 15.267ZM499.544 53.2184C498.536 53.2184 497.672 52.8103 496.951 51.9942L482.549 36.7992L488.022 31.7582L502.064 46.9532C502.833 47.7693 503.217 48.6815 503.217 49.6897C503.217 50.7459 502.785 51.6101 501.92 52.2822C501.104 52.9063 500.312 53.2184 499.544 53.2184ZM517.952 49.6177C517.952 50.6739 517.616 51.5621 516.944 52.2822C516.272 52.9544 515.408 53.2904 514.351 53.2904C513.343 53.2904 512.479 52.9544 511.759 52.2822C511.087 51.5621 510.751 50.6739 510.751 49.6177V18.7957C510.751 17.7395 511.087 16.8753 511.759 16.2032C512.479 15.483 513.343 15.123 514.351 15.123C515.408 15.123 516.272 15.483 516.944 16.2032C517.616 16.8753 517.952 17.7395 517.952 18.7957V49.6177ZM514.279 10.3701C512.887 10.3701 511.879 10.13 511.255 9.64991C510.631 9.12181 510.319 8.25764 510.319 7.0574V5.90518C510.319 4.70494 510.655 3.86478 511.327 3.38469C511.999 2.90459 513.007 2.66455 514.351 2.66455C515.792 2.66455 516.824 2.9286 517.448 3.4567C518.072 3.93679 518.384 4.75295 518.384 5.90518V7.0574C518.384 8.30565 518.048 9.16981 517.376 9.64991C516.752 10.13 515.72 10.3701 514.279 10.3701ZM535.417 49.6177C535.417 50.6739 535.056 51.5621 534.336 52.2822C533.664 52.9544 532.824 53.2904 531.816 53.2904C530.808 53.2904 529.943 52.9544 529.223 52.2822C528.551 51.5621 528.215 50.6739 528.215 49.6177V3.67274C528.215 2.61654 528.575 1.75237 529.295 1.08024C530.015 0.360098 530.88 2.86158e-05 531.888 2.86158e-05C532.944 2.86158e-05 533.784 0.360098 534.408 1.08024C535.08 1.75237 535.417 2.61654 535.417 3.67274V49.6177ZM553.912 49.6177C553.912 50.6739 553.552 51.5621 552.832 52.2822C552.16 52.9544 551.32 53.2904 550.312 53.2904C549.303 53.2904 548.439 52.9544 547.719 52.2822C547.047 51.5621 546.711 50.6739 546.711 49.6177V3.67274C546.711 2.61654 547.071 1.75237 547.791 1.08024C548.511 0.360098 549.375 2.86158e-05 550.384 2.86158e-05C551.44 2.86158e-05 552.28 0.360098 552.904 1.08024C553.576 1.75237 553.912 2.61654 553.912 3.67274V49.6177ZM571.4 49.6177C571.4 50.6739 571.064 51.5621 570.392 52.2822C569.72 52.9544 568.855 53.2904 567.799 53.2904C566.791 53.2904 565.927 52.9544 565.207 52.2822C564.535 51.5621 564.199 50.6739 564.199 49.6177V18.7957C564.199 17.7395 564.535 16.8753 565.207 16.2032C565.927 15.483 566.791 15.123 567.799 15.123C568.855 15.123 569.72 15.483 570.392 16.2032C571.064 16.8753 571.4 17.7395 571.4 18.7957V49.6177ZM567.727 10.3701C566.335 10.3701 565.327 10.13 564.703 9.64991C564.078 9.12181 563.766 8.25764 563.766 7.0574V5.90518C563.766 4.70494 564.102 3.86478 564.775 3.38469C565.447 2.90459 566.455 2.66455 567.799 2.66455C569.24 2.66455 570.272 2.9286 570.896 3.4567C571.52 3.93679 571.832 4.75295 571.832 5.90518V7.0574C571.832 8.30565 571.496 9.16981 570.824 9.64991C570.2 10.13 569.167 10.3701 567.727 10.3701ZM600.603 14.5469C604.011 14.5469 606.652 15.267 608.524 16.7073C610.397 18.0996 611.693 19.9959 612.413 22.3964C613.181 24.7489 613.565 27.3894 613.565 30.3179V49.6177C613.565 50.6739 613.205 51.5621 612.485 52.2822C611.813 52.9544 610.973 53.2904 609.965 53.2904C608.908 53.2904 608.044 52.9544 607.372 52.2822C606.7 51.5621 606.364 50.6739 606.364 49.6177V30.39C606.364 28.6616 606.124 27.1253 605.644 25.7811C605.164 24.3888 604.323 23.2846 603.123 22.4684C601.971 21.6042 600.339 21.1722 598.226 21.1722C596.258 21.1722 594.53 21.6042 593.041 22.4684C591.553 23.2846 590.377 24.3888 589.513 25.7811C588.696 27.1253 588.288 28.6616 588.288 30.39V49.6177C588.288 50.6739 587.928 51.5621 587.208 52.2822C586.536 52.9544 585.696 53.2904 584.688 53.2904C583.631 53.2904 582.767 52.9544 582.095 52.2822C581.423 51.5621 581.087 50.6739 581.087 49.6177V19.0837C581.087 18.0275 581.423 17.1634 582.095 16.4912C582.767 15.7711 583.631 15.411 584.688 15.411C585.696 15.411 586.536 15.7711 587.208 16.4912C587.928 17.1634 588.288 18.0275 588.288 19.0837V23.1165L586.992 23.8367C587.328 22.7805 587.904 21.7243 588.72 20.6681C589.585 19.5638 590.617 18.5556 591.817 17.6435C593.017 16.6833 594.362 15.9391 595.85 15.411C597.338 14.8349 598.922 14.5469 600.603 14.5469ZM639.335 14.5469C641.399 14.5469 643.296 14.8829 645.024 15.5551C646.752 16.2272 648.241 17.0914 649.489 18.1476C650.785 19.1558 651.793 20.212 652.514 21.3162C653.234 22.4204 653.594 23.3806 653.594 24.1967L651.938 24.2688V18.5076C651.938 17.4994 652.274 16.6353 652.946 15.9151C653.618 15.195 654.482 14.8349 655.538 14.8349C656.594 14.8349 657.459 15.195 658.131 15.9151C658.803 16.5873 659.139 17.4514 659.139 18.5076V50.2658C659.139 54.3466 658.275 57.6593 656.546 60.2038C654.818 62.7963 652.514 64.6926 649.633 65.8929C646.801 67.0931 643.68 67.6932 640.271 67.6932C639.071 67.6932 637.655 67.5252 636.022 67.1891C634.39 66.9011 632.878 66.541 631.486 66.1089C630.141 65.6768 629.205 65.2448 628.677 64.8127C627.573 64.2366 626.829 63.5644 626.445 62.7963C626.108 62.0281 626.108 61.26 626.445 60.4918C626.925 59.4356 627.573 58.7875 628.389 58.5474C629.205 58.3074 630.141 58.3794 631.197 58.7635C631.678 58.9075 632.422 59.1716 633.43 59.5556C634.438 59.9397 635.566 60.2758 636.815 60.5638C638.063 60.8999 639.239 61.0679 640.343 61.0679C644.184 61.0679 647.065 60.1798 648.985 58.4034C650.953 56.6271 651.938 54.2026 651.938 51.13V44.6487L652.73 45.1528C652.586 46.161 652.13 47.1932 651.361 48.2494C650.641 49.2576 649.681 50.1938 648.481 51.058C647.281 51.9222 645.888 52.6423 644.304 53.2184C642.768 53.7465 641.183 54.0106 639.551 54.0106C636.142 54.0106 633.094 53.1704 630.405 51.4901C627.717 49.7617 625.58 47.4333 623.996 44.5047C622.412 41.5281 621.62 38.1195 621.62 34.2787C621.62 30.438 622.412 27.0533 623.996 24.1247C625.58 21.1482 627.693 18.8197 630.333 17.1394C633.022 15.411 636.022 14.5469 639.335 14.5469ZM640.415 21.1722C638.063 21.1722 635.998 21.7483 634.222 22.9005C632.446 24.0527 631.053 25.613 630.045 27.5814C629.037 29.5498 628.533 31.7822 628.533 34.2787C628.533 36.7752 629.037 39.0076 630.045 40.976C631.053 42.9444 632.446 44.5047 634.222 45.6569C635.998 46.8092 638.063 47.3853 640.415 47.3853C642.768 47.3853 644.832 46.8332 646.608 45.7289C648.385 44.5767 649.777 43.0164 650.785 41.048C651.793 39.0316 652.298 36.7752 652.298 34.2787C652.298 31.7822 651.793 29.5498 650.785 27.5814C649.777 25.565 648.385 24.0047 646.608 22.9005C644.832 21.7483 642.768 21.1722 640.415 21.1722ZM717.336 15.123C718.392 15.123 719.256 15.483 719.928 16.2032C720.6 16.8753 720.937 17.7395 720.937 18.7957V49.7617C720.937 53.9866 720.12 57.4192 718.488 60.0597C716.904 62.7003 714.743 64.6206 712.007 65.8209C709.318 67.0691 706.27 67.6932 702.861 67.6932C701.133 67.6932 699.404 67.5252 697.676 67.1891C695.948 66.9011 694.531 66.469 693.427 65.8929C692.275 65.3648 691.459 64.7166 690.979 63.9485C690.499 63.1803 690.427 62.3402 690.763 61.428C691.099 60.2758 691.675 59.4836 692.491 59.0515C693.307 58.6675 694.147 58.6435 695.011 58.9795C695.828 59.3156 696.908 59.7477 698.252 60.2758C699.596 60.8039 701.133 61.0679 702.861 61.0679C705.213 61.0679 707.206 60.6839 708.838 59.9157C710.47 59.1476 711.695 57.9473 712.511 56.315C713.375 54.6827 713.807 52.5703 713.807 49.9778V45.0088L714.959 46.7371C714.191 48.3215 713.183 49.6417 711.935 50.6979C710.687 51.7541 709.198 52.5703 707.47 53.1464C705.79 53.7225 703.917 54.0106 701.853 54.0106C699.212 54.0106 696.932 53.4344 695.011 52.2822C693.139 51.082 691.699 49.4497 690.691 47.3853C689.682 45.2729 689.178 42.8724 689.178 40.1839V18.7957C689.178 17.7395 689.514 16.8753 690.187 16.2032C690.859 15.483 691.723 15.123 692.779 15.123C693.787 15.123 694.627 15.483 695.3 16.2032C696.02 16.8753 696.38 17.7395 696.38 18.7957V38.2395C696.38 41.4081 697.076 43.7366 698.468 45.2248C699.86 46.6651 701.925 47.3853 704.661 47.3853C706.486 47.3853 708.07 47.0012 709.414 46.233C710.759 45.4649 711.815 44.4087 712.583 43.0644C713.351 41.6722 713.735 40.0638 713.735 38.2395V18.7957C713.735 17.7395 714.071 16.8753 714.743 16.2032C715.463 15.483 716.328 15.123 717.336 15.123ZM766.966 34.3507C766.966 38.1915 766.126 41.6001 764.445 44.5767C762.765 47.5053 760.485 49.8097 757.604 51.4901C754.723 53.1704 751.483 54.0106 747.882 54.0106C744.281 54.0106 741.041 53.1704 738.16 51.4901C735.28 49.8097 732.975 47.5053 731.247 44.5767C729.567 41.6001 728.726 38.1915 728.726 34.3507C728.726 30.462 729.567 27.0533 731.247 24.1247C732.975 21.1482 735.28 18.8197 738.16 17.1394C741.041 15.411 744.281 14.5469 747.882 14.5469C751.483 14.5469 754.723 15.411 757.604 17.1394C760.485 18.8197 762.765 21.1482 764.445 24.1247C766.126 27.0533 766.966 30.462 766.966 34.3507ZM759.764 34.3507C759.764 31.7102 759.236 29.4298 758.18 27.5094C757.124 25.541 755.684 24.0047 753.859 22.9005C752.083 21.7483 750.091 21.1722 747.882 21.1722C745.674 21.1722 743.657 21.7483 741.833 22.9005C740.009 24.0047 738.568 25.541 737.512 27.5094C736.456 29.4298 735.928 31.7102 735.928 34.3507C735.928 36.8952 736.456 39.1517 737.512 41.12C738.568 43.0884 740.009 44.6247 741.833 45.7289C743.657 46.8332 745.674 47.3853 747.882 47.3853C750.091 47.3853 752.083 46.8332 753.859 45.7289C755.684 44.6247 757.124 43.0884 758.18 41.12C759.236 39.1517 759.764 36.8952 759.764 34.3507ZM803.346 15.411C804.355 15.411 805.195 15.7711 805.867 16.4912C806.587 17.1634 806.947 18.0275 806.947 19.0837V38.0234C806.947 43.0164 805.555 46.9292 802.77 49.7617C799.986 52.5463 796.049 53.9385 790.96 53.9385C785.919 53.9385 782.006 52.5463 779.222 49.7617C776.485 46.9292 775.117 43.0164 775.117 38.0234V19.0837C775.117 18.0275 775.453 17.1634 776.125 16.4912C776.797 15.7711 777.661 15.411 778.718 15.411C779.726 15.411 780.566 15.7711 781.238 16.4912C781.958 17.1634 782.318 18.0275 782.318 19.0837V38.0234C782.318 41.1441 783.039 43.4725 784.479 45.0088C785.967 46.5451 788.127 47.3133 790.96 47.3133C793.841 47.3133 796.025 46.5451 797.513 45.0088C799.002 43.4725 799.746 41.1441 799.746 38.0234V19.0837C799.746 18.0275 800.082 17.1634 800.754 16.4912C801.426 15.7711 802.29 15.411 803.346 15.411ZM820.562 53.2904C819.506 53.2904 818.641 52.9544 817.969 52.2822C817.297 51.5621 816.961 50.6739 816.961 49.6177V19.0837C816.961 18.0275 817.297 17.1634 817.969 16.4912C818.641 15.7711 819.506 15.411 820.562 15.411C821.57 15.411 822.41 15.7711 823.082 16.4912C823.802 17.1634 824.162 18.0275 824.162 19.0837V27.1493L823.442 24.0527C823.826 22.7085 824.403 21.4602 825.171 20.308C825.987 19.1558 826.947 18.1476 828.051 17.2834C829.155 16.4192 830.38 15.7471 831.724 15.267C833.116 14.7869 834.556 14.5469 836.045 14.5469C837.293 14.5469 838.373 14.8829 839.285 15.5551C840.198 16.2272 840.654 17.0674 840.654 18.0756C840.654 19.3718 840.318 20.332 839.645 20.9561C838.973 21.5322 838.229 21.8203 837.413 21.8203C836.693 21.8203 835.997 21.6763 835.325 21.3882C834.653 21.0521 833.86 20.8841 832.948 20.8841C831.94 20.8841 830.908 21.1482 829.852 21.6763C828.795 22.2044 827.835 22.9965 826.971 24.0527C826.107 25.0609 825.411 26.2611 824.883 27.6534C824.403 29.0457 824.162 30.606 824.162 32.3343V49.6177C824.162 50.6739 823.802 51.5621 823.082 52.2822C822.41 52.9544 821.57 53.2904 820.562 53.2904ZM886.115 14.7629C889.668 14.7629 892.405 15.6511 894.325 17.4274C896.245 19.1558 897.518 21.5082 898.142 24.4848L896.989 24.1247L897.494 22.9725C898.118 21.7243 899.054 20.476 900.302 19.2278C901.598 17.9315 903.135 16.8753 904.911 16.0592C906.687 15.195 908.584 14.7629 910.6 14.7629C913.913 14.7629 916.481 15.483 918.306 16.9233C920.13 18.3156 921.402 20.212 922.122 22.6124C922.843 24.9649 923.203 27.6054 923.203 30.534V49.6177C923.203 50.6739 922.867 51.5621 922.194 52.2822C921.522 52.9544 920.658 53.2904 919.602 53.2904C918.594 53.2904 917.73 52.9544 917.009 52.2822C916.337 51.5621 916.001 50.6739 916.001 49.6177V30.606C916.001 28.9257 915.761 27.3894 915.281 25.9971C914.849 24.6048 914.057 23.5006 912.905 22.6845C911.8 21.8203 910.264 21.3882 908.296 21.3882C906.423 21.3882 904.743 21.8203 903.255 22.6845C901.814 23.5006 900.686 24.6048 899.87 25.9971C899.054 27.3894 898.646 28.9257 898.646 30.606V49.6177C898.646 50.6739 898.31 51.5621 897.638 52.2822C896.965 52.9544 896.101 53.2904 895.045 53.2904C893.989 53.2904 893.125 52.9544 892.453 52.2822C891.78 51.5621 891.444 50.6739 891.444 49.6177V30.534C891.444 28.8537 891.204 27.3174 890.724 25.9251C890.292 24.5328 889.524 23.4286 888.42 22.6124C887.316 21.7963 885.779 21.3882 883.811 21.3882C881.939 21.3882 880.282 21.7963 878.842 22.6124C877.402 23.4286 876.273 24.5328 875.457 25.9251C874.689 27.3174 874.305 28.8537 874.305 30.534V49.6177C874.305 50.6739 873.945 51.5621 873.225 52.2822C872.553 52.9544 871.713 53.2904 870.704 53.2904C869.648 53.2904 868.784 52.9544 868.112 52.2822C867.44 51.5621 867.104 50.6739 867.104 49.6177V19.0837C867.104 18.0275 867.44 17.1634 868.112 16.4912C868.784 15.7711 869.648 15.411 870.704 15.411C871.713 15.411 872.553 15.7711 873.225 16.4912C873.945 17.1634 874.305 18.0275 874.305 19.0837V23.3326L872.937 24.1247C873.273 23.0685 873.825 21.9883 874.593 20.8841C875.361 19.7799 876.321 18.7717 877.474 17.8595C878.674 16.9473 879.994 16.2032 881.434 15.6271C882.875 15.051 884.435 14.7629 886.115 14.7629ZM964.319 14.8349C965.375 14.8349 966.239 15.195 966.911 15.9151C967.583 16.5873 967.919 17.4514 967.919 18.5076V49.6177C967.919 50.6739 967.583 51.5621 966.911 52.2822C966.239 52.9544 965.375 53.2904 964.319 53.2904C963.31 53.2904 962.446 52.9544 961.726 52.2822C961.054 51.5621 960.718 50.6739 960.718 49.6177V44.4327L962.23 44.6487C962.23 45.5129 961.87 46.4731 961.15 47.5293C960.478 48.5855 959.542 49.6177 958.342 50.6259C957.141 51.5861 955.725 52.4022 954.093 53.0744C952.46 53.6985 950.708 54.0106 948.836 54.0106C945.523 54.0106 942.546 53.1704 939.906 51.4901C937.265 49.7617 935.177 47.4093 933.641 44.4327C932.104 41.4561 931.336 38.0715 931.336 34.2787C931.336 30.39 932.104 26.9813 933.641 24.0527C935.177 21.0761 937.241 18.7477 939.834 17.0674C942.474 15.387 945.403 14.5469 948.62 14.5469C950.684 14.5469 952.58 14.8829 954.309 15.5551C956.085 16.2272 957.621 17.0914 958.918 18.1476C960.214 19.2038 961.198 20.332 961.87 21.5322C962.59 22.6845 962.95 23.7887 962.95 24.8449L960.718 25.0609V18.5076C960.718 17.4994 961.054 16.6353 961.726 15.9151C962.446 15.195 963.31 14.8349 964.319 14.8349ZM949.628 47.3853C951.884 47.3853 953.877 46.8092 955.605 45.6569C957.333 44.5047 958.678 42.9444 959.638 40.976C960.598 38.9596 961.078 36.7272 961.078 34.2787C961.078 31.7822 960.598 29.5498 959.638 27.5814C958.678 25.613 957.333 24.0527 955.605 22.9005C953.877 21.7483 951.884 21.1722 949.628 21.1722C947.419 21.1722 945.451 21.7483 943.723 22.9005C942.042 24.0527 940.698 25.613 939.69 27.5814C938.73 29.5498 938.25 31.7822 938.25 34.2787C938.25 36.7272 938.73 38.9596 939.69 40.976C940.698 42.9444 942.042 44.5047 943.723 45.6569C945.451 46.8092 947.419 47.3853 949.628 47.3853ZM981.609 53.2904C980.553 53.2904 979.688 52.9544 979.016 52.2822C978.344 51.5621 978.008 50.6739 978.008 49.6177V19.0837C978.008 18.0275 978.344 17.1634 979.016 16.4912C979.688 15.7711 980.553 15.411 981.609 15.411C982.617 15.411 983.457 15.7711 984.129 16.4912C984.849 17.1634 985.209 18.0275 985.209 19.0837V27.1493L984.489 24.0527C984.873 22.7085 985.45 21.4602 986.218 20.308C987.034 19.1558 987.994 18.1476 989.098 17.2834C990.202 16.4192 991.427 15.7471 992.771 15.267C994.163 14.7869 995.604 14.5469 997.092 14.5469C998.34 14.5469 999.42 14.8829 1000.33 15.5551C1001.24 16.2272 1001.7 17.0674 1001.7 18.0756C1001.7 19.3718 1001.36 20.332 1000.69 20.9561C1000.02 21.5322 999.276 21.8203 998.46 21.8203C997.74 21.8203 997.044 21.6763 996.372 21.3882C995.7 21.0521 994.907 20.8841 993.995 20.8841C992.987 20.8841 991.955 21.1482 990.899 21.6763C989.842 22.2044 988.882 22.9965 988.018 24.0527C987.154 25.0609 986.458 26.2611 985.93 27.6534C985.45 29.0457 985.209 30.606 985.209 32.3343V49.6177C985.209 50.6739 984.849 51.5621 984.129 52.2822C983.457 52.9544 982.617 53.2904 981.609 53.2904ZM1012.28 53.2904C1011.28 53.2904 1010.41 52.9544 1009.69 52.2822C1009.02 51.5621 1008.68 50.6739 1008.68 49.6177V3.67274C1008.68 2.61654 1009.02 1.75237 1009.69 1.08024C1010.41 0.360098 1011.28 2.86158e-05 1012.28 2.86158e-05C1013.34 2.86158e-05 1014.2 0.360098 1014.88 1.08024C1015.55 1.75237 1015.89 2.61654 1015.89 3.67274V49.6177C1015.89 50.6739 1015.55 51.5621 1014.88 52.2822C1014.2 52.9544 1013.34 53.2904 1012.28 53.2904ZM1035.76 15.267C1036.67 15.267 1037.47 15.6511 1038.14 16.4192C1038.81 17.1874 1039.15 17.9555 1039.15 18.7237C1039.15 19.6839 1038.69 20.572 1037.78 21.3882L1015.24 41.5521L1014.95 33.2705L1033.1 16.4192C1033.86 15.6511 1034.75 15.267 1035.76 15.267ZM1036.63 53.2184C1035.62 53.2184 1034.75 52.8103 1034.03 51.9942L1019.63 36.7992L1025.1 31.7582L1039.15 46.9532C1039.91 47.7693 1040.3 48.6815 1040.3 49.6897C1040.3 50.7459 1039.87 51.6101 1039 52.2822C1038.19 52.9063 1037.39 53.2184 1036.63 53.2184ZM1064.29 54.0106C1060.31 54.0106 1056.85 53.1944 1053.92 51.5621C1050.99 49.8818 1048.71 47.6013 1047.08 44.7207C1045.49 41.7922 1044.7 38.4555 1044.7 34.7108C1044.7 30.486 1045.54 26.8853 1047.22 23.9087C1048.95 20.8841 1051.18 18.5797 1053.92 16.9953C1056.66 15.363 1059.56 14.5469 1062.63 14.5469C1064.99 14.5469 1067.22 15.027 1069.33 15.9871C1071.44 16.8993 1073.32 18.1956 1074.95 19.8759C1076.63 21.5082 1077.95 23.4526 1078.91 25.709C1079.87 27.9175 1080.37 30.3419 1080.42 32.9825C1080.37 33.9426 1079.99 34.7348 1079.27 35.3589C1078.55 35.983 1077.71 36.2951 1076.75 36.2951H1048.73L1047.01 30.1739H1074.08L1072.72 31.4702V29.6698C1072.62 27.9895 1072.07 26.5252 1071.06 25.277C1070.05 23.9807 1068.8 22.9965 1067.31 22.3244C1065.83 21.6042 1064.27 21.2442 1062.63 21.2442C1061.19 21.2442 1059.8 21.4842 1058.46 21.9643C1057.16 22.3964 1055.98 23.1165 1054.93 24.1247C1053.92 25.1329 1053.1 26.4772 1052.48 28.1575C1051.9 29.7898 1051.62 31.8302 1051.62 34.2787C1051.62 36.9192 1052.17 39.2237 1053.27 41.1921C1054.38 43.1604 1055.86 44.6967 1057.74 45.801C1059.61 46.8572 1061.67 47.3853 1063.93 47.3853C1065.71 47.3853 1067.17 47.2172 1068.32 46.8812C1069.47 46.4971 1070.44 46.041 1071.2 45.5129C1071.97 44.9848 1072.64 44.4807 1073.22 44.0006C1073.94 43.5685 1074.66 43.3525 1075.38 43.3525C1076.24 43.3525 1076.96 43.6645 1077.54 44.2887C1078.12 44.8648 1078.4 45.5609 1078.4 46.3771C1078.4 47.4333 1077.88 48.3935 1076.82 49.2576C1075.52 50.5059 1073.72 51.6101 1071.42 52.5703C1069.16 53.5305 1066.79 54.0106 1064.29 54.0106ZM1088.06 15.8431H1104.98C1105.94 15.8431 1106.73 16.1792 1107.36 16.8513C1108.03 17.4754 1108.36 18.2676 1108.36 19.2278C1108.36 20.14 1108.03 20.9081 1107.36 21.5322C1106.73 22.1563 1105.94 22.4684 1104.98 22.4684H1088.06C1087.1 22.4684 1086.28 22.1563 1085.61 21.5322C1084.98 20.8601 1084.67 20.0679 1084.67 19.1558C1084.67 18.1956 1084.98 17.4034 1085.61 16.7793C1086.28 16.1552 1087.1 15.8431 1088.06 15.8431ZM1095.62 6.48129C1096.67 6.48129 1097.54 6.84136 1098.21 7.5615C1098.88 8.23363 1099.22 9.0978 1099.22 10.154V43.5685C1099.22 44.4327 1099.36 45.1288 1099.65 45.6569C1099.94 46.185 1100.32 46.5451 1100.8 46.7371C1101.33 46.9292 1101.86 47.0252 1102.39 47.0252C1102.92 47.0252 1103.37 46.9292 1103.76 46.7371C1104.19 46.5451 1104.69 46.4491 1105.27 46.4491C1105.84 46.4491 1106.37 46.7131 1106.85 47.2412C1107.33 47.7693 1107.57 48.4895 1107.57 49.4017C1107.57 50.5539 1106.95 51.4901 1105.7 52.2102C1104.45 52.9304 1103.11 53.2904 1101.67 53.2904C1100.85 53.2904 1099.89 53.2184 1098.79 53.0744C1097.68 52.9304 1096.6 52.5703 1095.55 51.9942C1094.54 51.4181 1093.7 50.5059 1093.03 49.2576C1092.35 47.9614 1092.02 46.161 1092.02 43.8566V10.154C1092.02 9.0978 1092.35 8.23363 1093.03 7.5615C1093.75 6.84136 1094.61 6.48129 1095.62 6.48129ZM1123.11 49.6177C1123.11 50.6739 1122.77 51.5621 1122.1 52.2822C1121.43 52.9544 1120.56 53.2904 1119.51 53.2904C1118.5 53.2904 1117.64 52.9544 1116.92 52.2822C1116.24 51.5621 1115.91 50.6739 1115.91 49.6177V18.7957C1115.91 17.7395 1116.24 16.8753 1116.92 16.2032C1117.64 15.483 1118.5 15.123 1119.51 15.123C1120.56 15.123 1121.43 15.483 1122.1 16.2032C1122.77 16.8753 1123.11 17.7395 1123.11 18.7957V49.6177ZM1119.44 10.3701C1118.04 10.3701 1117.04 10.13 1116.41 9.64991C1115.79 9.12181 1115.48 8.25764 1115.48 7.0574V5.90518C1115.48 4.70494 1115.81 3.86478 1116.48 3.38469C1117.16 2.90459 1118.16 2.66455 1119.51 2.66455C1120.95 2.66455 1121.98 2.9286 1122.6 3.4567C1123.23 3.93679 1123.54 4.75295 1123.54 5.90518V7.0574C1123.54 8.30565 1123.21 9.16981 1122.53 9.64991C1121.91 10.13 1120.88 10.3701 1119.44 10.3701ZM1152.31 14.5469C1155.72 14.5469 1158.36 15.267 1160.23 16.7073C1162.11 18.0996 1163.4 19.9959 1164.12 22.3964C1164.89 24.7489 1165.27 27.3894 1165.27 30.3179V49.6177C1165.27 50.6739 1164.91 51.5621 1164.19 52.2822C1163.52 52.9544 1162.68 53.2904 1161.67 53.2904C1160.62 53.2904 1159.75 52.9544 1159.08 52.2822C1158.41 51.5621 1158.07 50.6739 1158.07 49.6177V30.39C1158.07 28.6616 1157.83 27.1253 1157.35 25.7811C1156.87 24.3888 1156.03 23.2846 1154.83 22.4684C1153.68 21.6042 1152.05 21.1722 1149.94 21.1722C1147.97 21.1722 1146.24 21.6042 1144.75 22.4684C1143.26 23.2846 1142.09 24.3888 1141.22 25.7811C1140.41 27.1253 1140 28.6616 1140 30.39V49.6177C1140 50.6739 1139.64 51.5621 1138.92 52.2822C1138.25 52.9544 1137.4 53.2904 1136.4 53.2904C1135.34 53.2904 1134.48 52.9544 1133.8 52.2822C1133.13 51.5621 1132.8 50.6739 1132.8 49.6177V19.0837C1132.8 18.0275 1133.13 17.1634 1133.8 16.4912C1134.48 15.7711 1135.34 15.411 1136.4 15.411C1137.4 15.411 1138.25 15.7711 1138.92 16.4912C1139.64 17.1634 1140 18.0275 1140 19.0837V23.1165L1138.7 23.8367C1139.04 22.7805 1139.61 21.7243 1140.43 20.6681C1141.29 19.5638 1142.33 18.5556 1143.53 17.6435C1144.73 16.6833 1146.07 15.9391 1147.56 15.411C1149.05 14.8349 1150.63 14.5469 1152.31 14.5469ZM1191.04 14.5469C1193.11 14.5469 1195 14.8829 1196.73 15.5551C1198.46 16.2272 1199.95 17.0914 1201.2 18.1476C1202.49 19.1558 1203.5 20.212 1204.22 21.3162C1204.94 22.4204 1205.3 23.3806 1205.3 24.1967L1203.65 24.2688V18.5076C1203.65 17.4994 1203.98 16.6353 1204.65 15.9151C1205.33 15.195 1206.19 14.8349 1207.25 14.8349C1208.3 14.8349 1209.17 15.195 1209.84 15.9151C1210.51 16.5873 1210.85 17.4514 1210.85 18.5076V50.2658C1210.85 54.3466 1209.98 57.6593 1208.26 60.2038C1206.53 62.7963 1204.22 64.6926 1201.34 65.8929C1198.51 67.0931 1195.39 67.6932 1191.98 67.6932C1190.78 67.6932 1189.36 67.5252 1187.73 67.1891C1186.1 66.9011 1184.59 66.541 1183.19 66.1089C1181.85 65.6768 1180.91 65.2448 1180.39 64.8127C1179.28 64.2366 1178.54 63.5644 1178.15 62.7963C1177.82 62.0281 1177.82 61.26 1178.15 60.4918C1178.63 59.4356 1179.28 58.7875 1180.1 58.5474C1180.91 58.3074 1181.85 58.3794 1182.91 58.7635C1183.39 58.9075 1184.13 59.1716 1185.14 59.5556C1186.15 59.9397 1187.28 60.2758 1188.52 60.5638C1189.77 60.8999 1190.95 61.0679 1192.05 61.0679C1195.89 61.0679 1198.77 60.1798 1200.69 58.4034C1202.66 56.6271 1203.65 54.2026 1203.65 51.13V44.6487L1204.44 45.1528C1204.29 46.161 1203.84 47.1932 1203.07 48.2494C1202.35 49.2576 1201.39 50.1938 1200.19 51.058C1198.99 51.9222 1197.6 52.6423 1196.01 53.2184C1194.48 53.7465 1192.89 54.0106 1191.26 54.0106C1187.85 54.0106 1184.8 53.1704 1182.11 51.4901C1179.43 49.7617 1177.29 47.4333 1175.71 44.5047C1174.12 41.5281 1173.33 38.1195 1173.33 34.2787C1173.33 30.438 1174.12 27.0533 1175.71 24.1247C1177.29 21.1482 1179.4 18.8197 1182.04 17.1394C1184.73 15.411 1187.73 14.5469 1191.04 14.5469ZM1192.12 21.1722C1189.77 21.1722 1187.71 21.7483 1185.93 22.9005C1184.15 24.0527 1182.76 25.613 1181.75 27.5814C1180.75 29.5498 1180.24 31.7822 1180.24 34.2787C1180.24 36.7752 1180.75 39.0076 1181.75 40.976C1182.76 42.9444 1184.15 44.5047 1185.93 45.6569C1187.71 46.8092 1189.77 47.3853 1192.12 47.3853C1194.48 47.3853 1196.54 46.8332 1198.32 45.7289C1200.09 44.5767 1201.49 43.0164 1202.49 41.048C1203.5 39.0316 1204.01 36.7752 1204.01 34.2787C1204.01 31.7822 1203.5 29.5498 1202.49 27.5814C1201.49 25.565 1200.09 24.0047 1198.32 22.9005C1196.54 21.7483 1194.48 21.1722 1192.12 21.1722ZM1246 53.2904C1244.85 53.2904 1243.84 52.9544 1242.98 52.2822C1242.11 51.5621 1241.68 50.6739 1241.68 49.6177V6.5533C1241.68 5.4971 1242.04 4.63293 1242.76 3.9608C1243.48 3.24066 1244.34 2.88059 1245.35 2.88059H1265.66C1268.25 2.88059 1270.63 3.52871 1272.79 4.82497C1274.95 6.07321 1276.68 7.82555 1277.97 10.082C1279.32 12.2904 1279.99 14.8349 1279.99 17.7155C1279.99 19.6359 1279.61 21.4842 1278.84 23.2606C1278.07 24.9889 1277.04 26.5252 1275.74 27.8695C1274.45 29.2137 1272.98 30.2219 1271.35 30.8941L1270.56 29.5258C1272.05 30.0539 1273.34 30.822 1274.45 31.8302C1275.55 32.7904 1276.41 33.9426 1277.04 35.2869C1277.71 36.5832 1278.07 38.0715 1278.12 39.7518C1278.26 41.2401 1278.38 42.4883 1278.48 43.4965C1278.62 44.4567 1278.81 45.2489 1279.05 45.873C1279.29 46.4971 1279.73 46.9772 1280.35 47.3133C1281.22 47.7933 1281.74 48.5135 1281.94 49.4737C1282.18 50.4339 1281.98 51.298 1281.36 52.0662C1280.93 52.6423 1280.38 53.0264 1279.7 53.2184C1279.08 53.3624 1278.43 53.3864 1277.76 53.2904C1277.09 53.1464 1276.51 52.9544 1276.03 52.7143C1275.26 52.2342 1274.47 51.5621 1273.65 50.6979C1272.89 49.7857 1272.26 48.5375 1271.78 46.9532C1271.3 45.3689 1271.06 43.2805 1271.06 40.688C1271.06 39.4877 1270.87 38.4555 1270.49 37.5914C1270.1 36.7272 1269.57 36.0311 1268.9 35.503C1268.23 34.9268 1267.44 34.5188 1266.52 34.2787C1265.61 33.9907 1264.6 33.8466 1263.5 33.8466H1248.23L1249.24 32.4063V49.6177C1249.24 50.6739 1248.95 51.5621 1248.38 52.2822C1247.8 52.9544 1247.01 53.2904 1246 53.2904ZM1248.3 27.5814H1265.52C1266.62 27.5334 1267.68 27.1013 1268.68 26.2852C1269.74 25.421 1270.58 24.2688 1271.21 22.8285C1271.88 21.3882 1272.21 19.7559 1272.21 17.9315C1272.21 15.6271 1271.52 13.7067 1270.13 12.1704C1268.78 10.5861 1267.17 9.79394 1265.3 9.79394H1248.45L1249.24 7.92157V29.0937L1248.3 27.5814ZM1335.94 28.0855C1335.94 31.7342 1335.34 35.1429 1334.14 38.3115C1332.94 41.4321 1331.23 44.1686 1329.03 46.5211C1326.86 48.8736 1324.3 50.7219 1321.32 52.0662C1318.34 53.3624 1315.08 54.0106 1311.53 54.0106C1308.02 54.0106 1304.78 53.3624 1301.8 52.0662C1298.83 50.7219 1296.23 48.8736 1294.03 46.5211C1291.87 44.1686 1290.19 41.4321 1288.99 38.3115C1287.83 35.1429 1287.26 31.7342 1287.26 28.0855C1287.26 24.4368 1287.83 21.0521 1288.99 17.9315C1290.19 14.7629 1291.87 12.0024 1294.03 9.64991C1296.23 7.29745 1298.83 5.47309 1301.8 4.17684C1304.78 2.83258 1308.02 2.16045 1311.53 2.16045C1315.08 2.16045 1318.34 2.83258 1321.32 4.17684C1324.3 5.47309 1326.86 7.29745 1329.03 9.64991C1331.23 12.0024 1332.94 14.7629 1334.14 17.9315C1335.34 21.0521 1335.94 24.4368 1335.94 28.0855ZM1328.16 28.0855C1328.16 24.5328 1327.44 21.3402 1326 18.5076C1324.61 15.6751 1322.66 13.4426 1320.17 11.8103C1317.67 10.178 1314.79 9.36185 1311.53 9.36185C1308.31 9.36185 1305.45 10.178 1302.96 11.8103C1300.46 13.4426 1298.52 15.6751 1297.12 18.5076C1295.73 21.2922 1295.03 24.4848 1295.03 28.0855C1295.03 31.6382 1295.73 34.8308 1297.12 37.6634C1298.52 40.4959 1300.46 42.7284 1302.96 44.3607C1305.45 45.993 1308.31 46.8092 1311.53 46.8092C1314.79 46.8092 1317.67 45.993 1320.17 44.3607C1322.66 42.7284 1324.61 40.4959 1326 37.6634C1327.44 34.8308 1328.16 31.6382 1328.16 28.0855ZM1352.34 49.6177C1352.29 50.6739 1351.88 51.5621 1351.12 52.2822C1350.39 52.9544 1349.53 53.2904 1348.52 53.2904C1347.42 53.2904 1346.51 52.9544 1345.79 52.2822C1345.11 51.5621 1344.78 50.6739 1344.78 49.6177V6.5533C1344.78 5.4971 1345.14 4.63293 1345.86 3.9608C1346.58 3.24066 1347.51 2.88059 1348.67 2.88059C1349.63 2.88059 1350.47 3.24066 1351.19 3.9608C1351.96 4.63293 1352.34 5.4971 1352.34 6.5533V49.6177ZM1386.83 53.2904C1385.77 53.2904 1384.91 52.9544 1384.24 52.2822C1383.56 51.5621 1383.23 50.6739 1383.23 49.6177V19.0837C1383.23 18.0275 1383.56 17.1634 1384.24 16.4912C1384.91 15.7711 1385.77 15.411 1386.83 15.411C1387.84 15.411 1388.68 15.7711 1389.35 16.4912C1390.07 17.1634 1390.43 18.0275 1390.43 19.0837V27.1493L1389.71 24.0527C1390.09 22.7085 1390.67 21.4602 1391.44 20.308C1392.25 19.1558 1393.21 18.1476 1394.32 17.2834C1395.42 16.4192 1396.65 15.7471 1397.99 15.267C1399.38 14.7869 1400.82 14.5469 1402.31 14.5469C1403.56 14.5469 1404.64 14.8829 1405.55 15.5551C1406.46 16.2272 1406.92 17.0674 1406.92 18.0756C1406.92 19.3718 1406.58 20.332 1405.91 20.9561C1405.24 21.5322 1404.5 21.8203 1403.68 21.8203C1402.96 21.8203 1402.26 21.6763 1401.59 21.3882C1400.92 21.0521 1400.13 20.8841 1399.21 20.8841C1398.21 20.8841 1397.17 21.1482 1396.12 21.6763C1395.06 22.2044 1394.1 22.9965 1393.24 24.0527C1392.37 25.0609 1391.68 26.2611 1391.15 27.6534C1390.67 29.0457 1390.43 30.606 1390.43 32.3343V49.6177C1390.43 50.6739 1390.07 51.5621 1389.35 52.2822C1388.68 52.9544 1387.84 53.2904 1386.83 53.2904ZM1420.1 49.6177C1420.1 50.6739 1419.76 51.5621 1419.09 52.2822C1418.42 52.9544 1417.55 53.2904 1416.5 53.2904C1415.49 53.2904 1414.62 52.9544 1413.9 52.2822C1413.23 51.5621 1412.9 50.6739 1412.9 49.6177V18.7957C1412.9 17.7395 1413.23 16.8753 1413.9 16.2032C1414.62 15.483 1415.49 15.123 1416.5 15.123C1417.55 15.123 1418.42 15.483 1419.09 16.2032C1419.76 16.8753 1420.1 17.7395 1420.1 18.7957V49.6177ZM1416.42 10.3701C1415.03 10.3701 1414.02 10.13 1413.4 9.64991C1412.78 9.12181 1412.46 8.25764 1412.46 7.0574V5.90518C1412.46 4.70494 1412.8 3.86478 1413.47 3.38469C1414.14 2.90459 1415.15 2.66455 1416.5 2.66455C1417.94 2.66455 1418.97 2.9286 1419.59 3.4567C1420.22 3.93679 1420.53 4.75295 1420.53 5.90518V7.0574C1420.53 8.30565 1420.19 9.16981 1419.52 9.64991C1418.9 10.13 1417.86 10.3701 1416.42 10.3701ZM1445.55 14.5469C1447.62 14.5469 1449.52 14.8829 1451.24 15.5551C1452.97 16.2272 1454.46 17.0914 1455.71 18.1476C1457 19.1558 1458.01 20.212 1458.73 21.3162C1459.45 22.4204 1459.81 23.3806 1459.81 24.1967L1458.16 24.2688V18.5076C1458.16 17.4994 1458.49 16.6353 1459.17 15.9151C1459.84 15.195 1460.7 14.8349 1461.76 14.8349C1462.81 14.8349 1463.68 15.195 1464.35 15.9151C1465.02 16.5873 1465.36 17.4514 1465.36 18.5076V50.2658C1465.36 54.3466 1464.49 57.6593 1462.77 60.2038C1461.04 62.7963 1458.73 64.6926 1455.85 65.8929C1453.02 67.0931 1449.9 67.6932 1446.49 67.6932C1445.29 67.6932 1443.87 67.5252 1442.24 67.1891C1440.61 66.9011 1439.1 66.541 1437.71 66.1089C1436.36 65.6768 1435.42 65.2448 1434.9 64.8127C1433.79 64.2366 1433.05 63.5644 1432.66 62.7963C1432.33 62.0281 1432.33 61.26 1432.66 60.4918C1433.14 59.4356 1433.79 58.7875 1434.61 58.5474C1435.42 58.3074 1436.36 58.3794 1437.42 58.7635C1437.9 58.9075 1438.64 59.1716 1439.65 59.5556C1440.66 59.9397 1441.79 60.2758 1443.03 60.5638C1444.28 60.8999 1445.46 61.0679 1446.56 61.0679C1450.4 61.0679 1453.28 60.1798 1455.2 58.4034C1457.17 56.6271 1458.16 54.2026 1458.16 51.13V44.6487L1458.95 45.1528C1458.81 46.161 1458.35 47.1932 1457.58 48.2494C1456.86 49.2576 1455.9 50.1938 1454.7 51.058C1453.5 51.9222 1452.11 52.6423 1450.52 53.2184C1448.99 53.7465 1447.4 54.0106 1445.77 54.0106C1442.36 54.0106 1439.31 53.1704 1436.63 51.4901C1433.94 49.7617 1431.8 47.4333 1430.22 44.5047C1428.63 41.5281 1427.84 38.1195 1427.84 34.2787C1427.84 30.438 1428.63 27.0533 1430.22 24.1247C1431.8 21.1482 1433.91 18.8197 1436.55 17.1394C1439.24 15.411 1442.24 14.5469 1445.55 14.5469ZM1446.63 21.1722C1444.28 21.1722 1442.22 21.7483 1440.44 22.9005C1438.67 24.0527 1437.27 25.613 1436.26 27.5814C1435.26 29.5498 1434.75 31.7822 1434.75 34.2787C1434.75 36.7752 1435.26 39.0076 1436.26 40.976C1437.27 42.9444 1438.67 44.5047 1440.44 45.6569C1442.22 46.8092 1444.28 47.3853 1446.63 47.3853C1448.99 47.3853 1451.05 46.8332 1452.83 45.7289C1454.6 44.5767 1456 43.0164 1457 41.048C1458.01 39.0316 1458.52 36.7752 1458.52 34.2787C1458.52 31.7822 1458.01 29.5498 1457 27.5814C1456 25.565 1454.6 24.0047 1452.83 22.9005C1451.05 21.7483 1448.99 21.1722 1446.63 21.1722ZM1494.44 14.7629C1497.75 14.7629 1500.32 15.483 1502.14 16.9233C1503.97 18.3156 1505.24 20.212 1505.96 22.6124C1506.73 25.0129 1507.11 27.6534 1507.11 30.534V49.6177C1507.11 50.6739 1506.75 51.5621 1506.03 52.2822C1505.36 52.9544 1504.52 53.2904 1503.51 53.2904C1502.46 53.2904 1501.59 52.9544 1500.92 52.2822C1500.25 51.5621 1499.91 50.6739 1499.91 49.6177V30.534C1499.91 28.8537 1499.67 27.3174 1499.19 25.9251C1498.76 24.5328 1497.97 23.4286 1496.82 22.6124C1495.71 21.7963 1494.15 21.3882 1492.13 21.3882C1490.26 21.3882 1488.58 21.7963 1487.09 22.6124C1485.65 23.4286 1484.52 24.5328 1483.71 25.9251C1482.94 27.3174 1482.56 28.8537 1482.56 30.534V49.6177C1482.56 50.6739 1482.2 51.5621 1481.48 52.2822C1480.8 52.9544 1479.96 53.2904 1478.96 53.2904C1477.9 53.2904 1477.04 52.9544 1476.36 52.2822C1475.69 51.5621 1475.36 50.6739 1475.36 49.6177V3.67274C1475.36 2.61654 1475.69 1.75237 1476.36 1.08024C1477.04 0.360098 1477.9 2.86158e-05 1478.96 2.86158e-05C1479.96 2.86158e-05 1480.8 0.360098 1481.48 1.08024C1482.2 1.75237 1482.56 2.61654 1482.56 3.67274V23.3326L1481.26 24.0527C1481.6 22.9965 1482.15 21.9163 1482.92 20.8121C1483.73 19.7079 1484.72 18.6997 1485.87 17.7875C1487.07 16.8753 1488.39 16.1552 1489.83 15.6271C1491.27 15.051 1492.81 14.7629 1494.44 14.7629ZM1516.62 15.8431H1533.55C1534.51 15.8431 1535.3 16.1792 1535.92 16.8513C1536.6 17.4754 1536.93 18.2676 1536.93 19.2278C1536.93 20.14 1536.6 20.9081 1535.92 21.5322C1535.3 22.1563 1534.51 22.4684 1533.55 22.4684H1516.62C1515.66 22.4684 1514.85 22.1563 1514.18 21.5322C1513.55 20.8601 1513.24 20.0679 1513.24 19.1558C1513.24 18.1956 1513.55 17.4034 1514.18 16.7793C1514.85 16.1552 1515.66 15.8431 1516.62 15.8431ZM1524.19 6.48129C1525.24 6.48129 1526.11 6.84136 1526.78 7.5615C1527.45 8.23363 1527.79 9.0978 1527.79 10.154V43.5685C1527.79 44.4327 1527.93 45.1288 1528.22 45.6569C1528.51 46.185 1528.89 46.5451 1529.37 46.7371C1529.9 46.9292 1530.43 47.0252 1530.96 47.0252C1531.48 47.0252 1531.94 46.9292 1532.32 46.7371C1532.76 46.5451 1533.26 46.4491 1533.84 46.4491C1534.41 46.4491 1534.94 46.7131 1535.42 47.2412C1535.9 47.7693 1536.14 48.4895 1536.14 49.4017C1536.14 50.5539 1535.52 51.4901 1534.27 52.2102C1533.02 52.9304 1531.68 53.2904 1530.24 53.2904C1529.42 53.2904 1528.46 53.2184 1527.35 53.0744C1526.25 52.9304 1525.17 52.5703 1524.11 51.9942C1523.11 51.4181 1522.27 50.5059 1521.59 49.2576C1520.92 47.9614 1520.59 46.161 1520.59 43.8566V10.154C1520.59 9.0978 1520.92 8.23363 1521.59 7.5615C1522.31 6.84136 1523.18 6.48129 1524.19 6.48129ZM1584.47 14.5469C1587.88 14.5469 1590.52 15.267 1592.39 16.7073C1594.26 18.0996 1595.56 19.9959 1596.28 22.3964C1597.04 24.7489 1597.43 27.3894 1597.43 30.3179V49.6177C1597.43 50.6739 1597.07 51.5621 1596.35 52.2822C1595.68 52.9544 1594.84 53.2904 1593.83 53.2904C1592.77 53.2904 1591.91 52.9544 1591.24 52.2822C1590.56 51.5621 1590.23 50.6739 1590.23 49.6177V30.39C1590.23 28.6616 1589.99 27.1253 1589.51 25.7811C1589.03 24.3888 1588.19 23.2846 1586.99 22.4684C1585.83 21.6042 1584.2 21.1722 1582.09 21.1722C1580.12 21.1722 1578.39 21.6042 1576.9 22.4684C1575.42 23.2846 1574.24 24.3888 1573.38 25.7811C1572.56 27.1253 1572.15 28.6616 1572.15 30.39V49.6177C1572.15 50.6739 1571.79 51.5621 1571.07 52.2822C1570.4 52.9544 1569.56 53.2904 1568.55 53.2904C1567.5 53.2904 1566.63 52.9544 1565.96 52.2822C1565.29 51.5621 1564.95 50.6739 1564.95 49.6177V19.0837C1564.95 18.0275 1565.29 17.1634 1565.96 16.4912C1566.63 15.7711 1567.5 15.411 1568.55 15.411C1569.56 15.411 1570.4 15.7711 1571.07 16.4912C1571.79 17.1634 1572.15 18.0275 1572.15 19.0837V23.1165L1570.86 23.8367C1571.19 22.7805 1571.77 21.7243 1572.58 20.6681C1573.45 19.5638 1574.48 18.5556 1575.68 17.6435C1576.88 16.6833 1578.23 15.9391 1579.71 15.411C1581.2 14.8349 1582.79 14.5469 1584.47 14.5469ZM1643.72 34.3507C1643.72 38.1915 1642.88 41.6001 1641.2 44.5767C1639.52 47.5053 1637.24 49.8097 1634.36 51.4901C1631.48 53.1704 1628.24 54.0106 1624.64 54.0106C1621.04 54.0106 1617.8 53.1704 1614.92 51.4901C1612.04 49.8097 1609.73 47.5053 1608 44.5767C1606.32 41.6001 1605.48 38.1915 1605.48 34.3507C1605.48 30.462 1606.32 27.0533 1608 24.1247C1609.73 21.1482 1612.04 18.8197 1614.92 17.1394C1617.8 15.411 1621.04 14.5469 1624.64 14.5469C1628.24 14.5469 1631.48 15.411 1634.36 17.1394C1637.24 18.8197 1639.52 21.1482 1641.2 24.1247C1642.88 27.0533 1643.72 30.462 1643.72 34.3507ZM1636.52 34.3507C1636.52 31.7102 1635.99 29.4298 1634.94 27.5094C1633.88 25.541 1632.44 24.0047 1630.62 22.9005C1628.84 21.7483 1626.85 21.1722 1624.64 21.1722C1622.43 21.1722 1620.41 21.7483 1618.59 22.9005C1616.77 24.0047 1615.33 25.541 1614.27 27.5094C1613.21 29.4298 1612.68 31.7102 1612.68 34.3507C1612.68 36.8952 1613.21 39.1517 1614.27 41.12C1615.33 43.0884 1616.77 44.6247 1618.59 45.7289C1620.41 46.8332 1622.43 47.3853 1624.64 47.3853C1626.85 47.3853 1628.84 46.8332 1630.62 45.7289C1632.44 44.6247 1633.88 43.0884 1634.94 41.12C1635.99 39.1517 1636.52 36.8952 1636.52 34.3507ZM1696.02 15.051C1696.93 15.051 1697.72 15.411 1698.39 16.1312C1699.12 16.8033 1699.48 17.6915 1699.48 18.7957C1699.48 19.0357 1699.45 19.2758 1699.4 19.5158C1699.36 19.7559 1699.28 19.9719 1699.19 20.164L1688.17 50.986C1687.88 51.8021 1687.38 52.4263 1686.66 52.8583C1685.94 53.2424 1685.19 53.3864 1684.42 53.2904C1683.03 53.1944 1682 52.4263 1681.33 50.986L1673.19 29.3818L1674.85 29.5258L1667.36 50.986C1666.68 52.4263 1665.65 53.1944 1664.26 53.2904C1663.54 53.3864 1662.8 53.2424 1662.03 52.8583C1661.31 52.4263 1660.8 51.8021 1660.52 50.986L1649.43 20.164C1649.23 19.7319 1649.14 19.2758 1649.14 18.7957C1649.14 17.7875 1649.45 16.9233 1650.07 16.2032C1650.75 15.435 1651.63 15.051 1652.74 15.051C1653.51 15.051 1654.18 15.243 1654.75 15.6271C1655.38 16.0111 1655.81 16.5873 1656.05 17.3554L1665.27 43.3525L1663.61 43.2085L1671.1 23.5486C1671.73 22.0603 1672.83 21.3162 1674.41 21.3162C1675.28 21.3162 1675.95 21.5082 1676.43 21.8923C1676.91 22.2764 1677.29 22.8285 1677.58 23.5486L1685.22 43.2805L1683.27 43.4965L1692.56 17.3554C1693.04 15.8191 1694.19 15.051 1696.02 15.051ZM1709.54 53.2184C1708.33 53.2184 1707.4 52.8823 1706.73 52.2102C1706.1 51.5381 1705.79 50.6019 1705.79 49.4017V48.1054C1705.79 46.9052 1706.1 45.969 1706.73 45.2969C1707.4 44.6247 1708.33 44.2887 1709.54 44.2887H1710.33C1711.53 44.2887 1712.44 44.6247 1713.06 45.2969C1713.69 45.969 1714 46.9052 1714 48.1054V49.4017C1714 50.6019 1713.69 51.5381 1713.06 52.2102C1712.44 52.8823 1711.53 53.2184 1710.33 53.2184H1709.54Z" fill="#FD5400"/>
</svg>
