<svg width="1072" height="34" viewBox="0 0 1072 34" fill="none" xmlns="http://www.w3.org/2000/svg">
<path d="M9.65059 26.6473C9.3145 26.6473 9.03842 26.5392 8.82236 26.3232C8.63031 26.1071 8.53429 25.8551 8.53429 25.567V2.62884H10.7669V25.567C10.7669 25.8551 10.6589 26.1071 10.4428 26.3232C10.2267 26.5392 9.96267 26.6473 9.65059 26.6473ZM1.08029 3.49307C0.792213 3.49307 0.540146 3.39705 0.324088 3.20499C0.10803 3.01294 1.04336e-06 2.76087 1.04336e-06 2.44879C1.04336e-06 2.16071 0.10803 1.92065 0.324088 1.7286C0.540146 1.53655 0.792213 1.44052 1.08029 1.44052H18.2209C18.509 1.44052 18.761 1.53655 18.9771 1.7286C19.1931 1.92065 19.3012 2.17272 19.3012 2.4848C19.3012 2.79688 19.1931 3.04895 18.9771 3.241C18.761 3.40905 18.509 3.49307 18.2209 3.49307H1.08029ZM31.7431 8.1023C33.2555 8.1023 34.4798 8.42639 35.416 9.07456C36.3523 9.72274 37.0365 10.599 37.4686 11.7033C37.9247 12.8076 38.1528 14.0319 38.1528 15.3763V25.567C38.1528 25.8551 38.0447 26.1071 37.8287 26.3232C37.6126 26.5392 37.3606 26.6473 37.0725 26.6473C36.7364 26.6473 36.4723 26.5392 36.2803 26.3232C36.0882 26.1071 35.9922 25.8551 35.9922 25.567V15.3763C35.9922 14.392 35.8362 13.5038 35.5241 12.7115C35.236 11.9193 34.7559 11.2952 34.0837 10.839C33.4115 10.3589 32.5113 10.1188 31.383 10.1188C30.3747 10.1188 29.4144 10.3589 28.5022 10.839C27.614 11.2952 26.8938 11.9193 26.3416 12.7115C25.7895 13.5038 25.5134 14.392 25.5134 15.3763V25.567C25.5134 25.8551 25.4054 26.1071 25.1893 26.3232C24.9732 26.5392 24.7212 26.6473 24.4331 26.6473C24.097 26.6473 23.8329 26.5392 23.6409 26.3232C23.4488 26.1071 23.3528 25.8551 23.3528 25.567V1.08042C23.3528 0.792347 23.4488 0.54028 23.6409 0.324223C23.857 0.108165 24.121 0.000136412 24.4331 0.000136412C24.7452 0.000136412 24.9973 0.108165 25.1893 0.324223C25.4054 0.54028 25.5134 0.792347 25.5134 1.08042V12.7475L24.6852 14.0079C24.7332 13.2637 24.9612 12.5435 25.3694 11.8473C25.8015 11.1271 26.3536 10.4909 27.0258 9.9388C27.698 9.36264 28.4422 8.91852 29.2584 8.60644C30.0746 8.27035 30.9028 8.1023 31.7431 8.1023ZM52.1375 27.0074C50.289 27.0074 48.6565 26.6113 47.2401 25.819C45.8238 25.0268 44.7195 23.9225 43.9273 22.5062C43.135 21.0898 42.7389 19.4333 42.7389 17.5368C42.7389 15.4963 43.135 13.7558 43.9273 12.3154C44.7435 10.875 45.7878 9.77075 47.0601 9.00255C48.3564 8.21033 49.7248 7.81423 51.1652 7.81423C52.2215 7.81423 53.2418 8.00628 54.226 8.39038C55.2343 8.75048 56.1225 9.30263 56.8907 10.0468C57.6829 10.767 58.3071 11.6553 58.7632 12.7115C59.2434 13.7678 59.5074 14.9921 59.5554 16.3845C59.5314 16.6726 59.4114 16.9247 59.1953 17.1407C58.9793 17.3328 58.7272 17.4288 58.4391 17.4288H43.9993L43.5672 15.4843H57.755L57.2868 15.9164V15.1962C57.1908 14.0679 56.8307 13.1076 56.2065 12.3154C55.5824 11.5232 54.8262 10.9231 53.9379 10.515C53.0497 10.1068 52.1255 9.90279 51.1652 9.90279C50.445 9.90279 49.7008 10.0468 48.9326 10.3349C48.1884 10.623 47.5042 11.0791 46.8801 11.7033C46.2799 12.3034 45.7878 13.0836 45.4037 14.0439C45.0196 14.9801 44.8275 16.0964 44.8275 17.3928C44.8275 18.8092 45.1156 20.0935 45.6917 21.2458C46.2679 22.3981 47.0961 23.3104 48.1764 23.9826C49.2807 24.6547 50.589 24.9908 52.1014 24.9908C52.9417 24.9908 53.6979 24.8708 54.3701 24.6307C55.0422 24.3907 55.6304 24.0786 56.1345 23.6945C56.6387 23.2864 57.0588 22.8663 57.3949 22.4341C57.6589 22.2181 57.923 22.1101 58.1871 22.1101C58.4271 22.1101 58.6312 22.2061 58.7992 22.3981C58.9913 22.5902 59.0873 22.8062 59.0873 23.0463C59.0873 23.3344 58.9673 23.5865 58.7272 23.8025C58.007 24.6667 57.0708 25.4229 55.9185 26.0711C54.7662 26.6953 53.5058 27.0074 52.1375 27.0074ZM89.1146 8.17432C89.4267 8.17432 89.6787 8.28235 89.8708 8.49841C90.0868 8.71447 90.1949 8.97854 90.1949 9.29062V32.7689C90.1949 33.057 90.0868 33.3091 89.8708 33.5251C89.6547 33.7412 89.4027 33.8492 89.1146 33.8492C88.8025 33.8492 88.5384 33.7412 88.3224 33.5251C88.1303 33.3091 88.0343 33.057 88.0343 32.7689V21.2818L88.6465 20.7777C88.6465 21.4499 88.4664 22.1581 88.1063 22.9023C87.7462 23.6225 87.2301 24.2946 86.5579 24.9188C85.9097 25.543 85.1415 26.0471 84.2533 26.4312C83.389 26.8153 82.4528 27.0074 81.4445 27.0074C79.8361 27.0074 78.3837 26.5873 77.0874 25.747C75.815 24.9068 74.8067 23.7665 74.0625 22.3261C73.3183 20.8857 72.9462 19.2413 72.9462 17.3928C72.9462 15.5683 73.3183 13.9359 74.0625 12.4955C74.8067 11.0311 75.815 9.89078 77.0874 9.07456C78.3597 8.23434 79.8001 7.81423 81.4085 7.81423C82.3928 7.81423 83.329 7.99428 84.2173 8.35437C85.1055 8.71447 85.8857 9.2066 86.5579 9.83077C87.2541 10.4549 87.7942 11.1751 88.1783 11.9913C88.5864 12.7836 88.7905 13.6118 88.7905 14.476L88.0343 13.9359V9.29062C88.0343 8.97854 88.1303 8.71447 88.3224 8.49841C88.5384 8.28235 88.8025 8.17432 89.1146 8.17432ZM81.6246 24.9908C82.9209 24.9908 84.0492 24.6667 85.0095 24.0186C85.9937 23.3464 86.7619 22.4461 87.3141 21.3178C87.8902 20.1655 88.1783 18.8572 88.1783 17.3928C88.1783 15.9524 87.8902 14.6681 87.3141 13.5398C86.7619 12.3875 85.9937 11.4872 85.0095 10.839C84.0252 10.1669 82.8969 9.83077 81.6246 9.83077C80.3762 9.83077 79.2479 10.1669 78.2397 10.839C77.2554 11.4872 76.4752 12.3875 75.899 13.5398C75.3469 14.6681 75.0708 15.9524 75.0708 17.3928C75.0708 18.8332 75.3469 20.1295 75.899 21.2818C76.4752 22.4341 77.2554 23.3464 78.2397 24.0186C79.2479 24.6667 80.3762 24.9908 81.6246 24.9908ZM109.62 8.35437C109.932 8.35437 110.184 8.4624 110.376 8.67846C110.592 8.89452 110.7 9.14658 110.7 9.43466V19.5894C110.7 21.966 110.028 23.7785 108.684 25.0268C107.339 26.2752 105.527 26.8993 103.246 26.8993C100.99 26.8993 99.1893 26.2752 97.8449 25.0268C96.5246 23.7785 95.8644 21.966 95.8644 19.5894V9.43466C95.8644 9.14658 95.9604 8.89452 96.1525 8.67846C96.3686 8.4624 96.6326 8.35437 96.9447 8.35437C97.2568 8.35437 97.5089 8.4624 97.7009 8.67846C97.917 8.89452 98.025 9.14658 98.025 9.43466V19.5894C98.025 21.3178 98.4811 22.6382 99.3934 23.5504C100.33 24.4387 101.614 24.8828 103.246 24.8828C104.903 24.8828 106.199 24.4387 107.135 23.5504C108.072 22.6382 108.54 21.3178 108.54 19.5894V9.43466C108.54 9.14658 108.636 8.89452 108.828 8.67846C109.02 8.4624 109.284 8.35437 109.62 8.35437ZM124.684 27.0074C122.836 27.0074 121.203 26.6113 119.787 25.819C118.371 25.0268 117.266 23.9225 116.474 22.5062C115.682 21.0898 115.286 19.4333 115.286 17.5368C115.286 15.4963 115.682 13.7558 116.474 12.3154C117.29 10.875 118.335 9.77075 119.607 9.00255C120.903 8.21033 122.272 7.81423 123.712 7.81423C124.768 7.81423 125.789 8.00628 126.773 8.39038C127.781 8.75048 128.669 9.30263 129.437 10.0468C130.23 10.767 130.854 11.6553 131.31 12.7115C131.79 13.7678 132.054 14.9921 132.102 16.3845C132.078 16.6726 131.958 16.9247 131.742 17.1407C131.526 17.3328 131.274 17.4288 130.986 17.4288H116.546L116.114 15.4843H130.302L129.834 15.9164V15.1962C129.738 14.0679 129.377 13.1076 128.753 12.3154C128.129 11.5232 127.373 10.9231 126.485 10.515C125.596 10.1068 124.672 9.90279 123.712 9.90279C122.992 9.90279 122.248 10.0468 121.479 10.3349C120.735 10.623 120.051 11.0791 119.427 11.7033C118.827 12.3034 118.335 13.0836 117.95 14.0439C117.566 14.9801 117.374 16.0964 117.374 17.3928C117.374 18.8092 117.662 20.0935 118.238 21.2458C118.815 22.3981 119.643 23.3104 120.723 23.9826C121.827 24.6547 123.136 24.9908 124.648 24.9908C125.488 24.9908 126.245 24.8708 126.917 24.6307C127.589 24.3907 128.177 24.0786 128.681 23.6945C129.185 23.2864 129.606 22.8663 129.942 22.4341C130.206 22.2181 130.47 22.1101 130.734 22.1101C130.974 22.1101 131.178 22.2061 131.346 22.3981C131.538 22.5902 131.634 22.8062 131.634 23.0463C131.634 23.3344 131.514 23.5865 131.274 23.8025C130.554 24.6667 129.618 25.4229 128.465 26.0711C127.313 26.6953 126.053 27.0074 124.684 27.0074ZM135.683 23.7305C135.491 23.4424 135.395 23.1663 135.395 22.9023C135.419 22.6142 135.575 22.3861 135.863 22.2181C136.055 22.05 136.271 21.978 136.511 22.002C136.775 22.026 137.015 22.1461 137.231 22.3621C137.879 23.2023 138.659 23.8865 139.572 24.4147C140.508 24.9188 141.612 25.1709 142.885 25.1709C143.557 25.1709 144.217 25.0628 144.865 24.8468C145.537 24.6067 146.089 24.2586 146.522 23.8025C146.954 23.3224 147.17 22.7222 147.17 22.002C147.17 21.2578 146.954 20.6577 146.522 20.2015C146.089 19.7454 145.525 19.3853 144.829 19.1213C144.157 18.8572 143.437 18.6291 142.669 18.4371C141.852 18.221 141.06 17.9809 140.292 17.7169C139.524 17.4288 138.839 17.0807 138.239 16.6726C137.663 16.2405 137.195 15.7243 136.835 15.1242C136.475 14.524 136.295 13.7918 136.295 12.9276C136.295 11.9193 136.571 11.0311 137.123 10.2629C137.675 9.49468 138.419 8.89452 139.356 8.4624C140.316 8.03029 141.396 7.81423 142.596 7.81423C143.197 7.81423 143.845 7.89825 144.541 8.06629C145.237 8.21033 145.921 8.4624 146.594 8.8225C147.266 9.18259 147.866 9.67473 148.394 10.2989C148.61 10.515 148.718 10.767 148.718 11.0551C148.718 11.3192 148.598 11.5592 148.358 11.7753C148.166 11.9193 147.938 11.9913 147.674 11.9913C147.434 11.9913 147.23 11.8953 147.062 11.7033C146.486 11.0551 145.801 10.563 145.009 10.2269C144.217 9.89078 143.365 9.72274 142.452 9.72274C141.756 9.72274 141.096 9.84277 140.472 10.0828C139.872 10.2989 139.368 10.635 138.96 11.0911C138.551 11.5472 138.347 12.1474 138.347 12.8916C138.395 13.5878 138.635 14.1519 139.068 14.584C139.524 15.0162 140.112 15.3763 140.832 15.6643C141.576 15.9524 142.404 16.2165 143.317 16.4565C144.085 16.6486 144.817 16.8767 145.513 17.1407C146.233 17.4048 146.858 17.7409 147.386 18.149C147.938 18.5331 148.37 19.0252 148.682 19.6254C149.018 20.2256 149.186 20.9818 149.186 21.894C149.186 22.9503 148.886 23.8625 148.286 24.6307C147.71 25.3989 146.93 25.9871 145.945 26.3952C144.961 26.8033 143.869 27.0074 142.669 27.0074C141.372 27.0074 140.112 26.7553 138.887 26.2512C137.687 25.747 136.619 24.9068 135.683 23.7305ZM152.418 8.31836H160.808C161.096 8.31836 161.337 8.42639 161.529 8.64245C161.721 8.8345 161.817 9.07457 161.817 9.36264C161.817 9.62671 161.721 9.85477 161.529 10.0468C161.337 10.2389 161.096 10.3349 160.808 10.3349H152.418C152.13 10.3349 151.878 10.2389 151.662 10.0468C151.47 9.83077 151.374 9.5907 151.374 9.32663C151.374 9.03856 151.47 8.79849 151.662 8.60644C151.878 8.41439 152.13 8.31836 152.418 8.31836ZM156.127 3.241C156.439 3.241 156.691 3.34903 156.883 3.56509C157.099 3.78115 157.207 4.03322 157.207 4.32129V22.3981C157.207 23.0703 157.291 23.5744 157.459 23.9105C157.652 24.2466 157.892 24.4747 158.18 24.5947C158.468 24.6907 158.756 24.7388 159.044 24.7388C159.236 24.7388 159.404 24.7148 159.548 24.6667C159.716 24.5947 159.896 24.5587 160.088 24.5587C160.304 24.5587 160.484 24.6427 160.628 24.8108C160.796 24.9788 160.88 25.1949 160.88 25.459C160.88 25.795 160.688 26.0831 160.304 26.3232C159.92 26.5392 159.464 26.6473 158.936 26.6473C158.72 26.6473 158.396 26.6353 157.964 26.6113C157.531 26.5632 157.087 26.4312 156.631 26.2152C156.175 25.9751 155.791 25.567 155.479 24.9908C155.191 24.4147 155.047 23.5865 155.047 22.5062V4.32129C155.047 4.03322 155.143 3.78115 155.335 3.56509C155.551 3.34903 155.815 3.241 156.127 3.241ZM167.897 25.567C167.897 25.8551 167.789 26.1071 167.573 26.3232C167.357 26.5392 167.105 26.6473 166.817 26.6473C166.505 26.6473 166.241 26.5392 166.025 26.3232C165.833 26.1071 165.737 25.8551 165.737 25.567V9.00255C165.737 8.71447 165.833 8.4624 166.025 8.24634C166.241 8.03029 166.505 7.92226 166.817 7.92226C167.129 7.92226 167.381 8.03029 167.573 8.24634C167.789 8.4624 167.897 8.71447 167.897 9.00255V25.567ZM166.817 5.50961C166.313 5.50961 165.929 5.40158 165.665 5.18552C165.425 4.94546 165.305 4.60937 165.305 4.17725V3.81716C165.305 3.38504 165.437 3.06096 165.701 2.8449C165.989 2.60483 166.373 2.4848 166.853 2.4848C167.309 2.4848 167.657 2.60483 167.897 2.8449C168.162 3.06096 168.294 3.38504 168.294 3.81716V4.17725C168.294 4.60937 168.162 4.94546 167.897 5.18552C167.657 5.40158 167.297 5.50961 166.817 5.50961ZM190.651 17.4288C190.651 19.2533 190.255 20.8977 189.462 22.3621C188.67 23.8025 187.59 24.9428 186.222 25.783C184.853 26.5993 183.293 27.0074 181.54 27.0074C179.836 27.0074 178.287 26.5993 176.895 25.783C175.527 24.9428 174.434 23.8025 173.618 22.3621C172.826 20.8977 172.43 19.2533 172.43 17.4288C172.43 15.5803 172.826 13.9359 173.618 12.4955C174.434 11.0551 175.527 9.91479 176.895 9.07456C178.287 8.23434 179.836 7.81423 181.54 7.81423C183.293 7.81423 184.853 8.23434 186.222 9.07456C187.59 9.91479 188.67 11.0551 189.462 12.4955C190.255 13.9359 190.651 15.5803 190.651 17.4288ZM188.49 17.4288C188.49 15.9644 188.19 14.6681 187.59 13.5398C186.99 12.3875 186.162 11.4872 185.105 10.839C184.073 10.1669 182.885 9.83077 181.54 9.83077C180.244 9.83077 179.068 10.1669 178.011 10.839C176.955 11.4872 176.115 12.3875 175.491 13.5398C174.891 14.6681 174.59 15.9644 174.59 17.4288C174.59 18.8932 174.891 20.1895 175.491 21.3178C176.115 22.4461 176.955 23.3464 178.011 24.0186C179.068 24.6667 180.244 24.9908 181.54 24.9908C182.885 24.9908 184.073 24.6667 185.105 24.0186C186.162 23.3464 186.99 22.4461 187.59 21.3178C188.19 20.1895 188.49 18.8932 188.49 17.4288ZM203.921 7.81423C205.505 7.81423 206.766 8.13832 207.702 8.78649C208.662 9.41066 209.346 10.2749 209.754 11.3792C210.187 12.4595 210.403 13.6598 210.403 14.9801V25.567C210.403 25.8551 210.295 26.1071 210.079 26.3232C209.862 26.5392 209.61 26.6473 209.322 26.6473C208.986 26.6473 208.722 26.5392 208.53 26.3232C208.338 26.1071 208.242 25.8551 208.242 25.567V15.0882C208.242 14.1279 208.086 13.2517 207.774 12.4595C207.462 11.6673 206.946 11.0311 206.226 10.551C205.529 10.0708 204.605 9.83077 203.453 9.83077C202.421 9.83077 201.436 10.0708 200.5 10.551C199.588 11.0311 198.844 11.6673 198.267 12.4595C197.691 13.2517 197.403 14.1279 197.403 15.0882V25.567C197.403 25.8551 197.295 26.1071 197.079 26.3232C196.863 26.5392 196.611 26.6473 196.323 26.6473C195.987 26.6473 195.723 26.5392 195.531 26.3232C195.339 26.1071 195.243 25.8551 195.243 25.567V9.43466C195.243 9.14658 195.339 8.89452 195.531 8.67846C195.747 8.4624 196.011 8.35437 196.323 8.35437C196.635 8.35437 196.887 8.4624 197.079 8.67846C197.295 8.89452 197.403 9.14658 197.403 9.43466V12.4595L196.575 13.7558C196.623 12.9876 196.863 12.2554 197.295 11.5592C197.751 10.839 198.327 10.2029 199.024 9.65072C199.72 9.07457 200.488 8.63045 201.328 8.31836C202.192 7.98227 203.057 7.81423 203.921 7.81423ZM227.996 25.567C227.996 25.8551 227.888 26.1071 227.672 26.3232C227.455 26.5392 227.203 26.6473 226.915 26.6473C226.603 26.6473 226.339 26.5392 226.123 26.3232C225.931 26.1071 225.835 25.8551 225.835 25.567V9.00255C225.835 8.71447 225.931 8.4624 226.123 8.24634C226.339 8.03029 226.603 7.92226 226.915 7.92226C227.227 7.92226 227.479 8.03029 227.672 8.24634C227.888 8.4624 227.996 8.71447 227.996 9.00255V25.567ZM226.915 5.50961C226.411 5.50961 226.027 5.40158 225.763 5.18552C225.523 4.94546 225.403 4.60937 225.403 4.17725V3.81716C225.403 3.38504 225.535 3.06096 225.799 2.8449C226.087 2.60483 226.471 2.4848 226.951 2.4848C227.407 2.4848 227.756 2.60483 227.996 2.8449C228.26 3.06096 228.392 3.38504 228.392 3.81716V4.17725C228.392 4.60937 228.26 4.94546 227.996 5.18552C227.756 5.40158 227.395 5.50961 226.915 5.50961ZM232.564 23.7305C232.372 23.4424 232.276 23.1663 232.276 22.9023C232.3 22.6142 232.456 22.3861 232.744 22.2181C232.936 22.05 233.152 21.978 233.392 22.002C233.656 22.026 233.896 22.1461 234.112 22.3621C234.761 23.2023 235.541 23.8865 236.453 24.4147C237.389 24.9188 238.494 25.1709 239.766 25.1709C240.438 25.1709 241.098 25.0628 241.747 24.8468C242.419 24.6067 242.971 24.2586 243.403 23.8025C243.835 23.3224 244.051 22.7222 244.051 22.002C244.051 21.2578 243.835 20.6577 243.403 20.2015C242.971 19.7454 242.407 19.3853 241.71 19.1213C241.038 18.8572 240.318 18.6291 239.55 18.4371C238.734 18.221 237.941 17.9809 237.173 17.7169C236.405 17.4288 235.721 17.0807 235.121 16.6726C234.545 16.2405 234.076 15.7243 233.716 15.1242C233.356 14.524 233.176 13.7918 233.176 12.9276C233.176 11.9193 233.452 11.0311 234.004 10.2629C234.557 9.49468 235.301 8.89452 236.237 8.4624C237.197 8.03029 238.278 7.81423 239.478 7.81423C240.078 7.81423 240.726 7.89825 241.422 8.06629C242.119 8.21033 242.803 8.4624 243.475 8.8225C244.147 9.18259 244.747 9.67473 245.275 10.2989C245.492 10.515 245.6 10.767 245.6 11.0551C245.6 11.3192 245.48 11.5592 245.239 11.7753C245.047 11.9193 244.819 11.9913 244.555 11.9913C244.315 11.9913 244.111 11.8953 243.943 11.7033C243.367 11.0551 242.683 10.563 241.891 10.2269C241.098 9.89078 240.246 9.72274 239.334 9.72274C238.638 9.72274 237.977 9.84277 237.353 10.0828C236.753 10.2989 236.249 10.635 235.841 11.0911C235.433 11.5472 235.229 12.1474 235.229 12.8916C235.277 13.5878 235.517 14.1519 235.949 14.584C236.405 15.0162 236.993 15.3763 237.713 15.6643C238.458 15.9524 239.286 16.2165 240.198 16.4565C240.966 16.6486 241.698 16.8767 242.395 17.1407C243.115 17.4048 243.739 17.7409 244.267 18.149C244.819 18.5331 245.251 19.0252 245.564 19.6254C245.9 20.2256 246.068 20.9818 246.068 21.894C246.068 22.9503 245.768 23.8625 245.167 24.6307C244.591 25.3989 243.811 25.9871 242.827 26.3952C241.843 26.8033 240.75 27.0074 239.55 27.0074C238.254 27.0074 236.993 26.7553 235.769 26.2512C234.569 25.747 233.5 24.9068 232.564 23.7305ZM259.166 7.81423C260.751 7.81423 262.011 8.13832 262.947 8.78649C263.907 9.41066 264.592 10.2749 265 11.3792C265.432 12.4595 265.648 13.6598 265.648 14.9801V25.567C265.648 25.8551 265.54 26.1071 265.324 26.3232C265.108 26.5392 264.856 26.6473 264.568 26.6473C264.232 26.6473 263.967 26.5392 263.775 26.3232C263.583 26.1071 263.487 25.8551 263.487 25.567V15.0882C263.487 14.1279 263.331 13.2517 263.019 12.4595C262.707 11.6673 262.191 11.0311 261.471 10.551C260.775 10.0708 259.85 9.83077 258.698 9.83077C257.666 9.83077 256.681 10.0708 255.745 10.551C254.833 11.0311 254.089 11.6673 253.513 12.4595C252.936 13.2517 252.648 14.1279 252.648 15.0882V25.567C252.648 25.8551 252.54 26.1071 252.324 26.3232C252.108 26.5392 251.856 26.6473 251.568 26.6473C251.232 26.6473 250.968 26.5392 250.776 26.3232C250.584 26.1071 250.488 25.8551 250.488 25.567V9.43466C250.488 9.14658 250.584 8.89452 250.776 8.67846C250.992 8.4624 251.256 8.35437 251.568 8.35437C251.88 8.35437 252.132 8.4624 252.324 8.67846C252.54 8.89452 252.648 9.14658 252.648 9.43466V12.4595L251.82 13.7558C251.868 12.9876 252.108 12.2554 252.54 11.5592C252.997 10.839 253.573 10.2029 254.269 9.65072C254.965 9.07457 255.733 8.63045 256.573 8.31836C257.438 7.98227 258.302 7.81423 259.166 7.81423ZM270.982 2.37677C271.054 1.7526 271.402 1.44052 272.026 1.44052H273.214C273.527 1.46453 273.719 1.57256 273.791 1.76461C273.887 1.93265 273.899 2.16071 273.827 2.44879L271.522 10.2269C271.378 10.731 271.042 10.9831 270.514 10.9831C270.13 10.9831 269.974 10.671 270.046 10.0468L270.982 2.37677ZM277.08 8.31836H285.471C285.759 8.31836 285.999 8.42639 286.191 8.64245C286.383 8.8345 286.479 9.07457 286.479 9.36264C286.479 9.62671 286.383 9.85477 286.191 10.0468C285.999 10.2389 285.759 10.3349 285.471 10.3349H277.08C276.792 10.3349 276.54 10.2389 276.324 10.0468C276.132 9.83077 276.036 9.5907 276.036 9.32663C276.036 9.03856 276.132 8.79849 276.324 8.60644C276.54 8.41439 276.792 8.31836 277.08 8.31836ZM280.789 3.241C281.101 3.241 281.354 3.34903 281.546 3.56509C281.762 3.78115 281.87 4.03322 281.87 4.32129V22.3981C281.87 23.0703 281.954 23.5744 282.122 23.9105C282.314 24.2466 282.554 24.4747 282.842 24.5947C283.13 24.6907 283.418 24.7388 283.706 24.7388C283.898 24.7388 284.066 24.7148 284.21 24.6667C284.378 24.5947 284.558 24.5587 284.75 24.5587C284.967 24.5587 285.147 24.6427 285.291 24.8108C285.459 24.9788 285.543 25.1949 285.543 25.459C285.543 25.795 285.351 26.0831 284.967 26.3232C284.582 26.5392 284.126 26.6473 283.598 26.6473C283.382 26.6473 283.058 26.6353 282.626 26.6113C282.194 26.5632 281.75 26.4312 281.294 26.2152C280.837 25.9751 280.453 25.567 280.141 24.9908C279.853 24.4147 279.709 23.5865 279.709 22.5062V4.32129C279.709 4.03322 279.805 3.78115 279.997 3.56509C280.213 3.34903 280.477 3.241 280.789 3.241ZM322.175 7.85024C322.44 7.85024 322.68 7.94626 322.896 8.13832C323.136 8.33037 323.256 8.59444 323.256 8.93053C323.256 9.00255 323.244 9.08657 323.22 9.18259C323.196 9.27862 323.172 9.35064 323.148 9.39865L317.602 25.9631C317.506 26.1791 317.35 26.3592 317.134 26.5032C316.942 26.6233 316.738 26.6713 316.522 26.6473C316.09 26.6233 315.766 26.3952 315.55 25.9631L310.472 14.0079L311.12 14.1519L306.619 25.9631C306.427 26.3952 306.103 26.6233 305.647 26.6473C305.431 26.6713 305.215 26.6233 304.999 26.5032C304.783 26.3592 304.639 26.1791 304.567 25.9631L298.877 9.39865C298.805 9.23061 298.769 9.07457 298.769 8.93053C298.769 8.61844 298.865 8.36638 299.057 8.17432C299.273 7.95827 299.549 7.85024 299.885 7.85024C300.102 7.85024 300.294 7.91025 300.462 8.03029C300.654 8.15032 300.786 8.33037 300.858 8.57043L305.971 23.9105L305.287 23.8745L309.932 12.1714C310.124 11.7153 310.46 11.4872 310.94 11.4872C311.18 11.4872 311.385 11.5472 311.553 11.6673C311.721 11.7873 311.853 11.9553 311.949 12.1714L316.882 23.9105L316.09 23.9465L321.167 8.57043C321.311 8.0903 321.647 7.85024 322.175 7.85024ZM335.785 8.1023C337.298 8.1023 338.522 8.42639 339.458 9.07456C340.395 9.72274 341.079 10.599 341.511 11.7033C341.967 12.8076 342.195 14.0319 342.195 15.3763V25.567C342.195 25.8551 342.087 26.1071 341.871 26.3232C341.655 26.5392 341.403 26.6473 341.115 26.6473C340.779 26.6473 340.515 26.5392 340.323 26.3232C340.131 26.1071 340.035 25.8551 340.035 25.567V15.3763C340.035 14.392 339.878 13.5038 339.566 12.7115C339.278 11.9193 338.798 11.2952 338.126 10.839C337.454 10.3589 336.554 10.1188 335.425 10.1188C334.417 10.1188 333.457 10.3589 332.545 10.839C331.656 11.2952 330.936 11.9193 330.384 12.7115C329.832 13.5038 329.556 14.392 329.556 15.3763V25.567C329.556 25.8551 329.448 26.1071 329.232 26.3232C329.016 26.5392 328.764 26.6473 328.475 26.6473C328.139 26.6473 327.875 26.5392 327.683 26.3232C327.491 26.1071 327.395 25.8551 327.395 25.567V1.08042C327.395 0.792347 327.491 0.54028 327.683 0.324223C327.899 0.108165 328.163 0.000136412 328.475 0.000136412C328.788 0.000136412 329.04 0.108165 329.232 0.324223C329.448 0.54028 329.556 0.792347 329.556 1.08042V12.7475L328.728 14.0079C328.776 13.2637 329.004 12.5435 329.412 11.8473C329.844 11.1271 330.396 10.4909 331.068 9.9388C331.74 9.36264 332.485 8.91852 333.301 8.60644C334.117 8.27035 334.945 8.1023 335.785 8.1023ZM356.18 27.0074C354.331 27.0074 352.699 26.6113 351.282 25.819C349.866 25.0268 348.762 23.9225 347.97 22.5062C347.177 21.0898 346.781 19.4333 346.781 17.5368C346.781 15.4963 347.177 13.7558 347.97 12.3154C348.786 10.875 349.83 9.77075 351.102 9.00255C352.399 8.21033 353.767 7.81423 355.208 7.81423C356.264 7.81423 357.284 8.00628 358.268 8.39038C359.277 8.75048 360.165 9.30263 360.933 10.0468C361.725 10.767 362.349 11.6553 362.806 12.7115C363.286 13.7678 363.55 14.9921 363.598 16.3845C363.574 16.6726 363.454 16.9247 363.238 17.1407C363.022 17.3328 362.77 17.4288 362.481 17.4288H348.042L347.609 15.4843H361.797L361.329 15.9164V15.1962C361.233 14.0679 360.873 13.1076 360.249 12.3154C359.625 11.5232 358.869 10.9231 357.98 10.515C357.092 10.1068 356.168 9.90279 355.208 9.90279C354.487 9.90279 353.743 10.0468 352.975 10.3349C352.231 10.623 351.547 11.0791 350.922 11.7033C350.322 12.3034 349.83 13.0836 349.446 14.0439C349.062 14.9801 348.87 16.0964 348.87 17.3928C348.87 18.8092 349.158 20.0935 349.734 21.2458C350.31 22.3981 351.138 23.3104 352.219 23.9826C353.323 24.6547 354.631 24.9908 356.144 24.9908C356.984 24.9908 357.74 24.8708 358.412 24.6307C359.085 24.3907 359.673 24.0786 360.177 23.6945C360.681 23.2864 361.101 22.8663 361.437 22.4341C361.701 22.2181 361.965 22.1101 362.229 22.1101C362.469 22.1101 362.674 22.2061 362.842 22.3981C363.034 22.5902 363.13 22.8062 363.13 23.0463C363.13 23.3344 363.01 23.5865 362.77 23.8025C362.049 24.6667 361.113 25.4229 359.961 26.0711C358.808 26.6953 357.548 27.0074 356.18 27.0074ZM367.034 8.31836H375.424C375.712 8.31836 375.953 8.42639 376.145 8.64245C376.337 8.8345 376.433 9.07457 376.433 9.36264C376.433 9.62671 376.337 9.85477 376.145 10.0468C375.953 10.2389 375.712 10.3349 375.424 10.3349H367.034C366.746 10.3349 366.494 10.2389 366.278 10.0468C366.086 9.83077 365.99 9.5907 365.99 9.32663C365.99 9.03856 366.086 8.79849 366.278 8.60644C366.494 8.41439 366.746 8.31836 367.034 8.31836ZM370.743 3.241C371.055 3.241 371.307 3.34903 371.499 3.56509C371.715 3.78115 371.823 4.03322 371.823 4.32129V22.3981C371.823 23.0703 371.907 23.5744 372.076 23.9105C372.268 24.2466 372.508 24.4747 372.796 24.5947C373.084 24.6907 373.372 24.7388 373.66 24.7388C373.852 24.7388 374.02 24.7148 374.164 24.6667C374.332 24.5947 374.512 24.5587 374.704 24.5587C374.92 24.5587 375.1 24.6427 375.244 24.8108C375.412 24.9788 375.496 25.1949 375.496 25.459C375.496 25.795 375.304 26.0831 374.92 26.3232C374.536 26.5392 374.08 26.6473 373.552 26.6473C373.336 26.6473 373.012 26.6353 372.58 26.6113C372.148 26.5632 371.703 26.4312 371.247 26.2152C370.791 25.9751 370.407 25.567 370.095 24.9908C369.807 24.4147 369.663 23.5865 369.663 22.5062V4.32129C369.663 4.03322 369.759 3.78115 369.951 3.56509C370.167 3.34903 370.431 3.241 370.743 3.241ZM388.815 8.1023C390.328 8.1023 391.552 8.42639 392.488 9.07456C393.424 9.72274 394.109 10.599 394.541 11.7033C394.997 12.8076 395.225 14.0319 395.225 15.3763V25.567C395.225 25.8551 395.117 26.1071 394.901 26.3232C394.685 26.5392 394.433 26.6473 394.145 26.6473C393.809 26.6473 393.544 26.5392 393.352 26.3232C393.16 26.1071 393.064 25.8551 393.064 25.567V15.3763C393.064 14.392 392.908 13.5038 392.596 12.7115C392.308 11.9193 391.828 11.2952 391.156 10.839C390.484 10.3589 389.583 10.1188 388.455 10.1188C387.447 10.1188 386.487 10.3589 385.574 10.839C384.686 11.2952 383.966 11.9193 383.414 12.7115C382.862 13.5038 382.586 14.392 382.586 15.3763V25.567C382.586 25.8551 382.478 26.1071 382.261 26.3232C382.045 26.5392 381.793 26.6473 381.505 26.6473C381.169 26.6473 380.905 26.5392 380.713 26.3232C380.521 26.1071 380.425 25.8551 380.425 25.567V1.08042C380.425 0.792347 380.521 0.54028 380.713 0.324223C380.929 0.108165 381.193 0.000136412 381.505 0.000136412C381.817 0.000136412 382.069 0.108165 382.261 0.324223C382.478 0.54028 382.586 0.792347 382.586 1.08042V12.7475L381.757 14.0079C381.805 13.2637 382.033 12.5435 382.442 11.8473C382.874 11.1271 383.426 10.4909 384.098 9.9388C384.77 9.36264 385.514 8.91852 386.331 8.60644C387.147 8.27035 387.975 8.1023 388.815 8.1023ZM409.21 27.0074C407.361 27.0074 405.729 26.6113 404.312 25.819C402.896 25.0268 401.792 23.9225 400.999 22.5062C400.207 21.0898 399.811 19.4333 399.811 17.5368C399.811 15.4963 400.207 13.7558 400.999 12.3154C401.816 10.875 402.86 9.77075 404.132 9.00255C405.429 8.21033 406.797 7.81423 408.237 7.81423C409.294 7.81423 410.314 8.00628 411.298 8.39038C412.306 8.75048 413.195 9.30263 413.963 10.0468C414.755 10.767 415.379 11.6553 415.835 12.7115C416.316 13.7678 416.58 14.9921 416.628 16.3845C416.604 16.6726 416.484 16.9247 416.268 17.1407C416.051 17.3328 415.799 17.4288 415.511 17.4288H401.071L400.639 15.4843H414.827L414.359 15.9164V15.1962C414.263 14.0679 413.903 13.1076 413.279 12.3154C412.655 11.5232 411.898 10.9231 411.01 10.515C410.122 10.1068 409.198 9.90279 408.237 9.90279C407.517 9.90279 406.773 10.0468 406.005 10.3349C405.261 10.623 404.576 11.0791 403.952 11.7033C403.352 12.3034 402.86 13.0836 402.476 14.0439C402.092 14.9801 401.9 16.0964 401.9 17.3928C401.9 18.8092 402.188 20.0935 402.764 21.2458C403.34 22.3981 404.168 23.3104 405.249 23.9826C406.353 24.6547 407.661 24.9908 409.174 24.9908C410.014 24.9908 410.77 24.8708 411.442 24.6307C412.114 24.3907 412.703 24.0786 413.207 23.6945C413.711 23.2864 414.131 22.8663 414.467 22.4341C414.731 22.2181 414.995 22.1101 415.259 22.1101C415.499 22.1101 415.703 22.2061 415.871 22.3981C416.063 22.5902 416.159 22.8062 416.159 23.0463C416.159 23.3344 416.039 23.5865 415.799 23.8025C415.079 24.6667 414.143 25.4229 412.991 26.0711C411.838 26.6953 410.578 27.0074 409.21 27.0074ZM422.333 26.6473C421.997 26.6473 421.732 26.5392 421.54 26.3232C421.348 26.1071 421.252 25.8551 421.252 25.567V9.43466C421.252 9.14658 421.348 8.89452 421.54 8.67846C421.756 8.4624 422.021 8.35437 422.333 8.35437C422.645 8.35437 422.897 8.4624 423.089 8.67846C423.305 8.89452 423.413 9.14658 423.413 9.43466V14.8361L422.873 14.9441C422.945 14.1039 423.149 13.2757 423.485 12.4595C423.845 11.6192 424.325 10.851 424.925 10.1549C425.525 9.45867 426.234 8.89452 427.05 8.4624C427.89 8.03029 428.826 7.81423 429.859 7.81423C430.291 7.81423 430.711 7.91025 431.119 8.1023C431.527 8.27035 431.731 8.55843 431.731 8.96654C431.731 9.32663 431.635 9.60271 431.443 9.79476C431.251 9.98681 431.023 10.0828 430.759 10.0828C430.543 10.0828 430.303 10.0228 430.039 9.90279C429.799 9.78275 429.475 9.72274 429.066 9.72274C428.394 9.72274 427.722 9.92679 427.05 10.3349C426.378 10.719 425.766 11.2471 425.213 11.9193C424.661 12.5915 424.217 13.3477 423.881 14.1879C423.569 15.0042 423.413 15.8324 423.413 16.6726V25.567C423.413 25.8551 423.305 26.1071 423.089 26.3232C422.873 26.5392 422.621 26.6473 422.333 26.6473ZM453.92 4.21326L445.17 25.9631C445.074 26.2032 444.942 26.3832 444.774 26.5032C444.606 26.6233 444.414 26.6833 444.198 26.6833C443.862 26.6833 443.61 26.5993 443.442 26.4312C443.274 26.2392 443.177 26.0111 443.153 25.747C443.129 25.627 443.141 25.483 443.189 25.3149L452.696 2.05269C452.816 1.78862 452.96 1.60857 453.128 1.51254C453.32 1.39251 453.536 1.33249 453.776 1.33249C454.016 1.33249 454.22 1.40451 454.388 1.54855C454.581 1.66858 454.725 1.83663 454.821 2.05269L464.291 25.2069C464.339 25.3509 464.363 25.495 464.363 25.639C464.363 25.9751 464.255 26.2392 464.039 26.4312C463.823 26.5993 463.571 26.6833 463.283 26.6833C463.043 26.6833 462.827 26.6233 462.635 26.5032C462.467 26.3592 462.335 26.1791 462.239 25.9631L453.272 4.06922L453.92 4.21326ZM447.259 19.3733L448.159 17.2488H459.322L459.754 19.3733H447.259ZM471.078 25.531C471.054 25.8431 470.922 26.1071 470.681 26.3232C470.465 26.5392 470.213 26.6473 469.925 26.6473C469.589 26.6473 469.313 26.5392 469.097 26.3232C468.905 26.1071 468.809 25.8431 468.809 25.531V2.55682C468.809 2.24474 468.917 1.98067 469.133 1.76461C469.349 1.54855 469.625 1.44052 469.961 1.44052C470.249 1.44052 470.501 1.54855 470.717 1.76461C470.958 1.98067 471.078 2.24474 471.078 2.55682V25.531ZM508.975 7.85024C509.24 7.85024 509.48 7.94626 509.696 8.13832C509.936 8.33037 510.056 8.59444 510.056 8.93053C510.056 9.00255 510.044 9.08657 510.02 9.18259C509.996 9.27862 509.972 9.35064 509.948 9.39865L504.402 25.9631C504.306 26.1791 504.15 26.3592 503.934 26.5032C503.742 26.6233 503.538 26.6713 503.322 26.6473C502.89 26.6233 502.566 26.3952 502.35 25.9631L497.272 14.0079L497.92 14.1519L493.419 25.9631C493.227 26.3952 492.903 26.6233 492.447 26.6473C492.231 26.6713 492.015 26.6233 491.799 26.5032C491.583 26.3592 491.439 26.1791 491.367 25.9631L485.677 9.39865C485.605 9.23061 485.569 9.07457 485.569 8.93053C485.569 8.61844 485.665 8.36638 485.857 8.17432C486.073 7.95827 486.349 7.85024 486.685 7.85024C486.902 7.85024 487.094 7.91025 487.262 8.03029C487.454 8.15032 487.586 8.33037 487.658 8.57043L492.771 23.9105L492.087 23.8745L496.732 12.1714C496.924 11.7153 497.26 11.4872 497.74 11.4872C497.981 11.4872 498.185 11.5472 498.353 11.6673C498.521 11.7873 498.653 11.9553 498.749 12.1714L503.682 23.9105L502.89 23.9465L507.967 8.57043C508.111 8.0903 508.447 7.85024 508.975 7.85024ZM516.284 25.567C516.284 25.8551 516.176 26.1071 515.96 26.3232C515.744 26.5392 515.492 26.6473 515.203 26.6473C514.891 26.6473 514.627 26.5392 514.411 26.3232C514.219 26.1071 514.123 25.8551 514.123 25.567V9.00255C514.123 8.71447 514.219 8.4624 514.411 8.24634C514.627 8.03029 514.891 7.92226 515.203 7.92226C515.516 7.92226 515.768 8.03029 515.96 8.24634C516.176 8.4624 516.284 8.71447 516.284 9.00255V25.567ZM515.203 5.50961C514.699 5.50961 514.315 5.40158 514.051 5.18552C513.811 4.94546 513.691 4.60937 513.691 4.17725V3.81716C513.691 3.38504 513.823 3.06096 514.087 2.8449C514.375 2.60483 514.759 2.4848 515.239 2.4848C515.696 2.4848 516.044 2.60483 516.284 2.8449C516.548 3.06096 516.68 3.38504 516.68 3.81716V4.17725C516.68 4.60937 516.548 4.94546 516.284 5.18552C516.044 5.40158 515.684 5.50961 515.203 5.50961ZM524.273 25.567C524.273 25.8551 524.165 26.1071 523.949 26.3232C523.733 26.5392 523.481 26.6473 523.193 26.6473C522.881 26.6473 522.617 26.5392 522.401 26.3232C522.209 26.1071 522.112 25.8551 522.112 25.567V1.08042C522.112 0.792347 522.221 0.54028 522.437 0.324223C522.653 0.108165 522.905 0.000136412 523.193 0.000136412C523.505 0.000136412 523.757 0.108165 523.949 0.324223C524.165 0.54028 524.273 0.792347 524.273 1.08042V25.567ZM532.572 25.567C532.572 25.8551 532.464 26.1071 532.248 26.3232C532.032 26.5392 531.78 26.6473 531.492 26.6473C531.18 26.6473 530.916 26.5392 530.7 26.3232C530.508 26.1071 530.412 25.8551 530.412 25.567V1.08042C530.412 0.792347 530.52 0.54028 530.736 0.324223C530.952 0.108165 531.204 0.000136412 531.492 0.000136412C531.804 0.000136412 532.056 0.108165 532.248 0.324223C532.464 0.54028 532.572 0.792347 532.572 1.08042V25.567ZM547.153 8.31836H555.543C555.831 8.31836 556.071 8.42639 556.263 8.64245C556.455 8.8345 556.551 9.07457 556.551 9.36264C556.551 9.62671 556.455 9.85477 556.263 10.0468C556.071 10.2389 555.831 10.3349 555.543 10.3349H547.153C546.865 10.3349 546.613 10.2389 546.396 10.0468C546.204 9.83077 546.108 9.5907 546.108 9.32663C546.108 9.03856 546.204 8.79849 546.396 8.60644C546.613 8.41439 546.865 8.31836 547.153 8.31836ZM550.862 3.241C551.174 3.241 551.426 3.34903 551.618 3.56509C551.834 3.78115 551.942 4.03322 551.942 4.32129V22.3981C551.942 23.0703 552.026 23.5744 552.194 23.9105C552.386 24.2466 552.626 24.4747 552.914 24.5947C553.202 24.6907 553.49 24.7388 553.778 24.7388C553.971 24.7388 554.139 24.7148 554.283 24.6667C554.451 24.5947 554.631 24.5587 554.823 24.5587C555.039 24.5587 555.219 24.6427 555.363 24.8108C555.531 24.9788 555.615 25.1949 555.615 25.459C555.615 25.795 555.423 26.0831 555.039 26.3232C554.655 26.5392 554.199 26.6473 553.67 26.6473C553.454 26.6473 553.13 26.6353 552.698 26.6113C552.266 26.5632 551.822 26.4312 551.366 26.2152C550.91 25.9751 550.526 25.567 550.214 24.9908C549.925 24.4147 549.781 23.5865 549.781 22.5062V4.32129C549.781 4.03322 549.877 3.78115 550.069 3.56509C550.286 3.34903 550.55 3.241 550.862 3.241ZM561.624 26.6473C561.288 26.6473 561.024 26.5392 560.832 26.3232C560.64 26.1071 560.544 25.8551 560.544 25.567V9.43466C560.544 9.14658 560.64 8.89452 560.832 8.67846C561.048 8.4624 561.312 8.35437 561.624 8.35437C561.936 8.35437 562.188 8.4624 562.38 8.67846C562.596 8.89452 562.704 9.14658 562.704 9.43466V14.8361L562.164 14.9441C562.236 14.1039 562.44 13.2757 562.776 12.4595C563.136 11.6192 563.616 10.851 564.216 10.1549C564.817 9.45867 565.525 8.89452 566.341 8.4624C567.181 8.03029 568.118 7.81423 569.15 7.81423C569.582 7.81423 570.002 7.91025 570.41 8.1023C570.818 8.27035 571.022 8.55843 571.022 8.96654C571.022 9.32663 570.926 9.60271 570.734 9.79476C570.542 9.98681 570.314 10.0828 570.05 10.0828C569.834 10.0828 569.594 10.0228 569.33 9.90279C569.09 9.78275 568.766 9.72274 568.358 9.72274C567.685 9.72274 567.013 9.92679 566.341 10.3349C565.669 10.719 565.057 11.2471 564.505 11.9193C563.952 12.5915 563.508 13.3477 563.172 14.1879C562.86 15.0042 562.704 15.8324 562.704 16.6726V25.567C562.704 25.8551 562.596 26.1071 562.38 26.3232C562.164 26.5392 561.912 26.6473 561.624 26.6473ZM589.065 8.24634C589.377 8.24634 589.629 8.35437 589.821 8.57043C590.037 8.78649 590.145 9.05056 590.145 9.36264V25.567C590.145 25.8551 590.037 26.1071 589.821 26.3232C589.605 26.5392 589.353 26.6473 589.065 26.6473C588.753 26.6473 588.489 26.5392 588.273 26.3232C588.081 26.1071 587.985 25.8551 587.985 25.567V21.2818L588.597 20.9938C588.597 21.6659 588.405 22.3501 588.021 23.0463C587.66 23.7425 587.156 24.3907 586.508 24.9908C585.86 25.591 585.092 26.0831 584.204 26.4672C583.339 26.8273 582.403 27.0074 581.395 27.0074C579.762 27.0074 578.298 26.5873 577.002 25.747C575.729 24.9068 574.721 23.7545 573.977 22.2901C573.257 20.8257 572.896 19.1813 572.896 17.3568C572.896 15.4843 573.269 13.8398 574.013 12.4235C574.757 10.9831 575.765 9.85477 577.038 9.03856C578.31 8.22234 579.75 7.81423 581.359 7.81423C582.391 7.81423 583.351 7.99428 584.24 8.35437C585.152 8.71447 585.944 9.2066 586.616 9.83077C587.288 10.4549 587.804 11.1751 588.165 11.9913C588.549 12.7836 588.741 13.6118 588.741 14.476L587.985 13.9359V9.36264C587.985 9.05056 588.081 8.78649 588.273 8.57043C588.489 8.35437 588.753 8.24634 589.065 8.24634ZM581.575 24.9908C582.847 24.9908 583.975 24.6667 584.96 24.0186C585.944 23.3464 586.712 22.4341 587.264 21.2818C587.84 20.1055 588.129 18.7972 588.129 17.3568C588.129 15.9404 587.84 14.6681 587.264 13.5398C586.712 12.4115 585.944 11.5112 584.96 10.839C583.975 10.1669 582.847 9.83077 581.575 9.83077C580.326 9.83077 579.198 10.1549 578.19 10.803C577.206 11.4512 576.425 12.3394 575.849 13.4677C575.297 14.596 575.021 15.8924 575.021 17.3568C575.021 18.7972 575.297 20.1055 575.849 21.2818C576.425 22.4341 577.206 23.3464 578.19 24.0186C579.174 24.6667 580.302 24.9908 581.575 24.9908ZM604.493 7.81423C606.077 7.81423 607.338 8.13832 608.274 8.78649C609.234 9.41066 609.918 10.2749 610.327 11.3792C610.759 12.4595 610.975 13.6598 610.975 14.9801V25.567C610.975 25.8551 610.867 26.1071 610.651 26.3232C610.435 26.5392 610.183 26.6473 609.894 26.6473C609.558 26.6473 609.294 26.5392 609.102 26.3232C608.91 26.1071 608.814 25.8551 608.814 25.567V15.0882C608.814 14.1279 608.658 13.2517 608.346 12.4595C608.034 11.6673 607.518 11.0311 606.798 10.551C606.101 10.0708 605.177 9.83077 604.025 9.83077C602.993 9.83077 602.008 10.0708 601.072 10.551C600.16 11.0311 599.416 11.6673 598.839 12.4595C598.263 13.2517 597.975 14.1279 597.975 15.0882V25.567C597.975 25.8551 597.867 26.1071 597.651 26.3232C597.435 26.5392 597.183 26.6473 596.895 26.6473C596.559 26.6473 596.295 26.5392 596.103 26.3232C595.911 26.1071 595.815 25.8551 595.815 25.567V9.43466C595.815 9.14658 595.911 8.89452 596.103 8.67846C596.319 8.4624 596.583 8.35437 596.895 8.35437C597.207 8.35437 597.459 8.4624 597.651 8.67846C597.867 8.89452 597.975 9.14658 597.975 9.43466V12.4595L597.147 13.7558C597.195 12.9876 597.435 12.2554 597.867 11.5592C598.323 10.839 598.899 10.2029 599.596 9.65072C600.292 9.07457 601.06 8.63045 601.9 8.31836C602.765 7.98227 603.629 7.81423 604.493 7.81423ZM615.588 23.7305C615.396 23.4424 615.3 23.1663 615.3 22.9023C615.324 22.6142 615.48 22.3861 615.769 22.2181C615.961 22.05 616.177 21.978 616.417 22.002C616.681 22.026 616.921 22.1461 617.137 22.3621C617.785 23.2023 618.565 23.8865 619.477 24.4147C620.414 24.9188 621.518 25.1709 622.79 25.1709C623.463 25.1709 624.123 25.0628 624.771 24.8468C625.443 24.6067 625.995 24.2586 626.427 23.8025C626.859 23.3224 627.076 22.7222 627.076 22.002C627.076 21.2578 626.859 20.6577 626.427 20.2015C625.995 19.7454 625.431 19.3853 624.735 19.1213C624.063 18.8572 623.343 18.6291 622.574 18.4371C621.758 18.221 620.966 17.9809 620.198 17.7169C619.429 17.4288 618.745 17.0807 618.145 16.6726C617.569 16.2405 617.101 15.7243 616.741 15.1242C616.381 14.524 616.201 13.7918 616.201 12.9276C616.201 11.9193 616.477 11.0311 617.029 10.2629C617.581 9.49468 618.325 8.89452 619.261 8.4624C620.222 8.03029 621.302 7.81423 622.502 7.81423C623.102 7.81423 623.751 7.89825 624.447 8.06629C625.143 8.21033 625.827 8.4624 626.499 8.8225C627.172 9.18259 627.772 9.67473 628.3 10.2989C628.516 10.515 628.624 10.767 628.624 11.0551C628.624 11.3192 628.504 11.5592 628.264 11.7753C628.072 11.9193 627.844 11.9913 627.58 11.9913C627.34 11.9913 627.136 11.8953 626.968 11.7033C626.391 11.0551 625.707 10.563 624.915 10.2269C624.123 9.89078 623.271 9.72274 622.358 9.72274C621.662 9.72274 621.002 9.84277 620.378 10.0828C619.778 10.2989 619.273 10.635 618.865 11.0911C618.457 11.5472 618.253 12.1474 618.253 12.8916C618.301 13.5878 618.541 14.1519 618.973 14.584C619.429 15.0162 620.018 15.3763 620.738 15.6643C621.482 15.9524 622.31 16.2165 623.223 16.4565C623.991 16.6486 624.723 16.8767 625.419 17.1407C626.139 17.4048 626.763 17.7409 627.292 18.149C627.844 18.5331 628.276 19.0252 628.588 19.6254C628.924 20.2256 629.092 20.9818 629.092 21.894C629.092 22.9503 628.792 23.8625 628.192 24.6307C627.616 25.3989 626.835 25.9871 625.851 26.3952C624.867 26.8033 623.775 27.0074 622.574 27.0074C621.278 27.0074 620.018 26.7553 618.793 26.2512C617.593 25.747 616.525 24.9068 615.588 23.7305ZM640.174 0.144173C640.534 0.144173 640.918 0.180183 641.326 0.252203C641.758 0.324223 642.131 0.456258 642.443 0.648308C642.755 0.816354 642.911 1.08042 642.911 1.44052C642.911 1.70459 642.815 1.94466 642.623 2.16071C642.431 2.35277 642.215 2.44879 641.975 2.44879C641.734 2.44879 641.434 2.38877 641.074 2.26874C640.714 2.1247 640.33 2.05269 639.922 2.05269C639.418 2.05269 638.986 2.17272 638.626 2.41278C638.266 2.62884 637.989 2.95293 637.797 3.38504C637.605 3.79315 637.509 4.29729 637.509 4.89745V25.567C637.509 25.8551 637.401 26.1071 637.185 26.3232C636.993 26.5392 636.741 26.6473 636.429 26.6473C636.117 26.6473 635.853 26.5392 635.637 26.3232C635.445 26.1071 635.349 25.8551 635.349 25.567V4.89745C635.349 3.36104 635.793 2.18472 636.681 1.3685C637.593 0.552283 638.758 0.144173 640.174 0.144173ZM641.542 8.60644C641.83 8.60644 642.071 8.70246 642.263 8.89452C642.455 9.08657 642.551 9.32663 642.551 9.61471C642.551 9.90279 642.455 10.1429 642.263 10.3349C642.071 10.527 641.83 10.623 641.542 10.623H632.72C632.456 10.623 632.216 10.527 632 10.3349C631.808 10.1188 631.712 9.87878 631.712 9.61471C631.712 9.30263 631.808 9.06256 632 8.89452C632.216 8.70246 632.456 8.60644 632.72 8.60644H641.542ZM662.293 17.4288C662.293 19.2533 661.897 20.8977 661.104 22.3621C660.312 23.8025 659.232 24.9428 657.863 25.783C656.495 26.5993 654.935 27.0074 653.182 27.0074C651.478 27.0074 649.929 26.5993 648.537 25.783C647.169 24.9428 646.076 23.8025 645.26 22.3621C644.468 20.8977 644.072 19.2533 644.072 17.4288C644.072 15.5803 644.468 13.9359 645.26 12.4955C646.076 11.0551 647.169 9.91479 648.537 9.07456C649.929 8.23434 651.478 7.81423 653.182 7.81423C654.935 7.81423 656.495 8.23434 657.863 9.07456C659.232 9.91479 660.312 11.0551 661.104 12.4955C661.897 13.9359 662.293 15.5803 662.293 17.4288ZM660.132 17.4288C660.132 15.9644 659.832 14.6681 659.232 13.5398C658.632 12.3875 657.803 11.4872 656.747 10.839C655.715 10.1669 654.527 9.83077 653.182 9.83077C651.886 9.83077 650.71 10.1669 649.653 10.839C648.597 11.4872 647.757 12.3875 647.133 13.5398C646.532 14.6681 646.232 15.9644 646.232 17.4288C646.232 18.8932 646.532 20.1895 647.133 21.3178C647.757 22.4461 648.597 23.3464 649.653 24.0186C650.71 24.6667 651.886 24.9908 653.182 24.9908C654.527 24.9908 655.715 24.6667 656.747 24.0186C657.803 23.3464 658.632 22.4461 659.232 21.3178C659.832 20.1895 660.132 18.8932 660.132 17.4288ZM667.965 26.6473C667.629 26.6473 667.365 26.5392 667.173 26.3232C666.98 26.1071 666.884 25.8551 666.884 25.567V9.43466C666.884 9.14658 666.98 8.89452 667.173 8.67846C667.389 8.4624 667.653 8.35437 667.965 8.35437C668.277 8.35437 668.529 8.4624 668.721 8.67846C668.937 8.89452 669.045 9.14658 669.045 9.43466V14.8361L668.505 14.9441C668.577 14.1039 668.781 13.2757 669.117 12.4595C669.477 11.6192 669.957 10.851 670.557 10.1549C671.158 9.45867 671.866 8.89452 672.682 8.4624C673.522 8.03029 674.458 7.81423 675.491 7.81423C675.923 7.81423 676.343 7.91025 676.751 8.1023C677.159 8.27035 677.363 8.55843 677.363 8.96654C677.363 9.32663 677.267 9.60271 677.075 9.79476C676.883 9.98681 676.655 10.0828 676.391 10.0828C676.175 10.0828 675.935 10.0228 675.671 9.90279C675.431 9.78275 675.107 9.72274 674.699 9.72274C674.026 9.72274 673.354 9.92679 672.682 10.3349C672.01 10.719 671.398 11.2471 670.846 11.9193C670.293 12.5915 669.849 13.3477 669.513 14.1879C669.201 15.0042 669.045 15.8324 669.045 16.6726V25.567C669.045 25.8551 668.937 26.1071 668.721 26.3232C668.505 26.5392 668.253 26.6473 667.965 26.6473ZM689.022 8.1023C690.51 8.1023 691.783 8.49841 692.839 9.29062C693.895 10.0588 694.615 11.2111 695 12.7475L694.495 12.8916L694.711 12.2434C695.024 11.5232 695.54 10.851 696.26 10.2269C697.004 9.5787 697.844 9.06256 698.781 8.67846C699.717 8.29436 700.665 8.1023 701.625 8.1023C703.138 8.1023 704.35 8.42639 705.262 9.07456C706.199 9.72274 706.871 10.599 707.279 11.7033C707.711 12.7836 707.927 14.0079 707.927 15.3763V25.567C707.927 25.8551 707.819 26.1071 707.603 26.3232C707.411 26.5392 707.159 26.6473 706.847 26.6473C706.535 26.6473 706.271 26.5392 706.055 26.3232C705.862 26.1071 705.766 25.8551 705.766 25.567V15.4843C705.766 14.5 705.61 13.5998 705.298 12.7836C704.986 11.9673 704.494 11.3192 703.822 10.839C703.15 10.3589 702.25 10.1188 701.121 10.1188C700.137 10.1188 699.189 10.3589 698.276 10.839C697.388 11.3192 696.656 11.9673 696.08 12.7836C695.528 13.5998 695.252 14.5 695.252 15.4843V25.567C695.252 25.8551 695.144 26.1071 694.928 26.3232C694.735 26.5392 694.483 26.6473 694.171 26.6473C693.859 26.6473 693.595 26.5392 693.379 26.3232C693.187 26.1071 693.091 25.8551 693.091 25.567V15.3763C693.091 14.392 692.947 13.5038 692.659 12.7115C692.371 11.9193 691.903 11.2952 691.255 10.839C690.606 10.3589 689.73 10.1188 688.626 10.1188C687.642 10.1188 686.705 10.3589 685.817 10.839C684.953 11.2952 684.245 11.9193 683.693 12.7115C683.164 13.5038 682.9 14.392 682.9 15.3763V25.567C682.9 25.8551 682.792 26.1071 682.576 26.3232C682.36 26.5392 682.108 26.6473 681.82 26.6473C681.484 26.6473 681.22 26.5392 681.028 26.3232C680.836 26.1071 680.74 25.8551 680.74 25.567V9.43466C680.74 9.14658 680.836 8.89452 681.028 8.67846C681.244 8.4624 681.508 8.35437 681.82 8.35437C682.132 8.35437 682.384 8.4624 682.576 8.67846C682.792 8.89452 682.9 9.14658 682.9 9.43466V12.7836L681.928 14.1159C682 13.3957 682.228 12.6755 682.612 11.9553C683.02 11.2351 683.548 10.587 684.197 10.0108C684.845 9.43466 685.577 8.97854 686.393 8.64245C687.233 8.28235 688.11 8.1023 689.022 8.1023ZM731.821 8.1023C733.334 8.1023 734.558 8.42639 735.494 9.07456C736.43 9.72274 737.115 10.599 737.547 11.7033C738.003 12.8076 738.231 14.0319 738.231 15.3763V25.567C738.231 25.8551 738.123 26.1071 737.907 26.3232C737.691 26.5392 737.439 26.6473 737.151 26.6473C736.814 26.6473 736.55 26.5392 736.358 26.3232C736.166 26.1071 736.07 25.8551 736.07 25.567V15.3763C736.07 14.392 735.914 13.5038 735.602 12.7115C735.314 11.9193 734.834 11.2952 734.162 10.839C733.49 10.3589 732.589 10.1188 731.461 10.1188C730.453 10.1188 729.492 10.3589 728.58 10.839C727.692 11.2952 726.972 11.9193 726.42 12.7115C725.868 13.5038 725.591 14.392 725.591 15.3763V25.567C725.591 25.8551 725.483 26.1071 725.267 26.3232C725.051 26.5392 724.799 26.6473 724.511 26.6473C724.175 26.6473 723.911 26.5392 723.719 26.3232C723.527 26.1071 723.431 25.8551 723.431 25.567V1.08042C723.431 0.792347 723.527 0.54028 723.719 0.324223C723.935 0.108165 724.199 0.000136412 724.511 0.000136412C724.823 0.000136412 725.075 0.108165 725.267 0.324223C725.483 0.54028 725.591 0.792347 725.591 1.08042V12.7475L724.763 14.0079C724.811 13.2637 725.039 12.5435 725.447 11.8473C725.88 11.1271 726.432 10.4909 727.104 9.9388C727.776 9.36264 728.52 8.91852 729.336 8.60644C730.153 8.27035 730.981 8.1023 731.821 8.1023ZM761.038 17.4288C761.038 19.2533 760.642 20.8977 759.85 22.3621C759.057 23.8025 757.977 24.9428 756.609 25.783C755.24 26.5993 753.68 27.0074 751.927 27.0074C750.223 27.0074 748.675 26.5993 747.282 25.783C745.914 24.9428 744.822 23.8025 744.005 22.3621C743.213 20.8977 742.817 19.2533 742.817 17.4288C742.817 15.5803 743.213 13.9359 744.005 12.4955C744.822 11.0551 745.914 9.91479 747.282 9.07456C748.675 8.23434 750.223 7.81423 751.927 7.81423C753.68 7.81423 755.24 8.23434 756.609 9.07456C757.977 9.91479 759.057 11.0551 759.85 12.4955C760.642 13.9359 761.038 15.5803 761.038 17.4288ZM758.877 17.4288C758.877 15.9644 758.577 14.6681 757.977 13.5398C757.377 12.3875 756.549 11.4872 755.492 10.839C754.46 10.1669 753.272 9.83077 751.927 9.83077C750.631 9.83077 749.455 10.1669 748.398 10.839C747.342 11.4872 746.502 12.3875 745.878 13.5398C745.278 14.6681 744.978 15.9644 744.978 17.4288C744.978 18.8932 745.278 20.1895 745.878 21.3178C746.502 22.4461 747.342 23.3464 748.398 24.0186C749.455 24.6667 750.631 24.9908 751.927 24.9908C753.272 24.9908 754.46 24.6667 755.492 24.0186C756.549 23.3464 757.377 22.4461 757.977 21.3178C758.577 20.1895 758.877 18.8932 758.877 17.4288ZM787.488 7.85024C787.752 7.85024 787.992 7.94626 788.208 8.13832C788.448 8.33037 788.568 8.59444 788.568 8.93053C788.568 9.00255 788.556 9.08657 788.532 9.18259C788.508 9.27862 788.484 9.35064 788.46 9.39865L782.914 25.9631C782.818 26.1791 782.662 26.3592 782.446 26.5032C782.254 26.6233 782.05 26.6713 781.834 26.6473C781.402 26.6233 781.078 26.3952 780.862 25.9631L775.784 14.0079L776.433 14.1519L771.931 25.9631C771.739 26.3952 771.415 26.6233 770.959 26.6473C770.743 26.6713 770.527 26.6233 770.311 26.5032C770.095 26.3592 769.951 26.1791 769.879 25.9631L764.189 9.39865C764.117 9.23061 764.081 9.07457 764.081 8.93053C764.081 8.61844 764.177 8.36638 764.369 8.17432C764.585 7.95827 764.861 7.85024 765.198 7.85024C765.414 7.85024 765.606 7.91025 765.774 8.03029C765.966 8.15032 766.098 8.33037 766.17 8.57043L771.283 23.9105L770.599 23.8745L775.244 12.1714C775.436 11.7153 775.772 11.4872 776.253 11.4872C776.493 11.4872 776.697 11.5472 776.865 11.6673C777.033 11.7873 777.165 11.9553 777.261 12.1714L782.194 23.9105L781.402 23.9465L786.479 8.57043C786.623 8.0903 786.959 7.85024 787.488 7.85024ZM816.273 7.92226C816.585 7.92226 816.837 8.03029 817.029 8.24634C817.246 8.4624 817.354 8.71447 817.354 9.00255V24.8828C817.354 26.8273 816.969 28.4598 816.201 29.7801C815.433 31.1245 814.401 32.1327 813.104 32.8049C811.808 33.5011 810.332 33.8492 808.675 33.8492C807.643 33.8492 806.683 33.7292 805.794 33.4891C804.93 33.273 804.222 32.985 803.67 32.6249C803.382 32.4568 803.166 32.2528 803.022 32.0127C802.878 31.7726 802.866 31.5206 802.986 31.2565C803.106 30.9204 803.286 30.6924 803.526 30.5723C803.79 30.4763 804.054 30.4883 804.318 30.6083C804.726 30.8244 805.314 31.0885 806.083 31.4005C806.851 31.7126 807.727 31.8687 808.711 31.8687C810.032 31.8687 811.172 31.5926 812.132 31.0404C813.116 30.4883 813.873 29.6841 814.401 28.6278C814.929 27.5955 815.193 26.3592 815.193 24.9188V22.3261L815.445 23.1903C815.085 23.9345 814.569 24.5947 813.897 25.1709C813.248 25.747 812.492 26.2032 811.628 26.5392C810.788 26.8513 809.888 27.0074 808.927 27.0074C807.487 27.0074 806.287 26.7193 805.326 26.1431C804.39 25.543 803.694 24.7268 803.238 23.6945C802.782 22.6622 802.554 21.4499 802.554 20.0575V9.00255C802.554 8.71447 802.65 8.4624 802.842 8.24634C803.034 8.03029 803.298 7.92226 803.634 7.92226C803.946 7.92226 804.198 8.03029 804.39 8.24634C804.606 8.4624 804.714 8.71447 804.714 9.00255V19.7334C804.714 21.4139 805.074 22.7102 805.794 23.6225C806.539 24.5347 807.739 24.9908 809.395 24.9908C810.428 24.9908 811.376 24.7508 812.24 24.2706C813.104 23.7665 813.813 23.1183 814.365 22.3261C814.917 21.5099 815.193 20.6457 815.193 19.7334V9.00255C815.193 8.71447 815.289 8.4624 815.481 8.24634C815.697 8.03029 815.961 7.92226 816.273 7.92226ZM839.985 17.4288C839.985 19.2533 839.589 20.8977 838.796 22.3621C838.004 23.8025 836.924 24.9428 835.556 25.783C834.187 26.5993 832.627 27.0074 830.874 27.0074C829.17 27.0074 827.621 26.5993 826.229 25.783C824.861 24.9428 823.768 23.8025 822.952 22.3621C822.16 20.8977 821.764 19.2533 821.764 17.4288C821.764 15.5803 822.16 13.9359 822.952 12.4955C823.768 11.0551 824.861 9.91479 826.229 9.07456C827.621 8.23434 829.17 7.81423 830.874 7.81423C832.627 7.81423 834.187 8.23434 835.556 9.07456C836.924 9.91479 838.004 11.0551 838.796 12.4955C839.589 13.9359 839.985 15.5803 839.985 17.4288ZM837.824 17.4288C837.824 15.9644 837.524 14.6681 836.924 13.5398C836.324 12.3875 835.496 11.4872 834.439 10.839C833.407 10.1669 832.219 9.83077 830.874 9.83077C829.578 9.83077 828.402 10.1669 827.345 10.839C826.289 11.4872 825.449 12.3875 824.825 13.5398C824.225 14.6681 823.924 15.9644 823.924 17.4288C823.924 18.8932 824.225 20.1895 824.825 21.3178C825.449 22.4461 826.289 23.3464 827.345 24.0186C828.402 24.6667 829.578 24.9908 830.874 24.9908C832.219 24.9908 833.407 24.6667 834.439 24.0186C835.496 23.3464 836.324 22.4461 836.924 21.3178C837.524 20.1895 837.824 18.8932 837.824 17.4288ZM858.332 8.35437C858.644 8.35437 858.896 8.4624 859.088 8.67846C859.305 8.89452 859.413 9.14658 859.413 9.43466V19.5894C859.413 21.966 858.74 23.7785 857.396 25.0268C856.052 26.2752 854.239 26.8993 851.959 26.8993C849.702 26.8993 847.901 26.2752 846.557 25.0268C845.237 23.7785 844.577 21.966 844.577 19.5894V9.43466C844.577 9.14658 844.673 8.89452 844.865 8.67846C845.081 8.4624 845.345 8.35437 845.657 8.35437C845.969 8.35437 846.221 8.4624 846.413 8.67846C846.629 8.89452 846.737 9.14658 846.737 9.43466V19.5894C846.737 21.3178 847.193 22.6382 848.106 23.5504C849.042 24.4387 850.326 24.8828 851.959 24.8828C853.615 24.8828 854.911 24.4387 855.848 23.5504C856.784 22.6382 857.252 21.3178 857.252 19.5894V9.43466C857.252 9.14658 857.348 8.89452 857.54 8.67846C857.732 8.4624 857.996 8.35437 858.332 8.35437ZM890.013 0.000136412C890.325 0.000136412 890.577 0.108165 890.769 0.324223C890.985 0.516274 891.093 0.768341 891.093 1.08042V25.567C891.093 25.8551 890.985 26.1071 890.769 26.3232C890.553 26.5392 890.301 26.6473 890.013 26.6473C889.7 26.6473 889.436 26.5392 889.22 26.3232C889.028 26.1071 888.932 25.8551 888.932 25.567V21.2818L889.544 20.7777C889.544 21.4499 889.364 22.1581 889.004 22.9023C888.644 23.6225 888.128 24.2946 887.456 24.9188C886.808 25.543 886.04 26.0471 885.151 26.4312C884.287 26.8153 883.351 27.0074 882.343 27.0074C880.734 27.0074 879.282 26.5873 877.985 25.747C876.713 24.9068 875.705 23.7665 874.961 22.3261C874.216 20.8857 873.844 19.2413 873.844 17.3928C873.844 15.5683 874.216 13.9359 874.961 12.4955C875.705 11.0311 876.713 9.89078 877.985 9.07456C879.258 8.23434 880.698 7.81423 882.307 7.81423C883.291 7.81423 884.227 7.99428 885.115 8.35437C886.004 8.71447 886.784 9.2066 887.456 9.83077C888.152 10.4549 888.692 11.1751 889.076 11.9913C889.484 12.7836 889.688 13.6118 889.688 14.476L888.932 13.9359V1.08042C888.932 0.792347 889.028 0.54028 889.22 0.324223C889.436 0.108165 889.7 0.000136412 890.013 0.000136412ZM882.523 24.9908C883.819 24.9908 884.947 24.6667 885.907 24.0186C886.892 23.3464 887.66 22.4461 888.212 21.3178C888.788 20.1655 889.076 18.8572 889.076 17.3928C889.076 15.9524 888.788 14.6681 888.212 13.5398C887.66 12.3875 886.892 11.4872 885.907 10.839C884.923 10.1669 883.795 9.83077 882.523 9.83077C881.274 9.83077 880.146 10.1669 879.138 10.839C878.153 11.4872 877.373 12.3875 876.797 13.5398C876.245 14.6681 875.969 15.9524 875.969 17.3928C875.969 18.8332 876.245 20.1295 876.797 21.2818C877.373 22.4341 878.153 23.3464 879.138 24.0186C880.146 24.6667 881.274 24.9908 882.523 24.9908ZM913.903 17.4288C913.903 19.2533 913.507 20.8977 912.715 22.3621C911.922 23.8025 910.842 24.9428 909.474 25.783C908.105 26.5993 906.545 27.0074 904.793 27.0074C903.088 27.0074 901.54 26.5993 900.147 25.783C898.779 24.9428 897.687 23.8025 896.87 22.3621C896.078 20.8977 895.682 19.2533 895.682 17.4288C895.682 15.5803 896.078 13.9359 896.87 12.4955C897.687 11.0551 898.779 9.91479 900.147 9.07456C901.54 8.23434 903.088 7.81423 904.793 7.81423C906.545 7.81423 908.105 8.23434 909.474 9.07456C910.842 9.91479 911.922 11.0551 912.715 12.4955C913.507 13.9359 913.903 15.5803 913.903 17.4288ZM911.742 17.4288C911.742 15.9644 911.442 14.6681 910.842 13.5398C910.242 12.3875 909.414 11.4872 908.358 10.839C907.325 10.1669 906.137 9.83077 904.793 9.83077C903.496 9.83077 902.32 10.1669 901.264 10.839C900.207 11.4872 899.367 12.3875 898.743 13.5398C898.143 14.6681 897.843 15.9644 897.843 17.4288C897.843 18.8932 898.143 20.1895 898.743 21.3178C899.367 22.4461 900.207 23.3464 901.264 24.0186C902.32 24.6667 903.496 24.9908 904.793 24.9908C906.137 24.9908 907.325 24.6667 908.358 24.0186C909.414 23.3464 910.242 22.4461 910.842 21.3178C911.442 20.1895 911.742 18.8932 911.742 17.4288ZM937.092 7.81423C938.724 7.81423 940.164 8.22234 941.413 9.03856C942.685 9.85477 943.693 10.9831 944.437 12.4235C945.182 13.8398 945.554 15.4843 945.554 17.3568C945.554 19.1813 945.182 20.8257 944.437 22.2901C943.693 23.7545 942.685 24.9068 941.413 25.747C940.14 26.5873 938.712 27.0074 937.128 27.0074C936.287 27.0074 935.483 26.8753 934.715 26.6113C933.971 26.3472 933.287 25.9991 932.662 25.567C932.038 25.1109 931.486 24.5827 931.006 23.9826C930.526 23.3824 930.142 22.7342 929.854 22.038L930.502 21.5699V25.639C930.502 25.9511 930.394 26.2152 930.178 26.4312C929.986 26.6233 929.734 26.7193 929.421 26.7193C929.109 26.7193 928.845 26.6233 928.629 26.4312C928.437 26.2152 928.341 25.9511 928.341 25.639V1.11643C928.341 0.80435 928.437 0.552283 928.629 0.360232C928.821 0.144175 929.085 0.0361456 929.421 0.0361456C929.734 0.0361456 929.986 0.144175 930.178 0.360232C930.394 0.552283 930.502 0.80435 930.502 1.11643V13.1797L929.998 12.8916C930.238 12.1474 930.586 11.4752 931.042 10.875C931.522 10.2509 932.074 9.71074 932.698 9.25461C933.323 8.79849 934.007 8.4504 934.751 8.21033C935.495 7.94626 936.275 7.81423 937.092 7.81423ZM936.911 9.83077C935.615 9.83077 934.475 10.1549 933.491 10.803C932.506 11.4512 931.726 12.3394 931.15 13.4677C930.598 14.596 930.322 15.8924 930.322 17.3568C930.322 18.7972 930.598 20.1055 931.15 21.2818C931.726 22.4341 932.506 23.3464 933.491 24.0186C934.475 24.6667 935.615 24.9908 936.911 24.9908C938.184 24.9908 939.3 24.6547 940.26 23.9826C941.245 23.3104 942.025 22.3981 942.601 21.2458C943.177 20.0695 943.465 18.7732 943.465 17.3568C943.465 15.8924 943.177 14.596 942.601 13.4677C942.025 12.3394 941.245 11.4512 940.26 10.803C939.3 10.1549 938.184 9.83077 936.911 9.83077ZM963.935 8.35437C964.247 8.35437 964.499 8.4624 964.691 8.67846C964.907 8.89452 965.015 9.14658 965.015 9.43466V19.5894C965.015 21.966 964.343 23.7785 962.998 25.0268C961.654 26.2752 959.842 26.8993 957.561 26.8993C955.304 26.8993 953.504 26.2752 952.16 25.0268C950.839 23.7785 950.179 21.966 950.179 19.5894V9.43466C950.179 9.14658 950.275 8.89452 950.467 8.67846C950.683 8.4624 950.947 8.35437 951.259 8.35437C951.571 8.35437 951.824 8.4624 952.016 8.67846C952.232 8.89452 952.34 9.14658 952.34 9.43466V19.5894C952.34 21.3178 952.796 22.6382 953.708 23.5504C954.644 24.4387 955.929 24.8828 957.561 24.8828C959.217 24.8828 960.514 24.4387 961.45 23.5504C962.386 22.6382 962.854 21.3178 962.854 19.5894V9.43466C962.854 9.14658 962.95 8.89452 963.143 8.67846C963.335 8.4624 963.599 8.35437 963.935 8.35437ZM969.636 23.7305C969.444 23.4424 969.348 23.1663 969.348 22.9023C969.372 22.6142 969.528 22.3861 969.816 22.2181C970.008 22.05 970.225 21.978 970.465 22.002C970.729 22.026 970.969 22.1461 971.185 22.3621C971.833 23.2023 972.613 23.8865 973.525 24.4147C974.462 24.9188 975.566 25.1709 976.838 25.1709C977.51 25.1709 978.171 25.0628 978.819 24.8468C979.491 24.6067 980.043 24.2586 980.475 23.8025C980.907 23.3224 981.123 22.7222 981.123 22.002C981.123 21.2578 980.907 20.6577 980.475 20.2015C980.043 19.7454 979.479 19.3853 978.783 19.1213C978.111 18.8572 977.39 18.6291 976.622 18.4371C975.806 18.221 975.014 17.9809 974.246 17.7169C973.477 17.4288 972.793 17.0807 972.193 16.6726C971.617 16.2405 971.149 15.7243 970.789 15.1242C970.429 14.524 970.249 13.7918 970.249 12.9276C970.249 11.9193 970.525 11.0311 971.077 10.2629C971.629 9.49468 972.373 8.89452 973.309 8.4624C974.27 8.03029 975.35 7.81423 976.55 7.81423C977.15 7.81423 977.799 7.89825 978.495 8.06629C979.191 8.21033 979.875 8.4624 980.547 8.8225C981.219 9.18259 981.82 9.67473 982.348 10.2989C982.564 10.515 982.672 10.767 982.672 11.0551C982.672 11.3192 982.552 11.5592 982.312 11.7753C982.12 11.9193 981.892 11.9913 981.628 11.9913C981.388 11.9913 981.183 11.8953 981.015 11.7033C980.439 11.0551 979.755 10.563 978.963 10.2269C978.171 9.89078 977.318 9.72274 976.406 9.72274C975.71 9.72274 975.05 9.84277 974.426 10.0828C973.825 10.2989 973.321 10.635 972.913 11.0911C972.505 11.5472 972.301 12.1474 972.301 12.8916C972.349 13.5878 972.589 14.1519 973.021 14.584C973.477 15.0162 974.066 15.3763 974.786 15.6643C975.53 15.9524 976.358 16.2165 977.27 16.4565C978.039 16.6486 978.771 16.8767 979.467 17.1407C980.187 17.4048 980.811 17.7409 981.339 18.149C981.892 18.5331 982.324 19.0252 982.636 19.6254C982.972 20.2256 983.14 20.9818 983.14 21.894C983.14 22.9503 982.84 23.8625 982.24 24.6307C981.664 25.3989 980.883 25.9871 979.899 26.3952C978.915 26.8033 977.823 27.0074 976.622 27.0074C975.326 27.0074 974.066 26.7553 972.841 26.2512C971.641 25.747 970.573 24.9068 969.636 23.7305ZM989.649 25.567C989.649 25.8551 989.541 26.1071 989.325 26.3232C989.109 26.5392 988.857 26.6473 988.568 26.6473C988.256 26.6473 987.992 26.5392 987.776 26.3232C987.584 26.1071 987.488 25.8551 987.488 25.567V9.00255C987.488 8.71447 987.584 8.4624 987.776 8.24634C987.992 8.03029 988.256 7.92226 988.568 7.92226C988.881 7.92226 989.133 8.03029 989.325 8.24634C989.541 8.4624 989.649 8.71447 989.649 9.00255V25.567ZM988.568 5.50961C988.064 5.50961 987.68 5.40158 987.416 5.18552C987.176 4.94546 987.056 4.60937 987.056 4.17725V3.81716C987.056 3.38504 987.188 3.06096 987.452 2.8449C987.74 2.60483 988.124 2.4848 988.604 2.4848C989.061 2.4848 989.409 2.60483 989.649 2.8449C989.913 3.06096 990.045 3.38504 990.045 3.81716V4.17725C990.045 4.60937 989.913 4.94546 989.649 5.18552C989.409 5.40158 989.049 5.50961 988.568 5.50961ZM1003.94 7.81423C1005.52 7.81423 1006.78 8.13832 1007.72 8.78649C1008.68 9.41066 1009.37 10.2749 1009.77 11.3792C1010.21 12.4595 1010.42 13.6598 1010.42 14.9801V25.567C1010.42 25.8551 1010.31 26.1071 1010.1 26.3232C1009.88 26.5392 1009.63 26.6473 1009.34 26.6473C1009.01 26.6473 1008.74 26.5392 1008.55 26.3232C1008.36 26.1071 1008.26 25.8551 1008.26 25.567V15.0882C1008.26 14.1279 1008.1 13.2517 1007.79 12.4595C1007.48 11.6673 1006.96 11.0311 1006.24 10.551C1005.55 10.0708 1004.62 9.83077 1003.47 9.83077C1002.44 9.83077 1001.46 10.0708 1000.52 10.551C999.607 11.0311 998.862 11.6673 998.286 12.4595C997.71 13.2517 997.422 14.1279 997.422 15.0882V25.567C997.422 25.8551 997.314 26.1071 997.098 26.3232C996.882 26.5392 996.63 26.6473 996.342 26.6473C996.006 26.6473 995.742 26.5392 995.55 26.3232C995.357 26.1071 995.261 25.8551 995.261 25.567V9.43466C995.261 9.14658 995.357 8.89452 995.55 8.67846C995.766 8.4624 996.03 8.35437 996.342 8.35437C996.654 8.35437 996.906 8.4624 997.098 8.67846C997.314 8.89452 997.422 9.14658 997.422 9.43466V12.4595L996.594 13.7558C996.642 12.9876 996.882 12.2554 997.314 11.5592C997.77 10.839 998.346 10.2029 999.042 9.65072C999.739 9.07457 1000.51 8.63045 1001.35 8.31836C1002.21 7.98227 1003.08 7.81423 1003.94 7.81423ZM1024.4 27.0074C1022.55 27.0074 1020.92 26.6113 1019.5 25.819C1018.08 25.0268 1016.98 23.9225 1016.19 22.5062C1015.4 21.0898 1015 19.4333 1015 17.5368C1015 15.4963 1015.4 13.7558 1016.19 12.3154C1017 10.875 1018.05 9.77075 1019.32 9.00255C1020.62 8.21033 1021.99 7.81423 1023.43 7.81423C1024.48 7.81423 1025.5 8.00628 1026.49 8.39038C1027.49 8.75048 1028.38 9.30263 1029.15 10.0468C1029.94 10.767 1030.57 11.6553 1031.02 12.7115C1031.5 13.7678 1031.77 14.9921 1031.82 16.3845C1031.79 16.6726 1031.67 16.9247 1031.46 17.1407C1031.24 17.3328 1030.99 17.4288 1030.7 17.4288H1016.26L1015.83 15.4843H1030.02L1029.55 15.9164V15.1962C1029.45 14.0679 1029.09 13.1076 1028.47 12.3154C1027.84 11.5232 1027.09 10.9231 1026.2 10.515C1025.31 10.1068 1024.39 9.90279 1023.43 9.90279C1022.71 9.90279 1021.96 10.0468 1021.19 10.3349C1020.45 10.623 1019.76 11.0791 1019.14 11.7033C1018.54 12.3034 1018.05 13.0836 1017.66 14.0439C1017.28 14.9801 1017.09 16.0964 1017.09 17.3928C1017.09 18.8092 1017.38 20.0935 1017.95 21.2458C1018.53 22.3981 1019.36 23.3104 1020.44 23.9826C1021.54 24.6547 1022.85 24.9908 1024.36 24.9908C1025.2 24.9908 1025.96 24.8708 1026.63 24.6307C1027.3 24.3907 1027.89 24.0786 1028.39 23.6945C1028.9 23.2864 1029.32 22.8663 1029.66 22.4341C1029.92 22.2181 1030.18 22.1101 1030.45 22.1101C1030.69 22.1101 1030.89 22.2061 1031.06 22.3981C1031.25 22.5902 1031.35 22.8062 1031.35 23.0463C1031.35 23.3344 1031.23 23.5865 1030.99 23.8025C1030.27 24.6667 1029.33 25.4229 1028.18 26.0711C1027.03 26.6953 1025.77 27.0074 1024.4 27.0074ZM1035.4 23.7305C1035.2 23.4424 1035.11 23.1663 1035.11 22.9023C1035.13 22.6142 1035.29 22.3861 1035.58 22.2181C1035.77 22.05 1035.98 21.978 1036.22 22.002C1036.49 22.026 1036.73 22.1461 1036.94 22.3621C1037.59 23.2023 1038.37 23.8865 1039.29 24.4147C1040.22 24.9188 1041.33 25.1709 1042.6 25.1709C1043.27 25.1709 1043.93 25.0628 1044.58 24.8468C1045.25 24.6067 1045.8 24.2586 1046.24 23.8025C1046.67 23.3224 1046.88 22.7222 1046.88 22.002C1046.88 21.2578 1046.67 20.6577 1046.24 20.2015C1045.8 19.7454 1045.24 19.3853 1044.54 19.1213C1043.87 18.8572 1043.15 18.6291 1042.38 18.4371C1041.57 18.221 1040.77 17.9809 1040.01 17.7169C1039.24 17.4288 1038.55 17.0807 1037.95 16.6726C1037.38 16.2405 1036.91 15.7243 1036.55 15.1242C1036.19 14.524 1036.01 13.7918 1036.01 12.9276C1036.01 11.9193 1036.28 11.0311 1036.84 10.2629C1037.39 9.49468 1038.13 8.89452 1039.07 8.4624C1040.03 8.03029 1041.11 7.81423 1042.31 7.81423C1042.91 7.81423 1043.56 7.89825 1044.25 8.06629C1044.95 8.21033 1045.63 8.4624 1046.31 8.8225C1046.98 9.18259 1047.58 9.67473 1048.11 10.2989C1048.32 10.515 1048.43 10.767 1048.43 11.0551C1048.43 11.3192 1048.31 11.5592 1048.07 11.7753C1047.88 11.9193 1047.65 11.9913 1047.39 11.9913C1047.15 11.9913 1046.94 11.8953 1046.78 11.7033C1046.2 11.0551 1045.51 10.563 1044.72 10.2269C1043.93 9.89078 1043.08 9.72274 1042.17 9.72274C1041.47 9.72274 1040.81 9.84277 1040.19 10.0828C1039.59 10.2989 1039.08 10.635 1038.67 11.0911C1038.26 11.5472 1038.06 12.1474 1038.06 12.8916C1038.11 13.5878 1038.35 14.1519 1038.78 14.584C1039.24 15.0162 1039.83 15.3763 1040.55 15.6643C1041.29 15.9524 1042.12 16.2165 1043.03 16.4565C1043.8 16.6486 1044.53 16.8767 1045.23 17.1407C1045.95 17.4048 1046.57 17.7409 1047.1 18.149C1047.65 18.5331 1048.08 19.0252 1048.4 19.6254C1048.73 20.2256 1048.9 20.9818 1048.9 21.894C1048.9 22.9503 1048.6 23.8625 1048 24.6307C1047.42 25.3989 1046.64 25.9871 1045.66 26.3952C1044.67 26.8033 1043.58 27.0074 1042.38 27.0074C1041.09 27.0074 1039.83 26.7553 1038.6 26.2512C1037.4 25.747 1036.33 24.9068 1035.4 23.7305ZM1052.28 23.7305C1052.08 23.4424 1051.99 23.1663 1051.99 22.9023C1052.01 22.6142 1052.17 22.3861 1052.46 22.2181C1052.65 22.05 1052.86 21.978 1053.1 22.002C1053.37 22.026 1053.61 22.1461 1053.82 22.3621C1054.47 23.2023 1055.25 23.8865 1056.16 24.4147C1057.1 24.9188 1058.21 25.1709 1059.48 25.1709C1060.15 25.1709 1060.81 25.0628 1061.46 24.8468C1062.13 24.6067 1062.68 24.2586 1063.11 23.8025C1063.55 23.3224 1063.76 22.7222 1063.76 22.002C1063.76 21.2578 1063.55 20.6577 1063.11 20.2015C1062.68 19.7454 1062.12 19.3853 1061.42 19.1213C1060.75 18.8572 1060.03 18.6291 1059.26 18.4371C1058.45 18.221 1057.65 17.9809 1056.88 17.7169C1056.12 17.4288 1055.43 17.0807 1054.83 16.6726C1054.26 16.2405 1053.79 15.7243 1053.43 15.1242C1053.07 14.524 1052.89 13.7918 1052.89 12.9276C1052.89 11.9193 1053.16 11.0311 1053.72 10.2629C1054.27 9.49468 1055.01 8.89452 1055.95 8.4624C1056.91 8.03029 1057.99 7.81423 1059.19 7.81423C1059.79 7.81423 1060.44 7.89825 1061.13 8.06629C1061.83 8.21033 1062.51 8.4624 1063.19 8.8225C1063.86 9.18259 1064.46 9.67473 1064.99 10.2989C1065.2 10.515 1065.31 10.767 1065.31 11.0551C1065.31 11.3192 1065.19 11.5592 1064.95 11.7753C1064.76 11.9193 1064.53 11.9913 1064.27 11.9913C1064.03 11.9913 1063.82 11.8953 1063.65 11.7033C1063.08 11.0551 1062.39 10.563 1061.6 10.2269C1060.81 9.89078 1059.96 9.72274 1059.05 9.72274C1058.35 9.72274 1057.69 9.84277 1057.06 10.0828C1056.46 10.2989 1055.96 10.635 1055.55 11.0911C1055.14 11.5472 1054.94 12.1474 1054.94 12.8916C1054.99 13.5878 1055.23 14.1519 1055.66 14.584C1056.12 15.0162 1056.7 15.3763 1057.43 15.6643C1058.17 15.9524 1059 16.2165 1059.91 16.4565C1060.68 16.6486 1061.41 16.8767 1062.11 17.1407C1062.83 17.4048 1063.45 17.7409 1063.98 18.149C1064.53 18.5331 1064.96 19.0252 1065.28 19.6254C1065.61 20.2256 1065.78 20.9818 1065.78 21.894C1065.78 22.9503 1065.48 23.8625 1064.88 24.6307C1064.3 25.3989 1063.52 25.9871 1062.54 26.3952C1061.55 26.8033 1060.46 27.0074 1059.26 27.0074C1057.97 27.0074 1056.7 26.7553 1055.48 26.2512C1054.28 25.747 1053.21 24.9068 1052.28 23.7305ZM1070.49 26.6473C1070.08 26.6473 1069.77 26.5152 1069.55 26.2512C1069.34 25.9871 1069.23 25.651 1069.23 25.2429V24.4867C1069.23 24.0546 1069.34 23.7185 1069.55 23.4784C1069.77 23.2384 1070.08 23.1183 1070.49 23.1183H1070.74C1071.15 23.1183 1071.46 23.2384 1071.68 23.4784C1071.89 23.7185 1072 24.0546 1072 24.4867V25.2429C1072 25.651 1071.89 25.9871 1071.68 26.2512C1071.46 26.5152 1071.15 26.6473 1070.74 26.6473H1070.49Z" fill="black"/>
</svg>
