<svg width="930" height="248" viewBox="0 0 930 248" fill="none" xmlns="http://www.w3.org/2000/svg">
<path d="M26.9339 54.0115C23.2851 54.0115 19.8763 53.3634 16.7076 52.0671C13.5389 50.7228 10.7543 48.8744 8.35382 46.5219C6.0013 44.1214 4.1529 41.3608 2.80861 38.2401C1.46432 35.1194 0.792171 31.7347 0.792171 28.0859C0.792171 24.4371 1.46432 21.0524 2.80861 17.9317C4.1529 14.811 6.0013 12.0744 8.35382 9.7219C10.7543 7.32138 13.5389 5.47297 16.7076 4.17669C19.8763 2.8324 23.2851 2.16025 26.9339 2.16025C29.2864 2.16025 31.5669 2.42431 33.7753 2.95242C35.9838 3.48054 37.9763 4.24871 39.7526 5.25692C40.3768 5.593 40.8329 6.0491 41.1209 6.62523C41.409 7.15334 41.553 7.68145 41.553 8.20957C41.553 9.21779 41.217 10.106 40.5448 10.8741C39.9207 11.5943 39.1285 11.9544 38.1683 11.9544C37.8322 11.9544 37.4721 11.9064 37.0881 11.8104C36.752 11.7143 36.4399 11.5943 36.1519 11.4503C34.8076 10.7781 33.3673 10.274 31.8309 9.93794C30.2946 9.55386 28.6622 9.36182 26.9339 9.36182C23.4771 9.36182 20.3564 10.202 17.5718 11.8824C14.7872 13.5147 12.5787 15.7472 10.9464 18.5798C9.36204 21.4124 8.56986 24.5811 8.56986 28.0859C8.56986 31.5426 9.36204 34.7113 10.9464 37.592C12.5787 40.4246 14.7872 42.6811 17.5718 44.3614C20.3564 45.9938 23.4771 46.81 26.9339 46.81C28.6142 46.81 30.3906 46.6179 32.263 46.2338C34.1354 45.8017 35.7198 45.2496 37.016 44.5775L36.4399 46.5219V32.8389L37.5922 33.8471H28.1581C27.1019 33.8471 26.2137 33.5111 25.4935 32.8389C24.8214 32.1668 24.4853 31.3026 24.4853 30.2464C24.4853 29.1901 24.8214 28.3259 25.4935 27.6538C26.2137 26.9817 27.1019 26.6456 28.1581 26.6456H40.6168C41.6251 26.6456 42.4652 27.0057 43.1374 27.7258C43.8575 28.398 44.2176 29.2621 44.2176 30.3184V46.3059C44.2176 47.074 44.0256 47.7222 43.6415 48.2503C43.2574 48.7784 42.8253 49.2105 42.3452 49.5466C40.1847 50.8909 37.7842 51.9711 35.1436 52.7873C32.5511 53.6034 29.8145 54.0115 26.9339 54.0115ZM56.4811 53.2914C55.4249 53.2914 54.5607 52.9553 53.8885 52.2832C53.2164 51.563 52.8803 50.6748 52.8803 49.6186V19.0839C52.8803 18.0277 53.2164 17.1635 53.8885 16.4914C54.5607 15.7712 55.4249 15.4111 56.4811 15.4111C57.4893 15.4111 58.3295 15.7712 59.0016 16.4914C59.7218 17.1635 60.0819 18.0277 60.0819 19.0839V27.1497L59.3617 24.053C59.7458 22.7087 60.3219 21.4604 61.0901 20.3082C61.9063 19.1559 62.8665 18.1477 63.9707 17.2835C65.075 16.4194 66.2992 15.7472 67.6435 15.2671C69.0358 14.787 70.4761 14.5469 71.9645 14.5469C73.2127 14.5469 74.293 14.883 75.2052 15.5552C76.1174 16.2273 76.5735 17.0675 76.5735 18.0757C76.5735 19.372 76.2374 20.3322 75.5652 20.9563C74.8931 21.5325 74.1489 21.8205 73.3328 21.8205C72.6126 21.8205 71.9164 21.6765 71.2443 21.3884C70.5722 21.0524 69.78 20.8843 68.8678 20.8843C67.8596 20.8843 66.8273 21.1484 65.7711 21.6765C64.7149 22.2046 63.7547 22.9968 62.8905 24.053C62.0263 25.0612 61.3301 26.2615 60.802 27.6538C60.3219 29.0461 60.0819 30.6064 60.0819 32.3348V49.6186C60.0819 50.6748 59.7218 51.563 59.0016 52.2832C58.3295 52.9553 57.4893 53.2914 56.4811 53.2914ZM99.0069 54.0115C95.022 54.0115 91.5653 53.1954 88.6366 51.563C85.708 49.8826 83.4275 47.6021 81.7952 44.7215C80.2108 41.7929 79.4186 38.4561 79.4186 34.7113C79.4186 30.4864 80.2588 26.8856 81.9392 23.909C83.6676 20.8843 85.9001 18.5798 88.6366 16.9955C91.3732 15.3631 94.2779 14.5469 97.3505 14.5469C99.7031 14.5469 101.936 15.0271 104.048 15.9873C106.16 16.8995 108.033 18.1957 109.665 19.8761C111.346 21.5085 112.666 23.4529 113.626 25.7094C114.586 27.9179 115.09 30.3424 115.138 32.983C115.09 33.9432 114.706 34.7353 113.986 35.3595C113.266 35.9836 112.426 36.2957 111.466 36.2957H83.4515L81.7231 30.1743H108.801L107.433 31.4706V29.6702C107.337 27.9899 106.785 26.5256 105.776 25.2773C104.768 23.981 103.52 22.9968 102.032 22.3246C100.543 21.6045 98.9829 21.2444 97.3505 21.2444C95.9102 21.2444 94.5179 21.4845 93.1736 21.9646C91.8774 22.3967 90.7011 23.1168 89.6449 24.125C88.6366 25.1332 87.8205 26.4775 87.1963 28.1579C86.6202 29.7903 86.3321 31.8307 86.3321 34.2792C86.3321 36.9198 86.8843 39.2243 87.9885 41.1927C89.0927 43.1612 90.5811 44.6975 92.4535 45.8017C94.3259 46.858 96.3903 47.3861 98.6468 47.3861C100.423 47.3861 101.888 47.2181 103.04 46.882C104.192 46.4979 105.152 46.0418 105.92 45.5137C106.689 44.9856 107.361 44.4815 107.937 44.0014C108.657 43.5693 109.377 43.3532 110.097 43.3532C110.962 43.3532 111.682 43.6653 112.258 44.2894C112.834 44.8655 113.122 45.5617 113.122 46.3779C113.122 47.4341 112.594 48.3943 111.538 49.2585C110.241 50.5068 108.441 51.611 106.136 52.5712C103.88 53.5314 101.503 54.0115 99.0069 54.0115ZM154.598 14.835C155.655 14.835 156.519 15.1951 157.191 15.9152C157.863 16.5874 158.199 17.4516 158.199 18.5078V49.6186C158.199 50.6748 157.863 51.563 157.191 52.2832C156.519 52.9553 155.655 53.2914 154.598 53.2914C153.59 53.2914 152.726 52.9553 152.006 52.2832C151.334 51.563 150.998 50.6748 150.998 49.6186V44.4334L152.51 44.6495C152.51 45.5137 152.15 46.4739 151.43 47.5301C150.758 48.5863 149.821 49.6186 148.621 50.6268C147.421 51.587 146.005 52.4032 144.372 53.0753C142.74 53.6995 140.988 54.0115 139.115 54.0115C135.802 54.0115 132.826 53.1713 130.185 51.491C127.545 49.7626 125.456 47.4101 123.92 44.4334C122.383 41.4568 121.615 38.0721 121.615 34.2792C121.615 30.3904 122.383 26.9816 123.92 24.053C125.456 21.0764 127.521 18.7479 130.113 17.0675C132.754 15.3871 135.682 14.5469 138.899 14.5469C140.964 14.5469 142.86 14.883 144.588 15.5552C146.365 16.2273 147.901 17.0915 149.197 18.1477C150.494 19.204 151.478 20.3322 152.15 21.5325C152.87 22.6847 153.23 23.789 153.23 24.8452L150.998 25.0612V18.5078C150.998 17.4996 151.334 16.6354 152.006 15.9152C152.726 15.1951 153.59 14.835 154.598 14.835ZM139.907 47.3861C142.164 47.3861 144.156 46.81 145.885 45.6577C147.613 44.5055 148.957 42.9451 149.917 40.9767C150.878 38.9603 151.358 36.7278 151.358 34.2792C151.358 31.7827 150.878 29.5502 149.917 27.5818C148.957 25.6134 147.613 24.053 145.885 22.9008C144.156 21.7485 142.164 21.1724 139.907 21.1724C137.699 21.1724 135.73 21.7485 134.002 22.9008C132.322 24.053 130.977 25.6134 129.969 27.5818C129.009 29.5502 128.529 31.7827 128.529 34.2792C128.529 36.7278 129.009 38.9603 129.969 40.9767C130.977 42.9451 132.322 44.5055 134.002 45.6577C135.73 46.81 137.699 47.3861 139.907 47.3861ZM167.784 15.8432H184.708C185.668 15.8432 186.46 16.1793 187.084 16.8514C187.756 17.4756 188.093 18.2678 188.093 19.228C188.093 20.1402 187.756 20.9083 187.084 21.5325C186.46 22.1566 185.668 22.4687 184.708 22.4687H167.784C166.824 22.4687 166.008 22.1566 165.336 21.5325C164.711 20.8603 164.399 20.0681 164.399 19.1559C164.399 18.1957 164.711 17.4036 165.336 16.7794C166.008 16.1553 166.824 15.8432 167.784 15.8432ZM175.346 6.48119C176.402 6.48119 177.266 6.84127 177.938 7.56143C178.61 8.23357 178.947 9.09776 178.947 10.154V43.5693C178.947 44.4334 179.091 45.1296 179.379 45.6577C179.667 46.1858 180.051 46.5459 180.531 46.7379C181.059 46.93 181.587 47.026 182.115 47.026C182.643 47.026 183.099 46.93 183.484 46.7379C183.916 46.5459 184.42 46.4499 184.996 46.4499C185.572 46.4499 186.1 46.7139 186.58 47.2421C187.06 47.7702 187.3 48.4903 187.3 49.4025C187.3 50.5548 186.676 51.491 185.428 52.2111C184.18 52.9313 182.835 53.2914 181.395 53.2914C180.579 53.2914 179.619 53.2194 178.514 53.0753C177.41 52.9313 176.33 52.5712 175.274 51.9951C174.266 51.419 173.425 50.5068 172.753 49.2585C172.081 47.9622 171.745 46.1618 171.745 43.8573V10.154C171.745 9.09776 172.081 8.23357 172.753 7.56143C173.473 6.84127 174.338 6.48119 175.346 6.48119ZM235.123 14.763C238.676 14.763 241.413 15.6512 243.333 17.4276C245.253 19.1559 246.526 21.5085 247.15 24.4851L245.998 24.125L246.502 22.9728C247.126 21.7245 248.062 20.4762 249.31 19.228C250.607 17.9317 252.143 16.8755 253.919 16.0593C255.696 15.1951 257.592 14.763 259.609 14.763C262.921 14.763 265.49 15.4832 267.314 16.9235C269.139 18.3158 270.411 20.2122 271.131 22.6127C271.851 24.9652 272.211 27.6058 272.211 30.5344V49.6186C272.211 50.6748 271.875 51.563 271.203 52.2832C270.531 52.9553 269.667 53.2914 268.611 53.2914C267.602 53.2914 266.738 52.9553 266.018 52.2832C265.346 51.563 265.01 50.6748 265.01 49.6186V30.6064C265.01 28.9261 264.77 27.3897 264.29 25.9974C263.857 24.6051 263.065 23.5009 261.913 22.6847C260.809 21.8205 259.272 21.3884 257.304 21.3884C255.432 21.3884 253.751 21.8205 252.263 22.6847C250.823 23.5009 249.694 24.6051 248.878 25.9974C248.062 27.3897 247.654 28.9261 247.654 30.6064V49.6186C247.654 50.6748 247.318 51.563 246.646 52.2832C245.974 52.9553 245.109 53.2914 244.053 53.2914C242.997 53.2914 242.133 52.9553 241.461 52.2832C240.788 51.563 240.452 50.6748 240.452 49.6186V30.5344C240.452 28.8541 240.212 27.3177 239.732 25.9254C239.3 24.5331 238.532 23.4289 237.428 22.6127C236.324 21.7965 234.787 21.3884 232.819 21.3884C230.946 21.3884 229.29 21.7965 227.85 22.6127C226.409 23.4289 225.281 24.5331 224.465 25.9254C223.697 27.3177 223.313 28.8541 223.313 30.5344V49.6186C223.313 50.6748 222.953 51.563 222.232 52.2832C221.56 52.9553 220.72 53.2914 219.712 53.2914C218.656 53.2914 217.791 52.9553 217.119 52.2832C216.447 51.563 216.111 50.6748 216.111 49.6186V19.0839C216.111 18.0277 216.447 17.1635 217.119 16.4914C217.791 15.7712 218.656 15.4111 219.712 15.4111C220.72 15.4111 221.56 15.7712 222.232 16.4914C222.953 17.1635 223.313 18.0277 223.313 19.0839V23.3329L221.944 24.125C222.28 23.0688 222.833 21.9886 223.601 20.8843C224.369 19.7801 225.329 18.7719 226.481 17.8597C227.682 16.9475 229.002 16.2033 230.442 15.6272C231.883 15.0511 233.443 14.763 235.123 14.763ZM313.328 14.835C314.385 14.835 315.249 15.1951 315.921 15.9152C316.593 16.5874 316.929 17.4516 316.929 18.5078V49.6186C316.929 50.6748 316.593 51.563 315.921 52.2832C315.249 52.9553 314.385 53.2914 313.328 53.2914C312.32 53.2914 311.456 52.9553 310.736 52.2832C310.064 51.563 309.728 50.6748 309.728 49.6186V44.4334L311.24 44.6495C311.24 45.5137 310.88 46.4739 310.16 47.5301C309.487 48.5863 308.551 49.6186 307.351 50.6268C306.151 51.587 304.734 52.4032 303.102 53.0753C301.47 53.6995 299.717 54.0115 297.845 54.0115C294.532 54.0115 291.556 53.1713 288.915 51.491C286.274 49.7626 284.186 47.4101 282.65 44.4334C281.113 41.4568 280.345 38.0721 280.345 34.2792C280.345 30.3904 281.113 26.9816 282.65 24.053C284.186 21.0764 286.25 18.7479 288.843 17.0675C291.484 15.3871 294.412 14.5469 297.629 14.5469C299.693 14.5469 301.59 14.883 303.318 15.5552C305.095 16.2273 306.631 17.0915 307.927 18.1477C309.223 19.204 310.208 20.3322 310.88 21.5325C311.6 22.6847 311.96 23.789 311.96 24.8452L309.728 25.0612V18.5078C309.728 17.4996 310.064 16.6354 310.736 15.9152C311.456 15.1951 312.32 14.835 313.328 14.835ZM298.637 47.3861C300.894 47.3861 302.886 46.81 304.614 45.6577C306.343 44.5055 307.687 42.9451 308.647 40.9767C309.608 38.9603 310.088 36.7278 310.088 34.2792C310.088 31.7827 309.608 29.5502 308.647 27.5818C307.687 25.6134 306.343 24.053 304.614 22.9008C302.886 21.7485 300.894 21.1724 298.637 21.1724C296.429 21.1724 294.46 21.7485 292.732 22.9008C291.051 24.053 289.707 25.6134 288.699 27.5818C287.739 29.5502 287.259 31.7827 287.259 34.2792C287.259 36.7278 287.739 38.9603 288.699 40.9767C289.707 42.9451 291.051 44.5055 292.732 45.6577C294.46 46.81 296.429 47.3861 298.637 47.3861ZM330.619 53.2914C329.563 53.2914 328.698 52.9553 328.026 52.2832C327.354 51.563 327.018 50.6748 327.018 49.6186V19.0839C327.018 18.0277 327.354 17.1635 328.026 16.4914C328.698 15.7712 329.563 15.4111 330.619 15.4111C331.627 15.4111 332.467 15.7712 333.139 16.4914C333.86 17.1635 334.22 18.0277 334.22 19.0839V27.1497L333.499 24.053C333.884 22.7087 334.46 21.4604 335.228 20.3082C336.044 19.1559 337.004 18.1477 338.108 17.2835C339.213 16.4194 340.437 15.7472 341.781 15.2671C343.174 14.787 344.614 14.5469 346.102 14.5469C347.35 14.5469 348.431 14.883 349.343 15.5552C350.255 16.2273 350.711 17.0675 350.711 18.0757C350.711 19.372 350.375 20.3322 349.703 20.9563C349.031 21.5325 348.287 21.8205 347.47 21.8205C346.75 21.8205 346.054 21.6765 345.382 21.3884C344.71 21.0524 343.918 20.8843 343.006 20.8843C341.997 20.8843 340.965 21.1484 339.909 21.6765C338.853 22.2046 337.892 22.9968 337.028 24.053C336.164 25.0612 335.468 26.2615 334.94 27.6538C334.46 29.0461 334.22 30.6064 334.22 32.3348V49.6186C334.22 50.6748 333.86 51.563 333.139 52.2832C332.467 52.9553 331.627 53.2914 330.619 53.2914ZM361.295 53.2914C360.287 53.2914 359.423 52.9553 358.703 52.2832C358.031 51.563 357.694 50.6748 357.694 49.6186V3.67258C357.694 2.61635 358.031 1.75216 358.703 1.08002C359.423 0.359862 360.287 -0.000215577 361.295 -0.000215577C362.351 -0.000215577 363.216 0.359862 363.888 1.08002C364.56 1.75216 364.896 2.61635 364.896 3.67258V49.6186C364.896 50.6748 364.56 51.563 363.888 52.2832C363.216 52.9553 362.351 53.2914 361.295 53.2914ZM384.772 15.2671C385.685 15.2671 386.477 15.6512 387.149 16.4194C387.821 17.1875 388.157 17.9557 388.157 18.7239C388.157 19.6841 387.701 20.5723 386.789 21.3884L364.248 41.5528L363.96 33.271L382.108 16.4194C382.876 15.6512 383.764 15.2671 384.772 15.2671ZM385.637 53.2194C384.628 53.2194 383.764 52.8113 383.044 51.9951L368.641 36.7998L374.114 31.7587L388.157 46.954C388.925 47.7702 389.309 48.6824 389.309 49.6906C389.309 50.7468 388.877 51.611 388.013 52.2832C387.197 52.9073 386.405 53.2194 385.637 53.2194ZM413.302 54.0115C409.317 54.0115 405.86 53.1954 402.932 51.563C400.003 49.8826 397.722 47.6021 396.09 44.7215C394.506 41.7929 393.714 38.4561 393.714 34.7113C393.714 30.4864 394.554 26.8856 396.234 23.909C397.962 20.8843 400.195 18.5798 402.932 16.9955C405.668 15.3631 408.573 14.5469 411.645 14.5469C413.998 14.5469 416.23 15.0271 418.343 15.9873C420.455 16.8995 422.328 18.1957 423.96 19.8761C425.64 21.5085 426.961 23.4529 427.921 25.7094C428.881 27.9179 429.385 30.3424 429.433 32.983C429.385 33.9432 429.001 34.7353 428.281 35.3595C427.561 35.9836 426.721 36.2957 425.761 36.2957H397.746L396.018 30.1743H423.096L421.728 31.4706V29.6702C421.632 27.9899 421.079 26.5256 420.071 25.2773C419.063 23.981 417.815 22.9968 416.326 22.3246C414.838 21.6045 413.278 21.2444 411.645 21.2444C410.205 21.2444 408.813 21.4845 407.469 21.9646C406.172 22.3967 404.996 23.1168 403.94 24.125C402.932 25.1332 402.115 26.4775 401.491 28.1579C400.915 29.7903 400.627 31.8307 400.627 34.2792C400.627 36.9198 401.179 39.2243 402.283 41.1927C403.388 43.1612 404.876 44.6975 406.748 45.8017C408.621 46.858 410.685 47.3861 412.942 47.3861C414.718 47.3861 416.182 47.2181 417.335 46.882C418.487 46.4979 419.447 46.0418 420.215 45.5137C420.983 44.9856 421.656 44.4815 422.232 44.0014C422.952 43.5693 423.672 43.3532 424.392 43.3532C425.256 43.3532 425.977 43.6653 426.553 44.2894C427.129 44.8655 427.417 45.5617 427.417 46.3779C427.417 47.4341 426.889 48.3943 425.833 49.2585C424.536 50.5068 422.736 51.611 420.431 52.5712C418.175 53.5314 415.798 54.0115 413.302 54.0115ZM437.069 15.8432H453.993C454.953 15.8432 455.745 16.1793 456.369 16.8514C457.042 17.4756 457.378 18.2678 457.378 19.228C457.378 20.1402 457.042 20.9083 456.369 21.5325C455.745 22.1566 454.953 22.4687 453.993 22.4687H437.069C436.109 22.4687 435.293 22.1566 434.621 21.5325C433.997 20.8603 433.684 20.0681 433.684 19.1559C433.684 18.1957 433.997 17.4036 434.621 16.7794C435.293 16.1553 436.109 15.8432 437.069 15.8432ZM444.631 6.48119C445.687 6.48119 446.551 6.84127 447.223 7.56143C447.896 8.23357 448.232 9.09776 448.232 10.154V43.5693C448.232 44.4334 448.376 45.1296 448.664 45.6577C448.952 46.1858 449.336 46.5459 449.816 46.7379C450.344 46.93 450.872 47.026 451.4 47.026C451.928 47.026 452.385 46.93 452.769 46.7379C453.201 46.5459 453.705 46.4499 454.281 46.4499C454.857 46.4499 455.385 46.7139 455.865 47.2421C456.345 47.7702 456.585 48.4903 456.585 49.4025C456.585 50.5548 455.961 51.491 454.713 52.2111C453.465 52.9313 452.12 53.2914 450.68 53.2914C449.864 53.2914 448.904 53.2194 447.8 53.0753C446.695 52.9313 445.615 52.5712 444.559 51.9951C443.551 51.419 442.71 50.5068 442.038 49.2585C441.366 47.9622 441.03 46.1618 441.03 43.8573V10.154C441.03 9.09776 441.366 8.23357 442.038 7.56143C442.758 6.84127 443.623 6.48119 444.631 6.48119ZM482.645 54.0115C478.66 54.0115 475.203 53.1954 472.275 51.563C469.346 49.8826 467.066 47.6021 465.433 44.7215C463.849 41.7929 463.057 38.4561 463.057 34.7113C463.057 30.4864 463.897 26.8856 465.577 23.909C467.306 20.8843 469.538 18.5798 472.275 16.9955C475.011 15.3631 477.916 14.5469 480.989 14.5469C483.341 14.5469 485.574 15.0271 487.686 15.9873C489.799 16.8995 491.671 18.1957 493.303 19.8761C494.984 21.5085 496.304 23.4529 497.264 25.7094C498.224 27.9179 498.729 30.3424 498.777 32.983C498.729 33.9432 498.344 34.7353 497.624 35.3595C496.904 35.9836 496.064 36.2957 495.104 36.2957H467.09L465.361 30.1743H492.439L491.071 31.4706V29.6702C490.975 27.9899 490.423 26.5256 489.414 25.2773C488.406 23.981 487.158 22.9968 485.67 22.3246C484.181 21.6045 482.621 21.2444 480.989 21.2444C479.548 21.2444 478.156 21.4845 476.812 21.9646C475.515 22.3967 474.339 23.1168 473.283 24.125C472.275 25.1332 471.459 26.4775 470.834 28.1579C470.258 29.7903 469.97 31.8307 469.97 34.2792C469.97 36.9198 470.522 39.2243 471.627 41.1927C472.731 43.1612 474.219 44.6975 476.092 45.8017C477.964 46.858 480.028 47.3861 482.285 47.3861C484.061 47.3861 485.526 47.2181 486.678 46.882C487.83 46.4979 488.79 46.0418 489.559 45.5137C490.327 44.9856 490.999 44.4815 491.575 44.0014C492.295 43.5693 493.015 43.3532 493.735 43.3532C494.6 43.3532 495.32 43.6653 495.896 44.2894C496.472 44.8655 496.76 45.5617 496.76 46.3779C496.76 47.4341 496.232 48.3943 495.176 49.2585C493.879 50.5068 492.079 51.611 489.775 52.5712C487.518 53.5314 485.142 54.0115 482.645 54.0115ZM510.517 53.2914C509.461 53.2914 508.597 52.9553 507.925 52.2832C507.253 51.563 506.917 50.6748 506.917 49.6186V19.0839C506.917 18.0277 507.253 17.1635 507.925 16.4914C508.597 15.7712 509.461 15.4111 510.517 15.4111C511.526 15.4111 512.366 15.7712 513.038 16.4914C513.758 17.1635 514.118 18.0277 514.118 19.0839V27.1497L513.398 24.053C513.782 22.7087 514.358 21.4604 515.126 20.3082C515.942 19.1559 516.903 18.1477 518.007 17.2835C519.111 16.4194 520.335 15.7472 521.68 15.2671C523.072 14.787 524.512 14.5469 526.001 14.5469C527.249 14.5469 528.329 14.883 529.241 15.5552C530.154 16.2273 530.61 17.0675 530.61 18.0757C530.61 19.372 530.274 20.3322 529.601 20.9563C528.929 21.5325 528.185 21.8205 527.369 21.8205C526.649 21.8205 525.953 21.6765 525.281 21.3884C524.608 21.0524 523.816 20.8843 522.904 20.8843C521.896 20.8843 520.864 21.1484 519.807 21.6765C518.751 22.2046 517.791 22.9968 516.927 24.053C516.063 25.0612 515.366 26.2615 514.838 27.6538C514.358 29.0461 514.118 30.6064 514.118 32.3348V49.6186C514.118 50.6748 513.758 51.563 513.038 52.2832C512.366 52.9553 511.526 53.2914 510.517 53.2914ZM534.784 47.3861C534.352 46.7139 534.16 45.9458 534.208 45.0816C534.256 44.1694 534.76 43.4012 535.721 42.7771C536.393 42.345 537.089 42.177 537.809 42.273C538.577 42.321 539.297 42.6811 539.969 43.3532C541.314 44.8415 542.802 46.0178 544.434 46.882C546.115 47.7462 548.131 48.1783 550.484 48.1783C551.444 48.1302 552.428 47.9862 553.436 47.7462C554.445 47.4581 555.309 46.978 556.029 46.3059C556.749 45.5857 557.109 44.5535 557.109 43.2092C557.109 42.0089 556.725 41.0487 555.957 40.3286C555.189 39.6084 554.181 39.0323 552.932 38.6002C551.684 38.1201 550.34 37.688 548.899 37.3039C547.363 36.8718 545.803 36.3917 544.218 35.8636C542.682 35.3355 541.29 34.6633 540.041 33.8471C538.793 32.983 537.761 31.8787 536.945 30.5344C536.177 29.1901 535.793 27.5338 535.793 25.5653C535.793 23.3089 536.417 21.3644 537.665 19.7321C538.961 18.0997 540.618 16.8274 542.634 15.9152C544.698 15.003 546.931 14.5469 549.332 14.5469C550.724 14.5469 552.188 14.739 553.724 15.1231C555.261 15.4591 556.749 16.0113 558.189 16.7794C559.63 17.5476 560.878 18.5558 561.934 19.8041C562.414 20.4282 562.678 21.1724 562.726 22.0366C562.822 22.9008 562.438 23.6689 561.574 24.3411C560.998 24.8212 560.302 25.0372 559.486 24.9892C558.67 24.9412 557.997 24.6771 557.469 24.197C556.557 23.0448 555.381 22.1566 553.941 21.5325C552.5 20.8603 550.868 20.5242 549.043 20.5242C548.131 20.5242 547.171 20.6683 546.163 20.9563C545.203 21.1964 544.386 21.6525 543.714 22.3246C543.042 22.9968 542.706 23.981 542.706 25.2773C542.706 26.4775 543.09 27.4377 543.858 28.1579C544.674 28.8781 545.731 29.4782 547.027 29.9583C548.323 30.4384 549.74 30.8705 551.276 31.2546C552.764 31.6387 554.229 32.0948 555.669 32.6229C557.157 33.151 558.477 33.8471 559.63 34.7113C560.83 35.5275 561.79 36.6077 562.51 37.952C563.279 39.2483 563.663 40.9047 563.663 42.9211C563.663 45.2736 562.966 47.2901 561.574 48.9704C560.23 50.6028 558.501 51.8511 556.389 52.7152C554.325 53.5794 552.14 54.0115 549.836 54.0115C547.099 54.0115 544.362 53.5314 541.626 52.5712C538.937 51.563 536.657 49.8346 534.784 47.3861ZM589.218 47.3861C588.786 46.7139 588.594 45.9458 588.642 45.0816C588.69 44.1694 589.194 43.4012 590.154 42.7771C590.826 42.345 591.523 42.177 592.243 42.273C593.011 42.321 593.731 42.6811 594.403 43.3532C595.747 44.8415 597.236 46.0178 598.868 46.882C600.549 47.7462 602.565 48.1783 604.917 48.1783C605.878 48.1302 606.862 47.9862 607.87 47.7462C608.878 47.4581 609.743 46.978 610.463 46.3059C611.183 45.5857 611.543 44.5535 611.543 43.2092C611.543 42.0089 611.159 41.0487 610.391 40.3286C609.622 39.6084 608.614 39.0323 607.366 38.6002C606.118 38.1201 604.773 37.688 603.333 37.3039C601.797 36.8718 600.236 36.3917 598.652 35.8636C597.116 35.3355 595.723 34.6633 594.475 33.8471C593.227 32.983 592.195 31.8787 591.379 30.5344C590.61 29.1901 590.226 27.5338 590.226 25.5653C590.226 23.3089 590.85 21.3644 592.099 19.7321C593.395 18.0997 595.051 16.8274 597.068 15.9152C599.132 15.003 601.365 14.5469 603.765 14.5469C605.158 14.5469 606.622 14.739 608.158 15.1231C609.695 15.4591 611.183 16.0113 612.623 16.7794C614.063 17.5476 615.312 18.5558 616.368 19.8041C616.848 20.4282 617.112 21.1724 617.16 22.0366C617.256 22.9008 616.872 23.6689 616.008 24.3411C615.432 24.8212 614.736 25.0372 613.919 24.9892C613.103 24.9412 612.431 24.6771 611.903 24.197C610.991 23.0448 609.815 22.1566 608.374 21.5325C606.934 20.8603 605.302 20.5242 603.477 20.5242C602.565 20.5242 601.605 20.6683 600.597 20.9563C599.636 21.1964 598.82 21.6525 598.148 22.3246C597.476 22.9968 597.14 23.981 597.14 25.2773C597.14 26.4775 597.524 27.4377 598.292 28.1579C599.108 28.8781 600.164 29.4782 601.461 29.9583C602.757 30.4384 604.173 30.8705 605.71 31.2546C607.198 31.6387 608.662 32.0948 610.103 32.6229C611.591 33.151 612.911 33.8471 614.063 34.7113C615.264 35.5275 616.224 36.6077 616.944 37.952C617.712 39.2483 618.096 40.9047 618.096 42.9211C618.096 45.2736 617.4 47.2901 616.008 48.9704C614.664 50.6028 612.935 51.8511 610.823 52.7152C608.758 53.5794 606.574 54.0115 604.269 54.0115C601.533 54.0115 598.796 53.5314 596.06 52.5712C593.371 51.563 591.09 49.8346 589.218 47.3861ZM644.925 14.763C648.238 14.763 650.806 15.4832 652.631 16.9235C654.455 18.3158 655.727 20.2122 656.447 22.6127C657.216 25.0132 657.6 27.6538 657.6 30.5344V49.6186C657.6 50.6748 657.24 51.563 656.519 52.2832C655.847 52.9553 655.007 53.2914 653.999 53.2914C652.943 53.2914 652.079 52.9553 651.406 52.2832C650.734 51.563 650.398 50.6748 650.398 49.6186V30.5344C650.398 28.8541 650.158 27.3177 649.678 25.9254C649.246 24.5331 648.454 23.4289 647.301 22.6127C646.197 21.7965 644.637 21.3884 642.62 21.3884C640.748 21.3884 639.068 21.7965 637.579 22.6127C636.139 23.4289 635.011 24.5331 634.195 25.9254C633.426 27.3177 633.042 28.8541 633.042 30.5344V49.6186C633.042 50.6748 632.682 51.563 631.962 52.2832C631.29 52.9553 630.45 53.2914 629.442 53.2914C628.385 53.2914 627.521 52.9553 626.849 52.2832C626.177 51.563 625.841 50.6748 625.841 49.6186V3.67258C625.841 2.61635 626.177 1.75216 626.849 1.08002C627.521 0.359862 628.385 -0.000215577 629.442 -0.000215577C630.45 -0.000215577 631.29 0.359862 631.962 1.08002C632.682 1.75216 633.042 2.61635 633.042 3.67258V23.3329L631.746 24.053C632.082 22.9968 632.634 21.9165 633.402 20.8123C634.219 19.7081 635.203 18.6998 636.355 17.7877C637.555 16.8755 638.876 16.1553 640.316 15.6272C641.756 15.0511 643.293 14.763 644.925 14.763ZM703.911 34.3513C703.911 38.1921 703.071 41.6008 701.391 44.5775C699.711 47.5061 697.43 49.8106 694.549 51.491C691.669 53.1713 688.428 54.0115 684.827 54.0115C681.226 54.0115 677.986 53.1713 675.105 51.491C672.225 49.8106 669.92 47.5061 668.192 44.5775C666.511 41.6008 665.671 38.1921 665.671 34.3513C665.671 30.4624 666.511 27.0537 668.192 24.125C669.92 21.1484 672.225 18.8199 675.105 17.1395C677.986 15.4111 681.226 14.5469 684.827 14.5469C688.428 14.5469 691.669 15.4111 694.549 17.1395C697.43 18.8199 699.711 21.1484 701.391 24.125C703.071 27.0537 703.911 30.4624 703.911 34.3513ZM696.71 34.3513C696.71 31.7107 696.182 29.4302 695.126 27.5098C694.069 25.5413 692.629 24.005 690.805 22.9008C689.028 21.7485 687.036 21.1724 684.827 21.1724C682.619 21.1724 680.602 21.7485 678.778 22.9008C676.954 24.005 675.513 25.5413 674.457 27.5098C673.401 29.4302 672.873 31.7107 672.873 34.3513C672.873 36.8958 673.401 39.1523 674.457 41.1207C675.513 43.0892 676.954 44.6255 678.778 45.7297C680.602 46.834 682.619 47.3861 684.827 47.3861C687.036 47.3861 689.028 46.834 690.805 45.7297C692.629 44.6255 694.069 43.0892 695.126 41.1207C696.182 39.1523 696.71 36.8958 696.71 34.3513ZM740.293 15.4111C741.301 15.4111 742.141 15.7712 742.813 16.4914C743.534 17.1635 743.894 18.0277 743.894 19.0839V38.0241C743.894 43.0171 742.501 46.93 739.717 49.7626C736.932 52.5472 732.995 53.9395 727.906 53.9395C722.865 53.9395 718.952 52.5472 716.168 49.7626C713.431 46.93 712.063 43.0171 712.063 38.0241V19.0839C712.063 18.0277 712.399 17.1635 713.071 16.4914C713.743 15.7712 714.607 15.4111 715.663 15.4111C716.672 15.4111 717.512 15.7712 718.184 16.4914C718.904 17.1635 719.264 18.0277 719.264 19.0839V38.0241C719.264 41.1447 719.984 43.4732 721.425 45.0096C722.913 46.5459 725.074 47.3141 727.906 47.3141C730.787 47.3141 732.971 46.5459 734.46 45.0096C735.948 43.4732 736.692 41.1447 736.692 38.0241V19.0839C736.692 18.0277 737.028 17.1635 737.7 16.4914C738.372 15.7712 739.237 15.4111 740.293 15.4111ZM761.685 49.6186C761.685 50.6748 761.325 51.563 760.605 52.2832C759.933 52.9553 759.093 53.2914 758.085 53.2914C757.076 53.2914 756.212 52.9553 755.492 52.2832C754.82 51.563 754.484 50.6748 754.484 49.6186V3.67258C754.484 2.61635 754.844 1.75216 755.564 1.08002C756.284 0.359862 757.148 -0.000215577 758.157 -0.000215577C759.213 -0.000215577 760.053 0.359862 760.677 1.08002C761.349 1.75216 761.685 2.61635 761.685 3.67258V49.6186ZM802.739 -0.000215577C803.796 -0.000215577 804.66 0.335857 805.332 1.008C806.004 1.68015 806.34 2.56834 806.34 3.67258V49.6186C806.34 50.6748 806.004 51.563 805.332 52.2832C804.66 52.9553 803.796 53.2914 802.739 53.2914C801.731 53.2914 800.867 52.9553 800.147 52.2832C799.475 51.563 799.139 50.6748 799.139 49.6186V44.4334L800.651 44.5055C800.651 45.3696 800.291 46.3539 799.571 47.4581C798.899 48.5143 797.962 49.5466 796.762 50.5548C795.562 51.563 794.146 52.4032 792.513 53.0753C790.881 53.6995 789.128 54.0115 787.256 54.0115C783.943 54.0115 780.967 53.1713 778.326 51.491C775.686 49.7626 773.597 47.4341 772.061 44.5055C770.524 41.5288 769.756 38.1201 769.756 34.2792C769.756 30.4384 770.524 27.0537 772.061 24.125C773.597 21.1484 775.662 18.8199 778.254 17.1395C780.895 15.4111 783.823 14.5469 787.04 14.5469C789.056 14.5469 790.929 14.883 792.657 15.5552C794.434 16.2273 795.97 17.0915 797.266 18.1477C798.563 19.204 799.571 20.3322 800.291 21.5325C801.011 22.6847 801.371 23.789 801.371 24.8452L799.139 25.0612V3.67258C799.139 2.61635 799.475 1.75216 800.147 1.08002C800.867 0.359862 801.731 -0.000215577 802.739 -0.000215577ZM788.048 47.3861C790.353 47.3861 792.345 46.81 794.026 45.6577C795.754 44.5055 797.098 42.9451 798.058 40.9767C799.019 39.0083 799.499 36.7758 799.499 34.2792C799.499 31.7827 799.019 29.5502 798.058 27.5818C797.098 25.6134 795.754 24.053 794.026 22.9008C792.297 21.7485 790.305 21.1724 788.048 21.1724C785.84 21.1724 783.871 21.7485 782.143 22.9008C780.463 24.053 779.118 25.6134 778.11 27.5818C777.15 29.5502 776.67 31.7827 776.67 34.2792C776.67 36.7758 777.15 39.0083 778.11 40.9767C779.118 42.9451 780.463 44.5055 782.143 45.6577C783.871 46.81 785.84 47.3861 788.048 47.3861ZM835.945 14.5469C839.354 14.5469 841.995 15.2671 843.867 16.7074C845.74 18.0997 847.036 19.9961 847.756 22.3967C848.524 24.7492 848.908 27.3897 848.908 30.3184V49.6186C848.908 50.6748 848.548 51.563 847.828 52.2832C847.156 52.9553 846.316 53.2914 845.307 53.2914C844.251 53.2914 843.387 52.9553 842.715 52.2832C842.043 51.563 841.707 50.6748 841.707 49.6186V30.3904C841.707 28.662 841.467 27.1257 840.986 25.7814C840.506 24.3891 839.666 23.2848 838.466 22.4687C837.314 21.6045 835.681 21.1724 833.569 21.1724C831.6 21.1724 829.872 21.6045 828.384 22.4687C826.895 23.2848 825.719 24.3891 824.855 25.7814C824.039 27.1257 823.631 28.662 823.631 30.3904V49.6186C823.631 50.6748 823.271 51.563 822.55 52.2832C821.878 52.9553 821.038 53.2914 820.03 53.2914C818.974 53.2914 818.11 52.9553 817.437 52.2832C816.765 51.563 816.429 50.6748 816.429 49.6186V19.0839C816.429 18.0277 816.765 17.1635 817.437 16.4914C818.11 15.7712 818.974 15.4111 820.03 15.4111C821.038 15.4111 821.878 15.7712 822.55 16.4914C823.271 17.1635 823.631 18.0277 823.631 19.0839V23.1168L822.334 23.837C822.67 22.7807 823.247 21.7245 824.063 20.6683C824.927 19.564 825.959 18.5558 827.159 17.6436C828.36 16.6834 829.704 15.9392 831.192 15.4111C832.681 14.835 834.265 14.5469 835.945 14.5469ZM857.971 5.83305C858.163 3.86462 859.219 2.88041 861.14 2.88041H863.444C864.548 2.88041 865.293 3.19248 865.677 3.81661C866.109 4.44075 866.157 5.25693 865.821 6.26514L860.996 21.5325C860.515 22.9248 859.603 23.6209 858.259 23.6209C856.963 23.6209 856.387 22.7567 856.531 21.0284L857.971 5.83305ZM873.242 15.8432H890.166C891.126 15.8432 891.918 16.1793 892.542 16.8514C893.215 17.4756 893.551 18.2678 893.551 19.228C893.551 20.1402 893.215 20.9083 892.542 21.5325C891.918 22.1566 891.126 22.4687 890.166 22.4687H873.242C872.282 22.4687 871.466 22.1566 870.794 21.5325C870.17 20.8603 869.857 20.0681 869.857 19.1559C869.857 18.1957 870.17 17.4036 870.794 16.7794C871.466 16.1553 872.282 15.8432 873.242 15.8432ZM880.804 6.48119C881.86 6.48119 882.724 6.84127 883.396 7.56143C884.069 8.23357 884.405 9.09776 884.405 10.154V43.5693C884.405 44.4334 884.549 45.1296 884.837 45.6577C885.125 46.1858 885.509 46.5459 885.989 46.7379C886.517 46.93 887.045 47.026 887.573 47.026C888.101 47.026 888.558 46.93 888.942 46.7379C889.374 46.5459 889.878 46.4499 890.454 46.4499C891.03 46.4499 891.558 46.7139 892.038 47.2421C892.518 47.7702 892.758 48.4903 892.758 49.4025C892.758 50.5548 892.134 51.491 890.886 52.2111C889.638 52.9313 888.293 53.2914 886.853 53.2914C886.037 53.2914 885.077 53.2194 883.973 53.0753C882.868 52.9313 881.788 52.5712 880.732 51.9951C879.724 51.419 878.883 50.5068 878.211 49.2585C877.539 47.9622 877.203 46.1618 877.203 43.8573V10.154C877.203 9.09776 877.539 8.23357 878.211 7.56143C878.931 6.84127 879.796 6.48119 880.804 6.48119ZM10.5143 139.638C10.5143 140.694 10.1542 141.583 9.43405 142.303C8.7619 142.975 7.92172 143.311 6.9135 143.311C5.90528 143.311 5.0411 142.975 4.32094 142.303C3.64879 141.583 3.31272 140.694 3.31272 139.638V93.6922C3.31272 92.6359 3.6728 91.7717 4.39295 91.0996C5.11311 90.3794 5.9773 90.0194 6.98552 90.0194C8.04175 90.0194 8.88193 90.3794 9.50607 91.0996C10.1782 91.7717 10.5143 92.6359 10.5143 93.6922V139.638ZM56.8254 124.371C56.8254 128.212 55.9852 131.62 54.3049 134.597C52.6245 137.526 50.344 139.83 47.4634 141.511C44.5828 143.191 41.3421 144.031 37.7413 144.031C34.1405 144.031 30.8998 143.191 28.0192 141.511C25.1385 139.83 22.834 137.526 21.1057 134.597C19.4253 131.62 18.5851 128.212 18.5851 124.371C18.5851 120.482 19.4253 117.073 21.1057 114.145C22.834 111.168 25.1385 108.839 28.0192 107.159C30.8998 105.431 34.1405 104.567 37.7413 104.567C41.3421 104.567 44.5828 105.431 47.4634 107.159C50.344 108.839 52.6245 111.168 54.3049 114.145C55.9852 117.073 56.8254 120.482 56.8254 124.371ZM49.6239 124.371C49.6239 121.73 49.0957 119.45 48.0395 117.529C46.9833 115.561 45.543 114.025 43.7186 112.92C41.9422 111.768 39.9497 111.192 37.7413 111.192C35.5328 111.192 33.5163 111.768 31.692 112.92C29.8676 114.025 28.4272 115.561 27.371 117.529C26.3148 119.45 25.7867 121.73 25.7867 124.371C25.7867 126.915 26.3148 129.172 27.371 131.14C28.4272 133.109 29.8676 134.645 31.692 135.749C33.5163 136.854 35.5328 137.406 37.7413 137.406C39.9497 137.406 41.9422 136.854 43.7186 135.749C45.543 134.645 46.9833 133.109 48.0395 131.14C49.0957 129.172 49.6239 126.915 49.6239 124.371ZM62.7442 137.406C62.3121 136.734 62.1201 135.965 62.1681 135.101C62.2161 134.189 62.7202 133.421 63.6804 132.797C64.3526 132.365 65.0487 132.197 65.7689 132.293C66.537 132.341 67.2572 132.701 67.9293 133.373C69.2736 134.861 70.7619 136.037 72.3943 136.902C74.0747 137.766 76.0911 138.198 78.4436 138.198C79.4038 138.15 80.388 138.006 81.3963 137.766C82.4045 137.478 83.2687 136.998 83.9888 136.325C84.709 135.605 85.0691 134.573 85.0691 133.229C85.0691 132.028 84.685 131.068 83.9168 130.348C83.1486 129.628 82.1404 129.052 80.8922 128.62C79.6439 128.14 78.2996 127.708 76.8593 127.323C75.3229 126.891 73.7626 126.411 72.1783 125.883C70.6419 125.355 69.2496 124.683 68.0013 123.867C66.7531 123.003 65.7209 121.898 64.9047 120.554C64.1365 119.21 63.7524 117.553 63.7524 115.585C63.7524 113.328 64.3766 111.384 65.6248 109.752C66.9211 108.119 68.5775 106.847 70.5939 105.935C72.6584 105.023 74.8908 104.567 77.2914 104.567C78.6837 104.567 80.148 104.759 81.6843 105.143C83.2207 105.479 84.709 106.031 86.1493 106.799C87.5896 107.567 88.8379 108.575 89.8941 109.824C90.3742 110.448 90.6383 111.192 90.6863 112.056C90.7823 112.92 90.3982 113.689 89.534 114.361C88.9579 114.841 88.2618 115.057 87.4456 115.009C86.6294 114.961 85.9573 114.697 85.4291 114.217C84.5169 113.064 83.3407 112.176 81.9004 111.552C80.4601 110.88 78.8277 110.544 77.0033 110.544C76.0911 110.544 75.1309 110.688 74.1227 110.976C73.1625 111.216 72.3463 111.672 71.6741 112.344C71.002 113.016 70.6659 114.001 70.6659 115.297C70.6659 116.497 71.05 117.457 71.8182 118.177C72.6344 118.898 73.6906 119.498 74.9869 119.978C76.2831 120.458 77.6995 120.89 79.2358 121.274C80.7241 121.658 82.1884 122.114 83.6287 122.642C85.1171 123.171 86.4374 123.867 87.5896 124.731C88.7899 125.547 89.7501 126.627 90.4702 127.972C91.2384 129.268 91.6225 130.924 91.6225 132.941C91.6225 135.293 90.9263 137.31 89.534 138.99C88.1897 140.622 86.4614 141.871 84.3489 142.735C82.2845 143.599 80.1 144.031 77.7955 144.031C75.0589 144.031 72.3223 143.551 69.5857 142.591C66.8971 141.583 64.6166 139.854 62.7442 137.406ZM117.011 144.031C113.026 144.031 109.569 143.215 106.641 141.583C103.712 139.902 101.431 137.622 99.7991 134.741C98.2147 131.812 97.4226 128.476 97.4226 124.731C97.4226 120.506 98.2627 116.905 99.9431 113.929C101.671 110.904 103.904 108.599 106.641 107.015C109.377 105.383 112.282 104.567 115.354 104.567C117.707 104.567 119.939 105.047 122.052 106.007C124.164 106.919 126.037 108.215 127.669 109.896C129.35 111.528 130.67 113.472 131.63 115.729C132.59 117.937 133.094 120.362 133.142 123.003C133.094 123.963 132.71 124.755 131.99 125.379C131.27 126.003 130.43 126.315 129.47 126.315H101.455L99.7271 120.194H126.805L125.437 121.49V119.69C125.341 118.009 124.789 116.545 123.78 115.297C122.772 114.001 121.524 113.016 120.035 112.344C118.547 111.624 116.987 111.264 115.354 111.264C113.914 111.264 112.522 111.504 111.178 111.984C109.881 112.416 108.705 113.136 107.649 114.145C106.641 115.153 105.824 116.497 105.2 118.177C104.624 119.81 104.336 121.85 104.336 124.299C104.336 126.939 104.888 129.244 105.992 131.212C107.097 133.181 108.585 134.717 110.457 135.821C112.33 136.878 114.394 137.406 116.651 137.406C118.427 137.406 119.891 137.238 121.044 136.902C122.196 136.517 123.156 136.061 123.924 135.533C124.692 135.005 125.365 134.501 125.941 134.021C126.661 133.589 127.381 133.373 128.101 133.373C128.965 133.373 129.686 133.685 130.262 134.309C130.838 134.885 131.126 135.581 131.126 136.397C131.126 137.454 130.598 138.414 129.542 139.278C128.245 140.526 126.445 141.631 124.14 142.591C121.884 143.551 119.507 144.031 117.011 144.031ZM160.822 105.863H177.745C178.706 105.863 179.498 106.199 180.122 106.871C180.794 107.495 181.13 108.287 181.13 109.248C181.13 110.16 180.794 110.928 180.122 111.552C179.498 112.176 178.706 112.488 177.745 112.488H160.822C159.861 112.488 159.045 112.176 158.373 111.552C157.749 110.88 157.437 110.088 157.437 109.176C157.437 108.215 157.749 107.423 158.373 106.799C159.045 106.175 159.861 105.863 160.822 105.863ZM168.383 96.5008C169.44 96.5008 170.304 96.8608 170.976 97.581C171.648 98.2531 171.984 99.1173 171.984 100.174V133.589C171.984 134.453 172.128 135.149 172.416 135.677C172.704 136.205 173.088 136.565 173.568 136.758C174.097 136.95 174.625 137.046 175.153 137.046C175.681 137.046 176.137 136.95 176.521 136.758C176.953 136.565 177.457 136.469 178.033 136.469C178.61 136.469 179.138 136.734 179.618 137.262C180.098 137.79 180.338 138.51 180.338 139.422C180.338 140.574 179.714 141.511 178.465 142.231C177.217 142.951 175.873 143.311 174.433 143.311C173.616 143.311 172.656 143.239 171.552 143.095C170.448 142.951 169.368 142.591 168.311 142.015C167.303 141.439 166.463 140.526 165.791 139.278C165.119 137.982 164.783 136.181 164.783 133.877V100.174C164.783 99.1173 165.119 98.2531 165.791 97.581C166.511 96.8608 167.375 96.5008 168.383 96.5008ZM225.049 124.371C225.049 128.212 224.209 131.62 222.529 134.597C220.849 137.526 218.568 139.83 215.687 141.511C212.807 143.191 209.566 144.031 205.965 144.031C202.365 144.031 199.124 143.191 196.243 141.511C193.363 139.83 191.058 137.526 189.33 134.597C187.649 131.62 186.809 128.212 186.809 124.371C186.809 120.482 187.649 117.073 189.33 114.145C191.058 111.168 193.363 108.839 196.243 107.159C199.124 105.431 202.365 104.567 205.965 104.567C209.566 104.567 212.807 105.431 215.687 107.159C218.568 108.839 220.849 111.168 222.529 114.145C224.209 117.073 225.049 120.482 225.049 124.371ZM217.848 124.371C217.848 121.73 217.32 119.45 216.264 117.529C215.207 115.561 213.767 114.025 211.943 112.92C210.166 111.768 208.174 111.192 205.965 111.192C203.757 111.192 201.74 111.768 199.916 112.92C198.092 114.025 196.651 115.561 195.595 117.529C194.539 119.45 194.011 121.73 194.011 124.371C194.011 126.915 194.539 129.172 195.595 131.14C196.651 133.109 198.092 134.645 199.916 135.749C201.74 136.854 203.757 137.406 205.965 137.406C208.174 137.406 210.166 136.854 211.943 135.749C213.767 134.645 215.207 133.109 216.264 131.14C217.32 129.172 217.848 126.915 217.848 124.371ZM260.014 139.638C260.014 140.694 259.678 141.583 259.005 142.303C258.333 142.975 257.469 143.311 256.413 143.311C255.405 143.311 254.54 142.975 253.82 142.303C253.148 141.583 252.812 140.694 252.812 139.638V108.815C252.812 107.759 253.148 106.895 253.82 106.223C254.54 105.503 255.405 105.143 256.413 105.143C257.469 105.143 258.333 105.503 259.005 106.223C259.678 106.895 260.014 107.759 260.014 108.815V139.638ZM256.341 100.39C254.949 100.39 253.94 100.15 253.316 99.6695C252.692 99.1413 252.38 98.2772 252.38 97.0769V95.9246C252.38 94.7244 252.716 93.8842 253.388 93.4041C254.06 92.924 255.069 92.6839 256.413 92.6839C257.853 92.6839 258.885 92.948 259.51 93.4761C260.134 93.9562 260.446 94.7724 260.446 95.9246V97.0769C260.446 98.3252 260.11 99.1893 259.438 99.6695C258.813 100.15 257.781 100.39 256.341 100.39ZM289.217 104.567C292.626 104.567 295.266 105.287 297.139 106.727C299.011 108.119 300.308 110.016 301.028 112.416C301.796 114.769 302.18 117.409 302.18 120.338V139.638C302.18 140.694 301.82 141.583 301.1 142.303C300.428 142.975 299.587 143.311 298.579 143.311C297.523 143.311 296.659 142.975 295.987 142.303C295.314 141.583 294.978 140.694 294.978 139.638V120.41C294.978 118.682 294.738 117.145 294.258 115.801C293.778 114.409 292.938 113.304 291.738 112.488C290.585 111.624 288.953 111.192 286.841 111.192C284.872 111.192 283.144 111.624 281.655 112.488C280.167 113.304 278.991 114.409 278.127 115.801C277.311 117.145 276.902 118.682 276.902 120.41V139.638C276.902 140.694 276.542 141.583 275.822 142.303C275.15 142.975 274.31 143.311 273.302 143.311C272.245 143.311 271.381 142.975 270.709 142.303C270.037 141.583 269.701 140.694 269.701 139.638V109.104C269.701 108.047 270.037 107.183 270.709 106.511C271.381 105.791 272.245 105.431 273.302 105.431C274.31 105.431 275.15 105.791 275.822 106.511C276.542 107.183 276.902 108.047 276.902 109.104V113.136L275.606 113.857C275.942 112.8 276.518 111.744 277.335 110.688C278.199 109.584 279.231 108.575 280.431 107.663C281.631 106.703 282.976 105.959 284.464 105.431C285.952 104.855 287.537 104.567 289.217 104.567ZM329.823 90.0914C330.735 90.0914 331.671 90.2114 332.631 90.4515C333.592 90.6915 334.384 91.0996 335.008 91.6757C335.68 92.2038 336.016 92.948 336.016 93.9082C336.016 94.8684 335.728 95.6606 335.152 96.2847C334.576 96.8608 333.904 97.1489 333.135 97.1489C332.655 97.1489 332.007 97.0529 331.191 96.8608C330.375 96.6208 329.559 96.5008 328.742 96.5008C327.638 96.5008 326.75 96.7648 326.078 97.2929C325.406 97.773 324.926 98.3972 324.638 99.1653C324.35 99.8855 324.205 100.606 324.205 101.326V139.638C324.205 140.694 323.845 141.583 323.125 142.303C322.453 142.975 321.613 143.311 320.605 143.311C319.548 143.311 318.684 142.975 318.012 142.303C317.34 141.583 317.004 140.694 317.004 139.638V101.398C317.004 98.0851 318.084 95.3725 320.245 93.2601C322.453 91.1476 325.646 90.0914 329.823 90.0914ZM331.263 106.079C332.223 106.079 333.015 106.391 333.64 107.015C334.264 107.639 334.576 108.431 334.576 109.392C334.576 110.352 334.264 111.144 333.64 111.768C333.015 112.392 332.223 112.704 331.263 112.704H312.611C311.699 112.704 310.907 112.392 310.234 111.768C309.61 111.144 309.298 110.352 309.298 109.392C309.298 108.431 309.61 107.639 310.234 107.015C310.907 106.391 311.699 106.079 312.611 106.079H331.263ZM357.11 144.031C353.125 144.031 349.668 143.215 346.74 141.583C343.811 139.902 341.531 137.622 339.898 134.741C338.314 131.812 337.522 128.476 337.522 124.731C337.522 120.506 338.362 116.905 340.042 113.929C341.771 110.904 344.003 108.599 346.74 107.015C349.476 105.383 352.381 104.567 355.454 104.567C357.806 104.567 360.039 105.047 362.151 106.007C364.263 106.919 366.136 108.215 367.768 109.896C369.449 111.528 370.769 113.472 371.729 115.729C372.689 117.937 373.193 120.362 373.241 123.003C373.193 123.963 372.809 124.755 372.089 125.379C371.369 126.003 370.529 126.315 369.569 126.315H341.555L339.826 120.194H366.904L365.536 121.49V119.69C365.44 118.009 364.888 116.545 363.879 115.297C362.871 114.001 361.623 113.016 360.135 112.344C358.646 111.624 357.086 111.264 355.454 111.264C354.013 111.264 352.621 111.504 351.277 111.984C349.98 112.416 348.804 113.136 347.748 114.145C346.74 115.153 345.923 116.497 345.299 118.177C344.723 119.81 344.435 121.85 344.435 124.299C344.435 126.939 344.987 129.244 346.091 131.212C347.196 133.181 348.684 134.717 350.556 135.821C352.429 136.878 354.493 137.406 356.75 137.406C358.526 137.406 359.991 137.238 361.143 136.902C362.295 136.517 363.255 136.061 364.023 135.533C364.792 135.005 365.464 134.501 366.04 134.021C366.76 133.589 367.48 133.373 368.2 133.373C369.064 133.373 369.785 133.685 370.361 134.309C370.937 134.885 371.225 135.581 371.225 136.397C371.225 137.454 370.697 138.414 369.641 139.278C368.344 140.526 366.544 141.631 364.239 142.591C361.983 143.551 359.606 144.031 357.11 144.031ZM384.982 143.311C383.926 143.311 383.062 142.975 382.39 142.303C381.717 141.583 381.381 140.694 381.381 139.638V109.104C381.381 108.047 381.717 107.183 382.39 106.511C383.062 105.791 383.926 105.431 384.982 105.431C385.99 105.431 386.831 105.791 387.503 106.511C388.223 107.183 388.583 108.047 388.583 109.104V117.169L387.863 114.073C388.247 112.728 388.823 111.48 389.591 110.328C390.407 109.176 391.368 108.167 392.472 107.303C393.576 106.439 394.8 105.767 396.145 105.287C397.537 104.807 398.977 104.567 400.466 104.567C401.714 104.567 402.794 104.903 403.706 105.575C404.618 106.247 405.075 107.087 405.075 108.095C405.075 109.392 404.739 110.352 404.066 110.976C403.394 111.552 402.65 111.84 401.834 111.84C401.114 111.84 400.418 111.696 399.745 111.408C399.073 111.072 398.281 110.904 397.369 110.904C396.361 110.904 395.328 111.168 394.272 111.696C393.216 112.224 392.256 113.016 391.392 114.073C390.527 115.081 389.831 116.281 389.303 117.673C388.823 119.066 388.583 120.626 388.583 122.354V139.638C388.583 140.694 388.223 141.583 387.503 142.303C386.831 142.975 385.99 143.311 384.982 143.311ZM418.251 139.638C418.251 140.694 417.915 141.583 417.243 142.303C416.571 142.975 415.707 143.311 414.65 143.311C413.642 143.311 412.778 142.975 412.058 142.303C411.386 141.583 411.05 140.694 411.05 139.638V108.815C411.05 107.759 411.386 106.895 412.058 106.223C412.778 105.503 413.642 105.143 414.65 105.143C415.707 105.143 416.571 105.503 417.243 106.223C417.915 106.895 418.251 107.759 418.251 108.815V139.638ZM414.578 100.39C413.186 100.39 412.178 100.15 411.554 99.6695C410.93 99.1413 410.618 98.2772 410.618 97.0769V95.9246C410.618 94.7244 410.954 93.8842 411.626 93.4041C412.298 92.924 413.306 92.6839 414.65 92.6839C416.091 92.6839 417.123 92.948 417.747 93.4761C418.371 93.9562 418.683 94.7724 418.683 95.9246V97.0769C418.683 98.3252 418.347 99.1893 417.675 99.6695C417.051 100.15 416.019 100.39 414.578 100.39ZM464.234 124.371C464.234 128.212 463.394 131.62 461.714 134.597C460.033 137.526 457.753 139.83 454.872 141.511C451.992 143.191 448.751 144.031 445.15 144.031C441.549 144.031 438.309 143.191 435.428 141.511C432.547 139.83 430.243 137.526 428.515 134.597C426.834 131.62 425.994 128.212 425.994 124.371C425.994 120.482 426.834 117.073 428.515 114.145C430.243 111.168 432.547 108.839 435.428 107.159C438.309 105.431 441.549 104.567 445.15 104.567C448.751 104.567 451.992 105.431 454.872 107.159C457.753 108.839 460.033 111.168 461.714 114.145C463.394 117.073 464.234 120.482 464.234 124.371ZM457.033 124.371C457.033 121.73 456.505 119.45 455.448 117.529C454.392 115.561 452.952 114.025 451.127 112.92C449.351 111.768 447.359 111.192 445.15 111.192C442.942 111.192 440.925 111.768 439.101 112.92C437.276 114.025 435.836 115.561 434.78 117.529C433.724 119.45 433.196 121.73 433.196 124.371C433.196 126.915 433.724 129.172 434.78 131.14C435.836 133.109 437.276 134.645 439.101 135.749C440.925 136.854 442.942 137.406 445.15 137.406C447.359 137.406 449.351 136.854 451.127 135.749C452.952 134.645 454.392 133.109 455.448 131.14C456.505 129.172 457.033 126.915 457.033 124.371ZM475.986 143.311C474.93 143.311 474.066 142.975 473.394 142.303C472.722 141.583 472.386 140.694 472.386 139.638V109.104C472.386 108.047 472.722 107.183 473.394 106.511C474.066 105.791 474.93 105.431 475.986 105.431C476.995 105.431 477.835 105.791 478.507 106.511C479.227 107.183 479.587 108.047 479.587 109.104V117.169L478.867 114.073C479.251 112.728 479.827 111.48 480.595 110.328C481.412 109.176 482.372 108.167 483.476 107.303C484.58 106.439 485.805 105.767 487.149 105.287C488.541 104.807 489.981 104.567 491.47 104.567C492.718 104.567 493.798 104.903 494.71 105.575C495.623 106.247 496.079 107.087 496.079 108.095C496.079 109.392 495.743 110.352 495.071 110.976C494.398 111.552 493.654 111.84 492.838 111.84C492.118 111.84 491.422 111.696 490.75 111.408C490.077 111.072 489.285 110.904 488.373 110.904C487.365 110.904 486.333 111.168 485.276 111.696C484.22 112.224 483.26 113.016 482.396 114.073C481.532 115.081 480.835 116.281 480.307 117.673C479.827 119.066 479.587 120.626 479.587 122.354V139.638C479.587 140.694 479.227 141.583 478.507 142.303C477.835 142.975 476.995 143.311 475.986 143.311ZM539.309 104.567C541.902 104.567 544.206 104.855 546.222 105.431C548.239 105.959 549.799 106.727 550.903 107.735C552.056 108.695 552.632 109.824 552.632 111.12C552.632 111.936 552.392 112.704 551.912 113.424C551.432 114.097 550.711 114.433 549.751 114.433C549.079 114.433 548.503 114.313 548.023 114.073C547.591 113.833 547.183 113.544 546.799 113.208C546.414 112.872 545.934 112.536 545.358 112.2C544.83 111.912 544.038 111.672 542.982 111.48C541.974 111.288 541.061 111.192 540.245 111.192C537.701 111.192 535.492 111.768 533.62 112.92C531.795 114.073 530.355 115.633 529.299 117.601C528.291 119.57 527.786 121.802 527.786 124.299C527.786 126.795 528.291 129.028 529.299 130.996C530.355 132.965 531.771 134.525 533.548 135.677C535.372 136.83 537.485 137.406 539.885 137.406C541.325 137.406 542.502 137.31 543.414 137.118C544.326 136.878 545.118 136.589 545.79 136.253C546.511 135.821 547.111 135.389 547.591 134.957C548.119 134.477 548.839 134.237 549.751 134.237C550.807 134.237 551.6 134.573 552.128 135.245C552.704 135.869 552.992 136.661 552.992 137.622C552.992 138.678 552.344 139.71 551.048 140.718C549.799 141.679 548.119 142.471 546.006 143.095C543.894 143.719 541.565 144.031 539.021 144.031C535.276 144.031 532.011 143.167 529.227 141.439C526.49 139.71 524.354 137.358 522.817 134.381C521.329 131.404 520.585 128.044 520.585 124.299C520.585 120.506 521.377 117.145 522.961 114.217C524.546 111.24 526.754 108.887 529.587 107.159C532.419 105.431 535.66 104.567 539.309 104.567ZM596.169 124.371C596.169 128.212 595.329 131.62 593.649 134.597C591.968 137.526 589.688 139.83 586.807 141.511C583.927 143.191 580.686 144.031 577.085 144.031C573.484 144.031 570.244 143.191 567.363 141.511C564.482 139.83 562.178 137.526 560.449 134.597C558.769 131.62 557.929 128.212 557.929 124.371C557.929 120.482 558.769 117.073 560.449 114.145C562.178 111.168 564.482 108.839 567.363 107.159C570.244 105.431 573.484 104.567 577.085 104.567C580.686 104.567 583.927 105.431 586.807 107.159C589.688 108.839 591.968 111.168 593.649 114.145C595.329 117.073 596.169 120.482 596.169 124.371ZM588.968 124.371C588.968 121.73 588.44 119.45 587.383 117.529C586.327 115.561 584.887 114.025 583.062 112.92C581.286 111.768 579.294 111.192 577.085 111.192C574.877 111.192 572.86 111.768 571.036 112.92C569.211 114.025 567.771 115.561 566.715 117.529C565.659 119.45 565.131 121.73 565.131 124.371C565.131 126.915 565.659 129.172 566.715 131.14C567.771 133.109 569.211 134.645 571.036 135.749C572.86 136.854 574.877 137.406 577.085 137.406C579.294 137.406 581.286 136.854 583.062 135.749C584.887 134.645 586.327 133.109 587.383 131.14C588.44 129.172 588.968 126.915 588.968 124.371ZM623.333 104.783C626.885 104.783 629.622 105.671 631.542 107.447C633.463 109.176 634.735 111.528 635.359 114.505L634.207 114.145L634.711 112.992C635.335 111.744 636.271 110.496 637.52 109.248C638.816 107.951 640.352 106.895 642.129 106.079C643.905 105.215 645.802 104.783 647.818 104.783C651.131 104.783 653.699 105.503 655.524 106.943C657.348 108.335 658.62 110.232 659.34 112.632C660.061 114.985 660.421 117.625 660.421 120.554V139.638C660.421 140.694 660.085 141.583 659.413 142.303C658.74 142.975 657.876 143.311 656.82 143.311C655.812 143.311 654.948 142.975 654.227 142.303C653.555 141.583 653.219 140.694 653.219 139.638V120.626C653.219 118.946 652.979 117.409 652.499 116.017C652.067 114.625 651.275 113.52 650.122 112.704C649.018 111.84 647.482 111.408 645.513 111.408C643.641 111.408 641.961 111.84 640.472 112.704C639.032 113.52 637.904 114.625 637.088 116.017C636.271 117.409 635.863 118.946 635.863 120.626V139.638C635.863 140.694 635.527 141.583 634.855 142.303C634.183 142.975 633.319 143.311 632.263 143.311C631.206 143.311 630.342 142.975 629.67 142.303C628.998 141.583 628.662 140.694 628.662 139.638V120.554C628.662 118.874 628.422 117.337 627.942 115.945C627.51 114.553 626.741 113.448 625.637 112.632C624.533 111.816 622.997 111.408 621.028 111.408C619.156 111.408 617.499 111.816 616.059 112.632C614.619 113.448 613.491 114.553 612.674 115.945C611.906 117.337 611.522 118.874 611.522 120.554V139.638C611.522 140.694 611.162 141.583 610.442 142.303C609.77 142.975 608.93 143.311 607.921 143.311C606.865 143.311 606.001 142.975 605.329 142.303C604.657 141.583 604.321 140.694 604.321 139.638V109.104C604.321 108.047 604.657 107.183 605.329 106.511C606.001 105.791 606.865 105.431 607.921 105.431C608.93 105.431 609.77 105.791 610.442 106.511C611.162 107.183 611.522 108.047 611.522 109.104V113.352L610.154 114.145C610.49 113.088 611.042 112.008 611.81 110.904C612.578 109.8 613.539 108.791 614.691 107.879C615.891 106.967 617.211 106.223 618.652 105.647C620.092 105.071 621.652 104.783 623.333 104.783ZM689.583 104.783C692.944 104.783 695.921 105.623 698.513 107.303C701.154 108.983 703.242 111.288 704.778 114.217C706.315 117.097 707.083 120.458 707.083 124.299C707.083 128.14 706.315 131.548 704.778 134.525C703.242 137.454 701.178 139.758 698.585 141.439C695.993 143.119 693.064 143.959 689.799 143.959C687.975 143.959 686.246 143.671 684.614 143.095C682.982 142.519 681.541 141.775 680.293 140.862C679.045 139.902 678.013 138.894 677.196 137.838C676.428 136.782 675.948 135.797 675.756 134.885L677.701 133.949V154.041C677.701 155.098 677.34 155.962 676.62 156.634C675.948 157.354 675.108 157.714 674.1 157.714C673.044 157.714 672.179 157.354 671.507 156.634C670.835 155.962 670.499 155.098 670.499 154.041V108.959C670.499 107.951 670.835 107.087 671.507 106.367C672.179 105.647 673.044 105.287 674.1 105.287C675.108 105.287 675.948 105.647 676.62 106.367C677.34 107.087 677.701 107.951 677.701 108.959V113.929L676.548 113.28C676.692 112.368 677.148 111.432 677.917 110.472C678.685 109.464 679.645 108.527 680.797 107.663C681.997 106.799 683.342 106.103 684.83 105.575C686.366 105.047 687.951 104.783 689.583 104.783ZM688.791 111.408C686.486 111.408 684.47 111.984 682.742 113.136C681.061 114.241 679.741 115.753 678.781 117.673C677.821 119.594 677.34 121.802 677.34 124.299C677.34 126.747 677.821 128.98 678.781 130.996C679.741 132.965 681.061 134.525 682.742 135.677C684.47 136.782 686.486 137.334 688.791 137.334C691.047 137.334 693.016 136.782 694.696 135.677C696.377 134.525 697.697 132.965 698.657 130.996C699.665 128.98 700.169 126.747 700.169 124.299C700.169 121.85 699.665 119.666 698.657 117.745C697.697 115.777 696.377 114.241 694.696 113.136C693.016 111.984 691.047 111.408 688.791 111.408ZM732.871 144.031C728.886 144.031 725.43 143.215 722.501 141.583C719.572 139.902 717.292 137.622 715.66 134.741C714.075 131.812 713.283 128.476 713.283 124.731C713.283 120.506 714.123 116.905 715.804 113.929C717.532 110.904 719.764 108.599 722.501 107.015C725.238 105.383 728.142 104.567 731.215 104.567C733.567 104.567 735.8 105.047 737.912 106.007C740.025 106.919 741.897 108.215 743.53 109.896C745.21 111.528 746.53 113.472 747.49 115.729C748.451 117.937 748.955 120.362 749.003 123.003C748.955 123.963 748.571 124.755 747.851 125.379C747.13 126.003 746.29 126.315 745.33 126.315H717.316L715.588 120.194H742.665L741.297 121.49V119.69C741.201 118.009 740.649 116.545 739.641 115.297C738.633 114.001 737.384 113.016 735.896 112.344C734.408 111.624 732.847 111.264 731.215 111.264C729.775 111.264 728.382 111.504 727.038 111.984C725.742 112.416 724.565 113.136 723.509 114.145C722.501 115.153 721.685 116.497 721.061 118.177C720.485 119.81 720.197 121.85 720.197 124.299C720.197 126.939 720.749 129.244 721.853 131.212C722.957 133.181 724.445 134.717 726.318 135.821C728.19 136.878 730.255 137.406 732.511 137.406C734.288 137.406 735.752 137.238 736.904 136.902C738.056 136.517 739.017 136.061 739.785 135.533C740.553 135.005 741.225 134.501 741.801 134.021C742.521 133.589 743.242 133.373 743.962 133.373C744.826 133.373 745.546 133.685 746.122 134.309C746.698 134.885 746.986 135.581 746.986 136.397C746.986 137.454 746.458 138.414 745.402 139.278C744.106 140.526 742.305 141.631 740.001 142.591C737.744 143.551 735.368 144.031 732.871 144.031ZM756.639 105.863H773.562C774.523 105.863 775.315 106.199 775.939 106.871C776.611 107.495 776.947 108.287 776.947 109.248C776.947 110.16 776.611 110.928 775.939 111.552C775.315 112.176 774.523 112.488 773.562 112.488H756.639C755.678 112.488 754.862 112.176 754.19 111.552C753.566 110.88 753.254 110.088 753.254 109.176C753.254 108.215 753.566 107.423 754.19 106.799C754.862 106.175 755.678 105.863 756.639 105.863ZM764.2 96.5008C765.257 96.5008 766.121 96.8608 766.793 97.581C767.465 98.2531 767.801 99.1173 767.801 100.174V133.589C767.801 134.453 767.945 135.149 768.233 135.677C768.521 136.205 768.905 136.565 769.385 136.758C769.914 136.95 770.442 137.046 770.97 137.046C771.498 137.046 771.954 136.95 772.338 136.758C772.77 136.565 773.274 136.469 773.85 136.469C774.427 136.469 774.955 136.734 775.435 137.262C775.915 137.79 776.155 138.51 776.155 139.422C776.155 140.574 775.531 141.511 774.283 142.231C773.034 142.951 771.69 143.311 770.25 143.311C769.433 143.311 768.473 143.239 767.369 143.095C766.265 142.951 765.185 142.591 764.128 142.015C763.12 141.439 762.28 140.526 761.608 139.278C760.936 137.982 760.6 136.181 760.6 133.877V100.174C760.6 99.1173 760.936 98.2531 761.608 97.581C762.328 96.8608 763.192 96.5008 764.2 96.5008ZM791.692 139.638C791.692 140.694 791.356 141.583 790.684 142.303C790.011 142.975 789.147 143.311 788.091 143.311C787.083 143.311 786.219 142.975 785.498 142.303C784.826 141.583 784.49 140.694 784.49 139.638V108.815C784.49 107.759 784.826 106.895 785.498 106.223C786.219 105.503 787.083 105.143 788.091 105.143C789.147 105.143 790.011 105.503 790.684 106.223C791.356 106.895 791.692 107.759 791.692 108.815V139.638ZM788.019 100.39C786.627 100.39 785.618 100.15 784.994 99.6695C784.37 99.1413 784.058 98.2772 784.058 97.0769V95.9246C784.058 94.7244 784.394 93.8842 785.066 93.4041C785.738 92.924 786.747 92.6839 788.091 92.6839C789.531 92.6839 790.564 92.948 791.188 93.4761C791.812 93.9562 792.124 94.7724 792.124 95.9246V97.0769C792.124 98.3252 791.788 99.1893 791.116 99.6695C790.492 100.15 789.459 100.39 788.019 100.39ZM800.875 105.863H817.799C818.759 105.863 819.551 106.199 820.175 106.871C820.847 107.495 821.183 108.287 821.183 109.248C821.183 110.16 820.847 110.928 820.175 111.552C819.551 112.176 818.759 112.488 817.799 112.488H800.875C799.915 112.488 799.098 112.176 798.426 111.552C797.802 110.88 797.49 110.088 797.49 109.176C797.49 108.215 797.802 107.423 798.426 106.799C799.098 106.175 799.915 105.863 800.875 105.863ZM808.437 96.5008C809.493 96.5008 810.357 96.8608 811.029 97.581C811.701 98.2531 812.037 99.1173 812.037 100.174V133.589C812.037 134.453 812.181 135.149 812.469 135.677C812.757 136.205 813.142 136.565 813.622 136.758C814.15 136.95 814.678 137.046 815.206 137.046C815.734 137.046 816.19 136.95 816.574 136.758C817.006 136.565 817.511 136.469 818.087 136.469C818.663 136.469 819.191 136.734 819.671 137.262C820.151 137.79 820.391 138.51 820.391 139.422C820.391 140.574 819.767 141.511 818.519 142.231C817.27 142.951 815.926 143.311 814.486 143.311C813.67 143.311 812.709 143.239 811.605 143.095C810.501 142.951 809.421 142.591 808.365 142.015C807.356 141.439 806.516 140.526 805.844 139.278C805.172 137.982 804.836 136.181 804.836 133.877V100.174C804.836 99.1173 805.172 98.2531 805.844 97.581C806.564 96.8608 807.428 96.5008 808.437 96.5008ZM865.103 124.371C865.103 128.212 864.263 131.62 862.582 134.597C860.902 137.526 858.621 139.83 855.741 141.511C852.86 143.191 849.619 144.031 846.019 144.031C842.418 144.031 839.177 143.191 836.296 141.511C833.416 139.83 831.111 137.526 829.383 134.597C827.703 131.62 826.862 128.212 826.862 124.371C826.862 120.482 827.703 117.073 829.383 114.145C831.111 111.168 833.416 108.839 836.296 107.159C839.177 105.431 842.418 104.567 846.019 104.567C849.619 104.567 852.86 105.431 855.741 107.159C858.621 108.839 860.902 111.168 862.582 114.145C864.263 117.073 865.103 120.482 865.103 124.371ZM857.901 124.371C857.901 121.73 857.373 119.45 856.317 117.529C855.261 115.561 853.82 114.025 851.996 112.92C850.219 111.768 848.227 111.192 846.019 111.192C843.81 111.192 841.794 111.768 839.969 112.92C838.145 114.025 836.705 115.561 835.648 117.529C834.592 119.45 834.064 121.73 834.064 124.371C834.064 126.915 834.592 129.172 835.648 131.14C836.705 133.109 838.145 134.645 839.969 135.749C841.794 136.854 843.81 137.406 846.019 137.406C848.227 137.406 850.219 136.854 851.996 135.749C853.82 134.645 855.261 133.109 856.317 131.14C857.373 129.172 857.901 126.915 857.901 124.371ZM876.855 143.311C875.799 143.311 874.934 142.975 874.262 142.303C873.59 141.583 873.254 140.694 873.254 139.638V109.104C873.254 108.047 873.59 107.183 874.262 106.511C874.934 105.791 875.799 105.431 876.855 105.431C877.863 105.431 878.703 105.791 879.375 106.511C880.095 107.183 880.456 108.047 880.456 109.104V117.169L879.735 114.073C880.119 112.728 880.696 111.48 881.464 110.328C882.28 109.176 883.24 108.167 884.344 107.303C885.449 106.439 886.673 105.767 888.017 105.287C889.41 104.807 890.85 104.567 892.338 104.567C893.586 104.567 894.667 104.903 895.579 105.575C896.491 106.247 896.947 107.087 896.947 108.095C896.947 109.392 896.611 110.352 895.939 110.976C895.267 111.552 894.523 111.84 893.706 111.84C892.986 111.84 892.29 111.696 891.618 111.408C890.946 111.072 890.154 110.904 889.241 110.904C888.233 110.904 887.201 111.168 886.145 111.696C885.089 112.224 884.128 113.016 883.264 114.073C882.4 115.081 881.704 116.281 881.176 117.673C880.696 119.066 880.456 120.626 880.456 122.354V139.638C880.456 140.694 880.095 141.583 879.375 142.303C878.703 142.975 877.863 143.311 876.855 143.311ZM901.122 137.406C900.69 136.734 900.498 135.965 900.546 135.101C900.594 134.189 901.098 133.421 902.058 132.797C902.73 132.365 903.426 132.197 904.146 132.293C904.915 132.341 905.635 132.701 906.307 133.373C907.651 134.861 909.14 136.037 910.772 136.902C912.452 137.766 914.469 138.198 916.821 138.198C917.781 138.15 918.766 138.006 919.774 137.766C920.782 137.478 921.646 136.998 922.366 136.325C923.087 135.605 923.447 134.573 923.447 133.229C923.447 132.028 923.063 131.068 922.294 130.348C921.526 129.628 920.518 129.052 919.27 128.62C918.021 128.14 916.677 127.708 915.237 127.323C913.701 126.891 912.14 126.411 910.556 125.883C909.02 125.355 907.627 124.683 906.379 123.867C905.131 123.003 904.098 121.898 903.282 120.554C902.514 119.21 902.13 117.553 902.13 115.585C902.13 113.328 902.754 111.384 904.002 109.752C905.299 108.119 906.955 106.847 908.972 105.935C911.036 105.023 913.268 104.567 915.669 104.567C917.061 104.567 918.526 104.759 920.062 105.143C921.598 105.479 923.087 106.031 924.527 106.799C925.967 107.567 927.215 108.575 928.272 109.824C928.752 110.448 929.016 111.192 929.064 112.056C929.16 112.92 928.776 113.689 927.912 114.361C927.336 114.841 926.639 115.057 925.823 115.009C925.007 114.961 924.335 114.697 923.807 114.217C922.895 113.064 921.718 112.176 920.278 111.552C918.838 110.88 917.205 110.544 915.381 110.544C914.469 110.544 913.508 110.688 912.5 110.976C911.54 111.216 910.724 111.672 910.052 112.344C909.38 113.016 909.044 114.001 909.044 115.297C909.044 116.497 909.428 117.457 910.196 118.177C911.012 118.898 912.068 119.498 913.364 119.978C914.661 120.458 916.077 120.89 917.613 121.274C919.102 121.658 920.566 122.114 922.006 122.642C923.495 123.171 924.815 123.867 925.967 124.731C927.167 125.547 928.128 126.627 928.848 127.972C929.616 129.268 930 130.924 930 132.941C930 135.293 929.304 137.31 927.912 138.99C926.567 140.622 924.839 141.871 922.727 142.735C920.662 143.599 918.478 144.031 916.173 144.031C913.436 144.031 910.7 143.551 907.963 142.591C905.275 141.583 902.994 139.854 901.122 137.406ZM46.8822 195.09C47.7944 195.09 48.5866 195.45 49.2587 196.17C49.9789 196.843 50.3389 197.731 50.3389 198.835C50.3389 199.075 50.3149 199.315 50.2669 199.555C50.2189 199.795 50.1469 200.011 50.0509 200.203L39.0325 231.026C38.7444 231.842 38.2403 232.466 37.5202 232.898C36.8 233.283 36.0558 233.427 35.2877 233.331C33.8954 233.234 32.8631 232.466 32.191 231.026L24.0532 209.421L25.7096 209.565L18.22 231.026C17.5478 232.466 16.5156 233.234 15.1233 233.331C14.4031 233.427 13.659 233.283 12.8908 232.898C12.1706 232.466 11.6665 231.842 11.3785 231.026L0.288062 200.203C0.0960201 199.771 -7.4522e-07 199.315 -7.4522e-07 198.835C-7.4522e-07 197.827 0.312067 196.963 0.936203 196.242C1.60835 195.474 2.49654 195.09 3.60078 195.09C4.36895 195.09 5.0411 195.282 5.61722 195.666C6.24136 196.05 6.67345 196.627 6.9135 197.395L16.1315 223.392L14.4751 223.248L21.9648 203.588C22.5889 202.1 23.6932 201.356 25.2775 201.356C26.1417 201.356 26.8138 201.548 27.2939 201.932C27.774 202.316 28.1581 202.868 28.4462 203.588L36.0798 223.32L34.1354 223.536L43.4254 197.395C43.9055 195.858 45.0578 195.09 46.8822 195.09ZM64.4321 229.658C64.4321 230.714 64.096 231.602 63.4239 232.322C62.7517 232.994 61.8875 233.331 60.8313 233.331C59.8231 233.331 58.9589 232.994 58.2387 232.322C57.5666 231.602 57.2305 230.714 57.2305 229.658V198.835C57.2305 197.779 57.5666 196.915 58.2387 196.242C58.9589 195.522 59.8231 195.162 60.8313 195.162C61.8875 195.162 62.7517 195.522 63.4239 196.242C64.096 196.915 64.4321 197.779 64.4321 198.835V229.658ZM60.7593 190.409C59.367 190.409 58.3588 190.169 57.7346 189.689C57.1105 189.161 56.7984 188.297 56.7984 187.096V185.944C56.7984 184.744 57.1345 183.904 57.8066 183.424C58.4788 182.944 59.487 182.704 60.8313 182.704C62.2716 182.704 63.3038 182.968 63.928 183.496C64.5521 183.976 64.8642 184.792 64.8642 185.944V187.096C64.8642 188.345 64.5281 189.209 63.8559 189.689C63.2318 190.169 62.1996 190.409 60.7593 190.409ZM73.6152 195.882H90.5389C91.4991 195.882 92.2913 196.218 92.9154 196.891C93.5875 197.515 93.9236 198.307 93.9236 199.267C93.9236 200.179 93.5875 200.947 92.9154 201.572C92.2913 202.196 91.4991 202.508 90.5389 202.508H73.6152C72.655 202.508 71.8388 202.196 71.1667 201.572C70.5425 200.899 70.2305 200.107 70.2305 199.195C70.2305 198.235 70.5425 197.443 71.1667 196.819C71.8388 196.194 72.655 195.882 73.6152 195.882ZM81.1768 186.52C82.2331 186.52 83.0973 186.88 83.7694 187.601C84.4415 188.273 84.7776 189.137 84.7776 190.193V223.608C84.7776 224.473 84.9217 225.169 85.2097 225.697C85.4978 226.225 85.8819 226.585 86.362 226.777C86.8901 226.969 87.4182 227.065 87.9463 227.065C88.4744 227.065 88.9305 226.969 89.3146 226.777C89.7467 226.585 90.2508 226.489 90.8269 226.489C91.4031 226.489 91.9312 226.753 92.4113 227.281C92.8914 227.809 93.1314 228.529 93.1314 229.442C93.1314 230.594 92.5073 231.53 91.259 232.25C90.0108 232.97 88.6665 233.331 87.2262 233.331C86.41 233.331 85.4498 233.259 84.3455 233.114C83.2413 232.97 82.1611 232.61 81.1048 232.034C80.0966 231.458 79.2564 230.546 78.5843 229.298C77.9121 228.001 77.5761 226.201 77.5761 223.896V190.193C77.5761 189.137 77.9121 188.273 78.5843 187.601C79.3044 186.88 80.1686 186.52 81.1768 186.52ZM120.983 194.802C124.296 194.802 126.864 195.522 128.689 196.963C130.513 198.355 131.785 200.251 132.505 202.652C133.274 205.052 133.658 207.693 133.658 210.574V229.658C133.658 230.714 133.298 231.602 132.577 232.322C131.905 232.994 131.065 233.331 130.057 233.331C129.001 233.331 128.136 232.994 127.464 232.322C126.792 231.602 126.456 230.714 126.456 229.658V210.574C126.456 208.893 126.216 207.357 125.736 205.965C125.304 204.572 124.512 203.468 123.359 202.652C122.255 201.836 120.695 201.428 118.678 201.428C116.806 201.428 115.126 201.836 113.637 202.652C112.197 203.468 111.069 204.572 110.253 205.965C109.484 207.357 109.1 208.893 109.1 210.574V229.658C109.1 230.714 108.74 231.602 108.02 232.322C107.348 232.994 106.508 233.331 105.5 233.331C104.443 233.331 103.579 232.994 102.907 232.322C102.235 231.602 101.899 230.714 101.899 229.658V183.712C101.899 182.655 102.235 181.791 102.907 181.119C103.579 180.399 104.443 180.039 105.5 180.039C106.508 180.039 107.348 180.399 108.02 181.119C108.74 181.791 109.1 182.655 109.1 183.712V203.372L107.804 204.092C108.14 203.036 108.692 201.956 109.46 200.851C110.277 199.747 111.261 198.739 112.413 197.827C113.613 196.915 114.934 196.194 116.374 195.666C117.814 195.09 119.351 194.802 120.983 194.802ZM182.801 194.586C186.162 194.586 189.138 195.426 191.731 197.107C194.372 198.787 196.46 201.116 197.996 204.092C199.533 207.021 200.301 210.406 200.301 214.246C200.301 218.087 199.533 221.496 197.996 224.473C196.46 227.449 194.396 229.802 191.803 231.53C189.21 233.21 186.282 234.051 183.017 234.051C181.193 234.051 179.464 233.763 177.832 233.186C176.2 232.562 174.759 231.794 173.511 230.882C172.263 229.922 171.231 228.914 170.414 227.857C169.646 226.801 169.166 225.817 168.974 224.905L170.918 223.968V230.234C170.918 231.242 170.558 232.106 169.838 232.826C169.166 233.499 168.326 233.835 167.318 233.835C166.261 233.835 165.397 233.499 164.725 232.826C164.053 232.154 163.717 231.29 163.717 230.234V183.712C163.717 182.655 164.053 181.791 164.725 181.119C165.397 180.399 166.261 180.039 167.318 180.039C168.326 180.039 169.166 180.399 169.838 181.119C170.558 181.791 170.918 182.655 170.918 183.712V203.948L169.766 203.3C169.91 202.388 170.366 201.452 171.135 200.491C171.903 199.483 172.863 198.523 174.015 197.611C175.215 196.699 176.56 195.978 178.048 195.45C179.584 194.874 181.169 194.586 182.801 194.586ZM182.009 201.212C179.704 201.212 177.688 201.788 175.96 202.94C174.279 204.092 172.959 205.652 171.999 207.621C171.039 209.541 170.558 211.75 170.558 214.246C170.558 216.743 171.039 218.999 171.999 221.016C172.959 222.984 174.279 224.545 175.96 225.697C177.688 226.849 179.704 227.425 182.009 227.425C184.265 227.425 186.234 226.849 187.914 225.697C189.595 224.545 190.915 222.96 191.875 220.944C192.883 218.927 193.387 216.695 193.387 214.246C193.387 211.75 192.883 209.541 191.875 207.621C190.915 205.652 189.595 204.092 187.914 202.94C186.234 201.788 184.265 201.212 182.009 201.212ZM226.089 234.051C222.104 234.051 218.648 233.234 215.719 231.602C212.79 229.922 210.51 227.641 208.877 224.761C207.293 221.832 206.501 218.495 206.501 214.75C206.501 210.526 207.341 206.925 209.022 203.948C210.75 200.923 212.982 198.619 215.719 197.035C218.456 195.402 221.36 194.586 224.433 194.586C226.785 194.586 229.018 195.066 231.13 196.026C233.243 196.939 235.115 198.235 236.748 199.915C238.428 201.548 239.748 203.492 240.708 205.749C241.669 207.957 242.173 210.382 242.221 213.022C242.173 213.982 241.789 214.774 241.068 215.399C240.348 216.023 239.508 216.335 238.548 216.335H210.534L208.805 210.213H235.883L234.515 211.51V209.709C234.419 208.029 233.867 206.565 232.859 205.316C231.85 204.02 230.602 203.036 229.114 202.364C227.626 201.644 226.065 201.284 224.433 201.284C222.993 201.284 221.6 201.524 220.256 202.004C218.96 202.436 217.783 203.156 216.727 204.164C215.719 205.172 214.903 206.517 214.279 208.197C213.703 209.829 213.414 211.87 213.414 214.318C213.414 216.959 213.967 219.263 215.071 221.232C216.175 223.2 217.663 224.737 219.536 225.841C221.408 226.897 223.473 227.425 225.729 227.425C227.506 227.425 228.97 227.257 230.122 226.921C231.274 226.537 232.235 226.081 233.003 225.553C233.771 225.025 234.443 224.521 235.019 224.04C235.739 223.608 236.459 223.392 237.18 223.392C238.044 223.392 238.764 223.704 239.34 224.329C239.916 224.905 240.204 225.601 240.204 226.417C240.204 227.473 239.676 228.433 238.62 229.298C237.324 230.546 235.523 231.65 233.219 232.61C230.962 233.571 228.586 234.051 226.089 234.051ZM249.857 195.882H266.78C267.741 195.882 268.533 196.218 269.157 196.891C269.829 197.515 270.165 198.307 270.165 199.267C270.165 200.179 269.829 200.947 269.157 201.572C268.533 202.196 267.741 202.508 266.78 202.508H249.857C248.896 202.508 248.08 202.196 247.408 201.572C246.784 200.899 246.472 200.107 246.472 199.195C246.472 198.235 246.784 197.443 247.408 196.819C248.08 196.194 248.896 195.882 249.857 195.882ZM257.418 186.52C258.475 186.52 259.339 186.88 260.011 187.601C260.683 188.273 261.019 189.137 261.019 190.193V223.608C261.019 224.473 261.163 225.169 261.451 225.697C261.739 226.225 262.123 226.585 262.603 226.777C263.132 226.969 263.66 227.065 264.188 227.065C264.716 227.065 265.172 226.969 265.556 226.777C265.988 226.585 266.492 226.489 267.068 226.489C267.645 226.489 268.173 226.753 268.653 227.281C269.133 227.809 269.373 228.529 269.373 229.442C269.373 230.594 268.749 231.53 267.5 232.25C266.252 232.97 264.908 233.331 263.468 233.331C262.651 233.331 261.691 233.259 260.587 233.114C259.483 232.97 258.402 232.61 257.346 232.034C256.338 231.458 255.498 230.546 254.826 229.298C254.154 228.001 253.817 226.201 253.817 223.896V190.193C253.817 189.137 254.154 188.273 254.826 187.601C255.546 186.88 256.41 186.52 257.418 186.52ZM277.636 195.882H294.56C295.52 195.882 296.312 196.218 296.936 196.891C297.608 197.515 297.945 198.307 297.945 199.267C297.945 200.179 297.608 200.947 296.936 201.572C296.312 202.196 295.52 202.508 294.56 202.508H277.636C276.676 202.508 275.86 202.196 275.188 201.572C274.563 200.899 274.251 200.107 274.251 199.195C274.251 198.235 274.563 197.443 275.188 196.819C275.86 196.194 276.676 195.882 277.636 195.882ZM285.198 186.52C286.254 186.52 287.118 186.88 287.79 187.601C288.462 188.273 288.799 189.137 288.799 190.193V223.608C288.799 224.473 288.943 225.169 289.231 225.697C289.519 226.225 289.903 226.585 290.383 226.777C290.911 226.969 291.439 227.065 291.967 227.065C292.495 227.065 292.951 226.969 293.336 226.777C293.768 226.585 294.272 226.489 294.848 226.489C295.424 226.489 295.952 226.753 296.432 227.281C296.912 227.809 297.152 228.529 297.152 229.442C297.152 230.594 296.528 231.53 295.28 232.25C294.032 232.97 292.687 233.331 291.247 233.331C290.431 233.331 289.471 233.259 288.366 233.114C287.262 232.97 286.182 232.61 285.126 232.034C284.118 231.458 283.277 230.546 282.605 229.298C281.933 228.001 281.597 226.201 281.597 223.896V190.193C281.597 189.137 281.933 188.273 282.605 187.601C283.325 186.88 284.19 186.52 285.198 186.52ZM323.212 234.051C319.227 234.051 315.77 233.234 312.842 231.602C309.913 229.922 307.633 227.641 306 224.761C304.416 221.832 303.624 218.495 303.624 214.75C303.624 210.526 304.464 206.925 306.144 203.948C307.873 200.923 310.105 198.619 312.842 197.035C315.578 195.402 318.483 194.586 321.556 194.586C323.908 194.586 326.141 195.066 328.253 196.026C330.365 196.939 332.238 198.235 333.87 199.915C335.551 201.548 336.871 203.492 337.831 205.749C338.791 207.957 339.295 210.382 339.343 213.022C339.295 213.982 338.911 214.774 338.191 215.399C337.471 216.023 336.631 216.335 335.671 216.335H307.657L305.928 210.213H333.006L331.638 211.51V209.709C331.542 208.029 330.99 206.565 329.981 205.316C328.973 204.02 327.725 203.036 326.237 202.364C324.748 201.644 323.188 201.284 321.556 201.284C320.115 201.284 318.723 201.524 317.379 202.004C316.082 202.436 314.906 203.156 313.85 204.164C312.842 205.172 312.025 206.517 311.401 208.197C310.825 209.829 310.537 211.87 310.537 214.318C310.537 216.959 311.089 219.263 312.194 221.232C313.298 223.2 314.786 224.737 316.658 225.841C318.531 226.897 320.595 227.425 322.852 227.425C324.628 227.425 326.093 227.257 327.245 226.921C328.397 226.537 329.357 226.081 330.125 225.553C330.894 225.025 331.566 224.521 332.142 224.04C332.862 223.608 333.582 223.392 334.302 223.392C335.167 223.392 335.887 223.704 336.463 224.329C337.039 224.905 337.327 225.601 337.327 226.417C337.327 227.473 336.799 228.433 335.743 229.298C334.446 230.546 332.646 231.65 330.341 232.61C328.085 233.571 325.708 234.051 323.212 234.051ZM351.084 233.331C350.028 233.331 349.164 232.994 348.492 232.322C347.82 231.602 347.483 230.714 347.483 229.658V199.123C347.483 198.067 347.82 197.203 348.492 196.531C349.164 195.81 350.028 195.45 351.084 195.45C352.092 195.45 352.933 195.81 353.605 196.531C354.325 197.203 354.685 198.067 354.685 199.123V207.189L353.965 204.092C354.349 202.748 354.925 201.5 355.693 200.347C356.509 199.195 357.47 198.187 358.574 197.323C359.678 196.459 360.902 195.786 362.247 195.306C363.639 194.826 365.079 194.586 366.568 194.586C367.816 194.586 368.896 194.922 369.808 195.594C370.72 196.266 371.177 197.107 371.177 198.115C371.177 199.411 370.841 200.371 370.168 200.995C369.496 201.572 368.752 201.86 367.936 201.86C367.216 201.86 366.52 201.716 365.847 201.428C365.175 201.092 364.383 200.923 363.471 200.923C362.463 200.923 361.43 201.188 360.374 201.716C359.318 202.244 358.358 203.036 357.494 204.092C356.629 205.1 355.933 206.301 355.405 207.693C354.925 209.085 354.685 210.646 354.685 212.374V229.658C354.685 230.714 354.325 231.602 353.605 232.322C352.933 232.994 352.092 233.331 351.084 233.331ZM395.395 227.425C394.963 226.753 394.771 225.985 394.819 225.121C394.867 224.209 395.371 223.44 396.331 222.816C397.003 222.384 397.699 222.216 398.419 222.312C399.187 222.36 399.908 222.72 400.58 223.392C401.924 224.881 403.412 226.057 405.045 226.921C406.725 227.785 408.742 228.217 411.094 228.217C412.054 228.169 413.038 228.025 414.047 227.785C415.055 227.497 415.919 227.017 416.639 226.345C417.359 225.625 417.72 224.593 417.72 223.248C417.72 222.048 417.335 221.088 416.567 220.368C415.799 219.648 414.791 219.071 413.543 218.639C412.294 218.159 410.95 217.727 409.51 217.343C407.973 216.911 406.413 216.431 404.829 215.903C403.292 215.375 401.9 214.702 400.652 213.886C399.404 213.022 398.371 211.918 397.555 210.574C396.787 209.229 396.403 207.573 396.403 205.604C396.403 203.348 397.027 201.404 398.275 199.771C399.572 198.139 401.228 196.867 403.244 195.954C405.309 195.042 407.541 194.586 409.942 194.586C411.334 194.586 412.798 194.778 414.335 195.162C415.871 195.498 417.359 196.05 418.8 196.819C420.24 197.587 421.488 198.595 422.545 199.843C423.025 200.467 423.289 201.212 423.337 202.076C423.433 202.94 423.049 203.708 422.184 204.38C421.608 204.86 420.912 205.076 420.096 205.028C419.28 204.98 418.608 204.716 418.08 204.236C417.167 203.084 415.991 202.196 414.551 201.572C413.111 200.899 411.478 200.563 409.654 200.563C408.742 200.563 407.781 200.707 406.773 200.995C405.813 201.236 404.997 201.692 404.325 202.364C403.652 203.036 403.316 204.02 403.316 205.316C403.316 206.517 403.7 207.477 404.469 208.197C405.285 208.917 406.341 209.517 407.637 209.997C408.934 210.478 410.35 210.91 411.886 211.294C413.375 211.678 414.839 212.134 416.279 212.662C417.768 213.19 419.088 213.886 420.24 214.75C421.44 215.567 422.401 216.647 423.121 217.991C423.889 219.287 424.273 220.944 424.273 222.96C424.273 225.313 423.577 227.329 422.184 229.01C420.84 230.642 419.112 231.89 416.999 232.754C414.935 233.619 412.75 234.051 410.446 234.051C407.709 234.051 404.973 233.571 402.236 232.61C399.548 231.602 397.267 229.874 395.395 227.425ZM460.176 195.162C461.232 195.162 462.096 195.522 462.768 196.242C463.44 196.915 463.776 197.779 463.776 198.835V229.802C463.776 234.027 462.96 237.459 461.328 240.1C459.743 242.741 457.583 244.661 454.846 245.861C452.158 247.11 449.109 247.734 445.7 247.734C443.972 247.734 442.244 247.566 440.515 247.23C438.787 246.941 437.371 246.509 436.266 245.933C435.114 245.405 434.298 244.757 433.818 243.989C433.338 243.221 433.266 242.38 433.602 241.468C433.938 240.316 434.514 239.524 435.33 239.092C436.146 238.708 436.987 238.684 437.851 239.02C438.667 239.356 439.747 239.788 441.091 240.316C442.436 240.844 443.972 241.108 445.7 241.108C448.053 241.108 450.045 240.724 451.678 239.956C453.31 239.188 454.534 237.988 455.351 236.355C456.215 234.723 456.647 232.61 456.647 230.018V225.049L457.799 226.777C457.031 228.361 456.023 229.682 454.774 230.738C453.526 231.794 452.038 232.61 450.309 233.186C448.629 233.763 446.757 234.051 444.692 234.051C442.052 234.051 439.771 233.475 437.851 232.322C435.978 231.122 434.538 229.49 433.53 227.425C432.522 225.313 432.017 222.912 432.017 220.224V198.835C432.017 197.779 432.354 196.915 433.026 196.242C433.698 195.522 434.562 195.162 435.618 195.162C436.626 195.162 437.467 195.522 438.139 196.242C438.859 196.915 439.219 197.779 439.219 198.835V218.279C439.219 221.448 439.915 223.776 441.307 225.265C442.7 226.705 444.764 227.425 447.501 227.425C449.325 227.425 450.91 227.041 452.254 226.273C453.598 225.505 454.654 224.449 455.423 223.104C456.191 221.712 456.575 220.104 456.575 218.279V198.835C456.575 197.779 456.911 196.915 457.583 196.242C458.303 195.522 459.167 195.162 460.176 195.162ZM470.927 227.425C470.495 226.753 470.303 225.985 470.351 225.121C470.399 224.209 470.903 223.44 471.863 222.816C472.535 222.384 473.231 222.216 473.951 222.312C474.72 222.36 475.44 222.72 476.112 223.392C477.456 224.881 478.944 226.057 480.577 226.921C482.257 227.785 484.274 228.217 486.626 228.217C487.586 228.169 488.571 228.025 489.579 227.785C490.587 227.497 491.451 227.017 492.171 226.345C492.891 225.625 493.252 224.593 493.252 223.248C493.252 222.048 492.867 221.088 492.099 220.368C491.331 219.648 490.323 219.071 489.075 218.639C487.826 218.159 486.482 217.727 485.042 217.343C483.505 216.911 481.945 216.431 480.361 215.903C478.824 215.375 477.432 214.702 476.184 213.886C474.936 213.022 473.903 211.918 473.087 210.574C472.319 209.229 471.935 207.573 471.935 205.604C471.935 203.348 472.559 201.404 473.807 199.771C475.104 198.139 476.76 196.867 478.776 195.954C480.841 195.042 483.073 194.586 485.474 194.586C486.866 194.586 488.33 194.778 489.867 195.162C491.403 195.498 492.891 196.05 494.332 196.819C495.772 197.587 497.02 198.595 498.077 199.843C498.557 200.467 498.821 201.212 498.869 202.076C498.965 202.94 498.581 203.708 497.717 204.38C497.14 204.86 496.444 205.076 495.628 205.028C494.812 204.98 494.14 204.716 493.612 204.236C492.699 203.084 491.523 202.196 490.083 201.572C488.643 200.899 487.01 200.563 485.186 200.563C484.274 200.563 483.313 200.707 482.305 200.995C481.345 201.236 480.529 201.692 479.857 202.364C479.185 203.036 478.848 204.02 478.848 205.316C478.848 206.517 479.233 207.477 480.001 208.197C480.817 208.917 481.873 209.517 483.169 209.997C484.466 210.478 485.882 210.91 487.418 211.294C488.907 211.678 490.371 212.134 491.811 212.662C493.3 213.19 494.62 213.886 495.772 214.75C496.972 215.567 497.933 216.647 498.653 217.991C499.421 219.287 499.805 220.944 499.805 222.96C499.805 225.313 499.109 227.329 497.717 229.01C496.372 230.642 494.644 231.89 492.531 232.754C490.467 233.619 488.282 234.051 485.978 234.051C483.241 234.051 480.505 233.571 477.768 232.61C475.08 231.602 472.799 229.874 470.927 227.425ZM507.045 195.882H523.969C524.929 195.882 525.721 196.218 526.346 196.891C527.018 197.515 527.354 198.307 527.354 199.267C527.354 200.179 527.018 200.947 526.346 201.572C525.721 202.196 524.929 202.508 523.969 202.508H507.045C506.085 202.508 505.269 202.196 504.597 201.572C503.973 200.899 503.661 200.107 503.661 199.195C503.661 198.235 503.973 197.443 504.597 196.819C505.269 196.194 506.085 195.882 507.045 195.882ZM514.607 186.52C515.663 186.52 516.527 186.88 517.2 187.601C517.872 188.273 518.208 189.137 518.208 190.193V223.608C518.208 224.473 518.352 225.169 518.64 225.697C518.928 226.225 519.312 226.585 519.792 226.777C520.32 226.969 520.848 227.065 521.376 227.065C521.905 227.065 522.361 226.969 522.745 226.777C523.177 226.585 523.681 226.489 524.257 226.489C524.833 226.489 525.361 226.753 525.841 227.281C526.322 227.809 526.562 228.529 526.562 229.442C526.562 230.594 525.937 231.53 524.689 232.25C523.441 232.97 522.097 233.331 520.656 233.331C519.84 233.331 518.88 233.259 517.776 233.114C516.671 232.97 515.591 232.61 514.535 232.034C513.527 231.458 512.687 230.546 512.014 229.298C511.342 228.001 511.006 226.201 511.006 223.896V190.193C511.006 189.137 511.342 188.273 512.014 187.601C512.735 186.88 513.599 186.52 514.607 186.52ZM552.621 234.051C548.636 234.051 545.18 233.234 542.251 231.602C539.322 229.922 537.042 227.641 535.409 224.761C533.825 221.832 533.033 218.495 533.033 214.75C533.033 210.526 533.873 206.925 535.553 203.948C537.282 200.923 539.514 198.619 542.251 197.035C544.987 195.402 547.892 194.586 550.965 194.586C553.317 194.586 555.55 195.066 557.662 196.026C559.775 196.939 561.647 198.235 563.279 199.915C564.96 201.548 566.28 203.492 567.24 205.749C568.201 207.957 568.705 210.382 568.753 213.022C568.705 213.982 568.321 214.774 567.6 215.399C566.88 216.023 566.04 216.335 565.08 216.335H537.066L535.337 210.213H562.415L561.047 211.51V209.709C560.951 208.029 560.399 206.565 559.391 205.316C558.382 204.02 557.134 203.036 555.646 202.364C554.157 201.644 552.597 201.284 550.965 201.284C549.524 201.284 548.132 201.524 546.788 202.004C545.492 202.436 544.315 203.156 543.259 204.164C542.251 205.172 541.435 206.517 540.811 208.197C540.234 209.829 539.946 211.87 539.946 214.318C539.946 216.959 540.499 219.263 541.603 221.232C542.707 223.2 544.195 224.737 546.068 225.841C547.94 226.897 550.005 227.425 552.261 227.425C554.037 227.425 555.502 227.257 556.654 226.921C557.806 226.537 558.766 226.081 559.535 225.553C560.303 225.025 560.975 224.521 561.551 224.04C562.271 223.608 562.991 223.392 563.712 223.392C564.576 223.392 565.296 223.704 565.872 224.329C566.448 224.905 566.736 225.601 566.736 226.417C566.736 227.473 566.208 228.433 565.152 229.298C563.856 230.546 562.055 231.65 559.751 232.61C557.494 233.571 555.118 234.051 552.621 234.051ZM595.905 194.802C599.458 194.802 602.194 195.69 604.115 197.467C606.035 199.195 607.307 201.548 607.931 204.524L606.779 204.164L607.283 203.012C607.907 201.764 608.844 200.515 610.092 199.267C611.388 197.971 612.925 196.915 614.701 196.098C616.477 195.234 618.374 194.802 620.39 194.802C623.703 194.802 626.271 195.522 628.096 196.963C629.92 198.355 631.192 200.251 631.913 202.652C632.633 205.004 632.993 207.645 632.993 210.574V229.658C632.993 230.714 632.657 231.602 631.985 232.322C631.313 232.994 630.448 233.331 629.392 233.331C628.384 233.331 627.52 232.994 626.8 232.322C626.127 231.602 625.791 230.714 625.791 229.658V210.646C625.791 208.965 625.551 207.429 625.071 206.037C624.639 204.644 623.847 203.54 622.695 202.724C621.59 201.86 620.054 201.428 618.086 201.428C616.213 201.428 614.533 201.86 613.045 202.724C611.604 203.54 610.476 204.644 609.66 206.037C608.844 207.429 608.436 208.965 608.436 210.646V229.658C608.436 230.714 608.099 231.602 607.427 232.322C606.755 232.994 605.891 233.331 604.835 233.331C603.779 233.331 602.914 232.994 602.242 232.322C601.57 231.602 601.234 230.714 601.234 229.658V210.574C601.234 208.893 600.994 207.357 600.514 205.965C600.082 204.572 599.314 203.468 598.209 202.652C597.105 201.836 595.569 201.428 593.6 201.428C591.728 201.428 590.072 201.836 588.631 202.652C587.191 203.468 586.063 204.572 585.246 205.965C584.478 207.357 584.094 208.893 584.094 210.574V229.658C584.094 230.714 583.734 231.602 583.014 232.322C582.342 232.994 581.502 233.331 580.493 233.331C579.437 233.331 578.573 232.994 577.901 232.322C577.229 231.602 576.893 230.714 576.893 229.658V199.123C576.893 198.067 577.229 197.203 577.901 196.531C578.573 195.81 579.437 195.45 580.493 195.45C581.502 195.45 582.342 195.81 583.014 196.531C583.734 197.203 584.094 198.067 584.094 199.123V203.372L582.726 204.164C583.062 203.108 583.614 202.028 584.382 200.923C585.15 199.819 586.111 198.811 587.263 197.899C588.463 196.987 589.783 196.242 591.224 195.666C592.664 195.09 594.224 194.802 595.905 194.802ZM640.839 227.425C640.407 226.753 640.215 225.985 640.263 225.121C640.311 224.209 640.815 223.44 641.775 222.816C642.447 222.384 643.143 222.216 643.863 222.312C644.631 222.36 645.352 222.72 646.024 223.392C647.368 224.881 648.856 226.057 650.489 226.921C652.169 227.785 654.186 228.217 656.538 228.217C657.498 228.169 658.482 228.025 659.491 227.785C660.499 227.497 661.363 227.017 662.083 226.345C662.803 225.625 663.164 224.593 663.164 223.248C663.164 222.048 662.779 221.088 662.011 220.368C661.243 219.648 660.235 219.071 658.987 218.639C657.738 218.159 656.394 217.727 654.954 217.343C653.417 216.911 651.857 216.431 650.273 215.903C648.736 215.375 647.344 214.702 646.096 213.886C644.848 213.022 643.815 211.918 642.999 210.574C642.231 209.229 641.847 207.573 641.847 205.604C641.847 203.348 642.471 201.404 643.719 199.771C645.016 198.139 646.672 196.867 648.688 195.954C650.753 195.042 652.985 194.586 655.386 194.586C656.778 194.586 658.242 194.778 659.779 195.162C661.315 195.498 662.803 196.05 664.244 196.819C665.684 197.587 666.932 198.595 667.989 199.843C668.469 200.467 668.733 201.212 668.781 202.076C668.877 202.94 668.493 203.708 667.628 204.38C667.052 204.86 666.356 205.076 665.54 205.028C664.724 204.98 664.052 204.716 663.524 204.236C662.611 203.084 661.435 202.196 659.995 201.572C658.555 200.899 656.922 200.563 655.098 200.563C654.186 200.563 653.225 200.707 652.217 200.995C651.257 201.236 650.441 201.692 649.769 202.364C649.096 203.036 648.76 204.02 648.76 205.316C648.76 206.517 649.144 207.477 649.913 208.197C650.729 208.917 651.785 209.517 653.081 209.997C654.378 210.478 655.794 210.91 657.33 211.294C658.819 211.678 660.283 212.134 661.723 212.662C663.212 213.19 664.532 213.886 665.684 214.75C666.884 215.567 667.845 216.647 668.565 217.991C669.333 219.287 669.717 220.944 669.717 222.96C669.717 225.313 669.021 227.329 667.628 229.01C666.284 230.642 664.556 231.89 662.443 232.754C660.379 233.619 658.194 234.051 655.89 234.051C653.153 234.051 650.417 233.571 647.68 232.61C644.992 231.602 642.711 229.874 640.839 227.425ZM680.198 233.259C678.998 233.259 678.062 232.922 677.389 232.25C676.765 231.578 676.453 230.642 676.453 229.442V228.145C676.453 226.945 676.765 226.009 677.389 225.337C678.062 224.665 678.998 224.329 680.198 224.329H680.99C682.19 224.329 683.103 224.665 683.727 225.337C684.351 226.009 684.663 226.945 684.663 228.145V229.442C684.663 230.642 684.351 231.578 683.727 232.25C683.103 232.922 682.19 233.259 680.99 233.259H680.198Z" fill="black"/>
</svg>
