<svg width="152" height="27" viewBox="0 0 152 27" fill="none" xmlns="http://www.w3.org/2000/svg">
<path d="M11.088 5.18414L2.62799 25.7761C2.53199 26.0641 2.36399 26.2921 2.12399 26.4601C1.88399 26.6281 1.63199 26.7121 1.36799 26.7121C0.911993 26.7121 0.575993 26.5921 0.359993 26.3521C0.143993 26.1121 0.0359926 25.8241 0.0359926 25.4881C0.0119926 25.3201 0.0359926 25.1401 0.107993 24.9481L9.43199 2.26814C9.55199 1.93214 9.73199 1.69214 9.97199 1.54814C10.236 1.38014 10.524 1.30814 10.836 1.33214C11.148 1.33214 11.424 1.41614 11.664 1.58414C11.928 1.75214 12.108 1.98014 12.204 2.26814L21.492 24.7321C21.564 24.9241 21.6 25.1161 21.6 25.3081C21.6 25.7401 21.456 26.0881 21.168 26.3521C20.88 26.5921 20.556 26.7121 20.196 26.7121C19.908 26.7121 19.644 26.6281 19.404 26.4601C19.164 26.2921 18.984 26.0521 18.864 25.7401L10.296 5.14814L11.088 5.18414ZM4.42799 19.9081L5.65199 17.1001H16.344L16.884 19.9081H4.42799ZM34.22 7.56014C35.852 7.56014 37.316 7.98014 38.612 8.82014C39.908 9.63614 40.928 10.7641 41.672 12.2041C42.44 13.6441 42.824 15.3121 42.824 17.2081C42.824 19.1041 42.44 20.7841 41.672 22.2481C40.928 23.7121 39.908 24.8761 38.612 25.7401C37.34 26.5801 35.9 27.0001 34.292 27.0001C33.404 27.0001 32.564 26.8681 31.772 26.6041C31.004 26.3161 30.296 25.9441 29.648 25.4881C29.024 25.0081 28.496 24.4921 28.064 23.9401C27.632 23.3641 27.32 22.8001 27.128 22.2481L27.92 21.7441V25.3441C27.92 25.7521 27.788 26.1001 27.524 26.3881C27.26 26.6761 26.912 26.8201 26.48 26.8201C26.072 26.8201 25.724 26.6881 25.436 26.4241C25.172 26.1361 25.04 25.7761 25.04 25.3441V1.47613C25.04 1.06814 25.172 0.720136 25.436 0.432135C25.724 0.144136 26.072 0.000136375 26.48 0.000136375C26.912 0.000136375 27.26 0.144136 27.524 0.432135C27.788 0.720136 27.92 1.06814 27.92 1.47613V12.5641L27.38 12.2761C27.548 11.6761 27.836 11.1001 28.244 10.5481C28.676 9.97214 29.192 9.46814 29.792 9.03614C30.416 8.58014 31.1 8.22014 31.844 7.95613C32.612 7.69214 33.404 7.56014 34.22 7.56014ZM33.896 10.2241C32.696 10.2241 31.628 10.5241 30.692 11.1241C29.78 11.7241 29.06 12.5521 28.532 13.6081C28.028 14.6641 27.776 15.8641 27.776 17.2081C27.776 18.5521 28.028 19.7641 28.532 20.8441C29.06 21.9241 29.78 22.7761 30.692 23.4001C31.628 24.0241 32.696 24.3361 33.896 24.3361C35.096 24.3361 36.152 24.0241 37.064 23.4001C37.976 22.7761 38.696 21.9241 39.224 20.8441C39.752 19.7641 40.016 18.5521 40.016 17.2081C40.016 15.8641 39.752 14.6641 39.224 13.6081C38.696 12.5521 37.976 11.7241 37.064 11.1241C36.152 10.5241 35.096 10.2241 33.896 10.2241ZM64.8292 17.2801C64.8292 19.1521 64.4092 20.8201 63.5692 22.2841C62.7532 23.7481 61.6372 24.9001 60.2212 25.7401C58.8292 26.5801 57.2572 27.0001 55.5052 27.0001C53.7532 27.0001 52.1692 26.5801 50.7532 25.7401C49.3372 24.9001 48.2092 23.7481 47.3692 22.2841C46.5532 20.8201 46.1452 19.1521 46.1452 17.2801C46.1452 15.4081 46.5532 13.7401 47.3692 12.2761C48.2092 10.8121 49.3372 9.66014 50.7532 8.82014C52.1692 7.98014 53.7532 7.56014 55.5052 7.56014C57.2572 7.56014 58.8292 7.98014 60.2212 8.82014C61.6372 9.66014 62.7532 10.8121 63.5692 12.2761C64.4092 13.7401 64.8292 15.4081 64.8292 17.2801ZM61.9492 17.2801C61.9492 15.8881 61.6612 14.6641 61.0852 13.6081C60.5332 12.5521 59.7652 11.7241 58.7812 11.1241C57.8212 10.5241 56.7292 10.2241 55.5052 10.2241C54.2812 10.2241 53.1772 10.5241 52.1932 11.1241C51.2332 11.7241 50.4652 12.5521 49.8892 13.6081C49.3132 14.6641 49.0252 15.8881 49.0252 17.2801C49.0252 18.6481 49.3132 19.8601 49.8892 20.9161C50.4652 21.9721 51.2332 22.8121 52.1932 23.4361C53.1772 24.0361 54.2812 24.3361 55.5052 24.3361C56.7292 24.3361 57.8212 24.0361 58.7812 23.4361C59.7652 22.8121 60.5332 21.9721 61.0852 20.9161C61.6612 19.8601 61.9492 18.6481 61.9492 17.2801ZM83.0931 8.02814C83.5251 8.02814 83.8731 8.17214 84.1371 8.46014C84.4011 8.72414 84.5331 9.06014 84.5331 9.46814V19.2961C84.5331 21.7201 83.8491 23.6041 82.4811 24.9481C81.1371 26.2681 79.2531 26.9281 76.8291 26.9281C74.4291 26.9281 72.5451 26.2681 71.1771 24.9481C69.8331 23.6041 69.1611 21.7201 69.1611 19.2961V9.46814C69.1611 9.06014 69.2931 8.72414 69.5571 8.46014C69.8451 8.17214 70.1931 8.02814 70.6011 8.02814C71.0331 8.02814 71.3811 8.17214 71.6451 8.46014C71.9091 8.72414 72.0411 9.06014 72.0411 9.46814V19.2961C72.0411 20.9281 72.4611 22.1641 73.3011 23.0041C74.1411 23.8441 75.3171 24.2641 76.8291 24.2641C78.3891 24.2641 79.5771 23.8441 80.3931 23.0041C81.2331 22.1641 81.6531 20.9281 81.6531 19.2961V9.46814C81.6531 9.06014 81.7851 8.72414 82.0491 8.46014C82.3371 8.17214 82.6851 8.02814 83.0931 8.02814ZM89.1481 8.13614H97.6081C97.9921 8.13614 98.3041 8.26814 98.5441 8.53214C98.8081 8.79614 98.9401 9.10814 98.9401 9.46814C98.9401 9.85214 98.8081 10.1761 98.5441 10.4401C98.3041 10.6801 97.9921 10.8001 97.6081 10.8001H89.1481C88.7881 10.8001 88.4761 10.6681 88.2121 10.4041C87.9481 10.1401 87.8161 9.81614 87.8161 9.43214C87.8161 9.07214 87.9481 8.77214 88.2121 8.53214C88.4761 8.26814 88.7881 8.13614 89.1481 8.13614ZM92.9281 3.24014C93.3361 3.24014 93.6721 3.38414 93.9361 3.67214C94.2001 3.93614 94.3321 4.27214 94.3321 4.68014V22.0681C94.3321 22.6441 94.4161 23.0761 94.5841 23.3641C94.7521 23.6521 94.9681 23.8561 95.2321 23.9761C95.5201 24.0721 95.7961 24.1201 96.0601 24.1201C96.3001 24.1201 96.5041 24.0841 96.6721 24.0121C96.8641 23.9161 97.0801 23.8681 97.3201 23.8681C97.5601 23.8681 97.7761 23.9881 97.9681 24.2281C98.1841 24.4441 98.2921 24.7321 98.2921 25.0921C98.2921 25.5241 98.0401 25.8961 97.5361 26.2081C97.0321 26.4961 96.4681 26.6401 95.8441 26.6401C95.5081 26.6401 95.0881 26.6161 94.5841 26.5681C94.1041 26.5201 93.6241 26.3641 93.1441 26.1001C92.6641 25.8361 92.2561 25.4041 91.9201 24.8041C91.6081 24.1801 91.4521 23.3161 91.4521 22.2121V4.68014C91.4521 4.27214 91.5961 3.93614 91.8841 3.67214C92.1721 3.38414 92.5201 3.24014 92.9281 3.24014ZM131.22 1.40414C131.628 1.40414 131.964 1.54814 132.228 1.83614C132.492 2.12414 132.624 2.47214 132.624 2.88014V17.1721C132.624 19.0201 132.192 20.6761 131.328 22.1401C130.488 23.6041 129.348 24.7681 127.908 25.6321C126.468 26.4721 124.836 26.8921 123.012 26.8921C121.164 26.8921 119.508 26.4721 118.044 25.6321C116.604 24.7681 115.464 23.6041 114.624 22.1401C113.784 20.6761 113.364 19.0201 113.364 17.1721V2.88014C113.364 2.47214 113.496 2.12414 113.76 1.83614C114.048 1.54814 114.42 1.40414 114.876 1.40414C115.26 1.40414 115.596 1.54814 115.884 1.83614C116.196 2.12414 116.352 2.47214 116.352 2.88014V17.1721C116.352 18.4921 116.652 19.6681 117.252 20.7001C117.852 21.7321 118.656 22.5481 119.664 23.1481C120.696 23.7241 121.812 24.0121 123.012 24.0121C124.236 24.0121 125.364 23.7241 126.396 23.1481C127.428 22.5481 128.256 21.7321 128.88 20.7001C129.528 19.6681 129.852 18.4921 129.852 17.1721V2.88014C129.852 2.47214 129.972 2.12414 130.212 1.83614C130.452 1.54814 130.788 1.40414 131.22 1.40414ZM137.375 23.6881C137.159 23.3761 137.063 23.0521 137.087 22.7161C137.111 22.3561 137.315 22.0441 137.699 21.7801C137.939 21.6121 138.215 21.5401 138.527 21.5641C138.863 21.5881 139.163 21.7441 139.427 22.0321C140.099 22.8241 140.867 23.4601 141.731 23.9401C142.595 24.3961 143.651 24.6241 144.899 24.6241C145.475 24.6001 146.051 24.5041 146.627 24.3361C147.203 24.1681 147.683 23.8801 148.067 23.4721C148.475 23.0401 148.679 22.4761 148.679 21.7801C148.679 21.1081 148.475 20.5801 148.067 20.1961C147.659 19.7881 147.131 19.4641 146.483 19.2241C145.835 18.9601 145.127 18.7321 144.359 18.5401C143.567 18.3241 142.787 18.0841 142.019 17.8201C141.251 17.5321 140.555 17.1841 139.931 16.7761C139.331 16.3441 138.839 15.8161 138.455 15.1921C138.095 14.5441 137.915 13.7641 137.915 12.8521C137.915 11.7721 138.203 10.8361 138.779 10.0441C139.379 9.25214 140.171 8.64014 141.155 8.20814C142.163 7.77614 143.255 7.56014 144.431 7.56014C145.103 7.56014 145.799 7.64414 146.519 7.81214C147.263 7.95614 147.983 8.22014 148.679 8.60414C149.375 8.96414 149.987 9.46814 150.515 10.1161C150.731 10.3561 150.851 10.6561 150.875 11.0161C150.899 11.3761 150.743 11.7001 150.407 11.9881C150.143 12.1801 149.843 12.2641 149.507 12.2401C149.195 12.2161 148.931 12.0961 148.715 11.8801C148.211 11.2801 147.575 10.8241 146.807 10.5121C146.063 10.1761 145.235 10.0081 144.323 10.0081C143.747 10.0081 143.183 10.0921 142.631 10.2601C142.079 10.4281 141.611 10.7161 141.227 11.1241C140.867 11.5081 140.687 12.0481 140.687 12.7441C140.711 13.3921 140.927 13.9201 141.335 14.3281C141.743 14.7361 142.295 15.0721 142.991 15.3361C143.687 15.5761 144.455 15.8161 145.295 16.0561C146.063 16.2481 146.795 16.4761 147.491 16.7401C148.211 16.9801 148.859 17.3041 149.435 17.7121C150.011 18.1201 150.467 18.6481 150.803 19.2961C151.139 19.9201 151.307 20.7121 151.307 21.6721C151.307 22.7761 150.995 23.7361 150.371 24.5521C149.747 25.3441 148.919 25.9561 147.887 26.3881C146.879 26.7961 145.787 27.0001 144.611 27.0001C143.291 27.0001 141.983 26.7481 140.687 26.2441C139.415 25.7401 138.311 24.8881 137.375 23.6881Z" fill="#FD5400"/>
</svg>
