<svg width="196" height="27" viewBox="0 0 196 27" fill="none" xmlns="http://www.w3.org/2000/svg">
<path d="M13.068 27C11.244 27 9.54003 26.676 7.95603 26.028C6.37203 25.356 4.98003 24.432 3.78003 23.256C2.60403 22.056 1.68003 20.676 1.00803 19.116C0.336026 17.556 2.64198e-05 15.864 2.64198e-05 14.04C2.64198e-05 12.216 0.336026 10.524 1.00803 8.96401C1.68003 7.40401 2.60403 6.03601 3.78003 4.86001C4.98003 3.66001 6.37203 2.73601 7.95603 2.08801C9.54003 1.41601 11.244 1.08001 13.068 1.08001C14.244 1.08001 15.384 1.21201 16.488 1.47601C17.592 1.74001 18.588 2.12401 19.476 2.62801C19.788 2.79601 20.016 3.02401 20.16 3.31201C20.304 3.57601 20.376 3.84001 20.376 4.10401C20.376 4.60801 20.208 5.05201 19.872 5.43601C19.56 5.79601 19.164 5.97601 18.684 5.97601C18.516 5.97601 18.336 5.95201 18.144 5.90401C17.976 5.85601 17.82 5.79601 17.676 5.72401C17.004 5.38801 16.284 5.13601 15.516 4.96801C14.748 4.77601 13.932 4.68001 13.068 4.68001C11.34 4.68001 9.78003 5.10001 8.38803 5.94001C6.99603 6.75601 5.89203 7.87201 5.07603 9.28801C4.28403 10.704 3.88803 12.288 3.88803 14.04C3.88803 15.768 4.28403 17.352 5.07603 18.792C5.89203 20.208 6.99603 21.336 8.38803 22.176C9.78003 22.992 11.34 23.4 13.068 23.4C13.908 23.4 14.796 23.304 15.732 23.112C16.668 22.896 17.46 22.62 18.108 22.284L17.82 23.256V16.416L18.396 16.92H13.68C13.152 16.92 12.708 16.752 12.348 16.416C12.012 16.08 11.844 15.648 11.844 15.12C11.844 14.592 12.012 14.16 12.348 13.824C12.708 13.488 13.152 13.32 13.68 13.32H19.908C20.412 13.32 20.832 13.5 21.168 13.86C21.528 14.196 21.708 14.628 21.708 15.156V23.148C21.708 23.532 21.612 23.856 21.42 24.12C21.228 24.384 21.012 24.6 20.772 24.768C19.692 25.44 18.492 25.98 17.172 26.388C15.876 26.796 14.508 27 13.068 27ZM34.8584 27C32.8664 27 31.1384 26.592 29.6744 25.776C28.2104 24.936 27.0704 23.796 26.2544 22.356C25.4624 20.892 25.0664 19.224 25.0664 17.352C25.0664 15.24 25.4864 13.44 26.3264 11.952C27.1904 10.44 28.3064 9.28801 29.6744 8.49601C31.0424 7.68001 32.4944 7.27201 34.0304 7.27201C35.2064 7.27201 36.3224 7.51201 37.3784 7.99201C38.4344 8.44801 39.3704 9.09601 40.1864 9.93601C41.0264 10.752 41.6864 11.724 42.1664 12.852C42.6464 13.956 42.8984 15.168 42.9224 16.488C42.8984 16.968 42.7064 17.364 42.3464 17.676C41.9864 17.988 41.5664 18.144 41.0864 18.144H27.0824L26.2184 15.084H39.7544L39.0704 15.732V14.832C39.0224 13.992 38.7464 13.26 38.2424 12.636C37.7384 11.988 37.1144 11.496 36.3704 11.16C35.6264 10.8 34.8464 10.62 34.0304 10.62C33.3104 10.62 32.6144 10.74 31.9424 10.98C31.2944 11.196 30.7064 11.556 30.1784 12.06C29.6744 12.564 29.2664 13.236 28.9544 14.076C28.6664 14.892 28.5224 15.912 28.5224 17.136C28.5224 18.456 28.7984 19.608 29.3504 20.592C29.9024 21.576 30.6464 22.344 31.5824 22.896C32.5184 23.424 33.5504 23.688 34.6784 23.688C35.5664 23.688 36.2984 23.604 36.8744 23.436C37.4504 23.244 37.9304 23.016 38.3144 22.752C38.6984 22.488 39.0344 22.236 39.3224 21.996C39.6824 21.78 40.0424 21.672 40.4024 21.672C40.8344 21.672 41.1944 21.828 41.4824 22.14C41.7704 22.428 41.9144 22.776 41.9144 23.184C41.9144 23.712 41.6504 24.192 41.1224 24.624C40.4744 25.248 39.5744 25.8 38.4224 26.28C37.2944 26.76 36.1064 27 34.8584 27ZM46.7396 7.92001H55.1996C55.6796 7.92001 56.0756 8.08801 56.3876 8.42401C56.7236 8.73601 56.8916 9.13201 56.8916 9.61201C56.8916 10.068 56.7236 10.452 56.3876 10.764C56.0756 11.076 55.6796 11.232 55.1996 11.232H46.7396C46.2596 11.232 45.8516 11.076 45.5156 10.764C45.2036 10.428 45.0476 10.032 45.0476 9.57601C45.0476 9.09601 45.2036 8.70001 45.5156 8.38801C45.8516 8.07601 46.2596 7.92001 46.7396 7.92001ZM50.5196 3.24001C51.0476 3.24001 51.4796 3.42001 51.8156 3.78001C52.1516 4.11601 52.3196 4.54801 52.3196 5.07601V21.78C52.3196 22.212 52.3916 22.56 52.5356 22.824C52.6796 23.088 52.8716 23.268 53.1116 23.364C53.3756 23.46 53.6396 23.508 53.9036 23.508C54.1676 23.508 54.3956 23.46 54.5876 23.364C54.8036 23.268 55.0556 23.22 55.3436 23.22C55.6316 23.22 55.8956 23.352 56.1356 23.616C56.3756 23.88 56.4956 24.24 56.4956 24.696C56.4956 25.272 56.1836 25.74 55.5596 26.1C54.9356 26.46 54.2636 26.64 53.5436 26.64C53.1356 26.64 52.6556 26.604 52.1036 26.532C51.5516 26.46 51.0116 26.28 50.4836 25.992C49.9796 25.704 49.5596 25.248 49.2236 24.624C48.8876 23.976 48.7196 23.076 48.7196 21.924V5.07601C48.7196 4.54801 48.8876 4.11601 49.2236 3.78001C49.5836 3.42001 50.0156 3.24001 50.5196 3.24001ZM79.0338 27C77.3058 27 75.7698 26.76 74.4258 26.28C73.0818 25.8 71.7978 25.008 70.5738 23.904C70.3098 23.712 70.1058 23.484 69.9618 23.22C69.8418 22.932 69.7818 22.644 69.7818 22.356C69.7818 21.9 69.9498 21.492 70.2858 21.132C70.6218 20.772 71.0418 20.592 71.5458 20.592C71.9298 20.592 72.2898 20.724 72.6258 20.988C73.5378 21.828 74.4858 22.464 75.4698 22.896C76.4778 23.328 77.6538 23.544 78.9978 23.544C79.9578 23.544 80.8338 23.388 81.6258 23.076C82.4418 22.764 83.0898 22.344 83.5698 21.816C84.0498 21.288 84.2898 20.676 84.2898 19.98C84.2898 19.116 84.0378 18.408 83.5338 17.856C83.0538 17.28 82.3458 16.812 81.4098 16.452C80.4978 16.068 79.3938 15.744 78.0978 15.48C76.8978 15.264 75.8178 14.964 74.8578 14.58C73.9218 14.196 73.1178 13.716 72.4458 13.14C71.7738 12.54 71.2578 11.832 70.8978 11.016C70.5378 10.2 70.3578 9.25201 70.3578 8.17201C70.3578 6.70801 70.7418 5.44801 71.5098 4.39201C72.2778 3.33601 73.3218 2.52001 74.6418 1.94401C75.9618 1.36801 77.4498 1.08001 79.1058 1.08001C80.6178 1.08001 82.0338 1.32001 83.3538 1.80001C84.6738 2.25601 85.7418 2.88001 86.5578 3.67201C87.1338 4.17601 87.4218 4.71601 87.4218 5.29201C87.4218 5.72401 87.2418 6.13201 86.8818 6.51601C86.5458 6.87601 86.1498 7.05601 85.6938 7.05601C85.3578 7.05601 85.0698 6.96001 84.8298 6.76801C84.4458 6.36001 83.9298 6.00001 83.2818 5.68801C82.6338 5.35201 81.9378 5.07601 81.1938 4.86001C80.4738 4.64401 79.7778 4.53601 79.1058 4.53601C78.0258 4.53601 77.1018 4.69201 76.3338 5.00401C75.5658 5.29201 74.9778 5.70001 74.5698 6.22801C74.1618 6.73201 73.9578 7.33201 73.9578 8.02801C73.9578 8.84401 74.1858 9.51601 74.6418 10.044C75.1218 10.572 75.7818 11.004 76.6218 11.34C77.4618 11.652 78.4218 11.94 79.5018 12.204C80.8218 12.492 81.9978 12.816 83.0298 13.176C84.0858 13.536 84.9738 14.004 85.6938 14.58C86.4138 15.132 86.9658 15.828 87.3498 16.668C87.7338 17.508 87.9258 18.552 87.9258 19.8C87.9258 21.24 87.5178 22.5 86.7018 23.58C85.8858 24.66 84.8058 25.5 83.4618 26.1C82.1418 26.7 80.6658 27 79.0338 27ZM91.7044 7.92001H100.164C100.644 7.92001 101.04 8.08801 101.352 8.42401C101.688 8.73601 101.856 9.13201 101.856 9.61201C101.856 10.068 101.688 10.452 101.352 10.764C101.04 11.076 100.644 11.232 100.164 11.232H91.7044C91.2244 11.232 90.8164 11.076 90.4804 10.764C90.1684 10.428 90.0124 10.032 90.0124 9.57601C90.0124 9.09601 90.1684 8.70001 90.4804 8.38801C90.8164 8.07601 91.2244 7.92001 91.7044 7.92001ZM95.4844 3.24001C96.0124 3.24001 96.4444 3.42001 96.7804 3.78001C97.1164 4.11601 97.2844 4.54801 97.2844 5.07601V21.78C97.2844 22.212 97.3564 22.56 97.5004 22.824C97.6444 23.088 97.8364 23.268 98.0764 23.364C98.3404 23.46 98.6044 23.508 98.8684 23.508C99.1324 23.508 99.3604 23.46 99.5524 23.364C99.7684 23.268 100.02 23.22 100.308 23.22C100.596 23.22 100.86 23.352 101.1 23.616C101.34 23.88 101.46 24.24 101.46 24.696C101.46 25.272 101.148 25.74 100.524 26.1C99.9004 26.46 99.2284 26.64 98.5084 26.64C98.1004 26.64 97.6204 26.604 97.0684 26.532C96.5164 26.46 95.9764 26.28 95.4484 25.992C94.9444 25.704 94.5244 25.248 94.1884 24.624C93.8524 23.976 93.6844 23.076 93.6844 21.924V5.07601C93.6844 4.54801 93.8524 4.11601 94.1884 3.78001C94.5484 3.42001 94.9804 3.24001 95.4844 3.24001ZM121.359 7.41601C121.887 7.41601 122.319 7.59601 122.655 7.95601C122.991 8.29201 123.159 8.72401 123.159 9.25201V24.804C123.159 25.332 122.991 25.776 122.655 26.136C122.319 26.472 121.887 26.64 121.359 26.64C120.855 26.64 120.423 26.472 120.063 26.136C119.727 25.776 119.559 25.332 119.559 24.804V22.212L120.315 22.32C120.315 22.752 120.135 23.232 119.775 23.76C119.439 24.288 118.971 24.804 118.371 25.308C117.771 25.788 117.063 26.196 116.247 26.532C115.431 26.844 114.555 27 113.619 27C111.963 27 110.475 26.58 109.155 25.74C107.835 24.876 106.791 23.7 106.023 22.212C105.255 20.724 104.871 19.032 104.871 17.136C104.871 15.192 105.255 13.488 106.023 12.024C106.791 10.536 107.823 9.37201 109.119 8.53201C110.439 7.69201 111.903 7.27201 113.511 7.27201C114.543 7.27201 115.491 7.44001 116.355 7.77601C117.243 8.11201 118.011 8.54401 118.659 9.07201C119.307 9.60001 119.799 10.164 120.135 10.764C120.495 11.34 120.675 11.892 120.675 12.42L119.559 12.528V9.25201C119.559 8.74801 119.727 8.31601 120.063 7.95601C120.423 7.59601 120.855 7.41601 121.359 7.41601ZM114.015 23.688C115.143 23.688 116.139 23.4 117.003 22.824C117.867 22.248 118.539 21.468 119.019 20.484C119.499 19.476 119.739 18.36 119.739 17.136C119.739 15.888 119.499 14.772 119.019 13.788C118.539 12.804 117.867 12.024 117.003 11.448C116.139 10.872 115.143 10.584 114.015 10.584C112.911 10.584 111.927 10.872 111.063 11.448C110.223 12.024 109.551 12.804 109.047 13.788C108.567 14.772 108.327 15.888 108.327 17.136C108.327 18.36 108.567 19.476 109.047 20.484C109.551 21.468 110.223 22.248 111.063 22.824C111.927 23.4 112.911 23.688 114.015 23.688ZM130.002 26.64C129.474 26.64 129.042 26.472 128.706 26.136C128.37 25.776 128.202 25.332 128.202 24.804V9.54001C128.202 9.01201 128.37 8.58001 128.706 8.24401C129.042 7.88401 129.474 7.70401 130.002 7.70401C130.506 7.70401 130.926 7.88401 131.262 8.24401C131.622 8.58001 131.802 9.01201 131.802 9.54001V13.572L131.442 12.024C131.634 11.352 131.922 10.728 132.306 10.152C132.714 9.57601 133.194 9.07201 133.746 8.64001C134.298 8.20801 134.91 7.87201 135.582 7.63201C136.278 7.39201 136.998 7.27201 137.742 7.27201C138.366 7.27201 138.906 7.44001 139.362 7.77601C139.818 8.11201 140.046 8.53201 140.046 9.03601C140.046 9.68401 139.878 10.164 139.542 10.476C139.206 10.764 138.834 10.908 138.426 10.908C138.066 10.908 137.718 10.836 137.382 10.692C137.046 10.524 136.65 10.44 136.194 10.44C135.69 10.44 135.174 10.572 134.646 10.836C134.118 11.1 133.638 11.496 133.206 12.024C132.774 12.528 132.426 13.128 132.162 13.824C131.922 14.52 131.802 15.3 131.802 16.164V24.804C131.802 25.332 131.622 25.776 131.262 26.136C130.926 26.472 130.506 26.64 130.002 26.64ZM142.997 7.92001H151.457C151.937 7.92001 152.333 8.08801 152.645 8.42401C152.981 8.73601 153.149 9.13201 153.149 9.61201C153.149 10.068 152.981 10.452 152.645 10.764C152.333 11.076 151.937 11.232 151.457 11.232H142.997C142.517 11.232 142.109 11.076 141.773 10.764C141.461 10.428 141.305 10.032 141.305 9.57601C141.305 9.09601 141.461 8.70001 141.773 8.38801C142.109 8.07601 142.517 7.92001 142.997 7.92001ZM146.777 3.24001C147.305 3.24001 147.737 3.42001 148.073 3.78001C148.409 4.11601 148.577 4.54801 148.577 5.07601V21.78C148.577 22.212 148.649 22.56 148.793 22.824C148.937 23.088 149.129 23.268 149.369 23.364C149.633 23.46 149.897 23.508 150.161 23.508C150.425 23.508 150.653 23.46 150.845 23.364C151.061 23.268 151.313 23.22 151.601 23.22C151.889 23.22 152.153 23.352 152.393 23.616C152.633 23.88 152.753 24.24 152.753 24.696C152.753 25.272 152.441 25.74 151.817 26.1C151.193 26.46 150.521 26.64 149.801 26.64C149.393 26.64 148.913 26.604 148.361 26.532C147.809 26.46 147.269 26.28 146.741 25.992C146.237 25.704 145.817 25.248 145.481 24.624C145.145 23.976 144.977 23.076 144.977 21.924V5.07601C144.977 4.54801 145.145 4.11601 145.481 3.78001C145.841 3.42001 146.273 3.24001 146.777 3.24001ZM165.78 27C163.788 27 162.06 26.592 160.596 25.776C159.132 24.936 157.992 23.796 157.176 22.356C156.384 20.892 155.988 19.224 155.988 17.352C155.988 15.24 156.408 13.44 157.248 11.952C158.112 10.44 159.228 9.28801 160.596 8.49601C161.964 7.68001 163.416 7.27201 164.952 7.27201C166.128 7.27201 167.244 7.51201 168.3 7.99201C169.356 8.44801 170.292 9.09601 171.108 9.93601C171.948 10.752 172.608 11.724 173.088 12.852C173.568 13.956 173.82 15.168 173.844 16.488C173.82 16.968 173.628 17.364 173.268 17.676C172.908 17.988 172.488 18.144 172.008 18.144H158.004L157.14 15.084H170.676L169.992 15.732V14.832C169.944 13.992 169.668 13.26 169.164 12.636C168.66 11.988 168.036 11.496 167.292 11.16C166.548 10.8 165.768 10.62 164.952 10.62C164.232 10.62 163.536 10.74 162.864 10.98C162.216 11.196 161.628 11.556 161.1 12.06C160.596 12.564 160.188 13.236 159.876 14.076C159.588 14.892 159.444 15.912 159.444 17.136C159.444 18.456 159.72 19.608 160.272 20.592C160.824 21.576 161.568 22.344 162.504 22.896C163.44 23.424 164.472 23.688 165.6 23.688C166.488 23.688 167.22 23.604 167.796 23.436C168.372 23.244 168.852 23.016 169.236 22.752C169.62 22.488 169.956 22.236 170.244 21.996C170.604 21.78 170.964 21.672 171.324 21.672C171.756 21.672 172.116 21.828 172.404 22.14C172.692 22.428 172.836 22.776 172.836 23.184C172.836 23.712 172.572 24.192 172.044 24.624C171.396 25.248 170.496 25.8 169.344 26.28C168.216 26.76 167.028 27 165.78 27ZM193.429 1.43051e-05C193.957 1.43051e-05 194.389 0.168014 194.725 0.504014C195.061 0.840014 195.229 1.28401 195.229 1.83601V24.804C195.229 25.332 195.061 25.776 194.725 26.136C194.389 26.472 193.957 26.64 193.429 26.64C192.925 26.64 192.493 26.472 192.133 26.136C191.797 25.776 191.629 25.332 191.629 24.804V22.212L192.385 22.248C192.385 22.68 192.205 23.172 191.845 23.724C191.509 24.252 191.041 24.768 190.441 25.272C189.841 25.776 189.133 26.196 188.317 26.532C187.501 26.844 186.625 27 185.689 27C184.033 27 182.545 26.58 181.225 25.74C179.905 24.876 178.861 23.712 178.093 22.248C177.325 20.76 176.941 19.056 176.941 17.136C176.941 15.216 177.325 13.524 178.093 12.06C178.861 10.572 179.893 9.40801 181.189 8.56801C182.509 7.70401 183.973 7.27201 185.581 7.27201C186.589 7.27201 187.525 7.44001 188.389 7.77601C189.277 8.11201 190.045 8.54401 190.693 9.07201C191.341 9.60001 191.845 10.164 192.205 10.764C192.565 11.34 192.745 11.892 192.745 12.42L191.629 12.528V1.83601C191.629 1.30801 191.797 0.876014 192.133 0.540014C192.493 0.180014 192.925 1.43051e-05 193.429 1.43051e-05ZM186.085 23.688C187.237 23.688 188.233 23.4 189.073 22.824C189.937 22.248 190.609 21.468 191.089 20.484C191.569 19.5 191.809 18.384 191.809 17.136C191.809 15.888 191.569 14.772 191.089 13.788C190.609 12.804 189.937 12.024 189.073 11.448C188.209 10.872 187.213 10.584 186.085 10.584C184.981 10.584 183.997 10.872 183.133 11.448C182.293 12.024 181.621 12.804 181.117 13.788C180.637 14.772 180.397 15.888 180.397 17.136C180.397 18.384 180.637 19.5 181.117 20.484C181.621 21.468 182.293 22.248 183.133 22.824C183.997 23.4 184.981 23.688 186.085 23.688Z" fill="white"/>
</svg>
