<svg width="1472" height="195" viewBox="0 0 1472 195" fill="none" xmlns="http://www.w3.org/2000/svg">
<g filter="url(#filter0_d_8_103)">
<path d="M36.98 15.64L16.28 65.32C15.912 66.3014 15.36 67.068 14.624 67.62C13.888 68.172 13.06 68.448 12.14 68.448C10.7907 68.448 9.77868 68.08 9.10402 67.344C8.42935 66.5467 8.06135 65.5654 8.00002 64.4C8.00002 63.9707 8.09202 63.48 8.27602 62.928L31.644 6.44002C32.0733 5.39735 32.6867 4.60001 33.484 4.04801C34.3427 3.49601 35.2627 3.25068 36.244 3.31201C37.164 3.31201 38.0227 3.58801 38.82 4.14001C39.6174 4.69201 40.2 5.45868 40.568 6.44002L63.66 62.1C63.9054 62.7134 64.028 63.3267 64.028 63.94C64.028 65.2894 63.568 66.3934 62.648 67.252C61.7893 68.0494 60.808 68.448 59.704 68.448C58.784 68.448 57.9254 68.172 57.128 67.62C56.392 67.0067 55.84 66.24 55.472 65.32L34.588 15.916L36.98 15.64ZM19.96 52.256L24.1 43.424H50.136L51.7 52.256H19.96ZM82.6674 63.388C82.606 64.7374 82.0847 65.872 81.1034 66.792C80.1834 67.6507 79.0794 68.08 77.7914 68.08C76.3807 68.08 75.2154 67.6507 74.2954 66.792C73.4367 65.872 73.0074 64.7374 73.0074 63.388V8.37201C73.0074 7.02268 73.4674 5.91868 74.3874 5.06001C75.3074 4.14001 76.5034 3.68001 77.9754 3.68001C79.202 3.68001 80.2754 4.14001 81.1954 5.06001C82.1767 5.91868 82.6674 7.02268 82.6674 8.37201V63.388ZM99.5587 44.252C98.2707 44.252 97.1667 43.8227 96.2467 42.964C95.388 42.044 94.9587 40.94 94.9587 39.652C94.9587 38.3027 95.388 37.2293 96.2467 36.432C97.1667 35.5733 98.2707 35.144 99.5587 35.144H116.855C118.143 35.144 119.247 35.604 120.167 36.524C121.087 37.3827 121.547 38.4867 121.547 39.836C121.547 41.0627 121.087 42.1054 120.167 42.964C119.247 43.8227 118.143 44.252 116.855 44.252H99.5587ZM159.686 3.68001C162.936 3.68001 165.942 4.56935 168.702 6.34802C171.462 8.06535 173.67 10.4267 175.326 13.432C176.982 16.4373 177.81 19.8107 177.81 23.552C177.81 27.2933 176.982 30.6973 175.326 33.764C173.67 36.7693 171.462 39.192 168.702 41.032C165.942 42.8107 162.936 43.7 159.686 43.7H141.93L142.666 42.228V63.388C142.666 64.7374 142.236 65.872 141.378 66.792C140.58 67.6507 139.507 68.08 138.158 68.08C136.87 68.08 135.796 67.6507 134.938 66.792C134.14 65.872 133.742 64.7374 133.742 63.388V8.37201C133.742 7.02268 134.202 5.91868 135.122 5.06001C136.042 4.14001 137.146 3.68001 138.434 3.68001H159.686ZM159.686 34.868C161.28 34.868 162.722 34.3467 164.01 33.304C165.359 32.2613 166.432 30.8813 167.23 29.164C168.088 27.4467 168.518 25.576 168.518 23.552C168.518 21.528 168.088 19.688 167.23 18.032C166.432 16.376 165.359 15.0573 164.01 14.076C162.722 13.0333 161.28 12.512 159.686 12.512H141.746L142.666 11.132V36.064L141.838 34.868H159.686ZM233.453 43.884C233.453 48.7907 232.38 53.1453 230.233 56.948C228.087 60.6894 225.173 63.6334 221.493 65.78C217.813 67.9267 213.673 69 209.073 69C204.473 69 200.333 67.9267 196.653 65.78C192.973 63.6334 190.029 60.6894 187.821 56.948C185.675 53.1453 184.601 48.7907 184.601 43.884C184.601 38.916 185.675 34.5613 187.821 30.82C190.029 27.0173 192.973 24.0427 196.653 21.896C200.333 19.688 204.473 18.584 209.073 18.584C213.673 18.584 217.813 19.688 221.493 21.896C225.173 24.0427 228.087 27.0173 230.233 30.82C232.38 34.5613 233.453 38.916 233.453 43.884ZM224.253 43.884C224.253 40.5107 223.579 37.5973 222.229 35.144C220.88 32.6293 219.04 30.6667 216.709 29.256C214.44 27.784 211.895 27.048 209.073 27.048C206.252 27.048 203.676 27.784 201.345 29.256C199.015 30.6667 197.175 32.6293 195.825 35.144C194.476 37.5973 193.801 40.5107 193.801 43.884C193.801 47.1347 194.476 50.0173 195.825 52.532C197.175 55.0467 199.015 57.0093 201.345 58.42C203.676 59.8307 206.252 60.536 209.073 60.536C211.895 60.536 214.44 59.8307 216.709 58.42C219.04 57.0093 220.88 55.0467 222.229 52.532C223.579 50.0173 224.253 47.1347 224.253 43.884ZM300.262 19.228C301.428 19.228 302.44 19.688 303.298 20.608C304.218 21.4667 304.678 22.6013 304.678 24.012C304.678 24.3187 304.648 24.6253 304.586 24.932C304.525 25.2387 304.433 25.5147 304.31 25.76L290.234 65.136C289.866 66.1787 289.222 66.976 288.302 67.528C287.382 68.0187 286.432 68.2027 285.45 68.08C283.672 67.9574 282.353 66.976 281.494 65.136L271.098 37.536L273.214 37.72L263.646 65.136C262.788 66.976 261.469 67.9574 259.69 68.08C258.77 68.2027 257.82 68.0187 256.838 67.528C255.918 66.976 255.274 66.1787 254.906 65.136L240.738 25.76C240.493 25.208 240.37 24.6253 240.37 24.012C240.37 22.724 240.769 21.62 241.566 20.7C242.425 19.7187 243.56 19.228 244.97 19.228C245.952 19.228 246.81 19.4733 247.546 19.964C248.344 20.4547 248.896 21.1907 249.202 22.172L260.978 55.384L258.862 55.2L268.43 30.084C269.228 28.1827 270.638 27.232 272.662 27.232C273.766 27.232 274.625 27.4773 275.238 27.968C275.852 28.4587 276.342 29.164 276.71 30.084L286.462 55.292L283.978 55.568L295.846 22.172C296.46 20.2093 297.932 19.228 300.262 19.228ZM336.574 69C331.484 69 327.068 67.9574 323.326 65.872C319.585 63.7254 316.672 60.812 314.586 57.132C312.562 53.3907 311.55 49.128 311.55 44.344C311.55 38.9467 312.624 34.3467 314.77 30.544C316.978 26.68 319.83 23.736 323.326 21.712C326.822 19.6267 330.533 18.584 334.458 18.584C337.464 18.584 340.316 19.1973 343.014 20.424C345.713 21.5893 348.105 23.2453 350.19 25.392C352.337 27.4773 354.024 29.9613 355.25 32.844C356.477 35.6653 357.121 38.7627 357.182 42.136C357.121 43.3627 356.63 44.3747 355.71 45.172C354.79 45.9693 353.717 46.368 352.49 46.368H316.702L314.494 38.548H349.086L347.338 40.204V37.904C347.216 35.7573 346.51 33.8867 345.222 32.292C343.934 30.636 342.34 29.3787 340.438 28.52C338.537 27.6 336.544 27.14 334.458 27.14C332.618 27.14 330.84 27.4467 329.122 28.06C327.466 28.612 325.964 29.532 324.614 30.82C323.326 32.108 322.284 33.8254 321.486 35.972C320.75 38.0573 320.382 40.664 320.382 43.792C320.382 47.1654 321.088 50.1093 322.498 52.624C323.909 55.1387 325.81 57.1014 328.202 58.512C330.594 59.8614 333.232 60.536 336.114 60.536C338.384 60.536 340.254 60.3214 341.726 59.892C343.198 59.4014 344.425 58.8187 345.406 58.144C346.388 57.4694 347.246 56.8254 347.982 56.212C348.902 55.66 349.822 55.384 350.742 55.384C351.846 55.384 352.766 55.7827 353.502 56.58C354.238 57.316 354.606 58.2054 354.606 59.248C354.606 60.5974 353.932 61.824 352.582 62.928C350.926 64.5227 348.626 65.9334 345.682 67.16C342.8 68.3867 339.764 69 336.574 69ZM372.181 68.08C370.832 68.08 369.728 67.6507 368.869 66.792C368.011 65.872 367.581 64.7374 367.581 63.388V24.38C367.581 23.0307 368.011 21.9267 368.869 21.068C369.728 20.148 370.832 19.688 372.181 19.688C373.469 19.688 374.543 20.148 375.401 21.068C376.321 21.9267 376.781 23.0307 376.781 24.38V34.684L375.861 30.728C376.352 29.0107 377.088 27.416 378.069 25.944C379.112 24.472 380.339 23.184 381.749 22.08C383.16 20.976 384.724 20.1174 386.441 19.504C388.22 18.8907 390.06 18.584 391.961 18.584C393.556 18.584 394.936 19.0133 396.101 19.872C397.267 20.7307 397.849 21.804 397.849 23.092C397.849 24.748 397.42 25.9747 396.561 26.772C395.703 27.508 394.752 27.876 393.709 27.876C392.789 27.876 391.9 27.692 391.041 27.324C390.183 26.8947 389.171 26.68 388.005 26.68C386.717 26.68 385.399 27.0173 384.049 27.692C382.7 28.3667 381.473 29.3787 380.369 30.728C379.265 32.016 378.376 33.5493 377.701 35.328C377.088 37.1067 376.781 39.1 376.781 41.308V63.388C376.781 64.7374 376.321 65.872 375.401 66.792C374.543 67.6507 373.469 68.08 372.181 68.08ZM426.508 69C421.417 69 417.001 67.9574 413.26 65.872C409.519 63.7254 406.605 60.812 404.52 57.132C402.496 53.3907 401.484 49.128 401.484 44.344C401.484 38.9467 402.557 34.3467 404.704 30.544C406.912 26.68 409.764 23.736 413.26 21.712C416.756 19.6267 420.467 18.584 424.392 18.584C427.397 18.584 430.249 19.1973 432.948 20.424C435.647 21.5893 438.039 23.2453 440.124 25.392C442.271 27.4773 443.957 29.9613 445.184 32.844C446.411 35.6653 447.055 38.7627 447.116 42.136C447.055 43.3627 446.564 44.3747 445.644 45.172C444.724 45.9693 443.651 46.368 442.424 46.368H406.636L404.428 38.548H439.02L437.272 40.204V37.904C437.149 35.7573 436.444 33.8867 435.156 32.292C433.868 30.636 432.273 29.3787 430.372 28.52C428.471 27.6 426.477 27.14 424.392 27.14C422.552 27.14 420.773 27.4467 419.056 28.06C417.4 28.612 415.897 29.532 414.548 30.82C413.26 32.108 412.217 33.8254 411.42 35.972C410.684 38.0573 410.316 40.664 410.316 43.792C410.316 47.1654 411.021 50.1093 412.432 52.624C413.843 55.1387 415.744 57.1014 418.136 58.512C420.528 59.8614 423.165 60.536 426.048 60.536C428.317 60.536 430.188 60.3214 431.66 59.892C433.132 59.4014 434.359 58.8187 435.34 58.144C436.321 57.4694 437.18 56.8254 437.916 56.212C438.836 55.66 439.756 55.384 440.676 55.384C441.78 55.384 442.7 55.7827 443.436 56.58C444.172 57.316 444.54 58.2054 444.54 59.248C444.54 60.5974 443.865 61.824 442.516 62.928C440.86 64.5227 438.56 65.9334 435.616 67.16C432.733 68.3867 429.697 69 426.508 69ZM497.167 1.62125e-05C498.516 1.62125e-05 499.62 0.42935 500.479 1.28802C501.338 2.14668 501.767 3.28135 501.767 4.69202V63.388C501.767 64.7374 501.338 65.872 500.479 66.792C499.62 67.6507 498.516 68.08 497.167 68.08C495.879 68.08 494.775 67.6507 493.855 66.792C492.996 65.872 492.567 64.7374 492.567 63.388V56.764L494.499 56.856C494.499 57.96 494.039 59.2174 493.119 60.628C492.26 61.9774 491.064 63.296 489.531 64.584C487.998 65.872 486.188 66.9454 484.103 67.804C482.018 68.6014 479.779 69 477.387 69C473.155 69 469.352 67.9267 465.979 65.78C462.606 63.572 459.938 60.5973 457.975 56.856C456.012 53.0533 455.031 48.6987 455.031 43.792C455.031 38.8853 456.012 34.5613 457.975 30.82C459.938 27.0173 462.575 24.0427 465.887 21.896C469.26 19.688 473.002 18.584 477.111 18.584C479.687 18.584 482.079 19.0133 484.287 19.872C486.556 20.7307 488.519 21.8347 490.175 23.184C491.831 24.5333 493.119 25.9747 494.039 27.508C494.959 28.98 495.419 30.3907 495.419 31.74L492.567 32.016V4.69202C492.567 3.34268 492.996 2.23868 493.855 1.38001C494.775 0.460016 495.879 1.62125e-05 497.167 1.62125e-05ZM478.399 60.536C481.343 60.536 483.888 59.8 486.035 58.328C488.243 56.856 489.96 54.8627 491.187 52.348C492.414 49.8333 493.027 46.9813 493.027 43.792C493.027 40.6027 492.414 37.7507 491.187 35.236C489.96 32.7213 488.243 30.728 486.035 29.256C483.827 27.784 481.282 27.048 478.399 27.048C475.578 27.048 473.063 27.784 470.855 29.256C468.708 30.728 466.991 32.7213 465.703 35.236C464.476 37.7507 463.863 40.6027 463.863 43.792C463.863 46.9813 464.476 49.8333 465.703 52.348C466.991 54.8627 468.708 56.856 470.855 58.328C473.063 59.8 475.578 60.536 478.399 60.536ZM546.057 3.58801C546.793 3.58801 547.56 3.77201 548.357 4.14001C549.154 4.50801 549.768 5.02935 550.197 5.70401L573.565 41.308L569.609 41.124L593.437 5.70401C594.418 4.29335 595.676 3.58801 597.209 3.58801C598.436 3.58801 599.509 4.04801 600.429 4.96801C601.41 5.82668 601.901 6.93068 601.901 8.28001V63.388C601.901 64.7374 601.472 65.872 600.613 66.792C599.754 67.6507 598.62 68.08 597.209 68.08C595.737 68.08 594.541 67.6507 593.621 66.792C592.762 65.872 592.333 64.7374 592.333 63.388V16.744L595.277 17.388L575.037 48.208C574.608 48.76 574.056 49.2507 573.381 49.68C572.706 50.048 572.001 50.2013 571.265 50.14C570.59 50.2013 569.885 50.048 569.149 49.68C568.474 49.2507 567.922 48.76 567.493 48.208L547.989 17.848L550.197 14.168V63.388C550.197 64.7374 549.768 65.872 548.909 66.792C548.112 67.6507 547.038 68.08 545.689 68.08C544.401 68.08 543.328 67.6507 542.469 66.792C541.672 65.872 541.273 64.7374 541.273 63.388V8.28001C541.273 6.99202 541.733 5.88802 542.653 4.96801C543.634 4.04801 544.769 3.58801 546.057 3.58801ZM655.561 18.952C656.911 18.952 658.015 19.412 658.873 20.332C659.732 21.1907 660.161 22.2947 660.161 23.644V63.388C660.161 64.7374 659.732 65.872 658.873 66.792C658.015 67.6507 656.911 68.08 655.561 68.08C654.273 68.08 653.169 67.6507 652.249 66.792C651.391 65.872 650.961 64.7374 650.961 63.388V56.764L652.893 57.04C652.893 58.144 652.433 59.3707 651.513 60.72C650.655 62.0694 649.459 63.388 647.925 64.676C646.392 65.9027 644.583 66.9454 642.497 67.804C640.412 68.6014 638.173 69 635.781 69C631.549 69 627.747 67.9267 624.373 65.78C621 63.572 618.332 60.5667 616.369 56.764C614.407 52.9614 613.425 48.6374 613.425 43.792C613.425 38.824 614.407 34.4693 616.369 30.728C618.332 26.9253 620.969 23.9507 624.281 21.804C627.655 19.6573 631.396 18.584 635.505 18.584C638.143 18.584 640.565 19.0133 642.773 19.872C645.043 20.7307 647.005 21.8347 648.661 23.184C650.317 24.5333 651.575 25.9747 652.433 27.508C653.353 28.98 653.813 30.3907 653.813 31.74L650.961 32.016V23.644C650.961 22.356 651.391 21.252 652.249 20.332C653.169 19.412 654.273 18.952 655.561 18.952ZM636.793 60.536C639.676 60.536 642.221 59.8 644.429 58.328C646.637 56.856 648.355 54.8627 649.581 52.348C650.808 49.772 651.421 46.92 651.421 43.792C651.421 40.6027 650.808 37.7507 649.581 35.236C648.355 32.7213 646.637 30.728 644.429 29.256C642.221 27.784 639.676 27.048 636.793 27.048C633.972 27.048 631.457 27.784 629.249 29.256C627.103 30.728 625.385 32.7213 624.097 35.236C622.871 37.7507 622.257 40.6027 622.257 43.792C622.257 46.92 622.871 49.772 624.097 52.348C625.385 54.8627 627.103 56.856 629.249 58.328C631.457 59.8 633.972 60.536 636.793 60.536ZM677.65 68.08C676.301 68.08 675.197 67.6507 674.338 66.792C673.479 65.872 673.05 64.7374 673.05 63.388V24.38C673.05 23.0307 673.479 21.9267 674.338 21.068C675.197 20.148 676.301 19.688 677.65 19.688C678.938 19.688 680.011 20.148 680.87 21.068C681.79 21.9267 682.25 23.0307 682.25 24.38V34.684L681.33 30.728C681.821 29.0107 682.557 27.416 683.538 25.944C684.581 24.472 685.807 23.184 687.218 22.08C688.629 20.976 690.193 20.1174 691.91 19.504C693.689 18.8907 695.529 18.584 697.43 18.584C699.025 18.584 700.405 19.0133 701.57 19.872C702.735 20.7307 703.318 21.804 703.318 23.092C703.318 24.748 702.889 25.9747 702.03 26.772C701.171 27.508 700.221 27.876 699.178 27.876C698.258 27.876 697.369 27.692 696.51 27.324C695.651 26.8947 694.639 26.68 693.474 26.68C692.186 26.68 690.867 27.0173 689.518 27.692C688.169 28.3667 686.942 29.3787 685.838 30.728C684.734 32.016 683.845 33.5493 683.17 35.328C682.557 37.1067 682.25 39.1 682.25 41.308V63.388C682.25 64.7374 681.79 65.872 680.87 66.792C680.011 67.6507 678.938 68.08 677.65 68.08ZM716.839 68.08C715.551 68.08 714.447 67.6507 713.527 66.792C712.669 65.872 712.239 64.7374 712.239 63.388V4.69202C712.239 3.34268 712.669 2.23868 713.527 1.38001C714.447 0.460016 715.551 1.62125e-05 716.839 1.62125e-05C718.189 1.62125e-05 719.293 0.460016 720.151 1.38001C721.01 2.23868 721.439 3.34268 721.439 4.69202V63.388C721.439 64.7374 721.01 65.872 720.151 66.792C719.293 67.6507 718.189 68.08 716.839 68.08ZM746.831 19.504C747.997 19.504 749.009 19.9947 749.867 20.976C750.726 21.9573 751.155 22.9387 751.155 23.92C751.155 25.1467 750.573 26.2813 749.407 27.324L720.611 53.084L720.243 42.504L743.427 20.976C744.409 19.9947 745.543 19.504 746.831 19.504ZM747.935 67.988C746.647 67.988 745.543 67.4667 744.623 66.424L726.223 47.012L733.215 40.572L751.155 59.984C752.137 61.0267 752.627 62.192 752.627 63.48C752.627 64.8294 752.075 65.9334 750.971 66.792C749.929 67.5894 748.917 67.988 747.935 67.988ZM783.278 69C778.187 69 773.771 67.9574 770.03 65.872C766.288 63.7254 763.375 60.812 761.29 57.132C759.266 53.3907 758.254 49.128 758.254 44.344C758.254 38.9467 759.327 34.3467 761.474 30.544C763.682 26.68 766.534 23.736 770.03 21.712C773.526 19.6267 777.236 18.584 781.162 18.584C784.167 18.584 787.019 19.1973 789.718 20.424C792.416 21.5893 794.808 23.2453 796.894 25.392C799.04 27.4773 800.727 29.9613 801.954 32.844C803.18 35.6653 803.824 38.7627 803.886 42.136C803.824 43.3627 803.334 44.3747 802.414 45.172C801.494 45.9693 800.42 46.368 799.194 46.368H763.406L761.198 38.548H795.79L794.042 40.204V37.904C793.919 35.7573 793.214 33.8867 791.926 32.292C790.638 30.636 789.043 29.3787 787.142 28.52C785.24 27.6 783.247 27.14 781.162 27.14C779.322 27.14 777.543 27.4467 775.826 28.06C774.17 28.612 772.667 29.532 771.318 30.82C770.03 32.108 768.987 33.8254 768.19 35.972C767.454 38.0573 767.086 40.664 767.086 43.792C767.086 47.1654 767.791 50.1093 769.202 52.624C770.612 55.1387 772.514 57.1014 774.906 58.512C777.298 59.8614 779.935 60.536 782.818 60.536C785.087 60.536 786.958 60.3214 788.43 59.892C789.902 59.4014 791.128 58.8187 792.11 58.144C793.091 57.4694 793.95 56.8254 794.686 56.212C795.606 55.66 796.526 55.384 797.446 55.384C798.55 55.384 799.47 55.7827 800.206 56.58C800.942 57.316 801.31 58.2054 801.31 59.248C801.31 60.5974 800.635 61.824 799.286 62.928C797.63 64.5227 795.33 65.9334 792.386 67.16C789.503 68.3867 786.467 69 783.278 69ZM813.64 20.24H835.26C836.487 20.24 837.499 20.6693 838.296 21.528C839.155 22.3253 839.584 23.3373 839.584 24.564C839.584 25.7293 839.155 26.7107 838.296 27.508C837.499 28.3053 836.487 28.704 835.26 28.704H813.64C812.414 28.704 811.371 28.3053 810.512 27.508C809.715 26.6493 809.316 25.6373 809.316 24.472C809.316 23.2453 809.715 22.2333 810.512 21.436C811.371 20.6387 812.414 20.24 813.64 20.24ZM823.3 8.28001C824.65 8.28001 825.754 8.74001 826.612 9.66001C827.471 10.5187 827.9 11.6227 827.9 12.972V55.66C827.9 56.764 828.084 57.6533 828.452 58.328C828.82 59.0027 829.311 59.4627 829.924 59.708C830.599 59.9533 831.274 60.076 831.948 60.076C832.623 60.076 833.206 59.9533 833.696 59.708C834.248 59.4627 834.892 59.34 835.628 59.34C836.364 59.34 837.039 59.6773 837.652 60.352C838.266 61.0267 838.572 61.9467 838.572 63.112C838.572 64.584 837.775 65.78 836.18 66.7C834.586 67.62 832.868 68.08 831.028 68.08C829.986 68.08 828.759 67.988 827.348 67.804C825.938 67.62 824.558 67.16 823.208 66.424C821.92 65.688 820.847 64.5227 819.988 62.928C819.13 61.272 818.7 58.972 818.7 56.028V12.972C818.7 11.6227 819.13 10.5187 819.988 9.66001C820.908 8.74001 822.012 8.28001 823.3 8.28001ZM858.421 63.388C858.421 64.7374 857.991 65.872 857.133 66.792C856.274 67.6507 855.17 68.08 853.821 68.08C852.533 68.08 851.429 67.6507 850.509 66.792C849.65 65.872 849.221 64.7374 849.221 63.388V24.012C849.221 22.6627 849.65 21.5587 850.509 20.7C851.429 19.78 852.533 19.32 853.821 19.32C855.17 19.32 856.274 19.78 857.133 20.7C857.991 21.5587 858.421 22.6627 858.421 24.012V63.388ZM853.729 13.248C851.95 13.248 850.662 12.9413 849.865 12.328C849.067 11.6533 848.669 10.5493 848.669 9.01602V7.54401C848.669 6.01068 849.098 4.93735 849.957 4.32402C850.815 3.71068 852.103 3.40402 853.821 3.40402C855.661 3.40402 856.979 3.74135 857.777 4.41601C858.574 5.02935 858.973 6.07201 858.973 7.54401V9.01602C858.973 10.6107 858.543 11.7147 857.685 12.328C856.887 12.9413 855.569 13.248 853.729 13.248ZM895.728 18.584C900.083 18.584 903.456 19.504 905.848 21.344C908.24 23.1227 909.896 25.5453 910.816 28.612C911.797 31.6173 912.288 34.9907 912.288 38.732V63.388C912.288 64.7374 911.828 65.872 910.908 66.792C910.049 67.6507 908.976 68.08 907.688 68.08C906.339 68.08 905.235 67.6507 904.376 66.792C903.517 65.872 903.088 64.7374 903.088 63.388V38.824C903.088 36.616 902.781 34.6533 902.168 32.936C901.555 31.1573 900.481 29.7467 898.948 28.704C897.476 27.6 895.391 27.048 892.692 27.048C890.177 27.048 887.969 27.6 886.068 28.704C884.167 29.7467 882.664 31.1573 881.56 32.936C880.517 34.6533 879.996 36.616 879.996 38.824V63.388C879.996 64.7374 879.536 65.872 878.616 66.792C877.757 67.6507 876.684 68.08 875.396 68.08C874.047 68.08 872.943 67.6507 872.084 66.792C871.225 65.872 870.796 64.7374 870.796 63.388V24.38C870.796 23.0307 871.225 21.9267 872.084 21.068C872.943 20.148 874.047 19.688 875.396 19.688C876.684 19.688 877.757 20.148 878.616 21.068C879.536 21.9267 879.996 23.0307 879.996 24.38V29.532L878.34 30.452C878.769 29.1027 879.505 27.7533 880.548 26.404C881.652 24.9933 882.971 23.7053 884.504 22.54C886.037 21.3133 887.755 20.3627 889.656 19.688C891.557 18.952 893.581 18.584 895.728 18.584ZM945.21 18.584C947.847 18.584 950.27 19.0133 952.478 19.872C954.686 20.7307 956.587 21.8347 958.182 23.184C959.838 24.472 961.126 25.8213 962.046 27.232C962.966 28.6427 963.426 29.8693 963.426 30.912L961.31 31.004V23.644C961.31 22.356 961.739 21.252 962.598 20.332C963.456 19.412 964.56 18.952 965.91 18.952C967.259 18.952 968.363 19.412 969.222 20.332C970.08 21.1907 970.51 22.2947 970.51 23.644V64.216C970.51 69.4294 969.406 73.6614 967.198 76.912C964.99 80.224 962.046 82.6467 958.366 84.18C954.747 85.7134 950.76 86.48 946.406 86.48C944.872 86.48 943.063 86.2654 940.978 85.836C938.892 85.468 936.96 85.008 935.182 84.456C933.464 83.904 932.268 83.352 931.594 82.8C930.183 82.064 929.232 81.2054 928.742 80.224C928.312 79.2427 928.312 78.2614 928.742 77.28C929.355 75.9307 930.183 75.1027 931.226 74.796C932.268 74.4894 933.464 74.5814 934.814 75.072C935.427 75.256 936.378 75.5934 937.666 76.084C938.954 76.5747 940.395 77.004 941.99 77.372C943.584 77.8014 945.087 78.016 946.498 78.016C951.404 78.016 955.084 76.8814 957.538 74.612C960.052 72.3427 961.31 69.2454 961.31 65.32V57.04L962.322 57.684C962.138 58.972 961.555 60.2907 960.574 61.64C959.654 62.928 958.427 64.124 956.894 65.228C955.36 66.332 953.582 67.252 951.558 67.988C949.595 68.6627 947.571 69 945.486 69C941.131 69 937.236 67.9267 933.802 65.78C930.367 63.572 927.638 60.5973 925.614 56.856C923.59 53.0533 922.578 48.6987 922.578 43.792C922.578 38.8853 923.59 34.5613 925.614 30.82C927.638 27.0173 930.336 24.0427 933.71 21.896C937.144 19.688 940.978 18.584 945.21 18.584ZM946.59 27.048C943.584 27.048 940.947 27.784 938.678 29.256C936.408 30.728 934.63 32.7213 933.342 35.236C932.054 37.7507 931.41 40.6027 931.41 43.792C931.41 46.9813 932.054 49.8333 933.342 52.348C934.63 54.8627 936.408 56.856 938.678 58.328C940.947 59.8 943.584 60.536 946.59 60.536C949.595 60.536 952.232 59.8307 954.502 58.42C956.771 56.948 958.55 54.9547 959.838 52.44C961.126 49.864 961.77 46.9813 961.77 43.792C961.77 40.6027 961.126 37.7507 959.838 35.236C958.55 32.66 956.771 30.6667 954.502 29.256C952.232 27.784 949.595 27.048 946.59 27.048ZM1027.93 69C1023.58 69 1019.68 68.0494 1016.25 66.148C1012.81 64.1854 1010.11 61.64 1008.15 58.512C1006.19 55.384 1005.21 52.072 1005.21 48.576C1005.21 45.632 1005.73 42.9027 1006.77 40.388C1007.87 37.812 1009.5 35.5427 1011.65 33.58C1013.85 31.6173 1016.64 29.992 1020.02 28.704L1026.09 34.96C1021.67 35.9413 1018.64 37.5053 1016.98 39.652C1015.39 41.7987 1014.59 44.3133 1014.59 47.196C1014.59 49.3427 1015.11 51.428 1016.15 53.452C1017.2 55.4147 1018.82 57.04 1021.03 58.328C1023.3 59.616 1026.24 60.26 1029.86 60.26C1033.11 60.26 1035.96 59.616 1038.42 58.328C1040.93 56.9787 1043.08 55.2307 1044.86 53.084C1046.64 50.876 1048.08 48.4533 1049.18 45.816C1050.29 43.1173 1051.05 40.3573 1051.48 37.536C1051.6 36.6773 1051.94 36.0333 1052.49 35.604C1053.05 35.1133 1053.97 34.868 1055.25 34.868C1056.6 34.868 1057.65 35.3893 1058.38 36.432C1059.18 37.4747 1059.49 38.732 1059.3 40.204C1058.75 43.7614 1057.71 47.2573 1056.17 50.692C1054.64 54.0653 1052.59 57.1627 1050.01 59.984C1047.43 62.744 1044.31 64.952 1040.63 66.608C1036.95 68.2027 1032.71 69 1027.93 69ZM1060.59 68.08C1060.04 68.08 1059.52 68.0187 1059.03 67.896C1058.6 67.712 1058.26 67.528 1058.01 67.344C1053.78 63.848 1049.86 60.5667 1046.24 57.5C1042.68 54.4333 1039.31 51.3973 1036.12 48.392C1032.99 45.3254 1029.89 42.0747 1026.83 38.64C1024.68 36.1867 1022.72 33.9173 1020.94 31.832C1019.22 29.7467 1017.81 27.692 1016.71 25.668C1015.66 23.644 1015.14 21.4973 1015.14 19.228C1015.14 16.284 1015.91 13.5853 1017.44 11.132C1019.04 8.61735 1021.24 6.59335 1024.07 5.06001C1026.95 3.52668 1030.35 2.76001 1034.28 2.76001C1038.57 2.76001 1042.31 3.52668 1045.5 5.06001C1048.75 6.53201 1050.96 8.40268 1052.13 10.672C1052.19 10.7333 1052.31 11.0707 1052.49 11.684C1052.74 12.236 1052.86 12.9107 1052.86 13.708C1052.86 14.628 1052.49 15.456 1051.76 16.192C1051.02 16.928 1050.04 17.296 1048.81 17.296C1048.02 17.296 1047.37 17.1427 1046.88 16.836C1046.39 16.5293 1046.02 16.2227 1045.78 15.916C1044.43 14.076 1042.83 12.7267 1040.99 11.868C1039.22 11.0094 1036.98 10.58 1034.28 10.58C1031.21 10.58 1028.85 11.3773 1027.19 12.972C1025.6 14.5667 1024.8 16.5293 1024.8 18.86C1024.8 20.7613 1025.42 22.6933 1026.64 24.656C1027.93 26.6187 1029.4 28.52 1031.06 30.36C1032.78 32.1387 1034.34 33.7947 1035.75 35.328C1037.84 37.5973 1040.1 39.9587 1042.56 42.412C1045.07 44.804 1047.56 47.104 1050.01 49.312C1052.52 51.52 1054.86 53.544 1057 55.384C1059.15 57.224 1060.96 58.788 1062.43 60.076C1063.1 60.6893 1063.6 61.3027 1063.9 61.916C1064.27 62.5294 1064.45 63.2654 1064.45 64.124C1064.45 64.7987 1064.15 65.6267 1063.53 66.608C1062.92 67.5894 1061.94 68.08 1060.59 68.08ZM1128.08 3.68001C1133.72 3.68001 1137.98 5.06001 1140.86 7.82001C1143.81 10.58 1145.28 14.5973 1145.28 19.872C1145.28 22.632 1144.6 25.1467 1143.26 27.416C1141.97 29.624 1140.04 31.372 1137.46 32.66C1134.94 33.948 1131.79 34.6227 1127.98 34.684L1128.17 31.28C1130.19 31.28 1132.37 31.556 1134.7 32.108C1137.09 32.66 1139.33 33.6107 1141.42 34.96C1143.5 36.3093 1145.22 38.1493 1146.57 40.48C1147.92 42.7493 1148.59 45.6013 1148.59 49.036C1148.59 52.7773 1147.98 55.9053 1146.75 58.42C1145.52 60.8733 1143.9 62.8054 1141.88 64.216C1139.85 65.6267 1137.61 66.6387 1135.16 67.252C1132.77 67.804 1130.41 68.08 1128.08 68.08H1104.52C1103.24 68.08 1102.13 67.6507 1101.21 66.792C1100.29 65.872 1099.83 64.7374 1099.83 63.388V8.37201C1099.83 7.02268 1100.29 5.91868 1101.21 5.06001C1102.13 4.14001 1103.24 3.68001 1104.52 3.68001H1128.08ZM1126.79 12.696H1108.66L1109.77 11.224V31.004L1108.76 29.992H1126.97C1129.18 29.9307 1131.11 29.1947 1132.77 27.784C1134.48 26.312 1135.34 24.1653 1135.34 21.344C1135.34 18.4613 1134.58 16.3147 1133.04 14.904C1131.51 13.432 1129.42 12.696 1126.79 12.696ZM1127.43 39.008H1109.12L1109.77 38.364V60.076L1109.03 59.248H1127.98C1131.17 59.248 1133.75 58.42 1135.71 56.764C1137.67 55.0467 1138.66 52.4707 1138.66 49.036C1138.66 46.1533 1138.07 44.0067 1136.91 42.596C1135.74 41.1853 1134.3 40.2347 1132.58 39.744C1130.87 39.2533 1129.15 39.008 1127.43 39.008ZM1195.08 19.688C1196.37 19.688 1197.44 20.148 1198.3 21.068C1199.22 21.9267 1199.68 23.0307 1199.68 24.38V48.576C1199.68 54.9547 1197.9 59.9534 1194.34 63.572C1190.79 67.1294 1185.76 68.908 1179.25 68.908C1172.81 68.908 1167.82 67.1294 1164.26 63.572C1160.76 59.9534 1159.01 54.9547 1159.01 48.576V24.38C1159.01 23.0307 1159.44 21.9267 1160.3 21.068C1161.16 20.148 1162.27 19.688 1163.61 19.688C1164.9 19.688 1165.98 20.148 1166.83 21.068C1167.75 21.9267 1168.21 23.0307 1168.21 24.38V48.576C1168.21 52.5627 1169.13 55.5374 1170.97 57.5C1172.88 59.4627 1175.64 60.444 1179.25 60.444C1182.93 60.444 1185.73 59.4627 1187.63 57.5C1189.53 55.5374 1190.48 52.5627 1190.48 48.576V24.38C1190.48 23.0307 1190.91 21.9267 1191.77 21.068C1192.63 20.148 1193.73 19.688 1195.08 19.688ZM1209.62 60.536C1209.07 59.6774 1208.82 58.696 1208.88 57.592C1208.95 56.4267 1209.59 55.4453 1210.82 54.648C1211.67 54.096 1212.56 53.8813 1213.48 54.004C1214.47 54.0653 1215.39 54.5253 1216.24 55.384C1217.96 57.2853 1219.86 58.788 1221.95 59.892C1224.09 60.996 1226.67 61.548 1229.68 61.548C1230.9 61.4867 1232.16 61.3027 1233.45 60.996C1234.74 60.628 1235.84 60.0147 1236.76 59.156C1237.68 58.236 1238.14 56.9174 1238.14 55.2C1238.14 53.6667 1237.65 52.44 1236.67 51.52C1235.69 50.6 1234.4 49.864 1232.8 49.312C1231.21 48.6987 1229.49 48.1467 1227.65 47.656C1225.69 47.104 1223.7 46.4907 1221.67 45.816C1219.71 45.1413 1217.93 44.2827 1216.34 43.24C1214.74 42.136 1213.42 40.7253 1212.38 39.008C1211.4 37.2907 1210.91 35.1747 1210.91 32.66C1210.91 29.7773 1211.71 27.2933 1213.3 25.208C1214.96 23.1227 1217.07 21.4973 1219.65 20.332C1222.29 19.1667 1225.14 18.584 1228.2 18.584C1229.98 18.584 1231.85 18.8293 1233.82 19.32C1235.78 19.7493 1237.68 20.4547 1239.52 21.436C1241.36 22.4173 1242.95 23.7053 1244.3 25.3C1244.92 26.0973 1245.25 27.048 1245.32 28.152C1245.44 29.256 1244.95 30.2373 1243.84 31.096C1243.11 31.7093 1242.22 31.9853 1241.18 31.924C1240.13 31.8627 1239.27 31.5253 1238.6 30.912C1237.43 29.44 1235.93 28.3053 1234.09 27.508C1232.25 26.6493 1230.17 26.22 1227.84 26.22C1226.67 26.22 1225.44 26.404 1224.16 26.772C1222.93 27.0787 1221.89 27.6613 1221.03 28.52C1220.17 29.3787 1219.74 30.636 1219.74 32.292C1219.74 33.8253 1220.23 35.052 1221.21 35.972C1222.25 36.892 1223.6 37.6587 1225.26 38.272C1226.92 38.8853 1228.73 39.4373 1230.69 39.928C1232.59 40.4187 1234.46 41.0013 1236.3 41.676C1238.2 42.3507 1239.89 43.24 1241.36 44.344C1242.89 45.3867 1244.12 46.7667 1245.04 48.484C1246.02 50.14 1246.51 52.256 1246.51 54.832C1246.51 57.8373 1245.62 60.4133 1243.84 62.56C1242.13 64.6454 1239.92 66.24 1237.22 67.344C1234.58 68.448 1231.79 69 1228.85 69C1225.35 69 1221.86 68.3867 1218.36 67.16C1214.93 65.872 1212.01 63.664 1209.62 60.536ZM1265.05 63.388C1265.05 64.7374 1264.62 65.872 1263.77 66.792C1262.91 67.6507 1261.8 68.08 1260.45 68.08C1259.17 68.08 1258.06 67.6507 1257.14 66.792C1256.28 65.872 1255.85 64.7374 1255.85 63.388V24.012C1255.85 22.6627 1256.28 21.5587 1257.14 20.7C1258.06 19.78 1259.17 19.32 1260.45 19.32C1261.8 19.32 1262.91 19.78 1263.77 20.7C1264.62 21.5587 1265.05 22.6627 1265.05 24.012V63.388ZM1260.36 13.248C1258.58 13.248 1257.29 12.9413 1256.5 12.328C1255.7 11.6533 1255.3 10.5493 1255.3 9.01602V7.54401C1255.3 6.01068 1255.73 4.93735 1256.59 4.32402C1257.45 3.71068 1258.74 3.40402 1260.45 3.40402C1262.29 3.40402 1263.61 3.74135 1264.41 4.41601C1265.21 5.02935 1265.61 6.07201 1265.61 7.54401V9.01602C1265.61 10.6107 1265.18 11.7147 1264.32 12.328C1263.52 12.9413 1262.2 13.248 1260.36 13.248ZM1302.36 18.584C1306.72 18.584 1310.09 19.504 1312.48 21.344C1314.87 23.1227 1316.53 25.5453 1317.45 28.612C1318.43 31.6173 1318.92 34.9907 1318.92 38.732V63.388C1318.92 64.7374 1318.46 65.872 1317.54 66.792C1316.68 67.6507 1315.61 68.08 1314.32 68.08C1312.97 68.08 1311.87 67.6507 1311.01 66.792C1310.15 65.872 1309.72 64.7374 1309.72 63.388V38.824C1309.72 36.616 1309.41 34.6533 1308.8 32.936C1308.19 31.1573 1307.11 29.7467 1305.58 28.704C1304.11 27.6 1302.02 27.048 1299.32 27.048C1296.81 27.048 1294.6 27.6 1292.7 28.704C1290.8 29.7467 1289.3 31.1573 1288.19 32.936C1287.15 34.6533 1286.63 36.616 1286.63 38.824V63.388C1286.63 64.7374 1286.17 65.872 1285.25 66.792C1284.39 67.6507 1283.32 68.08 1282.03 68.08C1280.68 68.08 1279.58 67.6507 1278.72 66.792C1277.86 65.872 1277.43 64.7374 1277.43 63.388V24.38C1277.43 23.0307 1277.86 21.9267 1278.72 21.068C1279.58 20.148 1280.68 19.688 1282.03 19.688C1283.32 19.688 1284.39 20.148 1285.25 21.068C1286.17 21.9267 1286.63 23.0307 1286.63 24.38V29.532L1284.97 30.452C1285.4 29.1027 1286.14 27.7533 1287.18 26.404C1288.28 24.9933 1289.6 23.7053 1291.14 22.54C1292.67 21.3133 1294.39 20.3627 1296.29 19.688C1298.19 18.952 1300.21 18.584 1302.36 18.584ZM1354.23 69C1349.14 69 1344.73 67.9574 1340.99 65.872C1337.25 63.7254 1334.33 60.812 1332.25 57.132C1330.22 53.3907 1329.21 49.128 1329.21 44.344C1329.21 38.9467 1330.28 34.3467 1332.43 30.544C1334.64 26.68 1337.49 23.736 1340.99 21.712C1344.48 19.6267 1348.19 18.584 1352.12 18.584C1355.12 18.584 1357.98 19.1973 1360.67 20.424C1363.37 21.5893 1365.77 23.2453 1367.85 25.392C1370 27.4773 1371.68 29.9613 1372.91 32.844C1374.14 35.6653 1374.78 38.7627 1374.84 42.136C1374.78 43.3627 1374.29 44.3747 1373.37 45.172C1372.45 45.9693 1371.38 46.368 1370.15 46.368H1334.36L1332.15 38.548H1366.75L1365 40.204V37.904C1364.88 35.7573 1364.17 33.8867 1362.88 32.292C1361.59 30.636 1360 29.3787 1358.1 28.52C1356.2 27.6 1354.2 27.14 1352.12 27.14C1350.28 27.14 1348.5 27.4467 1346.78 28.06C1345.13 28.612 1343.62 29.532 1342.27 30.82C1340.99 32.108 1339.94 33.8254 1339.15 35.972C1338.41 38.0573 1338.04 40.664 1338.04 43.792C1338.04 47.1654 1338.75 50.1093 1340.16 52.624C1341.57 55.1387 1343.47 57.1014 1345.86 58.512C1348.25 59.8614 1350.89 60.536 1353.77 60.536C1356.04 60.536 1357.91 60.3214 1359.39 59.892C1360.86 59.4014 1362.09 58.8187 1363.07 58.144C1364.05 57.4694 1364.91 56.8254 1365.64 56.212C1366.56 55.66 1367.48 55.384 1368.4 55.384C1369.51 55.384 1370.43 55.7827 1371.16 56.58C1371.9 57.316 1372.27 58.2054 1372.27 59.248C1372.27 60.5974 1371.59 61.824 1370.24 62.928C1368.59 64.5227 1366.29 65.9334 1363.34 67.16C1360.46 68.3867 1357.42 69 1354.23 69ZM1382.39 60.536C1381.84 59.6774 1381.59 58.696 1381.65 57.592C1381.71 56.4267 1382.36 55.4453 1383.59 54.648C1384.44 54.096 1385.33 53.8813 1386.25 54.004C1387.23 54.0653 1388.15 54.5253 1389.01 55.384C1390.73 57.2853 1392.63 58.788 1394.72 59.892C1396.86 60.996 1399.44 61.548 1402.45 61.548C1403.67 61.4867 1404.93 61.3027 1406.22 60.996C1407.51 60.628 1408.61 60.0147 1409.53 59.156C1410.45 58.236 1410.91 56.9174 1410.91 55.2C1410.91 53.6667 1410.42 52.44 1409.44 51.52C1408.46 50.6 1407.17 49.864 1405.57 49.312C1403.98 48.6987 1402.26 48.1467 1400.42 47.656C1398.46 47.104 1396.47 46.4907 1394.44 45.816C1392.48 45.1413 1390.7 44.2827 1389.11 43.24C1387.51 42.136 1386.19 40.7253 1385.15 39.008C1384.17 37.2907 1383.68 35.1747 1383.68 32.66C1383.68 29.7773 1384.47 27.2933 1386.07 25.208C1387.73 23.1227 1389.84 21.4973 1392.42 20.332C1395.05 19.1667 1397.91 18.584 1400.97 18.584C1402.75 18.584 1404.62 18.8293 1406.59 19.32C1408.55 19.7493 1410.45 20.4547 1412.29 21.436C1414.13 22.4173 1415.72 23.7053 1417.07 25.3C1417.69 26.0973 1418.02 27.048 1418.09 28.152C1418.21 29.256 1417.72 30.2373 1416.61 31.096C1415.88 31.7093 1414.99 31.9853 1413.95 31.924C1412.9 31.8627 1412.04 31.5253 1411.37 30.912C1410.2 29.44 1408.7 28.3053 1406.86 27.508C1405.02 26.6493 1402.94 26.22 1400.61 26.22C1399.44 26.22 1398.21 26.404 1396.93 26.772C1395.7 27.0787 1394.66 27.6613 1393.8 28.52C1392.94 29.3787 1392.51 30.636 1392.51 32.292C1392.51 33.8253 1393 35.052 1393.98 35.972C1395.02 36.892 1396.37 37.6587 1398.03 38.272C1399.69 38.8853 1401.49 39.4373 1403.46 39.928C1405.36 40.4187 1407.23 41.0013 1409.07 41.676C1410.97 42.3507 1412.66 43.24 1414.13 44.344C1415.66 45.3867 1416.89 46.7667 1417.81 48.484C1418.79 50.14 1419.28 52.256 1419.28 54.832C1419.28 57.8373 1418.39 60.4133 1416.61 62.56C1414.9 64.6454 1412.69 66.24 1409.99 67.344C1407.35 68.448 1404.56 69 1401.62 69C1398.12 69 1394.63 68.3867 1391.13 67.16C1387.69 65.872 1384.78 63.664 1382.39 60.536ZM1426.32 60.536C1425.77 59.6774 1425.53 58.696 1425.59 57.592C1425.65 56.4267 1426.29 55.4453 1427.52 54.648C1428.38 54.096 1429.27 53.8813 1430.19 54.004C1431.17 54.0653 1432.09 54.5253 1432.95 55.384C1434.66 57.2853 1436.57 58.788 1438.65 59.892C1440.8 60.996 1443.37 61.548 1446.38 61.548C1447.61 61.4867 1448.86 61.3027 1450.15 60.996C1451.44 60.628 1452.54 60.0147 1453.46 59.156C1454.38 58.236 1454.84 56.9174 1454.84 55.2C1454.84 53.6667 1454.35 52.44 1453.37 51.52C1452.39 50.6 1451.1 49.864 1449.51 49.312C1447.91 48.6987 1446.2 48.1467 1444.36 47.656C1442.39 47.104 1440.4 46.4907 1438.38 45.816C1436.41 45.1413 1434.63 44.2827 1433.04 43.24C1431.44 42.136 1430.13 40.7253 1429.08 39.008C1428.1 37.2907 1427.61 35.1747 1427.61 32.66C1427.61 29.7773 1428.41 27.2933 1430 25.208C1431.66 23.1227 1433.78 21.4973 1436.35 20.332C1438.99 19.1667 1441.84 18.584 1444.91 18.584C1446.69 18.584 1448.56 18.8293 1450.52 19.32C1452.48 19.7493 1454.38 20.4547 1456.22 21.436C1458.06 22.4173 1459.66 23.7053 1461.01 25.3C1461.62 26.0973 1461.96 27.048 1462.02 28.152C1462.14 29.256 1461.65 30.2373 1460.55 31.096C1459.81 31.7093 1458.92 31.9853 1457.88 31.924C1456.84 31.8627 1455.98 31.5253 1455.3 30.912C1454.14 29.44 1452.64 28.3053 1450.8 27.508C1448.96 26.6493 1446.87 26.22 1444.54 26.22C1443.37 26.22 1442.15 26.404 1440.86 26.772C1439.63 27.0787 1438.59 27.6613 1437.73 28.52C1436.87 29.3787 1436.44 30.636 1436.44 32.292C1436.44 33.8253 1436.93 35.052 1437.92 35.972C1438.96 36.892 1440.31 37.6587 1441.96 38.272C1443.62 38.8853 1445.43 39.4373 1447.39 39.928C1449.29 40.4187 1451.16 41.0013 1453 41.676C1454.9 42.3507 1456.59 43.24 1458.06 44.344C1459.6 45.3867 1460.82 46.7667 1461.74 48.484C1462.72 50.14 1463.22 52.256 1463.22 54.832C1463.22 57.8373 1462.33 60.4133 1460.55 62.56C1458.83 64.6454 1456.62 66.24 1453.92 67.344C1451.29 68.448 1448.5 69 1445.55 69C1442.06 69 1438.56 68.3867 1435.06 67.16C1431.63 65.872 1428.72 63.664 1426.32 60.536ZM182.212 125.64L161.512 175.32C161.144 176.301 160.592 177.068 159.856 177.62C159.12 178.172 158.292 178.448 157.372 178.448C156.023 178.448 155.011 178.08 154.336 177.344C153.662 176.547 153.294 175.565 153.232 174.4C153.232 173.971 153.324 173.48 153.508 172.928L176.876 116.44C177.306 115.397 177.919 114.6 178.716 114.048C179.575 113.496 180.495 113.251 181.476 113.312C182.396 113.312 183.255 113.588 184.052 114.14C184.85 114.692 185.432 115.459 185.8 116.44L208.892 172.1C209.138 172.713 209.26 173.327 209.26 173.94C209.26 175.289 208.8 176.393 207.88 177.252C207.022 178.049 206.04 178.448 204.936 178.448C204.016 178.448 203.158 178.172 202.36 177.62C201.624 177.007 201.072 176.24 200.704 175.32L179.82 125.916L182.212 125.64ZM165.192 162.256L169.332 153.424H195.368L196.932 162.256H165.192ZM252.393 129.688C253.681 129.688 254.755 130.148 255.613 131.068C256.533 131.927 256.993 133.031 256.993 134.38V158.576C256.993 164.955 255.215 169.953 251.657 173.572C248.1 177.129 243.071 178.908 236.569 178.908C230.129 178.908 225.131 177.129 221.573 173.572C218.077 169.953 216.329 164.955 216.329 158.576V134.38C216.329 133.031 216.759 131.927 217.617 131.068C218.476 130.148 219.58 129.688 220.929 129.688C222.217 129.688 223.291 130.148 224.149 131.068C225.069 131.927 225.529 133.031 225.529 134.38V158.576C225.529 162.563 226.449 165.537 228.289 167.5C230.191 169.463 232.951 170.444 236.569 170.444C240.249 170.444 243.04 169.463 244.941 167.5C246.843 165.537 247.793 162.563 247.793 158.576V134.38C247.793 133.031 248.223 131.927 249.081 131.068C249.94 130.148 251.044 129.688 252.393 129.688ZM269.142 130.24H290.762C291.989 130.24 293.001 130.669 293.798 131.528C294.657 132.325 295.086 133.337 295.086 134.564C295.086 135.729 294.657 136.711 293.798 137.508C293.001 138.305 291.989 138.704 290.762 138.704H269.142C267.916 138.704 266.873 138.305 266.014 137.508C265.217 136.649 264.818 135.637 264.818 134.472C264.818 133.245 265.217 132.233 266.014 131.436C266.873 130.639 267.916 130.24 269.142 130.24ZM278.802 118.28C280.152 118.28 281.256 118.74 282.114 119.66C282.973 120.519 283.402 121.623 283.402 122.972V165.66C283.402 166.764 283.586 167.653 283.954 168.328C284.322 169.003 284.813 169.463 285.426 169.708C286.101 169.953 286.776 170.076 287.45 170.076C288.125 170.076 288.708 169.953 289.198 169.708C289.75 169.463 290.394 169.34 291.13 169.34C291.866 169.34 292.541 169.677 293.154 170.352C293.768 171.027 294.074 171.947 294.074 173.112C294.074 174.584 293.277 175.78 291.682 176.7C290.088 177.62 288.37 178.08 286.53 178.08C285.488 178.08 284.261 177.988 282.85 177.804C281.44 177.62 280.06 177.16 278.71 176.424C277.422 175.688 276.349 174.523 275.49 172.928C274.632 171.272 274.202 168.972 274.202 166.028V122.972C274.202 121.623 274.632 120.519 275.49 119.66C276.41 118.74 277.514 118.28 278.802 118.28ZM351.193 153.884C351.193 158.791 350.12 163.145 347.973 166.948C345.827 170.689 342.913 173.633 339.233 175.78C335.553 177.927 331.413 179 326.813 179C322.213 179 318.073 177.927 314.393 175.78C310.713 173.633 307.769 170.689 305.561 166.948C303.415 163.145 302.341 158.791 302.341 153.884C302.341 148.916 303.415 144.561 305.561 140.82C307.769 137.017 310.713 134.043 314.393 131.896C318.073 129.688 322.213 128.584 326.813 128.584C331.413 128.584 335.553 129.688 339.233 131.896C342.913 134.043 345.827 137.017 347.973 140.82C350.12 144.561 351.193 148.916 351.193 153.884ZM341.993 153.884C341.993 150.511 341.319 147.597 339.969 145.144C338.62 142.629 336.78 140.667 334.449 139.256C332.18 137.784 329.635 137.048 326.813 137.048C323.992 137.048 321.416 137.784 319.085 139.256C316.755 140.667 314.915 142.629 313.565 145.144C312.216 147.597 311.541 150.511 311.541 153.884C311.541 157.135 312.216 160.017 313.565 162.532C314.915 165.047 316.755 167.009 319.085 168.42C321.416 169.831 323.992 170.536 326.813 170.536C329.635 170.536 332.18 169.831 334.449 168.42C336.78 167.009 338.62 165.047 339.969 162.532C341.319 160.017 341.993 157.135 341.993 153.884ZM385.895 128.86C390.433 128.86 393.929 129.995 396.383 132.264C398.836 134.472 400.461 137.477 401.259 141.28L399.787 140.82L400.431 139.348C401.228 137.753 402.424 136.159 404.019 134.564C405.675 132.908 407.637 131.559 409.907 130.516C412.176 129.412 414.599 128.86 417.175 128.86C421.407 128.86 424.688 129.78 427.019 131.62C429.349 133.399 430.975 135.821 431.895 138.888C432.815 141.893 433.275 145.267 433.275 149.008V173.388C433.275 174.737 432.845 175.872 431.987 176.792C431.128 177.651 430.024 178.08 428.675 178.08C427.387 178.08 426.283 177.651 425.363 176.792C424.504 175.872 424.075 174.737 424.075 173.388V149.1C424.075 146.953 423.768 144.991 423.155 143.212C422.603 141.433 421.591 140.023 420.119 138.98C418.708 137.876 416.745 137.324 414.231 137.324C411.839 137.324 409.692 137.876 407.791 138.98C405.951 140.023 404.509 141.433 403.467 143.212C402.424 144.991 401.903 146.953 401.903 149.1V173.388C401.903 174.737 401.473 175.872 400.615 176.792C399.756 177.651 398.652 178.08 397.303 178.08C395.953 178.08 394.849 177.651 393.991 176.792C393.132 175.872 392.703 174.737 392.703 173.388V149.008C392.703 146.861 392.396 144.899 391.783 143.12C391.231 141.341 390.249 139.931 388.839 138.888C387.428 137.845 385.465 137.324 382.951 137.324C380.559 137.324 378.443 137.845 376.603 138.888C374.763 139.931 373.321 141.341 372.279 143.12C371.297 144.899 370.807 146.861 370.807 149.008V173.388C370.807 174.737 370.347 175.872 369.427 176.792C368.568 177.651 367.495 178.08 366.207 178.08C364.857 178.08 363.753 177.651 362.895 176.792C362.036 175.872 361.607 174.737 361.607 173.388V134.38C361.607 133.031 362.036 131.927 362.895 131.068C363.753 130.148 364.857 129.688 366.207 129.688C367.495 129.688 368.568 130.148 369.427 131.068C370.347 131.927 370.807 133.031 370.807 134.38V139.808L369.059 140.82C369.488 139.471 370.193 138.091 371.175 136.68C372.156 135.269 373.383 133.981 374.855 132.816C376.388 131.651 378.075 130.7 379.915 129.964C381.755 129.228 383.748 128.86 385.895 128.86ZM485.802 128.952C487.151 128.952 488.255 129.412 489.114 130.332C489.972 131.191 490.402 132.295 490.402 133.644V173.388C490.402 174.737 489.972 175.872 489.114 176.792C488.255 177.651 487.151 178.08 485.802 178.08C484.514 178.08 483.41 177.651 482.49 176.792C481.631 175.872 481.202 174.737 481.202 173.388V166.764L483.134 167.04C483.134 168.144 482.674 169.371 481.754 170.72C480.895 172.069 479.699 173.388 478.166 174.676C476.632 175.903 474.823 176.945 472.738 177.804C470.652 178.601 468.414 179 466.022 179C461.79 179 457.987 177.927 454.614 175.78C451.24 173.572 448.572 170.567 446.61 166.764C444.647 162.961 443.666 158.637 443.666 153.792C443.666 148.824 444.647 144.469 446.61 140.728C448.572 136.925 451.21 133.951 454.522 131.804C457.895 129.657 461.636 128.584 465.746 128.584C468.383 128.584 470.806 129.013 473.014 129.872C475.283 130.731 477.246 131.835 478.902 133.184C480.558 134.533 481.815 135.975 482.674 137.508C483.594 138.98 484.054 140.391 484.054 141.74L481.202 142.016V133.644C481.202 132.356 481.631 131.252 482.49 130.332C483.41 129.412 484.514 128.952 485.802 128.952ZM467.034 170.536C469.916 170.536 472.462 169.8 474.67 168.328C476.878 166.856 478.595 164.863 479.822 162.348C481.048 159.772 481.662 156.92 481.662 153.792C481.662 150.603 481.048 147.751 479.822 145.236C478.595 142.721 476.878 140.728 474.67 139.256C472.462 137.784 469.916 137.048 467.034 137.048C464.212 137.048 461.698 137.784 459.49 139.256C457.343 140.728 455.626 142.721 454.338 145.236C453.111 147.751 452.498 150.603 452.498 153.792C452.498 156.92 453.111 159.772 454.338 162.348C455.626 164.863 457.343 166.856 459.49 168.328C461.698 169.8 464.212 170.536 467.034 170.536ZM502.646 130.24H524.266C525.493 130.24 526.505 130.669 527.302 131.528C528.161 132.325 528.59 133.337 528.59 134.564C528.59 135.729 528.161 136.711 527.302 137.508C526.505 138.305 525.493 138.704 524.266 138.704H502.646C501.42 138.704 500.377 138.305 499.518 137.508C498.721 136.649 498.322 135.637 498.322 134.472C498.322 133.245 498.721 132.233 499.518 131.436C500.377 130.639 501.42 130.24 502.646 130.24ZM512.306 118.28C513.656 118.28 514.76 118.74 515.618 119.66C516.477 120.519 516.906 121.623 516.906 122.972V165.66C516.906 166.764 517.09 167.653 517.458 168.328C517.826 169.003 518.317 169.463 518.93 169.708C519.605 169.953 520.28 170.076 520.954 170.076C521.629 170.076 522.212 169.953 522.702 169.708C523.254 169.463 523.898 169.34 524.634 169.34C525.37 169.34 526.045 169.677 526.658 170.352C527.272 171.027 527.578 171.947 527.578 173.112C527.578 174.584 526.781 175.78 525.186 176.7C523.592 177.62 521.874 178.08 520.034 178.08C518.992 178.08 517.765 177.988 516.354 177.804C514.944 177.62 513.564 177.16 512.214 176.424C510.926 175.688 509.853 174.523 508.994 172.928C508.136 171.272 507.706 168.972 507.706 166.028V122.972C507.706 121.623 508.136 120.519 508.994 119.66C509.914 118.74 511.018 118.28 512.306 118.28ZM547.427 173.388C547.427 174.737 546.997 175.872 546.139 176.792C545.28 177.651 544.176 178.08 542.827 178.08C541.539 178.08 540.435 177.651 539.515 176.792C538.656 175.872 538.227 174.737 538.227 173.388V134.012C538.227 132.663 538.656 131.559 539.515 130.7C540.435 129.78 541.539 129.32 542.827 129.32C544.176 129.32 545.28 129.78 546.139 130.7C546.997 131.559 547.427 132.663 547.427 134.012V173.388ZM542.735 123.248C540.956 123.248 539.668 122.941 538.871 122.328C538.073 121.653 537.675 120.549 537.675 119.016V117.544C537.675 116.011 538.104 114.937 538.963 114.324C539.821 113.711 541.109 113.404 542.827 113.404C544.667 113.404 545.985 113.741 546.783 114.416C547.58 115.029 547.979 116.072 547.979 117.544V119.016C547.979 120.611 547.549 121.715 546.691 122.328C545.893 122.941 544.575 123.248 542.735 123.248ZM606.17 153.884C606.17 158.791 605.097 163.145 602.95 166.948C600.803 170.689 597.89 173.633 594.21 175.78C590.53 177.927 586.39 179 581.79 179C577.19 179 573.05 177.927 569.37 175.78C565.69 173.633 562.746 170.689 560.538 166.948C558.391 163.145 557.318 158.791 557.318 153.884C557.318 148.916 558.391 144.561 560.538 140.82C562.746 137.017 565.69 134.043 569.37 131.896C573.05 129.688 577.19 128.584 581.79 128.584C586.39 128.584 590.53 129.688 594.21 131.896C597.89 134.043 600.803 137.017 602.95 140.82C605.097 144.561 606.17 148.916 606.17 153.884ZM596.97 153.884C596.97 150.511 596.295 147.597 594.946 145.144C593.597 142.629 591.757 140.667 589.426 139.256C587.157 137.784 584.611 137.048 581.79 137.048C578.969 137.048 576.393 137.784 574.062 139.256C571.731 140.667 569.891 142.629 568.542 145.144C567.193 147.597 566.518 150.511 566.518 153.884C566.518 157.135 567.193 160.017 568.542 162.532C569.891 165.047 571.731 167.009 574.062 168.42C576.393 169.831 578.969 170.536 581.79 170.536C584.611 170.536 587.157 169.831 589.426 168.42C591.757 167.009 593.597 165.047 594.946 162.532C596.295 160.017 596.97 157.135 596.97 153.884ZM641.515 128.584C645.87 128.584 649.243 129.504 651.635 131.344C654.027 133.123 655.683 135.545 656.603 138.612C657.585 141.617 658.075 144.991 658.075 148.732V173.388C658.075 174.737 657.615 175.872 656.695 176.792C655.837 177.651 654.763 178.08 653.475 178.08C652.126 178.08 651.022 177.651 650.163 176.792C649.305 175.872 648.875 174.737 648.875 173.388V148.824C648.875 146.616 648.569 144.653 647.955 142.936C647.342 141.157 646.269 139.747 644.735 138.704C643.263 137.6 641.178 137.048 638.479 137.048C635.965 137.048 633.757 137.6 631.855 138.704C629.954 139.747 628.451 141.157 627.347 142.936C626.305 144.653 625.783 146.616 625.783 148.824V173.388C625.783 174.737 625.323 175.872 624.403 176.792C623.545 177.651 622.471 178.08 621.183 178.08C619.834 178.08 618.73 177.651 617.871 176.792C617.013 175.872 616.583 174.737 616.583 173.388V134.38C616.583 133.031 617.013 131.927 617.871 131.068C618.73 130.148 619.834 129.688 621.183 129.688C622.471 129.688 623.545 130.148 624.403 131.068C625.323 131.927 625.783 133.031 625.783 134.38V139.532L624.127 140.452C624.557 139.103 625.293 137.753 626.335 136.404C627.439 134.993 628.758 133.705 630.291 132.54C631.825 131.313 633.542 130.363 635.443 129.688C637.345 128.952 639.369 128.584 641.515 128.584ZM770.606 113.404C771.833 113.404 772.968 113.864 774.01 114.784C775.053 115.643 775.574 116.839 775.574 118.372C775.574 118.801 775.482 119.323 775.298 119.936L756.438 175.136C756.132 176.056 755.58 176.761 754.782 177.252C753.985 177.743 753.157 178.019 752.298 178.08C751.44 178.08 750.581 177.835 749.722 177.344C748.864 176.853 748.22 176.117 747.79 175.136L733.254 141.096L734.082 141.464L719.73 175.136C719.24 176.117 718.565 176.853 717.706 177.344C716.909 177.835 716.05 178.08 715.13 178.08C714.333 178.019 713.536 177.743 712.738 177.252C711.941 176.761 711.389 176.056 711.082 175.136L692.222 119.936C692.038 119.323 691.946 118.801 691.946 118.372C691.946 116.839 692.498 115.643 693.602 114.784C694.706 113.864 695.841 113.404 697.006 113.404C697.988 113.404 698.877 113.68 699.674 114.232C700.533 114.723 701.116 115.459 701.422 116.44L717.338 163.912H715.682L729.666 129.688C730.096 128.768 730.678 128.032 731.414 127.48C732.212 126.928 733.101 126.683 734.082 126.744C735.064 126.683 735.922 126.928 736.658 127.48C737.456 128.032 738.038 128.768 738.406 129.688L751.654 162.9L750.274 163.636L766.098 116.44C766.405 115.459 766.988 114.723 767.846 114.232C768.705 113.68 769.625 113.404 770.606 113.404ZM792.61 173.388C792.61 174.737 792.181 175.872 791.322 176.792C790.463 177.651 789.359 178.08 788.01 178.08C786.722 178.08 785.618 177.651 784.698 176.792C783.839 175.872 783.41 174.737 783.41 173.388V134.012C783.41 132.663 783.839 131.559 784.698 130.7C785.618 129.78 786.722 129.32 788.01 129.32C789.359 129.32 790.463 129.78 791.322 130.7C792.181 131.559 792.61 132.663 792.61 134.012V173.388ZM787.918 123.248C786.139 123.248 784.851 122.941 784.054 122.328C783.257 121.653 782.858 120.549 782.858 119.016V117.544C782.858 116.011 783.287 114.937 784.146 114.324C785.005 113.711 786.293 113.404 788.01 113.404C789.85 113.404 791.169 113.741 791.966 114.416C792.763 115.029 793.162 116.072 793.162 117.544V119.016C793.162 120.611 792.733 121.715 791.874 122.328C791.077 122.941 789.758 123.248 787.918 123.248ZM804.342 130.24H825.962C827.188 130.24 828.2 130.669 828.998 131.528C829.856 132.325 830.286 133.337 830.286 134.564C830.286 135.729 829.856 136.711 828.998 137.508C828.2 138.305 827.188 138.704 825.962 138.704H804.342C803.115 138.704 802.072 138.305 801.214 137.508C800.416 136.649 800.018 135.637 800.018 134.472C800.018 133.245 800.416 132.233 801.214 131.436C802.072 130.639 803.115 130.24 804.342 130.24ZM814.002 118.28C815.351 118.28 816.455 118.74 817.314 119.66C818.172 120.519 818.602 121.623 818.602 122.972V165.66C818.602 166.764 818.786 167.653 819.154 168.328C819.522 169.003 820.012 169.463 820.626 169.708C821.3 169.953 821.975 170.076 822.65 170.076C823.324 170.076 823.907 169.953 824.398 169.708C824.95 169.463 825.594 169.34 826.33 169.34C827.066 169.34 827.74 169.677 828.354 170.352C828.967 171.027 829.274 171.947 829.274 173.112C829.274 174.584 828.476 175.78 826.882 176.7C825.287 177.62 823.57 178.08 821.73 178.08C820.687 178.08 819.46 177.988 818.05 177.804C816.639 177.62 815.259 177.16 813.91 176.424C812.622 175.688 811.548 174.523 810.69 172.928C809.831 171.272 809.402 168.972 809.402 166.028V122.972C809.402 121.623 809.831 120.519 810.69 119.66C811.61 118.74 812.714 118.28 814.002 118.28ZM864.854 128.86C869.086 128.86 872.367 129.78 874.698 131.62C877.029 133.399 878.654 135.821 879.574 138.888C880.555 141.955 881.046 145.328 881.046 149.008V173.388C881.046 174.737 880.586 175.872 879.666 176.792C878.807 177.651 877.734 178.08 876.446 178.08C875.097 178.08 873.993 177.651 873.134 176.792C872.275 175.872 871.846 174.737 871.846 173.388V149.008C871.846 146.861 871.539 144.899 870.926 143.12C870.374 141.341 869.362 139.931 867.89 138.888C866.479 137.845 864.486 137.324 861.91 137.324C859.518 137.324 857.371 137.845 855.47 138.888C853.63 139.931 852.189 141.341 851.146 143.12C850.165 144.899 849.674 146.861 849.674 149.008V173.388C849.674 174.737 849.214 175.872 848.294 176.792C847.435 177.651 846.362 178.08 845.074 178.08C843.725 178.08 842.621 177.651 841.762 176.792C840.903 175.872 840.474 174.737 840.474 173.388V114.692C840.474 113.343 840.903 112.239 841.762 111.38C842.621 110.46 843.725 110 845.074 110C846.362 110 847.435 110.46 848.294 111.38C849.214 112.239 849.674 113.343 849.674 114.692V139.808L848.018 140.728C848.447 139.379 849.153 137.999 850.134 136.588C851.177 135.177 852.434 133.889 853.906 132.724C855.439 131.559 857.126 130.639 858.966 129.964C860.806 129.228 862.769 128.86 864.854 128.86ZM968.759 113.68C969.985 113.68 970.967 114.109 971.703 114.968C972.5 115.765 972.899 116.777 972.899 118.004V173.388C972.899 174.737 972.439 175.872 971.519 176.792C970.66 177.651 969.556 178.08 968.207 178.08C967.593 178.08 966.919 177.957 966.183 177.712C965.508 177.467 964.987 177.129 964.619 176.7L926.807 127.664L928.923 126.468V173.848C928.923 175.013 928.524 176.025 927.727 176.884C926.929 177.681 925.917 178.08 924.691 178.08C923.403 178.08 922.36 177.681 921.563 176.884C920.827 176.025 920.459 175.013 920.459 173.848V118.372C920.459 116.961 920.919 115.827 921.839 114.968C922.759 114.109 923.863 113.68 925.151 113.68C925.825 113.68 926.531 113.833 927.267 114.14C928.064 114.385 928.647 114.784 929.015 115.336L965.907 163.36L964.527 164.648V118.004C964.527 116.777 964.925 115.765 965.723 114.968C966.52 114.109 967.532 113.68 968.759 113.68ZM1033.29 153.884C1033.29 158.791 1032.21 163.145 1030.07 166.948C1027.92 170.689 1025.01 173.633 1021.33 175.78C1017.65 177.927 1013.51 179 1008.91 179C1004.31 179 1000.17 177.927 996.487 175.78C992.807 173.633 989.863 170.689 987.655 166.948C985.509 163.145 984.435 158.791 984.435 153.884C984.435 148.916 985.509 144.561 987.655 140.82C989.863 137.017 992.807 134.043 996.487 131.896C1000.17 129.688 1004.31 128.584 1008.91 128.584C1013.51 128.584 1017.65 129.688 1021.33 131.896C1025.01 134.043 1027.92 137.017 1030.07 140.82C1032.21 144.561 1033.29 148.916 1033.29 153.884ZM1024.09 153.884C1024.09 150.511 1023.41 147.597 1022.06 145.144C1020.71 142.629 1018.87 140.667 1016.54 139.256C1014.27 137.784 1011.73 137.048 1008.91 137.048C1006.09 137.048 1003.51 137.784 1001.18 139.256C998.849 140.667 997.009 142.629 995.659 145.144C994.31 147.597 993.635 150.511 993.635 153.884C993.635 157.135 994.31 160.017 995.659 162.532C997.009 165.047 998.849 167.009 1001.18 168.42C1003.51 169.831 1006.09 170.536 1008.91 170.536C1011.73 170.536 1014.27 169.831 1016.54 168.42C1018.87 167.009 1020.71 165.047 1022.06 162.532C1023.41 160.017 1024.09 157.135 1024.09 153.884ZM1105.92 169.064C1107.21 169.064 1108.28 169.493 1109.14 170.352C1110.06 171.211 1110.52 172.284 1110.52 173.572C1110.52 174.86 1110.06 175.933 1109.14 176.792C1108.28 177.651 1107.21 178.08 1105.92 178.08H1075.01C1073.66 178.08 1072.53 177.651 1071.61 176.792C1070.75 175.872 1070.32 174.737 1070.32 173.388V118.372C1070.32 117.023 1070.78 115.919 1071.7 115.06C1072.62 114.14 1073.81 113.68 1075.29 113.68C1076.51 113.68 1077.59 114.14 1078.51 115.06C1079.49 115.919 1079.98 117.023 1079.98 118.372V170.628L1078.05 169.064H1105.92ZM1128.72 173.388C1128.72 174.737 1128.29 175.872 1127.43 176.792C1126.57 177.651 1125.46 178.08 1124.12 178.08C1122.83 178.08 1121.72 177.651 1120.8 176.792C1119.94 175.872 1119.52 174.737 1119.52 173.388V134.012C1119.52 132.663 1119.94 131.559 1120.8 130.7C1121.72 129.78 1122.83 129.32 1124.12 129.32C1125.46 129.32 1126.57 129.78 1127.43 130.7C1128.29 131.559 1128.72 132.663 1128.72 134.012V173.388ZM1124.02 123.248C1122.24 123.248 1120.96 122.941 1120.16 122.328C1119.36 121.653 1118.96 120.549 1118.96 119.016V117.544C1118.96 116.011 1119.39 114.937 1120.25 114.324C1121.11 113.711 1122.4 113.404 1124.12 113.404C1125.96 113.404 1127.27 113.741 1128.07 114.416C1128.87 115.029 1129.27 116.072 1129.27 117.544V119.016C1129.27 120.611 1128.84 121.715 1127.98 122.328C1127.18 122.941 1125.86 123.248 1124.02 123.248ZM1165.38 128.86C1169.92 128.86 1173.41 129.995 1175.87 132.264C1178.32 134.472 1179.95 137.477 1180.74 141.28L1179.27 140.82L1179.92 139.348C1180.71 137.753 1181.91 136.159 1183.5 134.564C1185.16 132.908 1187.12 131.559 1189.39 130.516C1191.66 129.412 1194.08 128.86 1196.66 128.86C1200.89 128.86 1204.17 129.78 1206.5 131.62C1208.83 133.399 1210.46 135.821 1211.38 138.888C1212.3 141.893 1212.76 145.267 1212.76 149.008V173.388C1212.76 174.737 1212.33 175.872 1211.47 176.792C1210.61 177.651 1209.51 178.08 1208.16 178.08C1206.87 178.08 1205.77 177.651 1204.85 176.792C1203.99 175.872 1203.56 174.737 1203.56 173.388V149.1C1203.56 146.953 1203.25 144.991 1202.64 143.212C1202.09 141.433 1201.08 140.023 1199.6 138.98C1198.19 137.876 1196.23 137.324 1193.72 137.324C1191.32 137.324 1189.18 137.876 1187.28 138.98C1185.44 140.023 1183.99 141.433 1182.95 143.212C1181.91 144.991 1181.39 146.953 1181.39 149.1V173.388C1181.39 174.737 1180.96 175.872 1180.1 176.792C1179.24 177.651 1178.14 178.08 1176.79 178.08C1175.44 178.08 1174.33 177.651 1173.48 176.792C1172.62 175.872 1172.19 174.737 1172.19 173.388V149.008C1172.19 146.861 1171.88 144.899 1171.27 143.12C1170.72 141.341 1169.73 139.931 1168.32 138.888C1166.91 137.845 1164.95 137.324 1162.44 137.324C1160.04 137.324 1157.93 137.845 1156.09 138.888C1154.25 139.931 1152.81 141.341 1151.76 143.12C1150.78 144.899 1150.29 146.861 1150.29 149.008V173.388C1150.29 174.737 1149.83 175.872 1148.91 176.792C1148.05 177.651 1146.98 178.08 1145.69 178.08C1144.34 178.08 1143.24 177.651 1142.38 176.792C1141.52 175.872 1141.09 174.737 1141.09 173.388V134.38C1141.09 133.031 1141.52 131.927 1142.38 131.068C1143.24 130.148 1144.34 129.688 1145.69 129.688C1146.98 129.688 1148.05 130.148 1148.91 131.068C1149.83 131.927 1150.29 133.031 1150.29 134.38V139.808L1148.54 140.82C1148.97 139.471 1149.68 138.091 1150.66 136.68C1151.64 135.269 1152.87 133.981 1154.34 132.816C1155.87 131.651 1157.56 130.7 1159.4 129.964C1161.24 129.228 1163.23 128.86 1165.38 128.86ZM1234.28 173.388C1234.28 174.737 1233.85 175.872 1232.99 176.792C1232.14 177.651 1231.03 178.08 1229.68 178.08C1228.39 178.08 1227.29 177.651 1226.37 176.792C1225.51 175.872 1225.08 174.737 1225.08 173.388V134.012C1225.08 132.663 1225.51 131.559 1226.37 130.7C1227.29 129.78 1228.39 129.32 1229.68 129.32C1231.03 129.32 1232.14 129.78 1232.99 130.7C1233.85 131.559 1234.28 132.663 1234.28 134.012V173.388ZM1229.59 123.248C1227.81 123.248 1226.52 122.941 1225.73 122.328C1224.93 121.653 1224.53 120.549 1224.53 119.016V117.544C1224.53 116.011 1224.96 114.937 1225.82 114.324C1226.68 113.711 1227.96 113.404 1229.68 113.404C1231.52 113.404 1232.84 113.741 1233.64 114.416C1234.44 115.029 1234.83 116.072 1234.83 117.544V119.016C1234.83 120.611 1234.4 121.715 1233.55 122.328C1232.75 122.941 1231.43 123.248 1229.59 123.248ZM1246.01 130.24H1267.63C1268.86 130.24 1269.87 130.669 1270.67 131.528C1271.53 132.325 1271.96 133.337 1271.96 134.564C1271.96 135.729 1271.53 136.711 1270.67 137.508C1269.87 138.305 1268.86 138.704 1267.63 138.704H1246.01C1244.79 138.704 1243.74 138.305 1242.89 137.508C1242.09 136.649 1241.69 135.637 1241.69 134.472C1241.69 133.245 1242.09 132.233 1242.89 131.436C1243.74 130.639 1244.79 130.24 1246.01 130.24ZM1255.67 118.28C1257.02 118.28 1258.13 118.74 1258.99 119.66C1259.84 120.519 1260.27 121.623 1260.27 122.972V165.66C1260.27 166.764 1260.46 167.653 1260.83 168.328C1261.19 169.003 1261.68 169.463 1262.3 169.708C1262.97 169.953 1263.65 170.076 1264.32 170.076C1265 170.076 1265.58 169.953 1266.07 169.708C1266.62 169.463 1267.27 169.34 1268 169.34C1268.74 169.34 1269.41 169.677 1270.03 170.352C1270.64 171.027 1270.95 171.947 1270.95 173.112C1270.95 174.584 1270.15 175.78 1268.55 176.7C1266.96 177.62 1265.24 178.08 1263.4 178.08C1262.36 178.08 1261.13 177.988 1259.72 177.804C1258.31 177.62 1256.93 177.16 1255.58 176.424C1254.29 175.688 1253.22 174.523 1252.36 172.928C1251.5 171.272 1251.07 168.972 1251.07 166.028V122.972C1251.07 121.623 1251.5 120.519 1252.36 119.66C1253.28 118.74 1254.39 118.28 1255.67 118.28ZM1281.09 170.536C1280.54 169.677 1280.29 168.696 1280.35 167.592C1280.42 166.427 1281.06 165.445 1282.29 164.648C1283.15 164.096 1284.03 163.881 1284.95 164.004C1285.94 164.065 1286.86 164.525 1287.71 165.384C1289.43 167.285 1291.33 168.788 1293.42 169.892C1295.57 170.996 1298.14 171.548 1301.15 171.548C1302.37 171.487 1303.63 171.303 1304.92 170.996C1306.21 170.628 1307.31 170.015 1308.23 169.156C1309.15 168.236 1309.61 166.917 1309.61 165.2C1309.61 163.667 1309.12 162.44 1308.14 161.52C1307.16 160.6 1305.87 159.864 1304.27 159.312C1302.68 158.699 1300.96 158.147 1299.12 157.656C1297.16 157.104 1295.17 156.491 1293.14 155.816C1291.18 155.141 1289.4 154.283 1287.81 153.24C1286.21 152.136 1284.89 150.725 1283.85 149.008C1282.87 147.291 1282.38 145.175 1282.38 142.66C1282.38 139.777 1283.18 137.293 1284.77 135.208C1286.43 133.123 1288.54 131.497 1291.12 130.332C1293.76 129.167 1296.61 128.584 1299.67 128.584C1301.45 128.584 1303.32 128.829 1305.29 129.32C1307.25 129.749 1309.15 130.455 1310.99 131.436C1312.83 132.417 1314.43 133.705 1315.77 135.3C1316.39 136.097 1316.73 137.048 1316.79 138.152C1316.91 139.256 1316.42 140.237 1315.31 141.096C1314.58 141.709 1313.69 141.985 1312.65 141.924C1311.6 141.863 1310.75 141.525 1310.07 140.912C1308.91 139.44 1307.4 138.305 1305.56 137.508C1303.72 136.649 1301.64 136.22 1299.31 136.22C1298.14 136.22 1296.91 136.404 1295.63 136.772C1294.4 137.079 1293.36 137.661 1292.5 138.52C1291.64 139.379 1291.21 140.636 1291.21 142.292C1291.21 143.825 1291.7 145.052 1292.68 145.972C1293.73 146.892 1295.07 147.659 1296.73 148.272C1298.39 148.885 1300.2 149.437 1302.16 149.928C1304.06 150.419 1305.93 151.001 1307.77 151.676C1309.67 152.351 1311.36 153.24 1312.83 154.344C1314.36 155.387 1315.59 156.767 1316.51 158.484C1317.49 160.14 1317.98 162.256 1317.98 164.832C1317.98 167.837 1317.09 170.413 1315.31 172.56C1313.6 174.645 1311.39 176.24 1308.69 177.344C1306.05 178.448 1303.26 179 1300.32 179C1296.82 179 1293.33 178.387 1289.83 177.16C1286.4 175.872 1283.48 173.664 1281.09 170.536Z" fill="white"/>
</g>
<defs>
<filter id="filter0_d_8_103" x="0" y="0" width="1471.21" height="195" filterUnits="userSpaceOnUse" color-interpolation-filters="sRGB">
<feFlood flood-opacity="0" result="BackgroundImageFix"/>
<feColorMatrix in="SourceAlpha" type="matrix" values="0 0 0 0 0 0 0 0 0 0 0 0 0 0 0 0 0 0 127 0" result="hardAlpha"/>
<feOffset dy="4"/>
<feGaussianBlur stdDeviation="2"/>
<feComposite in2="hardAlpha" operator="out"/>
<feColorMatrix type="matrix" values="0 0 0 0 0 0 0 0 0 0 0 0 0 0 0 0 0 0 0.25 0"/>
<feBlend mode="normal" in2="BackgroundImageFix" result="effect1_dropShadow_8_103"/>
<feBlend mode="normal" in="SourceGraphic" in2="effect1_dropShadow_8_103" result="shape"/>
</filter>
</defs>
</svg>
